<?xml version="1.0" standalone="no"?>
<!DOCTYPE svg PUBLIC "-//W3C//DTD SVG 1.1//EN" "http://www.w3.org/Graphics/SVG/1.1/DTD/svg11.dtd" >
<svg xmlns="http://www.w3.org/2000/svg" xmlns:xlink="http://www.w3.org/1999/xlink" version="1.1">
<metadata></metadata>
<defs>
<font id="cool_script" horiz-adv-x="1089" >
<font-face units-per-em="2048" ascent="1536" descent="-512" />
<missing-glyph horiz-adv-x="432" />
<glyph horiz-adv-x="0" />
<glyph horiz-adv-x="0" />
<glyph unicode="&#xd;" horiz-adv-x="432" />
<glyph unicode=" "  horiz-adv-x="432" />
<glyph unicode="&#x09;" horiz-adv-x="432" />
<glyph unicode="&#xa0;" horiz-adv-x="432" />
<glyph unicode="!" horiz-adv-x="649" d="M195 57q0 44 34.5 94t77.5 50q35 0 62.5 -38.5t27.5 -80.5q0 -44 -32.5 -71t-71.5 -27q-96 0 -98 73zM250 1399q3 45 53 45q85 0 125.5 -47t40.5 -148q0 -256 -29 -467q-28 -213 -45.5 -275.5t-58.5 -62.5q-17 0 -35 9q-19 6 -30 22.5t-11 38.5q0 33 2 72q17 295 17 465 q0 163 -25 305q-4 24 -4 43z" />
<glyph unicode="&#x22;" horiz-adv-x="796" d="M141 1417q0 28 39 47q30 15 56 15q131 0 131 -224q0 -59 -6 -112t-19 -103t-38.5 -80t-61.5 -30q-52 0 -54 51q33 81 33 143q0 107 -65 248q-15 38 -15 45zM444 1454q0 26 34 46t67 20q63 0 88.5 -56t25.5 -159q0 -58 -7.5 -114t-22.5 -106.5t-42 -82t-61 -31.5 q-57 0 -57 59q14 33 20.5 61t7.5 44.5t1 48.5q0 63 -13.5 114.5t-27 89t-13.5 66.5z" />
<glyph unicode="#" horiz-adv-x="1366" d="M113 279q0 59 54 92.5t169 48.5q4 71 16 221q-139 -13 -153 -20q-25 5 -25 36q0 68 50 97t145 34q7 66 28 205q0 79 33 135t102 56q31 0 46.5 -9.5t15.5 -39.5q-36 -150 -66 -342h19q55 0 153.5 -3.5t114.5 -3.5q15 112 37 195q14 66 42.5 104t82.5 39q42 0 56 -9.5 t14 -35.5q-33 -147 -60 -295q266 -5 266 -59q0 -55 -47 -55q-38 0 -76.5 1t-48.5 1q-79 0 -116 -2q-6 -33 -35 -236q142 0 203 -9.5t61 -35.5q0 -55 -47 -55h-37q-109 0 -197 -8q-42 -288 -59 -369q-3 -20 -6 -34.5t-8.5 -30t-15.5 -23.5t-23 -8q-25 0 -40.5 15t-15.5 36 q0 94 5 158l16 243l-301 -30q-4 -42 -8 -87.5t-6.5 -75.5t-5.5 -62t-5 -52t-5.5 -39.5t-7.5 -31t-9.5 -20.5t-13 -13t-17.5 -4q-15 0 -26 7t-16.5 15t-9 24.5t-4 24t-1.5 23.5v274q-160 -19 -193 -39q-24 2 -24 52zM483 432q93 4 295 8q5 67 23 232l-291 -19z" />
<glyph unicode="$" horiz-adv-x="917" d="M70 866q0 128 104 221.5t277 131.5l6 38q20 156 69 156q88 -13 97 -76q0 -8 -5 -18q-13 -32 -22 -82q18 2 59 2q47 0 80 -3t63 -10.5t45 -23.5t15 -41q0 -37 -21.5 -70.5t-50.5 -33.5q-1 0 -23 6.5t-58 13t-70 6.5q-24 0 -64 -4q-21 -178 -45 -485q51 -33 80.5 -53 t73 -55t66.5 -64t41 -68.5t18 -79.5q0 -97 -89.5 -182.5t-228.5 -132.5v-186q-6 -27 -22 -27q-1 0 -4.5 1t-5.5 1q-68 10 -68 184q-66 -14 -139 -14q-38 0 -72.5 18t-34.5 56q0 21 8.5 36t22.5 15q6 0 27.5 -4t38.5 -4q72 0 149 22q0 249 8 449q-56 31 -95 55.5t-86 61.5 t-75.5 71.5t-48.5 79.5t-20 92zM242 879q0 -51 40.5 -99.5t120.5 -105.5q11 214 27 379q-188 -57 -188 -174zM494 102q59 32 94 74t35 88q0 80 -109 168q-11 -129 -20 -330z" />
<glyph unicode="%" horiz-adv-x="1593" d="M135 877q0 55 17.5 107t51 97t91 72t129.5 27q54 0 101 -28.5t77.5 -72.5t48 -95t17.5 -97q0 -124 -83.5 -205.5t-201.5 -81.5q-114 0 -181 82.5t-67 194.5zM293 907q0 -80 34.5 -119.5t86.5 -39.5q43 0 80.5 42t37.5 101q0 63 -42 97t-95 34q-41 0 -71.5 -38t-30.5 -77z M373 -121q4 13 8 21l11 16q11 16 16 27q32 58 62 119.5t72 155t54 118.5q195 428 326 856q0 2 2 6t2 6v39q0 1 1 4t1 4q17 66 135 66q63 0 63 -64q-6 -66 -32 -127q0 -6 -62 -163.5t-182.5 -426.5t-237.5 -483q-57 -104 -101 -164.5t-77 -60.5q-34 0 -43.5 9t-17.5 42z M936 244q0 55 18.5 106.5t53.5 94.5t93.5 69.5t131.5 26.5q103 0 175.5 -89t72.5 -212q0 -261 -269 -279q-129 0 -202.5 84.5t-73.5 198.5zM1104 252q0 -42 9.5 -72t22.5 -45.5t34.5 -24.5t37.5 -10.5t39 -1.5q24 0 62.5 42t38.5 93q0 70 -45 116t-95 46q-39 0 -71.5 -42 t-32.5 -101z" />
<glyph unicode="&#x26;" horiz-adv-x="1228" d="M94 190q0 53 20.5 112.5t62 126t79 118t94.5 123.5q-137 204 -137 358q0 62 22.5 107.5t61 71t82 37t92.5 11.5q104 0 187 -58t83 -146q0 -52 -29 -111t-89 -147q-11 -18 -95 -127q117 -176 283 -334q87 81 168 190q23 37 51 37q49 0 49 -78q0 -108 -168 -245 q55 -51 113.5 -98t71.5 -48q6 -2 11 -13t5 -26q0 -29 -6.5 -41t-30.5 -12q-12 0 -20 2q-39 4 -119.5 56.5t-132.5 101.5q-126 -78 -264.5 -128t-239.5 -50q-87 0 -146 56t-59 154zM268 201q0 -35 23.5 -60.5t73.5 -25.5q162 0 346 135q-177 177 -271 297 q-157 -225 -172 -334v-12zM381 1040q0 -106 70 -243l55 80q72 111 72 165q0 39 -31.5 66t-69.5 27q-43 0 -69.5 -19.5t-26.5 -75.5z" />
<glyph unicode="'" horiz-adv-x="481" d="M113 1434q0 24 34.5 42.5t67.5 18.5q117 0 129 -192q2 -20 2 -60q0 -57 -4.5 -106.5t-15.5 -95.5t-32.5 -72.5t-51.5 -26.5q-54 0 -54 45v10q7 45 7 105q0 7 -1 21.5t-1 21.5q-3 54 -41.5 156.5t-38.5 132.5z" />
<glyph unicode="(" horiz-adv-x="581" d="M158 682q0 473 129 735q48 98 90 127q19 15 57 15q43 0 75 -27.5t32 -69.5q0 -24 -45 -69q-43 -47 -84 -172q-90 -256 -90 -557q0 -304 55.5 -576.5t154.5 -439.5q3 -11 3 -23q0 -21 -21 -31t-41 -10q-99 0 -203 340q-112 371 -112 758z" />
<glyph unicode=")" horiz-adv-x="585" d="M45 1497q0 40 30 66t72 26q8 0 16.5 -4t13.5 -8.5t12 -11.5t10 -9q59 -52 105.5 -163t72.5 -241.5t39.5 -254t13.5 -225.5q0 -373 -113 -752q-14 -46 -30 -90t-42.5 -101t-60.5 -91.5t-69 -34.5q-22 2 -40 15.5t-18 37.5q0 8 2 14q101 163 153 418t52 574q0 268 -86 557 q-17 56 -51 111t-58 95t-24 72z" />
<glyph unicode="*" horiz-adv-x="886" d="M90 1176q0 11 96 49l25 12q51 20 113 37q-91 104 -111 149q-23 30 -23 58q0 27 33 45q41 18 60 18q26 0 49 -33q53 -60 106 -139q58 126 86 164q30 47 60 47q18 0 32 -14q12 -10 24.5 -33t12.5 -45q0 -15 -6 -21q-57 -81 -94 -141q142 27 184 27q38 0 60 -11.5t22 -46.5 q0 -38 -14 -65t-37 -27q-87 0 -209 -8q35 -49 88 -102l21 -21q47 -37 47 -65q0 -22 -7.5 -40t-21.5 -18q-3 0 -6.5 1t-8.5 3.5l-9 4.5t-10.5 6.5t-11 7.5t-12 8.5t-12.5 9t-13 10t-13 9.5l-17 14q-41 30 -120 109q-20 -50 -50 -127l-38 -99q-11 -14 -39 -14q-37 0 -37 23 q0 30 22 112q11 52 45 137q-80 -14 -217 -53q-18 2 -33.5 20t-15.5 42z" />
<glyph unicode="+" horiz-adv-x="1249" d="M135 514q0 28 10 49t30 34t40.5 21.5t52 13t53 6t55 3t48.5 2.5l88 6v215q0 49 8 83.5t36 63t75 36.5h14q59 0 62 -43q0 -38 -13.5 -126t-13.5 -139q0 -6 -4 -80q191 9 377 9q61 0 61 -62q0 -18 -40.5 -33t-117 -25.5t-135 -16.5t-145.5 -13q0 -29 3 -111.5t3 -136.5 v-139q0 -34 -39 -39h-14q-24 0 -37.5 10.5t-25 49t-19 97.5t-17.5 173l-8 80q-99 -13 -175 -31t-110.5 -28.5t-48.5 -10.5q-53 6 -53 82z" />
<glyph unicode="," horiz-adv-x="534" d="M90 -352q0 6 51 61q37 44 58.5 108.5t21.5 127.5q0 19 -3.5 40.5t-6.5 34.5t-11 41t-10 37q-1 6 -15.5 33t-14.5 37q0 37 40 63.5t83 26.5q58 0 87 -62t29 -145q0 -190 -141 -385q-51 -67 -94 -67q-37 0 -55.5 10t-18.5 39z" />
<glyph unicode="-" horiz-adv-x="1189" d="M135 418q0 36 8.5 59.5t23 37.5t42 22.5t57 13t76.5 9.5q8 1 12 1q167 19 363 19q234 0 286 -12t52 -68q0 -15 -9.5 -29t-29.5 -14q-75 0 -191 -11t-274 -30t-191 -23t-94 -25.5t-82 -21.5q-49 0 -49 72z" />
<glyph unicode="." horiz-adv-x="507" d="M158 106q0 45 40 68t89 23q31 0 49 -30.5t18 -72.5q0 -123 -94 -123q-50 0 -76 42.5t-26 92.5z" />
<glyph unicode="/" horiz-adv-x="624" d="M23 -106q0 2 4.5 11t11.5 25t12 31q226 610 373 1423q0 2 1 7.5t1 7.5q0 6 -2 18.5t-2 18.5q0 2 1 7t1 7q11 68 121 68q69 0 69 -80q0 -14 -10 -76l-10.5 -52.5t-23.5 -103t-43.5 -167.5t-87.5 -310t-140 -467q-129 -422 -207 -422q-33 0 -46.5 11t-22.5 43z" />
<glyph unicode="0" horiz-adv-x="1091" d="M102 547q0 159 40 288t105.5 208t145 121t162.5 42q87 0 159.5 -32t122 -86t83.5 -126.5t49.5 -152.5t15.5 -166q0 -321 -125 -510.5t-336 -191.5q-6 0 -18.5 1t-18.5 1q-85 7 -153.5 51t-110.5 107.5t-70.5 144.5t-39.5 155.5t-11 145.5zM291 553q0 -56 7 -115 t26 -126.5t47.5 -119t77.5 -86t110 -34.5q223 0 262 420q6 81 6 114q0 52 -5 104.5t-21.5 116.5t-42 111.5t-71 80t-105.5 32.5q-57 0 -107 -28.5t-92.5 -86t-67 -156.5t-24.5 -227z" />
<glyph unicode="1" horiz-adv-x="598" d="M184 911q0 48 3.5 81.5t15 70t36.5 59t64 31.5q27 6 49 6q59 0 62 -39q0 -18 -2 -24q-41 -246 -41 -486q0 -84 8 -268q3 -75 16 -195t19 -155q0 -41 -12 -50.5t-44 -9.5q-19 0 -34.5 8.5t-26 25.5t-18.5 31.5t-13.5 38t-8 33.5t-5.5 29q-31 156 -49.5 384t-18.5 429z" />
<glyph unicode="2" horiz-adv-x="1038" d="M94 903q0 96 114 168t302 72q158 0 243 -50t85 -147q0 -71 -37.5 -150t-99.5 -154.5t-124.5 -141t-131.5 -136t-101 -112.5q-51 -65 -51 -121q0 -15 5 -23t30 -14t73 -6q129 0 256 53t199 146q19 24 37 24q10 0 22 -3t27 -11t25 -26.5t10 -45.5q0 -62 -44.5 -111.5 t-112 -78.5t-156 -48.5t-167.5 -26.5t-155 -7q-48 0 -78 2t-64.5 10t-54 23.5t-32.5 44t-13 69.5q0 51 31.5 111.5t81.5 118.5t110.5 119t121 121.5t110.5 117.5t81.5 115.5t31.5 107.5q0 84 -109 84q-101 0 -169.5 -34.5t-125.5 -108.5q-39 -53 -67 -53q-48 0 -75.5 29 t-27.5 73z" />
<glyph unicode="3" horiz-adv-x="976" d="M80 1026q0 74 101 128t280 54q44 0 87.5 -4t95 -17.5t90.5 -34.5t65 -58t26 -86q0 -48 -29.5 -99.5t-73 -94t-95 -82.5t-95 -67.5t-73 -46.5t-29.5 -22q181 -16 301 -70q78 -34 119 -93t41 -128q0 -83 -43 -155.5t-111 -120.5t-151 -75.5t-164 -27.5q-77 0 -149 14 t-128.5 52t-56.5 94q0 27 14.5 54.5t40.5 27.5q7 0 13 -2q20 -10 54 -31.5t55.5 -33t61.5 -21.5t87 -10q62 0 126.5 22t114.5 72.5t50 118.5q0 42 -27 86t-72 65q-110 52 -237 58q-37 2 -59.5 6t-43.5 14.5t-30.5 31t-10.5 52.5q0 11 23.5 29t76 52.5t85.5 59.5 q99 73 168 143.5t69 116.5q0 35 -49 54.5t-121 19.5q-70 0 -117 -15t-69 -36.5t-36.5 -43.5t-31 -37t-41.5 -15q-102 0 -102 102z" />
<glyph unicode="4" horiz-adv-x="1075" d="M43 338q0 12 27 43q104 146 184 344.5t160 495.5q8 22 43 22q14 0 18 -2q57 -11 88 -48t31 -81q0 -27 -14 -72t-44 -108.5t-50 -104.5t-58.5 -115t-44.5 -85q-14 -28 -37.5 -76.5t-39.5 -79.5t-30 -51q280 49 349 59q2 79 16 207q24 213 121 213l6 1q6 1 10 1 q27 0 54.5 -18.5t27.5 -46.5q0 -3 -4 -23q-25 -57 -39 -149q-10 -52 -22 -164q74 4 139 4q23 0 37 -14t14 -39q-4 -38 -39 -82q-16 -21 -55 -21q-37 -2 -107 -2q-2 -39 -2 -115q0 -141 13 -321v-31q-3 -35 -33 -35q-62 0 -80 54q-55 155 -59 440q-171 -10 -306 -41 q-31 -7 -66.5 -18t-56.5 -17t-34 -6q-31 0 -74 24t-43 58z" />
<glyph unicode="5" horiz-adv-x="958" d="M86 -2q0 10 2 21.5t12 24.5t27 13q10 -2 57 -21.5t90 -21.5h19q143 0 244.5 100t101.5 232q0 87 -50 153t-138 66q-137 0 -230 -39q-4 -2 -20 -2q-35 0 -35 64q0 16 2 52t2 58q0 138 -4.5 219.5t-10 100.5t-10 39.5t-4.5 52.5q0 59 92 59q8 0 125 -11t177 -11q52 0 141 8 t110 8q23 0 35.5 -18.5t12.5 -40.5q0 -71 -33 -101t-96 -30q-51 0 -187 22.5t-164 22.5q-27 -2 -37 -11.5t-10 -39.5q0 -20 4 -60q4 -58 4 -96q0 -29 -6 -152q78 19 180 19q148 0 247.5 -80.5t99.5 -212.5q0 -100 -36.5 -185t-95.5 -143t-134.5 -99t-152.5 -60t-151 -19 q-43 0 -80.5 9t-68.5 37t-31 73z" />
<glyph unicode="6" horiz-adv-x="989" d="M113 518q0 97 14.5 189t51 183t91.5 158.5t142.5 109.5t197.5 42q100 0 181 -48.5t81 -119.5q0 -36 -29 -69t-73 -33q-2 0 -2.5 1t-2.5 4.5t-5 6.5q-73 96 -189 96q-78 0 -136.5 -46t-90 -121.5t-46.5 -157.5t-15 -170q0 -10 1 -29.5t1 -28.5q69 51 156 81t165 30 q140 0 223.5 -89.5t83.5 -215.5q0 -147 -105 -258t-263 -111q-102 0 -186 51t-136.5 136t-81 190.5t-28.5 218.5zM297 375q55 -314 256 -314q85 0 135.5 60.5t50.5 140.5q0 77 -44 133t-122 60h-24q-133 0 -252 -80z" />
<glyph unicode="7" horiz-adv-x="841" d="M10 1073q0 31 15 82q5 14 11.5 18.5t24.5 4.5q3 0 52.5 -8t120.5 -16.5t124 -8.5q176 0 275 26q10 3 25 8t25 8t19 3q19 0 46 -10q26 -11 48.5 -31.5t22.5 -42.5q0 -13 -20 -33q-189 -276 -291 -727q-8 -39 -24.5 -108t-26 -116t-17.5 -104q-1 -9 -4 -34t-5.5 -43 t-4.5 -21q-11 -16 -39 -16q-33 0 -55.5 26t-22.5 88q0 145 31 297q86 407 211 709q-27 -5 -91.5 -18.5t-104 -21t-96 -14.5t-103.5 -7q-57 0 -101.5 26.5t-44.5 83.5z" />
<glyph unicode="8" horiz-adv-x="1009" d="M94 184q0 106 71 200.5t197 195.5q-102 76 -159.5 154.5t-57.5 172.5q0 72 39.5 131t104 95t142.5 55.5t161 19.5q159 0 241 -58.5t82 -152.5q0 -46 -19 -91.5t-45.5 -82t-73.5 -80t-85 -73t-98 -72.5q43 -27 60.5 -38t57.5 -38.5t58.5 -44.5t47.5 -45.5t42 -53t24 -56.5 t11 -64q0 -21 -2 -31q-20 -141 -146.5 -233t-281.5 -92q-184 0 -277.5 75t-93.5 207zM244 201q0 -77 66.5 -120.5t146.5 -43.5q119 0 188.5 59t69.5 164q-2 29 -21 58.5t-61 64.5t-72.5 57t-93.5 64q-107 -82 -165 -153.5t-58 -149.5zM332 889q0 -61 40 -113t111 -104 q71 55 104 82t79 71.5t65 80.5t19 73q0 39 -29 65t-92 29h-25q-121 0 -196.5 -46t-75.5 -138z" />
<glyph unicode="9" horiz-adv-x="993" d="M92 821q0 157 111.5 260t265.5 103q86 0 156 -33.5t116.5 -90t78 -134.5t45.5 -164t14 -182q0 -88 -16.5 -178.5t-52 -177.5t-86 -155t-125 -109.5t-161.5 -41.5q-55 0 -123 24t-123 72.5t-55 104.5q0 35 24 61.5t70 26.5q27 0 27 -6q0 -8 15 -30.5t39 -49t62 -46.5 t77 -20q67 0 119 52t80 132.5t41.5 161.5t13.5 154q0 9 -5 111l-6 -9q-64 -64 -148.5 -102.5t-176.5 -38.5q-91 0 -160 49q-117 79 -117 256zM274 799q0 -70 37 -110t105 -40q82 0 153 51q19 13 34.5 27t41 39.5t35.5 34.5q-55 241 -223 241q-84 0 -133.5 -68t-49.5 -175z " />
<glyph unicode=":" horiz-adv-x="563" d="M168 651v11q0 38 31.5 55.5t70.5 17.5t72 -27t33 -71q0 -41 -27 -78t-63 -37q-103 0 -117 129zM178 121q0 45 40 67.5t89 22.5q31 0 53.5 -35.5t22.5 -77.5q0 -110 -96 -110q-51 0 -80 42.5t-29 90.5z" />
<glyph unicode=";" horiz-adv-x="567" d="M113 -340q0 4 6.5 11.5t22 22.5t24.5 25q38 44 65 107t27 119q0 20 -3.5 43t-10.5 49.5t-12.5 43.5t-15.5 46.5t-13 38.5q0 1 -1 3t-1 3q0 26 39 51t84 25q50 0 79 -60t29 -129q0 -121 -33 -202q-40 -103 -98.5 -180.5t-114.5 -77.5q-73 0 -73 61zM168 651v11 q0 38 31.5 55.5t70.5 17.5t72 -27t33 -71q0 -41 -27 -78t-63 -37q-103 0 -117 129z" />
<glyph unicode="&#x3c;" horiz-adv-x="999" d="M158 524q0 61 77 152t176 168t191 132.5t123 55.5q45 0 83 -28.5t38 -71.5q0 -21 -10 -34.5t-22 -20t-42 -19.5q-104 -47 -248.5 -161t-144.5 -162q0 -37 42 -89.5t109.5 -106.5t133 -99t131.5 -84q16 -9 23.5 -17t9 -12.5t1.5 -11.5q0 -33 -15 -45.5t-54 -12.5 q-55 0 -158.5 57t-200.5 133t-170 156t-73 121z" />
<glyph unicode="=" horiz-adv-x="1265" d="M158 315q0 35 23.5 69t60.5 40q138 19 424.5 30t377.5 25q8 2 25 2q61 0 61 -65q0 -35 -92 -54t-247.5 -30t-184.5 -15q-69 -10 -158.5 -28.5t-147.5 -30.5t-75 -12q-67 0 -67 69zM174 662q0 35 8.5 58.5t23 37.5t42 22t57 12.5t76.5 9.5q4 0 6.5 0.5t5.5 0.5 q176 20 363 20q234 0 286 -12t52 -68q0 -15 -9.5 -29t-29.5 -14q-75 0 -189.5 -10.5t-277 -30t-189.5 -22.5q-33 -4 -94 -25.5t-82 -21.5q-49 0 -49 72z" />
<glyph unicode="&#x3e;" horiz-adv-x="987" d="M158 920q0 41 42 81.5t81 40.5q32 0 121 -55.5t184.5 -132.5t169 -169t73.5 -155t-113.5 -175.5t-256.5 -199.5t-219 -87q-39 0 -57.5 13.5t-18.5 45.5q0 10 29 27q83 46 124 75q310 207 310 310q0 39 -69 102.5t-151.5 117.5t-164.5 97q-68 36 -76 44q-8 9 -8 20z" />
<glyph unicode="?" horiz-adv-x="819" d="M90 1200q0 78 83.5 132t213.5 54q62 0 121 -17.5t109.5 -51t81 -91.5t30.5 -132q0 -59 -19 -110t-47.5 -86t-64 -75.5t-67.5 -77t-58.5 -91.5t-36.5 -119q-2 -11 -3 -34.5t-2.5 -41.5t-6.5 -36.5t-17.5 -29t-31.5 -10.5q-44 0 -77.5 25t-33.5 67q0 73 20 137t50.5 108 t66 89t66 81t50.5 83.5t20 97.5q0 107 -30.5 144.5t-96.5 37.5q-47 0 -80.5 -28t-47.5 -61t-27 -61t-24 -28q-61 0 -101 30t-40 95zM283 84q0 41 29 70.5t83 29.5q38 0 65 -39t27 -86q0 -36 -21 -60t-63 -24q-56 0 -88 33t-32 76z" />
<glyph unicode="@" horiz-adv-x="1665" d="M135 352q0 103 26 201.5t83 189.5t138.5 159.5t200.5 109.5t261 41q138 0 260.5 -40t217.5 -113t154 -186t66 -251q0 -62 -21 -129t-59 -126t-98.5 -97.5t-130.5 -38.5q-53 0 -100 59t-78 164q-46 -115 -124 -178.5t-149 -63.5q-115 0 -186 85.5t-74 211.5v15 q0 78 19 142.5t49 106.5t69.5 71t79.5 41.5t80 12.5q38 0 79.5 -12.5t78 -46.5t39.5 -82q0 -25 -20 -48.5t-40 -23.5q-9 0 -19 13.5t-20 29.5t-29.5 29.5t-43.5 13.5q-42 0 -72.5 -22t-46.5 -59t-23.5 -76t-7.5 -82v-11q1 -42 12 -79t41 -67t76 -30q40 0 73 25.5t53.5 64 t38 83.5t29 83.5t23.5 64t23 25.5q34 0 58.5 -14t25.5 -41q0 -29 5 -70.5t16 -92.5t36 -86t58 -35q42 0 79 69t37 176q0 144 -79.5 260t-204.5 177t-267 61q-100 0 -186 -32t-147 -86t-104 -125t-64 -149.5t-21 -158.5q0 -113 39.5 -212t111.5 -171.5t178 -114t232 -41.5 q198 0 398 99q62 31 168 114q24 21 32 26t17 5q30 0 45.5 -22.5t15.5 -44.5q0 -66 -111.5 -135.5t-273.5 -113.5t-305 -44q-165 0 -302.5 50.5t-227 136t-138.5 198t-49 237.5z" />
<glyph unicode="A" d="M45 438q0 48 26.5 88.5t63.5 40.5h49q94 380 207 713q65 193 150 193t92 -54l8 -28q20 -60 100.5 -339t116.5 -399q97 21 115 21q26 0 26 -23q0 -18 -2 -22q-15 -39 -35.5 -56t-68.5 -32q35 -123 64.5 -271t29.5 -202q0 -37 -18 -58.5t-72 -29.5q-30 -5 -31 -5 q-30 0 -38 17.5t-11 66.5q-3 38 -41 236q-28 129 -45 201q-186 -45 -436 -78q-8 -38 -62 -324q-4 -25 -4 -86v-12q0 -72 -100 -72q-31 0 -46 13t-15 51v8q0 7 4 27q14 132 71 378h-14q-5 0 -21 -2t-24 -2q-39 0 -39 41zM324 571q190 8 376 47q-28 113 -81.5 316.5 t-65.5 249.5q0 1 -1 3.5t-1.5 4t-1.5 3.5t-2.5 3t-3 2.5t-3.5 2t-5 1t-7 0.5q-9 -2 -34.5 -60.5t-67 -188t-80.5 -289.5z" />
<glyph unicode="B" horiz-adv-x="1163" d="M-31 1155q7 51 60 94t190 78q214 53 361 53q67 0 126.5 -9.5t118.5 -33t94 -71.5t35 -117q0 -111 -105 -251t-233 -177q18 2 58 2q58 0 113.5 -9t110.5 -31t96.5 -55t67 -85t25.5 -117q0 -86 -28.5 -159t-77.5 -125.5t-117 -94t-142.5 -67.5t-159.5 -43t-163 -24t-157 -7 q-152 0 -152 84q0 30 13 53t30 23q14 0 22 -4t21.5 -13t34.5 -16q21 -8 70 -8q87 0 166 9t164.5 36t147.5 69t102 114.5t40 166.5q-4 59 -27.5 98.5t-67 60.5t-95.5 29t-127 8q-20 0 -74 -12t-66 -12t-32 8q0 -63 2 -98q2 -40 7 -87.5t12.5 -106t10.5 -91.5q10 -97 11 -121 q2 -6 2 -12q0 -23 -43 -23q-41 0 -67 37.5t-38 94.5q-41 188 -55 534q-2 39 -2 117q0 309 125 309q40 0 69 -13t29 -30q0 -2 -12.5 -51t-28 -143.5t-20.5 -200.5q59 12 92 35q238 145 256 342q-1 38 -16 66t-36 43t-55 23.5t-63 10.5t-70 2q-97 0 -162.5 -8.5t-146.5 -38.5 q-125 -39 -207 -96q-37 12 -37 61z" />
<glyph unicode="C" horiz-adv-x="946" d="M102 662q0 100 17 199t51.5 194.5t95.5 173.5t142 121q79 43 167 43q105 0 187 -64q94 -73 94 -196q0 -40 -21 -64.5t-57 -24.5h-22q-9 1 -17 7.5t-15.5 19t-12 21.5t-11.5 25.5t-8 19.5q-31 71 -108 71q-58 0 -115 -45q-67 -52 -111.5 -155t-59.5 -194t-15 -171 q0 -55 3.5 -107t13 -119.5t29.5 -122.5t49.5 -103t76.5 -75.5t106 -27.5q27 0 51 6q65 18 124.5 80t82.5 127q14 41 31 41q59 0 59 -72q0 -94 -91 -183.5t-210 -117.5q-61 -14 -98 -14q-68 0 -125.5 24.5t-99 66t-74 99t-52.5 120t-33.5 133.5t-18.5 135.5t-5 128.5z" />
<glyph unicode="D" horiz-adv-x="1126" d="M-27 1106q0 110 160 180q65 30 92 39q23 125 101 125q39 0 68.5 -13.5t29.5 -35.5q0 -2 -1 -7.5t-3 -17t-4 -22.5h73q270 0 431 -165.5t161 -449.5q0 -123 -35.5 -242.5t-104.5 -222t-162.5 -181t-217.5 -123t-262 -44.5q-40 0 -68 3t-60.5 12t-49.5 30t-17 54 q0 28 46 28q27 0 70.5 -4t62.5 -4q182 0 321 90.5t213 247.5t74 356q0 94 -22 175.5t-68 150t-126.5 108t-187.5 39.5q-45 0 -88 -6q-12 -164 -12 -313q0 -128 15.5 -405t15.5 -324q0 -26 -21.5 -49t-52.5 -23q-32 0 -44.5 55t-33.5 242q-44 350 -47 774q-77 -27 -143 -78 q-6 -4 -18 -13.5t-19 -14t-12 -4.5q-17 0 -27.5 2.5t-18.5 15t-8 35.5z" />
<glyph unicode="E" horiz-adv-x="1093" d="M94 1094q0 18 35.5 50.5t103.5 67.5q33 158 97 158q37 0 64.5 -10t27.5 -23l-8 -51q116 35 188 51q90 21 189 21q35 0 59.5 -2.5t55 -10t47 -27.5t16.5 -50q0 -42 -10 -78t-27 -37q-37 12 -152 12q-86 0 -215 -14q-67 -9 -172 -39q-26 -244 -31 -465q68 34 98 48.5t88 38 t107.5 33t100.5 9.5q33 0 54 -1.5t44.5 -7.5t36.5 -17.5t22 -32t9 -49.5q0 -36 -8.5 -48t-30.5 -12q-13 0 -48.5 4t-62.5 4q-192 0 -412 -98v-88q0 -247 27 -344q126 47 281 77t305 30q59 0 59 -66q0 -42 -23 -81.5t-51 -39.5q-13 0 -52 3t-60 3q-216 0 -416 -43 q-19 -4 -47 -11.5t-45 -11t-31 -3.5q-30 0 -52.5 84t-33 220t-15.5 269t-5 268q0 134 10 271q-76 -27 -78 -27q-15 1 -27 22t-12 44z" />
<glyph unicode="F" horiz-adv-x="989" d="M37 1212q5 35 31 50q44 25 68 37t102.5 42.5t155.5 47t206.5 31t276.5 14.5q128 0 213 -33q57 -22 57 -72q0 -40 -14 -80.5t-33 -40.5q-9 5 -29.5 11.5t-114 18t-221.5 11.5q-106 0 -306.5 -26.5t-276.5 -59.5q-45 -20 -80 -20q-16 1 -25.5 21t-9.5 48zM141 492 q3 28 10 46.5t23 29.5t28 16t40 14q10 2 30 10q-6 102 -6 191q0 36 0.5 58t3.5 64.5t10.5 70t20 57t33.5 44.5t49 15q43 0 70 -13.5t29 -39.5q0 -15 -1 -19q-21 -143 -32 -377q216 52 393 52q9 0 15 -1t15 -5.5t14 -16t5 -29.5q0 -40 -17 -72t-45 -32q-7 0 -31 2t-34 2 q-124 0 -318 -35v-26q0 -208 7.5 -359.5t7.5 -161.5q0 -6 2 -21t2 -22q0 -20 -10.5 -30t-38.5 -10q-15 0 -23 2q-28 2 -49 67q-12 37 -31 192t-32 332l-99 -26q-16 -4 -20 -4q-21 0 -21 35z" />
<glyph unicode="G" horiz-adv-x="1122" d="M80 680q0 356 150 559t407 203q121 0 216 -85.5t95 -197.5q0 -43 -27 -71.5t-90 -28.5q-22 0 -31 9.5t-9 39.5q0 83 -36 129.5t-126 46.5q-97 0 -167.5 -46t-112.5 -131.5t-61.5 -197t-19.5 -252.5q0 -73 21 -164t61 -183t110.5 -154t157.5 -62q47 0 82.5 16.5t56.5 48.5 t34.5 65t19 82.5t7 82.5t1.5 82v27q0 4 23 20q-91 -10 -297 -63q-14 0 -29.5 22t-15.5 45q0 13 102 58q77 34 227.5 65t202.5 31q34 0 53 -10.5t19 -42.5q0 -35 -12.5 -67t-32.5 -32h-86q2 -4 2 -10q0 -541 -412 -541q-91 0 -170.5 42t-136 112t-97 161.5t-60 191.5 t-19.5 200z" />
<glyph unicode="H" horiz-adv-x="1249" d="M80 473q0 46 115 100q-19 289 -19 508q0 41 1.5 78.5t8.5 97.5t19.5 102.5t37 74.5t58.5 32q40 0 68.5 -13.5t29.5 -37.5q0 -35 -2 -39q-23 -144 -30 -375q-7 -41 -7 -106q0 -184 2 -260q212 66 498 110v94.5t1 91t3 90t5 81.5t8.5 76.5t12.5 64t17 55.5t22.5 40t29 27.5 t36.5 8.5q97 0 97 -43q0 -21 -10.5 -99t-24 -207.5t-19.5 -260.5q31 4 86 4q10 0 16.5 -1t16 -5.5t14.5 -16t5 -30.5q0 -42 -27.5 -78.5t-63.5 -36.5q-9 0 -26 1t-25 1v-61q0 -149 2 -282t4 -207t2 -79q0 -36 -38 -36q-78 0 -95 137q-25 178 -35.5 282t-13.5 240 q-81 -7 -176 -26t-152 -35t-167 -48q5 -161 14 -268t15.5 -149.5t6.5 -59.5q0 -23 -6.5 -36t-27.5 -13q-44 0 -65.5 25.5t-33.5 74.5q-38 134 -61 377l-35 -8q-5 -1 -39 -14t-37 -13q-16 0 -16 70z" />
<glyph unicode="I" horiz-adv-x="526" d="M162 989q0 54 1 91.5t4.5 93t12 93t21.5 74.5t35 55.5t51 18.5q41 0 73 -13t33 -36q0 -8 -4 -20q-21 -105 -31.5 -233t-12 -208.5t-1.5 -222.5q0 -334 27 -545q2 -17 10 -59.5t8 -65.5t-21 -36t-53 -13q-24 0 -40.5 25.5t-24.5 56.5q-88 316 -88 944z" />
<glyph unicode="J" horiz-adv-x="569" d="M-102 -2q0 65 59 65q5 0 31.5 -25.5t66 -51t74.5 -25.5q25 0 46 13t35.5 39.5t26 57.5t18.5 75t11.5 83.5t6.5 92.5t2.5 92.5t0.5 91.5q0 360 -57 842q-2 4 -2 24q3 25 35 39t80 14q21 0 38 -17.5t29 -52t20.5 -73t14 -95t9 -102t4.5 -109.5t1.5 -102t0.5 -94 q0 -9 1 -19.5t1 -19.5q0 -79 -0.5 -133.5t-4 -137t-9.5 -141t-18 -131t-28 -123t-41 -102.5t-56.5 -83.5t-75 -51.5t-95.5 -20q-98 0 -161.5 48t-63.5 132z" />
<glyph unicode="K" horiz-adv-x="1128" d="M135 920q0 21 1 64.5t1 66.5q0 124 2 190q10 223 119 223q41 0 78 -13.5t37 -35.5q0 -2 -13.5 -74t-27 -199.5t-13.5 -264.5v-263q24 16 52.5 38.5t47.5 39.5t50 46t45 42q49 46 117 125q10 12 50 61t59 73t53.5 72t53 81.5t36.5 77t24 80.5q5 8 37 8h14q57 -6 90 -38 t33 -77v-12q-6 -43 -45 -94q-89 -144 -235 -293q-93 -100 -203 -185q45 -95 98.5 -175t113 -143t111.5 -108t117 -92l64 -30q3 -2 10.5 -6t10.5 -5.5t8.5 -5t8 -6t6 -5t4.5 -5.5t1 -6q0 -40 -26.5 -68.5t-69.5 -28.5h-8q-66 4 -140.5 51.5t-136.5 113.5t-124 151t-102 151.5 t-73 128.5q-21 -14 -72 -47.5t-73 -48.5q5 -155 22 -364q6 -68 13.5 -86.5t7.5 -26.5v-8q0 -32 -22.5 -48t-55.5 -16q-15 0 -35 24.5t-29 55.5q-92 312 -92 914z" />
<glyph unicode="L" horiz-adv-x="978" d="M141 1372q3 25 33 39t76 14q23 0 42 -9.5t31.5 -28.5t22.5 -39.5t15.5 -51t9 -53.5t4.5 -57l1.5 -51t0.5 -45q0 -223 -17 -452t-34 -373t-17 -161q0 -10 13 -10q8 0 38 15q117 39 189 60t174.5 38.5t198.5 17.5q19 0 36 -15t17 -50q0 -42 -23.5 -81.5t-54.5 -39.5 q-2 0 -15 3t-44 3q-256 0 -578 -98q-21 -6 -47 -6q-53 0 -53 114q0 10 10 125q0 4 3.5 32.5t4.5 39t3.5 47t3.5 72.5t2 98.5t1 140.5q0 446 -45 738q-2 4 -2 24z" />
<glyph unicode="M" horiz-adv-x="1366" d="M90 135q0 130 73 496t122 540q27 157 61 224t92 67q33 0 57.5 -29t26.5 -61q0 -36 6 -110q13 -176 74.5 -418t104.5 -252q32 0 104.5 196.5t112.5 348.5q32 124 61.5 166.5t63.5 42.5q20 0 34 -6t21.5 -14t12.5 -24t6.5 -26.5t3.5 -31.5t3 -30v-81q0 -209 41.5 -517.5 t81.5 -453.5q1 -3 9.5 -18t14.5 -27t11.5 -26t5.5 -21q0 -29 -31 -50.5t-79 -21.5q-25 0 -48 33t-40.5 92.5t-32.5 129.5t-26 159t-19 165t-14 162.5t-9 136.5t-6 101q-18 -40 -46.5 -123.5t-55 -156.5t-59 -146t-69.5 -116.5t-75 -43.5q-33 0 -69.5 43t-65 102t-58.5 141.5 t-47 141.5t-35 122.5t-18 64.5q-42 -183 -76.5 -419.5t-48.5 -396.5q-4 -55 -4 -149q0 -28 -18 -42.5t-45 -14.5q-60 0 -84.5 39t-24.5 112z" />
<glyph unicode="N" horiz-adv-x="1155" d="M154 567q0 261 28 504q20 173 62 242t116 69q81 0 185 -260q38 -92 133 -356q91 -261 176 -451q18 623 79 918t197 295q24 0 58.5 -16.5t34.5 -41.5q0 -11 -25 -40q-96 -135 -154.5 -435.5t-58.5 -695.5q0 -42 1 -107t1 -108q-3 -42 -17.5 -56t-41.5 -14q-37 0 -57 9 t-35 32q-23 33 -62 113q-28 58 -59.5 132.5t-48.5 117.5t-56 147t-49 131q-89 240 -149 367q-11 23 -24.5 40t-22.5 17q-24 0 -38 -94t-14 -248q0 -182 15.5 -348.5t28 -236.5t24.5 -117q12 -54 12 -64q0 -63 -74 -63q-111 0 -141 235q-24 201 -24 383z" />
<glyph unicode="O" horiz-adv-x="1075" d="M96 590v57q0 117 16 226t53.5 211t92.5 178.5t138 124.5t186 53h24q85 0 152.5 -31t109.5 -79t70.5 -114t41 -129t15.5 -131q0 -5 1 -32.5t1 -55.5q0 -176 -34 -334.5t-95.5 -279.5t-155 -194.5t-204.5 -79.5h-19q-81 0 -149 39t-112 102t-74.5 144t-44 163t-13.5 162z M287 594q0 -49 7 -104t25.5 -118.5t46.5 -113.5t74.5 -83.5t104.5 -33.5q91 0 157 81.5t103 223.5q45 173 45 365v78q0 55 -15 118t-44 124t-80 101t-115 40q-48 -1 -91 -19t-83.5 -61.5t-70 -109t-47 -167.5t-17.5 -231v-90z" />
<glyph unicode="P" horiz-adv-x="935" d="M-102 1341q0 34 18 59.5t52 41t69 25.5t84 14t80.5 5t74.5 1h21q104 0 207.5 -18.5t202 -58.5t174.5 -96.5t122 -140t46 -182.5q0 -107 -59 -200t-153.5 -155.5t-204 -102t-220.5 -52.5q0 -268 8 -487q0 -28 -25.5 -47t-60.5 -19q-32 0 -55 111t-32.5 281.5t-13.5 305 t-4 248.5v33q0 36 4.5 77t15 90t35 80.5t58.5 31.5q40 0 68.5 -14t31.5 -39q0 -15 -2 -19q-28 -187 -28 -516v-14q98 14 176 45t127 71t81 90t45 99t13 100q0 111 -69 187.5t-180.5 111.5t-256.5 35q-215 0 -383 -63q-22 -11 -33 -11q-17 0 -25.5 31t-8.5 61z" />
<glyph unicode="Q" horiz-adv-x="1079" d="M96 655q0 79 12 164.5t36 177t65 173t95 147t131.5 106t168.5 43.5q86 -1 156.5 -40.5t117 -102.5t78.5 -145.5t46 -166t14 -167.5q0 -151 -38.5 -321t-115.5 -298q53 -67 182 -196q3 -3 14.5 -13.5t20 -18.5t16 -18.5t7.5 -17.5q0 -15 -7.5 -24t-22.5 -12t-25.5 -4 t-28.5 -1q-57 0 -246 189q-117 -117 -274 -117q-95 0 -173 55t-127 148t-75.5 211t-26.5 249zM264 635q0 -56 7.5 -113.5t27.5 -121.5t50 -114.5t81.5 -86.5t116.5 -43h10q71 0 127 47q-48 65 -88.5 146t-40.5 130q0 78 123 78q10 0 17.5 -14t19.5 -46.5t24 -56.5l45 -94 q48 100 71.5 232.5t23.5 250.5q0 80 -12.5 154t-40 145.5t-81 114.5t-127.5 43q-151 0 -252.5 -174t-101.5 -477z" />
<glyph unicode="R" horiz-adv-x="1150" d="M14 1169q3 93 144 146q23 147 112 147q37 0 72 -23t35 -48q0 -1 -4 -29q109 14 207 14h24q71 -1 141 -19.5t132.5 -55t101.5 -98.5t39 -140q0 -135 -100.5 -255.5t-294.5 -197.5q63 -74 86.5 -101t90.5 -103t106.5 -115t95 -91.5t97.5 -80.5t75 -37q32 -9 32 -43 q-2 -32 -20 -57t-51 -25q-60 1 -131 41.5t-145 111.5t-141 144t-148 160.5t-138 138.5q-19 12 -32 36.5t-13 49.5q0 23 11 35.5t46 13.5q86 4 173 47t148.5 121t61.5 168q0 101 -85 150t-218 49q-67 0 -174 -15q-18 -166 -18 -370q0 -399 41 -748q1 -14 7.5 -57.5t6.5 -69.5 q0 -57 -74 -57q-19 0 -31 16.5t-26 52.5q-104 254 -104 1176q-12 -5 -38.5 -17t-45 -20t-25.5 -8q-4 0 -11 7t-12.5 22.5t-5.5 33.5z" />
<glyph unicode="S" horiz-adv-x="849" d="M84 973q0 82 31.5 157t84 131t120 98t142 63.5t146.5 21.5q38 0 63.5 -2.5t57 -12t48 -31.5t16.5 -57q0 -49 -56 -49q-4 0 -34.5 5.5t-45.5 5.5q-71 0 -138 -20t-122 -57.5t-88 -98t-33 -134.5q0 -28 15 -58.5t31.5 -52t55 -54.5t58.5 -48.5t68 -50.5q58 -43 94 -73 t77 -73t62 -88.5t23 -95.5v-12q0 -85 -35.5 -158.5t-93 -123.5t-131 -86t-148 -53t-145.5 -17q-121 0 -121 82q0 8 2 16q3 13 11.5 22t19.5 9q10 0 20 -2q14 -4 49 -4q93 0 181 30t151.5 95t63.5 151q0 42 -27.5 84t-71.5 79.5t-97.5 76.5t-107 81.5t-97.5 87t-71.5 101 t-27.5 115.5z" />
<glyph unicode="T" horiz-adv-x="882" d="M-180 1143q0 16 6.5 28.5t20.5 22.5t24 15t27 12q189 84 379 144.5t315 80.5q260 65 475 65q20 0 38.5 -16t18.5 -55q0 -47 -19 -85t-52 -38q-8 0 -35.5 2t-42.5 2q-58 0 -124.5 -6t-117.5 -13t-130 -23t-119 -24.5t-131 -30t-122 -28.5q-155 -35 -311 -102 q-25 -8 -49 -13q-46 0 -51 62zM289 864q0 46 3.5 81t14 73t35 59t61.5 21q48 0 80 -13t35 -38q0 -19 -2 -23q-39 -242 -39 -442q0 -80 8 -256q2 -60 14.5 -181.5t12.5 -132.5q0 -20 -3 -31.5t-11 -16.5t-15.5 -6t-23.5 -1q-72 0 -105 176q-29 147 -47 357.5t-18 373.5z" />
<glyph unicode="U" horiz-adv-x="1198" d="M131 938q0 59 2 90q1 17 1.5 47t1.5 56t3 49q3 26 4.5 39.5t7 47t13.5 54t19.5 44.5t30 36t40.5 12q42 0 82.5 -15t41.5 -38v-21l-4 -31q-3 -30 -7.5 -79.5t-9.5 -105.5t-9 -116.5t-6 -103.5q-4 -90 -4 -190q0 -84 3.5 -158t13.5 -156.5t27 -141.5t46 -97.5t68 -38.5 q55 0 134 117.5t144 277t94 293.5q-2 59 -2 174q0 172 27 267.5t94 95.5q98 0 98 -48v-12q0 -11 -15.5 -200t-16.5 -365q0 -112 2 -180q6 -148 17.5 -282.5t20.5 -205.5t9 -80q-2 -34 -55 -34q-26 0 -45 16t-30 46t-15 48t-9 47t-15 88.5t-14 83t-11 69t-11 74.5t-8.5 69.5 t-7.5 82.5q-36 -113 -80 -213.5t-98 -190.5t-117.5 -143t-126.5 -53q-2 0 -6 1t-7 1q-53 7 -96 35t-73 68t-53.5 101.5t-37.5 120.5t-24.5 141.5t-15.5 148.5t-9 155q-6 177 -6 203z" />
<glyph unicode="V" horiz-adv-x="1030" d="M68 1225q0 85 42 130.5t97 45.5q30 0 58 -10t28 -33q0 -29 -9.5 -99.5t-9.5 -107.5q0 -135 24 -308t63 -328.5t95 -262.5t113 -107q32 0 72 51.5t74.5 127t62 149t41.5 129.5q94 382 94 531q0 52 -7 105t-7 65q0 22 13.5 40.5t43.5 18.5q66 0 96.5 -45t30.5 -113 q0 -81 -22 -184q-14 -66 -31.5 -139t-47.5 -180t-62.5 -203.5t-76 -197t-88.5 -173t-99.5 -118.5t-108.5 -46q-97 0 -188.5 125.5t-153.5 315t-99.5 409.5t-37.5 412z" />
<glyph unicode="W" horiz-adv-x="1505" d="M90 1251q0 78 42.5 126t96.5 48q62 0 62 -45l-6 -71q4 -224 40.5 -556t94.5 -487q32 -88 76 -88q35 0 105 131t97 215q7 13 13 45l-15 58q-12 50 -12 71q0 49 30 81t74 44q14 4 33 4q9 0 13.5 -2t8 -9t5 -13t4.5 -21.5t6 -27.5q10 -39 31.5 -132.5t39.5 -165.5t41 -149 t48.5 -120.5t50.5 -43.5q55 0 115 179t97.5 410.5t37.5 395.5q0 56 -10.5 114t-10.5 79q0 19 24 46.5t58 27.5q115 0 115 -148q0 -5 -6 -65q-16 -157 -41 -314.5t-65.5 -321t-88.5 -288t-113.5 -204t-136.5 -79.5q-74 0 -143 108.5t-139 326.5q-84 -202 -132 -280 q-87 -142 -171 -142q-107 0 -193 200q-83 192 -129.5 497.5t-46.5 565.5z" />
<glyph unicode="X" horiz-adv-x="1024" d="M45 1247q0 53 36 95t83 42q24 0 36 -3t18 -13t8 -21t7.5 -34.5t14.5 -46.5q5 -14 30 -79t45.5 -114t43.5 -96q72 -147 114 -223q82 139 201 305q79 111 143 174t119 63q37 0 74 -25.5t37 -70.5q0 -35 -37 -45q-6 -1 -19 -10t-43 -36.5t-65 -68.5q-170 -195 -326 -430 q154 -251 387 -481q82 -82 82 -98q0 -28 -22.5 -45t-53.5 -17q-24 0 -45 12.5t-53 41.5q-170 148 -391 432q-133 -235 -219 -439q-37 -90 -68 -90q-15 0 -31.5 22t-17.5 46q0 95 154 403q65 128 94 178q-244 346 -328 619q-8 24 -8 53z" />
<glyph unicode="Y" horiz-adv-x="940" d="M10 1268q0 57 43 86.5t109 29.5q39 0 41 -12q4 -52 69.5 -223.5t128.5 -269.5l117 -183q122 384 270 635q24 43 53 63.5t79 20.5q33 0 72.5 -25t39.5 -57q0 -5 -3.5 -9.5t-11 -12.5t-9.5 -11q-113 -133 -239 -416.5t-198 -568.5q-50 -196 -61 -301q-10 -103 -27 -123 q-13 -16 -32 -16q-29 0 -57.5 28.5t-28.5 65.5v31q7 184 102 526q-58 57 -157.5 194.5t-205.5 313.5q-6 11 -24.5 42t-27 46.5t-20.5 42.5t-17 52t-5 51z" />
<glyph unicode="Z" horiz-adv-x="1001" d="M41 1255q0 87 176 97q27 2 80 2q198 0 416 -54q108 -26 151 -69.5t43 -106.5q0 -72 -69.5 -193t-152.5 -225t-185 -227t-133 -168q-86 -123 -86 -168q0 -41 98 -41q123 0 246.5 39.5t222.5 102.5q28 14 33 14q20 0 45.5 -34t25.5 -68q0 -59 -79 -102.5t-191 -63.5 t-197 -28.5t-135 -8.5q-138 0 -198 35t-60 114q0 39 19.5 86.5t56 99.5t68.5 92t77 93t62 74q1 2 69 84.5t99 123.5t83.5 114t76.5 124t24 84q0 39 -36.5 62t-88 30t-125.5 7q-157 0 -319 -33l-64 -15q-13 -1 -26 25t-20 55.5t-7 46.5z" />
<glyph unicode="[" horiz-adv-x="796" d="M143 406q0 751 21 966q5 39 8 53q1 17 6 30.5t9.5 23t16 17.5t17.5 12t23.5 8.5t23.5 6t28 5t28 4.5q141 18 243 18q157 0 191.5 -11t34.5 -64q0 -15 -6.5 -28t-18.5 -13q-81 0 -239 -17.5t-185 -30.5q-47 -428 -47 -974q0 -137 25 -584q0 -25 7 -34t23 -9q71 0 99 4 q64 4 172.5 28.5t130.5 24.5q19 0 36 -22t17 -41q0 -31 -38.5 -48t-166.5 -46q-132 -32 -242 -39q-18 -2 -51 -2q-53 0 -85.5 21.5t-39.5 80.5q-41 285 -41 660z" />
<glyph unicode="\" horiz-adv-x="595" d="M10 1389l3 6q46 118 122 118q25 0 46 -17.5t37 -51t26.5 -63.5t21.5 -72q5 -18 43.5 -142t90.5 -323.5t108 -464.5q2 -11 17 -75.5t23 -104.5t16.5 -98t8.5 -97q0 -28 -5.5 -53t-24 -46.5t-49.5 -21.5h-11q-15 0 -22 14.5t-17 71.5q-6 29 -31.5 152t-37.5 176.5 t-39.5 172t-52 200.5t-59.5 196t-77.5 225t-91.5 224q-10 7 -27.5 32.5t-17.5 41.5z" />
<glyph unicode="]" horiz-adv-x="784" d="M-10 1505q0 15 62 35t165 35.5t201 15.5h47q96 0 132 -37.5t42 -140.5q6 -99 6 -209q0 -60 -2 -181t-2 -179q0 -221 -3.5 -389t-10.5 -266t-12 -151.5t-12.5 -98.5t-8.5 -54q-5 -37 -18 -66t-29.5 -48t-41.5 -33t-48 -21.5t-55 -11.5t-56 -5t-57 -1h-37 q-142 0 -176.5 9.5t-34.5 53.5q0 56 25 56q142 0 292 20q22 3 35.5 5.5t24 8.5t15 9t8.5 15.5t5 19t3 29t4 36.5q30 257 30 594q0 133 -6 404.5t-6 410.5q0 51 -15.5 67.5t-70.5 16.5q-63 0 -185 -12t-151 -12q-22 0 -40.5 23.5t-18.5 51.5z" />
<glyph unicode="^" horiz-adv-x="901" d="M113 784v9q0 45 61 118t141 128t129 55q69 0 142 -50q116 -77 168 -149q34 -55 34 -82q0 -28 -10.5 -51t-36.5 -23q-5 0 -16 15q-69 77 -98 102q-91 80 -154 80q-34 0 -78 -38.5t-80 -84.5t-77.5 -84.5t-71.5 -38.5q-15 0 -32 23.5t-21 70.5z" />
<glyph unicode="_" horiz-adv-x="1673" d="M113 -440q0 56 159 86q102 19 239.5 28.5t228.5 11t251 1.5q105 0 252 -6q199 -5 254 -11q21 -3 31.5 -5t21.5 -11.5t11 -24.5q0 -6 -12.5 -25t-24.5 -24q-24 -9 -73.5 -15.5t-118.5 -10t-122 -5.5t-127 -3.5t-92 -2.5q-167 -6 -373 -21t-268 -26q-39 -6 -85.5 -14.5 t-70 -12.5t-32.5 -4q-24 0 -36.5 27t-12.5 68z" />
<glyph unicode="`" horiz-adv-x="671" d="M113 1190q0 42 29.5 79.5t54.5 37.5q14 0 36 -27t48 -66.5t76 -98t108 -107.5q13 -11 41 -34t40.5 -34t12.5 -16q0 -41 -59 -47q-23 0 -84 27.5t-129.5 69t-121 101.5t-52.5 115z" />
<glyph unicode="a" horiz-adv-x="962" d="M90 328q0 85 19 161.5t57.5 141.5t105.5 103t156 38q129 0 174 -90q19 -33 19 -64q0 -23 -20 -46t-42 -23q-10 0 -31 35q-14 22 -27.5 28t-49.5 6q-87 0 -137 -85.5t-50 -202.5q0 -180 111 -180q43 0 84.5 34.5t73.5 91t53.5 104.5t38.5 99q51 152 100 152 q13 0 21.5 -0.5t23.5 -4.5t24.5 -11t17 -22t7.5 -36q0 -160 12 -274q12 -106 48 -191q12 -27 12 -39q0 -23 -21.5 -40t-44.5 -17q-59 0 -103 102.5t-50 259.5q-30 -67 -64.5 -125t-77 -109.5t-92 -81.5t-100.5 -30q-116 0 -182 91.5t-66 224.5z" />
<glyph unicode="b" horiz-adv-x="847" d="M98 698q0 292 19 541q2 24 4.5 37.5t10 33.5t23 30t38.5 10q42 0 73 -35t31 -98q0 -67 -15.5 -210t-17.5 -200q-6 -89 -6 -176q147 97 270 100h11q127 0 192.5 -69.5t65.5 -200.5q0 -102 -54 -207t-150 -176.5t-204 -71.5q-27 0 -37 13t-10 40q0 9 2 17q277 144 277 377 q0 58 -33 93.5t-86 35.5q-61 0 -130 -24t-114 -60q1 -92 14 -277t13 -217q0 -19 -9 -28t-34 -9q-26 0 -47 20t-35.5 60.5t-25.5 84t-17.5 109t-10.5 116t-5.5 124t-2 113.5t-0.5 104z" />
<glyph unicode="c" horiz-adv-x="765" d="M68 338q0 186 93 301t257 115q40 0 79.5 -12.5t74.5 -36t57 -64.5t22 -92q0 -66 -76 -66q-20 0 -26 2q-14 4 -21 12t-13 26.5t-7 21.5q-7 17 -13 27t-23 20t-42 10q-83 0 -132.5 -75.5t-49.5 -176.5q0 -131 56.5 -205.5t152.5 -74.5q61 0 117.5 47t78.5 106q6 15 11.5 23 t9 9t8.5 1q49 0 49 -57q0 -89 -97.5 -168.5t-205.5 -79.5q-165 0 -262.5 104t-97.5 283z" />
<glyph unicode="d" horiz-adv-x="964" d="M74 317q0 125 36 221.5t113.5 155t188.5 58.5q129 0 174 -90q18 -32 18 -54q0 -24 -20 -46.5t-41 -22.5q-10 0 -31 34q-11 18 -19.5 28t-26 19t-40.5 9q-47 0 -83.5 -26t-57 -70.5t-31 -96t-10.5 -108.5q0 -199 110 -199q53 0 103.5 46.5t87 118.5t61.5 149t37 149 q-6 129 -6 223q0 248 20 402q18 147 99 147q41 0 70 -13t30 -38q0 -21 -2 -25q-53 -318 -53 -506q0 -145 2 -194q3 -110 22 -248q30 -154 78 -268q17 -38 17 -43q0 -31 -19.5 -48.5t-46.5 -17.5q-12 0 -23 8q-51 31 -102 138q-41 82 -65 264l-29 -68q-155 -307 -326 -307 q-59 0 -106 30.5t-74 79.5t-41 102.5t-14 106.5z" />
<glyph unicode="e" horiz-adv-x="778" d="M78 371q0 117 42.5 213t127.5 155.5t198 59.5q75 0 134 -48t59 -126q0 -94 -51 -179q-77 -131 -303 -239q29 -67 77 -102t107 -35q56 0 111 30t98 88q5 6 13 17t11.5 15.5t11 8.5t17.5 4q21 0 31 -19t10 -44q0 -50 -52.5 -100.5t-133 -81.5t-158.5 -31q-71 0 -130.5 23.5 t-99.5 63.5t-67.5 93.5t-40 112.5t-12.5 121zM256 375q0 -30 4 -70q113 43 173.5 120.5t60.5 156.5q0 10 -4.5 23t-22 27.5t-45.5 14.5q-49 0 -84 -28t-51.5 -73.5t-23.5 -87t-7 -83.5z" />
<glyph unicode="f" horiz-adv-x="686" d="M10 584q0 42 8.5 53.5t28.5 11.5q9 0 29 -4q8 -1 31.5 -5t48.5 -7.5t51 -5.5v65q0 123 7 221.5t26.5 191.5t51.5 154.5t83.5 98.5t120.5 37q57 0 103 -16t99 -58q33 -26 33 -78q0 -35 -17 -62.5t-44 -27.5q-21 0 -52 31q-53 53 -98 53q-67 0 -107 -99.5t-40 -271.5v-114 q0 -84 2 -127q108 12 188 30q18 4 48.5 13t53.5 15.5t31 6.5q17 0 17 -20q0 -19 -10.5 -46.5t-20.5 -33.5q-109 -70 -301 -103q6 -115 14 -242t12.5 -197t4.5 -77q0 -30 -14.5 -41.5t-43.5 -11.5q-23 0 -38.5 7.5t-25 24.5t-15 32.5t-11.5 44.5q-23 117 -47 442 q-27 -2 -70 -2q-66 0 -101.5 24.5t-35.5 92.5z" />
<glyph unicode="g" horiz-adv-x="856" d="M72 375q0 105 32 188.5t103 137t172 53.5q109 0 184 -72q7 86 74 86q25 0 51.5 -19t26.5 -44q0 -65 8 -205q1 -32 14 -249t13 -335q0 -498 -236 -498q-45 0 -110 21t-122 65.5t-57 96.5q0 31 12 52t31 21q17 0 42.5 -17.5t50 -38.5t62.5 -38.5t77 -17.5q30 0 51 29 t31.5 78t15 97.5t4.5 102.5q0 118 -20 356q-87 -188 -244 -188q-56 0 -102 21.5t-76 56t-50.5 80t-29 90.5t-8.5 90zM244 387q0 -213 139 -213q80 0 130 91t50 206q-4 52 -34 91.5t-65 56t-65 16.5q-72 0 -113.5 -74.5t-41.5 -173.5z" />
<glyph unicode="h" horiz-adv-x="999" d="M92 723q0 129 12 383q12 211 52 211q80 0 111.5 -33t31.5 -96q0 -29 -2 -43q-39 -320 -39 -590q0 -253 14 -354q3 -17 9 -17q8 0 16 27q20 46 55.5 136t60 141t54.5 92q40 57 97.5 94t123.5 37q147 0 170 -250q24 -231 35 -275q16 -61 39 -112q16 -36 16 -43 q0 -31 -20 -48.5t-47 -17.5q-15 0 -25 4q-33 15 -57 42.5t-41.5 73.5t-26 77.5t-22.5 91.5l-35 213q-5 24 -22.5 42.5t-45.5 18.5q-20 0 -61 -51q-18 -22 -36 -59.5t-60 -129t-91 -188.5q-29 -56 -61 -91.5t-74 -35.5q-22 0 -43 21t-28 53q-37 149 -48.5 309.5t-11.5 366.5z " />
<glyph unicode="i" horiz-adv-x="452" d="M102 573q0 201 93 201q96 0 104 -53q4 -28 4 -43q0 -11 -3.5 -34t-4.5 -32q-4 -50 -4 -106q0 -263 39 -387q11 -30 32 -58q9 -15 9 -22q0 -35 -19 -51.5t-47 -16.5q-20 0 -63 19q-48 22 -81.5 134.5t-46 229.5t-12.5 219zM166 1098q0 35 23 70.5t61 35.5t73 -31t35 -67 v-23q0 -32 -35 -59t-73 -27q-39 0 -61.5 32t-22.5 69z" />
<glyph unicode="j" horiz-adv-x="483" d="M-37 -418q0 58 53 58q-2 -8 41.5 -49.5t65.5 -41.5q19 0 33.5 20t23.5 57.5t15 80.5t9 101t4 106.5t1 108.5v90q0 383 -64 542q-26 31 -26 41q0 50 41.5 82.5t101.5 32.5q109 0 109 -653q0 -404 -49 -596q-40 -152 -168 -152q-28 0 -59.5 10.5t-62 30t-50 54t-19.5 77.5z M92 1090q0 90 74 90q39 0 78 -28.5t39 -64.5q0 -35 -40 -67.5t-77 -32.5q-74 0 -74 103z" />
<glyph unicode="k" horiz-adv-x="839" d="M98 651q0 293 27 578q7 74 63 74q34 0 74.5 -27.5t40.5 -67.5q0 -4 -1 -11t-3 -22t-4 -32q-47 -283 -47 -666q0 -55 2 -84q173 272 323 361q58 30 89 30q41 0 68.5 -28.5t27.5 -85.5q0 -13 -12 -20.5t-40.5 -19.5t-50.5 -26q-128 -79 -223 -174q78 -109 178 -200.5 t205 -141.5q14 -6 14 -20q0 -41 -31.5 -63.5t-64.5 -22.5q-178 0 -403 331l-68 -80q21 -197 21 -200q0 -40 -9 -56t-32 -16q-28 0 -48.5 9.5t-32.5 23t-20 35.5t-11 41t-5 45q-27 347 -27 536z" />
<glyph unicode="l" horiz-adv-x="466" d="M106 727q0 164 15 369q3 51 7.5 87t16 76.5t33.5 62t55 21.5q41 0 76.5 -18t36.5 -43q0 -21 -2 -25q-59 -381 -59 -651q0 -69 2 -104q9 -321 71 -434q0 -1 4.5 -8t7 -12.5t5 -15.5t2.5 -20q-1 -23 -25 -36t-57 -13q-28 0 -57.5 20.5t-42.5 49.5q-89 187 -89 694z" />
<glyph unicode="m" horiz-adv-x="1554" d="M102 483q0 130 31 216.5t94 86.5q47 0 84 -23t37 -58q0 -12 -16 -62q-2 -7 -9.5 -32t-11.5 -38t-10 -37t-9.5 -40.5t-6 -37t-2.5 -36.5q0 -69 13.5 -167.5t43.5 -98.5q13 0 36 35.5t42 78.5q17 39 44 102.5t47.5 109.5t41.5 87q41 79 83 115.5t97 36.5q34 0 61 -33 t43 -87.5t23 -88t12 -70.5q3 -18 7 -38.5t6.5 -34t3.5 -25.5q7 -84 24 -84q14 0 26.5 17.5t33.5 56.5q114 224 182 323q52 74 111 74q54 0 77 -28t23 -66q0 -51 -0.5 -83t-1 -44.5t-0.5 -15.5q0 -115 17 -203.5t67 -149.5q4 -5 18 -16.5t21.5 -22t7.5 -22.5q0 -37 -22 -53.5 t-54 -16.5q-31 0 -78 21q-133 70 -147 368q-4 86 -25 86q-8 0 -22.5 -18t-24.5 -39q-51 -94 -133 -274l-18 -37.5t-18.5 -33.5t-22 -31t-22.5 -18.5t-27 -8.5q-54 0 -78 28q-43 50 -76 252q-28 182 -63 182q-23 0 -64 -64.5t-76 -143.5q-14 -30 -33.5 -71t-25.5 -54 q-92 -187 -164 -187q-39 0 -84 25q-54 33 -84 207q-10 35 -19.5 117t-9.5 167z" />
<glyph unicode="n" horiz-adv-x="1007" d="M102 414q0 171 31.5 269.5t95.5 98.5q43 0 79 -33t36 -69q0 -10 -8 -29l-3 -9q-3 -8 -13 -36t-25 -74q-6 -19 -13.5 -77t-7.5 -123q0 -67 7 -101q20 49 36.5 84.5t47 96t61.5 104t69.5 87t83 66.5t89.5 23q86 0 127 -121q21 -56 38.5 -163.5t22.5 -128.5q24 -106 64 -156 q4 -4 18 -16.5t21.5 -23t7.5 -22.5q0 -35 -21.5 -51t-52.5 -16q-33 0 -78 20q-107 56 -137 293q-12 81 -38 127.5t-58 46.5q-27 0 -60.5 -34.5t-65 -88t-53 -95t-38.5 -79.5l-15 -34q-7 -18 -13.5 -52.5t-6.5 -52.5q0 -25 -16 -41t-35 -16q-6 0 -17 1t-16 1q-17 2 -56 22 q-36 22 -57 107t-26 155.5t-5 139.5z" />
<glyph unicode="o" horiz-adv-x="765" d="M82 322q0 462 336 462q71 0 125 -29.5t85 -79.5t46.5 -109t15.5 -124q0 -81 -20 -159t-58.5 -145t-104 -108.5t-147.5 -41.5q-119 0 -198.5 97.5t-79.5 236.5zM248 338q0 -87 32 -140t93 -53q50 0 88 29.5t58.5 77.5t30 99.5t9.5 103.5q0 69 -34 122.5t-93 53.5 q-48 0 -83.5 -20t-54 -48.5t-29.5 -71t-14 -76.5t-3 -77z" />
<glyph unicode="p" horiz-adv-x="839" d="M98 262q0 214 11 328q5 46 8.5 76t12.5 70.5t20 64.5t29 41.5t42 17.5q42 0 72.5 -15t30.5 -42q0 -9 -2 -15q-9 -45 -15 -86q111 62 248 62q104 0 174 -58.5t70 -160.5q0 -143 -78 -265.5t-201.5 -191t-257.5 -68.5v-71q0 -81 9.5 -217t9.5 -197q0 -32 -11.5 -48 t-36.5 -26q-16 -6 -45 -6q-33 0 -47 92q-43 315 -43 715zM258 127q162 30 256 128t94 255q0 55 -30.5 92t-77.5 37q-108 0 -211 -64q-24 -211 -31 -448z" />
<glyph unicode="q" horiz-adv-x="854" d="M68 393q0 76 18.5 144t53.5 122.5t93 86.5t132 32q45 0 111 -20.5t116 -55.5q24 93 72 93q38 0 70 -24.5t32 -53.5q0 -22 -11 -78t-21.5 -160t-10.5 -241q0 -76 4.5 -147.5t14.5 -179.5t12 -134q2 -23 10 -101.5t8 -117.5q0 -30 -2 -47.5t-10.5 -36t-28 -27t-51.5 -8.5 q-20 0 -30 23.5t-19 74.5q-14 83 -17 107q-29 187 -41 534q-103 -141 -235 -141q-71 0 -125.5 35.5t-84.5 91.5t-45 114.5t-15 114.5zM246 397q0 -39 5 -73.5t18.5 -70.5t41 -57.5t66.5 -21.5q50 0 100.5 45.5t91.5 118.5v104q0 97 4 142q-24 30 -74.5 52.5t-90.5 22.5 q-57 0 -95 -39.5t-52.5 -95.5t-14.5 -127z" />
<glyph unicode="r" horiz-adv-x="690" d="M92 643q0 16 6 31q9 21 29 34t43 13q54 0 75.5 -35t39.5 -145q48 84 77 121q47 65 108.5 102t127.5 37q43 0 78 -26t35 -66q0 -38 -18 -69.5t-48 -31.5q-8 7 -18 15q-19 16 -62 16q-46 0 -86 -25t-68 -67t-47 -84t-32 -88q-21 -79 -21 -168v-57q0 -93 -26 -127.5 t-86 -34.5q-24 0 -36.5 14.5t-15 31.5t-2.5 46q0 122 -5.5 211.5t-10.5 126t-16 92.5q-14 68 -21 133z" />
<glyph unicode="s" horiz-adv-x="679" d="M82 33q0 43 29 43q10 0 26.5 -2t24.5 -2q35 0 78.5 8.5t87 24.5t73 45.5t29.5 66.5q0 25 -32.5 50.5t-79.5 51t-94 56t-81.5 77t-36.5 101.5v10q0 50 21.5 92.5t57 72.5t82 52.5t95.5 34t99 15.5q52 0 77 -30t25 -69q0 -22 -45.5 -37.5t-100 -25.5t-100 -37.5 t-45.5 -71.5q0 -25 34 -56.5t72 -54t87.5 -49t58.5 -32.5q97 -63 97 -152q0 -49 -30.5 -92t-77.5 -72t-104 -50t-109.5 -30.5t-94.5 -9.5q-123 0 -123 72z" />
<glyph unicode="t" horiz-adv-x="657" d="M-68 750q0 38 19 47q92 8 280 26q0 157 13 277q5 56 12 96.5t21 85t38.5 68.5t57.5 24q46 0 76 -14.5t30 -42.5v-14q-45 -224 -65 -461q145 18 280 53q16 4 21 4q18 0 18 -18q0 -43 -28.5 -68.5t-67.5 -34.5q-62 -16 -229 -53q-2 -39 -2 -115q0 -314 18 -524v-49 q0 -32 -22.5 -57t-67.5 -25q-20 0 -30.5 22.5t-18.5 71.5q-51 289 -54 641l-213 -39q-27 0 -56.5 31t-29.5 68z" />
<glyph unicode="u" horiz-adv-x="976" d="M86 498q0 44 4 77t15.5 67.5t36 57.5t61.5 33q27 8 47 8q45 0 46 -75q0 -54 -13 -151t-13 -144q0 -48 9.5 -91.5t35.5 -77.5t64 -34q108 0 254 420q10 77 28.5 100t51.5 23q20 0 33 -1.5t33 -8.5t31 -25t11 -47v-60q0 -171 13 -266q16 -123 55 -205q16 -36 16 -47 q0 -27 -20.5 -45t-46.5 -18q-21 0 -29 8q-63 41 -105.5 142.5t-48.5 258.5q-73 -214 -149.5 -307.5t-175.5 -93.5q-214 0 -242 401q-2 25 -2 101z" />
<glyph unicode="v" horiz-adv-x="858" d="M68 596q0 82 17 117t65 35q62 0 104.5 -39t42.5 -109q0 -28 -6 -83t-6 -73q3 -29 17 -76.5t35 -100.5t52.5 -90.5t63.5 -37.5q41 0 82.5 72.5t66 163.5t27.5 160v18q0 37 -10.5 79t-10.5 60q3 27 37.5 43.5t71.5 16.5q46 0 63 -27t17 -88q0 -22 -4 -84q-4 -73 -36 -169.5 t-81 -186t-120 -151.5t-142 -62q-74 0 -141.5 75t-116.5 189q-88 220 -88 348z" />
<glyph unicode="w" horiz-adv-x="1157" d="M76 567q0 39 2.5 65t11.5 55t29.5 43.5t52.5 14.5q33 0 74 -22t41 -57q0 -20 -8 -56q-19 -82 -19 -125q0 -48 9.5 -122.5t37 -149t64.5 -74.5q18 0 43 21q33 25 67 71t45 76q-14 51 -14 99q0 120 92 120q38 0 50 -19t12 -58q0 -13 -2 -35t-2 -31q0 -11 4 -31 q7 -41 62.5 -120.5t90.5 -79.5q37 0 63.5 51.5t38 119t11.5 136.5q0 59 -27.5 142.5t-27.5 113.5q0 63 59 63q63 0 104 -42t41 -122q0 -47 -1.5 -92t-8.5 -110.5t-18.5 -120.5t-33 -113t-50 -98t-72.5 -66t-98 -26q-37 0 -77.5 32.5t-71 76.5t-49 76.5t-23.5 45.5 q-16 -36 -36.5 -71t-51 -75.5t-69 -65.5t-77.5 -25q-64 0 -114.5 50.5t-78.5 122t-46 158.5t-23.5 149t-5.5 105z" />
<glyph unicode="x" horiz-adv-x="806" d="M45 670q0 32 37 75q13 16 42 26.5t56 10.5q14 0 27 -13t14 -34q5 -53 55 -135q35 -62 93 -149l63 77q89 108 142.5 158.5t95.5 50.5q20 0 33 -3t30 -13.5t26 -37t9 -67.5q0 -12 -6 -18.5t-37 -24.5q-128 -73 -276 -235q11 -17 18 -25q20 -27 40.5 -52t45 -51t37 -39 t40 -40t29.5 -29q5 -5 23 -18t34 -23l15 -10v-12q-5 -20 -32 -43t-56 -23q-40 0 -131 74.5t-170 161.5q-112 -150 -123 -213q-5 -21 -12.5 -30t-26.5 -9q-4 0 -24 10q-35 28 -35 80q0 74 117 236l20 28q-158 209 -197 301q-16 37 -16 58z" />
<glyph unicode="y" horiz-adv-x="901" d="M68 553q0 184 137 184q15 0 25.5 -5.5t16 -12.5t8 -22.5t3 -25.5t0.5 -32q0 -27 -3 -82t-3 -90q0 -53 13.5 -105t42 -89t65.5 -37q49 0 121.5 112.5t103.5 253.5q0 5 -1 17t-1 18q0 54 41 90.5t90 36.5q43 0 57 -168q17 -232 17 -490q0 -140 -13 -290 q-16 -175 -69.5 -267t-161.5 -92q-28 0 -70 11t-87 31.5t-76 56.5t-31 79q0 33 18.5 49.5t48.5 16.5q3 0 28.5 -23t68 -46t88.5 -23q26 0 45 24t29.5 57.5t17 79t8.5 79.5t2 67q0 292 -24 496q-49 -140 -128 -227t-167 -87q-56 0 -102 34.5t-74.5 86t-48 115.5t-27.5 119 t-8 100z" />
<glyph unicode="z" horiz-adv-x="811" d="M31 674q0 55 43 55q15 0 30 -6q103 -35 195 -35q52 0 163 10.5t122 10.5q75 0 88 -60q2 -8 2 -28q0 -74 -82 -175q-38 -47 -115 -119t-125.5 -123t-48.5 -79q0 -25 57 -25q118 0 205 51.5t123 122.5q11 19 25 19q9 0 26 -10q49 -31 49 -88q0 -54 -26.5 -86.5t-71.5 -55.5 q-165 -82 -401 -82q-187 0 -187 99v10q3 32 45 83.5t91 96.5q88 83 182 176q72 72 72 111q0 17 -17 20q-42 -7 -118.5 -24t-88.5 -19q-40 -4 -69 -4q-69 2 -118.5 43t-49.5 111z" />
<glyph unicode="{" horiz-adv-x="784" d="M45 532q0 30 30 54t105 24q82 0 123 -18q32 41 41.5 71.5t9.5 96.5q0 62 -26.5 187.5t-26.5 195.5q0 90 24 169.5t82 144.5t144 87q81 21 125 21q53 0 53 -21q0 -67 -37 -69q-82 -5 -144.5 -91.5t-62.5 -207.5q0 -63 15 -187q22 -125 22 -211q0 -142 -76 -246 q53 -67 82 -128t29 -138q0 -22 -3 -69.5t-3 -59.5q-12 -171 -12 -182q0 -49 11 -95t33 -86.5t61.5 -65.5t90.5 -25q21 0 40.5 -24t19.5 -36q0 -22 -60 -22q-162 0 -239 57q-41 28 -67.5 68.5t-37.5 88.5t-14.5 84.5t-3.5 84.5q0 38 2 129.5t2 152.5q0 36 -3.5 61.5t-16 48 t-18 31t-27.5 31.5t-27 29q-63 -8 -101 -8q-46 0 -92.5 21.5t-46.5 51.5z" />
<glyph unicode="|" horiz-adv-x="579" d="M143 1475q0 29 23 41t72 12q30 0 52 -15t34.5 -40t18.5 -49.5t9 -51.5q0 -7 4.5 -49t7 -90t6 -142.5t5.5 -258.5t2 -386q0 -677 -84 -677q-34 0 -53.5 11t-38.5 42q0 1 1.5 10.5t3.5 25.5t3 31q14 203 14 564q0 425 -59 942q-5 9 -13 37t-8 43z" />
<glyph unicode="}" horiz-adv-x="763" d="M-10 1559q0 18 45 18q106 0 185 -37.5t123 -101t64.5 -137t20.5 -156.5q0 -59 -13.5 -171t-13.5 -165q0 -60 12.5 -104t45.5 -87q41 15 121 15q73 0 106 -28t33 -56q0 -29 -42 -48.5t-87 -19.5q-32 0 -107 11q-5 -6 -21 -22.5t-21.5 -22.5t-16 -22t-14.5 -29t-7.5 -33.5 t-3.5 -45.5q0 -80 7.5 -213t7.5 -172q0 -51 -5.5 -90.5t-24.5 -85t-52 -75.5t-92.5 -50t-141.5 -20h-30q-60 0 -60 24q0 12 18.5 35t39.5 23q95 0 139.5 72t44.5 178q0 76 -15.5 206.5t-15.5 169.5q0 70 25.5 127t72.5 117q-88 117 -88 334v16q0 46 9.5 143t9.5 150 q0 102 -56.5 182t-158.5 105q-22 3 -32.5 24.5t-10.5 41.5z" />
<glyph unicode="~" horiz-adv-x="915" d="M113 868q0 58 66.5 125t135.5 76q45 -1 87.5 -23t69 -48t55 -48t48.5 -22q42 0 84.5 36t73.5 83q12 16 29 16q14 0 27.5 -18t13.5 -48q0 -96 -72 -163.5t-147 -67.5q-34 0 -69.5 19t-60.5 42.5t-57.5 42.5t-60.5 19q-37 0 -68 -29.5t-51 -59.5t-29 -30q-15 0 -45 30 t-30 68z" />
<glyph unicode="&#xa1;" horiz-adv-x="608" d="M162 -285q0 273 18 539q7 101 51 148t129 47q48 0 48 -46q0 -16 -9 -43q-38 -124 -59 -305q-11 -95 -20 -292t-11 -218q-3 -65 -8 -84q-3 -49 -45 -61q-15 -6 -39 -6q-33 0 -43 61q-12 91 -12 260zM266 831q0 44 33 71.5t72 27.5q102 0 104 -74q0 -44 -35 -93.5 t-78 -49.5q-36 0 -66 38.5t-30 79.5z" />
<glyph unicode="&#xa2;" horiz-adv-x="976" d="M117 481q0 97 26.5 189.5t75.5 170t126.5 130t172.5 63.5l12 109q15 133 60 133q37 0 68 -19t40 -51q0 -14 -2 -18q-6 -13 -26 -166q89 -27 152 -85.5t63 -131.5q-9 -51 -72 -51q-9 0 -29 4q-11 2 -15.5 5.5t-9.5 14t-7 13.5q-32 52 -97 73q-4 -68 -8 -154t-8 -180 t-6 -135q-6 -104 -6 -303q120 19 182 105q13 22 31 22q25 0 37 -17t12 -32q0 -17 -17.5 -44.5t-48.5 -58t-83.5 -56.5t-112.5 -36q0 -116 8 -204q-6 -26 -23 -29q-1 0 -4.5 1t-5.5 1q-67 7 -76 182q-4 32 -4 41q-184 9 -294.5 150.5t-110.5 363.5zM295 498q0 -163 60 -273.5 t161 -132.5q-16 250 -16 389q0 220 8 389q-66 -18 -116 -79t-73.5 -137.5t-23.5 -155.5z" />
<glyph unicode="&#xa3;" horiz-adv-x="962" d="M78 463q0 6 1 16.5t1 14.5q2 20 14 35t34 24t40.5 14t46 9.5t37.5 7.5v39q0 104 8 187t31 166.5t61 139t102.5 90.5t151.5 35q80 0 161 -56.5t91 -150.5v-18q0 -37 -24 -58q-19 -16 -54 -16q-27 0 -39.5 4.5t-25.5 22.5q-6 9 -15.5 31.5t-15.5 31.5q-32 55 -84 55 q-35 0 -61 -11t-44 -28t-30.5 -49.5t-19 -62t-10 -80t-4.5 -89.5t-1 -103q0 -36 -2 -50q129 15 252 15q35 0 59.5 -1.5t58.5 -7.5t52 -21t18 -38q0 -34 -18 -39h-166q-101 0 -266 -39q-23 -203 -78 -356q-21 -54 -21 -64q0 -8 21 -8q1 0 29 7.5t73 18t97 21t112 18t109 7.5 q181 0 186 -61v-19q0 -80 -47 -80l-11 3q-11 4 -30.5 8t-42.5 4q-140 0 -299.5 -19t-275.5 -55q-21 -6 -45 -6q-35 0 -54.5 9.5t-19.5 37.5q0 21 10.5 54.5t25.5 75t21 62.5q50 165 66 293q-24 -7 -58 -17.5t-50 -14.5t-25 -5q-33 0 -33 66z" />
<glyph unicode="&#xa4;" horiz-adv-x="1474" d="M182 700q0 109 40 216t122 186q-35 77 -55 151q-8 24 -8 54q0 53 35.5 95t82.5 42q24 0 36 -3t18 -13.5t8 -21.5t7.5 -34.5t14.5 -46.5l43 -117q91 31 201 31q131 0 240 -53q131 170 213 170q37 0 73.5 -25.5t36.5 -70.5q0 -36 -37 -46q-6 -1 -19 -9.5t-43 -36t-65 -68.5 l-16 -19q71 -76 108 -173.5t37 -188.5q0 -116 -43.5 -228.5t-130.5 -193.5q43 -49 107 -109q82 -82 82 -98q0 -28 -22.5 -44.5t-53.5 -16.5q-24 0 -45 12.5t-53 40.5q-61 51 -135 131q-108 -51 -248 -51q-94 0 -176 28l-52 -114q-37 -90 -67 -90q-15 0 -31.5 21.5 t-17.5 45.5q0 65 55 195q-113 76 -177.5 198.5t-64.5 253.5zM326 725q0 -114 50 -217.5t141.5 -169.5t201.5 -66q102 0 183 36.5t129.5 96.5t73.5 132.5t25 150.5q0 52 -13 109t-42.5 116t-72 105.5t-108 76t-144.5 29.5q-188 0 -306 -110.5t-118 -288.5z" />
<glyph unicode="&#xa5;" horiz-adv-x="940" d="M6 1130q0 49 37.5 76.5t97.5 30.5q37 0 37 -10q6 -59 60.5 -164.5t105.5 -183.5t127 -189q45 127 82 205q9 18 28.5 61t30.5 65.5t30.5 61t33.5 60t35 49t39 41.5t40.5 24.5t45.5 10.5q31 0 67 -21t39 -49q-1 -4 -4.5 -9t-9.5 -11t-8 -9q-192 -230 -302 -542h160 q47 0 81.5 -2.5t72 -10.5t58 -25.5t20.5 -43.5q-3 -25 -39 -25q-39 2 -111 2q-129 0 -280 -18q-24 -83 -37 -148q94 4 157 4q28 0 86.5 -2t96.5 -2q30 0 55 -16.5t25 -48.5q0 -15 -42.5 -18.5t-162.5 -10.5t-242 -26q-7 -38 -16 -96t-15 -95t-15 -74.5t-21.5 -56 t-28.5 -18.5q-29 0 -53.5 19.5t-24.5 57.5q0 93 18 234q-18 -4 -62.5 -14t-69 -15.5t-55 -10.5t-48.5 -5q-53 0 -53 51q0 32 13.5 59.5t43.5 32.5q224 34 254 37q13 76 29 139q-72 -12 -125 -18q-32 -3 -86 -19.5t-70 -17.5q-49 6 -49 63q2 25 6.5 42t17.5 29t24 19t39 12 t48 7t64 6l65 6q-107 119 -242 312q-2 4 -21 30t-24 34t-19 31t-19 37t-10 35t-5 41z" />
<glyph unicode="&#xa7;" horiz-adv-x="1009" d="M158 -45q0 24 30.5 48t53.5 24q31 -31 93.5 -53.5t119.5 -22.5q97 0 149.5 36.5t52.5 96.5q-1 31 -20.5 63.5t-57 64.5t-73 56.5t-86.5 55.5q-110 65 -168.5 121t-58.5 126q0 139 159 213q-152 132 -155 248v8q0 112 97.5 176t252.5 64q61 0 122.5 -13t105 -39.5 t44.5 -58.5q0 -22 -20.5 -59t-42.5 -37q-21 0 -53 17.5t-79.5 35t-105.5 17.5q-147 0 -147 -105q0 -90 188 -215q41 -27 60.5 -41t64.5 -49.5t69 -62.5t45 -64.5t21 -70.5q0 -67 -47.5 -113.5t-118.5 -73.5q176 -129 176 -285q0 -53 -25 -96t-63 -69.5t-86.5 -44 t-91.5 -24.5t-82 -7q-117 0 -220 40.5t-103 92.5zM346 580q3 -48 180 -150q127 29 127 107q-1 26 -33.5 55.5t-138.5 105.5q-135 -44 -135 -118z" />
<glyph unicode="&#xa8;" horiz-adv-x="823" d="M113 1133q0 33 38 68.5t78 35.5q73 0 86 -117v-12q0 -43 -37.5 -64.5t-84.5 -21.5q-80 0 -80 111zM500 1171q7 43 50 64.5t89 21.5q31 0 51.5 -29t20.5 -67q0 -16 -4 -33t-14.5 -37.5t-32.5 -33.5t-54 -13q-52 0 -79 40t-27 87z" />
<glyph unicode="&#xa9;" horiz-adv-x="1464" d="M135 518q0 89 20 174.5t66 169t114 146t172 101t232 38.5q120 0 220.5 -36.5t167.5 -96.5t113.5 -137.5t67.5 -158t21 -159.5q0 -92 -21 -183t-68 -178.5t-115 -154.5t-171 -108t-227 -41q-105 0 -199.5 35t-165 95.5t-122.5 139.5t-78.5 170t-26.5 184zM293 563 q0 -79 18 -157t55 -149.5t89 -126.5t125.5 -87.5t158.5 -32.5q111 0 200.5 43.5t145 116t84.5 163t29 189.5q0 62 -15 127.5t-50 132.5t-84 119.5t-124.5 85.5t-164.5 33q-209 0 -338 -122.5t-129 -334.5zM461 492q0 165 81 265.5t224 100.5q76 0 136.5 -47t60.5 -131 q0 -36 -14 -47.5t-48 -11.5h-24q-6 1 -10.5 3.5t-7 5t-5.5 7t-4.5 7t-4 8t-3.5 7.5l-6 15q-5 15 -9.5 23t-18 16t-34.5 8q-67 0 -111.5 -67.5t-44.5 -151.5q0 -107 53 -169.5t134 -62.5q39 0 76.5 25.5t60 56.5t42 56.5t26.5 25.5q45 0 45 -51q0 -76 -87.5 -147.5 t-179.5 -71.5q-144 0 -235.5 89t-91.5 239z" />
<glyph unicode="&#xaa;" horiz-adv-x="872" d="M72 975q0 72 19 139t56 123.5t98 92.5t138 40q123 0 166 -82q14 -33 14 -49q0 -25 -20 -49.5t-43 -24.5q-7 0 -12 4t-11 12.5t-10 12.5q-11 23 -26.5 34t-43.5 11q-53 0 -88.5 -40t-50 -96.5t-14.5 -123.5q0 -158 92 -158q110 0 213 293q48 141 100 141q90 0 90 -75 q0 -153 11 -244q7 -69 45 -166q10 -30 10 -39q0 -26 -22 -43.5t-46 -17.5q-51 0 -93 86.5t-54 210.5q-59 -118 -133 -195.5t-156 -77.5q-109 0 -169 79.5t-60 201.5z" />
<glyph unicode="&#xab;" horiz-adv-x="1116" d="M143 406q0 50 57.5 144t141.5 171.5t145 77.5q36 -6 64.5 -24.5t28.5 -51.5q-2 -36 -27.5 -74t-59.5 -70.5t-68 -65.5t-57.5 -73t-23.5 -80q0 -67 52 -180t108 -186q18 -25 18 -31q0 -23 -19.5 -36t-43.5 -13q-43 0 -133.5 117t-132.5 205q-50 110 -50 170zM555 383 q4 67 73 170t153 178.5t130 75.5q53 0 78 -20.5t25 -43.5q-2 -31 -23 -65t-51 -63.5t-64.5 -63t-64 -64t-49 -66t-19.5 -67.5q0 -65 70 -159.5t158 -180.5q1 -1 4 -3.5t4 -4t3 -4t3 -4.5t1.5 -6t0.5 -8q0 -23 -28 -37.5t-60 -14.5q-42 0 -141.5 107.5t-141.5 173.5 q-61 96 -61 170z" />
<glyph unicode="&#xad;" horiz-adv-x="1189" d="M135 418q0 36 8.5 59.5t23 37.5t42 22.5t57 13t76.5 9.5q8 1 12 1q167 19 363 19q234 0 286 -12t52 -68q0 -15 -9.5 -29t-29.5 -14q-75 0 -191 -11t-274 -30t-191 -23t-94 -25.5t-82 -21.5q-49 0 -49 72z" />
<glyph unicode="&#xae;" horiz-adv-x="1474" d="M129 1028q0 75 18 148t59.5 144.5t102.5 125.5t155.5 87.5t209.5 33.5q107 0 197 -33.5t149.5 -88t101.5 -123.5t61 -139t19 -136q0 -78 -19 -154.5t-61.5 -150t-104 -129.5t-154 -90t-204.5 -34q-117 0 -218 47.5t-168.5 124t-105.5 172.5t-38 195zM272 1053 q0 -114 50.5 -217.5t142 -169.5t201.5 -66q102 0 183 36.5t129.5 96.5t73.5 132.5t25 150.5q0 52 -13 109t-42.5 116t-72.5 105.5t-108.5 76t-144.5 29.5q-188 0 -306 -110.5t-118 -288.5zM385 1243q0 15 2 21q13 55 148 63q74 6 139 6q101 0 166 -38t65 -97q0 -66 -46 -116 t-152 -70q57 -51 92 -81.5t87 -67.5t81 -44q9 -2 18.5 -11.5t9.5 -19.5q0 -25 -16.5 -37t-34.5 -12q-34 0 -61.5 6.5t-54.5 23.5t-41.5 29t-45.5 42t-45 43q-18 14 -57.5 43t-58.5 45q-4 2 -11 2q7 -95 21 -174v-13l1 -2q1 -2 1 -6q0 -2 1 -11.5t1 -16.5q0 -15 -16 -25 t-43 -10q-23 0 -29 22l-4 8q-33 63 -49.5 196.5t-16.5 272.5q-3 0 -10 -1t-10 -1q-19 0 -25 5t-6 26zM567 1055q3 0 24.5 1t29.5 1q63 1 101 35t38 86q0 67 -131 67q-5 0 -60 -6q-2 -18 -2 -74v-110z" />
<glyph unicode="&#xb0;" horiz-adv-x="712" d="M82 1229q0 118 78 187t200 69q120 0 195.5 -82.5t75.5 -208.5q0 -114 -78.5 -197.5t-208.5 -83.5q-120 0 -191 94t-71 222zM236 1198q0 -54 35.5 -96.5t90.5 -42.5q63 0 97.5 46.5t34.5 104.5q0 49 -34 90t-95 41q-66 0 -97.5 -42t-31.5 -101z" />
<glyph unicode="&#xb1;" horiz-adv-x="1239" d="M135 698q0 28 10 49t30 34t40.5 21.5t52 13t53 6t55 3t48.5 2.5l88 7v192q0 75 25 123t94 59h14q59 0 62 -43q0 -38 -13.5 -125.5t-13.5 -138.5q0 -32 -2 -57q169 8 375 8q61 0 61 -61q0 -54 -438 -89q6 -177 6 -206v-140q0 -34 -39 -39h-14q-24 0 -37.5 10.5t-25 49 t-19 97.5t-17.5 173l-4 39q-101 -13 -178 -31t-111.5 -28.5t-48.5 -10.5q-53 6 -53 82zM176 129q0 32 22 54.5t51.5 34t75.5 18t76 7.5t72 1q46 0 103 2t108 2q186 0 401 -10q64 -4 64 -58q0 -13 -21.5 -24t-61.5 -18.5t-82.5 -13t-102 -9.5t-100.5 -6.5t-96 -5t-73 -3.5 q-117 -8 -202 -22.5t-123 -24.5t-51 -10q-54 10 -60 86z" />
<glyph unicode="&#xb2;" horiz-adv-x="911" d="M102 1300q0 81 97 148.5t252 67.5q282 0 282 -177q0 -34 -10.5 -69t-35 -74.5t-44.5 -68.5t-60 -72.5t-59.5 -64t-62.5 -64.5q-15 -16 -43 -44t-47.5 -48.5t-32.5 -36.5q-43 -54 -43 -90q0 -29 70 -29q102 0 195 39.5t151 113.5q20 23 34 23q13 0 28.5 -5t31.5 -24.5 t16 -50.5q0 -65 -51 -113t-132.5 -72t-162.5 -35t-162 -11q-42 0 -67.5 1.5t-55.5 8.5t-46 20.5t-27 38t-11 60.5q0 39 18 80.5t59 91t72.5 83t90.5 91.5q14 14 47 46t47 45.5t39 40t36 42.5t24.5 38.5t18.5 42.5t5 40q0 28 -16 43.5t-62 15.5q-53 0 -94 -17t-66.5 -41 t-58.5 -67q-31 -47 -59 -47q-43 0 -74 30t-31 70z" />
<glyph unicode="&#xb3;" horiz-adv-x="905" d="M123 1382q0 61 81 104.5t224 43.5q45 0 89.5 -7t93 -23t78.5 -50t30 -82q0 -23 -9 -47t-29 -47.5t-38 -42t-49 -42t-48.5 -36t-51.5 -35t-43 -28.5l-21 -15q131 -13 211 -49q62 -29 95.5 -76t33.5 -102q0 -86 -58 -156.5t-142.5 -106.5t-172.5 -36q-62 0 -120 12 t-103 43.5t-45 77.5q0 22 20 52t44 30q4 0 6.5 -1.5t4 -3.5t5 -6t8.5 -8q67 -67 174 -67q46 0 90.5 15t77.5 50t33 84q0 31 -17.5 63t-48.5 46q-82 37 -170 43q-62 2 -90 19t-28 69q0 21 79 72q11 9 58.5 42.5t78.5 58t60 59.5t29 61q0 45 -103 45q-37 0 -66 -8.5t-48 -25 t-27 -26.5t-20 -28q-14 -21 -26.5 -30t-35.5 -9q-50 0 -72 32.5t-22 71.5z" />
<glyph unicode="&#xb4;" horiz-adv-x="688" d="M113 991q0 5 12.5 16t40.5 34t41 34q71 61 139.5 137.5t103.5 116t52 39.5q20 -4 46.5 -40.5t26.5 -76.5q0 -45 -55 -102t-126 -100.5t-135.5 -74t-86.5 -30.5q-59 6 -59 47z" />
<glyph unicode="&#xb5;" horiz-adv-x="976" d="M86 498q0 44 4 77t15.5 67.5t36 57.5t61.5 33q27 8 47 8q45 0 45 -75q0 -54 -12.5 -151t-12.5 -144q0 -48 9.5 -91.5t35.5 -77.5t64 -34q108 0 254 420q10 77 28.5 100t51.5 23q20 0 33 -1.5t33 -8.5t31 -25t11 -47v-60q0 -171 13 -266q16 -123 55 -205q16 -36 16 -47 q0 -27 -20.5 -45t-46.5 -18q-21 0 -29 8q-63 41 -105.5 142.5t-48.5 258.5q-73 -214 -149.5 -307.5t-175.5 -93.5q-41 0 -78 16v-61q0 -81 9 -217t9 -197q0 -32 -11 -48t-36 -26q-16 -6 -45 -6q-33 0 -47 92q-43 315 -43 715v133q-2 25 -2 101z" />
<glyph unicode="&#xb7;" horiz-adv-x="520" d="M158 557q0 45 40 67.5t89 22.5q32 0 53.5 -30.5t21.5 -71.5q0 -24 -6 -48.5t-31 -49.5t-65 -25q-50 0 -76 42.5t-26 92.5z" />
<glyph unicode="&#xb8;" horiz-adv-x="686" d="M113 -502q0 16 8 26.5t18 10.5q2 0 30.5 -6t43.5 -6q69 0 123.5 29.5t54.5 78.5q-7 61 -106 99q-34 14 -48.5 21t-36 20.5t-30 30t-8.5 38.5q0 64 36 126.5t74 62.5h66q29 0 29 -21q0 -5 -16.5 -27.5t-33 -54t-16.5 -59.5q0 -31 102 -68q74 -27 119.5 -66.5t50.5 -103.5 v-10q0 -55 -50 -102.5t-128 -75t-162 -27.5q-49 0 -84.5 21t-35.5 63z" />
<glyph unicode="&#xb9;" horiz-adv-x="550" d="M180 1245q0 42 2.5 73t12 66.5t25.5 58t45.5 37.5t70.5 15q69 0 72 -41q-45 -218 -56 -395q0 -17 -3 -86t-3 -105q0 -47 1 -129.5t1 -101.5q0 -38 -6.5 -55t-28.5 -17q-73 0 -104 99q-7 25 -16 120q-13 173 -13 461z" />
<glyph unicode="&#xba;" horiz-adv-x="751" d="M78 1038q0 65 19 123t57 107t103.5 77.5t150.5 28.5q72 0 126.5 -23.5t86.5 -63.5t47.5 -89t15.5 -106q0 -69 -22.5 -139.5t-63.5 -131t-107.5 -99t-146.5 -38.5q-88 0 -150 53t-89 131t-27 170zM246 973q5 -70 35 -113t84 -43h10q45 0 79 25.5t53 66.5t28.5 85t9.5 89 q0 62 -29.5 105t-91.5 43q-41 0 -73 -15t-51.5 -38t-32 -54t-17 -60t-4.5 -60v-31z" />
<glyph unicode="&#xbb;" horiz-adv-x="1120" d="M102 743q0 23 25 43.5t78 20.5q34 0 95 -47t118.5 -112t100 -140t42.5 -125q0 -74 -61 -170q-42 -66 -141.5 -173.5t-141.5 -107.5q-32 0 -60 14.5t-28 37.5q0 4 0.5 8t1.5 6t3 4.5t3 4t4 4t4 3.5q88 86 158 180.5t70 159.5q0 32 -19.5 67.5t-49 66t-64 64t-64.5 63 t-51 63.5t-23 65zM547 -18q0 5 6 13.5t18.5 22t18.5 21.5q64 73 124 174.5t60 163.5q0 44 -29.5 95.5t-64.5 91t-64.5 90t-29.5 94.5q0 23 18.5 37.5t39 19.5t44.5 6q59 -7 129 -89t115 -179t45 -154q0 -63 -70 -174q-26 -40 -78 -102.5t-121 -122.5t-108 -60 q-22 0 -37.5 16t-15.5 36z" />
<glyph unicode="&#xbc;" horiz-adv-x="1773" d="M227 1020q0 42 2.5 73t12 66.5t25.5 58t45.5 37.5t70.5 15q69 0 72 -41q-45 -218 -56 -395q0 -17 -3 -86t-3 -105q0 -47 1 -129.5t1 -101.5q0 -38 -6.5 -55t-28.5 -17q-73 0 -104 98q-7 24 -16 121q-13 173 -13 461zM326 -129q0 93 155 403q201 396 323 626t151 278.5 t65 103.5q16 23 23.5 33.5t22.5 27.5t29 24t29 7q36 0 68.5 -42t32.5 -70q0 -5 -3.5 -12.5t-11 -18t-14 -18.5t-17 -21t-14.5 -18q-455 -693 -712 -1289q-24 -54 -33.5 -68t-20.5 -14h-14q-17 0 -38 16.5t-21 51.5zM866 147q0 9 4.5 17.5t15.5 21.5t13 15q75 109 136 267 t126 394q9 25 41 25q55 0 87 -36.5t32 -76.5q0 -49 -54.5 -174.5t-100 -212t-89.5 -164.5q229 42 250 45q3 80 8 131.5t17.5 103t37.5 76.5t62 25q23 0 47.5 -17.5t24.5 -43.5q-4 1 -12.5 -40.5t-17.5 -102t-15 -115.5q58 4 102 4q22 0 35.5 -14t13.5 -37q-6 -51 -38.5 -71 t-121.5 -20v-84q0 -124 9 -256v-24q0 -17 -10 -26t-23 -9q-36 0 -60.5 36.5t-36.5 99t-17 124t-5 131.5q-116 -6 -233 -33q-36 -8 -66 -18q-41 -12 -61 -12q-28 0 -64.5 20t-36.5 51z" />
<glyph unicode="&#xbd;" horiz-adv-x="1816" d="M227 1020q0 42 2.5 73t12 66.5t25.5 58t45.5 37.5t70.5 15q69 0 72 -41q-45 -218 -56 -395q0 -17 -3 -86t-3 -105q0 -47 1 -129.5t1 -101.5q0 -38 -6.5 -55t-28.5 -17q-73 0 -104 98q-7 24 -16 121q-13 173 -13 461zM305 -129q0 91 156 403q127 251 222.5 435.5t150 284 t84.5 152.5t53 90t28 46q56 92 105 92q36 0 68 -42t32 -70q0 -5 -3.5 -12.5t-11 -18.5t-13 -18t-17 -21t-14.5 -18q-458 -697 -713 -1289q-24 -55 -33 -68.5t-20 -13.5h-14q-17 0 -38.5 17t-21.5 51zM975 647q0 81 96.5 148t251.5 67q283 0 283 -176q0 -34 -10.5 -69.5 t-35 -74.5t-45 -68t-60.5 -73t-59 -64.5t-63 -64.5q-15 -16 -43 -44t-47.5 -48.5t-32.5 -36.5q-43 -54 -43 -90q0 -28 70 -28q102 0 195 39.5t151 113.5q20 23 35 23q13 0 28.5 -5t31.5 -24.5t16 -50.5q0 -65 -51 -113t-132.5 -72.5t-162.5 -35.5t-162 -11q-42 0 -67.5 1.5 t-55.5 8.5t-46 20.5t-27 38t-11 60.5q0 39 18.5 81t58.5 91t72 83t91 92q15 15 47.5 46t47 45.5t38.5 40t35.5 42t25 38.5t18.5 42t5 40q0 29 -16 44.5t-62 15.5q-53 0 -94 -17t-66.5 -41t-58.5 -67q-31 -47 -60 -47q-42 0 -73 30t-31 70z" />
<glyph unicode="&#xbe;" horiz-adv-x="2033" d="M143 1157q0 61 81.5 104.5t224.5 43.5q45 0 89.5 -7t92.5 -23t78 -50t30 -82q0 -28 -12 -55t-26 -46.5t-46 -46t-52 -41t-66 -45.5t-66 -45l-20 -14q131 -13 211 -49q62 -29 95.5 -76t33.5 -102q0 -86 -58 -156.5t-142.5 -106.5t-172.5 -36q-62 0 -120 12t-103 43.5 t-45 77.5q0 22 19.5 52t43.5 30q4 0 6.5 -1.5t4 -3.5t5.5 -6t9 -8q67 -67 174 -67q46 0 90 15t77 50t33 84q0 31 -17 63t-48 46q-82 37 -170 43q-62 2 -90.5 19t-28.5 69q0 20 80 71q12 10 45 33.5t60.5 44t56.5 46.5t46 51.5t17 46.5q0 45 -102 45q-38 0 -67.5 -8.5 t-48.5 -24.5t-27.5 -27t-18.5 -28q-11 -20 -24.5 -29.5t-36.5 -9.5q-50 0 -72.5 32.5t-22.5 71.5zM614 -129q0 91 156 403q127 251 222.5 435.5t150 284t85 153t53 89.5t28.5 46q56 92 104 92q36 0 68 -42t32 -70q0 -5 -3.5 -12.5t-11 -18.5t-13 -18t-17 -21t-14.5 -18 q-458 -697 -713 -1289q-24 -55 -33 -68.5t-20 -13.5h-14q-17 0 -38.5 17t-21.5 51zM1126 147q0 9 4.5 17.5t15.5 21.5t13 15q75 109 136 267t126 394q9 25 41 25q55 0 87 -36.5t32 -76.5q0 -49 -54.5 -174.5t-100 -212t-89.5 -164.5q229 42 250 45q3 80 8 131.5t17.5 103 t37.5 76.5t62 25q23 0 47.5 -17.5t24.5 -43.5q-4 1 -12.5 -40.5t-17.5 -102t-15 -115.5q58 4 102 4q22 0 35.5 -14t13.5 -37q-6 -52 -38 -71.5t-121 -19.5v-84q0 -139 8 -256v-24q0 -17 -10 -26t-23 -9q-36 0 -60.5 36.5t-36.5 99t-17 124t-5 131.5q-116 -6 -233 -33 q-36 -8 -66 -18q-40 -12 -61 -12q-28 0 -64.5 20t-36.5 51z" />
<glyph unicode="&#xbf;" horiz-adv-x="753" d="M45 -266q0 118 92 229q16 19 60.5 64.5t70 74.5t52.5 81.5t36 109.5q2 11 3.5 44t4.5 52t16.5 37t37.5 18q44 0 77 -25t33 -67q0 -82 -30.5 -158t-68 -122.5t-85.5 -105t-68 -95.5q-36 -58 -36 -152q0 -66 40.5 -114.5t108.5 -48.5q47 0 76.5 34t39 74.5t18.5 74.5t20 34 q121 0 121 -125q0 -82 -76.5 -144.5t-202.5 -62.5q-152 0 -246 85t-94 208zM346 768q0 36 21 60t63 24q57 0 89 -33t32 -76q0 -41 -29.5 -70.5t-83.5 -29.5q-38 0 -65 39t-27 86z" />
<glyph unicode="&#xc0;" d="M45 438q0 48 26.5 88.5t63.5 40.5h49q94 380 207 713q65 193 150 193t92 -54l8 -28q20 -60 100.5 -339t116.5 -399q97 21 115 21q26 0 26 -23q0 -18 -2 -22q-15 -39 -35.5 -56t-68.5 -32q35 -123 64.5 -271t29.5 -202q0 -37 -18 -58.5t-72 -29.5q-30 -5 -31 -5 q-30 0 -38 17.5t-11 66.5q-3 38 -41 236q-28 129 -45 201q-186 -45 -436 -78q-8 -38 -62 -324q-4 -25 -4 -86v-12q0 -72 -100 -72q-31 0 -46 13t-15 51v8q0 7 4 27q14 132 71 378h-14q-5 0 -21 -2t-24 -2q-39 0 -39 41zM193 1944q0 42 29 79t54 37q14 0 36 -27t48.5 -66.5 t76.5 -98t108 -107.5q13 -11 41 -34t40.5 -34t12.5 -16q0 -41 -59 -47q-23 0 -84 27.5t-129.5 69.5t-121 102t-52.5 115zM324 571q190 8 376 47q-28 113 -81.5 316.5t-65.5 249.5q0 1 -1 3.5t-1.5 4t-1.5 3.5t-2.5 3t-3 2.5t-3.5 2t-5 1t-7 0.5q-9 -2 -34.5 -60.5t-67 -188 t-80.5 -289.5z" />
<glyph unicode="&#xc1;" d="M45 438q0 48 26.5 88.5t63.5 40.5h49q94 380 207 713q65 193 150 193t92 -54l8 -28q20 -60 100.5 -339t116.5 -399q97 21 115 21q26 0 26 -23q0 -18 -2 -22q-15 -39 -35.5 -56t-68.5 -32q35 -123 64.5 -271t29.5 -202q0 -37 -18 -58.5t-72 -29.5q-30 -5 -31 -5 q-30 0 -38 17.5t-11 66.5q-3 38 -41 236q-28 129 -45 201q-186 -45 -436 -78q-8 -38 -62 -324q-4 -25 -4 -86v-12q0 -72 -100 -72q-31 0 -46 13t-15 51v8q0 7 4 27q14 132 71 378h-14q-5 0 -21 -2t-24 -2q-39 0 -39 41zM324 571q190 8 376 47q-28 113 -81.5 316.5 t-65.5 249.5q0 1 -1 3.5t-1.5 4t-1.5 3.5t-2.5 3t-3 2.5t-3.5 2t-5 1t-7 0.5q-9 -2 -34.5 -60.5t-67 -188t-80.5 -289.5zM467 1665q0 3 4.5 8.5t15 15t19 17t25 21t24.5 20.5q67 61 131.5 137.5t98 116t49.5 39.5q18 -4 43.5 -40.5t25.5 -76.5q0 -45 -52 -101.5t-119 -100 t-128 -73.5t-82 -30q-55 6 -55 47z" />
<glyph unicode="&#xc2;" d="M45 438q0 48 26.5 88.5t63.5 40.5h49q94 380 207 713q65 193 150 193t92 -54l8 -28q20 -60 100.5 -339t116.5 -399q97 21 115 21q26 0 26 -23q0 -18 -2 -22q-15 -39 -35.5 -56t-68.5 -32q35 -123 64.5 -271t29.5 -202q0 -37 -18 -58.5t-72 -29.5q-30 -5 -31 -5 q-30 0 -38 17.5t-11 66.5q-3 38 -41 236q-28 129 -45 201q-186 -45 -436 -78q-8 -38 -62 -324q-4 -25 -4 -86v-12q0 -72 -100 -72q-31 0 -46 13t-15 51v8q0 7 4 27q14 132 71 378h-14q-5 0 -21 -2t-24 -2q-39 0 -39 41zM236 1675v8q0 44 55 116.5t127.5 127.5t116.5 55 q64 0 127 -49q101 -72 151 -149q2 -4 9 -16t9.5 -17.5t7 -15t6 -17.5t1.5 -16q0 -26 -10 -49t-33 -23q-2 0 -7 5t-8 10q-60 72 -90 100q-80 80 -137 80q-26 0 -56.5 -25t-59 -61t-56 -72t-56 -61t-50.5 -25q-8 0 -17.5 8t-18.5 31t-11 55zM324 571q190 8 376 47 q-28 113 -81.5 316.5t-65.5 249.5q0 1 -1 3.5t-1.5 4t-1.5 3.5t-2.5 3t-3 2.5t-3.5 2t-5 1t-7 0.5q-9 -2 -34.5 -60.5t-67 -188t-80.5 -289.5z" />
<glyph unicode="&#xc3;" d="M45 438q0 48 26.5 88.5t63.5 40.5h49q94 380 207 713q65 193 150 193t92 -54l8 -28q20 -60 100.5 -339t116.5 -399q97 21 115 21q26 0 26 -23q0 -18 -2 -22q-15 -39 -35.5 -56t-68.5 -32q35 -123 64.5 -271t29.5 -202q0 -37 -18 -58.5t-72 -29.5q-30 -5 -31 -5 q-30 0 -38 17.5t-11 66.5q-3 38 -41 236q-28 129 -45 201q-186 -45 -436 -78q-8 -38 -62 -324q-4 -25 -4 -86v-12q0 -72 -100 -72q-31 0 -46 13t-15 51v8q0 7 4 27q14 132 71 378h-14q-5 0 -21 -2t-24 -2q-39 0 -39 41zM217 1700q0 56 63 120.5t128 73.5q42 -1 82 -22.5 t64.5 -47t51 -46.5t45.5 -21q40 0 79 35t69 80q8 16 26 16q12 0 24.5 -17.5t12.5 -45.5q0 -94 -67 -158.5t-138 -64.5q-31 0 -64 18.5t-56 40.5t-53.5 40.5t-57.5 18.5q-34 0 -63 -28.5t-47.5 -57t-26.5 -28.5q-15 0 -43.5 28.5t-28.5 65.5zM324 571q190 8 376 47 q-28 113 -81.5 316.5t-65.5 249.5q0 1 -1 3.5t-1.5 4t-1.5 3.5t-2.5 3t-3 2.5t-3.5 2t-5 1t-7 0.5q-9 -2 -34.5 -60.5t-67 -188t-80.5 -289.5z" />
<glyph unicode="&#xc4;" d="M45 438q0 48 26.5 88.5t63.5 40.5h49q94 380 207 713q65 193 150 193t92 -54l8 -28q20 -60 100.5 -339t116.5 -399q97 21 115 21q26 0 26 -23q0 -18 -2 -22q-15 -39 -35.5 -56t-68.5 -32q35 -123 64.5 -271t29.5 -202q0 -37 -18 -58.5t-72 -29.5q-30 -5 -31 -5 q-30 0 -38 17.5t-11 66.5q-3 38 -41 236q-28 129 -45 201q-186 -45 -436 -78q-8 -38 -62 -324q-4 -25 -4 -86v-12q0 -72 -100 -72q-31 0 -46 13t-15 51v8q0 7 4 27q14 132 71 378h-14q-5 0 -21 -2t-24 -2q-39 0 -39 41zM195 1724q0 32 40.5 66.5t83.5 34.5q78 0 91 -113v-12 q0 -42 -40 -62t-89 -20q-47 0 -66.5 31t-19.5 75zM324 571q190 8 376 47q-28 113 -81.5 316.5t-65.5 249.5q0 1 -1 3.5t-1.5 4t-1.5 3.5t-2.5 3t-3 2.5t-3.5 2t-5 1t-7 0.5q-9 -2 -34.5 -60.5t-67 -188t-80.5 -289.5zM606 1761q7 41 53.5 62.5t94.5 21.5q34 0 54.5 -28.5 t20.5 -65.5q0 -11 -2 -23.5t-9 -29.5t-18.5 -29.5t-32.5 -21.5t-48 -9q-55 0 -84 39t-29 84z" />
<glyph unicode="&#xc5;" d="M45 438q0 48 26.5 88.5t63.5 40.5h49q94 380 207 713q65 193 150 193t92 -54l8 -28q20 -60 100.5 -339t116.5 -399q97 21 115 21q26 0 26 -23q0 -18 -2 -22q-15 -39 -35.5 -56t-68.5 -32q35 -123 64.5 -271t29.5 -202q0 -37 -18 -58.5t-72 -29.5q-30 -5 -31 -5 q-30 0 -38 17.5t-11 66.5q-3 38 -41 236q-28 129 -45 201q-186 -45 -436 -78q-8 -38 -62 -324q-4 -25 -4 -86v-12q0 -72 -100 -72q-31 0 -46 13t-15 51v8q0 7 4 27q14 132 71 378h-14q-5 0 -21 -2t-24 -2q-39 0 -39 41zM293 1821q0 90 60.5 143t154.5 53q93 0 151 -63.5 t58 -159.5q0 -89 -60.5 -153t-160.5 -64q-92 0 -147.5 73t-55.5 171zM324 571q190 8 376 47q-28 113 -81.5 316.5t-65.5 249.5q0 1 -1 3.5t-1.5 4t-1.5 3.5t-2.5 3t-3 2.5t-3.5 2t-5 1t-7 0.5q-9 -2 -34.5 -60.5t-67 -188t-80.5 -289.5zM422 1802q0 -39 26.5 -70.5 t65.5 -31.5q47 0 71.5 34t24.5 76q0 37 -24 67t-70 30q-48 0 -71 -31t-23 -74z" />
<glyph unicode="&#xc6;" horiz-adv-x="1507" d="M-70 -25q0 15 2 23l2 8q33 133 172 432q-9 -3 -34 -8q-6 -2 -17 -2q-35 2 -61.5 27.5t-26.5 68.5q0 17 17.5 26t50 16t43.5 12q86 23 108 28q186 374 353 664q105 186 192 186q30 0 55.5 -13t30.5 -44q2 -9 3.5 -20.5t3.5 -27t3 -26.5q226 74 410 74q39 0 64.5 -2 t61 -10.5t54.5 -29.5t19 -54q0 -37 -16.5 -71t-33.5 -34l-17 4q-17 4 -70.5 9.5t-124.5 5.5q-168 0 -334 -41q4 -75 11.5 -233.5t10.5 -223.5l160 18q28 3 66.5 9t62.5 9t47 3q36 0 61.5 -3t54.5 -13t44.5 -34t15.5 -61q-1 -17 -3 -26t-11 -18t-25 -9q-17 0 -82.5 6 t-101.5 6q-128 0 -279 -24q0 -15 2 -23q9 -99 9 -231q0 -21 -1 -60t-1 -57q0 -22 6 -109q5 2 16 13q15 4 53 14t52.5 14t46 11.5t51.5 10t49.5 6.5t58.5 5.5t62 1.5l46 4h5q116 0 121 -71q-6 -37 -12 -59t-22 -42t-40 -20q-16 0 -57 6.5t-55 7.5h-27q-12 0 -33 1t-31 1 q-88 0 -223 -18q-19 -3 -61 -11.5t-66 -11.5q-36 -8 -67 -8q-39 0 -39 43q0 37 3 135.5t3 192.5q0 126 -2 235q-229 -21 -430 -74q-65 -142 -168 -391q-16 -41 -23 -86l-4 -12q-18 -68 -104 -68q-60 0 -60 43zM365 647q144 29 350 53q-12 492 -41 494q-10 -2 -50.5 -65 t-112 -194t-146.5 -288z" />
<glyph unicode="&#xc7;" horiz-adv-x="960" d="M102 676q0 77 11 157.5t33.5 164t61 156t89 130t122.5 90.5t156 33q48 0 96 -16t90 -46t68.5 -82t26.5 -116q0 -40 -21 -64t-57 -24q-25 0 -42 17t-28.5 41t-25 48t-38 41t-60.5 17q-58 0 -111 -43q-67 -52 -111.5 -152t-59.5 -188t-15 -168q0 -55 3.5 -107t13 -119.5 t29.5 -122.5t49.5 -103t76.5 -75.5t106 -27.5q44 0 89 24.5t78 59.5t59 70.5t42 60t17 24.5q59 0 59 -71q0 -99 -98 -188.5t-223 -116.5q-41 -62 -41 -99q0 -13 27.5 -28.5t66.5 -34t78 -42.5t66.5 -63t27.5 -86q0 -75 -93.5 -135.5t-211.5 -60.5q-5 0 -16.5 1t-16.5 1 q-44 3 -75 25.5t-31 66.5q0 14 7 23.5t15 9.5q3 0 33.5 -6.5t44.5 -6.5q25 0 52 5t54.5 16t44.5 31.5t17 48.5q0 26 -19 46.5t-38 30t-56 25.5q-60 24 -84 44t-24 50q0 33 39 113l8 18q-83 11 -148 62t-104 123t-64.5 165t-35 179t-9.5 174z" />
<glyph unicode="&#xc8;" horiz-adv-x="1093" d="M94 1094q0 18 35.5 50.5t103.5 67.5q33 158 97 158q37 0 64.5 -10t27.5 -23l-8 -51q116 35 188 51q90 21 189 21q35 0 59.5 -2.5t55 -10t47 -27.5t16.5 -50q0 -42 -10 -78t-27 -37q-37 12 -152 12q-86 0 -215 -14q-67 -9 -172 -39q-26 -244 -31 -465q68 34 98 48.5t88 38 t107.5 33t100.5 9.5q33 0 54 -1.5t44.5 -7.5t36.5 -17.5t22 -32t9 -49.5q0 -36 -8.5 -48t-30.5 -12q-13 0 -48.5 4t-62.5 4q-192 0 -412 -98v-88q0 -247 27 -344q126 47 281 77t305 30q59 0 59 -66q0 -42 -23 -81.5t-51 -39.5q-13 0 -52 3t-60 3q-216 0 -416 -43 q-19 -4 -47 -11.5t-45 -11t-31 -3.5q-30 0 -52.5 84t-33 220t-15.5 269t-5 268q0 134 10 271q-76 -27 -78 -27q-15 1 -27 22t-12 44zM256 1888q0 43 30.5 81t57.5 38q14 0 37.5 -27.5t50.5 -67.5t79.5 -100t111.5 -110q16 -14 43.5 -36t41 -34t13.5 -16q0 -43 -62 -49 q-24 0 -87.5 28t-135 71t-126 104.5t-54.5 117.5z" />
<glyph unicode="&#xc9;" horiz-adv-x="1093" d="M94 1094q0 18 35.5 50.5t103.5 67.5q33 158 97 158q37 0 64.5 -10t27.5 -23l-8 -51q116 35 188 51q90 21 189 21q35 0 59.5 -2.5t55 -10t47 -27.5t16.5 -50q0 -42 -10 -78t-27 -37q-37 12 -152 12q-86 0 -215 -14q-67 -9 -172 -39q-26 -244 -31 -465q68 34 98 48.5t88 38 t107.5 33t100.5 9.5q33 0 54 -1.5t44.5 -7.5t36.5 -17.5t22 -32t9 -49.5q0 -36 -8.5 -48t-30.5 -12q-13 0 -48.5 4t-62.5 4q-192 0 -412 -98v-88q0 -247 27 -344q126 47 281 77t305 30q59 0 59 -66q0 -42 -23 -81.5t-51 -39.5q-13 0 -52 3t-60 3q-216 0 -416 -43 q-19 -4 -47 -11.5t-45 -11t-31 -3.5q-30 0 -52.5 84t-33 220t-15.5 269t-5 268q0 134 10 271q-76 -27 -78 -27q-15 1 -27 22t-12 44zM406 1622q0 3 5.5 9t16 15t21 17t26.5 21t27 22q72 60 141.5 136t105 115.5t52.5 39.5q22 -3 49 -39.5t27 -77.5q0 -58 -92 -132.5 t-190 -122.5t-130 -48q-20 2 -33 7t-18 12.5t-6.5 13t-1.5 12.5z" />
<glyph unicode="&#xca;" horiz-adv-x="1093" d="M94 1094q0 18 35.5 50.5t103.5 67.5q33 158 97 158q37 0 64.5 -10t27.5 -23l-8 -51q116 35 188 51q90 21 189 21q35 0 59.5 -2.5t55 -10t47 -27.5t16.5 -50q0 -42 -10 -78t-27 -37q-37 12 -152 12q-86 0 -215 -14q-67 -9 -172 -39q-26 -244 -31 -465q68 34 98 48.5t88 38 t107.5 33t100.5 9.5q33 0 54 -1.5t44.5 -7.5t36.5 -17.5t22 -32t9 -49.5q0 -36 -8.5 -48t-30.5 -12q-13 0 -48.5 4t-62.5 4q-192 0 -412 -98v-88q0 -247 27 -344q126 47 281 77t305 30q59 0 59 -66q0 -42 -23 -81.5t-51 -39.5q-13 0 -52 3t-60 3q-216 0 -416 -43 q-19 -4 -47 -11.5t-45 -11t-31 -3.5q-30 0 -52.5 84t-33 220t-15.5 269t-5 268q0 134 10 271q-76 -27 -78 -27q-15 1 -27 22t-12 44zM276 1675v8q0 45 61 117.5t140.5 127t128.5 54.5q68 0 139 -49q115 -76 168 -147q35 -56 35 -82q0 -28 -10.5 -51t-36.5 -23q-5 0 -16 15 q-65 73 -99 102q-89 78 -151 78q-34 0 -78 -38t-79.5 -83t-77 -83t-70.5 -38q-16 0 -33 22.5t-21 69.5z" />
<glyph unicode="&#xcb;" horiz-adv-x="1093" d="M94 1094q0 18 35.5 50.5t103.5 67.5q33 158 97 158q37 0 64.5 -10t27.5 -23l-8 -51q116 35 188 51q90 21 189 21q35 0 59.5 -2.5t55 -10t47 -27.5t16.5 -50q0 -42 -10 -78t-27 -37q-37 12 -152 12q-86 0 -215 -14q-67 -9 -172 -39q-26 -244 -31 -465q68 34 98 48.5t88 38 t107.5 33t100.5 9.5q33 0 54 -1.5t44.5 -7.5t36.5 -17.5t22 -32t9 -49.5q0 -36 -8.5 -48t-30.5 -12q-13 0 -48.5 4t-62.5 4q-192 0 -412 -98v-88q0 -247 27 -344q126 47 281 77t305 30q59 0 59 -66q0 -42 -23 -81.5t-51 -39.5q-13 0 -52 3t-60 3q-216 0 -416 -43 q-19 -4 -47 -11.5t-45 -11t-31 -3.5q-30 0 -52.5 84t-33 220t-15.5 269t-5 268q0 134 10 271q-76 -27 -78 -27q-15 1 -27 22t-12 44zM236 1724q0 32 40.5 66.5t83.5 34.5q78 0 91 -113v-12q0 -42 -40 -62t-89 -20q-47 0 -66.5 31t-19.5 75zM647 1761q7 41 53.5 62.5 t94.5 21.5q34 0 54.5 -28.5t20.5 -65.5q0 -11 -2 -23.5t-9 -29.5t-18.5 -29.5t-32.5 -21.5t-48 -9q-55 0 -84 39t-29 84z" />
<glyph unicode="&#xcc;" horiz-adv-x="526" d="M-10 1939q0 43 30.5 81t57.5 38q14 0 36.5 -27.5t49 -67t78.5 -99t112 -109.5q13 -10 43 -33.5t43 -35.5t13 -17q0 -41 -62 -47q-23 0 -87 28t-134.5 70t-125 102.5t-54.5 116.5zM162 989q0 54 1 91.5t4.5 93t12 93t21.5 74.5t35 55.5t51 18.5q41 0 73 -13t33 -36 q0 -8 -4 -20q-21 -105 -31.5 -233t-12 -208.5t-1.5 -222.5q0 -334 27 -545q2 -17 10 -59.5t8 -65.5t-21 -36t-53 -13q-24 0 -40.5 25.5t-24.5 56.5q-88 316 -88 944z" />
<glyph unicode="&#xcd;" horiz-adv-x="526" d="M162 989q0 54 1 91.5t4.5 93t12 93t21.5 74.5t35 55.5t51 18.5q41 0 73 -13t33 -36q0 -8 -4 -20q-21 -105 -31.5 -233t-12 -208.5t-1.5 -222.5q0 -334 27 -545q2 -17 10 -59.5t8 -65.5t-21 -36t-53 -13q-24 0 -40.5 25.5t-24.5 56.5q-88 316 -88 944zM221 1667 q0 5 12.5 17.5t40 35t41.5 35.5q70 65 137.5 145t102 121t51.5 41q20 -4 46 -41t26 -79q0 -48 -54 -108t-124 -106t-133.5 -78t-85.5 -32q-60 6 -60 49z" />
<glyph unicode="&#xce;" horiz-adv-x="526" d="M-14 1700v8q0 41 55 108.5t128 119t118 51.5q59 0 127 -45q101 -68 151 -140q33 -50 33 -76q0 -25 -10 -46t-33 -21q-6 0 -14 12q-66 75 -90 96q-82 74 -140 74q-25 0 -55.5 -23.5t-59 -56.5t-56 -66.5t-56 -57t-51.5 -23.5q-13 0 -28 22t-19 64zM162 989q0 54 1 91.5 t4.5 93t12 93t21.5 74.5t35 55.5t51 18.5q41 0 73 -13t33 -36q0 -8 -4 -20q-21 -105 -31.5 -233t-12 -208.5t-1.5 -222.5q0 -334 27 -545q2 -17 10 -59.5t8 -65.5t-21 -36t-53 -13q-24 0 -40.5 25.5t-24.5 56.5q-88 316 -88 944z" />
<glyph unicode="&#xcf;" horiz-adv-x="526" d="M-12 1729q0 32 41 66t84 34q77 0 90 -113v-12q0 -42 -40 -62t-89 -20q-47 0 -66.5 31.5t-19.5 75.5zM162 989q0 54 1 91.5t4.5 93t12 93t21.5 74.5t35 55.5t51 18.5q41 0 73 -13t33 -36q0 -8 -4 -20q-21 -105 -31.5 -233t-12 -208.5t-1.5 -222.5q0 -334 27 -545 q2 -17 10 -59.5t8 -65.5t-21 -36t-53 -13q-24 0 -40.5 25.5t-24.5 56.5q-88 316 -88 944zM399 1765q7 41 53.5 62.5t94.5 21.5q34 0 55 -28.5t21 -65.5q0 -15 -4 -31.5t-15 -36t-34.5 -32.5t-57.5 -13q-55 0 -84 39t-29 84z" />
<glyph unicode="&#xd1;" horiz-adv-x="1212" d="M154 567q0 261 28 504q20 173 62 242t116 69q81 0 185 -260q38 -92 133 -356q91 -261 176 -451q18 623 79 918t197 295q24 0 58.5 -16.5t34.5 -41.5q0 -11 -25 -40q-96 -135 -154.5 -435.5t-58.5 -695.5q0 -42 1 -107t1 -108q-3 -42 -17.5 -56t-41.5 -14q-37 0 -57 9 t-35 32q-23 33 -62 113q-28 58 -59.5 132.5t-48.5 117.5t-56 147t-49 131q-89 240 -149 367q-11 23 -24.5 40t-22.5 17q-24 0 -38 -94t-14 -248q0 -182 15.5 -348.5t28 -236.5t24.5 -117q12 -54 12 -64q0 -63 -74 -63q-111 0 -141 235q-24 201 -24 383zM360 1720 q0 56 64 121t131 74q36 -1 69.5 -15t58 -34t46 -40t42 -34t36.5 -14q41 0 81.5 34.5t69.5 79.5q13 17 29 17q13 0 26 -17.5t13 -46.5q0 -93 -70 -159t-141 -66q-33 0 -67 19t-58 41.5t-55.5 41.5t-59.5 19q-35 0 -65 -29.5t-49 -58.5t-27 -29q-15 0 -44.5 29.5t-29.5 66.5z " />
<glyph unicode="&#xd2;" d="M96 590v57q0 117 16 226t53.5 211t92.5 178.5t138 124.5t186 53h24q85 0 152.5 -31t109.5 -79t70.5 -114t41 -129t15.5 -131q0 -5 1 -32.5t1 -55.5q0 -176 -34 -334.5t-95.5 -279.5t-155 -194.5t-204.5 -79.5h-19q-81 0 -149 39t-112 102t-74.5 144t-44 163t-13.5 162z M262 1937q0 43 30.5 82t57.5 39q14 0 38 -28t51.5 -68.5t80.5 -101t113 -111.5q11 -9 28 -22.5t28 -22.5t22 -18.5t16.5 -15.5t5.5 -9q0 -43 -63 -49q-24 0 -88.5 28.5t-136.5 72t-127.5 105.5t-55.5 119zM287 594q0 -49 7 -104t25.5 -118.5t46.5 -113.5t74.5 -83.5 t104.5 -33.5q91 0 157 81.5t103 223.5q45 173 45 365v78q0 55 -15 118t-44 124t-80 101t-115 40q-48 -1 -91 -19t-83.5 -61.5t-70 -109t-47 -167.5t-17.5 -231v-90z" />
<glyph unicode="&#xd3;" d="M96 590v57q0 117 16 226t53.5 211t92.5 178.5t138 124.5t186 53h24q85 0 152.5 -31t109.5 -79t70.5 -114t41 -129t15.5 -131q0 -5 1 -32.5t1 -55.5q0 -176 -34 -334.5t-95.5 -279.5t-155 -194.5t-204.5 -79.5h-19q-81 0 -149 39t-112 102t-74.5 144t-44 163t-13.5 162z M287 594q0 -49 7 -104t25.5 -118.5t46.5 -113.5t74.5 -83.5t104.5 -33.5q91 0 157 81.5t103 223.5q45 173 45 365v78q0 55 -15 118t-44 124t-80 101t-115 40q-48 -1 -91 -19t-83.5 -61.5t-70 -109t-47 -167.5t-17.5 -231v-90zM457 1655q0 4 12.5 16t37.5 34t40 36 q69 62 134.5 140t99.5 118.5t50 40.5q20 -4 46 -41t26 -78q0 -46 -53 -104.5t-121.5 -103.5t-131 -76t-83.5 -31q-57 6 -57 49z" />
<glyph unicode="&#xd4;" d="M96 590v57q0 117 16 226t53.5 211t92.5 178.5t138 124.5t186 53h24q85 0 152.5 -31t109.5 -79t70.5 -114t41 -129t15.5 -131q0 -5 1 -32.5t1 -55.5q0 -176 -34 -334.5t-95.5 -279.5t-155 -194.5t-204.5 -79.5h-19q-81 0 -149 39t-112 102t-74.5 144t-44 163t-13.5 162z M276 1677v9q0 45 60.5 117.5t140 127t127.5 54.5q68 0 141 -50q116 -79 166 -147q2 -4 9 -16t9.5 -17.5t7 -15t6 -17.5t1.5 -16q0 -27 -10 -50.5t-35 -23.5q-5 0 -16 15q-65 73 -99 102q-85 78 -151 78q-33 0 -77 -38t-79 -83t-76.5 -83t-70.5 -38q-16 0 -33 22.5t-21 69.5z M287 594q0 -49 7 -104t25.5 -118.5t46.5 -113.5t74.5 -83.5t104.5 -33.5q91 0 157 81.5t103 223.5q45 173 45 365v78q0 55 -15 118t-44 124t-80 101t-115 40q-48 -1 -91 -19t-83.5 -61.5t-70 -109t-47 -167.5t-17.5 -231v-90z" />
<glyph unicode="&#xd5;" d="M96 590v57q0 117 16 226t53.5 211t92.5 178.5t138 124.5t186 53h24q85 0 152.5 -31t109.5 -79t70.5 -114t41 -129t15.5 -131q0 -5 1 -32.5t1 -55.5q0 -176 -34 -334.5t-95.5 -279.5t-155 -194.5t-204.5 -79.5h-19q-81 0 -149 39t-112 102t-74.5 144t-44 163t-13.5 162z M258 1688q0 58 64 124.5t131 75.5q44 -1 84.5 -23t65.5 -48t52 -48t47 -22q41 0 82 36.5t70 82.5q12 16 29 16q13 0 26 -18t13 -47q0 -96 -70 -164t-141 -68q-33 0 -67 19t-58 42.5t-55 42.5t-58 19q-36 0 -66 -30t-49 -59.5t-28 -29.5q-7 0 -23 11.5t-32.5 36t-16.5 51.5z M287 594q0 -49 7 -104t25.5 -118.5t46.5 -113.5t74.5 -83.5t104.5 -33.5q91 0 157 81.5t103 223.5q45 173 45 365v78q0 55 -15 118t-44 124t-80 101t-115 40q-48 -1 -91 -19t-83.5 -61.5t-70 -109t-47 -167.5t-17.5 -231v-90z" />
<glyph unicode="&#xd6;" d="M96 590v57q0 117 16 226t53.5 211t92.5 178.5t138 124.5t186 53h24q85 0 152.5 -31t109.5 -79t70.5 -114t41 -129t15.5 -131q0 -5 1 -32.5t1 -55.5q0 -176 -34 -334.5t-95.5 -279.5t-155 -194.5t-204.5 -79.5h-19q-81 0 -149 39t-112 102t-74.5 144t-44 163t-13.5 162z M262 1724q0 32 41 66.5t84 34.5q77 0 90 -113v-12q0 -42 -40 -62t-89 -20q-47 0 -66.5 31t-19.5 75zM287 594q0 -49 7 -104t25.5 -118.5t46.5 -113.5t74.5 -83.5t104.5 -33.5q91 0 157 81.5t103 223.5q45 173 45 365v78q0 55 -15 118t-44 124t-80 101t-115 40 q-48 -1 -91 -19t-83.5 -61.5t-70 -109t-47 -167.5t-17.5 -231v-90zM674 1761q7 41 53 62.5t94 21.5q34 0 55 -28.5t21 -65.5q0 -15 -4 -31.5t-15 -36t-34.5 -32.5t-57.5 -13q-55 0 -83.5 39t-28.5 84z" />
<glyph unicode="&#xd7;" horiz-adv-x="1103" d="M135 844q0 34 33.5 66t67.5 32q31 0 66.5 -22.5t59.5 -48t58.5 -66.5t48.5 -55l80 -84l47 51q40 45 62 68t63.5 62.5t75.5 59.5t61 21q41 0 76 -16.5t35 -51.5q0 -27 -33 -53q-16 -15 -42.5 -35.5t-27.5 -21.5q-78 -65 -211 -203q90 -105 242 -297q16 -13 16 -39 q0 -14 -11.5 -32.5t-29.5 -18.5q-59 0 -321 276l-164 -178q-6 -6 -36.5 -43t-59.5 -64.5t-47 -27.5q-25 0 -40.5 12.5t-15.5 30.5q0 33 65 131t193 250q-93 93 -164 157.5t-100.5 87t-36.5 23.5q-8 21 -10 29z" />
<glyph unicode="&#xd8;" horiz-adv-x="1103" d="M96 590v41q0 98 12 193t36 186.5t64 168.5t92 136t124.5 92t157.5 33h10l6 55v18q0 6 -3 19.5t-3 19.5v15q0 45 29 73.5t84 32.5h8q62 0 69 -84v-16q0 -40 -4 -86q-2 -14 -6 -86q71 -33 121 -93t74.5 -135t34.5 -145t10 -147q0 -245 -59 -447.5t-176 -328t-271 -125.5 q-66 -221 -123 -226h-12q-58 0 -58 56q0 3 3.5 13.5l9.5 28.5t10 33l31 125q-68 34 -121.5 100.5t-84.5 148t-47 165.5t-18 166zM274 633q0 -42 4 -91t15.5 -122.5t40 -140.5t69.5 -107q108 491 172 1106q-60 -5 -112.5 -43.5t-95.5 -113t-68 -200t-25 -288.5zM543 121 q91 6 165.5 107.5t115 260.5t40.5 338q0 42 -7 100t-35.5 145t-73.5 138q-47 -310 -205 -1089z" />
<glyph unicode="&#xd9;" horiz-adv-x="1198" d="M131 938q0 59 2 90q1 17 1.5 47t1.5 56t3 49q3 26 4.5 39.5t7 47t13.5 54t19.5 44.5t30 36t40.5 12q42 0 82.5 -15t40.5 -38v-21l-3 -31q-3 -30 -7.5 -79.5t-9.5 -105.5t-9 -116.5t-6 -103.5q-4 -90 -4 -190q0 -84 3.5 -158t13.5 -156.5t27 -141.5t46 -97.5t68 -38.5 q55 0 134 117.5t144 277t94 293.5q-2 59 -2 174q0 172 27 267.5t94 95.5q98 0 98 -48v-12q0 -11 -15.5 -200t-16.5 -365q0 -112 2 -180q6 -148 18 -282.5t20.5 -205.5t8.5 -80q-2 -34 -55 -34q-26 0 -45 16t-30 46t-15 48t-9 47t-15 88.5t-14 83t-11 69t-11 74.5t-8.5 69.5 t-7.5 82.5q-36 -113 -80 -213.5t-98 -190.5t-117.5 -143t-126.5 -53q-2 0 -6 1t-7 1q-53 7 -96 35t-73 68t-53.5 101.5t-37.5 120.5t-24.5 141.5t-15.5 148.5t-9 155q-6 177 -6 203zM369 1876q0 43 30 82t56 39q14 0 36.5 -27.5t49 -68t78 -101.5t110.5 -112q10 -9 27 -22 t27.5 -21.5t21.5 -18t16.5 -15.5t5.5 -9q0 -44 -61 -50q-23 0 -86 28.5t-133.5 72t-124 105.5t-53.5 118z" />
<glyph unicode="&#xda;" horiz-adv-x="1198" d="M131 938q0 59 2 90q1 17 1.5 47t1.5 56t3 49q3 26 4.5 39.5t7 47t13.5 54t19.5 44.5t30 36t40.5 12q42 0 82.5 -15t40.5 -38v-21l-3 -31q-3 -30 -7.5 -79.5t-9.5 -105.5t-9 -116.5t-6 -103.5q-4 -90 -4 -190q0 -84 3.5 -158t13.5 -156.5t27 -141.5t46 -97.5t68 -38.5 q55 0 134 117.5t144 277t94 293.5q-2 59 -2 174q0 172 27 267.5t94 95.5q98 0 98 -48v-12q0 -11 -15.5 -200t-16.5 -365q0 -112 2 -180q6 -148 18 -282.5t20.5 -205.5t8.5 -80q-2 -34 -55 -34q-26 0 -45 16t-30 46t-15 48t-9 47t-15 88.5t-14 83t-11 69t-11 74.5t-8.5 69.5 t-7.5 82.5q-36 -113 -80 -213.5t-98 -190.5t-117.5 -143t-126.5 -53q-2 0 -6 1t-7 1q-53 7 -96 35t-73 68t-53.5 101.5t-37.5 120.5t-24.5 141.5t-15.5 148.5t-9 155q-6 177 -6 203zM514 1630q0 5 12 16t39 32.5t41 33.5q70 59 136.5 134t101 114t51.5 39q19 -4 45.5 -39.5 t26.5 -75.5q0 -58 -88.5 -132t-182.5 -121.5t-125 -47.5q-57 6 -57 47z" />
<glyph unicode="&#xdb;" horiz-adv-x="1198" d="M131 938q0 59 2 90q1 17 1.5 47t1.5 56t3 49q3 26 4.5 39.5t7 47t13.5 54t19.5 44.5t30 36t40.5 12q42 0 82.5 -15t40.5 -38v-21l-3 -31q-3 -30 -7.5 -79.5t-9.5 -105.5t-9 -116.5t-6 -103.5q-4 -90 -4 -190q0 -84 3.5 -158t13.5 -156.5t27 -141.5t46 -97.5t68 -38.5 q55 0 134 117.5t144 277t94 293.5q-2 59 -2 174q0 172 27 267.5t94 95.5q98 0 98 -48v-12q0 -11 -15.5 -200t-16.5 -365q0 -112 2 -180q6 -148 18 -282.5t20.5 -205.5t8.5 -80q-2 -34 -55 -34q-26 0 -45 16t-30 46t-15 48t-9 47t-15 88.5t-14 83t-11 69t-11 74.5t-8.5 69.5 t-7.5 82.5q-36 -113 -80 -213.5t-98 -190.5t-117.5 -143t-126.5 -53q-2 0 -6 1t-7 1q-53 7 -96 35t-73 68t-53.5 101.5t-37.5 120.5t-24.5 141.5t-15.5 148.5t-9 155q-6 177 -6 203zM360 1681v9q0 43 60 113.5t139.5 124.5t128.5 54q66 0 139 -47q120 -82 164 -147 q35 -52 35 -80q0 -26 -10 -49t-35 -23q-5 0 -16 15q-58 65 -99 100q-89 78 -149 78q-28 0 -61.5 -24.5t-64.5 -60t-61 -71t-61 -60t-55 -24.5q-16 0 -33 23t-21 69z" />
<glyph unicode="&#xdc;" horiz-adv-x="1198" d="M131 938q0 59 2 90q1 17 1.5 47t1.5 56t3 49q3 26 4.5 39.5t7 47t13.5 54t19.5 44.5t30 36t40.5 12q42 0 82.5 -15t40.5 -38v-21l-3 -31q-3 -30 -7.5 -79.5t-9.5 -105.5t-9 -116.5t-6 -103.5q-4 -90 -4 -190q0 -84 3.5 -158t13.5 -156.5t27 -141.5t46 -97.5t68 -38.5 q55 0 134 117.5t144 277t94 293.5q-2 59 -2 174q0 172 27 267.5t94 95.5q98 0 98 -48v-12q0 -11 -15.5 -200t-16.5 -365q0 -112 2 -180q6 -148 18 -282.5t20.5 -205.5t8.5 -80q-2 -34 -55 -34q-26 0 -45 16t-30 46t-15 48t-9 47t-15 88.5t-14 83t-11 69t-11 74.5t-8.5 69.5 t-7.5 82.5q-36 -113 -80 -213.5t-98 -190.5t-117.5 -143t-126.5 -53q-2 0 -6 1t-7 1q-53 7 -96 35t-73 68t-53.5 101.5t-37.5 120.5t-24.5 141.5t-15.5 148.5t-9 155q-6 177 -6 203zM358 1726q0 32 41 66.5t84 34.5q77 0 90 -113v-12q0 -42 -40 -62t-89 -20q-47 0 -66.5 31 t-19.5 75zM770 1763q7 41 53.5 62.5t94.5 21.5q34 0 54.5 -28.5t20.5 -65.5q0 -11 -2 -23.5t-9 -29.5t-18.5 -29.5t-32.5 -21.5t-48 -9q-55 0 -84 39t-29 84z" />
<glyph unicode="&#xdd;" horiz-adv-x="940" d="M10 1268q0 57 43 86.5t109 29.5q39 0 41 -12q4 -52 69.5 -223.5t128.5 -269.5l117 -183q122 384 270 635q24 43 53 63.5t79 20.5q33 0 72.5 -25t39.5 -57q0 -5 -3.5 -9.5t-11 -12.5t-9.5 -11q-113 -133 -239 -416.5t-198 -568.5q-50 -196 -61 -301q-10 -103 -27 -123 q-13 -16 -32 -16q-29 0 -57.5 28.5t-28.5 65.5v31q7 184 102 526q-58 57 -157.5 194.5t-205.5 313.5q-6 11 -24.5 42t-27 46.5t-20.5 42.5t-17 52t-5 51zM410 1686q0 4 13 15.5t41.5 33t41.5 32.5q72 61 141 137.5t104 116t52 39.5q21 -4 47.5 -40t26.5 -76 q0 -45 -55.5 -101.5t-127 -100.5t-136.5 -74t-87 -30q-61 6 -61 48z" />
<glyph unicode="&#xe0;" horiz-adv-x="952" d="M90 328q0 85 19 161.5t57.5 141.5t105.5 103t156 38q129 0 174 -90q19 -33 19 -64q0 -23 -20 -46t-42 -23q-10 0 -31 35q-14 22 -27.5 28t-49.5 6q-87 0 -137 -85.5t-50 -202.5q0 -180 111 -180q43 0 84.5 34.5t73.5 91t53.5 104.5t38.5 99q51 152 100 152 q13 0 21.5 -0.5t23.5 -4.5t24.5 -11t17 -22t7.5 -36q0 -160 12 -274q12 -106 48 -191q12 -27 12 -39q0 -23 -21.5 -40t-44.5 -17q-59 0 -103 102.5t-50 259.5q-30 -67 -64.5 -125t-77 -109.5t-92 -81.5t-100.5 -30q-116 0 -182 91.5t-66 224.5zM279 1237q0 42 29 79.5 t54 37.5q14 0 36 -27t48.5 -66.5t76.5 -98t108 -107.5q13 -11 41 -34t40.5 -34t12.5 -16q0 -41 -59 -47q-23 0 -84 27.5t-129.5 69t-121 101.5t-52.5 115z" />
<glyph unicode="&#xe1;" horiz-adv-x="952" d="M90 328q0 85 19 161.5t57.5 141.5t105.5 103t156 38q129 0 174 -90q19 -33 19 -64q0 -23 -20 -46t-42 -23q-10 0 -31 35q-14 22 -27.5 28t-49.5 6q-87 0 -137 -85.5t-50 -202.5q0 -180 111 -180q43 0 84.5 34.5t73.5 91t53.5 104.5t38.5 99q51 152 100 152 q13 0 21.5 -0.5t23.5 -4.5t24.5 -11t17 -22t7.5 -36q0 -160 12 -274q12 -106 48 -191q12 -27 12 -39q0 -23 -21.5 -40t-44.5 -17q-59 0 -103 102.5t-50 259.5q-30 -67 -64.5 -125t-77 -109.5t-92 -81.5t-100.5 -30q-116 0 -182 91.5t-66 224.5zM332 967q0 3 5.5 9t16 15.5 t20.5 18t26 21.5t26 22q70 63 137.5 141t102 118t51.5 40q20 -3 45.5 -40.5t25.5 -78.5q0 -37 -35.5 -82.5t-88.5 -84.5t-109.5 -73t-101.5 -53.5t-62 -19.5q-59 6 -59 47z" />
<glyph unicode="&#xe2;" horiz-adv-x="952" d="M90 328q0 85 19 161.5t57.5 141.5t105.5 103t156 38q129 0 174 -90q19 -33 19 -64q0 -23 -20 -46t-42 -23q-10 0 -31 35q-14 22 -27.5 28t-49.5 6q-87 0 -137 -85.5t-50 -202.5q0 -180 111 -180q43 0 84.5 34.5t73.5 91t53.5 104.5t38.5 99q51 152 100 152 q13 0 21.5 -0.5t23.5 -4.5t24.5 -11t17 -22t7.5 -36q0 -160 12 -274q12 -106 48 -191q12 -27 12 -39q0 -23 -21.5 -40t-44.5 -17q-59 0 -103 102.5t-50 259.5q-30 -67 -64.5 -125t-77 -109.5t-92 -81.5t-100.5 -30q-116 0 -182 91.5t-66 224.5zM193 1016v8q0 41 54 107.5 t124.5 116.5t113.5 50q64 0 125 -45q100 -66 150 -135q31 -52 31 -76q0 -25 -10 -46t-33 -21q-4 0 -15 14q-63 71 -86 92q-82 74 -137 74q-25 0 -54.5 -23t-57 -56.5t-54.5 -66.5t-54.5 -56t-49.5 -23q-14 0 -29 22t-18 64z" />
<glyph unicode="&#xe3;" horiz-adv-x="952" d="M90 328q0 85 19 161.5t57.5 141.5t105.5 103t156 38q129 0 174 -90q19 -33 19 -64q0 -23 -20 -46t-42 -23q-10 0 -31 35q-14 22 -27.5 28t-49.5 6q-87 0 -137 -85.5t-50 -202.5q0 -180 111 -180q43 0 84.5 34.5t73.5 91t53.5 104.5t38.5 99q51 152 100 152 q13 0 21.5 -0.5t23.5 -4.5t24.5 -11t17 -22t7.5 -36q0 -160 12 -274q12 -106 48 -191q12 -27 12 -39q0 -23 -21.5 -40t-44.5 -17q-59 0 -103 102.5t-50 259.5q-30 -67 -64.5 -125t-77 -109.5t-92 -81.5t-100.5 -30q-116 0 -182 91.5t-66 224.5zM150 1047q0 53 65 114t133 68 q44 -1 86 -21t68.5 -43.5t54 -43t47.5 -19.5q41 0 83.5 32.5t72.5 73.5q11 15 26 15q14 0 27.5 -16.5t13.5 -43.5q0 -86 -71 -147.5t-144 -61.5q-34 0 -68.5 17.5t-59 38t-56 38t-59.5 17.5t-53.5 -16.5t-41 -37t-29.5 -37t-22 -16.5q-15 0 -44 27t-29 62z" />
<glyph unicode="&#xe4;" horiz-adv-x="952" d="M90 328q0 85 19 161.5t57.5 141.5t105.5 103t156 38q129 0 174 -90q19 -33 19 -64q0 -23 -20 -46t-42 -23q-10 0 -31 35q-14 22 -27.5 28t-49.5 6q-87 0 -137 -85.5t-50 -202.5q0 -180 111 -180q43 0 84.5 34.5t73.5 91t53.5 104.5t38.5 99q51 152 100 152 q13 0 21.5 -0.5t23.5 -4.5t24.5 -11t17 -22t7.5 -36q0 -160 12 -274q12 -106 48 -191q12 -27 12 -39q0 -23 -21.5 -40t-44.5 -17q-59 0 -103 102.5t-50 259.5q-30 -67 -64.5 -125t-77 -109.5t-92 -81.5t-100.5 -30q-116 0 -182 91.5t-66 224.5zM215 1081q0 30 38 62.5 t77 32.5q71 0 84 -105v-10q0 -39 -37 -58.5t-84 -19.5q-43 0 -60.5 29t-17.5 69zM592 1116q7 39 48.5 58.5t86.5 19.5q31 0 50.5 -26t19.5 -60q0 -14 -4 -29t-13.5 -33.5t-31 -30t-52.5 -11.5q-51 0 -77.5 35t-26.5 77z" />
<glyph unicode="&#xe5;" horiz-adv-x="952" d="M90 328q0 85 19 161.5t57.5 141.5t105.5 103t156 38q129 0 174 -90q19 -33 19 -64q0 -23 -20 -46t-42 -23q-10 0 -31 35q-14 22 -27.5 28t-49.5 6q-87 0 -137 -85.5t-50 -202.5q0 -180 111 -180q43 0 84.5 34.5t73.5 91t53.5 104.5t38.5 99q51 152 100 152 q13 0 21.5 -0.5t23.5 -4.5t24.5 -11t17 -22t7.5 -36q0 -160 12 -274q12 -106 48 -191q12 -27 12 -39q0 -23 -21.5 -40t-44.5 -17q-59 0 -103 102.5t-50 259.5q-30 -67 -64.5 -125t-77 -109.5t-92 -81.5t-100.5 -30q-116 0 -182 91.5t-66 224.5zM293 1157q0 90 60.5 143.5 t154.5 53.5q93 0 151 -64t58 -160q0 -89 -60.5 -153t-160.5 -64q-92 0 -147.5 73t-55.5 171zM422 1139q0 -39 26.5 -71t65.5 -32q47 0 71.5 34.5t24.5 76.5q0 37 -24 66.5t-70 29.5q-48 0 -71 -31t-23 -73z" />
<glyph unicode="&#xe6;" horiz-adv-x="1361" d="M82 319q0 115 33.5 205t86 140t109.5 75t113 25q50 0 120 -23t105 -63q25 51 86 51q16 0 24.5 -14.5t10.5 -33.5t2 -50v-45q51 84 130 141t171 57t148.5 -52.5t56.5 -127.5q0 -47 -19.5 -92.5t-64 -93.5t-130 -88.5t-204.5 -65.5q20 -72 65.5 -116t114.5 -44 q113 0 203 127q2 2 6.5 8.5t6 9t5.5 7.5t6 6.5t6 5t7 4.5t7 2.5t9 1.5q20 0 31.5 -19.5t11.5 -43.5q0 -48 -37.5 -91.5t-91.5 -70.5t-109.5 -43t-96.5 -16q-71 0 -126 23t-89 59.5t-57 91t-33 108t-15 119.5q-55 -184 -151 -290.5t-203 -106.5q-116 0 -182 94.5t-66 228.5z M260 330q0 -27 0.5 -44.5t5.5 -50t14.5 -52t29 -35t46.5 -15.5q55 0 107.5 59t91.5 151t68 208q2 0 -6.5 8.5t-24.5 21t-37 25t-50.5 21t-58.5 8.5q-62 0 -105.5 -47t-62 -114t-18.5 -144zM848 367q52 4 120.5 34t119.5 75t51 85q0 32 -25 53t-61 21q-94 0 -149.5 -78.5 t-55.5 -189.5z" />
<glyph unicode="&#xe7;" horiz-adv-x="765" d="M68 342q0 186 93 301t257 115q87 0 157 -55t70 -154q0 -36 -18 -49t-52 -13q-27 0 -41.5 12.5t-20 29.5t-11.5 34.5t-23.5 30t-48.5 12.5q-83 0 -132.5 -75.5t-49.5 -176.5q0 -131 56.5 -205.5t152.5 -74.5q36 0 71 19t60 46.5t44.5 55t32.5 46.5t17 19q49 0 49 -57 q0 -84 -86.5 -159.5t-189.5 -86.5q-45 -62 -45 -102q0 -15 37.5 -34t83 -37.5t86 -58.5t45.5 -92v-16q0 -73 -92 -136t-203 -63q-16 0 -48 4q-50 7 -76 24t-26 56q0 16 8 26.5t17 10.5q3 0 32 -6t43 -6q66 0 119 29.5t53 76.5q-3 17 -13 31.5t-29 27t-32.5 19.5t-39.5 19 q-54 23 -77.5 44.5t-23.5 55.5q0 60 60 135q-124 28 -195 126.5t-71 250.5z" />
<glyph unicode="&#xe8;" horiz-adv-x="772" d="M72 371q0 117 42.5 213t127.5 155.5t198 59.5q75 0 134 -48t59 -126q0 -94 -51 -179q-77 -131 -303 -239q29 -67 77 -102t107 -35q56 0 111 30t98 88q5 6 13 17t11.5 15.5t11 8.5t17.5 4q21 0 31 -19t10 -44q0 -50 -52.5 -100.5t-133 -81.5t-158.5 -31q-71 0 -130.5 23.5 t-99.5 63.5t-67.5 93.5t-40 112.5t-12.5 121zM133 1255q0 42 29.5 79.5t54.5 37.5q14 0 36 -27t48 -66.5t76 -98t108 -107.5q14 -12 41.5 -34t40.5 -34t13 -16q0 -41 -60 -47q-23 0 -84 27.5t-129.5 69t-121 101.5t-52.5 115zM250 375q0 -30 4 -70q112 43 172.5 120.5 t60.5 156.5q0 10 -4.5 23t-21.5 27.5t-45 14.5q-49 0 -84 -28t-51.5 -73.5t-23.5 -87t-7 -83.5z" />
<glyph unicode="&#xe9;" horiz-adv-x="772" d="M72 371q0 117 42.5 213t127.5 155.5t198 59.5q75 0 134 -48t59 -126q0 -94 -51 -179q-77 -131 -303 -239q29 -67 77 -102t107 -35q56 0 111 30t98 88q5 6 13 17t11.5 15.5t11 8.5t17.5 4q21 0 31 -19t10 -44q0 -50 -52.5 -100.5t-133 -81.5t-158.5 -31q-71 0 -130.5 23.5 t-99.5 63.5t-67.5 93.5t-40 112.5t-12.5 121zM250 375q0 -30 4 -70q112 43 172.5 120.5t60.5 156.5q0 10 -4.5 23t-21.5 27.5t-45 14.5q-49 0 -84 -28t-51.5 -73.5t-23.5 -87t-7 -83.5zM254 1016q0 3 5 8.5t16 15t19.5 16.5t26 21.5t25.5 20.5q70 60 138 135.5t103 114 t52 38.5q21 -4 47.5 -39t26.5 -75q0 -58 -90 -132.5t-185.5 -122.5t-126.5 -48q-57 6 -57 47z" />
<glyph unicode="&#xea;" horiz-adv-x="772" d="M72 371q0 117 42.5 213t127.5 155.5t198 59.5q75 0 134 -48t59 -126q0 -94 -51 -179q-77 -131 -303 -239q29 -67 77 -102t107 -35q56 0 111 30t98 88q5 6 13 17t11.5 15.5t11 8.5t17.5 4q21 0 31 -19t10 -44q0 -50 -52.5 -100.5t-133 -81.5t-158.5 -31q-71 0 -130.5 23.5 t-99.5 63.5t-67.5 93.5t-40 112.5t-12.5 121zM94 1012v8q0 41 54 107.5t125 116.5t114 50q64 0 125 -45q100 -66 150 -135q30 -51 30 -76t-10 -46t-33 -21q-3 0 -14 14q-63 71 -86 92q-82 74 -137 74q-30 0 -69 -35t-70.5 -77.5t-68 -77.5t-63.5 -35q-14 0 -29 22t-18 64z M250 375q0 -30 4 -70q112 43 172.5 120.5t60.5 156.5q0 10 -4.5 23t-21.5 27.5t-45 14.5q-49 0 -84 -28t-51.5 -73.5t-23.5 -87t-7 -83.5z" />
<glyph unicode="&#xeb;" horiz-adv-x="772" d="M72 371q0 117 42.5 213t127.5 155.5t198 59.5q75 0 134 -48t59 -126q0 -94 -51 -179q-77 -131 -303 -239q29 -67 77 -102t107 -35q56 0 111 30t98 88q5 6 13 17t11.5 15.5t11 8.5t17.5 4q21 0 31 -19t10 -44q0 -50 -52.5 -100.5t-133 -81.5t-158.5 -31q-71 0 -130.5 23.5 t-99.5 63.5t-67.5 93.5t-40 112.5t-12.5 121zM106 1087q0 30 38 62.5t77 32.5q71 0 84 -105v-10q0 -39 -37 -58.5t-84 -19.5q-43 0 -60.5 29t-17.5 69zM250 375q0 -30 4 -70q112 43 172.5 120.5t60.5 156.5q0 10 -4.5 23t-21.5 27.5t-45 14.5q-49 0 -84 -28t-51.5 -73.5 t-23.5 -87t-7 -83.5zM483 1122q7 39 48.5 58.5t86.5 19.5q31 0 50.5 -26t19.5 -60q0 -14 -3.5 -29t-13 -33.5t-31 -30t-52.5 -11.5q-51 0 -78 35.5t-27 76.5z" />
<glyph unicode="&#xec;" horiz-adv-x="452" d="M-45 1214q0 42 26.5 80.5t49.5 38.5q15 0 41 -42t80 -121.5t120 -143.5q9 -9 23.5 -22t24 -22l19 -18t14.5 -15t5 -9q0 -43 -55 -49q-16 0 -55 17.5t-89 49.5t-95.5 71t-77 89t-31.5 96zM102 573q0 201 93 201q96 0 104 -53q4 -28 4 -43q0 -11 -3.5 -34t-4.5 -32 q-4 -50 -4 -106q0 -263 39 -387q11 -30 32 -58q9 -15 9 -22q0 -35 -19 -51.5t-47 -16.5q-20 0 -63 19q-48 22 -81.5 134.5t-46 229.5t-12.5 219z" />
<glyph unicode="&#xed;" horiz-adv-x="452" d="M86 1032q0 5 12.5 16t40.5 34t41 34q71 62 139.5 139t103.5 116.5t52 39.5q21 -4 47.5 -40.5t26.5 -76.5q0 -46 -55 -103.5t-126.5 -101.5t-136 -75t-86.5 -31q-59 6 -59 49zM102 573q0 201 93 201q96 0 104 -53q4 -28 4 -43q0 -11 -3.5 -34t-4.5 -32q-4 -50 -4 -106 q0 -263 39 -387q11 -30 32 -58q9 -15 9 -22q0 -35 -19 -51.5t-47 -16.5q-20 0 -63 19q-48 22 -81.5 134.5t-46 229.5t-12.5 219z" />
<glyph unicode="&#xee;" horiz-adv-x="452" d="M-33 1012v8q0 41 51.5 107.5t119 116.5t108.5 50q59 0 121 -45q98 -72 141 -137q31 -48 31 -74q0 -25 -9.5 -46t-31.5 -21q-4 0 -15 14q-4 5 -18.5 23t-20.5 25t-18.5 20t-24.5 24q-82 74 -131 74q-29 0 -66 -35t-67 -77.5t-65.5 -77.5t-61.5 -35q-7 0 -15.5 8t-17 28.5 t-10.5 49.5zM102 573q0 201 93 201q96 0 104 -53q4 -28 4 -43q0 -11 -3.5 -34t-4.5 -32q-4 -50 -4 -106q0 -263 39 -387q11 -30 32 -58q9 -15 9 -22q0 -35 -19 -51.5t-47 -16.5q-20 0 -63 19q-48 22 -81.5 134.5t-46 229.5t-12.5 219z" />
<glyph unicode="&#xef;" horiz-adv-x="452" d="M-68 1116q0 30 36 62t73 32t56 -31t22 -75v-10q0 -39 -35 -58.5t-78 -19.5q-74 0 -74 100zM102 573q0 201 93 201q96 0 104 -53q4 -28 4 -43q0 -11 -3.5 -34t-4.5 -32q-4 -50 -4 -106q0 -263 39 -387q11 -30 32 -58q9 -15 9 -22q0 -35 -19 -51.5t-47 -16.5q-20 0 -63 19 q-48 22 -81.5 134.5t-46 229.5t-12.5 219zM291 1151q5 40 44.5 60t82.5 20q30 0 48.5 -26.5t18.5 -61.5q0 -14 -4 -30t-13 -34.5t-29.5 -30.5t-49.5 -12q-49 0 -73.5 36t-24.5 79z" />
<glyph unicode="&#xf1;" horiz-adv-x="1007" d="M102 414q0 171 31.5 269.5t95.5 98.5q43 0 79 -33t36 -69q0 -10 -8 -29l-3 -9q-3 -8 -13 -36t-25 -74q-6 -19 -13.5 -77t-7.5 -123q0 -67 7 -101q20 49 36.5 84.5t47 96t61.5 104t69.5 87t83 66.5t89.5 23q86 0 127 -121q21 -56 38.5 -163.5t22.5 -128.5q24 -106 64 -156 q4 -4 18 -16.5t21.5 -23t7.5 -22.5q0 -35 -21.5 -51t-52.5 -16q-33 0 -78 20q-107 56 -137 293q-12 81 -38 127.5t-58 46.5q-27 0 -60.5 -34.5t-65 -88t-53 -95t-38.5 -79.5l-15 -34q-7 -18 -13.5 -52.5t-6.5 -52.5q0 -25 -16 -41t-35 -16q-6 0 -17 1t-16 1q-17 2 -56 22 q-36 22 -57 107t-26 155.5t-5 139.5zM154 1053q0 55 64 118t132 70q44 -1 86 -22t67.5 -45.5t53 -45t47.5 -20.5q43 0 84 34.5t70 78.5q12 16 28 16q14 0 27.5 -17.5t13.5 -45.5q0 -91 -71 -155.5t-144 -64.5q-34 0 -68 18.5t-58.5 40t-55.5 40t-59 18.5t-53.5 -17.5 t-40 -39t-28.5 -39t-22 -17.5q-15 0 -44 29t-29 66z" />
<glyph unicode="&#xf2;" horiz-adv-x="772" d="M82 322q0 462 336 462q71 0 125 -29.5t85 -79.5t46.5 -109t15.5 -124q0 -81 -20 -159t-58.5 -145t-104 -108.5t-147.5 -41.5q-119 0 -198.5 97.5t-79.5 236.5zM133 1255q0 42 29.5 79.5t54.5 37.5q14 0 36 -27t48 -66.5t76 -98t108 -107.5q14 -12 41.5 -34t40.5 -34 t13 -16q0 -41 -60 -47q-23 0 -84 27.5t-129.5 69t-121 101.5t-52.5 115zM248 338q0 -87 32 -140t93 -53q50 0 88 29.5t58.5 77.5t30 99.5t9.5 103.5q0 69 -34 122.5t-93 53.5q-48 0 -83.5 -20t-54 -48.5t-29.5 -71t-14 -76.5t-3 -77z" />
<glyph unicode="&#xf3;" horiz-adv-x="772" d="M82 322q0 462 336 462q71 0 125 -29.5t85 -79.5t46.5 -109t15.5 -124q0 -81 -20 -159t-58.5 -145t-104 -108.5t-147.5 -41.5q-119 0 -198.5 97.5t-79.5 236.5zM248 338q0 -87 32 -140t93 -53q50 0 88 29.5t58.5 77.5t30 99.5t9.5 103.5q0 69 -34 122.5t-93 53.5 q-48 0 -83.5 -20t-54 -48.5t-29.5 -71t-14 -76.5t-3 -77zM254 1012q0 5 12.5 16t40.5 34t41 34q70 62 138 139t103 116.5t52 39.5q21 -4 47.5 -40.5t26.5 -76.5q0 -46 -55 -103.5t-125.5 -101.5t-135 -75t-86.5 -31q-59 6 -59 49z" />
<glyph unicode="&#xf4;" horiz-adv-x="772" d="M82 322q0 462 336 462q71 0 125 -29.5t85 -79.5t46.5 -109t15.5 -124q0 -81 -20 -159t-58.5 -145t-104 -108.5t-147.5 -41.5q-119 0 -198.5 97.5t-79.5 236.5zM111 1016v8q0 41 54 107.5t124.5 116.5t113.5 50q64 0 125 -45q100 -66 150 -135q31 -52 31 -76 q0 -25 -10 -46t-33 -21q-4 0 -15 14q-63 71 -86 92q-82 74 -137 74q-25 0 -54.5 -23t-57 -56.5t-54.5 -66.5t-54.5 -56t-49.5 -23q-14 0 -29 22t-18 64zM248 338q0 -87 32 -140t93 -53q50 0 88 29.5t58.5 77.5t30 99.5t9.5 103.5q0 69 -34 122.5t-93 53.5q-48 0 -83.5 -20 t-54 -48.5t-29.5 -71t-14 -76.5t-3 -77z" />
<glyph unicode="&#xf5;" horiz-adv-x="772" d="M82 322q0 462 336 462q71 0 125 -29.5t85 -79.5t46.5 -109t15.5 -124q0 -81 -20 -159t-58.5 -145t-104 -108.5t-147.5 -41.5q-119 0 -198.5 97.5t-79.5 236.5zM125 1053q0 55 56.5 118t115.5 70q38 -1 74 -22t58 -45.5t46 -45t41 -20.5q37 0 72 34t61 79q12 16 25 16 q12 0 23.5 -17.5t11.5 -45.5q0 -91 -61 -155.5t-124 -64.5q-29 0 -59.5 18.5t-51.5 40t-48 40t-52 18.5q-31 0 -58 -28.5t-43.5 -56.5t-23.5 -28q-6 0 -20.5 11t-28.5 34.5t-14 49.5zM248 338q0 -87 32 -140t93 -53q50 0 88 29.5t58.5 77.5t30 99.5t9.5 103.5 q0 69 -34 122.5t-93 53.5q-48 0 -83.5 -20t-54 -48.5t-29.5 -71t-14 -76.5t-3 -77z" />
<glyph unicode="&#xf6;" horiz-adv-x="772" d="M82 322q0 462 336 462q71 0 125 -29.5t85 -79.5t46.5 -109t15.5 -124q0 -81 -20 -159t-58.5 -145t-104 -108.5t-147.5 -41.5q-119 0 -198.5 97.5t-79.5 236.5zM98 1092q0 30 38 62t77 32q71 0 84 -105v-10q0 -39 -37 -58.5t-84 -19.5q-43 0 -60.5 29.5t-17.5 69.5z M248 338q0 -87 32 -140t93 -53q50 0 88 29.5t58.5 77.5t30 99.5t9.5 103.5q0 69 -34 122.5t-93 53.5q-48 0 -83.5 -20t-54 -48.5t-29.5 -71t-14 -76.5t-3 -77zM475 1126q7 39 48.5 58.5t86.5 19.5q31 0 50.5 -26t19.5 -60q0 -14 -3.5 -29t-13 -33.5t-31 -30t-52.5 -11.5 q-51 0 -78 35.5t-27 76.5z" />
<glyph unicode="&#xf7;" horiz-adv-x="1191" d="M123 487q0 48 19 68t96 39q199 49 677 49q20 0 41 -2t52.5 -9t51 -25t19.5 -44q0 -12 -20 -21t-68 -16.5t-97.5 -13t-140 -16t-163.5 -19.5q-102 -14 -205.5 -31.5t-157.5 -27.5t-65 -10q-18 4 -28.5 29.5t-10.5 49.5zM428 930v10q0 38 32 56t70 18q39 0 72 -27.5 t33 -71.5q0 -41 -27 -77.5t-63 -36.5q-103 0 -117 129zM498 225q0 45 40 67.5t89 22.5q31 0 53 -35t22 -77q0 -111 -96 -111q-51 0 -79.5 42.5t-28.5 90.5z" />
<glyph unicode="&#xf8;" horiz-adv-x="829" d="M84 367q0 97 34.5 181t110.5 145t183 75q2 25 2 74v100q0 32 1.5 47.5t9 32t24 23t45.5 6.5q94 0 94 -158q0 -44 -13 -133q105 -32 154 -156q18 -49 25 -123q0 -73 -18.5 -151t-53.5 -152.5t-97 -130t-139 -72.5q-49 -211 -88 -211q-30 0 -42.5 8t-16.5 38q0 2 2 11.5 t5 25.5t5 30q1 13 7 46.5t8 49.5q-80 15 -136.5 79.5t-81 146t-24.5 168.5zM252 326q0 -6 1 -17t1 -16q3 -63 28 -112t66 -72q46 338 58 524q-56 -17 -92.5 -72.5t-49 -114t-12.5 -120.5zM473 109q51 26 87 92.5t50.5 133.5t14.5 124q0 110 -72 157q-36 -277 -80 -507z" />
<glyph unicode="&#xf9;" horiz-adv-x="976" d="M86 498q0 44 4 77t15.5 67.5t36 57.5t61.5 33q27 8 47 8q45 0 45 -75q0 -54 -12.5 -151t-12.5 -144q0 -48 9.5 -91.5t35.5 -77.5t64 -34q108 0 254 420q10 77 28.5 100t51.5 23q20 0 33 -1.5t33 -8.5t31 -25t11 -47v-60q0 -171 13 -266q16 -123 55 -205q16 -36 16 -47 q0 -27 -20.5 -45t-46.5 -18q-21 0 -29 8q-63 41 -105.5 142.5t-48.5 258.5q-73 -214 -149.5 -307.5t-175.5 -93.5q-214 0 -242 401q-2 25 -2 101zM195 1255q0 42 29.5 79.5t54.5 37.5q14 0 36 -27t48 -66.5t76 -98t108 -107.5q13 -11 41 -34t40.5 -34t12.5 -16 q0 -41 -59 -47q-23 0 -84 27.5t-129.5 69t-121 101.5t-52.5 115z" />
<glyph unicode="&#xfa;" horiz-adv-x="976" d="M86 498q0 44 4 77t15.5 67.5t36 57.5t61.5 33q27 8 47 8q45 0 45 -75q0 -54 -12.5 -151t-12.5 -144q0 -48 9.5 -91.5t35.5 -77.5t64 -34q108 0 254 420q10 77 28.5 100t51.5 23q20 0 33 -1.5t33 -8.5t31 -25t11 -47v-60q0 -171 13 -266q16 -123 55 -205q16 -36 16 -47 q0 -27 -20.5 -45t-46.5 -18q-21 0 -29 8q-63 41 -105.5 142.5t-48.5 258.5q-73 -214 -149.5 -307.5t-175.5 -93.5q-214 0 -242 401q-2 25 -2 101zM391 1012q0 4 13.5 16t40 32t42.5 34q58 47 113 104t86 94t57.5 62.5t40.5 25.5q21 -4 47.5 -39t26.5 -75q0 -58 -91 -132 t-187 -121.5t-127 -47.5q-62 6 -62 47z" />
<glyph unicode="&#xfb;" horiz-adv-x="976" d="M86 498q0 44 4 77t15.5 67.5t36 57.5t61.5 33q27 8 47 8q45 0 45 -75q0 -54 -12.5 -151t-12.5 -144q0 -48 9.5 -91.5t35.5 -77.5t64 -34q108 0 254 420q10 77 28.5 100t51.5 23q20 0 33 -1.5t33 -8.5t31 -25t11 -47v-60q0 -171 13 -266q16 -123 55 -205q16 -36 16 -47 q0 -27 -20.5 -45t-46.5 -18q-21 0 -29 8q-63 41 -105.5 142.5t-48.5 258.5q-73 -214 -149.5 -307.5t-175.5 -93.5q-214 0 -242 401q-2 25 -2 101zM193 1016v8q0 41 54 107.5t124.5 116.5t113.5 50q64 0 125 -45q100 -66 150 -135q31 -52 31 -76q0 -25 -10 -46t-33 -21 q-4 0 -15 14q-63 71 -86 92q-82 74 -137 74q-25 0 -54.5 -23t-57 -56.5t-54.5 -66.5t-54.5 -56t-49.5 -23q-14 0 -29 22t-18 64z" />
<glyph unicode="&#xfc;" horiz-adv-x="976" d="M86 498q0 44 4 77t15.5 67.5t36 57.5t61.5 33q27 8 47 8q45 0 45 -75q0 -54 -12.5 -151t-12.5 -144q0 -48 9.5 -91.5t35.5 -77.5t64 -34q108 0 254 420q10 77 28.5 100t51.5 23q20 0 33 -1.5t33 -8.5t31 -25t11 -47v-60q0 -171 13 -266q16 -123 55 -205q16 -36 16 -47 q0 -27 -20.5 -45t-46.5 -18q-21 0 -29 8q-63 41 -105.5 142.5t-48.5 258.5q-73 -214 -149.5 -307.5t-175.5 -93.5q-214 0 -242 401q-2 25 -2 101zM180 1094q0 30 38.5 62t80.5 32q73 0 86 -107v-10q0 -39 -38.5 -58.5t-86.5 -19.5q-80 0 -80 101zM571 1128q7 40 51 60t91 20 q32 0 52.5 -26.5t20.5 -61.5q0 -15 -4 -30.5t-14 -34t-33 -30t-55 -11.5q-52 0 -80.5 36.5t-28.5 77.5z" />
<glyph unicode="&#xfd;" horiz-adv-x="901" d="M68 553q0 184 137 184q15 0 25.5 -5.5t16 -12.5t8 -22.5t3 -25.5t0.5 -32q0 -27 -3 -82t-3 -90q0 -53 13.5 -105t42 -89t65.5 -37q49 0 121.5 112.5t103.5 253.5q0 5 -1 17t-1 18q0 54 41 90.5t90 36.5q43 0 57 -168q17 -232 17 -490q0 -140 -13 -290 q-16 -175 -69.5 -267t-161.5 -92q-28 0 -70 11t-87 31.5t-76 56.5t-31 79q0 33 18.5 49.5t48.5 16.5q3 0 28.5 -23t68 -46t88.5 -23q26 0 45 24t29.5 57.5t17 79t8.5 79.5t2 67q0 292 -24 496q-49 -140 -128 -227t-167 -87q-56 0 -102 34.5t-74.5 86t-48 115.5t-27.5 119 t-8 100zM332 1016q0 3 5 8.5t16 14.5t21 17.5t26 21t26 20.5q71 60 138 135.5t101.5 114t51.5 38.5q20 -4 45.5 -39t25.5 -75q0 -44 -54 -100t-124 -99.5t-133.5 -73.5t-85.5 -30q-59 6 -59 47z" />
<glyph unicode="&#xff;" horiz-adv-x="901" d="M68 553q0 184 137 184q15 0 25.5 -5.5t16 -12.5t8 -22.5t3 -25.5t0.5 -32q0 -27 -3 -82t-3 -90q0 -53 13.5 -105t42 -89t65.5 -37q49 0 121.5 112.5t103.5 253.5q0 5 -1 17t-1 18q0 54 41 90.5t90 36.5q43 0 57 -168q17 -232 17 -490q0 -140 -13 -290 q-16 -175 -69.5 -267t-161.5 -92q-28 0 -70 11t-87 31.5t-76 56.5t-31 79q0 33 18.5 49.5t48.5 16.5q3 0 28.5 -23t68 -46t88.5 -23q26 0 45 24t29.5 57.5t17 79t8.5 79.5t2 67q0 292 -24 496q-49 -140 -128 -227t-167 -87q-56 0 -102 34.5t-74.5 86t-48 115.5t-27.5 119 t-8 100zM129 1130q0 30 38 62.5t77 32.5q71 0 84 -105v-10q0 -39 -37 -58.5t-84 -19.5q-43 0 -60.5 29t-17.5 69zM506 1165q7 39 48.5 58.5t86.5 19.5q31 0 50.5 -26t19.5 -60q0 -14 -4 -29t-13.5 -33.5t-31 -30t-52.5 -11.5q-51 0 -77.5 35t-26.5 77z" />
<glyph unicode="&#x152;" horiz-adv-x="1705" d="M94 647v43q0 113 15.5 217t51 200t88 166t132 112t178.5 42q208 0 336 -223q21 98 49.5 154.5t59.5 56.5q9 0 21 -1t27 -4.5t25 -11t10 -18.5q-1 -6 -10 -55q88 29 170 47q90 21 178 21q35 0 59.5 -2.5t55.5 -10t47.5 -27.5t16.5 -50q0 -42 -10 -78t-27 -37 q-37 12 -152 12q-76 0 -205 -14q-71 -10 -161 -37q-36 -263 -48 -469q9 4 60 29.5t66.5 32.5t59 25t69 24.5t63 13t72.5 6.5q84 0 124.5 -20.5t40.5 -88.5q0 -36 -8 -47.5t-30 -11.5q-13 0 -48.5 4t-62.5 4q-90 0 -184.5 -22t-229.5 -82v-15q-4 -110 -4 -163q0 -149 21 -232 q251 78 524 78q12 0 33 -1t32 -1q22 0 39 -13t17 -46v-9q-2 -43 -25 -79.5t-53 -36.5q-15 0 -55 4.5t-58 5.5h-67q-179 0 -348 -27q-22 -4 -47 -10t-40.5 -9t-29.5 -3q-53 3 -74 237q-133 -235 -352 -247q-102 0 -182 59.5t-128 157.5t-73.5 212.5t-28.5 237.5zM285 653 q4 -57 11 -110.5t20 -115t34 -111.5t49 -92t68.5 -65.5t89.5 -23.5q90 0 154 84t98 227q37 158 37 338q0 52 -6 105q-34 383 -265 383q-45 -1 -85.5 -17.5t-78.5 -56.5t-65.5 -100t-44 -153.5t-16.5 -211.5v-80z" />
<glyph unicode="&#x153;" horiz-adv-x="1220" d="M72 356v13q0 64 11.5 123.5t38.5 114.5t66 95.5t98 64.5t132 24q173 0 237 -156q47 68 115 108.5t152 40.5q94 0 155.5 -51.5t61.5 -124.5q0 -273 -428 -356q21 -77 71 -117.5t117 -40.5q118 0 203 119q2 2 6.5 8.5t6 9t5.5 7.5t6 6.5t6 5t7 4.5t7 2.5t9 1.5 q20 0 31.5 -19.5t11.5 -43.5q0 -48 -37.5 -90.5t-92 -68t-110 -40t-96.5 -14.5q-213 0 -272 180q-49 -80 -118.5 -127t-154.5 -47q-113 0 -178 109.5t-67 258.5zM246 328q0 -89 32.5 -147t96.5 -58q49 0 87 35t59.5 89t32.5 111t11 109q0 70 -33.5 123t-93.5 53 q-192 0 -192 -315zM698 348q49 3 118 33.5t125 81.5t56 100q0 31 -27.5 51.5t-64.5 20.5q-51 0 -92.5 -28t-65.5 -70t-36.5 -86t-12.5 -82v-21z" />
<glyph unicode="&#x178;" horiz-adv-x="940" d="M10 1268q0 57 43 86.5t109 29.5q39 0 41 -12q4 -52 69.5 -223.5t128.5 -269.5l117 -183q122 384 270 635q24 43 53 63.5t79 20.5q33 0 72.5 -25t39.5 -57q0 -5 -3.5 -9.5t-11 -12.5t-9.5 -11q-113 -133 -239 -416.5t-198 -568.5q-50 -196 -61 -301q-10 -103 -27 -123 q-13 -16 -32 -16q-29 0 -57.5 28.5t-28.5 65.5v31q7 184 102 526q-58 57 -157.5 194.5t-205.5 313.5q-6 11 -24.5 42t-27 46.5t-20.5 42.5t-17 52t-5 51zM195 1724q0 32 40.5 66.5t83.5 34.5q78 0 91 -113v-12q0 -42 -40 -62t-89 -20q-47 0 -66.5 31t-19.5 75zM606 1761 q7 41 53.5 62.5t94.5 21.5q34 0 54.5 -28.5t20.5 -65.5q0 -11 -2 -23.5t-9 -29.5t-18.5 -29.5t-32.5 -21.5t-48 -9q-55 0 -84 39t-29 84z" />
<glyph unicode="&#x2c6;" horiz-adv-x="901" d="M113 989v8q0 45 61 118t141 128t129 55q71 0 142 -49q116 -77 168 -149q34 -55 34 -82q0 -28 -10.5 -51t-36.5 -23q-5 0 -16 14q-72 81 -98 103q-91 80 -154 80q-34 0 -78 -38.5t-80 -84.5t-77.5 -84.5t-71.5 -38.5q-15 0 -32 23.5t-21 70.5z" />
<glyph unicode="&#x2dc;" horiz-adv-x="915" d="M113 1073q0 58 66.5 125t135.5 76q45 -1 87.5 -23t69 -48t55 -48t48.5 -22q42 0 84.5 36t73.5 82q13 17 29 17q14 0 27.5 -18t13.5 -48q0 -96 -72 -163.5t-147 -67.5q-34 0 -69.5 19t-60.5 42.5t-57.5 42.5t-60.5 19q-37 0 -68 -30t-51 -59.5t-29 -29.5q-15 0 -45 30 t-30 68z" />
<glyph unicode="&#x2000;" horiz-adv-x="1031" />
<glyph unicode="&#x2001;" horiz-adv-x="2062" />
<glyph unicode="&#x2002;" horiz-adv-x="1031" />
<glyph unicode="&#x2003;" horiz-adv-x="2062" />
<glyph unicode="&#x2004;" horiz-adv-x="687" />
<glyph unicode="&#x2005;" horiz-adv-x="515" />
<glyph unicode="&#x2006;" horiz-adv-x="343" />
<glyph unicode="&#x2007;" horiz-adv-x="343" />
<glyph unicode="&#x2008;" horiz-adv-x="257" />
<glyph unicode="&#x2009;" horiz-adv-x="412" />
<glyph unicode="&#x200a;" horiz-adv-x="114" />
<glyph unicode="&#x2010;" horiz-adv-x="1189" d="M135 418q0 36 8.5 59.5t23 37.5t42 22.5t57 13t76.5 9.5q8 1 12 1q167 19 363 19q234 0 286 -12t52 -68q0 -15 -9.5 -29t-29.5 -14q-75 0 -191 -11t-274 -30t-191 -23t-94 -25.5t-82 -21.5q-49 0 -49 72z" />
<glyph unicode="&#x2011;" horiz-adv-x="1189" d="M135 418q0 36 8.5 59.5t23 37.5t42 22.5t57 13t76.5 9.5q8 1 12 1q167 19 363 19q234 0 286 -12t52 -68q0 -15 -9.5 -29t-29.5 -14q-75 0 -191 -11t-274 -30t-191 -23t-94 -25.5t-82 -21.5q-49 0 -49 72z" />
<glyph unicode="&#x2012;" horiz-adv-x="1189" d="M135 418q0 36 8.5 59.5t23 37.5t42 22.5t57 13t76.5 9.5q8 1 12 1q167 19 363 19q234 0 286 -12t52 -68q0 -15 -9.5 -29t-29.5 -14q-75 0 -191 -11t-274 -30t-191 -23t-94 -25.5t-82 -21.5q-49 0 -49 72z" />
<glyph unicode="&#x2013;" horiz-adv-x="1316" d="M135 461q0 127 477 127q105 0 252 -6q199 -5 254 -11q21 -3 31.5 -5t21.5 -11.5t11 -24.5q0 -22 -2 -28q-4 -17 -41 -29.5t-104.5 -20t-120.5 -11t-135 -7t-101 -4.5q-116 -8 -231.5 -25t-182.5 -30t-80 -13q-23 0 -36 29t-13 70z" />
<glyph unicode="&#x2014;" horiz-adv-x="1718" d="M135 461q0 56 160 86q102 19 239.5 28.5t228.5 11t251 1.5q105 0 252 -6q199 -5 254 -11q16 -2 24 -3.5t18.5 -6t15.5 -12t5 -19.5q0 -8 -8 -32q-4 -8 -27.5 -15.5t-65.5 -13.5t-83 -10.5t-101.5 -9t-97.5 -6.5t-94.5 -5t-71.5 -4q-610 -40 -661 -49q-39 -6 -86 -14.5 t-70.5 -12.5t-32.5 -4q-23 0 -36 32.5t-13 74.5z" />
<glyph unicode="&#x2018;" horiz-adv-x="487" d="M147 1149q0 72 15.5 144.5t50 126t78.5 53.5l8 -5q13 -1 21 -3t13.5 -7.5t7.5 -9.5t7.5 -16.5t9.5 -20.5q-41 -84 -41 -207q0 -39 2 -55q6 -41 11.5 -65t8 -29t4 -18.5t1.5 -43.5q0 -27 -21 -44t-65 -17q-59 0 -85 60.5t-26 156.5z" />
<glyph unicode="&#x2019;" horiz-adv-x="514" d="M135 977v8q60 96 60 195v16q-2 76 -16.5 130.5t-14.5 64.5q0 26 19 58t55 32q51 0 88.5 -40t40.5 -128v-17q0 -71 -19 -153t-57.5 -146.5t-85.5 -64.5h-10q-17 3 -27.5 6t-21.5 13t-11 26z" />
<glyph unicode="&#x201a;" horiz-adv-x="514" d="M135 -244q60 96 60 195v16q-2 76 -16.5 130.5t-14.5 64.5q0 26 19 58t55 32q51 0 88.5 -40t40.5 -128v-16q0 -71 -19 -153.5t-57.5 -147t-85.5 -64.5h-10q-17 3 -27.5 6t-21.5 13t-11 26v8z" />
<glyph unicode="&#x201c;" horiz-adv-x="802" d="M143 1147q0 75 19 151.5t57 131.5t84 55h21q20 0 30.5 -22.5t10.5 -55.5q-39 -80 -39 -215q0 -105 13 -141t13 -74q0 -23 -27 -37t-73 -14q-56 0 -82.5 64t-26.5 157zM457 1188q0 71 17.5 141t52 119t77.5 49h21q20 -2 32.5 -20.5t12.5 -49.5q-41 -78 -41 -174v-10 q0 -69 10.5 -120t21.5 -79.5t11 -42.5q0 -26 -21.5 -45.5t-68.5 -19.5q-54 0 -89.5 64t-35.5 188z" />
<glyph unicode="&#x201d;" horiz-adv-x="823" d="M123 1001q65 106 65 185v24q-5 77 -20.5 139.5t-15.5 71.5q0 23 24.5 52.5t61.5 29.5q50 0 85.5 -40t41.5 -128v-32q0 -82 -19 -161t-61.5 -137.5t-98.5 -58.5q-59 9 -61 47q0 1 -1 4t-1 4zM436 969v12q64 116 64 229q0 51 -14.5 103.5t-16.5 79.5v10q0 28 25 50t63 22 q56 0 88 -41t35 -107v-29q0 -82 -21 -166.5t-65.5 -147t-101.5 -62.5q-54 9 -56 47z" />
<glyph unicode="&#x201e;" horiz-adv-x="823" d="M123 -227q65 106 65 184v25q-5 77 -20.5 139.5t-15.5 71.5q0 23 24.5 52t61.5 29q50 0 85.5 -40t41.5 -128v-32q0 -82 -19 -161t-61.5 -137.5t-98.5 -58.5q-59 9 -61 47q0 1 -1 4.5t-1 4.5zM436 -248q64 116 64 230q0 51 -14.5 103t-16.5 79v10q0 28 25 50t63 22 q56 0 88 -41t35 -107v-28q0 -82 -21 -166.5t-65.5 -147.5t-101.5 -63q-54 9 -56 47v12z" />
<glyph unicode="&#x2022;" horiz-adv-x="442" d="M92 504v12q2 41 36.5 80t78.5 39q58 0 100.5 -28.5t42.5 -90.5q0 -57 -39 -112.5t-96 -55.5q-54 0 -88.5 38.5t-34.5 117.5z" />
<glyph unicode="&#x2026;" horiz-adv-x="1576" d="M158 106q0 45 40 68t89 23q31 0 49 -30.5t18 -72.5q0 -123 -94 -123q-50 0 -76 42.5t-26 92.5zM707 63q0 27 4 41q4 15 10 28.5t17 31t29 28.5t40 11q7 0 27 -4q37 -10 54 -41.5t17 -71.5q0 -24 -6 -45q-16 -59 -98 -59q-27 0 -51 6q-43 11 -43 75zM1223 86q0 47 42 79 t87 32q31 0 49 -30.5t18 -72.5q0 -123 -94 -123q-51 0 -76.5 34t-25.5 81z" />
<glyph unicode="&#x202f;" horiz-adv-x="412" />
<glyph unicode="&#x2039;" horiz-adv-x="718" d="M143 412q4 68 75 172t158 181t134 77q56 0 81 -20.5t25 -43.5q-2 -36 -31.5 -77.5t-70 -79.5t-80.5 -76t-68 -81.5t-28 -82.5q0 -116 229 -340l5.5 -5.5l4.5 -4.5l3.5 -3.5t3 -3.5t2 -3t1.5 -3.5t0.5 -3.5t0.5 -4q0 -24 -23.5 -40.5t-66.5 -16.5q-44 0 -146.5 109.5 t-144.5 175.5q-31 48 -47.5 87.5t-16.5 86.5z" />
<glyph unicode="&#x203a;" horiz-adv-x="735" d="M135 6q0 14 19 31q100 92 174.5 187t74.5 161q0 42 -42 98t-92 102.5t-92 99.5t-42 89q0 22 27.5 43t83.5 21q51 0 134.5 -75t147.5 -177t64 -170q0 -81 -66 -178q-43 -64 -152 -174.5t-153 -110.5q-28 0 -57 14t-29 39z" />
<glyph unicode="&#x205f;" horiz-adv-x="515" />
<glyph unicode="&#x20ac;" horiz-adv-x="1247" d="M125 319q0 84 51 95q55 12 160 30q-4 31 -4 93v49q-30 -5 -83 -25t-69 -22q-53 0 -53 59q0 18 2.5 32.5t10 26t13.5 19.5t22 15t25.5 11t34 8.5t37.5 7t45 7.5l31 4q41 240 173.5 388.5t320.5 148.5q64 0 128.5 -18t114.5 -59.5t50 -98.5q0 -32 -27.5 -62.5t-60.5 -30.5 q-17 0 -36.5 17.5t-36.5 39t-45.5 39t-60.5 17.5q-137 0 -222 -96t-120 -258q207 24 394 24q124 0 129 -67q0 -27 -37 -27q-236 -5 -504 -63q-2 -29 -2 -86q0 -45 2 -70q305 35 461 35h28q34 0 59 -15.5t25 -44.5q0 -25 -67 -34q-10 -1 -91.5 -10.5t-124 -15t-121.5 -18.5 t-149 -28q15 -62 39 -112.5t60 -93t89.5 -66t119.5 -23.5q29 0 43 2q48 5 108 51q12 9 31 34.5t33 25.5q28 0 43.5 -20.5t15.5 -35.5q0 -13 -8 -37q-14 -34 -50 -62t-79 -44.5t-84.5 -25.5t-71.5 -9q-183 0 -297.5 102t-159.5 275q-46 -12 -88.5 -25t-60 -18t-29.5 -6 q-24 0 -40.5 20t-16.5 51z" />
<glyph unicode="&#x2122;" horiz-adv-x="1542" d="M63 1333q0 42 43 53q162 64 345 97q3 0 8 1t8 1q164 28 252 28q17 0 32 -11t15 -38q0 -28 -16.5 -56t-40.5 -28q-15 0 -25 0.5t-13.5 1t-4.5 0.5q-151 0 -363 -39q-30 -6 -82 -24q-86 -28 -123 -31q-16 0 -24.5 8.5t-9.5 16t-1 20.5zM350 1204q0 25 2.5 43.5t9.5 39 t23.5 31.5t42.5 11q70 0 78 -35q0 -40 -12 -118q-13 -80 -13 -107q0 -48 17 -231q0 -13 4 -41q0 -28 -9.5 -34.5t-35.5 -6.5q-39 0 -64.5 80.5t-34 175t-8.5 192.5zM698 856q0 61 40 226.5t71 269.5q24 85 43.5 118t56.5 33q23 0 41.5 -19.5t20.5 -39.5q-2 -4 -2 -14 q0 -64 32.5 -194t59.5 -146q17 20 52.5 105.5t53.5 141.5q20 62 40 85.5t44 23.5q17 0 28 -3.5t16.5 -11t7.5 -14t4 -18.5l6 -23v-45q0 -81 16.5 -198.5t36.5 -204.5q7 -35 27 -76q10 -20 10 -27q0 -21 -21.5 -35t-54.5 -14q-29 0 -51.5 53t-36 135t-20 145.5t-9.5 119.5 q-2 -4 -30 -86q-11 -33 -17.5 -52t-19.5 -47t-25.5 -43t-31 -26.5t-39.5 -11.5q-25 0 -50.5 23.5t-46.5 62.5t-36.5 74t-28.5 73q0 -1 -0.5 -3l-2.5 -10l-5 -20q-36 -212 -52 -327q-1 -18 -2.5 -27t-6 -20t-15 -15t-27.5 -4q-76 0 -76 86z" />
<glyph unicode="&#x25fc;" horiz-adv-x="778" d="M0 0v778h778v-778h-778z" />
<glyph unicode="&#xfb01;" horiz-adv-x="1138" d="M10 537q0 40 8.5 51.5t26.5 11.5q9 0 25 -4q61 -10 141 -10h18q-2 51 -2 157q0 123 7 221.5t26.5 191.5t51.5 154.5t83.5 98.5t120.5 37q57 0 103.5 -16t99.5 -58q33 -26 33 -78q0 -35 -17.5 -62.5t-44.5 -27.5q-20 0 -51 31q-53 53 -98 53q-67 0 -107.5 -99.5 t-40.5 -270.5q0 -154 6 -326q105 6 183 24q16 3 50.5 10.5t60 13t32.5 5.5q16 0 16 -20q0 -17 -9.5 -38.5t-18.5 -27.5q-91 -60 -314 -104q5 -138 14 -250t15 -165.5t6 -62.5q0 -30 -22 -43.5t-52 -13.5q-33 0 -49.5 28.5t-31.5 86.5q-17 66 -37 397q-67 -6 -105 -6 q-62 0 -94.5 23.5t-32.5 87.5zM791 621q0 43 6.5 66t29.5 46q37 37 95 37q39 0 54 -20t15 -60q0 -4 -2.5 -17t-6 -31t-5.5 -30q-8 -102 -8 -157q0 -188 47 -336q10 -28 33 -58q8 -13 8 -22q0 -36 -19.5 -54t-46.5 -18q-93 0 -135 129q-41 122 -53 243.5t-12 281.5zM872 1098 q0 35 23 70.5t61 35.5t73.5 -31t35.5 -67v-23q0 -32 -35.5 -59t-73.5 -27q-39 0 -61.5 32t-22.5 69z" />
<glyph unicode="&#xfb02;" horiz-adv-x="1146" d="M12 598q0 42 8.5 54t28.5 12q4 0 29 -5q105 -16 129 -18v92q0 123 7.5 217.5t26.5 181t51 142.5t83.5 88.5t120.5 32.5q57 0 103 -16t99 -58q33 -26 33 -78q0 -35 -17 -62.5t-44 -27.5q-21 0 -52 31q-53 53 -98 53q-67 0 -107 -99.5t-40 -271.5q0 -145 2 -227 q103 12 190 31q18 4 48.5 13t53.5 15.5t31 6.5q17 0 17 -21q0 -20 -10.5 -46.5t-20.5 -27.5q-114 -73 -303 -102q6 -114 14 -240t12.5 -195t4.5 -75q0 -30 -14.5 -41.5t-43.5 -11.5q-23 0 -38.5 7t-25 24t-15 33t-11.5 44q-23 113 -47 436h-47q-34 0 -58.5 3.5t-49 14 t-37.5 33.5t-13 58zM803 713q0 169 14 346q3 47 8 81.5t17 72.5t35.5 58.5t56.5 20.5q43 0 73 -12.5t31 -34.5q0 -20 -2 -24q-61 -347 -61 -621q0 -122 3.5 -197.5t22.5 -171.5t56 -163q18 -36 18 -56q-1 -23 -25 -36t-57 -13q-27 0 -51.5 20t-38.5 50q-55 115 -77.5 308 t-22.5 372z" />
</font>
</defs>
</svg>
