<?xml version="1.0" standalone="no"?>
<!DOCTYPE svg PUBLIC "-//W3C//DTD SVG 1.1//EN" "http://www.w3.org/Graphics/SVG/1.1/DTD/svg11.dtd" >
<svg xmlns="http://www.w3.org/2000/svg" xmlns:xlink="http://www.w3.org/1999/xlink" version="1.1">
<metadata>
Created by FontForge 20161013 at Sun Feb 21 15:30:45 2010
 By ,,,
Copyright (c) 2009 by Hannes von Doehren. All rights reserved.
</metadata>
<defs>
<font id="BrandonGrotesque-LightItalic" horiz-adv-x="451" >
  <font-face 
    font-family="Brandon Grotesque Light"
    font-weight="330"
    font-style="italic"
    font-stretch="normal"
    units-per-em="1000"
    panose-1="2 11 3 3 2 2 3 13 2 2"
    ascent="700"
    descent="-300"
    x-height="400"
    cap-height="700"
    bbox="-195 -346.5 927 1026.4"
    underline-thickness="50"
    underline-position="-200"
    slope="-8"
    unicode-range="U+0020-FB02"
  />
<missing-glyph horiz-adv-x="599" 
d="M50 30v640q0 30 30 30h439q30 0 30 -30v-640q0 -30 -30 -30h-439q-30 0 -30 30zM262 314q0 -12 14 -12h36q15 0 15 13v26q0 16 16.5 32t36 28.5t36 36.5t16.5 53q0 48 -35.5 79.5t-89.5 31.5q-24 0 -46.5 -6.5t-37 -15t-25.5 -17.5t-16 -15l-5 -7q-8 -12 0 -18l22 -22
q8 -6 17 0q1 1 7.5 7t9.5 9t11.5 8.5t15.5 8.5t18 5.5t22 2.5q29 0 45 -15t16 -37q0 -21 -15.5 -39t-34 -30t-34 -32.5t-15.5 -45.5v-29zM245 156q0 -20 14.5 -34t33.5 -14q20 0 34.5 14t14.5 34t-14.5 34t-34.5 14q-19 0 -33.5 -14t-14.5 -34z" />
    <glyph glyph-name="fi" unicode="fi" horiz-adv-x="479" 
d="M18 -287l91 648h-58q-13 0 -11 15l2 11q2 13 14 13h58l19 133q12 84 61 130.5t111 46.5q76 0 124 -54q6 -6 -1 -15l-13 -16q-7 -8 -16 -1q-51 45 -94 45q-47 0 -83.5 -35t-45.5 -101l-19 -133h252q13 0 11 -13l-53 -374q-2 -13 -15 -13h-18q-5 0 -8.5 4t-2.5 9l49 348
h-221l-91 -648q-2 -13 -14 -13h-17q-13 0 -11 13z" />
    <glyph glyph-name="fl" unicode="fl" horiz-adv-x="482" 
d="M18 -287l91 648h-59q-13 0 -11 13l2 13q2 13 14 13h59l19 138q11 84 60 128t111 44q30 0 57.5 -12t40 -23t18.5 -19l9 32q5 12 18 12h7q13 0 11 -13l-95 -674q-2 -13 -15 -13h-18q-5 0 -8 4t-2 9l83 592q-41 62 -106 62q-46 0 -82.5 -32.5t-45.5 -96.5l-19 -138h126
q13 0 11 -12l-2 -15q-2 -12 -14 -12h-127l-91 -648q-2 -13 -14 -13h-18q-12 0 -10 13z" />
    <glyph glyph-name="f_f" unicode="ff" horiz-adv-x="535" 
d="M17 -287l91 648h-55q-11 0 -11 13l2 13q2 13 15 13h55l16 113q13 94 63.5 140.5t120.5 46.5q66 0 109 -46q43 56 113 56q31 0 57 -13.5t38 -29.5q6 -9 -1 -16l-12 -12q-8 -9 -17 0q-31 31 -65 31q-45 0 -76.5 -33t-40.5 -100l-19 -137h128q13 0 11 -12l-2 -15
q-2 -12 -14 -12h-129l-90 -648q-2 -13 -16 -13h-16q-13 0 -11 13l91 648h-201l-91 -648q-2 -13 -16 -13h-16q-13 0 -11 13zM156 400h201l20 137q6 46 21 79q-10 15 -36 29.5t-55 14.5q-113 0 -135 -148z" />
    <glyph glyph-name="f_f_i" unicode="ffi" horiz-adv-x="722" 
d="M17 -287l91 648h-55q-13 0 -11 13l2 13q2 13 14 13h55l16 113q14 93 64.5 140t118.5 47q66 0 113 -47q48 57 123 57q76 0 124 -54q6 -6 -1 -15l-13 -16q-7 -8 -16 -1q-51 45 -94 45q-51 0 -86 -36.5t-44 -100.5l-19 -132h253q13 0 11 -13l-53 -374q-2 -13 -15 -13h-18
q-5 0 -8.5 4t-2.5 9l49 348h-221l-91 -648q-2 -13 -16 -13h-16q-13 0 -11 13l91 648h-201l-91 -648q-2 -13 -15 -13h-16q-13 0 -11 13zM156 400h201l18 133q8 51 25 83q-11 15 -36.5 29.5t-52.5 14.5q-56 0 -92.5 -36.5t-46.5 -110.5z" />
    <glyph glyph-name="f_f_l" unicode="ffl" horiz-adv-x="725" 
d="M17 -287l91 648h-54q-12 0 -10 15l1 11q2 13 14 13h54l16 113q14 94 65 140.5t120 46.5q63 0 110 -47q48 57 125 57q30 0 57 -12t39 -23t18 -19l9 32q5 12 18 12h7q13 0 11 -13l-95 -674q-2 -13 -15 -13h-18q-5 0 -8 4t-2 9l83 592q-41 62 -106 62q-44 0 -81.5 -32.5
t-46.5 -96.5l-19 -138h126q13 0 11 -12l-2 -15q-2 -12 -14 -12h-127l-91 -648q-2 -13 -14 -13h-18q-5 0 -8 4t-2 9l91 648h-200l-92 -648q-1 -13 -16 -13h-16q-13 0 -11 13zM157 400h200l19 138q8 47 23 76q-11 16 -36.5 31t-54.5 15q-115 0 -135 -149z" />
    <glyph glyph-name="f_f_h" unicode="ffh" horiz-adv-x="993" 
d="M17 -287l91 648h-54q-12 0 -10 15l1 11q2 13 14 13h54l16 113q14 94 65 140.5t120 46.5q63 0 110 -47q48 57 125 57q30 0 57 -12t39 -23t18 -19l9 32q5 12 18 12h7q13 0 11 -13l-48 -339q15 18 53.5 40t84.5 22q69 0 100 -47t18 -136l-30 -214q-2 -13 -15 -13h-18
q-13 0 -11 13l30 214q10 69 -11.5 104.5t-70.5 35.5q-33 0 -67.5 -18t-49 -31t-20.5 -21l-40 -284q-2 -13 -15 -13h-19q-11 0 -9 13l83 592q-41 62 -106 62q-44 0 -81.5 -32.5t-46.5 -96.5l-19 -138h126q13 0 11 -12l-2 -15q-2 -12 -14 -12h-127l-91 -648q-2 -13 -14 -13
h-18q-5 0 -8 4t-2 9l91 648h-200l-92 -648q-1 -13 -16 -13h-16q-13 0 -11 13zM157 400h200l19 138q8 47 23 76q-11 16 -36.5 31t-54.5 15q-115 0 -135 -149z" />
    <glyph glyph-name="f_k" unicode="fk" horiz-adv-x="682" 
d="M18 -287l91 648h-59q-13 0 -11 13l2 13q2 13 14 13h59l19 138q11 84 60 128t111 44q30 0 57.5 -12t40 -23t18.5 -19l9 32q5 12 18 12h7q13 0 11 -13l-63 -448l203 155q7 6 16 6h33q5 0 7 -2.5t1 -6.5t-5 -7l-218 -164l181 -203q5 -5 1.5 -11t-9.5 -6h-23q-12 0 -19 8
l-173 199l-27 -194q-2 -13 -15 -13h-19q-11 0 -9 13l83 592q-41 62 -106 62q-46 0 -82.5 -32.5t-45.5 -96.5l-19 -138h126q13 0 11 -12l-2 -15q-2 -12 -14 -12h-127l-91 -648q-2 -13 -14 -13h-18q-12 0 -10 13z" />
    <glyph glyph-name="f_j" unicode="fj" horiz-adv-x="489" 
d="M18 -287l91 648h-58q-13 0 -11 15l2 11q2 13 14 13h58l19 133q12 84 61 130.5t111 46.5q76 0 124 -54q6 -6 -1 -15l-13 -16q-7 -8 -16 -1q-51 45 -94 45q-47 0 -83.5 -35t-45.5 -101l-19 -133h262q13 0 11 -13l-75 -524q-25 -173 -144 -173q-39 0 -68 19q-13 8 -6 17
l9 14q8 10 20 4q24 -15 46 -15q81 0 100 134l70 498h-231l-91 -648q-2 -13 -14 -13h-17q-13 0 -11 13z" />
    <glyph glyph-name="f_f_j" unicode="ffj" horiz-adv-x="731" 
d="M17 -287l91 648h-55q-13 0 -11 13l2 13q2 13 14 13h55l16 113q14 93 64.5 140t118.5 47q66 0 113 -47q48 57 123 57q76 0 124 -54q6 -6 -1 -15l-13 -16q-7 -8 -16 -1q-51 45 -94 45q-51 0 -85.5 -36t-44.5 -101l-19 -132h262q13 0 11 -13l-75 -524q-25 -173 -144 -173
q-39 0 -68 19q-13 8 -6 17l9 14q8 10 20 4q24 -15 46 -15q81 0 100 134l70 498h-230l-91 -648q-2 -13 -16 -13h-16q-13 0 -11 13l91 648h-201l-91 -648q-2 -13 -15 -13h-16q-13 0 -11 13zM156 400h201l18 133q8 51 25 83q-11 15 -36.5 29.5t-52.5 14.5q-56 0 -92.5 -36.5
t-46.5 -110.5z" />
    <glyph glyph-name="f_b" unicode="fb" horiz-adv-x="741" 
d="M18 -287l91 648h-59q-13 0 -11 13l2 13q2 13 14 13h59l19 138q11 84 60 128t111 44q30 0 57.5 -12t40 -23t18.5 -19l9 32q5 12 18 12h7q13 0 11 -13l-45 -317q48 40 115 40q61 0 105 -51.5t44 -125.5q0 -100 -58 -171.5t-140 -71.5q-45 0 -75 20.5t-39 38.5l-8 -36
q-4 -13 -16 -13h-10q-13 0 -11 13l83 592q-41 62 -106 62q-46 0 -82.5 -32.5t-45.5 -96.5l-19 -138h126q13 0 11 -12l-2 -15q-2 -12 -14 -12h-127l-91 -648q-2 -13 -14 -13h-18q-12 0 -10 13zM383 101q1 -2 4 -9t12 -18t20 -20.5t29.5 -16.5t39.5 -7q62 0 107 58.5t45 137.5
q0 61 -32 101t-84 40q-28 0 -55 -10.5t-41 -20.5l-13 -11z" />
    <glyph glyph-name="f_f_k" unicode="ffk" horiz-adv-x="925" 
d="M17 -287l91 648h-54q-12 0 -10 15l1 11q2 13 14 13h54l16 113q14 94 65 140.5t120 46.5q63 0 110 -47q48 57 125 57q30 0 57 -12t39 -23t18 -19l9 32q5 12 18 12h7q13 0 11 -13l-63 -448l203 155q8 6 16 6h33q5 0 7 -2.5t1 -6.5t-5 -7l-218 -164l181 -203q5 -5 1.5 -11
t-9.5 -6h-23q-12 0 -19 8l-173 199l-27 -194q-2 -13 -15 -13h-19q-11 0 -9 13l83 592q-41 62 -106 62q-44 0 -81.5 -32.5t-46.5 -96.5l-19 -138h126q13 0 11 -12l-2 -15q-2 -12 -14 -12h-127l-91 -648q-2 -13 -14 -13h-18q-5 0 -8 4t-2 9l91 648h-200l-92 -648
q-1 -13 -16 -13h-16q-13 0 -11 13zM157 400h200l19 138q8 47 23 76q-11 16 -36.5 31t-54.5 15q-115 0 -135 -149z" />
    <glyph glyph-name="f_h" unicode="fh" horiz-adv-x="750" 
d="M18 -287l91 648h-59q-13 0 -11 13l2 13q2 13 14 13h59l19 138q11 84 60 128t111 44q30 0 57.5 -12t40 -23t18.5 -19l9 32q5 12 18 12h7q13 0 11 -13l-48 -339q15 18 53.5 40t84.5 22q65 0 97.5 -48t20.5 -135l-30 -214q-2 -13 -15 -13h-18q-13 0 -11 13l30 214
q10 68 -11.5 104t-69.5 36q-34 0 -68.5 -18t-49 -31t-20.5 -21l-40 -284q-2 -13 -15 -13h-19q-11 0 -9 13l83 592q-41 62 -106 62q-46 0 -82.5 -32.5t-45.5 -96.5l-19 -138h126q13 0 11 -12l-2 -15q-2 -12 -14 -12h-127l-91 -648q-2 -13 -14 -13h-18q-12 0 -10 13z" />
    <glyph glyph-name="f_f_b" unicode="ffb" horiz-adv-x="984" 
d="M17 -287l91 648h-54q-12 0 -10 15l1 11q2 13 14 13h54l16 113q14 94 65 140.5t120 46.5q63 0 110 -47q48 57 125 57q30 0 57 -12t39 -23t18 -19l9 32q5 12 18 12h7q13 0 11 -13l-45 -317q48 40 115 40q63 0 106 -51.5t43 -125.5q0 -101 -57 -172t-141 -71q-45 0 -75 20.5
t-39 38.5l-8 -36q-4 -13 -16 -13h-10q-13 0 -11 13l83 592q-41 62 -106 62q-44 0 -81.5 -32.5t-46.5 -96.5l-19 -138h126q13 0 11 -12l-2 -15q-2 -12 -14 -12h-127l-91 -648q-2 -13 -14 -13h-18q-5 0 -8 4t-2 9l91 648h-200l-92 -648q-1 -13 -16 -13h-16q-13 0 -11 13z
M157 400h200l19 138q8 47 23 76q-11 16 -36.5 31t-54.5 15q-115 0 -135 -149zM626 101q1 -2 4 -9t12 -18t20 -20.5t29.5 -16.5t39.5 -7q62 0 107 58.5t45 137.5q0 61 -32 101t-84 40q-28 0 -55 -10.5t-40 -20.5l-14 -11z" />
    <glyph glyph-name=".notdef" horiz-adv-x="599" 
d="M50 30v640q0 30 30 30h439q30 0 30 -30v-640q0 -30 -30 -30h-439q-30 0 -30 30zM262 314q0 -12 14 -12h36q15 0 15 13v26q0 16 16.5 32t36 28.5t36 36.5t16.5 53q0 48 -35.5 79.5t-89.5 31.5q-24 0 -46.5 -6.5t-37 -15t-25.5 -17.5t-16 -15l-5 -7q-8 -12 0 -18l22 -22
q8 -6 17 0q1 1 7.5 7t9.5 9t11.5 8.5t15.5 8.5t18 5.5t22 2.5q29 0 45 -15t16 -37q0 -21 -15.5 -39t-34 -30t-34 -32.5t-15.5 -45.5v-29zM245 156q0 -20 14.5 -34t33.5 -14q20 0 34.5 14t14.5 34t-14.5 34t-34.5 14q-19 0 -33.5 -14t-14.5 -34z" />
    <glyph glyph-name=".null" horiz-adv-x="0" 
 />
    <glyph glyph-name="nonmarkingreturn" horiz-adv-x="333" 
 />
    <glyph glyph-name="space" unicode=" " horiz-adv-x="221" 
 />
    <glyph glyph-name="exclam" unicode="!" horiz-adv-x="297" 
d="M145 269q-5 0 -8.5 3.5t-2.5 8.5l47 406q1 13 16 13h26q13 0 11 -13l-67 -406q-4 -12 -14 -12h-8zM76 25q0 19 13.5 32t31.5 13q15 0 24 -10t9 -25q0 -19 -13 -32t-31 -13q-15 0 -24.5 10t-9.5 25z" />
    <glyph glyph-name="quotedbl" unicode="&#x22;" horiz-adv-x="284" 
d="M229 496q-8 0 -7 11l26 180q2 13 14 13h22q14 0 9 -16l-42 -177q-2 -11 -11 -11h-11zM94 496q-8 0 -7 11l25 180q2 13 15 13h22q12 0 9 -16l-42 -177q-4 -11 -11 -11h-11z" />
    <glyph glyph-name="numbersign" unicode="#" horiz-adv-x="506" 
d="M66 15l55 191h-74q-11 0 -9 13l1 7q2 11 13 11h77l53 182h-78q-13 0 -11 13l1 6q2 13 14 13h83l68 238q3 11 14 11h6q13 0 9 -15l-67 -234h145l68 238q3 11 14 11h5q13 0 9 -15l-66 -234h73q12 0 10 -13l-1 -6q-2 -13 -13 -13h-77l-53 -182h77q13 0 11 -13l-1 -7
q-2 -11 -13 -11h-83l-56 -195q-4 -11 -14 -11h-6q-14 0 -9 15l55 191h-146l-55 -195q-4 -11 -14 -11h-6q-14 0 -9 15zM160 237h145l52 182h-144z" />
    <glyph glyph-name="dollar" unicode="$" horiz-adv-x="494" 
d="M34 72q-11 13 -1 22l14 13q11 10 21 -3q51 -65 136 -71l42 300q-155 59 -155 183q0 68 54.5 127.5t153.5 65.5l5 37q1 13 15 13h4q13 0 11 -13l-6 -38q36 -2 69 -14.5t48 -23.5l15 -12q7 -7 2 -15l-17 -24q-5 -9 -16 0q-43 40 -107 46q-7 -56 -42 -298q78 -32 117 -73.5
t39 -105.5q0 -82 -63 -137.5t-147 -60.5l-15 -108q-1 -12 -15 -12q-7 0 -11 3t-3 9l16 108q-105 9 -164 82zM253 379l40 287q-75 -4 -115 -49.5t-40 -96.5q0 -52 29 -85t86 -56zM232 33q63 4 109 47t46 104q0 86 -114 136z" />
    <glyph glyph-name="percent" unicode="%" horiz-adv-x="630" 
d="M190 434q-45 0 -75.5 34.5t-30.5 84.5q0 64 44 110.5t101 46.5q45 0 75.5 -34.5t30.5 -84.5q0 -64 -44 -110.5t-101 -46.5zM77 14l435 679q4 7 14 7h18q6 0 8 -4t-2 -10l-433 -676q-7 -10 -17 -10h-17q-6 0 -8 4t2 10zM195 471q40 0 70.5 34t30.5 81q0 36 -20.5 61
t-51.5 25q-41 0 -71 -34t-30 -80q0 -37 20 -62t52 -25zM304 109q0 64 43.5 110.5t101.5 46.5q45 0 75 -35t30 -85q0 -64 -44 -110.5t-100 -46.5q-46 0 -76 35t-30 85zM342 113q0 -36 20.5 -61t52.5 -25q40 0 70.5 33.5t30.5 80.5q0 36 -20.5 61t-52.5 25q-40 0 -70.5 -34
t-30.5 -80z" />
    <glyph glyph-name="ampersand" unicode="&#x26;" horiz-adv-x="613" 
d="M66 147q0 43 14.5 80.5t40.5 65.5t50.5 47t57.5 37l-18 23q-59 76 -47 155q10 60 56 107.5t120 47.5q61 0 94.5 -38t33.5 -92q0 -37 -15.5 -69.5t-44.5 -59.5t-55.5 -45.5t-63.5 -39.5l149 -199q36 40 59.5 103.5t24.5 120.5q0 9 8 9h22q10 0 10 -11q0 -133 -97 -255
l77 -101q16 -16 3 -24l-16 -12q-11 -9 -20 2l-73 99q-4 -4 -11 -11.5t-30 -26t-47.5 -33t-59.5 -26t-69 -11.5q-71 0 -112 45.5t-41 111.5zM266 397q32 18 55 33.5t48.5 38.5t39 49.5t13.5 55.5q0 40 -23 68.5t-67 28.5q-53 0 -86.5 -35.5t-40.5 -81.5q-10 -65 39 -129z
M110 153q0 -52 32.5 -87.5t82.5 -35.5q29 0 58.5 10.5t51.5 25t40 29.5t27 25l9 11l-159 216q-64 -37 -103 -82t-39 -112z" />
    <glyph glyph-name="quotesingle" unicode="'" horiz-adv-x="149" 
d="M94 496q-8 0 -7 11l26 180q2 13 14 13h22q12 0 9 -16l-42 -177q-4 -11 -11 -11h-11z" />
    <glyph glyph-name="parenleft" unicode="(" horiz-adv-x="328" 
d="M66 207q0 132 25.5 232.5t67.5 156.5t89 83.5t98 30.5q11 0 11 -9l-1 -15q0 -12 -9 -12q-111 -16 -174 -133t-63 -333q0 -228 136 -249q9 -2 6 -12l-4 -17q-1 -8 -12 -8q-74 5 -122 73.5t-48 211.5z" />
    <glyph glyph-name="parenright" unicode=")" horiz-adv-x="327" 
d="M-7 -40q112 16 174 131.5t62 331.5q0 230 -135 251q-11 0 -7 13l3 14q2 9 14 9q72 -4 120 -73.5t48 -213.5q0 -132 -25 -232.5t-66.5 -156t-88.5 -83t-98 -29.5q-12 0 -12 8l1 18q0 10 10 12z" />
    <glyph glyph-name="asterisk" unicode="*" horiz-adv-x="314" 
d="M171 410q-13 0 -11 13l15 103l-83 -55q-13 -8 -17 4l-3 8q-4 12 5 17l88 55l-73 55q-10 8 -1 17l7 8q8 10 16 4l69 -55l14 103q2 13 14 13h8q13 0 11 -13l-16 -103l84 56q5 4 10 2.5t7 -6.5l3 -8q4 -11 -6 -17l-88 -56l73 -56q4 -2 4 -7t-2 -9l-6 -9q-8 -12 -18 -4
l-69 56l-13 -103q-2 -13 -15 -13h-7z" />
    <glyph glyph-name="plus" unicode="+" horiz-adv-x="461" 
d="M193 155l24 171h-153q-13 0 -11 13l3 16q2 13 14 13h153l24 172q2 12 14 12h16q13 0 11 -12l-24 -172h152q13 0 11 -13l-3 -16q-2 -13 -14 -13h-152l-24 -171q-2 -13 -14 -13h-17q-5 0 -8 4t-2 9z" />
    <glyph glyph-name="comma" unicode="," horiz-adv-x="224" 
d="M40 24q0 21 12 33t32 12q18 0 30.5 -17.5t12.5 -50.5q0 -63 -30 -107t-58 -58q-13 -7 -17 0l-6 10q-5 9 6 16q50 33 64 95q5 24 2 38q-8 -5 -14 -5q-16 0 -25 10t-9 24z" />
    <glyph glyph-name="hyphen" unicode="-" horiz-adv-x="452" 
d="M117 231q-12 0 -10 13l1 11q2 13 14 13h200q13 0 11 -13l-1 -11q-2 -13 -15 -13h-200z" />
    <glyph glyph-name="period" unicode="." horiz-adv-x="220" 
d="M40 25q0 19 13.5 32t31.5 13q15 0 24 -10t9 -25q0 -19 -13 -32t-31 -13q-15 0 -24.5 10t-9.5 25z" />
    <glyph glyph-name="slash" unicode="/" horiz-adv-x="310" 
d="M7 14l290 678q3 8 13 8h16q16 0 9 -14l-291 -677q-3 -9 -13 -9h-15q-15 0 -9 14z" />
    <glyph glyph-name="zero" unicode="0" horiz-adv-x="600" 
d="M260 -10q-86 0 -132.5 70.5t-46.5 192.5q0 198 75 318.5t202 120.5q86 0 132.5 -70.5t46.5 -192.5q0 -198 -75 -318.5t-202 -120.5zM266 31q105 0 165.5 108t60.5 287q0 105 -36 164.5t-104 59.5q-105 0 -166 -108.5t-61 -286.5q0 -105 36 -164.5t105 -59.5z" />
    <glyph glyph-name="one" unicode="1" horiz-adv-x="300" 
d="M113 13l87 592h-1l-112 -92q-8 -6 -14 1l-13 17q-5 6 4 15l159 135h20q10 0 8 -12l-92 -656q-2 -13 -15 -13h-20q-13 0 -11 13z" />
    <glyph glyph-name="two" unicode="2" horiz-adv-x="483" 
d="M6 12l2 18l273 266q65 63 96.5 114.5t31.5 105.5q0 55 -31.5 93t-96.5 38q-72 0 -142 -81q-10 -12 -19 -4l-15 12q-9 7 1 18q3 4 8.5 10.5t23.5 24t37.5 30.5t49.5 23.5t60 10.5q83 0 127.5 -48t44.5 -120q0 -71 -35.5 -126t-110.5 -129l-231 -227h293q13 0 11 -13
l-2 -15q-2 -13 -14 -13h-351q-11 0 -11 12z" />
    <glyph glyph-name="three" unicode="3" horiz-adv-x="504" 
d="M26 84q-4 9 3 14l18 12q9 7 16 -5q45 -75 138 -75q74 0 125.5 47t51.5 121q0 59 -42 93.5t-94 34.5h-85q-13 0 -11 11l3 20q1 12 15 12h80q62 0 113 44.5t51 114.5q0 53 -31.5 86.5t-81.5 33.5q-76 0 -151 -75q-8 -8 -16 0l-13 14q-9 7 1 17q9 10 24.5 24.5t63 38.5
t95.5 24q70 0 113.5 -42.5t43.5 -110.5q0 -66 -36.5 -116.5t-88.5 -73.5v-2q38 -14 66 -54t28 -90q0 -89 -65 -150.5t-165 -61.5q-115 0 -169 94z" />
    <glyph glyph-name="four" unicode="4" horiz-adv-x="536" 
d="M18 156q-8 0 -11.5 3t-2.5 9l2 20l438 504h16q9 0 8 -12l-67 -485h69q13 0 11 -12l-2 -13q-2 -13 -14 -13h-70l-20 -144q-2 -13 -14 -13h-20q-12 0 -10 14l19 142h-332zM64 196h294l59 407z" />
    <glyph glyph-name="five" unicode="5" horiz-adv-x="509" 
d="M38 84q-4 9 3 14l19 12q9 7 16 -5q45 -75 137 -75q80 0 137.5 66t57.5 153q0 63 -36 100t-107 37h-147q-9 0 -13.5 6.5t-2.5 14.5l36 261q2 13 15 13h281q5 0 8 -4t2 -9l-2 -16q-2 -13 -14 -13h-252l-30 -211h125q90 0 137 -46t47 -132q0 -106 -72.5 -183t-174.5 -77
q-116 0 -170 94z" />
    <glyph glyph-name="six" unicode="6" horiz-adv-x="515" 
d="M56 217q0 89 29 167.5t69.5 129t95 93t92.5 63t74 34.5q10 3 14 -11l4 -11q5 -13 -13 -19q-27 -10 -62.5 -30.5t-83.5 -55.5t-89.5 -90.5t-61.5 -118.5h1q19 23 67 47.5t106 24.5q71 0 120 -52.5t49 -135.5q0 -106 -72 -184t-164 -78q-86 0 -130.5 63.5t-44.5 163.5z
M237 30q71 0 128 64.5t57 150.5q0 66 -37.5 109.5t-94.5 43.5q-29 0 -58.5 -10.5t-49.5 -23.5t-38 -29.5t-24.5 -24t-10.5 -12.5q-10 -29 -10 -76q0 -81 35 -136.5t103 -55.5z" />
    <glyph glyph-name="seven" unicode="7" horiz-adv-x="422" 
d="M60 16l343 623h-323q-14 0 -12 15l2 15q1 12 15 12h364q12 0 12 -14v-6l-353 -649q-7 -12 -16 -12h-27q-13 0 -5 16z" />
    <glyph glyph-name="eight" unicode="8" horiz-adv-x="536" 
d="M50 151q0 74 46.5 126t109.5 70q0 1 1 2q-40 14 -67 52t-27 87q0 83 58.5 142t152.5 59q77 0 120.5 -44.5t43.5 -112.5q0 -67 -41.5 -116t-97.5 -67v-2q46 -14 77.5 -53t31.5 -94q0 -96 -65 -153t-168 -57q-81 0 -128 43t-47 118zM281 373q75 6 118.5 47t43.5 107
q0 52 -33.5 88t-92.5 36q-70 0 -115.5 -47.5t-45.5 -108.5q0 -54 33 -85.5t92 -36.5zM93 158q0 -63 38.5 -96.5t99.5 -33.5q77 0 129 43.5t52 120.5q0 51 -37.5 88.5t-100.5 43.5q-80 -7 -130.5 -54.5t-50.5 -111.5z" />
    <glyph glyph-name="nine" unicode="9" horiz-adv-x="514" 
d="M99 4q-5 13 13 19q27 10 62.5 30.5t83.5 55.5t89.5 90.5t61.5 118.5h-1q-19 -23 -67 -47.5t-106 -24.5q-71 0 -120 52.5t-49 135.5q0 106 72 184t164 78q86 0 130.5 -63.5t44.5 -163.5q0 -89 -29 -167.5t-69.5 -129t-95 -93t-92.5 -63t-74 -34.5q-10 -3 -13 7zM243 288
q29 0 58.5 10.5t49.5 23.5t38 29.5t24.5 24t10.5 12.5q10 29 10 76q0 81 -35 136.5t-103 55.5q-71 0 -128 -64.5t-57 -150.5q0 -66 37.5 -109.5t94.5 -43.5z" />
    <glyph glyph-name="colon" unicode=":" horiz-adv-x="261" 
d="M139 329q-15 0 -25 10.5t-10 25.5q0 18 14 31.5t32 13.5q15 0 24 -10t9 -25q0 -19 -13 -32.5t-31 -13.5zM57 25q0 19 13.5 32t31.5 13q15 0 24 -10t9 -25q0 -19 -13 -32t-31 -13q-15 0 -24.5 10t-9.5 25z" />
    <glyph glyph-name="semicolon" unicode=";" horiz-adv-x="263" 
d="M138 329q-15 0 -24.5 10.5t-9.5 24.5q0 19 13.5 32.5t31.5 13.5q15 0 24 -10t9 -25q0 -19 -13 -32.5t-31 -13.5zM56 24q0 21 12 33t32 12q18 0 30.5 -17.5t12.5 -50.5q0 -63 -30 -107t-58 -58q-13 -7 -17 0l-6 10q-5 9 6 16q50 33 64 95q5 24 2 38q-8 -5 -14 -5
q-16 0 -25 10t-9 24z" />
    <glyph glyph-name="less" unicode="&#x3c;" horiz-adv-x="401" 
d="M27 215q-8 7 -8 13v2q0 8 12 16l350 224q6 4 11 1.5t4 -11.5l-2 -26q0 -8 -11 -15l-300 -191l247 -187q9 -6 6 -17l-3 -16q-1 -9 -7 -11.5t-12 1.5z" />
    <glyph glyph-name="equal" unicode="=" horiz-adv-x="528" 
d="M135 366q-13 0 -11 13l2 17q2 13 15 13h281q5 0 8 -4t2 -9l-2 -17q-2 -13 -14 -13h-281zM105 158q-12 0 -10 13l2 17q2 13 14 13h281q13 0 11 -13l-2 -17q-2 -13 -15 -13h-281z" />
    <glyph glyph-name="greater" unicode="&#x3e;" horiz-adv-x="401" 
d="M8 -2q-6 -4 -11.5 -1.5t-4.5 11.5l3 26q2 10 10 15l299 184l-246 192q-8 5 -6 16l3 19q1 9 7.5 12t12.5 -2l285 -224q8 -7 8 -15v-1q0 -8 -12 -15z" />
    <glyph glyph-name="question" unicode="?" horiz-adv-x="440" 
d="M190 273q-13 0 -12 14l8 58q6 50 64 92q4 3 22.5 16.5t24.5 18.5t20 17t20 20.5t14 21t11 25.5t3 27q0 34 -23 60t-64 26q-35 0 -66.5 -15.5t-44.5 -28.5t-21 -25q-6 -10 -17 -2l-14 10q-9 7 -1 19l6 9t19.5 20t33 25t47.5 20t63 9q59 0 93.5 -35t34.5 -85
q0 -23 -7.5 -45.5t-16.5 -37.5t-27 -33t-28.5 -26t-31.5 -23.5t-26 -19.5q-41 -32 -45 -61l-8 -57q-2 -14 -14 -14h-17zM129 25q0 19 13 32t31 13q15 0 25 -10t10 -25q0 -18 -14 -31.5t-32 -13.5q-14 0 -23.5 10.5t-9.5 24.5z" />
    <glyph glyph-name="at" unicode="@" horiz-adv-x="909" 
d="M38 155q0 156 60.5 282.5t172.5 199.5t255 73q155 0 241 -98.5t86 -253.5q0 -58 -12.5 -118.5t-37.5 -118.5t-73 -94.5t-110 -36.5q-79 0 -88 79q-18 -28 -56.5 -53.5t-84.5 -25.5q-62 0 -100.5 49t-38.5 126q0 108 63 176.5t146 68.5q70 0 102 -43l6 21q5 12 15 12h10
q13 0 11 -13l-36 -251q-14 -109 58 -109q55 0 98.5 47.5t65.5 121.5t22 158q0 141 -76 230t-217 89q-194 0 -318 -145t-124 -368q0 -118 53 -209.5t143 -138.5q10 -5 4 -16l-9 -16q-6 -10 -15 -6q-99 50 -157.5 150.5t-58.5 230.5zM297 171q0 -62 28 -100.5t75 -38.5
q34 0 63.5 20.5t41.5 38t19 33.5l27 189q-1 2 -3.5 7.5t-10 14t-17.5 16t-26.5 13t-35.5 5.5q-65 0 -113 -55t-48 -143z" />
    <glyph glyph-name="A" unicode="A" horiz-adv-x="601" 
d="M9 0h-29q-12 0 -5 14l375 694q4 7 13 7h3q10 0 12 -7l177 -696q4 -12 -11 -12h-26q-11 0 -13 9l-46 184h-338l-96 -184q-5 -9 -16 -9zM144 232h304l-93 403h-3z" />
    <glyph glyph-name="B" unicode="B" horiz-adv-x="580" 
d="M67 13l95 674q2 13 14 13h193q75 0 119 -42.5t44 -112.5q0 -67 -35 -117t-87 -73q42 -14 68.5 -49.5t26.5 -90.5q0 -94 -64.5 -154.5t-161.5 -60.5h-201q-13 0 -11 13zM165 376h156q69 0 115 47t46 117q0 54 -32 85t-87 31h-159zM117 42h170q70 0 118.5 48.5t48.5 119.5
q0 57 -37.5 90t-99.5 33h-159z" />
    <glyph glyph-name="C" unicode="C" horiz-adv-x="659" 
d="M65 301q0 171 112.5 290t266.5 119q128 0 207 -93q8 -9 -1 -18l-17 -15q-9 -7 -17 1q-66 80 -177 80q-128 0 -225.5 -107t-97.5 -252q0 -113 66 -190t168 -77t195 84q10 8 16 2l19 -21q8 -8 -2 -17q-106 -97 -232 -97q-121 0 -201 90t-80 221z" />
    <glyph glyph-name="D" unicode="D" horiz-adv-x="684" 
d="M67 13l95 674q2 13 13 13h193q114 0 192.5 -89t78.5 -215q0 -162 -110.5 -279t-258.5 -117h-193q-5 0 -8 4t-2 9zM118 43h149q131 0 226.5 102t95.5 249q0 113 -66 188t-170 75h-149z" />
    <glyph glyph-name="E" unicode="E" horiz-adv-x="555" 
d="M67 13l95 674q2 13 14 13h360q13 0 11 -13l-2 -17q-2 -13 -15 -13h-324l-39 -276h280q13 0 11 -13l-2 -17q-2 -13 -15 -13h-280l-42 -296h325q13 0 11 -13l-3 -16q-2 -13 -14 -13h-360q-13 0 -11 13z" />
    <glyph glyph-name="F" unicode="F" horiz-adv-x="536" 
d="M67 13l95 674q2 13 14 13h360q13 0 11 -13l-2 -17q-2 -13 -15 -13h-324l-43 -304h284q13 0 11 -13l-2 -17q-2 -13 -15 -13h-284l-43 -297q-3 -13 -15 -13h-21q-13 0 -11 13z" />
    <glyph glyph-name="G" unicode="G" horiz-adv-x="685" 
d="M65 306q0 167 113.5 285.5t267.5 118.5q126 0 205 -93q8 -10 -2 -18l-18 -16q-9 -9 -17 0q-65 82 -176 82q-128 0 -225 -106t-97 -251q0 -114 65.5 -192t168.5 -78q50 0 97.5 16t70.5 32l23 16l24 177h-143q-8 0 -10 3t-1 10l3 20q2 12 14 12h179q5 0 8.5 -3.5t2.5 -8.5
l-30 -215q-2 -18 -17 -31q-26 -22 -89.5 -49t-136.5 -27q-118 0 -199 91t-81 225z" />
    <glyph glyph-name="H" unicode="H" horiz-adv-x="700" 
d="M67 13l95 674q2 13 14 13h22q13 0 11 -13l-44 -307h398l43 307q2 13 14 13h22q13 0 11 -13l-95 -674q-2 -13 -14 -13h-22q-13 0 -11 13l46 325h-397l-46 -325q-2 -13 -15 -13h-21q-13 0 -11 13z" />
    <glyph glyph-name="I" unicode="I" horiz-adv-x="256" 
d="M67 13l94 674q2 13 15 13h22q13 0 11 -13l-94 -674q-3 -13 -16 -13h-21q-13 0 -11 13z" />
    <glyph glyph-name="J" unicode="J" horiz-adv-x="374" 
d="M-45 65q-5 9 3 17l14 11q11 9 17 0q42 -61 100 -61q56 0 98.5 46t54.5 132l67 477q2 13 15 13h21q13 0 11 -13l-67 -476q-15 -105 -69 -163t-135 -58q-87 0 -130 75z" />
    <glyph glyph-name="K" unicode="K" horiz-adv-x="550" 
d="M67 13l95 672q2 15 16 15h19q15 0 13 -15l-44 -309l345 317q9 7 20 7h30q8 0 9 -6t-5 -11l-356 -327l273 -339q5 -4 1 -10.5t-14 -6.5h-24q-11 0 -20 10l-264 332l-46 -329q-1 -13 -17 -13h-20q-13 0 -11 13z" />
    <glyph glyph-name="L" unicode="L" horiz-adv-x="446" 
d="M67 13l95 674q2 13 14 13h23q5 0 8 -4t2 -9l-91 -645h283q13 0 11 -13l-3 -18q-2 -11 -14 -11h-317q-13 0 -11 13z" />
    <glyph glyph-name="M" unicode="M" horiz-adv-x="785" 
d="M13 13l227 690q2 7 10 7h9q6 0 7 -7l94 -602h2l275 602q3 7 9 7h9q8 0 8 -7l33 -690q0 -13 -13 -13h-24q-10 0 -10 11l-20 572h-2l-264 -585q-4 -8 -12 -8h-4q-9 0 -10 8l-93 585h-2l-183 -572q-4 -11 -13 -11h-24q-13 0 -9 13z" />
    <glyph glyph-name="N" unicode="N" horiz-adv-x="713" 
d="M67 13l96 684q3 13 16 13h15l343 -621h2l82 598q2 13 15 13h20q13 0 11 -13l-96 -684q-1 -13 -17 -13h-16l-341 623h-1l-84 -600q-2 -13 -25 -13h-9q-13 0 -11 13z" />
    <glyph glyph-name="O" unicode="O" horiz-adv-x="767" 
d="M65 300q0 169 111.5 289.5t267.5 120.5q118 0 198 -91t80 -222q0 -169 -111.5 -288t-267.5 -119q-118 0 -198 90t-80 220zM111 306q0 -114 67.5 -193t170.5 -79q129 0 228 105.5t99 251.5q0 115 -67.5 195t-170.5 80q-130 0 -228.5 -106.5t-98.5 -253.5z" />
    <glyph glyph-name="P" unicode="P" horiz-adv-x="553" 
d="M67 13l95 674q2 13 14 13h195q72 0 123 -57.5t51 -137.5q0 -104 -71 -180t-166 -76h-161l-33 -236q-2 -13 -18 -13h-18q-13 0 -11 13zM154 295h158q72 0 128 61t56 144q0 65 -38 109t-97 44h-157z" />
    <glyph glyph-name="Q" unicode="Q" horiz-adv-x="768" 
d="M65 300q0 169 111.5 289.5t267.5 120.5q118 0 198 -91t80 -222t-69.5 -235t-182.5 -149l80 -191q2 -4 -0.5 -9.5t-8.5 -5.5h-33q-8 0 -12 10l-73 183q-36 -10 -80 -10q-118 0 -198 90t-80 220zM112 306q0 -114 67 -193t170 -79q129 0 228 105.5t99 251.5q0 115 -67.5 195
t-170.5 80q-130 0 -228 -106.5t-98 -253.5z" />
    <glyph glyph-name="R" unicode="R" horiz-adv-x="604" 
d="M67 13l95 674q2 13 14 13h225q71 0 121.5 -54t50.5 -132q0 -85 -50.5 -150.5t-126.5 -86.5l93 -259q3 -6 0.5 -12t-10.5 -6h-29q-9 0 -12 9l-92 262q-12 -1 -37 -1h-159l-36 -257q-2 -13 -18 -13h-18q-13 0 -11 13zM157 312h187q70 0 124.5 57.5t54.5 138.5q0 62 -37 104
t-94 42h-187z" />
    <glyph glyph-name="S" unicode="S" horiz-adv-x="507" 
d="M41 72q-10 10 0 21l12 12q11 15 21 2q67 -75 145 -75q72 0 124 43.5t52 107.5q0 51 -35.5 82.5t-114.5 71.5q-37 19 -60.5 34t-45.5 36t-32.5 47.5t-10.5 59.5q0 77 57 136.5t167 59.5q39 0 76 -13t54 -25l17 -13q10 -10 1 -21l-9 -12q-10 -13 -22 -5l-3 2q-2 2 -6 4.5
t-9.5 6t-12 7.5t-14.5 7.5t-17 7t-18.5 6t-20.5 4t-22 1.5q-81 0 -126 -46.5t-45 -102.5q0 -48 31.5 -79t94.5 -61q90 -43 132 -83.5t42 -106.5q0 -87 -66.5 -142.5t-161.5 -55.5q-99 0 -174 82z" />
    <glyph glyph-name="T" unicode="T" horiz-adv-x="422" 
d="M148 13l91 644h-170q-12 0 -10 15l2 15q2 13 14 13h386q13 0 11 -13l-2 -17q-2 -13 -15 -13h-170l-90 -644q-2 -13 -17 -13h-19q-13 0 -11 13z" />
    <glyph glyph-name="U" unicode="U" horiz-adv-x="666" 
d="M94 255l61 432q2 13 14 13h22q13 0 11 -13l-60 -427q-15 -99 27.5 -161.5t129.5 -62.5t147 62.5t74 160.5l61 428q2 13 15 13h21q5 0 8 -4t2 -9l-60 -432q-17 -117 -92 -191t-183 -74q-102 0 -158 75t-40 190z" />
    <glyph glyph-name="V" unicode="V" horiz-adv-x="597" 
d="M242 -1l-175 688q-3 13 10 13h27q7 0 9 -7l152 -609h2l328 609q5 7 12 7h28q15 0 7 -14l-372 -687q-5 -9 -13 -9h-4q-9 0 -11 9z" />
    <glyph glyph-name="W" unicode="W" horiz-adv-x="817" 
d="M181 -3l-84 690q-1 13 13 13h24q8 0 10 -11l66 -571h2l240 583q4 9 11 9h6q9 0 10 -9l80 -582h2l225 570q4 11 13 11h26q14 0 10 -13l-276 -690q-3 -7 -9 -7h-7q-8 0 -9 7l-82 595h-2l-244 -595q-3 -7 -9 -7h-7q-9 0 -9 7z" />
    <glyph glyph-name="X" unicode="X" horiz-adv-x="524" 
d="M6 0q-17 0 -6 15l244 344l-139 326q-2 6 1 10.5t10 4.5h24q8 0 11 -6l124 -298h1l205 298q4 6 14 6h31q7 0 9.5 -4.5t-2.5 -10.5l-232 -327l149 -343q3 -6 0 -10.5t-10 -4.5h-26q-10 0 -12 6l-134 312h-1l-216 -312q-5 -6 -13 -6h-32z" />
    <glyph glyph-name="Y" unicode="Y" horiz-adv-x="512" 
d="M192 13l45 327l-181 347q-6 13 9 13h28q8 0 11 -6l160 -307l248 307q6 6 14 6h33q8 0 10 -4.5t-3 -10.5l-282 -344l-46 -328q-2 -13 -15 -13h-20q-12 0 -11 13z" />
    <glyph glyph-name="Z" unicode="Z" horiz-adv-x="491" 
d="M7 0q-14 0 -12 12l2 18l444 623v3h-315q-12 0 -10 13l2 22q1 9 13 9h370q13 0 11 -12l-2 -17l-445 -624v-3h325q13 0 11 -13l-2 -18q-2 -13 -15 -13h-377z" />
    <glyph glyph-name="bracketleft" unicode="[" horiz-adv-x="307" 
d="M48 -259h144q13 0 11 -13l-2 -15q-2 -13 -15 -13h-174q-13 0 -11 13l137 974q2 13 15 13h174q13 0 11 -13l-2 -15q-2 -13 -15 -13h-144z" />
    <glyph glyph-name="backslash" unicode="\" horiz-adv-x="303" 
d="M186 9l-101 681q-1 10 9 10h18q9 0 11 -8l100 -682q2 -10 -9 -10h-17q-9 0 -11 9z" />
    <glyph glyph-name="bracketright" unicode="]" horiz-adv-x="307" 
d="M-36 -259h143l129 918h-143q-13 0 -11 13l2 15q2 13 15 13h173q13 0 11 -13l-137 -974q-2 -13 -15 -13h-173q-13 0 -11 13l2 15q2 13 15 13z" />
    <glyph glyph-name="asciicircum" unicode="^" horiz-adv-x="472" 
d="M59 400q-15 0 -3 16l229 291q5 7 11 7h1q5 0 9 -7l151 -291q4 -6 1.5 -11t-9.5 -5h-21q-11 0 -15 8l-122 240h-1l-189 -240q-6 -8 -16 -8h-26z" />
    <glyph glyph-name="underscore" unicode="_" horiz-adv-x="359" 
d="M-1 -10h281q13 0 11 -13l-2 -10q-2 -12 -14 -12h-281q-13 0 -11 12l1 10q2 13 15 13z" />
    <glyph glyph-name="grave" unicode="`" horiz-adv-x="272" 
d="M239 560l-142 79q-8 5 -1 15l12 19q7 11 17 3l132 -90q8 -5 4 -14l-6 -9q-6 -7 -16 -3z" />
    <glyph glyph-name="a" unicode="a" 
d="M391 387l-52 -374q-2 -13 -14 -13h-11q-14 0 -12 14l2 34q-15 -18 -50 -38t-80 -20q-61 0 -100 51.5t-39 126.5q0 100 60.5 171t143.5 71q30 0 56 -10.5t37 -20t16 -17.5l8 27q3 11 14 11h11q5 0 8 -4t2 -9zM308 103l30 210q-3 7 -11.5 17t-33.5 24t-55 14
q-68 0 -113.5 -56.5t-45.5 -137.5q0 -60 28.5 -101.5t75.5 -41.5q33 0 64 18t44.5 33t16.5 21z" />
    <glyph glyph-name="b" unicode="b" horiz-adv-x="452" 
d="M38 13l95 674q2 13 13 13h19q13 0 11 -13l-45 -317q48 40 115 40q63 0 106 -51t43 -126q0 -100 -58.5 -171.5t-139.5 -71.5q-45 0 -75 20.5t-39 38.5l-8 -36q-4 -13 -16 -13h-10q-13 0 -11 13zM94 101q2 -6 10.5 -20t35 -32t59.5 -18q62 0 107 58t45 137q0 61 -32 101
t-84 40q-28 0 -55 -10.5t-40 -20.5l-14 -11z" />
    <glyph glyph-name="c" unicode="c" horiz-adv-x="423" 
d="M35 171q0 103 65.5 171t154.5 68q80 0 123 -62q5 -8 -5 -18l-8 -7q-11 -9 -20 2q-35 43 -94 43q-67 0 -119 -56t-52 -136q0 -62 34.5 -103.5t86.5 -41.5q59 0 115 61q10 10 19 2l12 -11q9 -7 1 -16q-22 -27 -61.5 -52t-90.5 -25q-66 0 -113.5 52.5t-47.5 128.5z" />
    <glyph glyph-name="d" unicode="d" horiz-adv-x="452" 
d="M36 168q0 102 60 172t149 70q29 0 54.5 -10t36.5 -20l11 -10l45 317q3 13 13 13h19q5 0 8 -4t2 -9l-94 -674q-2 -13 -14 -13h-11q-14 0 -12 14l2 34q-15 -18 -50 -38t-80 -20q-61 0 -100 51.5t-39 126.5zM184 31q33 0 64 18t44.5 33t16.5 21l32 220q-4 5 -11.5 12.5
t-33 20t-53.5 12.5q-68 0 -115.5 -57t-47.5 -140q0 -60 28.5 -100t75.5 -40z" />
    <glyph glyph-name="e" unicode="e" horiz-adv-x="414" 
d="M35 167q0 100 59.5 171.5t149.5 71.5q53 0 89 -28.5t36 -74.5q0 -42 -30 -69.5t-72.5 -37.5t-85 -13.5t-72.5 -1.5l-30 2q-6 -66 26 -111t89 -45q56 0 109 39q11 7 16 -2l9 -15q5 -9 -3 -16q-15 -14 -55 -30.5t-85 -16.5q-68 0 -109 50.5t-41 126.5zM84 225
q96 -8 169 10.5t73 69.5q0 27 -24.5 45t-62.5 18q-56 0 -99 -40.5t-56 -102.5z" />
    <glyph glyph-name="f" unicode="f" horiz-adv-x="292" 
d="M16 -287l92 648h-54q-13 0 -11 13l2 13q2 13 14 13h54l20 142q12 83 54 125.5t106 42.5q31 0 57 -13.5t38 -29.5q6 -9 -1 -16l-12 -12q-9 -9 -17 0q-31 31 -65 31q-98 0 -117 -133l-19 -137h128q13 0 11 -12l-2 -15q-2 -12 -14 -12h-128l-92 -648q-2 -13 -15 -13h-18
q-13 0 -11 13z" />
    <glyph glyph-name="g" unicode="g" 
d="M35 168q0 100 60.5 171t143.5 71q30 0 56 -10.5t37 -20t16 -17.5l8 27q3 11 14 11h11q5 0 8 -4t2 -9l-62 -457q-14 -100 -61.5 -145t-115.5 -45q-74 0 -131 66q-9 10 1 20l9 9q10 10 21 -1q54 -54 103 -54q109 0 132 157l12 91q-12 -12 -42 -25t-69 -13q-69 0 -111 51
t-42 127zM79 173q0 -61 32.5 -101.5t86.5 -40.5q27 0 53.5 11.5t38 21t15.5 14.5l33 234q-1 3 -4.5 7.5t-12 13.5t-19.5 16.5t-28 13t-36 5.5q-68 0 -113.5 -57t-45.5 -138z" />
    <glyph glyph-name="h" unicode="h" horiz-adv-x="461" 
d="M38 13l95 674q2 13 15 13h17q13 0 11 -13l-48 -339q15 18 53.5 40t84.5 22q66 0 98.5 -47.5t19.5 -135.5l-30 -214q-2 -13 -15 -13h-18q-13 0 -11 13l30 214q10 69 -11.5 105t-69.5 36q-34 0 -68.5 -18t-48.5 -31.5t-21 -21.5l-40 -284q-2 -13 -15 -13h-19q-11 0 -9 13z
" />
    <glyph glyph-name="i" unicode="i" horiz-adv-x="193" 
d="M141 596q-12 0 -20 8.5t-8 20.5q0 16 11.5 27.5t26.5 11.5q12 0 20 -9t8 -22q0 -15 -11.5 -26t-26.5 -11zM37 13l53 374q2 13 15 13h18q13 0 11 -13l-53 -374q-2 -13 -14 -13h-21q-11 0 -9 13z" />
    <glyph glyph-name="j" unicode="j" horiz-adv-x="192" 
d="M141 596q-12 0 -20 8.5t-8 20.5q0 16 11.5 27.5t25.5 11.5q13 0 21 -9t8 -22q0 -15 -11.5 -26t-26.5 -11zM17 -137l74 524q2 13 14 13h17q13 0 11 -13l-73 -524q-25 -173 -155 -173q-59 0 -97 43q-6 7 0 14l12 15q7 11 16 0q33 -31 73 -31q90 0 108 132z" />
    <glyph glyph-name="k" unicode="k" horiz-adv-x="393" 
d="M38 13l95 674q2 13 13 13h19q13 0 11 -13l-63 -448l203 155q8 6 16 6h33q5 0 7 -2.5t1 -6.5t-5 -7l-218 -164l181 -203q5 -5 1.5 -11t-9.5 -6h-23q-12 0 -19 8l-173 199l-27 -194q-2 -13 -15 -13h-19q-11 0 -9 13z" />
    <glyph glyph-name="l" unicode="l" horiz-adv-x="194" 
d="M38 13l95 674q2 13 12 13h21q5 0 8.5 -4t2.5 -9l-95 -674q-2 -13 -15 -13h-20q-11 0 -9 13z" />
    <glyph glyph-name="m" unicode="m" horiz-adv-x="702" 
d="M38 13l52 374q2 13 15 13h12q9 0 9 -10l-1 -40q14 19 49.5 39.5t82.5 20.5q78 0 104 -70q15 20 57.5 45t90.5 25q69 0 98 -48.5t17 -134.5l-30 -214q-2 -13 -15 -13h-20q-11 0 -9 13l30 214q10 69 -10.5 105t-67.5 36q-64 0 -129 -69q4 -30 -2 -72l-30 -214
q-2 -13 -15 -13h-19q-12 0 -10 13l30 214q10 68 -10.5 104.5t-66.5 36.5q-34 0 -65.5 -16.5t-45 -31t-17.5 -22.5l-40 -285q-3 -13 -15 -13h-20q-11 0 -9 13z" />
    <glyph glyph-name="n" unicode="n" horiz-adv-x="460" 
d="M37 13l53 374q2 13 15 13h10q11 0 11 -10l-2 -40q15 18 54.5 39t86.5 21q71 0 100.5 -48.5t17.5 -134.5l-30 -214q-2 -13 -15 -13h-18q-13 0 -11 13l30 214q10 69 -11.5 105t-71.5 36q-32 0 -66 -17.5t-49 -31t-21 -21.5l-40 -285q-2 -13 -15 -13h-19q-11 0 -9 13z" />
    <glyph glyph-name="o" unicode="o" horiz-adv-x="458" 
d="M35 171q0 98 62.5 168.5t150.5 70.5q65 0 109 -53t44 -128q0 -98 -63 -168.5t-149 -70.5q-65 0 -109.5 53t-44.5 128zM79 175q0 -61 32 -102.5t83 -41.5q65 0 113.5 57.5t48.5 136.5q0 60 -32 101.5t-82 41.5q-65 0 -114 -57t-49 -136z" />
    <glyph glyph-name="p" unicode="p" horiz-adv-x="452" 
d="M82 31l-44 -318q-2 -13 -15 -13h-17q-13 0 -11 13l95 674q2 13 15 13h11q11 0 11 -10l-1 -27q8 8 21.5 17t42.5 19.5t58 10.5q64 0 105.5 -51.5t41.5 -126.5q0 -101 -63 -171.5t-150 -70.5q-38 0 -64.5 14t-35.5 27zM91 80q1 -4 10.5 -14.5t32.5 -22.5t49 -12
q70 0 118.5 57.5t48.5 140.5q0 60 -29.5 99.5t-81.5 39.5q-30 0 -59 -13.5t-41.5 -25t-15.5 -16.5z" />
    <glyph glyph-name="q" unicode="q" 
d="M35 168q0 100 59.5 171t144.5 71q30 0 56 -10.5t37 -20t16 -17.5l8 27q3 11 14 11h11q5 0 8 -4t2 -9l-94 -674q-2 -13 -14 -13h-18q-13 0 -11 13l45 315q-12 -12 -42 -25t-69 -13q-66 0 -109.5 51.5t-43.5 126.5zM79 173q0 -61 32.5 -101.5t86.5 -40.5q27 0 53.5 11.5
t38 21t15.5 14.5l33 234q-1 3 -4.5 7.5t-12 13.5t-19.5 16.5t-28 13t-36 5.5q-68 0 -113.5 -57t-45.5 -138z" />
    <glyph glyph-name="r" unicode="r" horiz-adv-x="305" 
d="M37 13l53 374q2 13 14 13h13q10 0 10 -11l-2 -38q12 18 44 38.5t76 20.5q29 0 53 -12q14 -7 8 -18l-10 -20q-6 -11 -17 -5q-22 13 -43 13q-31 0 -59.5 -17.5t-40 -31t-15.5 -21.5l-40 -285q-2 -13 -14 -13h-21q-11 0 -9 13z" />
    <glyph glyph-name="s" unicode="s" horiz-adv-x="346" 
d="M24 35q-7 7 -2 14l13 16q7 11 17 1q5 -6 14.5 -13.5t30.5 -15.5t44 -8q40 0 67.5 22.5t27.5 55.5q0 18 -13 33.5t-27.5 24t-47.5 24.5q-45 22 -69.5 46.5t-24.5 60.5q0 45 34 79.5t98 34.5q56 0 98 -32q10 -7 2 -18l-9 -13q-8 -11 -18 -3q-35 25 -77 25q-41 0 -63 -22
t-22 -48q0 -24 18.5 -40.5t55.5 -34.5q30 -14 42.5 -21t32 -21t27 -31t7.5 -39q0 -53 -41 -87.5t-101 -34.5q-66 0 -114 45z" />
    <glyph glyph-name="t" unicode="t" horiz-adv-x="309" 
d="M64 103l37 258h-44q-12 0 -9 13l2 16q1 10 13 10h43l15 109q2 13 15 13l17 1q13 0 11 -13l-15 -110h121q13 0 11 -13l-2 -13q-2 -13 -14 -13h-122l-36 -255q-6 -35 0 -54t31 -19q38 0 84 28q9 6 15 -4l7 -13q5 -10 -5 -17q-54 -37 -109 -37q-48 0 -61 29t-5 84z" />
    <glyph glyph-name="u" unicode="u" 
d="M172 -10q-71 0 -100 47.5t-17 134.5l30 215q2 13 14 13h19q13 0 11 -13l-31 -215q-10 -69 12 -105t71 -36q33 0 64.5 18t45 32t17.5 21l40 285q2 13 14 13h19q5 0 8 -4t2 -9l-52 -374q-2 -13 -15 -13h-12q-10 0 -10 12l2 36q-12 -17 -48.5 -37.5t-83.5 -20.5z" />
    <glyph glyph-name="v" unicode="v" horiz-adv-x="376" 
d="M131 -1l-100 386q-4 15 9 15h21q8 0 11 -9l79 -321h1l174 321q5 9 14 9h23q15 0 6 -15l-210 -386q-5 -9 -13 -9h-5q-8 0 -10 9z" />
    <glyph glyph-name="w" unicode="w" horiz-adv-x="556" 
d="M106 -1l-55 385q-4 16 10 16h20q10 0 11 -9l40 -301h2l147 311q4 9 12 9h4q8 0 9 -9l63 -311h1l123 301q4 9 14 9h23q13 0 6 -16l-163 -385q-5 -9 -12 -9h-4q-7 0 -8 9l-64 322h-1l-154 -322q-4 -9 -12 -9h-4q-6 0 -8 9z" />
    <glyph glyph-name="x" unicode="x" horiz-adv-x="387" 
d="M5 0q-6 0 -8 4.5t3 9.5l159 193l-99 179q-4 5 -1 9.5t9 4.5h25q7 0 12 -9l81 -151h1l123 151q8 9 16 9h28q6 0 8 -4.5t-3 -9.5l-151 -182l105 -190q4 -5 1 -9.5t-9 -4.5h-27q-6 0 -11 9l-86 164h-1l-131 -164q-7 -9 -16 -9h-28z" />
    <glyph glyph-name="y" unicode="y" horiz-adv-x="408" 
d="M145 4l-116 380q-4 16 10 16h21q8 0 11 -9l100 -339h2l186 339q5 9 14 9h22q7 0 9 -5t-2 -11l-376 -676q-5 -8 -14 -8h-21q-15 0 -7 14z" />
    <glyph glyph-name="z" unicode="z" horiz-adv-x="343" 
d="M8 0q-12 0 -10 11l2 11l255 337v1h-180q-12 0 -10 13l2 14q3 13 13 13h232q8 0 10.5 -6t-2.5 -13l-254 -339v-2h180q13 0 11 -13l-2 -14q-2 -13 -14 -13h-233z" />
    <glyph glyph-name="braceleft" unicode="{" horiz-adv-x="340" 
d="M52 -68l23 164q3 9 1 18t-1.5 15t-4 13t-5.5 10.5t-7 9t-8 7.5t-8 5.5t-7.5 4.5t-6.5 3l-6 3q-9 4 -7 12l2 11q1 7 11 10q23 7 47.5 29t29.5 61l22 160q9 66 33.5 115t58.5 75.5t69.5 39t72.5 12.5q6 0 9.5 -2.5t2.5 -7.5l-3 -17q-2 -8 -10 -9q-163 -13 -190 -207
l-22 -159q-4 -31 -21.5 -58t-31 -38t-20.5 -14v-1q52 -41 43 -101l-23 -163q-27 -194 132 -207q9 -2 8 -12l-2 -13q-2 -11 -15 -11q-38 0 -70 12.5t-58 39t-36.5 75.5t-1.5 115z" />
    <glyph glyph-name="bar" unicode="|" horiz-adv-x="190" 
d="M0 -288l145 1034q3 13 15 13h6q12 0 9 -13l-145 -1034q-2 -12 -14 -12h-5q-13 0 -11 12z" />
    <glyph glyph-name="braceright" unicode="}" horiz-adv-x="344" 
d="M150 -67l23 166q9 68 70 103v1q-6 3 -16 13.5t-19 37t-5 57.5l25 156q28 193 -132 206q-7 1 -7 9l3 18q1 10 15 10q82 0 132.5 -58t31.5 -184l-24 -160q-5 -39 12.5 -61.5t39.5 -28.5q8 -3 8 -10l-1 -13q0 -5 -11 -10q-12 -5 -19.5 -8.5t-22 -14t-24 -27.5t-12.5 -39
l-24 -164q-19 -126 -86.5 -184t-149.5 -58q-6 0 -9.5 3t-2.5 8l2 15q1 10 12 12q76 6 126.5 58.5t64.5 146.5z" />
    <glyph glyph-name="asciitilde" unicode="~" horiz-adv-x="532" 
d="M75 239l-11 10q-6 6 0 16q2 4 6 10.5t17 22.5t27 28.5t36 23t45 10.5q46 0 90 -54q36 -44 64 -44q50 0 96 76q6 10 17 3l15 -9q6 -5 0 -16q-2 -4 -6 -10.5t-16.5 -22.5t-27 -28.5t-36.5 -23t-45 -10.5q-43 0 -88 53q-1 1 -8 9t-9.5 11t-9.5 9t-12 8.5t-12.5 5t-14.5 2.5
q-24 0 -48 -18.5t-34 -32.5t-16 -26q-7 -13 -19 -3z" />
    <glyph glyph-name="uni00A0" unicode="&#xa0;" horiz-adv-x="243" 
d="M223 558l-141 77q-13 7 -6 18l12 20q6 11 16 3l136 -87q9 -6 4 -14l-8 -13q-5 -8 -13 -4z" />
    <glyph glyph-name="exclamdown" unicode="&#xa1;" horiz-adv-x="225" 
d="M118 330q-15 0 -24 10t-9 25q0 19 13 32t31 13q15 0 24.5 -10t9.5 -25q0 -19 -13.5 -32t-31.5 -13zM72 119q4 12 14 12h8q5 0 8.5 -3.5t2.5 -8.5l-47 -406q-1 -13 -16 -13h-26q-13 0 -11 13z" />
    <glyph glyph-name="cent" unicode="&#xa2;" horiz-adv-x="408" 
d="M116 5q-42 20 -67 64.5t-25 100.5q0 102 64.5 171t155.5 69q15 0 27 -3l15 40q4 10 14 9l7 -2q12 -3 7 -16l-15 -38q43 -15 69 -53q5 -8 -5 -18l-11 -10q-9 -8 -19 3q-29 29 -51 37l-121 -324q13 -3 29 -3q18 0 35 4.5t30.5 13t22.5 15t18 15.5t11 10q10 10 19 2l9 -8
q10 -8 2 -17q-20 -26 -62 -51.5t-90 -25.5q-21 0 -41 6l-34 -91q-4 -10 -15 -8l-7 1q-12 2 -6 15zM133 46l120 320q-8 2 -15 2q-67 0 -118 -56t-51 -136q0 -44 17.5 -79t46.5 -51z" />
    <glyph glyph-name="sterling" unicode="&#xa3;" horiz-adv-x="482" 
d="M50 23q62 118 71 198q4 34 4 81h-39q-12 0 -10 14l1 7q2 10 14 10h31q0 10 -4 54.5t-4 70.5q0 119 61 185.5t155 66.5q53 0 94 -25t52 -48q5 -12 -6 -22l-9 -9q-11 -11 -21 2q-4 7 -16 19.5t-41 26.5t-61 14q-67 0 -115.5 -56.5t-48.5 -151.5q0 -26 4 -72t4 -55h176
q13 0 11 -14l-1 -7q-1 -10 -14 -10h-169q1 -32 -6 -81q-15 -97 -57 -180h261q13 0 11 -14l-2 -15q-2 -12 -13 -12h-304q-12 0 -9 23z" />
    <glyph glyph-name="currency" unicode="&#xa4;" horiz-adv-x="462" 
d="M81 162l-9 10q-7 9 2 18l55 53q-19 35 -12.5 79t34.5 78l-40 52q-7 9 4 18l11 11q11 10 17 2l39 -53q36 27 74.5 26.5t66.5 -27.5l55 53q2 3 8 2.5t9 -5.5l7 -9q8 -11 -2 -19l-54 -51q19 -35 13 -78.5t-34 -77.5l38 -51q6 -9 -4 -19l-12 -11q-10 -9 -16 -1l-39 51
q-35 -26 -74.5 -26t-66.5 26l-51 -51q-10 -10 -19 0zM170 253q21 -27 54 -27.5t62 27.5t35.5 68t-14.5 68t-54 28t-62 -28q-30 -28 -36 -68t15 -68z" />
    <glyph glyph-name="yen" unicode="&#xa5;" horiz-adv-x="566" 
d="M104 139q-12 0 -10 12l1 8q2 11 13 11h132l13 88h-132q-12 0 -10 12l1 8q2 11 13 11h132l7 51l-179 345q-4 6 -1 10.5t11 4.5h28q9 0 12 -6l155 -309l246 309q4 6 13 6h38q8 0 9.5 -4.5t-3.5 -10.5l-282 -344l-7 -52h132q12 0 10 -13l-1 -7q-2 -11 -14 -11h-131l-13 -88
h132q12 0 10 -13l-1 -6q-2 -12 -13 -12h-132l-18 -126q-2 -13 -14 -13h-23q-12 0 -10 13l18 126h-132z" />
    <glyph glyph-name="brokenbar" unicode="&#xa6;" horiz-adv-x="364" 
d="M198 388q-13 0 -11 13l48 345q3 13 15 13h6q12 0 9 -13l-48 -345q-2 -13 -15 -13h-4zM139 58q2 13 14 13h6q12 0 10 -13l-49 -346q-2 -12 -14 -12h-5q-13 0 -11 12z" />
    <glyph glyph-name="section" unicode="&#xa7;" horiz-adv-x="495" 
d="M18 -114q11 11 19 1q6 -9 21.5 -24t51.5 -33t75 -18q61 0 110.5 39t49.5 100q0 50 -36.5 84t-109.5 63q-70 28 -108 67.5t-38 100.5q0 19 5 37.5t11.5 31.5t17.5 26.5t17.5 20.5t17 16.5t11.5 10.5q-1 2 -7.5 10.5t-11.5 17.5t-11.5 22t-10 29t-3.5 33q0 70 56 129.5
t163 59.5q38 0 75 -13t55 -25l17 -13q13 -7 1 -20l-12 -15q-9 -11 -20 -4l-6 4q-6 5 -13.5 10t-19 11t-24 11t-28.5 8.5t-31 3.5q-82 0 -124.5 -45t-42.5 -101q0 -87 123 -134q87 -33 130.5 -71.5t43.5 -100.5q0 -22 -7 -43t-19.5 -38t-22.5 -28t-22.5 -22.5t-14.5 -13.5
q0 -1 4.5 -6.5t7 -8.5t8 -11t8.5 -14t7.5 -15.5t6.5 -18.5t4 -20.5t2 -22.5q0 -79 -64 -131.5t-152 -52.5q-45 0 -87.5 18.5t-60 33.5t-27.5 27q-9 12 0 21zM220 143q51 -20 93 -49l15 14q15 13 24.5 24t19 32t9.5 43q0 48 -35.5 78t-111.5 61q-52 21 -74 38q-1 -1 -8 -7
t-11 -10t-11 -12t-11.5 -16t-9 -18t-7 -22.5t-2.5 -25.5q0 -47 30 -76t90 -54z" />
    <glyph glyph-name="dieresis" unicode="&#xa8;" horiz-adv-x="373" 
d="M311 596q-12 0 -20 8.5t-8 20.5q0 16 11 27.5t26 11.5q13 0 21.5 -8.5t8.5 -21.5q0 -16 -11.5 -27t-27.5 -11zM139 596q-13 0 -21 8.5t-8 20.5q0 16 11.5 27.5t26.5 11.5q28 0 28 -30q0 -16 -10.5 -27t-26.5 -11z" />
    <glyph glyph-name="copyright" unicode="&#xa9;" horiz-adv-x="765" 
d="M64 302q0 166 113.5 287t265.5 121q116 0 197 -92t81 -221q0 -166 -114 -286.5t-265 -120.5q-117 0 -197.5 91t-80.5 221zM103 307q0 -116 69.5 -197t174.5 -81q132 0 233 108t101 256q0 116 -69.5 196.5t-174.5 80.5q-131 0 -232.5 -107.5t-101.5 -255.5zM227 323
q0 89 59 152t141 63q62 0 99 -38q9 -9 -1 -19l-11 -11q-7 -9 -17 -1q-28 29 -75 29q-60 0 -105 -50.5t-45 -119.5q0 -54 30.5 -90.5t78.5 -36.5q42 0 82 31q13 8 18 -2l8 -12q5 -10 -4 -17q-47 -43 -112 -43q-60 0 -103 48.5t-43 116.5z" />
    <glyph glyph-name="ordfeminine" unicode="&#xaa;" horiz-adv-x="302" 
d="M142 403q-32 0 -52 22.5t-20 59.5q0 50 34 81.5t90 31.5q41 0 59 -11q9 47 1.5 69t-40.5 22q-12 0 -23.5 -1.5t-21 -4.5t-16 -5.5t-12.5 -5.5t-7 -3q-8 -3 -11 3t-3 14q0 9 9 13q37 22 92 22q37 0 53.5 -18t15.5 -48.5t-5 -69.5l-22 -154q-2 -10 -11 -10h-11q-8 0 -8 8
v23q-45 -38 -91 -38zM149 434q25 0 50 13.5t38 29.5l11 83q-25 11 -60 11q-37 0 -61.5 -23t-24.5 -57q0 -26 12.5 -41.5t34.5 -15.5z" />
    <glyph glyph-name="guillemotleft" unicode="&#xab;" horiz-adv-x="377" 
d="M251 42l-73 157q-4 9 3 17l116 154q7 9 17 9h16q6 0 7 -5.5t-4 -12.5l-103 -153l59 -157q3 -7 0.5 -12.5t-7.5 -5.5h-17q-9 0 -14 9zM107 42l-73 157q-4 9 3 17l116 154q7 9 17 9h16q6 0 7 -5.5t-4 -12.5l-103 -153l59 -157q3 -7 0.5 -12.5t-7.5 -5.5h-17q-9 0 -14 9z
" />
    <glyph glyph-name="logicalnot" unicode="&#xac;" horiz-adv-x="485" 
d="M61 327q-12 0 -10 13l2 16q2 13 14 13h346q11 0 9 -13l-28 -201q-2 -12 -14 -12h-14q-12 0 -10 12l24 172h-319z" />
    <glyph glyph-name="uni00AD" unicode="&#xad;" horiz-adv-x="314" 
d="M88 231q-12 0 -10 13l1 11q2 13 14 13h200q13 0 11 -13l-1 -11q-2 -13 -15 -13h-200z" />
    <glyph glyph-name="registered" unicode="&#xae;" horiz-adv-x="765" 
d="M64 302q0 166 113.5 287t265.5 121q116 0 197 -92t81 -221q0 -166 -114 -286.5t-265 -120.5q-117 0 -197.5 91t-80.5 221zM103 307q0 -116 69.5 -197t174.5 -81q132 0 233 108t101 256q0 116 -69.5 196.5t-174.5 80.5q-131 0 -232.5 -107.5t-101.5 -255.5zM253 180
l48 343q2 13 14 13h131q40 0 69.5 -25t29.5 -71q0 -57 -30.5 -89t-69.5 -40l43 -128q2 -5 -0.5 -10t-9.5 -5h-21q-9 0 -12 10l-40 130h-94l-18 -128q-2 -13 -14 -13h-16q-12 0 -10 13zM316 345h103q34 0 59.5 25t25.5 66q0 64 -76 64h-90z" />
    <glyph glyph-name="macron" unicode="&#xaf;" horiz-adv-x="373" 
d="M50 595q-13 0 -11 12l2 13q2 13 14 13h242q13 0 11 -13l-2 -13q-2 -12 -14 -12h-242z" />
    <glyph glyph-name="degree" unicode="&#xb0;" horiz-adv-x="325" 
d="M184 435q-47 0 -76.5 34.5t-29.5 84.5q0 65 43 111t101 46q45 0 75.5 -34.5t30.5 -85.5q0 -63 -44 -109.5t-100 -46.5zM189 470q39 0 71 35t32 81q0 36 -22 62.5t-53 26.5q-40 0 -72.5 -34.5t-32.5 -80.5q0 -37 22 -63.5t55 -26.5z" />
    <glyph glyph-name="plusminus" unicode="&#xb1;" horiz-adv-x="571" 
d="M276 243q-12 0 -10 13l18 126h-152q-5 0 -8.5 4t-2.5 9l3 15q2 13 13 13h152l24 168q2 12 14 12h19q12 0 10 -12l-24 -168h152q11 0 9 -13l-3 -15q-2 -13 -11 -13h-152l-18 -126q-2 -13 -14 -13h-19zM88 74q-5 0 -8 4t-2 9l2 15q2 13 14 13h347q10 0 8 -13l-2 -15
q-2 -13 -12 -13h-347z" />
    <glyph glyph-name="twosuperior" unicode="&#xb2;" horiz-adv-x="295" 
d="M96 504q-7 0 -7 8l1 9l141 130q36 34 41 66q3 24 -10.5 42t-43.5 18q-29 0 -63 -34q-6 -6 -10 0l-12 12q-4 4 1 10q4 5 11.5 12.5t31.5 20t48 12.5q42 0 64.5 -26.5t17.5 -63.5q-6 -47 -52 -88l-107 -97h125q7 0 6 -8l-2 -15q0 -8 -8 -8h-173z" />
    <glyph glyph-name="threesuperior" unicode="&#xb3;" horiz-adv-x="292" 
d="M178 494q-55 0 -88 41q-5 5 2 11l11 11q7 7 11 0q1 -1 4.5 -5t6 -6.5t8.5 -7t12.5 -7t16 -4.5t20.5 -2q30 0 50.5 16t24.5 41q3 24 -12 40.5t-50 16.5h-41q-8 0 -6 10l2 12q0 8 8 8h41q61 0 70 55q3 25 -11 39.5t-40 14.5q-32 0 -68 -30q-5 -7 -9 -1l-10 11q-4 6 1 11
q4 5 11.5 11.5t32 18t49.5 11.5q37 0 61.5 -22.5t19.5 -59.5q-3 -23 -20 -43t-37 -29q6 -2 14.5 -7t21 -24.5t8.5 -44.5q-5 -38 -35.5 -62t-79.5 -24z" />
    <glyph glyph-name="acute" unicode="&#xb4;" horiz-adv-x="272" 
d="M106 559q-12 -5 -15 3l-4 11q-3 8 8 14l157 90q12 6 16 -3l9 -21q3 -10 -6 -15z" />
    <glyph glyph-name="mu" unicode="&#xb5;" horiz-adv-x="467" 
d="M83 29l-45 -316q-2 -13 -16 -13h-15q-13 0 -11 13l95 674q2 13 14 13h19q13 0 11 -13l-31 -215q-10 -69 12 -104.5t71 -35.5q33 0 64.5 17.5t45 31.5t17.5 21l40 285q2 13 14 13h19q5 0 8 -4t2 -9l-52 -374q-2 -13 -15 -13h-12q-10 0 -10 12l2 36q-12 -17 -48.5 -37.5
t-83.5 -20.5q-64 0 -95 39z" />
    <glyph glyph-name="paragraph" unicode="&#xb6;" horiz-adv-x="621" 
d="M189 -287l80 570h-65q-78 0 -119 62t-29 145q12 87 72 148.5t135 61.5h385q12 0 10 -13l-2 -12q-2 -13 -14 -13h-91l-133 -949q-2 -13 -14 -13h-15q-10 0 -9 13l133 949h-153l-133 -949q-2 -13 -13 -13h-15q-11 0 -10 13z" />
    <glyph glyph-name="periodcentered" unicode="&#xb7;" horiz-adv-x="231" 
d="M114 221q-15 0 -25 10.5t-10 24.5q0 19 14 32t32 13q15 0 24 -10t9 -25q0 -19 -13 -32t-31 -13z" />
    <glyph glyph-name="cedilla" unicode="&#xb8;" horiz-adv-x="223" 
d="M92 0h18h18l-8 -54q34 -4 59 -26.5t25 -57.5q0 -46 -29 -78t-75 -32q-25 0 -43 10.5t-23 23.5t3 18l10 8q7 3 8.5 2t6.5 -8q14 -18 43 -18q27 0 43.5 20t16.5 48q0 49 -73 60q-12 3 -10 13z" />
    <glyph glyph-name="onesuperior" unicode="&#xb9;" horiz-adv-x="182" 
d="M129 504q-8 0 -6 8l34 239l-47 -26q-6 -3 -8 2l-4 13q-2 6 4 11l76 49h11q9 0 8 -8l-39 -280q-2 -8 -8 -8h-21z" />
    <glyph glyph-name="ordmasculine" unicode="&#xba;" horiz-adv-x="309" 
d="M169 394q-51 0 -74.5 42t-13.5 115q11 74 46 116.5t87 42.5t75.5 -42t12.5 -117q-10 -73 -45.5 -115t-87.5 -42zM174 427q75 0 92 124q18 127 -57 127q-36 0 -60 -33.5t-32 -93.5q-17 -124 57 -124z" />
    <glyph glyph-name="guillemotright" unicode="&#xbb;" horiz-adv-x="376" 
d="M168 33q-13 0 -2 18l103 157l-60 153q-3 7 -0.5 12.5t8.5 5.5h16q9 0 14 -9l73 -154q4 -7 -2 -17l-117 -157q-7 -9 -17 -9h-16zM24 33q-13 0 -2 18l103 157l-60 153q-3 7 -0.5 12.5t8.5 5.5h16q9 0 14 -9l73 -154q4 -7 -2 -17l-117 -157q-7 -9 -17 -9h-16z" />
    <glyph glyph-name="onequarter" unicode="&#xbc;" horiz-adv-x="616" 
d="M39 14l435 679q4 7 14 7h18q6 0 8 -4t-2 -10l-433 -676q-7 -10 -17 -10h-17q-6 0 -8 4t2 10zM131 404q-8 0 -6 8l34 239l-47 -26q-6 -3 -8 2l-4 13q-2 6 4 11l76 49h11q9 0 8 -8l-39 -280q-2 -8 -8 -8h-21zM294 78l1 9l199 209h13q3 0 6 -2.5t2 -6.5l-26 -185h35
q9 0 7 -8l-2 -16q-2 -8 -9 -8h-35l-9 -61q-2 -9 -10 -9h-19q-3 0 -6 2.5t-2 6.5l8 60h-147q-8 0 -6 9zM353 103h99l18 126z" />
    <glyph glyph-name="onehalf" unicode="&#xbd;" horiz-adv-x="623" 
d="M39 14l435 679q4 7 14 7h18q6 0 8 -4t-2 -10l-433 -676q-7 -10 -17 -10h-17q-6 0 -8 4t2 10zM131 404q-8 0 -6 8l34 239l-47 -26q-6 -3 -8 2l-4 13q-2 6 4 11l76 49h11q9 0 8 -8l-39 -280q-2 -8 -8 -8h-21zM326 8l1 9l141 130q36 34 41 66q3 24 -10.5 42t-43.5 18
q-29 0 -63 -34q-6 -6 -10 0l-12 12q-4 4 1 10q4 5 11.5 12.5t31.5 20t48 12.5q42 0 64.5 -26.5t17.5 -63.5q-6 -47 -52 -88l-107 -97h125q7 0 6 -8l-2 -15q0 -8 -8 -8h-173q-7 0 -7 8z" />
    <glyph glyph-name="threequarters" unicode="&#xbe;" horiz-adv-x="686" 
d="M158 394q-55 0 -88 41q-5 5 2 11l11 11q7 7 11 0q1 -1 4.5 -5t6 -6.5t8.5 -7t12.5 -7t16 -4.5t20.5 -2q30 0 50.5 16t24.5 41q3 24 -12 40.5t-50 16.5h-41q-8 0 -6 10l2 12q0 8 8 8h41q61 0 70 55q3 25 -11 39.5t-40 14.5q-32 0 -68 -30q-5 -7 -9 -1l-10 11q-4 6 1 11
q4 5 11.5 11.5t32 18t49.5 11.5q37 0 61.5 -22.5t19.5 -59.5q-3 -23 -20 -43t-37 -29q6 -2 14.5 -7t21 -24.5t8.5 -44.5q-5 -38 -35.5 -62t-79.5 -24zM109 14l435 679q4 7 14 7h18q6 0 8 -4t-2 -10l-433 -676q-7 -10 -17 -10h-17q-6 0 -8 4t2 10zM364 78l1 9l199 209h13
q3 0 6 -2.5t2 -6.5l-26 -185h35q9 0 7 -8l-2 -16q-2 -8 -9 -8h-35l-9 -61q-2 -9 -10 -9h-19q-3 0 -6 2.5t-2 6.5l8 60h-147q-8 0 -6 9zM423 103h99l18 126z" />
    <glyph glyph-name="questiondown" unicode="&#xbf;" horiz-adv-x="237" 
d="M127 330q-15 0 -25 10t-10 25q0 18 14 31.5t32 13.5q14 0 23.5 -10.5t9.5 -24.5q0 -19 -13 -32t-31 -13zM26 -5q41 32 45 61l8 57q2 14 14 14h17q13 0 12 -14l-8 -58q-6 -50 -64 -92q-4 -3 -22.5 -16.5t-24.5 -18.5t-20 -17t-20 -20.5t-14 -21t-11 -25.5t-3 -27
q0 -34 23 -60t64 -26q35 0 66.5 15.5t44.5 28.5t21 25q6 10 17 2l14 -10q9 -7 1 -19l-6 -9t-19.5 -20t-33 -25t-47.5 -20t-63 -9q-59 0 -93.5 35t-34.5 85q0 23 7.5 45.5t16.5 37.5t27 33t28.5 26t31.5 23.5t26 19.5z" />
    <glyph glyph-name="Agrave" unicode="&#xc0;" horiz-adv-x="601" 
d="M9 0h-29q-12 0 -5 14l375 694q4 7 13 7h3q10 0 12 -7l177 -696q4 -12 -11 -12h-26q-11 0 -13 9l-46 184h-338l-96 -184q-5 -9 -16 -9zM144 232h304l-93 403h-3zM445 783l-142 79q-8 5 -1 15l12 19q6 10 17 3l132 -90q8 -5 4 -14l-6 -9q-6 -7 -16 -3z" />
    <glyph glyph-name="Aacute" unicode="&#xc1;" horiz-adv-x="601" 
d="M9 0h-29q-12 0 -5 14l375 694q4 7 13 7h3q10 0 12 -7l177 -696q4 -12 -11 -12h-26q-11 0 -13 9l-46 184h-338l-96 -184q-5 -9 -16 -9zM144 232h304l-93 403h-3zM309 781q-12 -5 -15 3l-4 11q-3 8 8 14l157 90q12 6 16 -3l9 -21q3 -10 -6 -15z" />
    <glyph glyph-name="Acircumflex" unicode="&#xc2;" horiz-adv-x="601" 
d="M9 0h-29q-12 0 -5 14l375 694q4 7 13 7h3q10 0 12 -7l177 -696q4 -12 -11 -12h-26q-11 0 -13 9l-46 184h-338l-96 -184q-5 -9 -16 -9zM144 232h304l-93 403h-3zM272 768q-9 -6 -15 2l-7 11q-4 7 4 14l123 98q6 5 12 5q4 0 9 -5l96 -98q8 -8 2 -14l-7 -8q-8 -8 -15 -2
l-89 81z" />
    <glyph glyph-name="Atilde" unicode="&#xc3;" horiz-adv-x="601" 
d="M9 0h-29q-12 0 -5 14l375 694q4 7 13 7h3q10 0 12 -7l177 -696q4 -12 -11 -12h-26q-11 0 -13 9l-46 184h-338l-96 -184q-5 -9 -16 -9zM144 232h304l-93 403h-3zM261 799l-11 5q-9 3 -4 14q0 1 4.5 10.5t7.5 15t9.5 16t13.5 17t15.5 13.5t20 10.5t23.5 3.5q21 0 34.5 -14
t19 -31.5t15 -31.5t22.5 -14q33 0 56 59q5 12 15 7l12 -4q7 -5 4 -13q-32 -86 -93 -86q-20 0 -34 14.5t-20 31.5t-15.5 31.5t-21.5 14.5q-34 0 -59 -63q-4 -11 -14 -6z" />
    <glyph glyph-name="Adieresis" unicode="&#xc4;" horiz-adv-x="601" 
d="M9 0h-29q-12 0 -5 14l375 694q4 7 13 7h3q10 0 12 -7l177 -696q4 -12 -11 -12h-26q-11 0 -13 9l-46 184h-338l-96 -184q-5 -9 -16 -9zM144 232h304l-93 403h-3zM470 801q-12 0 -20 8.5t-8 20.5q0 16 11.5 27.5t26.5 11.5q13 0 21 -8.5t8 -21.5q0 -16 -11.5 -27t-27.5 -11
zM282 801q-12 0 -20 8.5t-8 20.5q0 16 11.5 27.5t26.5 11.5q13 0 21 -8.5t8 -21.5q0 -16 -11.5 -27t-27.5 -11z" />
    <glyph glyph-name="Aring" unicode="&#xc5;" horiz-adv-x="601" 
d="M9 0h-29q-12 0 -5 14l375 694q4 7 13 7h3q10 0 12 -7l177 -696q4 -12 -11 -12h-26q-11 0 -13 9l-46 184h-338l-96 -184q-5 -9 -16 -9zM144 232h304l-93 403h-3zM372 754q-36 0 -59.5 26t-23.5 65q0 51 32.5 86.5t80.5 35.5q36 0 59 -26.5t23 -65.5q0 -51 -32 -86t-80 -35
zM377 786q31 0 52 25t21 59q0 26 -15 45t-37 19q-32 0 -54 -24.5t-22 -58.5q0 -27 15.5 -46t39.5 -19z" />
    <glyph glyph-name="AE" unicode="&#xc6;" horiz-adv-x="835" 
d="M-6 0h-29q-14 0 -1 17l472 666q13 17 28 17h352q13 0 11 -13l-2 -16q-2 -13 -15 -13h-328l-39 -277h282q18 0 15 -15l-2 -13q-2 -15 -16 -15h-285l-41 -296h328q14 0 11 -15l-3 -14q-2 -13 -14 -13h-359q-13 0 -11 13l25 180h-235l-127 -184q-8 -9 -17 -9zM166 232h213
l53 382z" />
    <glyph glyph-name="Ccedilla" unicode="&#xc7;" horiz-adv-x="661" 
d="M291 -71l9 65q-103 18 -168.5 104t-65.5 203q0 171 112.5 290t266.5 119q128 0 207 -93q8 -9 -1 -18l-17 -15q-9 -7 -17 1q-66 80 -177 80q-128 0 -225.5 -107t-97.5 -252q0 -113 66 -190t168 -77t195 84q10 8 16 2l19 -21q7 -8 -2 -17q-106 -97 -232 -97q-2 0 -6 0.5
t-6 0.5l-6 -45q34 -4 59 -26.5t25 -57.5q0 -46 -29 -78t-75 -32q-25 0 -43 10.5t-23 23.5t3 18l10 8q7 3 8.5 2t6.5 -8q13 -18 43 -18q27 0 43.5 20t16.5 48q0 49 -73 60q-12 3 -10 13z" />
    <glyph glyph-name="Egrave" unicode="&#xc8;" horiz-adv-x="555" 
d="M67 13l95 674q2 13 14 13h360q13 0 11 -13l-2 -17q-2 -13 -15 -13h-324l-39 -276h280q13 0 11 -13l-2 -17q-2 -13 -15 -13h-280l-42 -296h325q13 0 11 -13l-3 -16q-2 -13 -14 -13h-360q-13 0 -11 13zM431 783l-142 79q-8 5 -1 15l12 19q6 10 17 3l132 -90q8 -5 4 -14
l-6 -9q-6 -7 -16 -3z" />
    <glyph glyph-name="Eacute" unicode="&#xc9;" horiz-adv-x="555" 
d="M67 13l95 674q2 13 14 13h360q13 0 11 -13l-2 -17q-2 -13 -15 -13h-324l-39 -276h280q13 0 11 -13l-2 -17q-2 -13 -15 -13h-280l-42 -296h325q13 0 11 -13l-3 -16q-2 -13 -14 -13h-360q-13 0 -11 13zM295 781q-12 -5 -15 3l-4 11q-3 8 8 14l157 90q12 6 16 -3l9 -21
q3 -10 -6 -15z" />
    <glyph glyph-name="Ecircumflex" unicode="&#xca;" horiz-adv-x="555" 
d="M67 13l95 674q2 13 14 13h360q13 0 11 -13l-2 -17q-2 -13 -15 -13h-324l-39 -276h280q13 0 11 -13l-2 -17q-2 -13 -15 -13h-280l-42 -296h325q13 0 11 -13l-3 -16q-2 -13 -14 -13h-360q-13 0 -11 13zM254 768q-9 -6 -15 2l-7 11q-4 7 4 14l123 98q6 5 12 5q4 0 9 -5
l96 -98q8 -8 2 -14l-7 -8q-8 -8 -15 -2l-89 81z" />
    <glyph glyph-name="Edieresis" unicode="&#xcb;" horiz-adv-x="555" 
d="M67 13l95 674q2 13 14 13h360q13 0 11 -13l-2 -17q-2 -13 -15 -13h-324l-39 -276h280q13 0 11 -13l-2 -17q-2 -13 -15 -13h-280l-42 -296h325q13 0 11 -13l-3 -16q-2 -13 -14 -13h-360q-13 0 -11 13zM456 801q-12 0 -20 8.5t-8 20.5q0 16 11.5 27.5t26.5 11.5
q13 0 21 -8.5t8 -21.5q0 -16 -11.5 -27t-27.5 -11zM268 801q-12 0 -20 8.5t-8 20.5q0 16 11.5 27.5t26.5 11.5q13 0 21 -8.5t8 -21.5q0 -16 -11.5 -27t-27.5 -11z" />
    <glyph glyph-name="Igrave" unicode="&#xcc;" horiz-adv-x="256" 
d="M67 13l94 674q2 13 15 13h22q13 0 11 -13l-94 -674q-3 -13 -16 -13h-21q-13 0 -11 13zM267 783l-142 79q-8 5 -1 15l12 19q6 10 17 3l132 -90q8 -5 4 -14l-6 -9q-6 -7 -16 -3z" />
    <glyph glyph-name="Iacute" unicode="&#xcd;" horiz-adv-x="256" 
d="M67 13l94 674q2 13 15 13h22q13 0 11 -13l-94 -674q-3 -13 -16 -13h-21q-13 0 -11 13zM129 781q-12 -5 -15 3l-4 11q-3 8 8 14l157 90q12 6 16 -3l9 -21q3 -10 -6 -15z" />
    <glyph glyph-name="Icircumflex" unicode="&#xce;" horiz-adv-x="256" 
d="M67 13l94 674q2 13 15 13h22q13 0 11 -13l-94 -674q-3 -13 -16 -13h-21q-13 0 -11 13zM93 768q-9 -6 -15 2l-7 11q-4 7 4 14l123 98q6 5 12 5q4 0 9 -5l96 -98q8 -8 2 -14l-7 -8q-8 -8 -15 -2l-89 81z" />
    <glyph glyph-name="Idieresis" unicode="&#xcf;" horiz-adv-x="256" 
d="M67 13l94 674q2 13 15 13h22q13 0 11 -13l-94 -674q-3 -13 -16 -13h-21q-13 0 -11 13zM293 801q-12 0 -20 8.5t-8 20.5q0 16 11.5 27.5t26.5 11.5q13 0 21 -8.5t8 -21.5q0 -16 -11.5 -27t-27.5 -11zM105 801q-12 0 -20 8.5t-8 20.5q0 16 11.5 27.5t26.5 11.5
q13 0 21 -8.5t8 -21.5q0 -16 -11.5 -27t-27.5 -11z" />
    <glyph glyph-name="Eth" unicode="&#xd0;" horiz-adv-x="694" 
d="M69 13l45 319h-31q-12 0 -10 13l1 7q2 11 14 11h30l46 324q2 13 13 13h200q117 0 194.5 -88.5t77.5 -215.5q0 -161 -112.5 -278.5t-257.5 -117.5h-200q-12 0 -10 13zM120 43h157q130 0 225 102t95 249q0 112 -65.5 187.5t-168.5 75.5h-157l-41 -294h219q13 0 11 -11
l-1 -8q-2 -12 -14 -12h-219z" />
    <glyph glyph-name="Ntilde" unicode="&#xd1;" horiz-adv-x="713" 
d="M67 13l96 684q3 13 16 13h15l343 -621h2l82 598q2 13 15 13h20q13 0 11 -13l-96 -684q-1 -13 -17 -13h-16l-341 623h-1l-84 -600q-2 -13 -25 -13h-9q-13 0 -11 13zM317 799l-11 5q-9 3 -4 14q0 1 4.5 10.5t7.5 15t9.5 16t13.5 17t15.5 13.5t20 10.5t23.5 3.5
q21 0 34.5 -14t19 -31.5t15 -31.5t22.5 -14q33 0 56 59q5 12 15 7l12 -4q7 -5 4 -13q-32 -86 -93 -86q-20 0 -34 14.5t-20 31.5t-15.5 31.5t-21.5 14.5q-34 0 -59 -63q-4 -11 -14 -6z" />
    <glyph glyph-name="Ograve" unicode="&#xd2;" horiz-adv-x="767" 
d="M65 300q0 169 111.5 289.5t267.5 120.5q118 0 198 -91t80 -222q0 -169 -111.5 -288t-267.5 -119q-118 0 -198 90t-80 220zM111 306q0 -114 67.5 -193t170.5 -79q129 0 228 105.5t99 251.5q0 115 -67.5 195t-170.5 80q-130 0 -228.5 -106.5t-98.5 -253.5zM534 783l-142 79
q-8 5 -1 15l12 19q6 10 17 3l132 -90q8 -5 4 -14l-6 -9q-6 -7 -16 -3z" />
    <glyph glyph-name="Oacute" unicode="&#xd3;" horiz-adv-x="767" 
d="M65 300q0 169 111.5 289.5t267.5 120.5q118 0 198 -91t80 -222q0 -169 -111.5 -288t-267.5 -119q-118 0 -198 90t-80 220zM111 306q0 -114 67.5 -193t170.5 -79q129 0 228 105.5t99 251.5q0 115 -67.5 195t-170.5 80q-130 0 -228.5 -106.5t-98.5 -253.5zM396 781
q-12 -5 -15 3l-4 11q-3 8 8 14l157 90q12 6 16 -3l9 -21q3 -10 -6 -15z" />
    <glyph glyph-name="Ocircumflex" unicode="&#xd4;" horiz-adv-x="767" 
d="M65 300q0 169 111.5 289.5t267.5 120.5q118 0 198 -91t80 -222q0 -169 -111.5 -288t-267.5 -119q-118 0 -198 90t-80 220zM111 306q0 -114 67.5 -193t170.5 -79q129 0 228 105.5t99 251.5q0 115 -67.5 195t-170.5 80q-130 0 -228.5 -106.5t-98.5 -253.5zM360 768
q-9 -6 -15 2l-7 11q-4 7 4 14l123 98q6 5 12 5q4 0 9 -5l96 -98q8 -8 2 -14l-7 -8q-8 -8 -15 -2l-89 81z" />
    <glyph glyph-name="Otilde" unicode="&#xd5;" horiz-adv-x="767" 
d="M65 300q0 169 111.5 289.5t267.5 120.5q118 0 198 -91t80 -222q0 -169 -111.5 -288t-267.5 -119q-118 0 -198 90t-80 220zM111 306q0 -114 67.5 -193t170.5 -79q129 0 228 105.5t99 251.5q0 115 -67.5 195t-170.5 80q-130 0 -228.5 -106.5t-98.5 -253.5zM350 799l-11 5
q-9 3 -4 14q0 1 4.5 10.5t7.5 15t9.5 16t13.5 17t15.5 13.5t20 10.5t23.5 3.5q21 0 34.5 -14t19 -31.5t15 -31.5t22.5 -14q33 0 56 59q5 12 15 7l12 -4q7 -5 4 -13q-32 -86 -93 -86q-20 0 -34 14.5t-20 31.5t-15.5 31.5t-21.5 14.5q-35 0 -59 -63q-4 -11 -14 -6z" />
    <glyph glyph-name="Odieresis" unicode="&#xd6;" horiz-adv-x="767" 
d="M65 300q0 169 111.5 289.5t267.5 120.5q118 0 198 -91t80 -222q0 -169 -111.5 -288t-267.5 -119q-118 0 -198 90t-80 220zM111 306q0 -114 67.5 -193t170.5 -79q129 0 228 105.5t99 251.5q0 115 -67.5 195t-170.5 80q-130 0 -228.5 -106.5t-98.5 -253.5zM559 801
q-12 0 -20 8.5t-8 20.5q0 16 11.5 27.5t26.5 11.5q13 0 21 -8.5t8 -21.5q0 -16 -11.5 -27t-27.5 -11zM371 801q-12 0 -20 8.5t-8 20.5q0 16 11.5 27.5t26.5 11.5q13 0 21 -8.5t8 -21.5q0 -16 -11.5 -27t-27.5 -11z" />
    <glyph glyph-name="multiply" unicode="&#xd7;" horiz-adv-x="460" 
d="M95 196l-13 13q-8 8 3 18l125 122l-89 120q-8 11 2 19l11 9q10 10 18 0l90 -120l125 123q9 8 18 -1l12 -13q8 -8 -2 -18l-126 -123l90 -120q8 -10 -3 -18l-12 -9q-10 -8 -16 -1l-91 121l-126 -122q-9 -7 -16 0z" />
    <glyph glyph-name="Oslash" unicode="&#xd8;" horiz-adv-x="766" 
d="M49 28q-6 10 2 18l65 62q-51 77 -51 192q0 168 114 289t265 121q128 0 207 -98l68 64q10 10 17 0l3 -4q7 -9 -3 -18l-67 -64q53 -82 53 -194q0 -166 -114.5 -286t-265.5 -120q-131 0 -208 96l-66 -62q-8 -10 -16 0zM152 140l464 441q-69 85 -179 85q-129 0 -228.5 -107
t-99.5 -254q0 -99 43 -165zM170 118q67 -84 179 -84q130 0 229.5 106t99.5 252q0 99 -45 167z" />
    <glyph glyph-name="Ugrave" unicode="&#xd9;" horiz-adv-x="666" 
d="M94 255l61 432q2 13 14 13h22q13 0 11 -13l-60 -427q-15 -99 27.5 -161.5t129.5 -62.5t147 62.5t74 160.5l61 428q2 13 15 13h21q5 0 8 -4t2 -9l-60 -432q-17 -117 -92 -191t-183 -74q-102 0 -158 75t-40 190zM468 783l-142 79q-8 5 -1 15l12 19q6 10 17 3l132 -90
q8 -5 4 -14l-6 -9q-6 -7 -16 -3z" />
    <glyph glyph-name="Uacute" unicode="&#xda;" horiz-adv-x="666" 
d="M94 255l61 432q2 13 14 13h22q13 0 11 -13l-60 -427q-15 -99 27.5 -161.5t129.5 -62.5t147 62.5t74 160.5l61 428q2 13 15 13h21q5 0 8 -4t2 -9l-60 -432q-17 -117 -92 -191t-183 -74q-102 0 -158 75t-40 190zM330 781q-12 -5 -15 3l-4 11q-3 8 8 14l157 90q12 6 16 -3
l9 -21q3 -10 -6 -15z" />
    <glyph glyph-name="Ucircumflex" unicode="&#xdb;" horiz-adv-x="666" 
d="M94 255l61 432q2 13 14 13h22q13 0 11 -13l-60 -427q-15 -99 27.5 -161.5t129.5 -62.5t147 62.5t74 160.5l61 428q2 13 15 13h21q5 0 8 -4t2 -9l-60 -432q-17 -117 -92 -191t-183 -74q-102 0 -158 75t-40 190zM295 768q-9 -6 -15 2l-7 11q-4 7 4 14l123 98q6 5 12 5
q4 0 9 -5l96 -98q8 -8 2 -14l-7 -8q-8 -8 -15 -2l-89 81z" />
    <glyph glyph-name="Udieresis" unicode="&#xdc;" horiz-adv-x="666" 
d="M94 255l61 432q2 13 14 13h22q13 0 11 -13l-60 -427q-15 -99 27.5 -161.5t129.5 -62.5t147 62.5t74 160.5l61 428q2 13 15 13h21q5 0 8 -4t2 -9l-60 -432q-17 -117 -92 -191t-183 -74q-102 0 -158 75t-40 190zM495 801q-12 0 -20 8.5t-8 20.5q0 16 11.5 27.5t26.5 11.5
q13 0 21 -8.5t8 -21.5q0 -16 -11.5 -27t-27.5 -11zM307 801q-12 0 -20 8.5t-8 20.5q0 16 11.5 27.5t26.5 11.5q13 0 21 -8.5t8 -21.5q0 -16 -11.5 -27t-27.5 -11z" />
    <glyph glyph-name="Yacute" unicode="&#xdd;" horiz-adv-x="512" 
d="M192 13l45 327l-181 347q-6 13 9 13h28q8 0 11 -6l160 -307l248 307q6 6 14 6h33q8 0 10 -4.5t-3 -10.5l-282 -344l-46 -328q-2 -13 -15 -13h-20q-12 0 -11 13zM252 781q-12 -5 -15 3l-4 11q-3 8 8 14l157 90q12 6 16 -3l9 -21q3 -10 -6 -15z" />
    <glyph glyph-name="Thorn" unicode="&#xde;" horiz-adv-x="554" 
d="M67 13l95 674q2 13 14 13h22q13 0 11 -13l-16 -111h161q71 0 122.5 -57.5t51.5 -136.5q0 -105 -71 -180.5t-166 -75.5h-161l-16 -113q-2 -13 -18 -13h-18q-13 0 -11 13zM136 171h158q72 0 129 61.5t57 144.5q0 64 -39 108t-97 44h-157z" />
    <glyph glyph-name="germandbls" unicode="&#xdf;" horiz-adv-x="511" 
d="M190 28l7 15q7 14 16 8q39 -22 73 -22q51 0 86 32t35 88q0 30 -16.5 60t-35.5 50.5t-35.5 44t-16.5 41.5q0 19 17.5 47.5t39 54.5t39 61t17.5 65q0 47 -27.5 72t-67.5 25q-147 0 -183 -260l-99 -697q-2 -13 -16 -13h-19q-11 0 -9 13l99 697q21 148 80.5 224t153.5 76
q55 0 94.5 -34.5t39.5 -94.5q0 -52 -28 -99.5t-55.5 -81t-27.5 -50.5q0 -11 16 -31t35 -40.5t35 -54t16 -68.5q0 -82 -49.5 -124t-122.5 -42q-52 0 -84 17q-13 6 -7 21z" />
    <glyph glyph-name="agrave" unicode="&#xe0;" 
d="M335 560l-142 79q-8 5 -1 15l12 19q7 11 17 3l132 -90q8 -5 4 -14l-6 -9q-6 -7 -16 -3zM391 387l-52 -374q-2 -13 -14 -13h-11q-14 0 -12 14l2 34q-15 -18 -50 -38t-80 -20q-61 0 -100 51.5t-39 126.5q0 100 60.5 171t143.5 71q30 0 56 -10.5t37 -20t16 -17.5l8 27
q3 11 14 11h11q5 0 8 -4t2 -9zM308 103l30 210q-3 7 -11.5 17t-33.5 24t-55 14q-68 0 -113.5 -56.5t-45.5 -137.5q0 -60 28.5 -101.5t75.5 -41.5q33 0 64 18t44.5 33t16.5 21z" />
    <glyph glyph-name="aacute" unicode="&#xe1;" 
d="M197 559q-12 -5 -15 3l-4 11q-3 8 8 14l157 90q12 6 16 -3l9 -21q3 -10 -6 -15zM391 387l-52 -374q-2 -13 -14 -13h-11q-14 0 -12 14l2 34q-15 -18 -50 -38t-80 -20q-61 0 -100 51.5t-39 126.5q0 100 60.5 171t143.5 71q30 0 56 -10.5t37 -20t16 -17.5l8 27q3 11 14 11
h11q5 0 8 -4t2 -9zM308 103l30 210q-3 7 -11.5 17t-33.5 24t-55 14q-68 0 -113.5 -56.5t-45.5 -137.5q0 -60 28.5 -101.5t75.5 -41.5q33 0 64 18t44.5 33t16.5 21z" />
    <glyph glyph-name="acircumflex" unicode="&#xe2;" 
d="M147 552l-7 11q-4 7 4 14l123 98q6 5 12 5q4 0 9 -5l96 -98q8 -8 2 -14l-7 -8q-8 -8 -15 -2l-89 81l-113 -84q-9 -6 -15 2zM391 387l-52 -374q-2 -13 -14 -13h-11q-14 0 -12 14l2 34q-15 -18 -50 -38t-80 -20q-61 0 -100 51.5t-39 126.5q0 100 60.5 171t143.5 71
q30 0 56 -10.5t37 -20t16 -17.5l8 27q3 11 14 11h11q5 0 8 -4t2 -9zM308 103l30 210q-3 7 -11.5 17t-33.5 24t-55 14q-68 0 -113.5 -56.5t-45.5 -137.5q0 -60 28.5 -101.5t75.5 -41.5q33 0 64 18t44.5 33t16.5 21z" />
    <glyph glyph-name="atilde" unicode="&#xe3;" 
d="M152 579l-11 5q-9 3 -4 14q0 1 4.5 10.5t7.5 15t9.5 16t13.5 17t15.5 13.5t20 10.5t23.5 3.5q21 0 34.5 -14t19 -31.5t15 -31.5t22.5 -14q33 0 56 59q5 12 15 7l12 -4q7 -5 4 -13q-32 -86 -93 -86q-20 0 -34 14.5t-20 31.5t-15.5 31.5t-21.5 14.5q-35 0 -59 -63
q-4 -11 -14 -6zM391 387l-52 -374q-2 -13 -14 -13h-11q-14 0 -12 14l2 34q-15 -18 -50 -38t-80 -20q-61 0 -100 51.5t-39 126.5q0 100 60.5 171t143.5 71q30 0 56 -10.5t37 -20t16 -17.5l8 27q3 11 14 11h11q5 0 8 -4t2 -9zM308 103l30 210q-3 7 -11.5 17t-33.5 24t-55 14
q-68 0 -113.5 -56.5t-45.5 -137.5q0 -60 28.5 -101.5t75.5 -41.5q33 0 64 18t44.5 33t16.5 21z" />
    <glyph glyph-name="adieresis" unicode="&#xe4;" 
d="M355 596q-12 0 -20 8.5t-8 20.5q0 16 11 27.5t26 11.5q13 0 21.5 -8.5t8.5 -21.5q0 -16 -11.5 -27t-27.5 -11zM183 596q-13 0 -21 8.5t-8 20.5q0 16 11.5 27.5t26.5 11.5q28 0 28 -30q0 -16 -10.5 -27t-26.5 -11zM391 387l-52 -374q-2 -13 -14 -13h-11q-14 0 -12 14l2 34
q-15 -18 -50 -38t-80 -20q-61 0 -100 51.5t-39 126.5q0 100 60.5 171t143.5 71q30 0 56 -10.5t37 -20t16 -17.5l8 27q3 11 14 11h11q5 0 8 -4t2 -9zM308 103l30 210q-3 7 -11.5 17t-33.5 24t-55 14q-68 0 -113.5 -56.5t-45.5 -137.5q0 -60 28.5 -101.5t75.5 -41.5
q33 0 64 18t44.5 33t16.5 21z" />
    <glyph glyph-name="aring" unicode="&#xe5;" 
d="M255 497q-36 0 -59.5 26t-23.5 65q0 51 32.5 86.5t80.5 35.5q36 0 59 -26.5t23 -65.5q0 -51 -32 -86t-80 -35zM260 529q31 0 52 25t21 59q0 26 -15 45t-37 19q-32 0 -54 -24.5t-22 -58.5q0 -27 15.5 -46t39.5 -19zM391 387l-52 -374q-2 -13 -14 -13h-11q-14 0 -12 14
l2 34q-15 -18 -50 -38t-80 -20q-61 0 -100 51.5t-39 126.5q0 100 60.5 171t143.5 71q30 0 56 -10.5t37 -20t16 -17.5l8 27q3 11 14 11h11q5 0 8 -4t2 -9zM308 103l30 210q-3 7 -11.5 17t-33.5 24t-55 14q-68 0 -113.5 -56.5t-45.5 -137.5q0 -60 28.5 -101.5t75.5 -41.5
q33 0 64 18t44.5 33t16.5 21z" />
    <glyph glyph-name="ae" unicode="&#xe6;" horiz-adv-x="636" 
d="M121 -10q-51 0 -81 37.5t-21 97.5q8 59 53 95.5t112 36.5q58 0 90 -13q13 67 3 97t-58 30q-15 0 -30 -2t-26.5 -4.5t-23 -6t-18 -6t-12.5 -5.5t-7 -3q-12 -3 -12 8l-2 16q0 9 10 13q55 29 127 29q76 0 90 -60q26 27 67 43.5t83 16.5q54 0 92.5 -29t38.5 -74t-30 -72.5
t-73.5 -35t-86.5 -9t-73 2.5l-30 4l-9 -93q30 -73 108 -73q54 0 110 37q10 6 15 -1l9 -14q4 -7 -5 -16q-18 -18 -58 -32.5t-80 -14.5q-73 0 -116 68q-25 -27 -69 -47.5t-87 -20.5zM308 232q98 -15 171.5 2.5t73.5 70.5q0 27 -24.5 45t-62.5 18q-96 0 -147 -67zM132 29
q35 0 69 18t51 39l17 120q-37 15 -87 15t-83 -26.5t-39 -70.5q-7 -46 13.5 -70.5t58.5 -24.5z" />
    <glyph glyph-name="ccedilla" unicode="&#xe7;" horiz-adv-x="425" 
d="M162 -6q-54 13 -90 62t-36 115q0 103 65.5 171t154.5 68q80 0 123 -62q5 -8 -5 -18l-8 -7q-11 -9 -20 2q-35 43 -94 43q-67 0 -119 -56t-52 -136q0 -62 34.5 -103.5t86.5 -41.5q59 0 115 61q11 10 19 2l12 -11q9 -7 1 -16q-20 -25 -62 -50.5t-90 -26.5l-6 -44
q34 -4 59 -26.5t25 -57.5q0 -46 -29 -78t-75 -32q-25 0 -43 10.5t-23 23.5t3 18l10 8q7 3 8.5 2t6.5 -8q13 -18 43 -18q27 0 43.5 20t16.5 48q0 49 -73 60q-12 3 -10 13z" />
    <glyph glyph-name="egrave" unicode="&#xe8;" horiz-adv-x="414" 
d="M35 167q0 100 59.5 171.5t149.5 71.5q53 0 89 -28.5t36 -74.5q0 -42 -30 -69.5t-72.5 -37.5t-85 -13.5t-72.5 -1.5l-30 2q-6 -66 26 -111t89 -45q56 0 109 39q11 7 16 -2l9 -15q5 -9 -3 -16q-15 -14 -55 -30.5t-85 -16.5q-68 0 -109 50.5t-41 126.5zM84 225
q96 -8 169 10.5t73 69.5q0 27 -24.5 45t-62.5 18q-56 0 -99 -40.5t-56 -102.5zM337 560l-142 79q-8 5 -1 15l12 19q7 11 17 3l132 -90q8 -5 4 -14l-6 -9q-6 -7 -16 -3z" />
    <glyph glyph-name="eacute" unicode="&#xe9;" horiz-adv-x="414" 
d="M35 167q0 100 59.5 171.5t149.5 71.5q53 0 89 -28.5t36 -74.5q0 -42 -30 -69.5t-72.5 -37.5t-85 -13.5t-72.5 -1.5l-30 2q-6 -66 26 -111t89 -45q56 0 109 39q11 7 16 -2l9 -15q5 -9 -3 -16q-15 -14 -55 -30.5t-85 -16.5q-68 0 -109 50.5t-41 126.5zM84 225
q96 -8 169 10.5t73 69.5q0 27 -24.5 45t-62.5 18q-56 0 -99 -40.5t-56 -102.5zM199 559q-12 -5 -15 3l-4 11q-3 8 8 14l157 90q12 6 16 -3l9 -21q3 -10 -6 -15z" />
    <glyph glyph-name="ecircumflex" unicode="&#xea;" horiz-adv-x="414" 
d="M35 167q0 100 59.5 171.5t149.5 71.5q53 0 89 -28.5t36 -74.5q0 -42 -30 -69.5t-72.5 -37.5t-85 -13.5t-72.5 -1.5l-30 2q-6 -66 26 -111t89 -45q56 0 109 39q11 7 16 -2l9 -15q5 -9 -3 -16q-15 -14 -55 -30.5t-85 -16.5q-68 0 -109 50.5t-41 126.5zM84 225
q96 -8 169 10.5t73 69.5q0 27 -24.5 45t-62.5 18q-56 0 -99 -40.5t-56 -102.5zM148 552l-7 11q-4 7 4 14l123 98q6 5 12 5q4 0 9 -5l96 -98q8 -8 2 -14l-7 -8q-8 -8 -15 -2l-89 81l-113 -84q-9 -6 -15 2z" />
    <glyph glyph-name="edieresis" unicode="&#xeb;" horiz-adv-x="414" 
d="M35 167q0 100 59.5 171.5t149.5 71.5q53 0 89 -28.5t36 -74.5q0 -42 -30 -69.5t-72.5 -37.5t-85 -13.5t-72.5 -1.5l-30 2q-6 -66 26 -111t89 -45q56 0 109 39q11 7 16 -2l9 -15q5 -9 -3 -16q-15 -14 -55 -30.5t-85 -16.5q-68 0 -109 50.5t-41 126.5zM84 225
q96 -8 169 10.5t73 69.5q0 27 -24.5 45t-62.5 18q-56 0 -99 -40.5t-56 -102.5zM358 596q-12 0 -20 8.5t-8 20.5q0 16 11 27.5t26 11.5q13 0 21.5 -8.5t8.5 -21.5q0 -16 -11.5 -27t-27.5 -11zM186 596q-13 0 -21 8.5t-8 20.5q0 16 11.5 27.5t26.5 11.5q28 0 28 -30
q0 -16 -10.5 -27t-26.5 -11z" />
    <glyph glyph-name="igrave" unicode="&#xec;" horiz-adv-x="193" 
d="M207 560l-142 79q-8 5 -1 15l12 19q7 11 17 3l132 -90q8 -5 4 -14l-6 -9q-6 -7 -16 -3zM37 13l53 374q2 13 14 13h19q13 0 11 -13l-54 -374q-2 -13 -16 -13h-16q-13 0 -11 13z" />
    <glyph glyph-name="iacute" unicode="&#xed;" horiz-adv-x="193" 
d="M69 559q-12 -5 -15 3l-4 11q-3 8 8 14l157 90q12 6 16 -3l9 -21q3 -10 -6 -15zM37 13l53 374q2 13 14 13h19q13 0 11 -13l-54 -374q-2 -13 -16 -13h-16q-13 0 -11 13z" />
    <glyph glyph-name="icircumflex" unicode="&#xee;" horiz-adv-x="193" 
d="M37 13l53 374q2 13 14 13h19q13 0 11 -13l-54 -374q-2 -13 -16 -13h-16q-13 0 -11 13zM18 552l-7 11q-4 7 4 14l123 98q6 5 12 5q4 0 9 -5l96 -98q8 -8 2 -14l-7 -8q-8 -8 -15 -2l-89 81l-113 -84q-9 -6 -15 2z" />
    <glyph glyph-name="idieresis" unicode="&#xef;" horiz-adv-x="193" 
d="M227 596q-12 0 -20 8.5t-8 20.5q0 16 11 27.5t26 11.5q13 0 21.5 -8.5t8.5 -21.5q0 -16 -11.5 -27t-27.5 -11zM55 596q-13 0 -21 8.5t-8 20.5q0 16 11.5 27.5t26.5 11.5q28 0 28 -30q0 -16 -10.5 -27t-26.5 -11zM37 13l53 374q2 13 14 13h19q13 0 11 -13l-54 -374
q-2 -13 -16 -13h-16q-13 0 -11 13z" />
    <glyph glyph-name="eth" unicode="&#xf0;" horiz-adv-x="513" 
d="M36 189q0 109 69.5 179.5t158.5 70.5q58 0 99.5 -28.5t50.5 -52.5q-1 124 -94 222l-110 -67q-12 -6 -16 5l-2 5q-6 11 6 17l99 60q-53 46 -96 66q-10 4 -3 16l9 17q5 9 14 5q62 -26 119 -81l67 40q12 6 17 -5l2 -5q4 -11 -7 -17l-56 -34q99 -110 99 -270
q0 -144 -68.5 -243t-187.5 -99q-73 0 -121.5 58t-48.5 141zM80 192q0 -67 37.5 -113.5t94.5 -46.5q81 0 133.5 68.5t66.5 167.5q2 22 2 30q-3 6 -6.5 12.5t-18 24t-30 30t-42.5 23t-56 10.5q-71 0 -126 -59.5t-55 -146.5z" />
    <glyph glyph-name="ntilde" unicode="&#xf1;" horiz-adv-x="460" 
d="M37 13l53 374q2 13 15 13h10q11 0 11 -10l-2 -40q15 18 54.5 39t86.5 21q71 0 100.5 -48.5t17.5 -134.5l-30 -214q-2 -13 -15 -13h-18q-13 0 -11 13l30 214q10 69 -11.5 105t-71.5 36q-32 0 -66 -17.5t-49 -31t-21 -21.5l-40 -285q-2 -13 -15 -13h-19q-11 0 -9 13z
M160 579l-11 5q-9 3 -4 14q0 1 4.5 10.5t7.5 15t9.5 16t13.5 17t15.5 13.5t20 10.5t23.5 3.5q21 0 34.5 -14t19 -31.5t15 -31.5t22.5 -14q33 0 56 59q5 12 15 7l12 -4q7 -5 4 -13q-32 -86 -93 -86q-20 0 -34 14.5t-20 31.5t-15.5 31.5t-21.5 14.5q-35 0 -59 -63
q-4 -11 -14 -6z" />
    <glyph glyph-name="ograve" unicode="&#xf2;" horiz-adv-x="458" 
d="M35 171q0 98 62.5 168.5t150.5 70.5q65 0 109 -53t44 -128q0 -98 -63 -168.5t-149 -70.5q-65 0 -109.5 53t-44.5 128zM79 175q0 -61 32 -102.5t83 -41.5q65 0 113.5 57.5t48.5 136.5q0 60 -32 101.5t-82 41.5q-65 0 -114 -57t-49 -136zM344 560l-142 79q-8 5 -1 15l12 19
q7 11 17 3l132 -90q8 -5 4 -14l-6 -9q-6 -7 -16 -3z" />
    <glyph glyph-name="oacute" unicode="&#xf3;" horiz-adv-x="458" 
d="M35 171q0 98 62.5 168.5t150.5 70.5q65 0 109 -53t44 -128q0 -98 -63 -168.5t-149 -70.5q-65 0 -109.5 53t-44.5 128zM79 175q0 -61 32 -102.5t83 -41.5q65 0 113.5 57.5t48.5 136.5q0 60 -32 101.5t-82 41.5q-65 0 -114 -57t-49 -136zM206 559q-12 -5 -15 3l-4 11
q-3 8 8 14l157 90q12 6 16 -3l9 -21q3 -10 -6 -15z" />
    <glyph glyph-name="ocircumflex" unicode="&#xf4;" horiz-adv-x="458" 
d="M35 171q0 98 62.5 168.5t150.5 70.5q65 0 109 -53t44 -128q0 -98 -63 -168.5t-149 -70.5q-65 0 -109.5 53t-44.5 128zM79 175q0 -61 32 -102.5t83 -41.5q65 0 113.5 57.5t48.5 136.5q0 60 -32 101.5t-82 41.5q-65 0 -114 -57t-49 -136zM155 552l-7 11q-4 7 4 14l123 98
q6 5 12 5q4 0 9 -5l96 -98q8 -8 2 -14l-7 -8q-8 -8 -15 -2l-89 81l-113 -84q-9 -6 -15 2z" />
    <glyph glyph-name="otilde" unicode="&#xf5;" horiz-adv-x="458" 
d="M35 171q0 98 62.5 168.5t150.5 70.5q65 0 109 -53t44 -128q0 -98 -63 -168.5t-149 -70.5q-65 0 -109.5 53t-44.5 128zM79 175q0 -61 32 -102.5t83 -41.5q65 0 113.5 57.5t48.5 136.5q0 60 -32 101.5t-82 41.5q-65 0 -114 -57t-49 -136zM161 579l-11 5q-9 3 -4 14
q0 1 4.5 10.5t7.5 15t9.5 16t13.5 17t15.5 13.5t20 10.5t23.5 3.5q21 0 34.5 -14t19 -31.5t15 -31.5t22.5 -14q33 0 56 59q5 12 15 7l12 -4q7 -5 4 -13q-32 -86 -93 -86q-20 0 -34 14.5t-20 31.5t-15.5 31.5t-21.5 14.5q-35 0 -59 -63q-4 -11 -14 -6z" />
    <glyph glyph-name="odieresis" unicode="&#xf6;" horiz-adv-x="458" 
d="M35 171q0 98 62.5 168.5t150.5 70.5q65 0 109 -53t44 -128q0 -98 -63 -168.5t-149 -70.5q-65 0 -109.5 53t-44.5 128zM79 175q0 -61 32 -102.5t83 -41.5q65 0 113.5 57.5t48.5 136.5q0 60 -32 101.5t-82 41.5q-65 0 -114 -57t-49 -136zM365 596q-12 0 -20 8.5t-8 20.5
q0 16 11 27.5t26 11.5q13 0 21.5 -8.5t8.5 -21.5q0 -16 -11.5 -27t-27.5 -11zM193 596q-13 0 -21 8.5t-8 20.5q0 16 11.5 27.5t26.5 11.5q28 0 28 -30q0 -16 -10.5 -27t-26.5 -11z" />
    <glyph glyph-name="divide" unicode="&#xf7;" horiz-adv-x="543" 
d="M294 463q-14 0 -24 11t-10 25q0 18 14 31.5t32 13.5q15 0 24 -10t9 -25q0 -18 -13.5 -32t-31.5 -14zM106 327q-13 0 -11 13l2 16q2 13 14 13h346q12 0 10 -13l-2 -16q-2 -13 -14 -13h-345zM216 185q0 18 14 31.5t32 13.5q15 0 24 -10t9 -25q0 -18 -13.5 -32t-31.5 -14
q-14 0 -24 11t-10 25z" />
    <glyph glyph-name="oslash" unicode="&#xf8;" horiz-adv-x="456" 
d="M35 36q-8 8 2 18l18 18q-20 42 -20 98q0 97 64 168.5t149 71.5q71 0 114 -58l23 22q9 8 17 0l4 -4q9 -9 -2 -18l-25 -24q21 -40 21 -99q0 -98 -63.5 -168.5t-147.5 -70.5q-72 0 -117 58l-17 -17q-7 -7 -16 1zM91 102l236 220q-32 46 -85 46q-66 0 -114.5 -58t-48.5 -138
q0 -40 12 -70zM107 78q32 -47 87 -47q65 0 114 57t49 136q0 43 -14 74z" />
    <glyph glyph-name="ugrave" unicode="&#xf9;" 
d="M172 -10q-71 0 -100 47.5t-17 134.5l30 215q2 13 14 13h19q13 0 11 -13l-31 -215q-10 -69 12 -105t71 -36q33 0 64.5 18t45 32t17.5 21l40 285q2 13 14 13h19q5 0 8 -4t2 -9l-52 -374q-2 -13 -15 -13h-12q-10 0 -10 12l2 36q-12 -17 -48.5 -37.5t-83.5 -20.5zM336 560
l-142 79q-8 5 -1 15l12 19q7 11 17 3l132 -90q8 -5 4 -14l-6 -9q-6 -7 -16 -3z" />
    <glyph glyph-name="uacute" unicode="&#xfa;" 
d="M172 -10q-71 0 -100 47.5t-17 134.5l30 215q2 13 14 13h19q13 0 11 -13l-31 -215q-10 -69 12 -105t71 -36q33 0 64.5 18t45 32t17.5 21l40 285q2 13 14 13h19q5 0 8 -4t2 -9l-52 -374q-2 -13 -15 -13h-12q-10 0 -10 12l2 36q-12 -17 -48.5 -37.5t-83.5 -20.5zM199 559
q-12 -5 -15 3l-4 11q-3 8 8 14l157 90q12 6 16 -3l9 -21q3 -10 -6 -15z" />
    <glyph glyph-name="ucircumflex" unicode="&#xfb;" 
d="M172 -10q-71 0 -100 47.5t-17 134.5l30 215q2 13 14 13h19q13 0 11 -13l-31 -215q-10 -69 12 -105t71 -36q33 0 64.5 18t45 32t17.5 21l40 285q2 13 14 13h19q5 0 8 -4t2 -9l-52 -374q-2 -13 -15 -13h-12q-10 0 -10 12l2 36q-12 -17 -48.5 -37.5t-83.5 -20.5zM148 552
l-7 11q-4 7 4 14l123 98q6 5 12 5q4 0 9 -5l96 -98q8 -8 2 -14l-7 -8q-8 -8 -15 -2l-89 81l-113 -84q-9 -6 -15 2z" />
    <glyph glyph-name="udieresis" unicode="&#xfc;" 
d="M172 -10q-71 0 -100 47.5t-17 134.5l30 215q2 13 14 13h19q13 0 11 -13l-31 -215q-10 -69 12 -105t71 -36q33 0 64.5 18t45 32t17.5 21l40 285q2 13 14 13h19q5 0 8 -4t2 -9l-52 -374q-2 -13 -15 -13h-12q-10 0 -10 12l2 36q-12 -17 -48.5 -37.5t-83.5 -20.5zM356 596
q-12 0 -20 8.5t-8 20.5q0 16 11 27.5t26 11.5q13 0 21.5 -8.5t8.5 -21.5q0 -16 -11.5 -27t-27.5 -11zM184 596q-13 0 -21 8.5t-8 20.5q0 16 11.5 27.5t26.5 11.5q28 0 28 -30q0 -16 -10.5 -27t-26.5 -11z" />
    <glyph glyph-name="yacute" unicode="&#xfd;" horiz-adv-x="408" 
d="M145 4l-116 380q-4 16 10 16h21q8 0 11 -9l100 -339h2l186 339q5 9 14 9h22q7 0 9 -5t-2 -11l-376 -676q-5 -8 -14 -8h-21q-15 0 -7 14zM176 559q-12 -5 -15 3l-4 11q-3 8 8 14l157 90q12 6 16 -3l9 -21q3 -10 -6 -15z" />
    <glyph glyph-name="thorn" unicode="&#xfe;" horiz-adv-x="452" 
d="M84 32l-45 -319q-2 -13 -14 -13h-18q-13 0 -11 13l137 974q2 13 16 13h16q13 0 11 -13l-46 -324q52 47 119 47q65 0 105.5 -52t40.5 -127q0 -102 -60.5 -171.5t-151.5 -69.5q-38 0 -64 14.5t-35 27.5zM92 80q0 -3 10 -14t33 -22.5t49 -11.5q71 0 119.5 56.5t48.5 138.5
q0 60 -30.5 101t-81.5 41q-30 0 -59 -14t-41.5 -25.5t-15.5 -17.5z" />
    <glyph glyph-name="ydieresis" unicode="&#xff;" horiz-adv-x="408" 
d="M145 4l-116 380q-4 16 10 16h21q8 0 11 -9l100 -339h2l186 339q5 9 14 9h22q7 0 9 -5t-2 -11l-376 -676q-5 -8 -14 -8h-21q-15 0 -7 14zM334 596q-12 0 -20 8.5t-8 20.5q0 16 11 27.5t26 11.5q13 0 21.5 -8.5t8.5 -21.5q0 -16 -11.5 -27t-27.5 -11zM162 596
q-13 0 -21 8.5t-8 20.5q0 16 11.5 27.5t26.5 11.5q28 0 28 -30q0 -16 -10.5 -27t-26.5 -11z" />
    <glyph glyph-name="Amacron" unicode="&#x100;" horiz-adv-x="601" 
d="M9 0h-29q-12 0 -5 14l375 694q4 7 13 7h3q10 0 12 -7l177 -696q4 -12 -11 -12h-26q-11 0 -13 9l-46 184h-338l-96 -184q-5 -9 -16 -9zM144 232h304l-93 403h-3zM260 831q-13 0 -11 13l2 12q2 13 14 13h243q13 0 10 -13l-1 -12q-2 -13 -15 -13h-242z" />
    <glyph glyph-name="amacron" unicode="&#x101;" 
d="M148 595q-13 0 -11 12l2 13q2 13 14 13h242q13 0 11 -13l-2 -13q-2 -12 -14 -12h-242zM391 387l-52 -374q-2 -13 -14 -13h-11q-14 0 -12 14l2 34q-15 -18 -50 -38t-80 -20q-61 0 -100 51.5t-39 126.5q0 100 60.5 171t143.5 71q30 0 56 -10.5t37 -20t16 -17.5l8 27
q3 11 14 11h11q5 0 8 -4t2 -9zM308 103l30 210q-3 7 -11.5 17t-33.5 24t-55 14q-68 0 -113.5 -56.5t-45.5 -137.5q0 -60 28.5 -101.5t75.5 -41.5q33 0 64 18t44.5 33t16.5 21z" />
    <glyph glyph-name="Abreve" unicode="&#x102;" horiz-adv-x="601" 
d="M9 0h-29q-12 0 -5 14l375 694q4 7 13 7h3q10 0 12 -7l177 -696q4 -12 -11 -12h-26q-11 0 -13 9l-46 184h-338l-96 -184q-5 -9 -16 -9zM144 232h304l-93 403h-3zM376 775q-44 0 -74 32.5t-29 78.5q0 14 11 14h11q8 0 10 -12q5 -35 24 -56.5t50 -21.5q29 0 55.5 22.5
t38.5 55.5q5 12 13 12h16q12 0 8 -14q-15 -49 -51 -80t-83 -31z" />
    <glyph glyph-name="abreve" unicode="&#x103;" 
d="M254 538q-42 0 -71.5 32t-31.5 78q0 14 12 14h11q8 0 10 -11q3 -35 22.5 -57t50.5 -22q30 0 56.5 22.5t37.5 56.5q5 11 14 11h16q11 0 7 -14q-13 -48 -49.5 -79t-84.5 -31zM391 387l-52 -374q-2 -13 -14 -13h-11q-14 0 -12 14l2 34q-15 -18 -50 -38t-80 -20
q-61 0 -100 51.5t-39 126.5q0 100 60.5 171t143.5 71q30 0 56 -10.5t37 -20t16 -17.5l8 27q3 11 14 11h11q5 0 8 -4t2 -9zM308 103l30 210q-3 7 -11.5 17t-33.5 24t-55 14q-68 0 -113.5 -56.5t-45.5 -137.5q0 -60 28.5 -101.5t75.5 -41.5q33 0 64 18t44.5 33t16.5 21z" />
    <glyph glyph-name="Aogonek" unicode="&#x104;" horiz-adv-x="601" 
d="M9 0h-29q-12 0 -5 14l375 694q4 7 13 7h3q10 0 12 -7l177 -696q4 -12 -11 -12h-26q-11 0 -13 9l-46 184h-338l-96 -184q-5 -9 -16 -9zM144 232h304l-93 403h-3zM511 12l31 -4q-6 -3 -13 -8q-28 -17 -50.5 -49.5t-22.5 -74.5q0 -27 16 -41.5t40 -14.5t57 15q6 3 8 -0.5
t2 -13.5q0 -12 -11 -20q-22 -17 -66 -17q-37 0 -61 20.5t-24 61.5q0 44 26.5 84.5t67.5 61.5z" />
    <glyph glyph-name="aogonek" unicode="&#x105;" 
d="M391 387l-52 -374q-2 -13 -14 -13h-4q-28 -17 -50.5 -49.5t-22.5 -74.5q0 -27 16 -41.5t40 -14.5t57 15q6 3 8 -0.5t2 -13.5q0 -12 -11 -20q-22 -17 -66 -17q-37 0 -61 20.5t-24 61.5q0 45 26 85t67 60l2 37q-15 -18 -50 -38t-80 -20q-61 0 -100 51.5t-39 126.5
q0 100 60.5 171t143.5 71q30 0 56 -10.5t37 -20t16 -17.5l8 27q3 11 14 11h11q5 0 8 -4t2 -9zM308 103l30 210q-3 7 -11.5 17t-33.5 24t-55 14q-68 0 -113.5 -56.5t-45.5 -137.5q0 -60 28.5 -101.5t75.5 -41.5q33 0 64 18t44.5 33t16.5 21z" />
    <glyph glyph-name="Cacute" unicode="&#x106;" horiz-adv-x="659" 
d="M65 301q0 171 112.5 290t266.5 119q128 0 207 -93q8 -9 -1 -18l-17 -15q-9 -7 -17 1q-66 80 -177 80q-128 0 -225.5 -107t-97.5 -252q0 -113 66 -190t168 -77t195 84q10 8 16 2l19 -21q8 -8 -2 -17q-106 -97 -232 -97q-121 0 -201 90t-80 221zM390 781q-12 -5 -15 3
l-4 11q-3 8 8 14l157 90q12 6 16 -3l9 -21q3 -10 -6 -15z" />
    <glyph glyph-name="cacute" unicode="&#x107;" horiz-adv-x="423" 
d="M35 171q0 103 65.5 171t154.5 68q80 0 123 -62q5 -8 -5 -18l-8 -7q-11 -9 -20 2q-35 43 -94 43q-67 0 -119 -56t-52 -136q0 -62 34.5 -103.5t86.5 -41.5q59 0 115 61q10 10 19 2l12 -11q9 -7 1 -16q-22 -27 -61.5 -52t-90.5 -25q-66 0 -113.5 52.5t-47.5 128.5zM214 559
q-12 -5 -15 3l-4 11q-3 8 8 14l157 90q12 6 16 -3l9 -21q3 -10 -6 -15z" />
    <glyph glyph-name="Ccircumflex" unicode="&#x108;" horiz-adv-x="659" 
d="M65 301q0 171 112.5 290t266.5 119q128 0 207 -93q8 -9 -1 -18l-17 -15q-9 -7 -17 1q-66 80 -177 80q-128 0 -225.5 -107t-97.5 -252q0 -113 66 -190t168 -77t195 84q10 8 16 2l19 -21q8 -8 -2 -17q-106 -97 -232 -97q-121 0 -201 90t-80 221zM356 768q-9 -6 -15 2l-7 11
q-4 7 4 14l123 98q6 5 12 5q4 0 9 -5l96 -98q8 -8 2 -14l-7 -8q-8 -8 -15 -2l-89 81z" />
    <glyph glyph-name="ccircumflex" unicode="&#x109;" horiz-adv-x="423" 
d="M35 171q0 103 65.5 171t154.5 68q80 0 123 -62q5 -8 -5 -18l-8 -7q-11 -9 -20 2q-35 43 -94 43q-67 0 -119 -56t-52 -136q0 -62 34.5 -103.5t86.5 -41.5q59 0 115 61q10 10 19 2l12 -11q9 -7 1 -16q-22 -27 -61.5 -52t-90.5 -25q-66 0 -113.5 52.5t-47.5 128.5zM164 552
l-7 11q-4 7 4 14l123 98q6 5 12 5q4 0 9 -5l96 -98q8 -8 2 -14l-7 -8q-8 -8 -15 -2l-89 81l-113 -84q-9 -6 -15 2z" />
    <glyph glyph-name="Cdotaccent" unicode="&#x10a;" horiz-adv-x="659" 
d="M65 301q0 171 112.5 290t266.5 119q128 0 207 -93q8 -9 -1 -18l-17 -15q-9 -7 -17 1q-66 80 -177 80q-128 0 -225.5 -107t-97.5 -252q0 -113 66 -190t168 -77t195 84q10 8 16 2l19 -21q8 -8 -2 -17q-106 -97 -232 -97q-121 0 -201 90t-80 221zM463 810q-14 0 -23 9.5
t-9 23.5q0 18 13 30.5t30 12.5q13 0 22.5 -9.5t9.5 -23.5q0 -18 -13 -30.5t-30 -12.5z" />
    <glyph glyph-name="cdotaccent" unicode="&#x10b;" horiz-adv-x="423" 
d="M35 171q0 103 65.5 171t154.5 68q80 0 123 -62q5 -8 -5 -18l-8 -7q-11 -9 -20 2q-35 43 -94 43q-67 0 -119 -56t-52 -136q0 -62 34.5 -103.5t86.5 -41.5q59 0 115 61q10 10 19 2l12 -11q9 -7 1 -16q-22 -27 -61.5 -52t-90.5 -25q-66 0 -113.5 52.5t-47.5 128.5zM284 582
q-14 0 -23 10t-9 24q0 17 13 29.5t30 12.5q13 0 22.5 -9.5t9.5 -23.5q0 -17 -13 -30t-30 -13z" />
    <glyph glyph-name="Ccaron" unicode="&#x10c;" horiz-adv-x="659" 
d="M65 301q0 171 112.5 290t266.5 119q128 0 207 -93q8 -9 -1 -18l-17 -15q-9 -7 -17 1q-66 80 -177 80q-128 0 -225.5 -107t-97.5 -252q0 -113 66 -190t168 -77t195 84q10 8 16 2l19 -21q8 -8 -2 -17q-106 -97 -232 -97q-121 0 -201 90t-80 221zM455 762q-4 0 -9 5l-96 98
q-8 8 -2 14l7 8q8 8 15 2l89 -81l113 84q9 6 15 -2l7 -11q4 -7 -4 -14l-123 -98q-6 -5 -12 -5z" />
    <glyph glyph-name="ccaron" unicode="&#x10d;" horiz-adv-x="423" 
d="M35 171q0 103 65.5 171t154.5 68q80 0 123 -62q5 -8 -5 -18l-8 -7q-11 -9 -20 2q-35 43 -94 43q-67 0 -119 -56t-52 -136q0 -62 34.5 -103.5t86.5 -41.5q59 0 115 61q10 10 19 2l12 -11q9 -7 1 -16q-22 -27 -61.5 -52t-90.5 -25q-66 0 -113.5 52.5t-47.5 128.5zM277 544
q-4 0 -9 5l-96 98q-8 8 -2 14l7 8q8 8 15 2l89 -81l113 84q9 6 15 -2l7 -11q4 -7 -4 -14l-123 -98q-6 -5 -12 -5z" />
    <glyph glyph-name="Dcaron" unicode="&#x10e;" horiz-adv-x="684" 
d="M67 13l95 674q2 13 13 13h193q114 0 192.5 -89t78.5 -215q0 -162 -110.5 -279t-258.5 -117h-193q-5 0 -8 4t-2 9zM118 43h149q131 0 226.5 102t95.5 249q0 113 -66 188t-170 75h-149zM360 762q-4 0 -9 5l-96 98q-8 8 -2 14l7 8q8 8 15 2l89 -81l113 84q9 6 15 -2l7 -11
q4 -7 -4 -14l-123 -98q-6 -5 -12 -5z" />
    <glyph glyph-name="dcaron" unicode="&#x10f;" horiz-adv-x="482" 
d="M36 168q0 102 60 172t149 70q29 0 54.5 -10t36.5 -20l11 -10l45 317q3 13 13 13h19q5 0 8 -4t2 -9l-94 -674q-2 -13 -14 -13h-11q-14 0 -12 14l2 34q-15 -18 -50 -38t-80 -20q-61 0 -100 51.5t-39 126.5zM184 31q33 0 64 18t44.5 33t16.5 21l32 220q-4 5 -11.5 12.5
t-33 20t-53.5 12.5q-68 0 -115.5 -57t-47.5 -140q0 -60 28.5 -100t75.5 -40zM508 477l-7 10q-5 8 6 16q49 32 64 95q5 21 2 38q-7 -5 -14 -5q-16 0 -25 10t-9 24q0 21 13 33t34 12q40 0 40 -68q0 -63 -30 -107t-58 -58q-12 -7 -16 0z" />
    <glyph glyph-name="Dcroat" unicode="&#x110;" horiz-adv-x="694" 
d="M69 13l45 319h-31q-12 0 -10 13l1 7q2 11 14 11h30l46 324q2 13 13 13h200q117 0 194.5 -88.5t77.5 -215.5q0 -161 -112.5 -278.5t-257.5 -117.5h-200q-12 0 -10 13zM120 43h157q130 0 225 102t95 249q0 112 -65.5 187.5t-168.5 75.5h-157l-41 -294h219q13 0 11 -11
l-1 -8q-2 -12 -14 -12h-219z" />
    <glyph glyph-name="dcroat" unicode="&#x111;" horiz-adv-x="452" 
d="M36 168q0 102 60 172t149 70q29 0 54.5 -10t36.5 -20l11 -10l24 172h-166q-13 0 -11 13l1 6q2 12 14 12h167l16 114q3 13 13 13h19q5 0 8 -4t2 -9l-16 -114h35q11 0 10 -12l-1 -6q-2 -13 -14 -13h-34l-74 -529q-2 -13 -14 -13h-11q-14 0 -12 14l2 34q-15 -18 -50 -38
t-80 -20q-61 0 -100 51.5t-39 126.5zM184 30q33 0 64 18.5t44.5 33.5t16.5 21l32 220q-4 5 -11.5 12.5t-33 19.5t-53.5 12q-68 0 -115.5 -56.5t-47.5 -139.5q0 -60 28.5 -100.5t75.5 -40.5z" />
    <glyph glyph-name="Emacron" unicode="&#x112;" horiz-adv-x="555" 
d="M67 13l95 674q2 13 14 13h360q13 0 11 -13l-2 -17q-2 -13 -15 -13h-324l-39 -276h280q13 0 11 -13l-2 -17q-2 -13 -15 -13h-280l-42 -296h325q13 0 11 -13l-3 -16q-2 -13 -14 -13h-360q-13 0 -11 13zM250 831q-13 0 -11 13l2 12q2 13 14 13h243q13 0 10 -13l-1 -12
q-2 -13 -15 -13h-242z" />
    <glyph glyph-name="emacron" unicode="&#x113;" horiz-adv-x="414" 
d="M35 167q0 100 59.5 171.5t149.5 71.5q53 0 89 -28.5t36 -74.5q0 -42 -30 -69.5t-72.5 -37.5t-85 -13.5t-72.5 -1.5l-30 2q-6 -66 26 -111t89 -45q56 0 109 39q11 7 16 -2l9 -15q5 -9 -3 -16q-15 -14 -55 -30.5t-85 -16.5q-68 0 -109 50.5t-41 126.5zM84 225
q96 -8 169 10.5t73 69.5q0 27 -24.5 45t-62.5 18q-56 0 -99 -40.5t-56 -102.5zM151 595q-13 0 -11 12l2 13q2 13 14 13h242q13 0 11 -13l-2 -13q-2 -12 -14 -12h-242z" />
    <glyph glyph-name="Ebreve" unicode="&#x114;" horiz-adv-x="555" 
d="M67 13l95 674q2 13 14 13h360q13 0 11 -13l-2 -17q-2 -13 -15 -13h-324l-39 -276h280q13 0 11 -13l-2 -17q-2 -13 -15 -13h-280l-42 -296h325q13 0 11 -13l-3 -16q-2 -13 -14 -13h-360q-13 0 -11 13zM367 775q-44 0 -74 32.5t-29 78.5q0 14 11 14h11q8 0 10 -12
q5 -35 24 -56.5t50 -21.5q29 0 55.5 22.5t38.5 55.5q5 12 13 12h16q12 0 8 -14q-15 -49 -51 -80t-83 -31z" />
    <glyph glyph-name="ebreve" unicode="&#x115;" horiz-adv-x="414" 
d="M35 167q0 100 59.5 171.5t149.5 71.5q53 0 89 -28.5t36 -74.5q0 -42 -30 -69.5t-72.5 -37.5t-85 -13.5t-72.5 -1.5l-30 2q-6 -66 26 -111t89 -45q56 0 109 39q11 7 16 -2l9 -15q5 -9 -3 -16q-15 -14 -55 -30.5t-85 -16.5q-68 0 -109 50.5t-41 126.5zM84 225
q96 -8 169 10.5t73 69.5q0 27 -24.5 45t-62.5 18q-56 0 -99 -40.5t-56 -102.5zM267 538q-42 0 -71.5 32t-31.5 78q0 14 12 14h11q8 0 10 -11q3 -35 22.5 -57t50.5 -22q30 0 56.5 22.5t37.5 56.5q5 11 14 11h16q10 0 7 -14q-13 -48 -49.5 -79t-84.5 -31z" />
    <glyph glyph-name="Edotaccent" unicode="&#x116;" horiz-adv-x="555" 
d="M67 13l95 674q2 13 14 13h360q13 0 11 -13l-2 -17q-2 -13 -15 -13h-324l-39 -276h280q13 0 11 -13l-2 -17q-2 -13 -15 -13h-280l-42 -296h325q13 0 11 -13l-3 -16q-2 -13 -14 -13h-360q-13 0 -11 13zM365 810q-14 0 -23 9.5t-9 23.5q0 18 13 30.5t30 12.5q13 0 22.5 -9.5
t9.5 -23.5q0 -18 -13 -30.5t-30 -12.5z" />
    <glyph glyph-name="edotaccent" unicode="&#x117;" horiz-adv-x="414" 
d="M35 167q0 100 59.5 171.5t149.5 71.5q53 0 89 -28.5t36 -74.5q0 -42 -30 -69.5t-72.5 -37.5t-85 -13.5t-72.5 -1.5l-30 2q-6 -66 26 -111t89 -45q56 0 109 39q11 7 16 -2l9 -15q5 -9 -3 -16q-15 -14 -55 -30.5t-85 -16.5q-68 0 -109 50.5t-41 126.5zM84 225
q96 -8 169 10.5t73 69.5q0 27 -24.5 45t-62.5 18q-56 0 -99 -40.5t-56 -102.5zM270 582q-14 0 -23 10t-9 24q0 17 13 29.5t30 12.5q13 0 22.5 -9.5t9.5 -23.5q0 -17 -13 -30t-30 -13z" />
    <glyph glyph-name="Eogonek" unicode="&#x118;" horiz-adv-x="555" 
d="M67 13l95 674q2 13 14 13h360q13 0 11 -13l-2 -17q-2 -13 -15 -13h-324l-39 -276h280q13 0 11 -13l-2 -17q-2 -13 -15 -13h-280l-42 -296h325q13 0 11 -13l-2 -12q-2 -11 -16 -17q-28 -17 -50.5 -49.5t-22.5 -74.5q0 -27 16 -41.5t40 -14.5t57 15q6 3 8 -0.5t2 -13.5
q0 -12 -11 -20q-22 -17 -66 -17q-37 0 -61 20.5t-24 61.5q0 80 75 134h-322q-13 0 -11 13z" />
    <glyph glyph-name="eogonek" unicode="&#x119;" horiz-adv-x="416" 
d="M165 -8q-59 7 -94 56t-35 119q0 100 59.5 171.5t149.5 71.5q53 0 89 -28.5t36 -74.5q0 -42 -30 -69.5t-72.5 -37.5t-85 -13.5t-72.5 -1.5l-30 2q-6 -66 26 -111.5t89 -45.5t110 39q11 7 16 -2l8 -14q5 -9 -3 -16q-14 -12 -49 -27.5t-76 -18.5q-59 -48 -59 -115
q0 -27 16 -41.5t40 -14.5t57 15q6 3 8 -0.5t2 -13.5q0 -12 -11 -20q-22 -17 -66 -17q-37 0 -61 20.5t-24 61.5q0 74 62 126zM85 225q96 -8 169 10.5t73 69.5q0 27 -24.5 46t-62.5 19q-56 0 -99 -41t-56 -104z" />
    <glyph glyph-name="Ecaron" unicode="&#x11a;" horiz-adv-x="555" 
d="M67 13l95 674q2 13 14 13h360q13 0 11 -13l-2 -17q-2 -13 -15 -13h-324l-39 -276h280q13 0 11 -13l-2 -17q-2 -13 -15 -13h-280l-42 -296h325q13 0 11 -13l-3 -16q-2 -13 -14 -13h-360q-13 0 -11 13zM360 762q-4 0 -9 5l-96 98q-8 8 -2 14l7 8q8 8 15 2l89 -81l113 84
q9 6 15 -2l7 -11q4 -7 -4 -14l-123 -98q-6 -5 -12 -5z" />
    <glyph glyph-name="ecaron" unicode="&#x11b;" horiz-adv-x="414" 
d="M35 167q0 100 59.5 171.5t149.5 71.5q53 0 89 -28.5t36 -74.5q0 -42 -30 -69.5t-72.5 -37.5t-85 -13.5t-72.5 -1.5l-30 2q-6 -66 26 -111t89 -45q56 0 109 39q11 7 16 -2l9 -15q5 -9 -3 -16q-15 -14 -55 -30.5t-85 -16.5q-68 0 -109 50.5t-41 126.5zM84 225
q96 -8 169 10.5t73 69.5q0 27 -24.5 45t-62.5 18q-56 0 -99 -40.5t-56 -102.5zM266 544q-4 0 -9 5l-96 98q-8 8 -2 14l7 8q8 8 15 2l89 -81l113 84q9 6 15 -2l7 -11q4 -7 -4 -14l-123 -98q-6 -5 -12 -5z" />
    <glyph glyph-name="Gcircumflex" unicode="&#x11c;" horiz-adv-x="685" 
d="M65 306q0 167 113.5 285.5t267.5 118.5q126 0 205 -93q8 -10 -2 -18l-18 -16q-9 -9 -17 0q-65 82 -176 82q-128 0 -225 -106t-97 -251q0 -114 65.5 -192t168.5 -78q50 0 97.5 16t70.5 32l23 16l24 177h-143q-8 0 -10 3t-1 10l3 20q2 12 14 12h179q5 0 8.5 -3.5t2.5 -8.5
l-30 -215q-2 -18 -17 -31q-26 -22 -89.5 -49t-136.5 -27q-118 0 -199 91t-81 225zM355 768q-9 -6 -15 2l-7 11q-4 7 4 14l123 98q6 5 12 5q4 0 9 -5l96 -98q8 -8 2 -14l-7 -8q-8 -8 -15 -2l-89 81z" />
    <glyph glyph-name="gcircumflex" unicode="&#x11d;" 
d="M35 168q0 100 60.5 171t143.5 71q30 0 56 -10.5t37 -20t16 -17.5l8 27q3 11 14 11h11q5 0 8 -4t2 -9l-62 -457q-14 -100 -61.5 -145t-115.5 -45q-74 0 -131 66q-9 10 1 20l9 9q10 10 21 -1q54 -54 103 -54q109 0 132 157l12 91q-12 -12 -42 -25t-69 -13q-69 0 -111 51
t-42 127zM79 173q0 -61 32.5 -101.5t86.5 -40.5q27 0 53.5 11.5t38 21t15.5 14.5l33 234q-1 3 -4.5 7.5t-12 13.5t-19.5 16.5t-28 13t-36 5.5q-68 0 -113.5 -57t-45.5 -138zM153 552l-7 11q-4 7 4 14l123 98q6 5 12 5q4 0 9 -5l96 -98q8 -8 2 -14l-7 -8q-8 -8 -15 -2l-89 81
l-113 -84q-9 -6 -15 2z" />
    <glyph glyph-name="Gbreve" unicode="&#x11e;" horiz-adv-x="685" 
d="M65 306q0 167 113.5 285.5t267.5 118.5q126 0 205 -93q8 -10 -2 -18l-18 -16q-9 -9 -17 0q-65 82 -176 82q-128 0 -225 -106t-97 -251q0 -114 65.5 -192t168.5 -78q50 0 97.5 16t70.5 32l23 16l24 177h-143q-8 0 -10 3t-1 10l3 20q2 12 14 12h179q5 0 8.5 -3.5t2.5 -8.5
l-30 -215q-2 -18 -17 -31q-26 -22 -89.5 -49t-136.5 -27q-118 0 -199 91t-81 225zM463 775q-44 0 -74 32.5t-29 78.5q0 14 11 14h11q8 0 10 -12q5 -35 24 -56.5t50 -21.5q29 0 55.5 22.5t38.5 55.5q5 12 13 12h16q12 0 8 -14q-15 -49 -51 -80t-83 -31z" />
    <glyph glyph-name="gbreve" unicode="&#x11f;" 
d="M35 168q0 100 60.5 171t143.5 71q30 0 56 -10.5t37 -20t16 -17.5l8 27q3 11 14 11h11q5 0 8 -4t2 -9l-62 -457q-14 -100 -61.5 -145t-115.5 -45q-74 0 -131 66q-9 10 1 20l9 9q10 10 21 -1q54 -54 103 -54q109 0 132 157l12 91q-12 -12 -42 -25t-69 -13q-69 0 -111 51
t-42 127zM79 173q0 -61 32.5 -101.5t86.5 -40.5q27 0 53.5 11.5t38 21t15.5 14.5l33 234q-1 3 -4.5 7.5t-12 13.5t-19.5 16.5t-28 13t-36 5.5q-68 0 -113.5 -57t-45.5 -138zM278 538q-42 0 -71.5 32t-31.5 78q0 14 12 14h11q8 0 10 -11q3 -35 22.5 -57t50.5 -22
q30 0 56.5 22.5t37.5 56.5q5 11 14 11h16q11 0 7 -14q-13 -48 -49.5 -79t-84.5 -31z" />
    <glyph glyph-name="Gdotaccent" unicode="&#x120;" horiz-adv-x="685" 
d="M65 306q0 167 113.5 285.5t267.5 118.5q126 0 205 -93q8 -10 -2 -18l-18 -16q-9 -9 -17 0q-65 82 -176 82q-128 0 -225 -106t-97 -251q0 -114 65.5 -192t168.5 -78q50 0 97.5 16t70.5 32l23 16l24 177h-143q-8 0 -10 3t-1 10l3 20q2 12 14 12h179q5 0 8.5 -3.5t2.5 -8.5
l-30 -215q-2 -18 -17 -31q-26 -22 -89.5 -49t-136.5 -27q-118 0 -199 91t-81 225zM461 810q-14 0 -23 9.5t-9 23.5q0 18 13 30.5t30 12.5q13 0 22.5 -9.5t9.5 -23.5q0 -18 -13 -30.5t-30 -12.5z" />
    <glyph glyph-name="gdotaccent" unicode="&#x121;" 
d="M35 168q0 100 60.5 171t143.5 71q30 0 56 -10.5t37 -20t16 -17.5l8 27q3 11 14 11h11q5 0 8 -4t2 -9l-62 -457q-14 -100 -61.5 -145t-115.5 -45q-74 0 -131 66q-9 10 1 20l9 9q10 10 21 -1q54 -54 103 -54q109 0 132 157l12 91q-12 -12 -42 -25t-69 -13q-69 0 -111 51
t-42 127zM79 173q0 -61 32.5 -101.5t86.5 -40.5q27 0 53.5 11.5t38 21t15.5 14.5l33 234q-1 3 -4.5 7.5t-12 13.5t-19.5 16.5t-28 13t-36 5.5q-68 0 -113.5 -57t-45.5 -138zM275 582q-14 0 -23 10t-9 24q0 17 13 29.5t30 12.5q13 0 22.5 -9.5t9.5 -23.5q0 -17 -13 -30
t-30 -13z" />
    <glyph glyph-name="Gcommaaccent" unicode="&#x122;" horiz-adv-x="685" 
d="M65 306q0 167 113.5 285.5t267.5 118.5q126 0 205 -93q8 -10 -2 -18l-18 -16q-9 -9 -17 0q-65 82 -176 82q-128 0 -225 -106t-97 -251q0 -114 65.5 -192t168.5 -78q50 0 97.5 16t70.5 32l23 16l24 177h-143q-8 0 -10 3t-1 10l3 20q2 12 14 12h179q5 0 8.5 -3.5t2.5 -8.5
l-30 -215q-2 -18 -17 -31q-26 -22 -89.5 -49t-136.5 -27q-118 0 -199 91t-81 225zM286 -147q0 21 12.5 33t33.5 12q40 0 40 -68q0 -63 -30 -107t-58 -58q-12 -7 -16 0l-7 10q-5 8 6 16q50 33 65 95q4 19 2 38q-8 -5 -15 -5q-33 0 -33 34z" />
    <glyph glyph-name="gcommaaccent" unicode="&#x123;" 
d="M274 539q-40 0 -40 68q0 63 30 107t58 58q12 7 16 0l7 -10q5 -8 -6 -16q-50 -33 -65 -95q-4 -19 -2 -38q8 5 15 5q33 0 33 -34q0 -21 -12.5 -33t-33.5 -12zM35 168q0 100 60.5 171t143.5 71q30 0 56 -10.5t37 -20t16 -17.5l8 27q3 11 14 11h11q5 0 8 -4t2 -9l-62 -457
q-14 -100 -61.5 -145t-115.5 -45q-74 0 -131 66q-9 10 1 20l9 9q10 10 21 -1q54 -54 103 -54q109 0 132 157l12 91q-12 -12 -42 -25t-69 -13q-69 0 -111 51t-42 127zM79 173q0 -61 32.5 -101.5t86.5 -40.5q27 0 53.5 11.5t38 21t15.5 14.5l33 234q-1 3 -4.5 7.5t-12 13.5
t-19.5 16.5t-28 13t-36 5.5q-68 0 -113.5 -57t-45.5 -138z" />
    <glyph glyph-name="Hcircumflex" unicode="&#x124;" horiz-adv-x="700" 
d="M67 13l95 674q2 13 14 13h22q13 0 11 -13l-44 -307h398l43 307q2 13 14 13h22q13 0 11 -13l-95 -674q-2 -13 -14 -13h-22q-13 0 -11 13l46 325h-397l-46 -325q-2 -13 -15 -13h-21q-13 0 -11 13zM320 768q-9 -6 -15 2l-7 11q-4 7 4 14l123 98q6 5 12 5q4 0 9 -5l96 -98
q8 -8 2 -14l-7 -8q-8 -8 -15 -2l-89 81z" />
    <glyph glyph-name="hcircumflex" unicode="&#x125;" horiz-adv-x="461" 
d="M38 13l95 674q2 13 15 13h17q13 0 11 -13l-48 -339q15 18 53.5 40t84.5 22q66 0 98.5 -47.5t19.5 -135.5l-30 -214q-2 -13 -15 -13h-18q-13 0 -11 13l30 214q10 69 -11.5 105t-69.5 36q-34 0 -68.5 -18t-48.5 -31.5t-21 -21.5l-40 -284q-2 -13 -15 -13h-19q-11 0 -9 13z
M48 769l-7 11q-4 7 4 14l123 98q6 5 12 5q4 0 9 -5l96 -98q8 -8 2 -14l-7 -8q-8 -8 -15 -2l-89 81l-113 -84q-9 -6 -15 2z" />
    <glyph glyph-name="Hbar" unicode="&#x126;" horiz-adv-x="702" 
d="M68 13l74 529h-23q-11 0 -9 14l1 6q2 11 13 11h23l16 114q2 13 14 13h22q13 0 11 -13l-16 -114h397l16 114q2 13 17 13h20q13 0 11 -13l-16 -114h22q13 0 11 -12l-1 -7q-2 -12 -14 -12h-22l-75 -529q-2 -13 -14 -13h-21q-15 0 -13 18l46 320h-397l-46 -325
q-2 -13 -18 -13h-18q-13 0 -11 13zM167 381h397l23 161h-398z" />
    <glyph glyph-name="hbar" unicode="&#x127;" horiz-adv-x="458" 
d="M37 13l75 529h-35q-11 0 -9 14l1 6q2 11 13 11h34l16 114q2 13 15 13h17q13 0 11 -13l-16 -114h166q13 0 11 -12l-1 -7q-2 -12 -14 -12h-167l-27 -196q10 11 25 23t47.5 26.5t65.5 14.5q70 0 99.5 -47t17.5 -136l-31 -214q-2 -13 -14 -13h-18q-13 0 -11 13l30 214
q10 69 -11.5 104.5t-70.5 35.5q-33 0 -67 -18t-48.5 -31t-20.5 -21l-40 -284q-2 -13 -16 -13h-16q-13 0 -11 13z" />
    <glyph glyph-name="Itilde" unicode="&#x128;" horiz-adv-x="256" 
d="M67 13l94 674q2 13 15 13h22q13 0 11 -13l-94 -674q-3 -13 -16 -13h-21q-13 0 -11 13zM84 799l-11 5q-9 3 -4 14q0 1 4.5 10.5t7.5 15t9.5 16t13.5 17t15.5 13.5t20 10.5t23.5 3.5q21 0 34.5 -14t19 -31.5t15 -31.5t22.5 -14q33 0 56 59q5 12 15 7l12 -4q7 -5 4 -13
q-32 -86 -93 -86q-20 0 -34 14.5t-20 31.5t-15.5 31.5t-21.5 14.5q-35 0 -59 -63q-4 -11 -14 -6z" />
    <glyph glyph-name="itilde" unicode="&#x129;" horiz-adv-x="193" 
d="M24 579l-11 5q-9 3 -4 14q0 1 4.5 10.5t7.5 15t9.5 16t13.5 17t15.5 13.5t20 10.5t23.5 3.5q21 0 34.5 -14t19 -31.5t15 -31.5t22.5 -14q33 0 56 59q5 12 15 7l12 -4q7 -5 4 -13q-32 -86 -93 -86q-20 0 -34 14.5t-20 31.5t-15.5 31.5t-21.5 14.5q-35 0 -59 -63
q-4 -11 -14 -6zM37 13l53 374q2 13 14 13h19q13 0 11 -13l-54 -374q-2 -13 -16 -13h-16q-13 0 -11 13z" />
    <glyph glyph-name="Imacron" unicode="&#x12a;" horiz-adv-x="256" 
d="M67 13l94 674q2 13 15 13h22q13 0 11 -13l-94 -674q-3 -13 -16 -13h-21q-13 0 -11 13zM82 831q-13 0 -11 13l2 12q2 13 14 13h243q13 0 10 -13l-1 -12q-2 -13 -15 -13h-242z" />
    <glyph glyph-name="imacron" unicode="&#x12b;" horiz-adv-x="193" 
d="M20 595q-13 0 -11 12l2 13q2 13 14 13h242q13 0 11 -13l-2 -13q-2 -12 -14 -12h-242zM37 13l53 374q2 13 14 13h19q13 0 11 -13l-54 -374q-2 -13 -16 -13h-16q-13 0 -11 13z" />
    <glyph glyph-name="Ibreve" unicode="&#x12c;" horiz-adv-x="256" 
d="M67 13l94 674q2 13 15 13h22q13 0 11 -13l-94 -674q-3 -13 -16 -13h-21q-13 0 -11 13zM199 775q-44 0 -74 32.5t-29 78.5q0 14 11 14h11q8 0 10 -12q5 -35 24 -56.5t50 -21.5q29 0 55.5 22.5t38.5 55.5q5 12 13 12h16q12 0 8 -14q-15 -49 -51 -80t-83 -31z" />
    <glyph glyph-name="ibreve" unicode="&#x12d;" horiz-adv-x="193" 
d="M135 538q-42 0 -71.5 32t-31.5 78q0 14 12 14h11q8 0 10 -11q3 -35 22.5 -57t50.5 -22q30 0 56.5 22.5t37.5 56.5q5 11 14 11h16q10 0 7 -14q-13 -48 -49.5 -79t-84.5 -31zM37 13l53 374q2 13 14 13h19q13 0 11 -13l-54 -374q-2 -13 -16 -13h-16q-13 0 -11 13z" />
    <glyph glyph-name="Iogonek" unicode="&#x12e;" horiz-adv-x="257" 
d="M67 10l95 677q2 13 15 13h22q13 0 11 -13l-94 -674q-3 -13 -16 -13h-11q-28 -17 -50.5 -49.5t-22.5 -74.5q0 -27 16 -41.5t40 -14.5t57 15q6 3 8 -0.5t2 -13.5q0 -12 -11 -20q-22 -17 -66 -17q-37 0 -61 20.5t-24 61.5q0 44 25 84t65 60z" />
    <glyph glyph-name="iogonek" unicode="&#x12f;" horiz-adv-x="194" 
d="M142 596q-12 0 -20 8.5t-8 20.5q0 16 11.5 27.5t26.5 11.5q12 0 20 -9t8 -22q0 -15 -11.5 -26t-26.5 -11zM37 11l54 376q2 13 15 13h18q13 0 11 -13l-53 -374q-2 -13 -14 -13h-11q-28 -17 -50.5 -49.5t-22.5 -74.5q0 -27 16 -41.5t40 -14.5t57 15q6 3 8 -0.5t2 -13.5
q0 -12 -11 -20q-22 -17 -66 -17q-37 0 -61 20.5t-24 61.5q0 45 25.5 85t66.5 60z" />
    <glyph glyph-name="Idotaccent" unicode="&#x130;" horiz-adv-x="256" 
d="M67 13l94 674q2 13 15 13h22q13 0 11 -13l-94 -674q-3 -13 -16 -13h-21q-13 0 -11 13zM201 810q-14 0 -23 9.5t-9 23.5q0 18 13 30.5t30 12.5q13 0 22.5 -9.5t9.5 -23.5q0 -18 -13 -30.5t-30 -12.5z" />
    <glyph glyph-name="dotlessi" unicode="&#x131;" horiz-adv-x="193" 
d="M37 13l53 374q2 13 14 13h19q13 0 11 -13l-54 -374q-2 -13 -16 -13h-16q-13 0 -11 13z" />
    <glyph glyph-name="IJ" unicode="&#x132;" horiz-adv-x="623" 
d="M67 13l94 674q2 13 15 13h22q13 0 11 -13l-94 -674q-3 -13 -16 -13h-21q-13 0 -11 13zM204 65q-5 9 3 17l14 11q11 9 17 0q42 -61 100 -61q56 0 98.5 46t54.5 132l67 477q2 13 15 13h21q13 0 11 -13l-67 -476q-15 -105 -69 -163t-135 -58q-87 0 -130 75z" />
    <glyph glyph-name="ij" unicode="&#x133;" horiz-adv-x="406" 
d="M142 596q-12 0 -20 8.5t-8 20.5q0 16 11.5 27.5t26.5 11.5q12 0 20 -9t8 -22q0 -15 -11.5 -26t-26.5 -11zM38 13l53 374q2 13 15 13h18q13 0 11 -13l-53 -374q-2 -13 -14 -13h-21q-11 0 -9 13zM355 596q-12 0 -20 8.5t-8 20.5q0 16 11.5 27.5t25.5 11.5q13 0 21 -9t8 -22
q0 -15 -11.5 -26t-26.5 -11zM231 -137l74 524q2 13 14 13h17q13 0 11 -13l-73 -524q-25 -173 -155 -173q-59 0 -97 43q-6 7 0 14l12 15q7 11 16 0q33 -31 73 -31q90 0 108 132z" />
    <glyph glyph-name="Jcircumflex" unicode="&#x134;" horiz-adv-x="374" 
d="M-45 65q-5 9 3 17l14 11q11 9 17 0q42 -61 100 -61q56 0 98.5 46t54.5 132l67 477q2 13 15 13h21q13 0 11 -13l-67 -476q-15 -105 -69 -163t-135 -58q-87 0 -130 75zM244 768q-9 -6 -15 2l-7 11q-4 7 4 14l123 98q6 5 12 5q4 0 9 -5l96 -98q8 -8 2 -14l-7 -8
q-8 -8 -15 -2l-89 81z" />
    <glyph glyph-name="jcircumflex" unicode="&#x135;" horiz-adv-x="192" 
d="M17 -137l74 524q2 13 14 13h17q13 0 11 -13l-73 -524q-25 -173 -157 -173q-31 0 -57 13.5t-38 29.5q-6 7 0 14l13 16q7 11 16 0q36 -33 72 -33q89 0 108 133zM19 552l-7 11q-4 7 4 14l123 98q6 5 12 5q4 0 9 -5l96 -98q8 -8 2 -14l-7 -8q-8 -8 -15 -2l-89 81l-113 -84
q-9 -6 -15 2z" />
    <glyph glyph-name="Kcommaaccent" unicode="&#x136;" horiz-adv-x="549" 
d="M67 13l95 672q2 15 16 15h19q15 0 13 -15l-44 -309l345 317q9 7 20 7h30q8 0 9 -6t-5 -11l-356 -327l273 -339q5 -4 1 -10.5t-14 -6.5h-24q-11 0 -20 10l-264 332l-46 -329q-1 -13 -17 -13h-20q-13 0 -11 13zM185 -147q0 21 12.5 33t33.5 12q40 0 40 -68q0 -63 -30 -107
t-58 -58q-12 -7 -16 0l-7 10q-5 8 6 16q50 33 65 95q4 19 2 38q-8 -5 -15 -5q-33 0 -33 34z" />
    <glyph glyph-name="kcommaaccent" unicode="&#x137;" horiz-adv-x="393" 
d="M38 13l95 674q2 13 13 13h19q13 0 11 -13l-63 -448l203 155q8 6 16 6h33q5 0 7 -2.5t1 -6.5t-5 -7l-218 -164l181 -203q5 -5 1.5 -11t-9.5 -6h-23q-12 0 -19 8l-173 199l-27 -194q-2 -13 -15 -13h-19q-11 0 -9 13zM118 -147q0 21 12.5 33t33.5 12q40 0 40 -68
q0 -63 -30 -107t-58 -58q-12 -7 -16 0l-7 10q-5 8 6 16q50 33 65 95q4 19 2 38q-8 -5 -15 -5q-33 0 -33 34z" />
    <glyph glyph-name="kgreenlandic" unicode="&#x138;" horiz-adv-x="397" 
d="M37 13l53 374q2 13 14 13h19q5 0 8 -4t2 -9l-24 -170l215 177q7 6 16 6h32q4 0 5.5 -3t-0.5 -7.5t-6 -7.5l-223 -182l186 -183q4 -5 1 -11t-9 -6h-25q-7 0 -16 8l-181 177l-24 -172q-2 -13 -14 -13h-15q-6 0 -10.5 4t-3.5 9z" />
    <glyph glyph-name="Lacute" unicode="&#x139;" horiz-adv-x="446" 
d="M67 13l95 674q2 13 14 13h23q5 0 8 -4t2 -9l-91 -645h283q13 0 11 -13l-3 -18q-2 -11 -14 -11h-317q-13 0 -11 13zM132 781q-12 -5 -15 3l-4 11q-3 8 8 14l157 90q12 6 16 -3l9 -21q3 -10 -6 -15z" />
    <glyph glyph-name="lacute" unicode="&#x13a;" horiz-adv-x="194" 
d="M38 13l95 674q2 13 12 13h21q5 0 8.5 -4t2.5 -9l-95 -674q-2 -13 -15 -13h-20q-11 0 -9 13zM99 776q-12 -5 -15 3l-4 11q-3 8 8 14l157 90q12 6 16 -3l9 -21q3 -10 -6 -15z" />
    <glyph glyph-name="Lcommaaccent" unicode="&#x13b;" horiz-adv-x="446" 
d="M67 13l95 674q2 13 14 13h23q5 0 8 -4t2 -9l-91 -645h283q13 0 11 -13l-3 -18q-2 -11 -14 -11h-317q-13 0 -11 13zM175 -147q0 21 12.5 33t33.5 12q40 0 40 -68q0 -63 -30 -107t-58 -58q-12 -7 -16 0l-7 10q-5 8 6 16q50 33 65 95q4 19 2 38q-8 -5 -15 -5q-33 0 -33 34z
" />
    <glyph glyph-name="lcommaaccent" unicode="&#x13c;" horiz-adv-x="194" 
d="M38 13l95 674q2 13 12 13h21q5 0 8.5 -4t2.5 -9l-95 -674q-2 -13 -15 -13h-20q-11 0 -9 13zM-3 -147q0 21 12.5 33t33.5 12q40 0 40 -68q0 -63 -30 -107t-58 -58q-12 -7 -16 0l-7 10q-5 8 6 16q50 33 65 95q4 19 2 38q-8 -5 -15 -5q-33 0 -33 34z" />
    <glyph glyph-name="Lcaron" unicode="&#x13d;" horiz-adv-x="446" 
d="M67 13l95 674q2 13 14 13h23q5 0 8 -4t2 -9l-91 -645h283q13 0 11 -13l-3 -18q-2 -11 -14 -11h-317q-13 0 -11 13zM338 666q0 21 12.5 33t33.5 12q40 0 40 -68q0 -63 -30 -107t-58 -58q-12 -7 -16 0l-7 10q-5 8 6 16q50 33 65 95q4 19 2 38q-8 -5 -15 -5q-33 0 -33 34z
" />
    <glyph glyph-name="lcaron" unicode="&#x13e;" horiz-adv-x="224" 
d="M38 13l95 674q2 13 12 13h21q5 0 8.5 -4t2.5 -9l-95 -674q-2 -13 -15 -13h-20q-11 0 -9 13zM255 477l-7 10q-5 8 6 16q49 32 64 95q5 21 2 38q-7 -5 -14 -5q-16 0 -25 10t-9 24q0 21 13 33t34 12q40 0 40 -68q0 -63 -30 -107t-58 -58q-12 -7 -16 0z" />
    <glyph glyph-name="Ldot" unicode="&#x13f;" horiz-adv-x="497" 
d="M67 13l95 674q2 13 14 13h23q5 0 8 -4t2 -9l-91 -645h283q13 0 11 -13l-3 -18q-2 -11 -14 -11h-317q-13 0 -11 13zM415 316q-14 0 -23 9.5t-9 23.5q0 18 13 30.5t30 12.5q13 0 22.5 -9.5t9.5 -23.5q0 -18 -13 -30.5t-30 -12.5z" />
    <glyph glyph-name="ldot" unicode="&#x140;" horiz-adv-x="327" 
d="M38 13l95 674q2 13 12 13h21q5 0 8.5 -4t2.5 -9l-95 -674q-2 -13 -15 -13h-20q-11 0 -9 13zM267 321q-14 0 -23 10t-9 24q0 17 13 29.5t30 12.5q13 0 22.5 -9.5t9.5 -23.5q0 -17 -13 -30t-30 -13z" />
    <glyph glyph-name="Lslash" unicode="&#x141;" horiz-adv-x="457" 
d="M71 13l43 307l-30 -16q-11 -7 -15 4l-2 8q-2 11 6 15l46 24l47 332q2 13 15 13h21q13 0 11 -13l-43 -305l137 74q11 8 15 -5l2 -6q4 -11 -7 -16l-152 -83l-43 -304h290q13 0 11 -15l-2 -14q-2 -13 -15 -13h-324q-13 0 -11 13z" />
    <glyph glyph-name="lslash" unicode="&#x142;" horiz-adv-x="225" 
d="M53 13l45 322l-63 -34q-12 -6 -15 4l-2 6q-4 12 6 17l79 42l45 317q2 13 14 13h18q5 0 8.5 -4t2.5 -9l-42 -293l108 59q11 6 15 -5l2 -6q4 -10 -7 -16l-123 -67l-48 -346q-2 -13 -16 -13h-16q-13 0 -11 13z" />
    <glyph glyph-name="Nacute" unicode="&#x143;" horiz-adv-x="713" 
d="M67 13l96 684q3 13 16 13h15l343 -621h2l82 598q2 13 15 13h20q13 0 11 -13l-96 -684q-1 -13 -17 -13h-16l-341 623h-1l-84 -600q-2 -13 -25 -13h-9q-13 0 -11 13zM365 781q-12 -5 -15 3l-4 11q-3 8 8 14l157 90q12 6 16 -3l9 -21q3 -10 -6 -15z" />
    <glyph glyph-name="nacute" unicode="&#x144;" horiz-adv-x="460" 
d="M37 13l53 374q2 13 15 13h10q11 0 11 -10l-2 -40q15 18 54.5 39t86.5 21q71 0 100.5 -48.5t17.5 -134.5l-30 -214q-2 -13 -15 -13h-18q-13 0 -11 13l30 214q10 69 -11.5 105t-71.5 36q-32 0 -66 -17.5t-49 -31t-21 -21.5l-40 -285q-2 -13 -15 -13h-19q-11 0 -9 13z
M205 559q-12 -5 -15 3l-4 11q-3 8 8 14l157 90q12 6 16 -3l9 -21q3 -10 -6 -15z" />
    <glyph glyph-name="Ncommaaccent" unicode="&#x145;" horiz-adv-x="713" 
d="M67 13l96 684q3 13 16 13h15l343 -621h2l82 598q2 13 15 13h20q13 0 11 -13l-96 -684q-1 -13 -17 -13h-16l-341 623h-1l-84 -600q-2 -13 -25 -13h-9q-13 0 -11 13zM263 -147q0 21 12.5 33t33.5 12q40 0 40 -68q0 -63 -30 -107t-58 -58q-12 -7 -16 0l-7 10q-5 8 6 16
q50 33 65 95q4 19 2 38q-8 -5 -15 -5q-33 0 -33 34z" />
    <glyph glyph-name="ncommaaccent" unicode="&#x146;" horiz-adv-x="461" 
d="M37 13l53 374q2 13 15 13h10q11 0 11 -10l-2 -40q15 18 54.5 39t86.5 21q71 0 100.5 -48.5t17.5 -134.5l-30 -214q-2 -13 -15 -13h-18q-13 0 -11 13l30 214q10 69 -11.5 105t-71.5 36q-32 0 -66 -17.5t-49 -31t-21 -21.5l-40 -285q-2 -13 -15 -13h-19q-11 0 -9 13z
M133 -147q0 21 12.5 33t33.5 12q40 0 40 -68q0 -63 -30 -107t-58 -58q-12 -7 -16 0l-7 10q-5 8 6 16q50 33 65 95q4 19 2 38q-8 -5 -15 -5q-33 0 -33 34z" />
    <glyph glyph-name="Ncaron" unicode="&#x147;" horiz-adv-x="713" 
d="M67 13l96 684q3 13 16 13h15l343 -621h2l82 598q2 13 15 13h20q13 0 11 -13l-96 -684q-1 -13 -17 -13h-16l-341 623h-1l-84 -600q-2 -13 -25 -13h-9q-13 0 -11 13zM431 762q-4 0 -9 5l-96 98q-8 8 -2 14l7 8q8 8 15 2l89 -81l113 84q9 6 15 -2l7 -11q4 -7 -4 -14
l-123 -98q-6 -5 -12 -5z" />
    <glyph glyph-name="ncaron" unicode="&#x148;" horiz-adv-x="460" 
d="M37 13l53 374q2 13 15 13h10q11 0 11 -10l-2 -40q15 18 54.5 39t86.5 21q71 0 100.5 -48.5t17.5 -134.5l-30 -214q-2 -13 -15 -13h-18q-13 0 -11 13l30 214q10 69 -11.5 105t-71.5 36q-32 0 -66 -17.5t-49 -31t-21 -21.5l-40 -285q-2 -13 -15 -13h-19q-11 0 -9 13z
M270 544q-4 0 -9 5l-96 98q-8 8 -2 14l7 8q8 8 15 2l89 -81l113 84q9 6 15 -2l7 -11q4 -7 -4 -14l-123 -98q-6 -5 -12 -5z" />
    <glyph glyph-name="napostrophe" unicode="&#x149;" horiz-adv-x="460" 
d="M37 13l53 374q2 13 15 13h10q11 0 11 -10l-2 -40q15 18 54.5 39t86.5 21q71 0 100.5 -48.5t17.5 -134.5l-30 -214q-2 -13 -15 -13h-18q-13 0 -11 13l30 214q10 69 -11.5 105t-71.5 36q-32 0 -66 -17.5t-49 -31t-21 -21.5l-40 -285q-2 -13 -15 -13h-19q-11 0 -9 13z
M-29 665q0 21 12.5 33t33.5 12q40 0 40 -68q0 -63 -30 -107t-58 -58q-12 -7 -16 0l-7 10q-5 8 6 16q50 33 65 95q4 19 2 38q-8 -5 -15 -5q-33 0 -33 34z" />
    <glyph glyph-name="Eng" unicode="&#x14a;" horiz-adv-x="714" 
d="M67 13l96 684q3 13 16 13h15l343 -621h2l82 598q2 13 15 13h20q13 0 11 -13l-116 -824q-25 -173 -157 -173q-31 0 -57 13.5t-38 29.5q-6 7 0 14l13 16q7 11 16 0q36 -33 72 -33q88 0 107 133l20 147l-330 603h-1l-84 -600q-2 -13 -25 -13h-9q-13 0 -11 13z" />
    <glyph glyph-name="eng" unicode="&#x14b;" horiz-adv-x="460" 
d="M37 13l53 374q2 13 15 13h10q11 0 11 -10l-2 -40q15 18 54.5 39t86.5 21q71 0 100.5 -48.5t17.5 -134.5l-52 -364q-25 -173 -157 -173q-31 0 -57 13.5t-38 29.5q-6 7 0 14l13 16q7 11 16 0q36 -33 72 -33q86 0 105 133l54 368q10 66 -12 101t-71 35q-32 0 -66 -17.5
t-49 -31t-21 -20.5l-40 -285q-2 -13 -15 -13h-19q-11 0 -9 13z" />
    <glyph glyph-name="Omacron" unicode="&#x14c;" horiz-adv-x="767" 
d="M65 300q0 169 111.5 289.5t267.5 120.5q118 0 198 -91t80 -222q0 -169 -111.5 -288t-267.5 -119q-118 0 -198 90t-80 220zM111 306q0 -114 67.5 -193t170.5 -79q129 0 228 105.5t99 251.5q0 115 -67.5 195t-170.5 80q-130 0 -228.5 -106.5t-98.5 -253.5zM348 831
q-13 0 -11 13l2 12q2 13 14 13h243q13 0 10 -13l-1 -12q-2 -13 -15 -13h-242z" />
    <glyph glyph-name="omacron" unicode="&#x14d;" horiz-adv-x="458" 
d="M35 171q0 98 62.5 168.5t150.5 70.5q65 0 109 -53t44 -128q0 -98 -63 -168.5t-149 -70.5q-65 0 -109.5 53t-44.5 128zM79 175q0 -61 32 -102.5t83 -41.5q65 0 113.5 57.5t48.5 136.5q0 60 -32 101.5t-82 41.5q-65 0 -114 -57t-49 -136zM157 595q-13 0 -11 12l2 13
q2 13 14 13h242q13 0 11 -13l-2 -13q-2 -12 -14 -12h-242z" />
    <glyph glyph-name="Obreve" unicode="&#x14e;" horiz-adv-x="767" 
d="M65 300q0 169 111.5 289.5t267.5 120.5q118 0 198 -91t80 -222q0 -169 -111.5 -288t-267.5 -119q-118 0 -198 90t-80 220zM111 306q0 -114 67.5 -193t170.5 -79q129 0 228 105.5t99 251.5q0 115 -67.5 195t-170.5 80q-130 0 -228.5 -106.5t-98.5 -253.5zM463 775
q-44 0 -74 32.5t-29 78.5q0 14 11 14h11q8 0 10 -12q5 -35 24 -56.5t50 -21.5q29 0 55.5 22.5t38.5 55.5q5 12 13 12h16q12 0 8 -14q-15 -49 -51 -80t-83 -31z" />
    <glyph glyph-name="obreve" unicode="&#x14f;" horiz-adv-x="458" 
d="M35 171q0 98 62.5 168.5t150.5 70.5q65 0 109 -53t44 -128q0 -98 -63 -168.5t-149 -70.5q-65 0 -109.5 53t-44.5 128zM79 175q0 -61 32 -102.5t83 -41.5q65 0 113.5 57.5t48.5 136.5q0 60 -32 101.5t-82 41.5q-65 0 -114 -57t-49 -136zM277 538q-42 0 -71.5 32t-31.5 78
q0 14 12 14h11q8 0 10 -11q3 -35 22.5 -57t50.5 -22q30 0 56.5 22.5t37.5 56.5q5 11 14 11h16q10 0 7 -14q-13 -48 -49.5 -79t-84.5 -31z" />
    <glyph glyph-name="Ohungarumlaut" unicode="&#x150;" horiz-adv-x="767" 
d="M65 300q0 169 111.5 289.5t267.5 120.5q118 0 198 -91t80 -222q0 -169 -111.5 -288t-267.5 -119q-118 0 -198 90t-80 220zM111 306q0 -114 67.5 -193t170.5 -79q129 0 228 105.5t99 251.5q0 115 -67.5 195t-170.5 80q-130 0 -228.5 -106.5t-98.5 -253.5zM521 766
q-12 0 -5 12l89 159q5 11 15 11h22q8 0 10.5 -5t-2.5 -12l-103 -157q-5 -8 -14 -8h-12zM372 766q-11 0 -6 12l89 159q6 11 15 11h23q8 0 10.5 -5t-2.5 -12l-104 -157q-4 -8 -13 -8h-12z" />
    <glyph glyph-name="ohungarumlaut" unicode="&#x151;" horiz-adv-x="458" 
d="M35 171q0 98 62.5 168.5t150.5 70.5q65 0 109 -53t44 -128q0 -98 -63 -168.5t-149 -70.5q-65 0 -109.5 53t-44.5 128zM79 175q0 -61 32 -102.5t83 -41.5q65 0 113.5 57.5t48.5 136.5q0 60 -32 101.5t-82 41.5q-65 0 -114 -57t-49 -136zM329 518q-12 0 -5 12l89 159
q5 11 14 11h23q8 0 10.5 -5t-2.5 -12l-104 -157q-4 -8 -13 -8h-12zM180 518q-11 0 -6 12l89 159q6 11 15 11h23q18 0 7 -17l-103 -157q-5 -8 -13 -8h-12z" />
    <glyph glyph-name="OE" unicode="&#x152;" horiz-adv-x="894" 
d="M65 300q0 169 111.5 289.5t265.5 120.5q43 0 76 -10h358q12 0 10 -13l-2 -17q-2 -13 -14 -13h-325l-38 -276h280q13 0 11 -13l-2 -17q-2 -13 -15 -13h-280l-42 -296h325q5 0 8 -4t2 -9l-3 -16q-2 -13 -13 -13h-358q-37 -10 -79 -10q-118 0 -197 89.5t-79 220.5zM108 306
q0 -114 68 -193t172 -79q34 0 63 7l87 616q-32 8 -62 8q-129 0 -228.5 -106.5t-99.5 -252.5z" />
    <glyph glyph-name="oe" unicode="&#x153;" horiz-adv-x="712" 
d="M34 171q0 98 62.5 168.5t148.5 70.5q91 0 132 -79q31 37 77 58t88 21q54 0 92.5 -29t38.5 -74t-30.5 -72.5t-73.5 -35t-86 -9t-73 2.5l-31 4l-11 -88q14 -34 43.5 -56t67.5 -22q55 0 110 37q10 7 15 -1l9 -15q4 -7 -5 -16q-19 -17 -59 -31.5t-79 -14.5q-41 0 -76.5 24.5
t-50.5 58.5q-65 -83 -157 -83q-64 0 -108 53t-44 128zM384 232q98 -15 172 2.5t74 70.5q0 27 -24.5 45t-62.5 18q-48 0 -87.5 -23t-63.5 -55zM77 175q0 -61 32.5 -102.5t82.5 -41.5q43 0 83 28t55 60l24 170q-11 29 -42 54t-72 25q-65 0 -114 -57t-49 -136z" />
    <glyph glyph-name="Racute" unicode="&#x154;" horiz-adv-x="605" 
d="M67 13l95 674q2 13 14 13h225q71 0 121.5 -54t50.5 -132q0 -85 -50.5 -150.5t-126.5 -86.5l93 -259q3 -6 0.5 -12t-10.5 -6h-29q-9 0 -12 9l-92 262q-12 -1 -37 -1h-159l-36 -257q-2 -13 -18 -13h-18q-13 0 -11 13zM157 312h187q70 0 124.5 57.5t54.5 138.5q0 62 -37 104
t-94 42h-187zM279 781q-12 -5 -15 3l-4 11q-3 8 8 14l157 90q12 6 16 -3l9 -21q3 -10 -6 -15z" />
    <glyph glyph-name="racute" unicode="&#x155;" horiz-adv-x="305" 
d="M37 13l53 374q2 13 14 13h13q10 0 10 -11l-2 -38q12 18 44 38.5t76 20.5q29 0 53 -12q14 -7 8 -18l-10 -20q-6 -11 -17 -5q-22 13 -43 13q-31 0 -59.5 -17.5t-40 -31t-15.5 -21.5l-40 -285q-2 -13 -14 -13h-21q-11 0 -9 13zM121 559q-12 -5 -15 3l-4 11q-3 8 8 14l157 90
q12 6 16 -3l9 -21q3 -10 -6 -15z" />
    <glyph glyph-name="Rcommaaccent" unicode="&#x156;" horiz-adv-x="604" 
d="M67 13l95 674q2 13 14 13h225q71 0 121.5 -54t50.5 -132q0 -85 -50.5 -150.5t-126.5 -86.5l93 -259q3 -6 0.5 -12t-10.5 -6h-29q-9 0 -12 9l-92 262q-12 -1 -37 -1h-159l-36 -257q-2 -13 -18 -13h-18q-13 0 -11 13zM157 312h187q70 0 124.5 57.5t54.5 138.5q0 62 -37 104
t-94 42h-187zM197 -147q0 21 12.5 33t33.5 12q40 0 40 -68q0 -63 -30 -107t-58 -58q-12 -7 -16 0l-7 10q-5 8 6 16q50 33 65 95q4 19 2 38q-8 -5 -15 -5q-33 0 -33 34z" />
    <glyph glyph-name="rcommaaccent" unicode="&#x157;" horiz-adv-x="305" 
d="M37 13l53 374q2 13 14 13h13q10 0 10 -11l-2 -38q12 18 44 38.5t76 20.5q29 0 53 -12q14 -7 8 -18l-10 -20q-6 -11 -17 -5q-22 13 -43 13q-31 0 -59.5 -17.5t-40 -31t-15.5 -21.5l-40 -285q-2 -13 -14 -13h-21q-11 0 -9 13zM-2 -147q0 21 12.5 33t33.5 12q40 0 40 -68
q0 -63 -30 -107t-58 -58q-12 -7 -16 0l-7 10q-5 8 6 16q50 33 65 95q4 19 2 38q-8 -5 -15 -5q-33 0 -33 34z" />
    <glyph glyph-name="Rcaron" unicode="&#x158;" horiz-adv-x="605" 
d="M67 13l95 674q2 13 14 13h225q71 0 121.5 -54t50.5 -132q0 -85 -50.5 -150.5t-126.5 -86.5l93 -259q3 -6 0.5 -12t-10.5 -6h-29q-9 0 -12 9l-92 262q-12 -1 -37 -1h-159l-36 -257q-2 -13 -18 -13h-18q-13 0 -11 13zM157 312h187q70 0 124.5 57.5t54.5 138.5q0 62 -37 104
t-94 42h-187zM345 762q-4 0 -9 5l-96 98q-8 8 -2 14l7 8q8 8 15 2l89 -81l113 84q9 6 15 -2l7 -11q4 -7 -4 -14l-123 -98q-6 -5 -12 -5z" />
    <glyph glyph-name="rcaron" unicode="&#x159;" horiz-adv-x="305" 
d="M37 13l53 374q2 13 14 13h13q10 0 10 -11l-2 -38q12 18 44 38.5t76 20.5q29 0 53 -12q14 -7 8 -18l-10 -20q-6 -11 -17 -5q-22 13 -43 13q-31 0 -59.5 -17.5t-40 -31t-15.5 -21.5l-40 -285q-2 -13 -14 -13h-21q-11 0 -9 13zM186 544q-4 0 -9 5l-96 98q-8 8 -2 14l7 8
q8 8 15 2l89 -81l113 84q9 6 15 -2l7 -11q4 -7 -4 -14l-123 -98q-6 -5 -12 -5z" />
    <glyph glyph-name="Sacute" unicode="&#x15a;" horiz-adv-x="506" 
d="M40 72q-10 10 0 21l12 12q11 15 21 2q67 -75 145 -75q72 0 124 43.5t52 107.5q0 51 -35.5 82.5t-114.5 71.5q-37 19 -60.5 34t-45.5 36t-32.5 47.5t-10.5 59.5q0 77 57 136.5t167 59.5q39 0 76 -13t54 -25l17 -13q10 -10 1 -21l-9 -12q-10 -13 -22 -5l-2 2q-3 2 -7 4.5
t-9.5 6t-12 7.5t-14.5 7.5t-17 7t-18.5 6t-20.5 4t-22 1.5q-81 0 -126 -46.5t-45 -102.5q0 -48 31.5 -79t94.5 -61q90 -43 132 -83.5t42 -106.5q0 -87 -66.5 -142.5t-161.5 -55.5q-99 0 -174 82zM256 773q-12 -5 -15 3l-4 11q-3 8 8 14l157 90q12 6 16 -3l9 -21
q3 -10 -6 -15z" />
    <glyph glyph-name="sacute" unicode="&#x15b;" horiz-adv-x="346" 
d="M24 35q-7 7 -2 14l13 16q7 11 17 1q5 -6 14.5 -13.5t30.5 -15.5t44 -8q40 0 67.5 22.5t27.5 55.5q0 18 -13 33.5t-27.5 24t-47.5 24.5q-45 22 -69.5 46.5t-24.5 60.5q0 45 34 79.5t98 34.5q56 0 98 -32q10 -7 2 -18l-9 -13q-8 -11 -18 -3q-35 25 -77 25q-41 0 -63 -22
t-22 -48q0 -24 18.5 -40.5t55.5 -34.5q30 -14 42.5 -21t32 -21t27 -31t7.5 -39q0 -53 -41 -87.5t-101 -34.5q-66 0 -114 45zM147 560q-12 -5 -15 3l-4 11q-3 8 8 14l157 90q12 6 16 -3l9 -21q3 -10 -6 -15z" />
    <glyph glyph-name="Scircumflex" unicode="&#x15c;" horiz-adv-x="506" 
d="M40 72q-10 10 0 21l12 12q11 15 21 2q67 -75 145 -75q72 0 124 43.5t52 107.5q0 51 -35.5 82.5t-114.5 71.5q-37 19 -60.5 34t-45.5 36t-32.5 47.5t-10.5 59.5q0 77 57 136.5t167 59.5q39 0 76 -13t54 -25l17 -13q10 -10 1 -21l-9 -12q-10 -13 -22 -5l-2 2q-3 2 -7 4.5
t-9.5 6t-12 7.5t-14.5 7.5t-17 7t-18.5 6t-20.5 4t-22 1.5q-81 0 -126 -46.5t-45 -102.5q0 -48 31.5 -79t94.5 -61q90 -43 132 -83.5t42 -106.5q0 -87 -66.5 -142.5t-161.5 -55.5q-99 0 -174 82zM218 760q-9 -6 -15 2l-7 11q-4 7 4 14l123 98q6 5 12 5q4 0 9 -5l96 -98
q8 -8 2 -14l-7 -8q-8 -8 -15 -2l-89 81z" />
    <glyph glyph-name="scircumflex" unicode="&#x15d;" horiz-adv-x="346" 
d="M24 35q-7 7 -2 14l13 16q7 11 17 1q5 -6 14.5 -13.5t30.5 -15.5t44 -8q40 0 67.5 22.5t27.5 55.5q0 18 -13 33.5t-27.5 24t-47.5 24.5q-45 22 -69.5 46.5t-24.5 60.5q0 45 34 79.5t98 34.5q56 0 98 -32q10 -7 2 -18l-9 -13q-8 -11 -18 -3q-35 25 -77 25q-41 0 -63 -22
t-22 -48q0 -24 18.5 -40.5t55.5 -34.5q30 -14 42.5 -21t32 -21t27 -31t7.5 -39q0 -53 -41 -87.5t-101 -34.5q-66 0 -114 45zM97 553l-7 11q-4 7 4 14l123 98q6 5 12 5q4 0 9 -5l96 -98q8 -8 2 -14l-7 -8q-8 -8 -15 -2l-89 81l-113 -84q-9 -6 -15 2z" />
    <glyph glyph-name="Scedilla" unicode="&#x15e;" horiz-adv-x="507" 
d="M41 72q-10 10 0 21l12 12q11 15 21 2q67 -75 145 -75q72 0 124 43.5t52 107.5q0 51 -35.5 82.5t-114.5 71.5q-37 19 -60.5 34t-45.5 36t-32.5 47.5t-10.5 59.5q0 77 57 136.5t167 59.5q39 0 76 -13t54 -25l17 -13q10 -10 1 -21l-9 -12q-10 -13 -22 -5l-3 2q-2 2 -6 4.5
t-9.5 6t-12 7.5t-14.5 7.5t-17 7t-18.5 6t-20.5 4t-22 1.5q-81 0 -126 -46.5t-45 -102.5q0 -48 31.5 -79t94.5 -61q90 -43 132 -83.5t42 -106.5q0 -86 -66 -141.5t-160 -56.5l-6 -44q34 -4 59 -26.5t25 -57.5q0 -46 -29 -78t-75 -32q-25 0 -43 10.5t-23 23.5t3 18l10 8
q7 3 8.5 2t6.5 -8q13 -18 43 -18q27 0 43.5 20t16.5 48q0 49 -73 60q-12 3 -10 13l9 64q-80 12 -141 79z" />
    <glyph glyph-name="scedilla" unicode="&#x15f;" horiz-adv-x="347" 
d="M25 35q-7 7 -2 14l13 16q7 11 17 1q5 -6 14.5 -13.5t30.5 -15.5t44 -8q40 0 67.5 22.5t27.5 55.5q0 18 -13 33.5t-27.5 24t-47.5 24.5q-45 22 -69.5 46.5t-24.5 60.5q0 45 34 79.5t98 34.5q56 0 98 -32q10 -7 2 -18l-9 -13q-8 -11 -18 -3q-35 25 -77 25q-41 0 -63 -22
t-22 -48q0 -24 18.5 -40.5t55.5 -34.5q30 -14 42.5 -21t32 -21t27 -31t7.5 -39q0 -53 -41 -87.5t-101 -34.5l-6 -44q34 -4 59 -26.5t25 -57.5q0 -46 -29 -78t-75 -32q-25 0 -43 10.5t-23 23.5t3 18l10 8q7 3 8.5 2t6.5 -8q13 -18 43 -18q27 0 43.5 20t16.5 48q0 49 -73 60
q-12 3 -10 13l9 65q-46 8 -79 41z" />
    <glyph glyph-name="Scaron" unicode="&#x160;" horiz-adv-x="506" 
d="M40 72q-10 10 0 21l12 12q11 15 21 2q67 -75 145 -75q72 0 124 43.5t52 107.5q0 51 -35.5 82.5t-114.5 71.5q-37 19 -60.5 34t-45.5 36t-32.5 47.5t-10.5 59.5q0 77 57 136.5t167 59.5q39 0 76 -13t54 -25l17 -13q10 -10 1 -21l-9 -12q-10 -13 -22 -5l-2 2q-3 2 -7 4.5
t-9.5 6t-12 7.5t-14.5 7.5t-17 7t-18.5 6t-20.5 4t-22 1.5q-81 0 -126 -46.5t-45 -102.5q0 -48 31.5 -79t94.5 -61q90 -43 132 -83.5t42 -106.5q0 -87 -66.5 -142.5t-161.5 -55.5q-99 0 -174 82zM320 754q-4 0 -9 5l-96 98q-8 8 -2 14l7 8q8 8 15 2l89 -81l113 84q9 6 15 -2
l7 -11q4 -7 -4 -14l-123 -98q-6 -5 -12 -5z" />
    <glyph glyph-name="scaron" unicode="&#x161;" horiz-adv-x="346" 
d="M24 35q-7 7 -2 14l13 16q7 11 17 1q5 -6 14.5 -13.5t30.5 -15.5t44 -8q40 0 67.5 22.5t27.5 55.5q0 18 -13 33.5t-27.5 24t-47.5 24.5q-45 22 -69.5 46.5t-24.5 60.5q0 45 34 79.5t98 34.5q56 0 98 -32q10 -7 2 -18l-9 -13q-8 -11 -18 -3q-35 25 -77 25q-41 0 -63 -22
t-22 -48q0 -24 18.5 -40.5t55.5 -34.5q30 -14 42.5 -21t32 -21t27 -31t7.5 -39q0 -53 -41 -87.5t-101 -34.5q-66 0 -114 45zM213 545q-4 0 -9 5l-96 98q-8 8 -2 14l7 8q8 8 15 2l89 -81l113 84q9 6 15 -2l7 -11q4 -7 -4 -14l-123 -98q-6 -5 -12 -5z" />
    <glyph glyph-name="Tcommaaccent" unicode="&#x162;" horiz-adv-x="422" 
d="M148 13l91 644h-170q-12 0 -10 15l2 15q2 13 14 13h386q13 0 11 -13l-2 -17q-2 -13 -15 -13h-170l-90 -644q-2 -13 -17 -13h-19q-13 0 -11 13zM109 -147q0 21 12.5 33t33.5 12q40 0 40 -68q0 -63 -30 -107t-58 -58q-12 -7 -16 0l-7 10q-5 8 6 16q50 33 65 95q4 19 2 38
q-8 -5 -15 -5q-33 0 -33 34z" />
    <glyph glyph-name="tcommaaccent" unicode="&#x163;" horiz-adv-x="309" 
d="M65 103l37 258h-44q-12 0 -9 13l2 16q1 10 13 10h43l15 109q2 13 15 13l17 1q13 0 11 -13l-15 -110h121q13 0 11 -13l-2 -13q-2 -13 -14 -13h-122l-36 -255q-6 -35 0 -54t31 -19q38 0 84 28q9 6 15 -4l7 -13q5 -10 -5 -17q-54 -37 -109 -37q-48 0 -61 29t-5 84zM71 -147
q0 21 12.5 33t33.5 12q40 0 40 -68q0 -63 -30 -107t-58 -58q-12 -7 -16 0l-7 10q-5 8 6 16q50 33 65 95q4 19 2 38q-8 -5 -15 -5q-33 0 -33 34z" />
    <glyph glyph-name="Tcaron" unicode="&#x164;" horiz-adv-x="422" 
d="M148 13l91 644h-170q-12 0 -10 15l2 15q2 13 14 13h386q13 0 11 -13l-2 -17q-2 -13 -15 -13h-170l-90 -644q-2 -13 -17 -13h-19q-13 0 -11 13zM277 762q-4 0 -9 5l-96 98q-8 8 -2 14l7 8q8 8 15 2l89 -81l113 84q9 6 15 -2l7 -11q4 -7 -4 -14l-123 -98q-6 -5 -12 -5z" />
    <glyph glyph-name="tcaron" unicode="&#x165;" horiz-adv-x="309" 
d="M64 103l37 258h-44q-12 0 -9 13l2 16q1 10 13 10h43l15 109q2 13 15 13l17 1q13 0 11 -13l-15 -110h121q13 0 11 -13l-2 -13q-2 -13 -14 -13h-122l-36 -255q-6 -35 0 -54t31 -19q38 0 84 28q9 6 15 -4l7 -13q5 -10 -5 -17q-54 -37 -109 -37q-48 0 -61 29t-5 84zM336 477
l-7 10q-5 8 6 16q49 32 64 95q5 21 2 38q-7 -5 -14 -5q-16 0 -25 10t-9 24q0 21 13 33t34 12q40 0 40 -68q0 -63 -30 -107t-58 -58q-12 -7 -16 0z" />
    <glyph glyph-name="Tbar" unicode="&#x166;" horiz-adv-x="422" 
d="M148 13l41 290h-112q-14 0 -10 15v4q2 12 14 12h112l46 323h-170q-12 0 -10 15l2 15q2 13 14 13h386q13 0 11 -13l-2 -17q-2 -13 -15 -13h-170l-45 -323h109q5 0 8.5 -3.5t2.5 -8.5l-1 -6q-2 -13 -14 -13h-110l-40 -290q-2 -13 -17 -13h-19q-13 0 -11 13z" />
    <glyph glyph-name="tbar" unicode="&#x167;" horiz-adv-x="309" 
d="M65 103l12 83h-33q-13 0 -11 14l1 4q2 13 14 13h33l21 144h-44q-12 0 -9 13l2 16q1 10 13 10h43l15 109q2 13 15 13l17 1q13 0 11 -13l-15 -110h121q13 0 11 -13l-2 -13q-2 -13 -14 -13h-122l-20 -144h102q13 0 11 -13l-1 -6q-2 -12 -14 -12h-103l-11 -80q-6 -35 0 -54
t31 -19q38 0 84 28q9 6 15 -4l7 -13q5 -10 -5 -17q-54 -37 -109 -37q-48 0 -61 29t-5 84z" />
    <glyph glyph-name="Utilde" unicode="&#x168;" horiz-adv-x="666" 
d="M94 255l61 432q2 13 14 13h22q13 0 11 -13l-60 -427q-15 -99 27.5 -161.5t129.5 -62.5t147 62.5t74 160.5l61 428q2 13 15 13h21q5 0 8 -4t2 -9l-60 -432q-17 -117 -92 -191t-183 -74q-102 0 -158 75t-40 190zM285 799l-11 5q-9 3 -4 14q0 1 4.5 10.5t7.5 15t9.5 16
t13.5 17t15.5 13.5t20 10.5t23.5 3.5q21 0 34.5 -14t19 -31.5t15 -31.5t22.5 -14q33 0 56 59q5 12 15 7l12 -4q7 -5 4 -13q-32 -86 -93 -86q-20 0 -34 14.5t-20 31.5t-15.5 31.5t-21.5 14.5q-34 0 -59 -63q-4 -11 -14 -6z" />
    <glyph glyph-name="utilde" unicode="&#x169;" 
d="M172 -10q-71 0 -100 47.5t-17 134.5l30 215q2 13 14 13h19q13 0 11 -13l-31 -215q-10 -69 12 -105t71 -36q33 0 64.5 18t45 32t17.5 21l40 285q2 13 14 13h19q5 0 8 -4t2 -9l-52 -374q-2 -13 -15 -13h-12q-10 0 -10 12l2 36q-12 -17 -48.5 -37.5t-83.5 -20.5zM152 579
l-11 5q-9 3 -4 14q0 1 4.5 10.5t7.5 15t9.5 16t13.5 17t15.5 13.5t20 10.5t23.5 3.5q21 0 34.5 -14t19 -31.5t15 -31.5t22.5 -14q33 0 56 59q5 12 15 7l12 -4q7 -5 4 -13q-32 -86 -93 -86q-20 0 -34 14.5t-20 31.5t-15.5 31.5t-21.5 14.5q-35 0 -59 -63q-4 -11 -14 -6z" />
    <glyph glyph-name="Umacron" unicode="&#x16a;" horiz-adv-x="666" 
d="M94 255l61 432q2 13 14 13h22q13 0 11 -13l-60 -427q-15 -99 27.5 -161.5t129.5 -62.5t147 62.5t74 160.5l61 428q2 13 15 13h21q5 0 8 -4t2 -9l-60 -432q-17 -117 -92 -191t-183 -74q-102 0 -158 75t-40 190zM283 831q-13 0 -11 13l2 12q2 13 14 13h243q13 0 10 -13
l-1 -12q-2 -13 -15 -13h-242z" />
    <glyph glyph-name="umacron" unicode="&#x16b;" 
d="M172 -10q-71 0 -100 47.5t-17 134.5l30 215q2 13 14 13h19q13 0 11 -13l-31 -215q-10 -69 12 -105t71 -36q33 0 64.5 18t45 32t17.5 21l40 285q2 13 14 13h19q5 0 8 -4t2 -9l-52 -374q-2 -13 -15 -13h-12q-10 0 -10 12l2 36q-12 -17 -48.5 -37.5t-83.5 -20.5zM150 595
q-13 0 -11 12l2 13q2 13 14 13h242q13 0 11 -13l-2 -13q-2 -12 -14 -12h-242z" />
    <glyph glyph-name="Ubreve" unicode="&#x16c;" horiz-adv-x="666" 
d="M94 255l61 432q2 13 14 13h22q13 0 11 -13l-60 -427q-15 -99 27.5 -161.5t129.5 -62.5t147 62.5t74 160.5l61 428q2 13 15 13h21q5 0 8 -4t2 -9l-60 -432q-17 -117 -92 -191t-183 -74q-102 0 -158 75t-40 190zM399 775q-44 0 -74 32.5t-29 78.5q0 14 11 14h11q8 0 10 -12
q5 -35 24 -56.5t50 -21.5q29 0 55.5 22.5t38.5 55.5q5 12 13 12h16q12 0 8 -14q-15 -49 -51 -80t-83 -31z" />
    <glyph glyph-name="ubreve" unicode="&#x16d;" 
d="M172 -10q-71 0 -100 47.5t-17 134.5l30 215q2 13 14 13h19q13 0 11 -13l-31 -215q-10 -69 12 -105t71 -36q33 0 64.5 18t45 32t17.5 21l40 285q2 13 14 13h19q5 0 8 -4t2 -9l-52 -374q-2 -13 -15 -13h-12q-10 0 -10 12l2 36q-12 -17 -48.5 -37.5t-83.5 -20.5zM267 538
q-42 0 -71.5 32t-31.5 78q0 14 12 14h11q8 0 10 -11q3 -35 22.5 -57t50.5 -22q30 0 56.5 22.5t37.5 56.5q5 11 14 11h16q10 0 7 -14q-13 -48 -49.5 -79t-84.5 -31z" />
    <glyph glyph-name="Uring" unicode="&#x16e;" horiz-adv-x="666" 
d="M94 255l61 432q2 13 14 13h22q13 0 11 -13l-60 -427q-15 -99 27.5 -161.5t129.5 -62.5t147 62.5t74 160.5l61 428q2 13 15 13h21q5 0 8 -4t2 -9l-60 -432q-17 -117 -92 -191t-183 -74q-102 0 -158 75t-40 190zM395 754q-36 0 -59.5 26t-23.5 65q0 51 32.5 86.5t80.5 35.5
q36 0 59 -26.5t23 -65.5q0 -51 -32 -86t-80 -35zM400 786q31 0 52 25t21 59q0 26 -15 45t-37 19q-32 0 -54 -24.5t-22 -58.5q0 -27 15.5 -46t39.5 -19z" />
    <glyph glyph-name="uring" unicode="&#x16f;" 
d="M172 -10q-71 0 -100 47.5t-17 134.5l30 215q2 13 14 13h19q13 0 11 -13l-31 -215q-10 -69 12 -105t71 -36q33 0 64.5 18t45 32t17.5 21l40 285q2 13 14 13h19q5 0 8 -4t2 -9l-52 -374q-2 -13 -15 -13h-12q-10 0 -10 12l2 36q-12 -17 -48.5 -37.5t-83.5 -20.5zM258 497
q-36 0 -59.5 26t-23.5 65q0 51 32.5 86.5t80.5 35.5q36 0 59 -26.5t23 -65.5q0 -51 -32 -86t-80 -35zM263 529q31 0 52 25t21 59q0 26 -15 45t-37 19q-32 0 -54 -24.5t-22 -58.5q0 -27 15.5 -46t39.5 -19z" />
    <glyph glyph-name="Uhungarumlaut" unicode="&#x170;" horiz-adv-x="666" 
d="M94 255l61 432q2 13 14 13h22q13 0 11 -13l-60 -427q-15 -99 27.5 -161.5t129.5 -62.5t147 62.5t74 160.5l61 428q2 13 15 13h21q5 0 8 -4t2 -9l-60 -432q-17 -117 -92 -191t-183 -74q-102 0 -158 75t-40 190zM456 766q-12 0 -5 12l89 159q5 11 15 11h22q8 0 10.5 -5
t-2.5 -12l-103 -157q-5 -8 -14 -8h-12zM307 766q-11 0 -6 12l89 159q6 11 15 11h23q8 0 10.5 -5t-2.5 -12l-104 -157q-4 -8 -13 -8h-12z" />
    <glyph glyph-name="uhungarumlaut" unicode="&#x171;" 
d="M172 -10q-71 0 -100 47.5t-17 134.5l30 215q2 13 14 13h19q13 0 11 -13l-31 -215q-10 -69 12 -105t71 -36q33 0 64.5 18t45 32t17.5 21l40 285q2 13 14 13h19q5 0 8 -4t2 -9l-52 -374q-2 -13 -15 -13h-12q-10 0 -10 12l2 36q-12 -17 -48.5 -37.5t-83.5 -20.5zM328 518
q-12 0 -5 12l89 159q5 11 14 11h23q8 0 10.5 -5t-2.5 -12l-104 -157q-4 -8 -13 -8h-12zM179 518q-11 0 -6 12l89 159q6 11 15 11h23q18 0 7 -17l-103 -157q-5 -8 -13 -8h-12z" />
    <glyph glyph-name="Uogonek" unicode="&#x172;" horiz-adv-x="669" 
d="M196 -140q0 80 70 132q-91 10 -138.5 83t-32.5 180l61 432q2 13 14 13h22q13 0 11 -13l-60 -427q-15 -99 27.5 -161.5t129.5 -62.5t147 62.5t74 160.5l61 428q2 13 15 13h21q5 0 8 -4t2 -9l-60 -432q-17 -114 -89 -187.5t-177 -77.5q-27 -18 -47 -49.5t-20 -70.5
q0 -27 16 -41.5t40 -14.5t57 15q6 3 8 -0.5t2 -13.5q0 -12 -11 -20q-22 -17 -66 -17q-37 0 -61 20.5t-24 61.5z" />
    <glyph glyph-name="uogonek" unicode="&#x173;" 
d="M172 -10q-71 0 -100 47.5t-17 134.5l30 215q2 13 14 13h19q13 0 11 -13l-31 -215q-10 -69 12 -104.5t71 -35.5q33 0 64.5 17.5t45 31.5t17.5 21l40 285q2 13 14 13h19q5 0 8 -4t2 -9l-52 -374q-2 -13 -15 -13h-1q-28 -17 -50.5 -49.5t-22.5 -74.5q0 -27 16 -41.5
t40 -14.5t57 15q6 3 8 -0.5t2 -13.5q0 -12 -11 -20q-22 -17 -66 -17q-37 0 -61 20.5t-24 61.5q0 44 25.5 84t65.5 60l2 38q-12 -17 -48.5 -37.5t-83.5 -20.5z" />
    <glyph glyph-name="Wcircumflex" unicode="&#x174;" horiz-adv-x="817" 
d="M181 -3l-84 690q-1 13 13 13h24q8 0 10 -11l66 -571h2l240 583q4 9 11 9h6q9 0 10 -9l80 -582h2l225 570q4 11 13 11h26q14 0 10 -13l-276 -690q-3 -7 -9 -7h-7q-8 0 -9 7l-82 595h-2l-244 -595q-3 -7 -9 -7h-7q-9 0 -9 7zM376 768q-9 -6 -15 2l-7 11q-4 7 4 14l123 98
q6 5 12 5q4 0 9 -5l96 -98q8 -8 2 -14l-7 -8q-8 -8 -15 -2l-89 81z" />
    <glyph glyph-name="wcircumflex" unicode="&#x175;" horiz-adv-x="556" 
d="M106 -1l-55 385q-4 16 10 16h20q10 0 11 -9l40 -301h2l147 311q4 9 12 9h4q8 0 9 -9l63 -311h1l123 301q4 9 14 9h23q13 0 6 -16l-163 -385q-5 -9 -12 -9h-4q-7 0 -8 9l-64 322h-1l-154 -322q-4 -9 -12 -9h-4q-6 0 -8 9zM201 552l-7 11q-4 7 4 14l123 98q6 5 12 5
q4 0 9 -5l96 -98q8 -8 2 -14l-7 -8q-8 -8 -15 -2l-89 81l-113 -84q-9 -6 -15 2z" />
    <glyph glyph-name="Ycircumflex" unicode="&#x176;" horiz-adv-x="512" 
d="M192 13l45 327l-181 347q-6 13 9 13h28q8 0 11 -6l160 -307l248 307q6 6 14 6h33q8 0 10 -4.5t-3 -10.5l-282 -344l-46 -328q-2 -13 -15 -13h-20q-12 0 -11 13zM216 768q-9 -6 -15 2l-7 11q-4 7 4 14l123 98q6 5 12 5q4 0 9 -5l96 -98q8 -8 2 -14l-7 -8q-8 -8 -15 -2
l-89 81z" />
    <glyph glyph-name="ycircumflex" unicode="&#x177;" horiz-adv-x="408" 
d="M145 4l-116 380q-4 16 10 16h21q8 0 11 -9l100 -339h2l186 339q5 9 14 9h22q7 0 9 -5t-2 -11l-376 -676q-5 -8 -14 -8h-21q-15 0 -7 14zM127 552l-7 11q-4 7 4 14l123 98q6 5 12 5q4 0 9 -5l96 -98q8 -8 2 -14l-7 -8q-8 -8 -15 -2l-89 81l-113 -84q-9 -6 -15 2z" />
    <glyph glyph-name="Ydieresis" unicode="&#x178;" horiz-adv-x="512" 
d="M192 13l45 327l-181 347q-6 13 9 13h28q8 0 11 -6l160 -307l248 307q6 6 14 6h33q8 0 10 -4.5t-3 -10.5l-282 -344l-46 -328q-2 -13 -15 -13h-20q-12 0 -11 13zM416 801q-12 0 -20 8.5t-8 20.5q0 16 11.5 27.5t26.5 11.5q13 0 21 -8.5t8 -21.5q0 -16 -11.5 -27t-27.5 -11
zM228 801q-12 0 -20 8.5t-8 20.5q0 16 11.5 27.5t26.5 11.5q13 0 21 -8.5t8 -21.5q0 -16 -11.5 -27t-27.5 -11z" />
    <glyph glyph-name="Zacute" unicode="&#x179;" horiz-adv-x="491" 
d="M7 0q-14 0 -12 12l2 18l444 623v3h-315q-12 0 -10 13l2 22q1 9 13 9h370q13 0 11 -12l-2 -17l-445 -624v-3h325q13 0 11 -13l-2 -18q-2 -13 -15 -13h-377zM263 781q-12 -5 -15 3l-4 11q-3 8 8 14l157 90q12 6 16 -3l9 -21q3 -10 -6 -15z" />
    <glyph glyph-name="zacute" unicode="&#x17a;" horiz-adv-x="343" 
d="M8 0q-12 0 -10 11l2 11l255 337v1h-180q-12 0 -10 13l2 14q3 13 13 13h232q8 0 10.5 -6t-2.5 -13l-254 -339v-2h180q13 0 11 -13l-2 -14q-2 -13 -14 -13h-233zM151 559q-12 -5 -15 3l-4 11q-3 8 8 14l157 90q12 6 16 -3l9 -21q3 -10 -6 -15z" />
    <glyph glyph-name="Zdotaccent" unicode="&#x17b;" horiz-adv-x="491" 
d="M7 0q-14 0 -12 12l2 18l444 623v3h-315q-12 0 -10 13l2 22q1 9 13 9h370q13 0 11 -12l-2 -17l-445 -624v-3h325q13 0 11 -13l-2 -18q-2 -13 -15 -13h-377zM332 810q-14 0 -23 9.5t-9 23.5q0 18 13 30.5t30 12.5q13 0 22.5 -9.5t9.5 -23.5q0 -18 -13 -30.5t-30 -12.5z" />
    <glyph glyph-name="zdotaccent" unicode="&#x17c;" horiz-adv-x="343" 
d="M8 0q-12 0 -10 11l2 11l255 337v1h-180q-12 0 -10 13l2 14q3 13 13 13h232q8 0 10.5 -6t-2.5 -13l-254 -339v-2h180q13 0 11 -13l-2 -14q-2 -13 -14 -13h-233zM222 582q-14 0 -23 10t-9 24q0 17 13 29.5t30 12.5q13 0 22.5 -9.5t9.5 -23.5q0 -17 -13 -30t-30 -13z" />
    <glyph glyph-name="Zcaron" unicode="&#x17d;" horiz-adv-x="491" 
d="M7 0q-14 0 -12 12l2 18l444 623v3h-315q-12 0 -10 13l2 22q1 9 13 9h370q13 0 11 -12l-2 -17l-445 -624v-3h325q13 0 11 -13l-2 -18q-2 -13 -15 -13h-377zM324 762q-4 0 -9 5l-96 98q-8 8 -2 14l7 8q8 8 15 2l89 -81l113 84q9 6 15 -2l7 -11q4 -7 -4 -14l-123 -98
q-6 -5 -12 -5z" />
    <glyph glyph-name="zcaron" unicode="&#x17e;" horiz-adv-x="343" 
d="M8 0q-12 0 -10 11l2 11l255 337v1h-180q-12 0 -10 13l2 14q3 13 13 13h232q8 0 10.5 -6t-2.5 -13l-254 -339v-2h180q13 0 11 -13l-2 -14q-2 -13 -14 -13h-233zM217 544q-4 0 -9 5l-96 98q-8 8 -2 14l7 8q8 8 15 2l89 -81l113 84q9 6 15 -2l7 -11q4 -7 -4 -14l-123 -98
q-6 -5 -12 -5z" />
    <glyph glyph-name="florin" unicode="&#x192;" horiz-adv-x="305" 
d="M47 -135l69 496h-74q-13 0 -11 13l2 13q2 13 14 13h75l19 137q12 86 54.5 129.5t106.5 43.5q31 0 58.5 -14t35.5 -29q6 -8 0 -16l-12 -14q-9 -11 -17 -1q-10 12 -30 23t-41 11q-42 0 -72 -33t-39 -100l-19 -137h128q13 0 11 -12l-3 -15q-2 -12 -14 -12h-128l-70 -496
q-12 -86 -54 -130.5t-106 -44.5q-31 0 -58.5 14t-36.5 29q-6 9 1 16l12 14q7 11 16 1q10 -12 30 -23t41 -11q43 0 73 34t39 101z" />
    <glyph glyph-name="Aringacute" unicode="&#x1fa;" horiz-adv-x="601" 
d="M312 909l-4 11q-3 8 8 14l157 90q12 6 16 -3l9 -21q3 -10 -6 -15l-165 -79q-12 -5 -15 3zM9 0h-29q-12 0 -5 14l365 676q-26 8 -42 32t-16 56q0 51 32.5 86.5t80.5 35.5q36 0 59 -26.5t23 -65.5q0 -46 -26.5 -79.5t-67.5 -40.5l172 -676q4 -12 -11 -12h-26q-11 0 -13 9
l-46 184h-338l-96 -184q-5 -9 -16 -9zM370 719q31 0 52 25t21 59q0 26 -15 45t-37 19q-32 0 -54 -24.5t-22 -58.5q0 -27 15.5 -46t39.5 -19zM144 232h304l-93 403h-3z" />
    <glyph glyph-name="aringacute" unicode="&#x1fb;" 
d="M247 433q-36 0 -59.5 26t-23.5 65q0 51 32.5 86.5t80.5 35.5q36 0 59 -26.5t23 -65.5q0 -51 -32 -86t-80 -35zM252 465q31 0 52 25t21 59q0 26 -15 45t-37 19q-32 0 -54 -24.5t-22 -58.5q0 -27 15.5 -46t39.5 -19zM208 654q-12 -5 -15 3l-4 11q-3 8 8 14l157 90
q12 6 16 -3l9 -21q3 -10 -6 -15zM391 387l-52 -374q-2 -13 -14 -13h-11q-14 0 -12 14l2 34q-15 -18 -50 -38t-80 -20q-61 0 -100 51.5t-39 126.5q0 100 60.5 171t143.5 71q30 0 56 -10.5t37 -20t16 -17.5l8 27q3 11 14 11h11q5 0 8 -4t2 -9zM308 103l30 210q-3 7 -11.5 17
t-33.5 24t-55 14q-68 0 -113.5 -56.5t-45.5 -137.5q0 -60 28.5 -101.5t75.5 -41.5q33 0 64 18t44.5 33t16.5 21z" />
    <glyph glyph-name="AEacute" unicode="&#x1fc;" horiz-adv-x="835" 
d="M-6 0h-29q-14 0 -1 17l472 666q13 17 28 17h352q13 0 11 -13l-2 -16q-2 -13 -15 -13h-328l-39 -277h282q18 0 15 -15l-2 -13q-2 -15 -16 -15h-285l-41 -296h328q14 0 11 -15l-3 -14q-2 -13 -14 -13h-359q-13 0 -11 13l25 180h-235l-127 -184q-8 -9 -17 -9zM166 232h213
l53 382zM583 782q-12 -5 -15 3l-4 11q-3 8 8 14l157 90q12 6 16 -3l9 -21q3 -10 -6 -15z" />
    <glyph glyph-name="aeacute" unicode="&#x1fd;" horiz-adv-x="636" 
d="M121 -10q-51 0 -81 37.5t-21 97.5q8 59 53 95.5t112 36.5q58 0 90 -13q13 67 3 97t-58 30q-15 0 -30 -2t-26.5 -4.5t-23 -6t-18 -6t-12.5 -5.5t-7 -3q-12 -3 -12 8l-2 16q0 9 10 13q55 29 127 29q76 0 90 -60q26 27 67 43.5t83 16.5q54 0 92.5 -29t38.5 -74t-30 -72.5
t-73.5 -35t-86.5 -9t-73 2.5l-30 4l-9 -93q30 -73 108 -73q54 0 110 37q10 6 15 -1l9 -14q4 -7 -5 -16q-18 -18 -58 -32.5t-80 -14.5q-73 0 -116 68q-25 -27 -69 -47.5t-87 -20.5zM308 232q98 -15 171.5 2.5t73.5 70.5q0 27 -24.5 45t-62.5 18q-96 0 -147 -67zM132 29
q35 0 69 18t51 39l17 120q-37 15 -87 15t-83 -26.5t-39 -70.5q-7 -46 13.5 -70.5t58.5 -24.5zM337 559q-12 -5 -15 3l-4 11q-3 8 8 14l157 90q12 6 16 -3l9 -21q3 -10 -6 -15z" />
    <glyph glyph-name="Oslashacute" unicode="&#x1fe;" horiz-adv-x="766" 
d="M49 28q-6 10 2 18l65 62q-51 77 -51 192q0 168 114 289t265 121q128 0 207 -98l68 64q10 10 17 0l3 -4q7 -9 -3 -18l-67 -64q53 -82 53 -194q0 -166 -114.5 -286t-265.5 -120q-131 0 -208 96l-66 -62q-8 -10 -16 0zM152 140l464 441q-69 85 -179 85q-129 0 -228.5 -107
t-99.5 -254q0 -99 43 -165zM170 118q67 -84 179 -84q130 0 229.5 106t99.5 252q0 99 -45 167zM399 781q-12 -5 -15 3l-4 11q-3 8 8 14l157 90q12 6 16 -3l9 -21q3 -10 -6 -15z" />
    <glyph glyph-name="oslashacute" unicode="&#x1ff;" horiz-adv-x="456" 
d="M307 559q-12 -5 -15 3l-4 11q-3 8 8 14l157 90q12 6 16 -3l9 -21q3 -10 -6 -15zM35 36q-8 8 2 18l18 18q-20 42 -20 98q0 97 64 168.5t149 71.5q71 0 114 -58l23 22q9 8 17 0l4 -4q9 -9 -2 -18l-25 -24q21 -40 21 -99q0 -98 -63.5 -168.5t-147.5 -70.5q-72 0 -117 58
l-17 -17q-7 -7 -16 1zM91 102l236 220q-32 46 -85 46q-66 0 -114.5 -58t-48.5 -138q0 -40 12 -70zM107 78q32 -47 87 -47q65 0 114 57t49 136q0 43 -14 74z" />
    <glyph glyph-name="Scommaaccent" unicode="&#x218;" horiz-adv-x="507" 
d="M41 72q-10 10 0 21l12 12q11 15 21 2q67 -75 145 -75q72 0 124 43.5t52 107.5q0 51 -35.5 82.5t-114.5 71.5q-37 19 -60.5 34t-45.5 36t-32.5 47.5t-10.5 59.5q0 77 57 136.5t167 59.5q39 0 76 -13t54 -25l17 -13q10 -10 1 -21l-9 -12q-10 -13 -22 -5l-3 2q-2 2 -6 4.5
t-9.5 6t-12 7.5t-14.5 7.5t-17 7t-18.5 6t-20.5 4t-22 1.5q-81 0 -126 -46.5t-45 -102.5q0 -48 31.5 -79t94.5 -61q90 -43 132 -83.5t42 -106.5q0 -87 -66.5 -142.5t-161.5 -55.5q-99 0 -174 82zM166 -155q0 21 12.5 33t33.5 12q40 0 40 -68q0 -63 -30 -107t-58 -58
q-12 -7 -16 0l-7 10q-5 8 6 16q50 33 65 95q4 19 2 38q-8 -5 -15 -5q-33 0 -33 34z" />
    <glyph glyph-name="scommaaccent" unicode="&#x219;" horiz-adv-x="346" 
d="M24 35q-7 7 -2 14l13 16q7 11 17 1q5 -6 14.5 -13.5t30.5 -15.5t44 -8q40 0 67.5 22.5t27.5 55.5q0 18 -13 33.5t-27.5 24t-47.5 24.5q-45 22 -69.5 46.5t-24.5 60.5q0 45 34 79.5t98 34.5q56 0 98 -32q10 -7 2 -18l-9 -13q-8 -11 -18 -3q-35 25 -77 25q-41 0 -63 -22
t-22 -48q0 -24 18.5 -40.5t55.5 -34.5q30 -14 42.5 -21t32 -21t27 -31t7.5 -39q0 -53 -41 -87.5t-101 -34.5q-66 0 -114 45zM80 -146q0 21 12.5 33t33.5 12q40 0 40 -68q0 -63 -30 -107t-58 -58q-12 -7 -16 0l-7 10q-5 8 6 16q50 33 65 95q4 19 2 38q-8 -5 -15 -5
q-33 0 -33 34z" />
    <glyph glyph-name="uni021A" unicode="&#x21a;" horiz-adv-x="422" 
d="M148 13l91 644h-170q-12 0 -10 15l2 15q2 13 14 13h386q13 0 11 -13l-2 -17q-2 -13 -15 -13h-170l-90 -644q-2 -13 -17 -13h-19q-13 0 -11 13zM96 -147q0 21 12.5 33t33.5 12q40 0 40 -68q0 -63 -30 -107t-58 -58q-12 -7 -16 0l-7 10q-5 8 6 16q50 33 65 95q4 19 2 38
q-8 -5 -15 -5q-33 0 -33 34z" />
    <glyph glyph-name="uni021B" unicode="&#x21b;" horiz-adv-x="309" 
d="M65 103l37 258h-44q-12 0 -9 13l2 16q1 10 13 10h43l15 109q2 13 15 13l17 1q13 0 11 -13l-15 -110h121q13 0 11 -13l-2 -13q-2 -13 -14 -13h-122l-36 -255q-6 -35 0 -54t31 -19q38 0 84 28q9 6 15 -4l7 -13q5 -10 -5 -17q-54 -37 -109 -37q-48 0 -61 29t-5 84zM71 -147
q0 21 12.5 33t33.5 12q40 0 40 -68q0 -63 -30 -107t-58 -58q-12 -7 -16 0l-7 10q-5 8 6 16q50 33 65 95q4 19 2 38q-8 -5 -15 -5q-33 0 -33 34z" />
    <glyph glyph-name="dotlessj" unicode="&#x237;" horiz-adv-x="192" 
d="M17 -137l74 524q2 13 14 13h17q13 0 11 -13l-73 -524q-25 -173 -157 -173q-31 0 -57 13.5t-38 29.5q-6 7 0 14l13 16q7 11 16 0q36 -33 72 -33q89 0 108 133z" />
    <glyph glyph-name="circumflex" unicode="&#x2c6;" horiz-adv-x="336" 
d="M69 552l-7 11q-4 7 4 14l123 98q6 5 12 5q4 0 9 -5l96 -98q8 -8 2 -14l-7 -8q-8 -8 -15 -2l-89 81l-113 -84q-9 -6 -15 2z" />
    <glyph glyph-name="caron" unicode="&#x2c7;" horiz-adv-x="336" 
d="M171 544q-4 0 -9 5l-96 98q-8 8 -2 14l7 8q8 8 15 2l89 -81l113 84q9 6 15 -2l7 -11q4 -7 -4 -14l-123 -98q-6 -5 -12 -5z" />
    <glyph glyph-name="uni02C9" unicode="&#x2c9;" horiz-adv-x="373" 
d="M89 595q-13 0 -11 12l2 13q2 13 14 13h242q13 0 11 -13l-2 -13q-2 -12 -14 -12h-242z" />
    <glyph glyph-name="breve" unicode="&#x2d8;" horiz-adv-x="311" 
d="M171 538q-42 0 -71.5 32t-31.5 78q0 14 12 14h11q8 0 10 -11q3 -35 22.5 -57t50.5 -22q30 0 56.5 22.5t37.5 56.5q5 11 14 11h16q10 0 7 -14q-13 -48 -49.5 -79t-84.5 -31z" />
    <glyph glyph-name="dotaccent" unicode="&#x2d9;" horiz-adv-x="197" 
d="M119 582q-14 0 -23 10t-9 24q0 17 13 29.5t30 12.5q13 0 22.5 -9.5t9.5 -23.5q0 -17 -13 -30t-30 -13z" />
    <glyph glyph-name="ring" unicode="&#x2da;" horiz-adv-x="261" 
d="M140 497q-36 0 -59.5 26t-23.5 65q0 51 32.5 86.5t80.5 35.5q36 0 59 -26.5t23 -65.5q0 -51 -32 -86t-80 -35zM145 529q31 0 52 25t21 59q0 26 -15 45t-37 19q-32 0 -54 -24.5t-22 -58.5q0 -27 15.5 -46t39.5 -19z" />
    <glyph glyph-name="ogonek" unicode="&#x2db;" horiz-adv-x="249" 
d="M141 12l31 -4q-6 -3 -13 -8q-28 -17 -50.5 -49.5t-22.5 -74.5q0 -27 16 -41.5t40 -14.5t57 15q6 3 8 -0.5t2 -13.5q0 -12 -11 -20q-22 -17 -66 -17q-37 0 -61 20.5t-24 61.5q0 44 26.5 84.5t67.5 61.5z" />
    <glyph glyph-name="tilde" unicode="&#x2dc;" horiz-adv-x="342" 
d="M72 579l-11 5q-9 3 -4 14q0 1 4.5 10.5t7.5 15t9.5 16t13.5 17t15.5 13.5t20 10.5t23.5 3.5q21 0 34.5 -14t19 -31.5t15 -31.5t22.5 -14q33 0 56 59q5 12 15 7l12 -4q7 -5 4 -13q-32 -86 -93 -86q-20 0 -34 14.5t-20 31.5t-15.5 31.5t-21.5 14.5q-35 0 -59 -63
q-4 -11 -14 -6z" />
    <glyph glyph-name="hungarumlaut" unicode="&#x2dd;" horiz-adv-x="353" 
d="M221 518q-12 0 -5 12l89 159q5 11 14 11h23q8 0 10.5 -5t-2.5 -12l-104 -157q-4 -8 -13 -8h-12zM72 518q-11 0 -6 12l89 159q6 11 15 11h23q18 0 7 -17l-103 -157q-5 -8 -13 -8h-12z" />
    <glyph glyph-name="uni0394" unicode="&#x394;" horiz-adv-x="677" 
d="M-16 0q-27 0 -8 37l361 671q3 7 12 7h3q9 0 11 -7l170 -673q8 -35 -21 -35h-528zM30 42h452l-139 589h-2z" />
    <glyph glyph-name="uni03A9" unicode="&#x3a9;" horiz-adv-x="780" 
d="M3 13l3 15q2 13 13 13h129q-67 48 -102 129.5t-21 178.5q21 151 128.5 256t245.5 105q132 0 213.5 -106t60.5 -255q-14 -99 -69 -180.5t-137 -127.5h124q5 0 8.5 -4t2.5 -9l-3 -15q-2 -13 -13 -13h-213q-5 0 -8 4t-2 9l3 15q1 9 12 13q96 25 165 111t85 197
q18 132 -50 224.5t-185 92.5q-118 0 -211.5 -92.5t-111.5 -224.5q-16 -111 29 -197t133 -111q11 -4 10 -13l-3 -15q-2 -13 -12 -13h-213q-13 0 -11 13z" />
    <glyph glyph-name="uni03BC" unicode="&#x3bc;" horiz-adv-x="467" 
d="M83 29l-45 -316q-2 -13 -16 -13h-15q-13 0 -11 13l95 674q2 13 14 13h19q13 0 11 -13l-31 -215q-10 -69 12 -104.5t71 -35.5q33 0 64.5 17.5t45 31.5t17.5 21l40 285q2 13 14 13h19q5 0 8 -4t2 -9l-52 -374q-2 -13 -15 -13h-12q-10 0 -10 12l2 36q-12 -17 -48.5 -37.5
t-83.5 -20.5q-64 0 -95 39z" />
    <glyph glyph-name="pi" unicode="&#x3c0;" horiz-adv-x="603" 
d="M133 13l49 348h-105q-12 0 -10 13l2 13q2 13 14 13h500q12 0 10 -12l-2 -15q-2 -12 -14 -12h-105l-49 -348q-2 -13 -15 -13h-19q-5 0 -8 4t-2 9l49 348h-202l-49 -348q-2 -13 -15 -13h-19q-12 0 -10 13z" />
    <glyph glyph-name="Wgrave" unicode="&#x1e80;" horiz-adv-x="817" 
d="M181 -3l-84 690q-1 13 13 13h24q8 0 10 -11l66 -571h2l240 583q4 9 11 9h6q9 0 10 -9l80 -582h2l225 570q4 11 13 11h26q14 0 10 -13l-276 -690q-3 -7 -9 -7h-7q-8 0 -9 7l-82 595h-2l-244 -595q-3 -7 -9 -7h-7q-9 0 -9 7zM548 783l-142 79q-8 5 -1 15l12 19q6 10 17 3
l132 -90q8 -5 4 -14l-6 -9q-6 -7 -16 -3z" />
    <glyph glyph-name="wgrave" unicode="&#x1e81;" horiz-adv-x="556" 
d="M106 -1l-55 385q-4 16 10 16h20q10 0 11 -9l40 -301h2l147 311q4 9 12 9h4q8 0 9 -9l63 -311h1l123 301q4 9 14 9h23q13 0 6 -16l-163 -385q-5 -9 -12 -9h-4q-7 0 -8 9l-64 322h-1l-154 -322q-4 -9 -12 -9h-4q-6 0 -8 9zM387 560l-142 79q-8 5 -1 15l12 19q7 11 17 3
l132 -90q8 -5 4 -14l-6 -9q-6 -7 -16 -3z" />
    <glyph glyph-name="Wacute" unicode="&#x1e82;" horiz-adv-x="817" 
d="M181 -3l-84 690q-1 13 13 13h24q8 0 10 -11l66 -571h2l240 583q4 9 11 9h6q9 0 10 -9l80 -582h2l225 570q4 11 13 11h26q14 0 10 -13l-276 -690q-3 -7 -9 -7h-7q-8 0 -9 7l-82 595h-2l-244 -595q-3 -7 -9 -7h-7q-9 0 -9 7zM410 781q-12 -5 -15 3l-4 11q-3 8 8 14l157 90
q12 6 16 -3l9 -21q3 -10 -6 -15z" />
    <glyph glyph-name="wacute" unicode="&#x1e83;" horiz-adv-x="556" 
d="M106 -1l-55 385q-4 16 10 16h20q10 0 11 -9l40 -301h2l147 311q4 9 12 9h4q8 0 9 -9l63 -311h1l123 301q4 9 14 9h23q13 0 6 -16l-163 -385q-5 -9 -12 -9h-4q-7 0 -8 9l-64 322h-1l-154 -322q-4 -9 -12 -9h-4q-6 0 -8 9zM250 559q-12 -5 -15 3l-4 11q-3 8 8 14l157 90
q12 6 16 -3l9 -21q3 -10 -6 -15z" />
    <glyph glyph-name="Wdieresis" unicode="&#x1e84;" horiz-adv-x="817" 
d="M181 -3l-84 690q-1 13 13 13h24q8 0 10 -11l66 -571h2l240 583q4 9 11 9h6q9 0 10 -9l80 -582h2l225 570q4 11 13 11h26q14 0 10 -13l-276 -690q-3 -7 -9 -7h-7q-8 0 -9 7l-82 595h-2l-244 -595q-3 -7 -9 -7h-7q-9 0 -9 7zM575 801q-12 0 -20 8.5t-8 20.5q0 16 11.5 27.5
t26.5 11.5q13 0 21 -8.5t8 -21.5q0 -16 -11.5 -27t-27.5 -11zM387 801q-12 0 -20 8.5t-8 20.5q0 16 11.5 27.5t26.5 11.5q13 0 21 -8.5t8 -21.5q0 -16 -11.5 -27t-27.5 -11z" />
    <glyph glyph-name="wdieresis" unicode="&#x1e85;" horiz-adv-x="556" 
d="M106 -1l-55 385q-4 16 10 16h20q10 0 11 -9l40 -301h2l147 311q4 9 12 9h4q8 0 9 -9l63 -311h1l123 301q4 9 14 9h23q13 0 6 -16l-163 -385q-5 -9 -12 -9h-4q-7 0 -8 9l-64 322h-1l-154 -322q-4 -9 -12 -9h-4q-6 0 -8 9zM408 596q-12 0 -20 8.5t-8 20.5q0 16 11 27.5
t26 11.5q13 0 21.5 -8.5t8.5 -21.5q0 -16 -11.5 -27t-27.5 -11zM236 596q-13 0 -21 8.5t-8 20.5q0 16 11.5 27.5t26.5 11.5q28 0 28 -30q0 -16 -10.5 -27t-26.5 -11z" />
    <glyph glyph-name="Ygrave" unicode="&#x1ef2;" horiz-adv-x="512" 
d="M192 13l45 327l-181 347q-6 13 9 13h28q8 0 11 -6l160 -307l248 307q6 6 14 6h33q8 0 10 -4.5t-3 -10.5l-282 -344l-46 -328q-2 -13 -15 -13h-20q-12 0 -11 13zM389 783l-142 79q-8 5 -1 15l12 19q6 10 17 3l132 -90q8 -5 4 -14l-6 -9q-6 -7 -16 -3z" />
    <glyph glyph-name="ygrave" unicode="&#x1ef3;" horiz-adv-x="408" 
d="M145 4l-116 380q-4 16 10 16h21q8 0 11 -9l100 -339h2l186 339q5 9 14 9h22q7 0 9 -5t-2 -11l-376 -676q-5 -8 -14 -8h-21q-15 0 -7 14zM313 560l-142 79q-8 5 -1 15l12 19q7 11 17 3l132 -90q8 -5 4 -14l-6 -9q-6 -7 -16 -3z" />
    <glyph glyph-name="endash" unicode="&#x2013;" horiz-adv-x="603" 
d="M127 233q-13 0 -11 12l1 8q2 13 15 13h343q13 0 11 -13l-1 -8q-2 -12 -15 -12h-343z" />
    <glyph glyph-name="emdash" unicode="&#x2014;" horiz-adv-x="799" 
d="M127 233q-13 0 -11 12l1 8q2 13 15 13h539q13 0 11 -13l-1 -8q-2 -12 -14 -12h-540z" />
    <glyph glyph-name="quoteleft" unicode="&#x2018;" horiz-adv-x="185" 
d="M122 472q-40 0 -40 68q0 63 30 107t58 58q12 7 17 0l6 -10q5 -9 -6 -16q-49 -32 -64 -95q-5 -24 -2 -38q8 5 14 5q16 0 25 -10t9 -24q0 -21 -13 -33t-34 -12z" />
    <glyph glyph-name="quoteright" unicode="&#x2019;" horiz-adv-x="184" 
d="M87 477l-7 10q-5 8 6 16q49 32 64 95q5 21 2 38q-7 -5 -14 -5q-16 0 -25 10t-9 24q0 21 13 33t34 12q40 0 40 -68q0 -63 -30 -107t-58 -58q-12 -7 -16 0z" />
    <glyph glyph-name="quotesinglbase" unicode="&#x201a;" horiz-adv-x="224" 
d="M39 24q0 21 13 33t34 12q40 0 40 -68q0 -63 -30 -107t-58 -58q-12 -7 -17 0l-6 10q-5 9 6 16q49 32 64 95q5 24 2 38q-8 -5 -14 -5q-16 0 -25 10t-9 24z" />
    <glyph glyph-name="quotedblleft" unicode="&#x201c;" horiz-adv-x="348" 
d="M285 473q-18 0 -29.5 17.5t-11.5 50.5q0 64 30.5 107.5t58.5 57.5q12 7 16 0l7 -10q5 -8 -6 -16q-50 -33 -65 -95q-5 -24 -2 -38q8 5 15 5q16 0 24.5 -10t8.5 -24q0 -21 -12.5 -33t-33.5 -12zM123 473q-17 0 -28.5 17.5t-11.5 50.5q0 63 30 107t58 58q13 7 17 0l6 -10
q7 -8 -6 -16q-51 -40 -64 -95q-5 -24 -2 -38q8 5 14 5q16 0 25 -10t9 -24q0 -21 -13 -33t-34 -12z" />
    <glyph glyph-name="quotedblright" unicode="&#x201d;" horiz-adv-x="346" 
d="M248 477l-7 10q-5 8 6 16q50 33 65 95q5 24 2 38q-8 -5 -15 -5q-16 0 -24.5 10t-8.5 24q0 21 12.5 33t33.5 12q18 0 29.5 -17.5t11.5 -50.5q0 -64 -30.5 -107.5t-58.5 -57.5q-12 -7 -16 0zM87 477l-7 10q-5 8 6 16q49 32 64 95q5 21 2 38q-7 -5 -14 -5q-16 0 -25 10
t-9 24q0 21 13 33t34 12q40 0 40 -68q0 -63 -30 -107t-58 -58q-12 -7 -16 0z" />
    <glyph glyph-name="quotedblbase" unicode="&#x201e;" horiz-adv-x="385" 
d="M200 24q0 21 13 33t34 12q40 0 40 -68q0 -63 -30 -107t-58 -58q-12 -7 -16 0l-7 10q-5 8 6 16q49 32 64 95q5 21 2 38q-7 -5 -14 -5q-16 0 -25 10t-9 24zM39 24q0 21 13 33t34 12q40 0 40 -68q0 -63 -30 -107t-58 -58q-12 -7 -17 0l-6 10q-5 9 6 16q49 32 64 95
q5 24 2 38q-8 -5 -14 -5q-16 0 -25 10t-9 24z" />
    <glyph glyph-name="dagger" unicode="&#x2020;" horiz-adv-x="520" 
d="M163 -289l83 647h-184q-13 0 -11 15l2 14q2 13 14 13h183l41 287q2 13 15 13h27q13 0 11 -13l-40 -287h184q12 0 10 -13l-2 -16q-2 -13 -13 -13h-186l-101 -647q-2 -11 -14 -11h-8q-13 0 -11 11z" />
    <glyph glyph-name="daggerdbl" unicode="&#x2021;" horiz-adv-x="520" 
d="M28 14l2 15q2 13 14 13h160l46 358h-183q-12 0 -10 14l2 15q2 13 14 13h183l35 245q2 13 15 13h27q13 0 11 -13l-35 -245h185q11 0 9 -22l-1 -7q-2 -13 -14 -13h-184l-56 -358h163q12 0 10 -13l-2 -16q-2 -13 -14 -13h-164l-45 -289q-1 -11 -18 -11h-4q-13 0 -11 11
l36 289h-161q-5 0 -8 4t-2 10z" />
    <glyph glyph-name="bullet" unicode="&#x2022;" horiz-adv-x="318" 
d="M148 154q-25 0 -42.5 18t-17.5 44q0 34 24.5 58.5t56.5 24.5q27 0 44.5 -19t17.5 -46q0 -33 -25 -56.5t-58 -23.5z" />
    <glyph glyph-name="ellipsis" unicode="&#x2026;" horiz-adv-x="562" 
d="M381 26q0 18 13.5 31.5t31.5 13.5q15 0 24 -10t9 -25q0 -18 -13.5 -32t-31.5 -14q-14 0 -23.5 10.5t-9.5 25.5zM205 26q0 18 13.5 31.5t31.5 13.5q15 0 24 -10t9 -25q0 -18 -13 -32t-31 -14q-15 0 -24.5 10.5t-9.5 25.5zM32 26q0 18 14 31.5t32 13.5q15 0 24 -10t9 -25
q0 -18 -13.5 -32t-31.5 -14q-14 0 -24 11t-10 25z" />
    <glyph glyph-name="perthousand" unicode="&#x2030;" horiz-adv-x="899" 
d="M191 434q-45 0 -75.5 34.5t-30.5 84.5q0 65 42 111t103 46q44 0 74.5 -35t30.5 -84q0 -65 -42.5 -111t-101.5 -46zM76 14l435 679q4 7 14 7h18q6 0 8 -4t-2 -10l-433 -676q-7 -10 -17 -10h-17q-6 0 -8 4t2 10zM196 471q39 0 70 34t31 80q0 36 -21 61.5t-52 25.5
q-40 0 -71.5 -34t-31.5 -80q0 -37 21 -62t54 -25zM588 109q0 65 42 111t103 46q44 0 74.5 -35t30.5 -84q0 -65 -42.5 -111t-101.5 -46q-45 0 -75.5 34.5t-30.5 84.5zM304 109q0 65 42 111t103 46q44 0 74.5 -35t30.5 -84q0 -65 -42.5 -111t-101.5 -46q-45 0 -75.5 34.5
t-30.5 84.5zM624 114q0 -37 21 -62t54 -25q39 0 70 34t31 80q0 36 -21 61.5t-52 25.5q-40 0 -71.5 -34t-31.5 -80zM340 114q0 -37 21 -62t54 -25q39 0 70 34t31 80q0 36 -21 61.5t-52 25.5q-40 0 -71.5 -34t-31.5 -80z" />
    <glyph glyph-name="guilsinglleft" unicode="&#x2039;" horiz-adv-x="233" 
d="M107 42l-73 157q-4 9 3 17l116 154q7 9 17 9h16q6 0 7 -5.5t-4 -12.5l-103 -153l59 -157q3 -7 0.5 -12.5t-7.5 -5.5h-17q-9 0 -14 9z" />
    <glyph glyph-name="guilsinglright" unicode="&#x203a;" horiz-adv-x="232" 
d="M24 33q-13 0 -2 18l103 157l-60 153q-3 7 -0.5 12.5t8.5 5.5h16q9 0 14 -9l73 -154q4 -7 -2 -17l-117 -157q-7 -9 -17 -9h-16z" />
    <glyph glyph-name="fraction" unicode="&#x2044;" horiz-adv-x="79" 
d="M-114 10q-7 -10 -17 -10h-17q-6 0 -8 4t2 10l435 679q4 7 14 7h18q6 0 8 -4t-2 -10z" />
    <glyph glyph-name="zerosuperior" unicode="&#x2070;" horiz-adv-x="345" 
d="M219 494q-51 0 -74.5 42t-13.5 115q11 74 46 116.5t87 42.5t75.5 -42t12.5 -117q-10 -73 -45.5 -115t-87.5 -42zM224 527q75 0 92 124q18 127 -57 127q-36 0 -60 -33.5t-32 -93.5q-17 -124 57 -124z" />
    <glyph glyph-name="foursuperior" unicode="&#x2074;" horiz-adv-x="342" 
d="M275 504q-3 0 -6 2.5t-2 6.5l8 60h-147q-8 0 -6 9l1 9l199 209h13q3 0 6 -2.5t2 -6.5l-26 -185h35q9 0 7 -8l-2 -16q-2 -8 -9 -8h-35l-9 -61q-2 -9 -10 -9h-19zM181 607h99l18 126z" />
    <glyph glyph-name="fivesuperior" unicode="&#x2075;" horiz-adv-x="348" 
d="M203 494q-55 0 -84 38q-5 7 2 15l10 11q5 7 11 0q22 -33 66 -33q31 0 53 21.5t26 49.5t-10 45t-43 17h-70q-14 0 -12 15l17 118q0 9 9 9h133q9 0 7 -9l-3 -17q-2 -8 -9 -8h-108l-10 -75h50q46 0 69.5 -24.5t17.5 -68.5q-6 -45 -39 -74.5t-83 -29.5z" />
    <glyph glyph-name="sixsuperior" unicode="&#x2076;" horiz-adv-x="324" 
d="M210 494q-47 0 -69 38.5t-14 95.5q6 42 27.5 77.5t50 57.5t51 34t41.5 18q8 3 10 -6l3 -11q4 -13 -8 -17q-39 -12 -75.5 -41t-57.5 -74q1 0 5 4t10 8t14.5 8.5t21 7t25.5 2.5q35 0 59 -27.5t18 -70.5q-6 -44 -37.5 -74t-74.5 -30zM215 525q27 0 46.5 20t23.5 53
q4 30 -10.5 49t-41.5 19q-42 0 -72 -43q-6 -39 8 -68.5t46 -29.5z" />
    <glyph glyph-name="sevensuperior" unicode="&#x2077;" horiz-adv-x="324" 
d="M151 504q-13 0 -11 14l156 248h-141q-9 0 -7 9l2 16q2 9 9 9h177q9 0 7 -9l-2 -16l-162 -262q-5 -9 -13 -9h-15z" />
    <glyph glyph-name="eightsuperior" unicode="&#x2078;" horiz-adv-x="314" 
d="M207 494q-43 0 -68.5 24.5t-20.5 61.5q4 23 18 41.5t24 24.5t18 9v2q-37 20 -31 71q5 38 34 60t71 22q39 0 62.5 -22.5t18.5 -59.5q-3 -23 -18 -42.5t-34 -28.5v-2q7 -3 15.5 -9t18 -24.5t5.5 -41.5q-5 -38 -35.5 -62t-77.5 -24zM232 669q57 5 64 55q3 25 -10 39.5
t-39 14.5t-43 -14.5t-20 -39.5q-7 -51 48 -55zM212 525q29 0 48.5 16t23.5 41q6 53 -56 57q-66 -4 -72 -57q-4 -25 11 -41t45 -16z" />
    <glyph glyph-name="ninesuperior" unicode="&#x2079;" horiz-adv-x="325" 
d="M165 487q-8 -3 -10 6l-3 11q-4 13 8 17q39 12 75.5 41t57.5 74q-1 0 -5 -4t-10 -8t-14.5 -8.5t-21 -7t-25.5 -2.5q-35 0 -59 27.5t-18 70.5q7 44 38 74t74 30q47 0 69 -38.5t14 -95.5q-6 -42 -27.5 -77.5t-50 -57.5t-51 -34t-41.5 -18zM229 636q42 0 72 43q6 39 -8 68.5
t-46 29.5q-27 0 -46.5 -20t-23.5 -53q-4 -30 10.5 -49t41.5 -19z" />
    <glyph glyph-name="zeroinferior" unicode="&#x2080;" horiz-adv-x="345" 
d="M31 -3q11 74 46 116.5t87 42.5t75.5 -42t12.5 -117q-10 -73 -45.5 -115t-87.5 -42q-51 0 -74.5 42t-13.5 115zM67 -3q-17 -124 57 -124q75 0 92 124q18 127 -57 127q-36 0 -60 -33.5t-32 -93.5z" />
    <glyph glyph-name="oneinferior" unicode="&#x2081;" horiz-adv-x="199" 
d="M38 73l-4 13q-2 6 4 11l76 49h11q9 0 8 -8l-39 -280q-2 -8 -8 -8h-21q-8 0 -6 8l34 239l-47 -26q-6 -3 -8 2z" />
    <glyph glyph-name="twoinferior" unicode="&#x2082;" horiz-adv-x="311" 
d="M66 89l-12 12q-4 4 1 10q4 5 11.5 12.5t31.5 20t48 12.5q42 0 64.5 -26.5t17.5 -63.5q-6 -47 -52 -88l-107 -97h125q7 0 6 -8l-2 -15q0 -8 -8 -8h-173q-7 0 -7 8l1 9l141 130q36 34 41 66q3 24 -10.5 42t-43.5 18q-29 0 -63 -34q-6 -6 -10 0z" />
    <glyph glyph-name="threeinferior" unicode="&#x2083;" horiz-adv-x="322" 
d="M75 -5l2 12q0 8 8 8h41q61 0 70 55q3 25 -11 39.5t-40 14.5q-32 0 -68 -30q-5 -7 -9 -1l-10 11q-4 6 1 11q4 5 11.5 11.5t32 18t49.5 11.5q37 0 61.5 -22.5t19.5 -59.5q-3 -23 -20 -43t-37 -29q6 -2 14.5 -7t21 -24.5t8.5 -44.5q-5 -38 -35.5 -62t-79.5 -24q-55 0 -88 41
q-5 5 2 11l11 11q7 7 11 0q1 -1 4.5 -5t6 -6.5t8.5 -7t12.5 -7t16 -4.5t20.5 -2q30 0 50.5 16t24.5 41q3 24 -12 40.5t-50 16.5h-41q-8 0 -6 10z" />
    <glyph glyph-name="fourinferior" unicode="&#x2084;" horiz-adv-x="342" 
d="M23 -63l199 209h13q3 0 6 -2.5t2 -6.5l-26 -185h35q9 0 7 -8l-2 -16q-2 -8 -9 -8h-35l-9 -61q-2 -9 -10 -9h-19q-3 0 -6 2.5t-2 6.5l8 60h-147q-8 0 -6 9zM81 -47h99l18 126z" />
    <glyph glyph-name="fiveinferior" unicode="&#x2085;" horiz-adv-x="348" 
d="M52 19l17 118q0 9 9 9h133q9 0 7 -9l-3 -17q-2 -8 -9 -8h-108l-10 -75h50q46 0 69.5 -24.5t17.5 -68.5q-6 -45 -39 -74.5t-83 -29.5q-55 0 -84 38q-5 7 2 15l10 11q5 7 11 0q22 -33 66 -33q31 0 53 21.5t26 49.5t-10 45t-43 17h-70q-14 0 -12 15z" />
    <glyph glyph-name="sixinferior" unicode="&#x2086;" horiz-adv-x="324" 
d="M27 -26q6 42 27.5 77.5t50 57.5t51 34t41.5 18q8 3 10 -6l3 -11q4 -13 -8 -17q-39 -12 -75.5 -41t-57.5 -74q1 0 5 4t10 8t14.5 8.5t21 7t25.5 2.5q35 0 59 -27.5t18 -70.5q-6 -44 -37.5 -74t-74.5 -30q-47 0 -69 38.5t-14 95.5zM61 -31q-6 -39 8 -68.5t46 -29.5
q27 0 46.5 20t23.5 53q4 30 -10.5 49t-41.5 19q-42 0 -72 -43z" />
    <glyph glyph-name="seveninferior" unicode="&#x2087;" horiz-adv-x="324" 
d="M55 112q-9 0 -7 9l2 16q2 9 9 9h177q9 0 7 -9l-2 -16l-162 -262q-5 -9 -13 -9h-15q-13 0 -11 14l156 248h-141z" />
    <glyph glyph-name="eightinferior" unicode="&#x2088;" horiz-adv-x="314" 
d="M18 -74q4 23 18 41.5t24 24.5t18 9v2q-37 20 -31 71q5 38 34 60t71 22q39 0 62.5 -22.5t18.5 -59.5q-3 -23 -18 -42.5t-34 -28.5v-2q7 -3 15.5 -9t18 -24.5t5.5 -41.5q-5 -38 -35.5 -62t-77.5 -24q-43 0 -68.5 24.5t-20.5 61.5zM84 70q-7 -51 48 -55q57 5 64 55
q3 25 -10 39.5t-39 14.5t-43 -14.5t-20 -39.5zM56 -72q-4 -25 11 -41t45 -16q29 0 48.5 16t23.5 41q6 53 -56 57q-66 -4 -72 -57z" />
    <glyph glyph-name="nineinferior" unicode="&#x2089;" horiz-adv-x="325" 
d="M40 50q7 44 38 74t74 30q47 0 69 -38.5t14 -95.5q-6 -42 -27.5 -77.5t-50 -57.5t-51 -34t-41.5 -18q-8 -3 -10 6l-3 11q-4 13 8 17q39 12 75.5 41t57.5 74q-1 0 -5 -4t-10 -8t-14.5 -8.5t-21 -7t-25.5 -2.5q-35 0 -59 27.5t-18 70.5zM77 50q-4 -30 10.5 -49t41.5 -19
q42 0 72 43q6 39 -8 68.5t-46 29.5q-27 0 -46.5 -20t-23.5 -53z" />
    <glyph glyph-name="Euro" unicode="&#x20ac;" horiz-adv-x="685" 
d="M46 259q-12 0 -10 13v5q2 13 14 13h42q0 57 8 87h-38q-12 0 -10 14l1 5q2 13 14 13h41q38 130 139.5 215.5t224.5 85.5q129 0 205 -93q8 -9 -1 -18l-18 -15q-10 -10 -20 0q-63 81 -173 81q-101 0 -187 -73t-119 -183h284q13 0 11 -15l-1 -4q-2 -13 -14 -13h-289
q-9 -43 -9 -87h250q12 0 10 -15v-4q-2 -12 -14 -12h-242q12 -99 75.5 -161.5t156.5 -62.5q61 0 103.5 20t94.5 64q11 8 21 -3l10 -12q8 -9 -2 -17q-106 -97 -234 -97q-108 0 -186.5 76t-88.5 193h-49z" />
    <glyph glyph-name="afii61289" unicode="&#x2113;" horiz-adv-x="505" 
d="M155 -10q-62 0 -85.5 44.5t-13.5 110.5q4 32 19 81q-28 -10 -51 -14q-12 -1 -14 8l-1 12q-1 17 14 19q42 8 66 16l31 99q54 170 109.5 257t119.5 87q41 0 62.5 -35t13.5 -93q-9 -64 -38 -119.5t-72 -97t-91.5 -72t-104.5 -52.5q-16 -49 -23 -94q-16 -117 65 -117
q16 0 31.5 2t28.5 4.5t25.5 7t21.5 8t18 8t13.5 7.5t9.5 6l5 3q12 7 15 -2l4 -13q3 -10 -5 -17t-24.5 -16.5t-60 -23.5t-88.5 -14zM133 281q99 44 168 120.5t84 180.5q13 88 -42 88q-49 0 -91.5 -76t-93.5 -234z" />
    <glyph glyph-name="trademark" unicode="&#x2122;" horiz-adv-x="650" 
d="M295 394q-13 0 -7 15l102 291q4 10 11 10h7q7 0 8 -10l39 -241h1l111 241q5 10 10 10h7q8 0 9 -10l20 -291q2 -15 -11 -15h-14q-9 0 -10 10l-12 217h-1l-104 -224q-4 -8 -9 -8h-9q-6 0 -7 8l-41 224h-1l-73 -217q-3 -10 -11 -10h-15zM159 394q-11 0 -9 13l37 260h-77
q-11 0 -9 15l1 6q2 12 13 12h188q11 0 9 -13l-1 -7q-2 -13 -13 -13h-76l-37 -260q-2 -13 -13 -13h-13z" />
    <glyph glyph-name="Omega" unicode="&#x2126;" horiz-adv-x="780" 
d="M3 13l3 15q2 13 13 13h129q-67 48 -102 129.5t-21 178.5q21 151 128.5 256t245.5 105q132 0 213.5 -106t60.5 -255q-14 -99 -69 -180.5t-137 -127.5h124q5 0 8.5 -4t2.5 -9l-3 -15q-2 -13 -13 -13h-213q-5 0 -8 4t-2 9l3 15q1 9 12 13q96 25 165 111t85 197
q18 132 -50 224.5t-185 92.5q-118 0 -211.5 -92.5t-111.5 -224.5q-16 -111 29 -197t133 -111q11 -4 10 -13l-3 -15q-2 -13 -12 -13h-213q-13 0 -11 13z" />
    <glyph glyph-name="estimated" unicode="&#x212e;" horiz-adv-x="823" 
d="M105 154q27 -59 84.5 -92.5t127.5 -33.5q107 0 211 88q12 12 18 0l5 -9q5 -9 -4 -18q-108 -99 -235 -99q-135 0 -216.5 104t-60.5 255q22 153 130 257t248 104q134 0 215.5 -104t62.5 -255q-3 -21 -19 -21h-543zM134 366h464l25 177q-67 129 -215 129q-149 0 -249 -127z
" />
    <glyph glyph-name="onethird" unicode="&#x2153;" horiz-adv-x="595" 
d="M35 14l435 679q4 7 14 7h18q6 0 8 -4t-2 -10l-433 -676q-7 -10 -17 -10h-17q-6 0 -8 4t2 10zM127 404q-8 0 -6 8l34 239l-47 -26q-6 -3 -8 2l-4 13q-2 6 4 11l76 49h11q9 0 8 -8l-39 -280q-2 -8 -8 -8h-21zM324 31q-5 5 2 11l11 11q7 7 11 0q1 -1 4.5 -5t6 -6.5t8.5 -7
t12.5 -7t16 -4.5t20.5 -2q30 0 50.5 16t24.5 41q3 24 -12 40.5t-50 16.5h-41q-8 0 -6 10l2 12q0 8 8 8h41q61 0 70 55q3 25 -11 39.5t-40 14.5q-32 0 -68 -30q-5 -7 -9 -1l-10 11q-4 6 1 11q4 5 11.5 11.5t32 18t49.5 11.5q37 0 61.5 -22.5t19.5 -59.5q-3 -23 -20 -43
t-37 -29q6 -2 14.5 -7t21 -24.5t8.5 -44.5q-5 -38 -35.5 -62t-79.5 -24q-55 0 -88 41z" />
    <glyph glyph-name="twothirds" unicode="&#x2154;" horiz-adv-x="595" 
d="M9 404q-7 0 -7 8l1 9l141 130q36 34 41 66q3 24 -10.5 42t-43.5 18q-29 0 -63 -34q-6 -6 -10 0l-12 12q-4 4 1 10q4 5 11.5 12.5t31.5 20t48 12.5q42 0 64.5 -26.5t17.5 -63.5q-6 -47 -52 -88l-107 -97h125q7 0 6 -8l-2 -15q0 -8 -8 -8h-173zM35 14l435 679q4 7 14 7h18
q6 0 8 -4t-2 -10l-433 -676q-7 -10 -17 -10h-17q-6 0 -8 4t2 10zM324 31q-5 5 2 11l11 11q7 7 11 0q1 -1 4.5 -5t6 -6.5t8.5 -7t12.5 -7t16 -4.5t20.5 -2q30 0 50.5 16t24.5 41q3 24 -12 40.5t-50 16.5h-41q-8 0 -6 10l2 12q0 8 8 8h41q61 0 70 55q3 25 -11 39.5t-40 14.5
q-32 0 -68 -30q-5 -7 -9 -1l-10 11q-4 6 1 11q4 5 11.5 11.5t32 18t49.5 11.5q37 0 61.5 -22.5t19.5 -59.5q-3 -23 -20 -43t-37 -29q6 -2 14.5 -7t21 -24.5t8.5 -44.5q-5 -38 -35.5 -62t-79.5 -24q-55 0 -88 41z" />
    <glyph glyph-name="oneeighth" unicode="&#x215b;" horiz-adv-x="595" 
d="M35 14l435 679q4 7 14 7h18q6 0 8 -4t-2 -10l-433 -676q-7 -10 -17 -10h-17q-6 0 -8 4t2 10zM127 404q-8 0 -6 8l34 239l-47 -26q-6 -3 -8 2l-4 13q-2 6 4 11l76 49h11q9 0 8 -8l-39 -280q-2 -8 -8 -8h-21zM329 76q4 23 18 41.5t24 24.5t18 9v2q-37 20 -31 71q5 38 34 60
t71 22q39 0 62.5 -22.5t18.5 -59.5q-3 -23 -18 -42.5t-34 -28.5v-2q7 -3 15.5 -9t18 -24.5t5.5 -41.5q-5 -38 -35.5 -62t-77.5 -24q-43 0 -68.5 24.5t-20.5 61.5zM395 220q-7 -51 48 -55q57 5 64 55q3 25 -10 39.5t-39 14.5t-43 -14.5t-20 -39.5zM367 78q-4 -25 11 -41
t45 -16q29 0 48.5 16t23.5 41q6 53 -56 57q-66 -4 -72 -57z" />
    <glyph glyph-name="threeeighths" unicode="&#x215c;" horiz-adv-x="595" 
d="M84 394q-55 0 -88 41q-5 5 2 11l11 11q7 7 11 0q1 -1 4.5 -5t6 -6.5t8.5 -7t12.5 -7t16 -4.5t20.5 -2q30 0 50.5 16t24.5 41q3 24 -12 40.5t-50 16.5h-41q-8 0 -6 10l2 12q0 8 8 8h41q61 0 70 55q3 25 -11 39.5t-40 14.5q-32 0 -68 -30q-5 -7 -9 -1l-10 11q-4 6 1 11
q4 5 11.5 11.5t32 18t49.5 11.5q37 0 61.5 -22.5t19.5 -59.5q-3 -23 -20 -43t-37 -29q6 -2 14.5 -7t21 -24.5t8.5 -44.5q-5 -38 -35.5 -62t-79.5 -24zM35 14l435 679q4 7 14 7h18q6 0 8 -4t-2 -10l-433 -676q-7 -10 -17 -10h-17q-6 0 -8 4t2 10zM329 76q4 23 18 41.5
t24 24.5t18 9v2q-37 20 -31 71q5 38 34 60t71 22q39 0 62.5 -22.5t18.5 -59.5q-3 -23 -18 -42.5t-34 -28.5v-2q7 -3 15.5 -9t18 -24.5t5.5 -41.5q-5 -38 -35.5 -62t-77.5 -24q-43 0 -68.5 24.5t-20.5 61.5zM395 220q-7 -51 48 -55q57 5 64 55q3 25 -10 39.5t-39 14.5
t-43 -14.5t-20 -39.5zM367 78q-4 -25 11 -41t45 -16q29 0 48.5 16t23.5 41q6 53 -56 57q-66 -4 -72 -57z" />
    <glyph glyph-name="fiveeighths" unicode="&#x215d;" horiz-adv-x="595" 
d="M35 14l435 679q4 7 14 7h18q6 0 8 -4t-2 -10l-433 -676q-7 -10 -17 -10h-17q-6 0 -8 4t2 10zM84 394q-55 0 -84 38q-5 7 2 15l10 11q6 7 11 0q22 -33 66 -33q31 0 53 21.5t26 49.5t-10 45t-43 17h-70q-14 0 -12 15l17 118q0 9 9 9h133q9 0 7 -9l-3 -17q-2 -8 -9 -8h-108
l-10 -75h50q46 0 69.5 -24.5t17.5 -68.5q-6 -45 -39 -74.5t-83 -29.5zM329 76q4 23 18 41.5t24 24.5t18 9v2q-37 20 -31 71q5 38 34 60t71 22q39 0 62.5 -22.5t18.5 -59.5q-3 -23 -18 -42.5t-34 -28.5v-2q7 -3 15.5 -9t18 -24.5t5.5 -41.5q-5 -38 -35.5 -62t-77.5 -24
q-43 0 -68.5 24.5t-20.5 61.5zM395 220q-7 -51 48 -55q57 5 64 55q3 25 -10 39.5t-39 14.5t-43 -14.5t-20 -39.5zM367 78q-4 -25 11 -41t45 -16q29 0 48.5 16t23.5 41q6 53 -56 57q-66 -4 -72 -57z" />
    <glyph glyph-name="seveneighths" unicode="&#x215e;" horiz-adv-x="595" 
d="M35 14l435 679q4 7 14 7h18q6 0 8 -4t-2 -10l-433 -676q-7 -10 -17 -10h-17q-6 0 -8 4t2 10zM52 404q-13 0 -11 14l156 248h-141q-9 0 -7 9l2 16q2 9 9 9h177q9 0 7 -9l-2 -16l-162 -262q-5 -9 -13 -9h-15zM329 76q4 23 18 41.5t24 24.5t18 9v2q-37 20 -31 71q5 38 34 60
t71 22q39 0 62.5 -22.5t18.5 -59.5q-3 -23 -18 -42.5t-34 -28.5v-2q7 -3 15.5 -9t18 -24.5t5.5 -41.5q-5 -38 -35.5 -62t-77.5 -24q-43 0 -68.5 24.5t-20.5 61.5zM395 220q-7 -51 48 -55q57 5 64 55q3 25 -10 39.5t-39 14.5t-43 -14.5t-20 -39.5zM367 78q-4 -25 11 -41
t45 -16q29 0 48.5 16t23.5 41q6 53 -56 57q-66 -4 -72 -57z" />
    <glyph glyph-name="partialdiff" unicode="&#x2202;" horiz-adv-x="565" 
d="M54 179q0 109 72.5 185t158.5 76q57 0 99 -26.5t55 -50.5h1q-2 63 -28 119t-64 92.5t-68 57.5t-54 31q-7 2 -9 8.5t2 12.5l9 14q5 10 15 6q26 -12 52 -27.5t62.5 -47t63 -68t45.5 -92t19 -117.5q0 -89 -28.5 -169.5t-89 -136.5t-141.5 -56q-74 0 -123 53.5t-49 135.5z
M98 185q0 -66 38 -110.5t96 -44.5q83 0 143.5 87.5t58.5 180.5q-1 3 -6 12t-18 24.5t-29 29.5t-42.5 24t-55.5 10q-70 0 -127.5 -63.5t-57.5 -149.5z" />
    <glyph glyph-name="Delta" unicode="&#x2206;" horiz-adv-x="677" 
d="M-16 0q-27 0 -8 37l361 671q3 7 12 7h3q9 0 11 -7l170 -673q8 -35 -21 -35h-528zM30 42h452l-139 589h-2z" />
    <glyph glyph-name="product" unicode="&#x220f;" horiz-adv-x="642" 
d="M28 13l95 674q2 13 14 13h465q12 0 10 -13l-95 -674q-2 -13 -14 -13h-24q-11 0 -9 13l91 645h-395l-91 -645q-2 -13 -13 -13h-24q-5 0 -8 4t-2 9z" />
    <glyph glyph-name="summation" unicode="&#x2211;" horiz-adv-x="523" 
d="M21 13l1 9l340 341l-248 314l2 10q2 13 14 13h361q5 0 8 -4t2 -9l-3 -17q-2 -13 -13 -13h-294l211 -272q11 -14 10 -20l-2 -11q-1 -6 -15 -20l-291 -292h294q5 0 8 -4t2 -9l-2 -16q-2 -13 -14 -13h-361q-5 0 -8 4t-2 9z" />
    <glyph glyph-name="minus" unicode="&#x2212;" horiz-adv-x="460" 
d="M65 327q-13 0 -11 13l2 16q2 13 14 13h346q12 0 10 -13l-2 -16q-2 -13 -14 -13h-345z" />
    <glyph glyph-name="uni2215" unicode="&#x2215;" horiz-adv-x="79" 
d="M-114 10q-7 -10 -17 -10h-17q-6 0 -8 4t2 10l435 679q4 7 14 7h18q6 0 8 -4t-2 -10z" />
    <glyph glyph-name="uni2219" unicode="&#x2219;" horiz-adv-x="318" 
d="M199 221q-15 0 -25 10.5t-10 24.5q0 19 14 32t32 13q15 0 24 -10t9 -25q0 -19 -13 -32t-31 -13z" />
    <glyph glyph-name="radical" unicode="&#x221a;" horiz-adv-x="657" 
d="M162 -1l-97 388q-2 13 9 13h26q9 0 9 -7l76 -315h2l327 613q4 9 13 9h120q12 0 10 -13l-3 -15q-2 -13 -12 -13h-96l-358 -660q-5 -9 -12 -9h-5q-3 0 -6 3t-3 6z" />
    <glyph glyph-name="infinity" unicode="&#x221e;" horiz-adv-x="616" 
d="M180 158q-48 0 -80 41t-25 97q8 59 48.5 99t95.5 40q33 0 59 -20t38 -53q49 73 119 73q48 0 80 -41t24 -98t-49 -97.5t-94 -40.5q-32 0 -59.5 20.5t-39.5 51.5q-49 -72 -117 -72zM327 296q-5 -43 15.5 -71.5t58.5 -28.5q37 0 65 29t33 71q6 42 -14 71t-56 29
q-38 0 -67 -29t-35 -71zM185 196q37 0 66.5 29t34.5 71q6 41 -15 70.5t-58 29.5t-65.5 -29t-34.5 -71q-5 -43 15 -71.5t57 -28.5z" />
    <glyph glyph-name="integral" unicode="&#x222b;" horiz-adv-x="324" 
d="M93 -135l94 672q12 86 54.5 129.5t106.5 43.5q31 0 58.5 -14t35.5 -29q6 -8 0 -16l-12 -14q-9 -11 -17 -1q-10 12 -30 23t-41 11q-42 0 -72 -33t-39 -100l-95 -672q-12 -86 -54 -130.5t-106 -44.5q-31 0 -58.5 14t-36.5 29q-6 9 1 16l12 14q7 11 16 1q10 -12 30 -23
t41 -11q43 0 73 34t39 101z" />
    <glyph glyph-name="approxequal" unicode="&#x2248;" horiz-adv-x="437" 
d="M75 332l-10 7q-10 7 0 24l4 7q4 7 7 11.5t9 13t12 14.5t14.5 13.5t17 12t19.5 7.5t22 3q33 0 67 -38q26 -32 49 -32q35 0 65 57q7 12 21 4l13 -8q7 -5 -1 -22q-10 -22 -38.5 -49.5t-65.5 -27.5q-30 0 -62 35t-52 35q-38 0 -67 -55q-12 -21 -24 -12zM66 164l-10 7
q-10 7 0 24l4 7q4 7 7 11.5t9 13t12 14.5t14.5 13.5t17 12t19.5 7.5t22 3q33 0 67 -38q26 -32 49 -32q35 0 65 57q7 12 21 4l13 -8q7 -5 -1 -22q-10 -22 -38.5 -49.5t-65.5 -27.5q-30 0 -62 35t-52 35q-38 0 -67 -55q-12 -21 -24 -12z" />
    <glyph glyph-name="notequal" unicode="&#x2260;" horiz-adv-x="396" 
d="M117 70q-11 6 -4 16l42 72h-75q-13 0 -11 14l2 16q2 13 15 13h96l99 165h-172q-13 0 -10 15l2 15q2 13 14 13h192l43 71q7 12 17 7l7 -4q8 -5 1 -16l-34 -58h55q13 0 11 -13l-2 -17q-2 -13 -15 -13h-76l-98 -165h151q14 0 10 -16l-2 -14q-2 -13 -14 -13h-173l-50 -85
q-6 -11 -15 -6z" />
    <glyph glyph-name="lessequal" unicode="&#x2264;" horiz-adv-x="448" 
d="M55 382q-9 5 -7 17v1q2 10 11 15l376 199q6 3 9 0.5t2 -10.5l-3 -24q-3 -12 -9 -15l-332 -169l285 -166q5 -3 5 -15l-3 -18q-3 -16 -14 -10zM14 74q-5 0 -8 4t-2 9l2 15q2 13 14 13h347q10 0 8 -13l-2 -15q-2 -13 -12 -13h-347z" />
    <glyph glyph-name="greaterequal" unicode="&#x2265;" horiz-adv-x="448" 
d="M30 187q-5 -3 -8 -0.5t-2 10.5l3 23q0 10 9 15l331 166l-284 169q-8 4 -5 15l3 19q2 18 13 10l320 -199q9 -6 7 -15v-1q-2 -11 -11 -17zM12 74q-10 0 -8 13l2 15q2 13 12 13h347q5 0 8 -4t2 -9l-2 -15q-2 -13 -14 -13h-347z" />
    <glyph glyph-name="lozenge" unicode="&#x25ca;" horiz-adv-x="677" 
d="M276 7l-150 296q-12 22 -14.5 31t-0.5 23q0 3 1 5.5t1.5 4.5t1.5 5l1.5 4.5t2.5 4.5t2.5 4t3.5 5l4.5 6t5.5 7.5t6 7.5l234 297q3 7 12 7h3q9 0 10 -7l149 -295l10.5 -21t4.5 -16t-1 -19q-3 -19 -29 -56l-233 -294q-3 -7 -12 -7h-3q-6 0 -10 7zM292 64h2l231 293
l-142 294h-2l-231 -294z" />
    <glyph glyph-name="uniF8FF" unicode="&#xf8ff;" horiz-adv-x="599" 
d="M50 30v640q0 30 30 30h439q30 0 30 -30v-640q0 -30 -30 -30h-439q-30 0 -30 30zM262 314q0 -12 14 -12h36q15 0 15 13v26q0 16 16.5 32t36 28.5t36 36.5t16.5 53q0 48 -35.5 79.5t-89.5 31.5q-24 0 -46.5 -6.5t-37 -15t-25.5 -17.5t-16 -15l-5 -7q-8 -12 0 -18l22 -22
q8 -6 17 0q1 1 7.5 7t9.5 9t11.5 8.5t15.5 8.5t18 5.5t22 2.5q29 0 45 -15t16 -37q0 -21 -15.5 -39t-34 -30t-34 -32.5t-15.5 -45.5v-29zM245 156q0 -20 14.5 -34t33.5 -14q20 0 34.5 14t14.5 34t-14.5 34t-34.5 14q-19 0 -33.5 -14t-14.5 -34z" />
    <glyph glyph-name="CR" horiz-adv-x="0" 
 />
    <glyph glyph-name="grave.cap" horiz-adv-x="272" 
d="M242 783l-142 79q-8 5 -1 15l12 19q6 10 17 3l132 -90q8 -5 4 -14l-6 -9q-6 -7 -16 -3z" />
    <glyph glyph-name="acute.cap" horiz-adv-x="272" 
d="M106 781q-12 -5 -15 3l-4 11q-3 8 8 14l157 90q12 6 16 -3l9 -21q3 -10 -6 -15z" />
    <glyph glyph-name="circumflex.cap" horiz-adv-x="336" 
d="M92 768q-9 -6 -15 2l-7 11q-4 7 4 14l123 98q6 5 12 5q4 0 9 -5l96 -98q8 -8 2 -14l-7 -8q-8 -8 -15 -2l-89 81z" />
    <glyph glyph-name="caron.cap" horiz-adv-x="336" 
d="M195 762q-4 0 -9 5l-96 98q-8 8 -2 14l7 8q8 8 15 2l89 -81l113 84q9 6 15 -2l7 -11q4 -7 -4 -14l-123 -98q-6 -5 -12 -5z" />
    <glyph glyph-name="caron.alt" horiz-adv-x="336" 
d="M140 666q0 21 12.5 33t33.5 12q40 0 40 -68q0 -63 -30 -107t-58 -58q-12 -7 -16 0l-7 10q-5 8 6 16q50 33 65 95q4 19 2 38q-8 -5 -15 -5q-33 0 -33 34z" />
    <glyph glyph-name="tilde.cap" horiz-adv-x="342" 
d="M84 799l-11 5q-9 3 -4 14q0 1 4.5 10.5t7.5 15t9.5 16t13.5 17t15.5 13.5t20 10.5t23.5 3.5q21 0 34.5 -14t19 -31.5t15 -31.5t22.5 -14q33 0 56 59q5 12 15 7l12 -4q7 -5 4 -13q-32 -86 -93 -86q-20 0 -34 14.5t-20 31.5t-15.5 31.5t-21.5 14.5q-35 0 -59 -63
q-4 -11 -14 -6z" />
    <glyph glyph-name="dieresis.cap" horiz-adv-x="427" 
d="M339 801q-12 0 -20 8.5t-8 20.5q0 16 11.5 27.5t26.5 11.5q13 0 21 -8.5t8 -21.5q0 -16 -11.5 -27t-27.5 -11zM151 801q-12 0 -20 8.5t-8 20.5q0 16 11.5 27.5t26.5 11.5q13 0 21 -8.5t8 -21.5q0 -16 -11.5 -27t-27.5 -11z" />
    <glyph glyph-name="macron.cap" horiz-adv-x="373" 
d="M102 831q-13 0 -11 13l2 12q2 13 14 13h243q13 0 10 -13l-1 -12q-2 -13 -15 -13h-242z" />
    <glyph glyph-name="breve.cap" horiz-adv-x="311" 
d="M186 775q-44 0 -74 32.5t-29 78.5q0 14 11 14h11q8 0 10 -12q5 -35 24 -56.5t50 -21.5q29 0 55.5 22.5t38.5 55.5q5 12 13 12h16q12 0 8 -14q-15 -49 -51 -80t-83 -31z" />
    <glyph glyph-name="ring.cap" horiz-adv-x="261" 
d="M157 754q-36 0 -59.5 26t-23.5 65q0 51 32.5 86.5t80.5 35.5q36 0 59 -26.5t23 -65.5q0 -51 -32 -86t-80 -35zM162 786q31 0 52 25t21 59q0 26 -15 45t-37 19q-32 0 -54 -24.5t-22 -58.5q0 -27 15.5 -46t39.5 -19z" />
    <glyph glyph-name="hungarumlaut.cap" horiz-adv-x="353" 
d="M226 766q-12 0 -5 12l89 159q5 11 15 11h22q8 0 10.5 -5t-2.5 -12l-103 -157q-5 -8 -14 -8h-12zM77 766q-11 0 -6 12l89 159q6 11 15 11h23q8 0 10.5 -5t-2.5 -12l-104 -157q-4 -8 -13 -8h-12z" />
    <glyph glyph-name="dotaccent.cap" horiz-adv-x="197" 
d="M131 810q-14 0 -23 9.5t-9 23.5q0 18 13 30.5t30 12.5q13 0 22.5 -9.5t9.5 -23.5q0 -18 -13 -30.5t-30 -12.5z" />
    <glyph glyph-name="cedilla.cap" horiz-adv-x="223" 
d="M92 0h18h18l-8 -54q34 -4 59 -26.5t25 -57.5q0 -46 -29 -78t-75 -32q-25 0 -43 10.5t-23 23.5t3 18l10 8q7 3 8.5 2t6.5 -8q14 -18 43 -18q27 0 43.5 20t16.5 48q0 49 -73 60q-12 3 -10 13z" />
    <glyph glyph-name="ogonek.cap" horiz-adv-x="249" 
d="M141 12l31 -4q-6 -3 -13 -8q-28 -17 -50.5 -49.5t-22.5 -74.5q0 -27 16 -41.5t40 -14.5t57 15q6 3 8 -0.5t2 -13.5q0 -12 -11 -20q-22 -17 -66 -17q-37 0 -61 20.5t-24 61.5q0 44 26.5 84.5t67.5 61.5z" />
    <glyph glyph-name="commaaccent" horiz-adv-x="262" 
d="M129 -147q0 21 12.5 33t33.5 12q40 0 40 -68q0 -63 -30 -107t-58 -58q-12 -7 -16 0l-7 10q-5 8 6 16q50 33 65 95q4 19 2 38q-8 -5 -15 -5q-33 0 -33 34z" />
    <glyph glyph-name="commaaccent.alt" horiz-adv-x="262" 
d="M129 -147q0 21 12.5 33t33.5 12q40 0 40 -68q0 -63 -30 -107t-58 -58q-12 -7 -16 0l-7 10q-5 8 6 16q50 33 65 95q4 19 2 38q-8 -5 -15 -5q-33 0 -33 34z" />
    <glyph glyph-name="commaaccent.cap" horiz-adv-x="262" 
d="M129 -147q0 21 12.5 33t33.5 12q40 0 40 -68q0 -63 -30 -107t-58 -58q-12 -7 -16 0l-7 10q-5 8 6 16q50 33 65 95q4 19 2 38q-8 -5 -15 -5q-33 0 -33 34z" />
    <glyph glyph-name="brokenbar.case" horiz-adv-x="364" 
d="M218 508q-13 0 -11 13l48 345q3 13 15 13h6q12 0 9 -13l-48 -345q-2 -13 -15 -13h-4zM159 178q2 13 14 13h6q12 0 10 -13l-49 -346q-2 -12 -14 -12h-5q-13 0 -11 12z" />
    <glyph glyph-name="zero.tf" horiz-adv-x="604" 
d="M264 -10q-86 0 -132.5 70.5t-46.5 192.5q0 198 75 318.5t202 120.5q86 0 132.5 -70.5t46.5 -192.5q0 -198 -75 -318.5t-202 -120.5zM270 31q105 0 165.5 108t60.5 287q0 105 -36 164.5t-104 59.5q-105 0 -166 -108.5t-61 -286.5q0 -105 36 -164.5t105 -59.5z" />
    <glyph glyph-name="one.tf" horiz-adv-x="604" 
d="M111 0q-12 0 -10 13l1 11q2 13 14 13h144l84 568h-1l-133 -110q-8 -6 -14 1l-13 17q-5 6 4 15l180 153h20q10 0 8 -12l-89 -632h130q13 0 11 -13l-1 -11q-2 -13 -15 -13h-320z" />
    <glyph glyph-name="two.tf" horiz-adv-x="604" 
d="M73 12l2 18l273 266q65 63 96.5 114.5t31.5 105.5q0 55 -31.5 93t-96.5 38q-72 0 -142 -81q-10 -12 -19 -4l-15 12q-9 7 1 18q3 4 8.5 10.5t23.5 24t37.5 30.5t49.5 23.5t60 10.5q83 0 127.5 -48t44.5 -120q0 -71 -35.5 -126t-110.5 -129l-231 -227h293q13 0 11 -13
l-2 -15q-2 -13 -14 -13h-351q-11 0 -11 12z" />
    <glyph glyph-name="three.tf" horiz-adv-x="604" 
d="M81 84q-4 9 3 14l20 12q9 7 16 -5q45 -75 136 -75q74 0 125.5 47t51.5 121q0 59 -42 93.5t-94 34.5h-85q-13 0 -11 11l3 20q2 12 15 12h80q62 0 113 44.5t51 114.5q0 53 -31.5 86.5t-81.5 33.5q-76 0 -151 -75q-8 -8 -16 0l-13 12q-9 7 1 17q9 10 24.5 25t63 39.5
t95.5 24.5q70 0 113.5 -42.5t43.5 -110.5q0 -66 -36.5 -116.5t-88.5 -73.5v-2q38 -14 66 -54t28 -90q0 -89 -65 -150.5t-165 -61.5q-115 0 -169 94z" />
    <glyph glyph-name="four.tf" horiz-adv-x="604" 
d="M67 156q-8 0 -11.5 3t-2.5 9l2 20l438 504h16q9 0 8 -12l-67 -485h69q13 0 11 -12l-2 -13q-2 -13 -14 -13h-70l-20 -144q-2 -13 -14 -13h-20q-12 0 -10 14l19 142h-332zM113 196h294l59 407z" />
    <glyph glyph-name="five.tf" horiz-adv-x="604" 
d="M90 84q-4 9 3 14l20 12q9 7 16 -5q45 -75 136 -75q80 0 137.5 66t57.5 153q0 63 -36 100t-107 37h-147q-9 0 -13.5 6.5t-2.5 14.5l36 261q2 13 15 13h281q5 0 8 -4t2 -9l-2 -16q-2 -13 -14 -13h-252l-30 -211h125q90 0 137 -46t47 -132q0 -106 -72.5 -183t-174.5 -77
q-116 0 -170 94z" />
    <glyph glyph-name="six.tf" horiz-adv-x="604" 
d="M107 217q0 89 29 167.5t69.5 129t95 93t92.5 63t74 34.5q10 3 14 -11l4 -11q5 -13 -13 -19q-27 -10 -62.5 -30.5t-83.5 -55.5t-89.5 -90.5t-61.5 -118.5h1q19 23 67 47.5t106 24.5q71 0 120 -52.5t49 -135.5q0 -106 -72 -184t-164 -78q-86 0 -130.5 63.5t-44.5 163.5z
M150 222q0 -81 35 -136.5t103 -55.5q71 0 128 64.5t57 150.5q0 66 -37.5 109.5t-94.5 43.5q-29 0 -58.5 -10.5t-49.5 -23.5t-38 -29.5t-24.5 -24t-10.5 -12.5q-10 -29 -10 -76z" />
    <glyph glyph-name="seven.tf" horiz-adv-x="604" 
d="M126 16l343 623h-323q-14 0 -12 15l2 15q1 12 15 12h364q12 0 12 -14v-6l-353 -649q-7 -12 -16 -12h-27q-13 0 -5 16z" />
    <glyph glyph-name="eight.tf" horiz-adv-x="604" 
d="M90 151q0 74 46.5 126t109.5 70q0 1 1 2q-40 14 -67 52t-27 87q0 83 58.5 142t152.5 59q77 0 120.5 -44.5t43.5 -112.5q0 -67 -41.5 -116t-97.5 -67v-2q46 -14 77.5 -53t31.5 -94q0 -96 -65 -153t-168 -57q-81 0 -128 43t-47 118zM321 373q75 6 118.5 47t43.5 107
q0 52 -33.5 88t-92.5 36q-70 0 -115.5 -47.5t-45.5 -108.5q0 -54 33 -85.5t92 -36.5zM133 158q0 -63 38.5 -96.5t99.5 -33.5q77 0 129 43.5t52 120.5q0 51 -37.5 88.5t-100.5 43.5q-80 -7 -130.5 -54.5t-50.5 -111.5z" />
    <glyph glyph-name="nine.tf" horiz-adv-x="604" 
d="M140 4q-5 13 13 19q27 10 62.5 30.5t83.5 55.5t89.5 90.5t61.5 118.5h-1q-19 -23 -67 -47.5t-106 -24.5q-71 0 -120 52.5t-49 135.5q0 106 72 184t164 78q86 0 130.5 -63.5t44.5 -163.5q0 -89 -29 -167.5t-69.5 -129t-95 -93t-92.5 -63t-74 -34.5q-10 -3 -13 7zM284 288
q29 0 58.5 10.5t49.5 23.5t38 29.5t24.5 24t10.5 12.5q10 29 10 76q0 81 -35 136.5t-103 55.5q-71 0 -128 -64.5t-57 -150.5q0 -66 37.5 -109.5t94.5 -43.5z" />
    <glyph glyph-name="zero.denom" horiz-adv-x="345" 
d="M149 -10q-51 0 -74.5 42t-13.5 115q11 74 46 116.5t87 42.5t75.5 -42t12.5 -117q-10 -73 -45.5 -115t-87.5 -42zM154 23q75 0 92 124q18 127 -57 127q-36 0 -60 -33.5t-32 -93.5q-17 -124 57 -124z" />
    <glyph glyph-name="one.denom" horiz-adv-x="199" 
d="M89 8l34 239l-47 -26q-6 -3 -8 2l-4 13q-2 6 4 11l76 49h11q9 0 8 -8l-39 -280q-2 -8 -8 -8h-21q-8 0 -6 8z" />
    <glyph glyph-name="two.denom" horiz-adv-x="311" 
d="M40 8l1 9l141 130q36 34 41 66q3 24 -10.5 42t-43.5 18q-29 0 -63 -34q-6 -6 -10 0l-12 12q-4 4 1 10q4 5 11.5 12.5t31.5 20t48 12.5q42 0 64.5 -26.5t17.5 -63.5q-6 -47 -52 -88l-107 -97h125q7 0 6 -8l-2 -15q0 -8 -8 -8h-173q-7 0 -7 8z" />
    <glyph glyph-name="three.denom" horiz-adv-x="322" 
d="M47 31q-5 5 2 11l11 11q7 7 11 0q1 -1 4.5 -5t6 -6.5t8.5 -7t12.5 -7t16 -4.5t20.5 -2q30 0 50.5 16t24.5 41q3 24 -12 40.5t-50 16.5h-41q-8 0 -6 10l2 12q0 8 8 8h41q61 0 70 55q3 25 -11 39.5t-40 14.5q-32 0 -68 -30q-5 -7 -9 -1l-10 11q-4 6 1 11q4 5 11.5 11.5
t32 18t49.5 11.5q37 0 61.5 -22.5t19.5 -59.5q-3 -23 -20 -43t-37 -29q6 -2 14.5 -7t21 -24.5t8.5 -44.5q-5 -38 -35.5 -62t-79.5 -24q-55 0 -88 41z" />
    <glyph glyph-name="four.denom" horiz-adv-x="342" 
d="M58 69q-8 0 -6 9l1 9l199 209h13q3 0 6 -2.5t2 -6.5l-26 -185h35q9 0 7 -8l-2 -16q-2 -8 -9 -8h-35l-9 -61q-2 -9 -10 -9h-19q-3 0 -6 2.5t-2 6.5l8 60h-147zM111 103h99l18 126z" />
    <glyph glyph-name="five.denom" horiz-adv-x="348" 
d="M49 28q-5 7 2 15l10 11q5 7 11 0q22 -33 66 -33q31 0 53 21.5t26 49.5t-10 45t-43 17h-70q-14 0 -12 15l17 118q0 9 9 9h133q9 0 7 -9l-3 -17q-2 -8 -9 -8h-108l-10 -75h50q46 0 69.5 -24.5t17.5 -68.5q-6 -45 -39 -74.5t-83 -29.5q-55 0 -84 38z" />
    <glyph glyph-name="six.denom" horiz-adv-x="324" 
d="M57 124q6 42 27.5 77.5t50 57.5t51 34t41.5 18q8 3 10 -6l3 -11q4 -13 -8 -17q-39 -12 -75.5 -41t-57.5 -74q1 0 5 4t10 8t14.5 8.5t21 7t25.5 2.5q35 0 59 -27.5t18 -70.5q-6 -44 -37.5 -74t-74.5 -30q-47 0 -69 38.5t-14 95.5zM145 21q27 0 46.5 20t23.5 53
q4 30 -10.5 49t-41.5 19q-42 0 -72 -43q-6 -39 8 -68.5t46 -29.5z" />
    <glyph glyph-name="seven.denom" horiz-adv-x="324" 
d="M70 14l156 248h-141q-9 0 -7 9l2 16q2 9 9 9h177q9 0 7 -9l-2 -16l-162 -262q-5 -9 -13 -9h-15q-13 0 -11 14z" />
    <glyph glyph-name="eight.denom" horiz-adv-x="314" 
d="M48 76q4 23 18 41.5t24 24.5t18 9v2q-37 20 -31 71q5 38 34 60t71 22q39 0 62.5 -22.5t18.5 -59.5q-3 -23 -18 -42.5t-34 -28.5v-2q7 -3 15.5 -9t18 -24.5t5.5 -41.5q-5 -38 -35.5 -62t-77.5 -24q-43 0 -68.5 24.5t-20.5 61.5zM162 165q57 5 64 55q3 25 -10 39.5
t-39 14.5t-43 -14.5t-20 -39.5q-7 -51 48 -55zM86 78q-4 -25 11 -41t45 -16q29 0 48.5 16t23.5 41q6 53 -56 57q-66 -4 -72 -57z" />
    <glyph glyph-name="nine.denom" horiz-adv-x="325" 
d="M82 0q-4 13 8 17q39 12 75.5 41t57.5 74q-1 0 -5 -4t-10 -8t-14.5 -8.5t-21 -7t-25.5 -2.5q-35 0 -59 27.5t-18 70.5q7 44 38 74t74 30q47 0 69 -38.5t14 -95.5q-6 -42 -27.5 -77.5t-50 -57.5t-51 -34t-41.5 -18q-8 -3 -10 6zM159 132q42 0 72 43q6 39 -8 68.5t-46 29.5
q-27 0 -46.5 -20t-23.5 -53q-4 -30 10.5 -49t41.5 -19z" />
    <glyph glyph-name="zero.num" horiz-adv-x="345" 
d="M199 394q-51 0 -74.5 42t-13.5 115q11 74 46 116.5t87 42.5t75.5 -42t12.5 -117q-10 -73 -45.5 -115t-87.5 -42zM204 427q75 0 92 124q18 127 -57 127q-36 0 -60 -33.5t-32 -93.5q-17 -124 57 -124z" />
    <glyph glyph-name="one.num" horiz-adv-x="199" 
d="M145 404q-8 0 -6 8l34 239l-47 -26q-6 -3 -8 2l-4 13q-2 6 4 11l76 49h11q9 0 8 -8l-39 -280q-2 -8 -8 -8h-21z" />
    <glyph glyph-name="two.num" horiz-adv-x="311" 
d="M97 404q-7 0 -7 8l1 9l141 130q36 34 41 66q3 24 -10.5 42t-43.5 18q-29 0 -63 -34q-6 -6 -10 0l-12 12q-4 4 1 10q4 5 11.5 12.5t31.5 20t48 12.5q42 0 64.5 -26.5t17.5 -63.5q-6 -47 -52 -88l-107 -97h125q7 0 6 -8l-2 -15q0 -8 -8 -8h-173z" />
    <glyph glyph-name="three.num" horiz-adv-x="322" 
d="M185 394q-55 0 -88 41q-5 5 2 11l11 11q7 7 11 0q1 -1 4.5 -5t6 -6.5t8.5 -7t12.5 -7t16 -4.5t20.5 -2q30 0 50.5 16t24.5 41q3 24 -12 40.5t-50 16.5h-41q-8 0 -6 10l2 12q0 8 8 8h41q61 0 70 55q3 25 -11 39.5t-40 14.5q-32 0 -68 -30q-5 -7 -9 -1l-10 11q-4 6 1 11
q4 5 11.5 11.5t32 18t49.5 11.5q37 0 61.5 -22.5t19.5 -59.5q-3 -23 -20 -43t-37 -29q6 -2 14.5 -7t21 -24.5t8.5 -44.5q-5 -38 -35.5 -62t-79.5 -24z" />
    <glyph glyph-name="four.num" horiz-adv-x="342" 
d="M255 404q-3 0 -6 2.5t-2 6.5l8 60h-147q-8 0 -6 9l1 9l199 209h13q3 0 6 -2.5t2 -6.5l-26 -185h35q9 0 7 -8l-2 -16q-2 -8 -9 -8h-35l-9 -61q-2 -9 -10 -9h-19zM161 507h99l18 126z" />
    <glyph glyph-name="five.num" horiz-adv-x="348" 
d="M183 394q-55 0 -84 38q-5 7 2 15l10 11q5 7 11 0q22 -33 66 -33q31 0 53 21.5t26 49.5t-10 45t-43 17h-70q-14 0 -12 15l17 118q0 9 9 9h133q9 0 7 -9l-3 -17q-2 -8 -9 -8h-108l-10 -75h50q46 0 69.5 -24.5t17.5 -68.5q-6 -45 -39 -74.5t-83 -29.5z" />
    <glyph glyph-name="six.num" horiz-adv-x="324" 
d="M190 394q-47 0 -69 38.5t-14 95.5q6 42 27.5 77.5t50 57.5t51 34t41.5 18q8 3 10 -6l3 -11q4 -13 -8 -17q-39 -12 -75.5 -41t-57.5 -74q1 0 5 4t10 8t14.5 8.5t21 7t25.5 2.5q35 0 59 -27.5t18 -70.5q-6 -44 -37.5 -74t-74.5 -30zM195 425q27 0 46.5 20t23.5 53
q4 30 -10.5 49t-41.5 19q-42 0 -72 -43q-6 -39 8 -68.5t46 -29.5z" />
    <glyph glyph-name="seven.num" horiz-adv-x="324" 
d="M131 404q-13 0 -11 14l156 248h-141q-9 0 -7 9l2 16q2 9 9 9h177q9 0 7 -9l-2 -16l-162 -262q-5 -9 -13 -9h-15z" />
    <glyph glyph-name="eight.num" horiz-adv-x="314" 
d="M187 394q-43 0 -68.5 24.5t-20.5 61.5q4 23 18 41.5t24 24.5t18 9v2q-37 20 -31 71q5 38 34 60t71 22q39 0 62.5 -22.5t18.5 -59.5q-3 -23 -18 -42.5t-34 -28.5v-2q7 -3 15.5 -9t18 -24.5t5.5 -41.5q-5 -38 -35.5 -62t-77.5 -24zM212 569q57 5 64 55q3 25 -10 39.5
t-39 14.5t-43 -14.5t-20 -39.5q-7 -51 48 -55zM192 425q29 0 48.5 16t23.5 41q6 53 -56 57q-66 -4 -72 -57q-4 -25 11 -41t45 -16z" />
    <glyph glyph-name="nine.num" horiz-adv-x="325" 
d="M145 387q-8 -3 -10 6l-3 11q-4 13 8 17q39 12 75.5 41t57.5 74q-1 0 -5 -4t-10 -8t-14.5 -8.5t-21 -7t-25.5 -2.5q-35 0 -59 27.5t-18 70.5q7 44 38 74t74 30q47 0 69 -38.5t14 -95.5q-6 -42 -27.5 -77.5t-50 -57.5t-51 -34t-41.5 -18zM209 536q42 0 72 43q6 39 -8 68.5
t-46 29.5q-27 0 -46.5 -20t-23.5 -53q-4 -30 10.5 -49t41.5 -19z" />
    <glyph glyph-name="parenleft.case" horiz-adv-x="328" 
d="M86 237q0 132 25.5 232.5t67.5 156.5t89 83.5t98 30.5q11 0 11 -9l-1 -15q0 -12 -9 -12q-111 -16 -174 -133t-63 -333q0 -228 136 -249q9 -2 6 -12l-4 -17q-1 -8 -12 -8q-74 5 -122 73.5t-48 211.5z" />
    <glyph glyph-name="parenright.case" horiz-adv-x="327" 
d="M13 -10q112 16 174 131.5t62 331.5q0 230 -135 251q-11 0 -7 13l3 14q2 9 14 9q72 -4 120 -73.5t48 -213.5q0 -132 -25 -232.5t-66.5 -156t-88.5 -83t-98 -29.5q-12 0 -12 8l1 18q0 10 10 12z" />
    <glyph glyph-name="hyphen.case" horiz-adv-x="452" 
d="M137 321q-12 0 -10 13l1 11q2 13 14 13h200q13 0 11 -13l-1 -11q-2 -13 -15 -13h-200z" />
    <glyph glyph-name="bracketleft.case" horiz-adv-x="307" 
d="M68 -139h144q13 0 11 -13l-2 -15q-2 -13 -15 -13h-174q-13 0 -11 13l137 974q2 13 15 13h174q13 0 11 -13l-2 -15q-2 -13 -15 -13h-144z" />
    <glyph glyph-name="bracketright.case" horiz-adv-x="307" 
d="M-16 -139h143l129 918h-143q-13 0 -11 13l2 15q2 13 15 13h173q13 0 11 -13l-137 -974q-2 -13 -15 -13h-173q-13 0 -11 13l2 15q2 13 15 13z" />
    <glyph glyph-name="braceleft.case" horiz-adv-x="340" 
d="M72 52l23 164q3 9 1 18t-1.5 15t-4 13t-5.5 10.5t-7 9t-8 7.5t-8 5.5t-7.5 4.5t-6.5 3l-6 3q-9 4 -7 12l2 11q1 7 11 10q23 7 47.5 29t29.5 61l22 160q9 66 33.5 115t58.5 75.5t69.5 39t72.5 12.5q6 0 9.5 -2.5t2.5 -7.5l-3 -17q-2 -8 -10 -9q-163 -13 -190 -207
l-22 -159q-4 -31 -21.5 -58t-31 -38t-20.5 -14v-1q52 -41 43 -101l-23 -163q-27 -194 132 -207q9 -2 8 -12l-2 -13q-2 -11 -15 -11q-38 0 -70 12.5t-58 39t-36.5 75.5t-1.5 115z" />
    <glyph glyph-name="bar.case" horiz-adv-x="190" 
d="M20 -168l145 1034q3 13 15 13h6q12 0 9 -13l-145 -1034q-2 -12 -14 -12h-5q-13 0 -11 12z" />
    <glyph glyph-name="braceright.case" horiz-adv-x="344" 
d="M170 53l23 166q9 68 70 103v1q-6 3 -16 13.5t-19 37t-5 57.5l25 156q28 193 -132 206q-7 1 -7 9l3 18q1 10 15 10q82 0 132.5 -58t31.5 -184l-24 -160q-5 -39 12.5 -61.5t39.5 -28.5q8 -3 8 -10l-1 -13q0 -5 -11 -10q-12 -5 -19.5 -8.5t-22 -14t-24 -27.5t-12.5 -39
l-24 -164q-19 -126 -86.5 -184t-149.5 -58q-6 0 -9.5 3t-2.5 8l2 15q1 10 12 12q76 6 126.5 58.5t64.5 146.5z" />
    <glyph glyph-name="guilsinglleft.case" horiz-adv-x="233" 
d="M127 162l-73 157q-4 9 3 17l116 154q7 9 17 9h16q6 0 7 -5.5t-4 -12.5l-103 -153l59 -157q3 -7 0.5 -12.5t-7.5 -5.5h-17q-9 0 -14 9z" />
    <glyph glyph-name="guilsinglright.case" horiz-adv-x="232" 
d="M44 153q-13 0 -2 18l103 157l-60 153q-3 7 -0.5 12.5t8.5 5.5h16q9 0 14 -9l73 -154q4 -7 -2 -17l-117 -157q-7 -9 -17 -9h-16z" />
    <glyph glyph-name="guillemotleft.case" horiz-adv-x="377" 
d="M271 162l-73 157q-4 9 3 17l116 154q7 9 17 9h16q6 0 7 -5.5t-4 -12.5l-103 -153l59 -157q3 -7 0.5 -12.5t-7.5 -5.5h-17q-9 0 -14 9zM127 162l-73 157q-4 9 3 17l116 154q7 9 17 9h16q6 0 7 -5.5t-4 -12.5l-103 -153l59 -157q3 -7 0.5 -12.5t-7.5 -5.5h-17q-9 0 -14 9z
" />
    <glyph glyph-name="guillemotright.case" horiz-adv-x="376" 
d="M188 153q-13 0 -2 18l103 157l-60 153q-3 7 -0.5 12.5t8.5 5.5h16q9 0 14 -9l73 -154q4 -7 -2 -17l-117 -157q-7 -9 -17 -9h-16zM44 153q-13 0 -2 18l103 157l-60 153q-3 7 -0.5 12.5t8.5 5.5h16q9 0 14 -9l73 -154q4 -7 -2 -17l-117 -157q-7 -9 -17 -9h-16z" />
    <glyph glyph-name="endash.case" horiz-adv-x="603" 
d="M147 323q-13 0 -11 12l1 8q2 13 15 13h343q13 0 11 -13l-1 -8q-2 -12 -15 -12h-343z" />
    <glyph glyph-name="emdash.case" horiz-adv-x="799" 
d="M147 323q-13 0 -11 12l1 8q2 13 15 13h539q13 0 11 -13l-1 -8q-2 -12 -14 -12h-540z" />
    <glyph glyph-name="bullet.case" horiz-adv-x="318" 
d="M168 244q-25 0 -42.5 18t-17.5 44q0 34 24.5 58.5t56.5 24.5q27 0 44.5 -19t17.5 -46q0 -33 -25 -56.5t-58 -23.5z" />
    <glyph glyph-name="periodcentered.case" horiz-adv-x="231" 
d="M134 311q-15 0 -25 10.5t-10 24.5q0 19 14 32t32 13q15 0 24 -10t9 -25q0 -19 -13 -32t-31 -13z" />
    </font>
</defs>
</svg>
