<?xml version="1.0" standalone="no"?>
<!DOCTYPE svg PUBLIC "-//W3C//DTD SVG 1.1//EN" "http://www.w3.org/Graphics/SVG/1.1/DTD/svg11.dtd" >
<svg xmlns="http://www.w3.org/2000/svg" xmlns:xlink="http://www.w3.org/1999/xlink" version="1.1">
<metadata>
Created by FontForge 20161013 at Sun Feb 21 15:30:51 2010
 By ,,,
Copyright (c) 2009 by Hannes von Doehren. All rights reserved.
</metadata>
<defs>
<font id="BrandonGrotesque-MediumItalic" horiz-adv-x="461" >
  <font-face 
    font-family="Brandon Grotesque Medium"
    font-weight="420"
    font-style="italic"
    font-stretch="normal"
    units-per-em="1000"
    panose-1="2 11 6 3 2 2 3 13 2 2"
    ascent="700"
    descent="-300"
    x-height="400"
    cap-height="700"
    bbox="-185 -380.261 980.765 1037.2"
    underline-thickness="50"
    underline-position="-200"
    slope="-8"
    unicode-range="U+0020-FB02"
  />
<missing-glyph horiz-adv-x="599" 
d="M50 30v640q0 30 30 30h439q30 0 30 -30v-640q0 -30 -30 -30h-439q-30 0 -30 30zM262 314q0 -12 14 -12h36q15 0 15 13v26q0 16 16.5 32t36 28.5t36 36.5t16.5 53q0 48 -35.5 79.5t-89.5 31.5q-24 0 -46.5 -6.5t-37 -15t-25.5 -17.5t-16 -15l-5 -7q-8 -12 0 -18l22 -22
q8 -6 17 0q1 1 7.5 7t9.5 9t11.5 8.5t15.5 8.5t18 5.5t22 2.5q29 0 45 -15t16 -37q0 -21 -15.5 -39t-34 -30t-34 -32.5t-15.5 -45.5v-29zM245 156q0 -20 14.5 -34t33.5 -14q20 0 34.5 14t14.5 34t-14.5 34t-34.5 14q-19 0 -33.5 -14t-14.5 -34z" />
    <glyph glyph-name="fi" unicode="fi" horiz-adv-x="514" 
d="M16 -281l83 598h-47q-7 0 -11.5 5.5t-3.5 13.5l7 45q1 8 6.5 13.5t12.5 5.5h47l18 124q13 89 63.5 137.5t127.5 48.5q40 0 77 -15t56 -30q5 -4 5.5 -11.5t-3.5 -13.5l-28 -45q-10 -15 -24 -5q-44 29 -90 29q-30 0 -54.5 -23.5t-31.5 -71.5l-18 -124h242q7 0 11 -5.5
t3 -13.5l-51 -362q-1 -7 -7 -13t-13 -6h-61q-7 0 -11 6t-3 13l41 298h-162l-83 -598q-3 -19 -24 -19h-60q-7 0 -11 6t-3 13z" />
    <glyph glyph-name="fl" unicode="fl" horiz-adv-x="523" 
d="M15 -281l85 599h-50q-7 0 -11 5.5t-3 13.5l6 44q3 19 20 19h49l18 124q13 88 68 137t126 49q34 0 63.5 -13.5t41.5 -26.5l13 -14l13 27q8 17 23 17h24q7 0 11.5 -5.5t3.5 -13.5l-93 -662q-4 -19 -20 -19h-62q-7 0 -11 5.5t-3 13.5l78 546q-3 6 -11 16.5t-29.5 24
t-46.5 13.5q-32 0 -58.5 -23.5t-33.5 -71.5l-18 -124h84q17 0 15 -19l-7 -44q-1 -8 -6.5 -13.5t-12.5 -5.5h-84l-85 -599q-1 -7 -7 -13t-13 -6h-64q-15 0 -13 19z" />
    <glyph glyph-name="f_f" unicode="ff" horiz-adv-x="583" 
d="M14 -281l86 598h-49q-7 0 -11 5.5t-3 13.5l6 45q3 19 20 19h48l14 101q14 99 70.5 149t139.5 50q70 0 116 -43q51 53 126 53q64 0 99 -40q9 -11 0 -23l-28 -43q-10 -14 -22 -5q-27 21 -56 21q-31 0 -53 -24t-28 -72l-17 -124h94q17 0 14 -19l-6 -45q-4 -19 -20 -19h-94
l-86 -598q-1 -7 -7 -13t-13 -6h-64q-7 0 -11 6t-3 13l86 598h-164l-86 -598q-1 -7 -7 -13t-13 -6h-64q-7 0 -11 6t-3 13zM209 400h164l18 124q6 36 12 56q-8 13 -29 23t-47 10q-38 0 -66 -28t-37 -84z" />
    <glyph glyph-name="f_f_i" unicode="ffi" horiz-adv-x="777" 
d="M12 -281l88 598h-48q-7 0 -11.5 5.5t-3.5 13.5l6 45q3 19 20 19h48l15 101q12 94 65.5 146.5t143.5 52.5q68 0 116 -43q51 53 131 53q40 0 77 -15t56 -30q5 -4 5.5 -11.5t-3.5 -13.5l-28 -45q-10 -15 -24 -5q-44 29 -90 29q-31 0 -55 -24t-31 -72l-17 -123h241
q7 0 11 -5.5t3 -13.5l-51 -362q-1 -7 -7 -13t-13 -6h-61q-16 0 -14 19l41 298h-162l-88 -598q-1 -7 -7 -13t-13 -6h-64q-7 0 -11 6t-3 13l88 598h-164l-88 -598q-1 -7 -7 -13t-13 -6h-64q-7 0 -11 6t-3 13zM210 400h163l18 124q3 22 12 56q-8 13 -29 23t-47 10
q-39 0 -67 -28t-36 -84z" />
    <glyph glyph-name="f_f_l" unicode="ffl" horiz-adv-x="787" 
d="M15 -281l84 598h-49q-7 0 -11 5.5t-3 13.5l6 45q3 19 20 19h48l14 101q14 98 73 148.5t137 50.5q70 0 116 -43q51 53 137 53q34 0 63.5 -13.5t41.5 -26.5l13 -14l13 27q8 17 23 17h24q7 0 11.5 -5.5t3.5 -13.5l-93 -662q-4 -19 -20 -19h-62q-7 0 -11 5.5t-3 13.5l78 546
q-3 6 -11 16.5t-30 24t-47 13.5q-33 0 -59.5 -23.5t-33.5 -71.5l-18 -124h84q17 0 15 -19l-7 -44q-1 -8 -6.5 -13.5t-12.5 -5.5h-84l-84 -599q-1 -7 -7 -13t-13 -6h-64q-7 0 -11 6t-3 13l84 598h-164l-84 -598q-1 -7 -7 -13t-13 -6h-64q-7 0 -11 6t-3 13zM208 400h164
l18 124q5 29 13 56q-8 13 -29.5 23t-47.5 10q-38 0 -66.5 -28t-36.5 -84z" />
    <glyph glyph-name="f_f_h" unicode="ffh" horiz-adv-x="1037" 
d="M17 -281l82 598h-49q-7 0 -11 5.5t-3 13.5l6 45q3 19 20 19h48l13 90q15 105 70 157.5t141 52.5q70 0 116 -43q51 53 137 53q33 0 62 -13.5t41 -26.5l13 -14l13 27q8 17 23 17h24q7 0 11.5 -5t3.5 -12l-45 -316q55 43 109 43q74 0 107 -52.5t21 -137.5l-28 -201
q-1 -7 -7 -13t-13 -6h-60q-16 0 -14 19l28 201q7 48 -8.5 74.5t-49.5 26.5q-32 0 -60.5 -22t-39.5 -41l-34 -239q-3 -19 -21 -19h-61q-7 0 -11 5.5t-3 13.5l78 544l-2 3q-2 4 -4.5 7.5t-7.5 9t-9.5 10t-11.5 9.5t-14.5 8.5t-16.5 6t-19 2.5q-34 0 -60 -24.5t-34 -77.5
l-17 -117h84q17 0 15 -19l-7 -44q-1 -8 -6.5 -13.5t-12.5 -5.5h-84l-82 -599q-1 -7 -7 -13t-13 -6h-64q-7 0 -11 6t-3 13l82 598h-164l-82 -598q-1 -7 -7 -13t-13 -6h-64q-7 0 -11 6t-3 13zM208 400h164l18 124q5 29 13 56q-8 13 -29.5 23t-47.5 10q-38 0 -66.5 -28
t-36.5 -84z" />
    <glyph glyph-name="f_k" unicode="fk" horiz-adv-x="739" 
d="M15 -281l85 599h-50q-7 0 -11 5.5t-3 13.5l6 44q3 19 20 19h49l18 124q13 89 66 137.5t128 48.5q34 0 63.5 -13.5t41.5 -26.5l13 -14l13 27q8 17 23 17h24q7 0 11.5 -5.5t3.5 -13.5l-60 -433l145 140q14 12 24 12h79q11 0 12.5 -10t-5.5 -17l-166 -157l144 -190
q6 -7 1.5 -16.5t-15.5 -9.5h-77q-9 0 -15 8l-135 186l-25 -175q-1 -7 -6.5 -13t-12.5 -6h-63q-7 0 -11 5.5t-3 13.5l78 546q-3 6 -11 16.5t-29.5 24t-46.5 13.5q-32 0 -58.5 -23.5t-33.5 -71.5l-18 -124h84q17 0 15 -19l-7 -44q-1 -8 -6.5 -13.5t-12.5 -5.5h-84l-85 -599
q-1 -7 -7 -13t-13 -6h-64q-15 0 -13 19z" />
    <glyph glyph-name="f_j" unicode="fj" horiz-adv-x="524" 
d="M16 -281l83 598h-47q-7 0 -11.5 5.5t-3.5 13.5l7 45q1 8 6.5 13.5t12.5 5.5h47l18 124q12 87 64.5 136.5t126.5 49.5q40 0 77 -15t56 -30q5 -4 5.5 -11.5t-3.5 -13.5l-28 -45q-10 -15 -24 -5q-44 29 -90 29q-30 0 -54.5 -23.5t-31.5 -71.5l-18 -124h252q7 0 11 -5.5
t3 -13.5l-70 -505q-25 -186 -170 -186q-27 0 -47 10q-12 5 -7 19l21 57q5 12 18 8q9 -3 21 -3q27 0 43.5 22.5t23.5 72.5l62 441h-172l-83 -598q-3 -19 -24 -19h-60q-7 0 -11 6t-3 13z" />
    <glyph glyph-name="f_f_j" unicode="ffj" horiz-adv-x="787" 
d="M12 -281l88 598h-48q-7 0 -11.5 5.5t-3.5 13.5l6 45q3 19 20 19h48l15 101q12 93 66 146t143 53q78 0 116 -43q51 53 131 53q40 0 77 -15t56 -30q5 -4 5.5 -11.5t-3.5 -13.5l-28 -45q-10 -15 -24 -5q-44 29 -90 29q-31 0 -55 -24t-31 -72l-17 -123h251q7 0 11 -5.5
t3 -13.5l-70 -505q-13 -95 -53.5 -140.5t-116.5 -45.5q-27 0 -47 10q-12 5 -7 19l21 57q5 12 18 8q9 -3 21 -3q27 0 43.5 22.5t23.5 72.5l62 441h-172l-88 -598q-1 -7 -7 -13t-13 -6h-64q-7 0 -11 6t-3 13l88 598h-164l-88 -598q-1 -7 -7 -13t-13 -6h-64q-7 0 -11 6t-3 13z
M210 400h163l18 124q3 19 12 55q-8 13 -29 23.5t-47 10.5q-39 0 -67 -28t-36 -84z" />
    <glyph glyph-name="f_b" unicode="fb" horiz-adv-x="760" 
d="M15 -281l85 599h-50q-7 0 -11 5.5t-3 13.5l6 44q3 19 20 19h49l18 124q13 90 66 138t128 48q34 0 63.5 -13.5t41.5 -26.5l13 -14l13 27q8 17 23 17h24q7 0 11.5 -5.5t3.5 -13.5l-40 -293q44 22 85 22q66 0 109.5 -53t43.5 -127q0 -98 -59 -169t-144 -71q-32 0 -59 14
t-38 28l-11 14l-12 -29q-7 -17 -19 -17h-30q-7 0 -11 6t-3 13l77 546q-3 6 -11 16.5t-29.5 24t-46.5 13.5q-32 0 -58.5 -23.5t-33.5 -71.5l-18 -124h84q17 0 15 -19l-7 -44q-1 -8 -6.5 -13.5t-12.5 -5.5h-84l-85 -599q-1 -7 -7 -13t-13 -6h-64q-15 0 -13 19zM440 138
q2 -9 8 -21.5t23 -26.5t40 -14q45 0 77 43t32 101q0 43 -22 73t-58 30q-20 0 -39.5 -6t-28.5 -11l-10 -6z" />
    <glyph glyph-name="f_f_k" unicode="ffk" horiz-adv-x="1003" 
d="M15 -281l84 598h-49q-7 0 -11 5.5t-3 13.5l6 45q3 19 20 19h48l14 101q14 99 71 149t139 50q70 0 116 -43q51 53 137 53q34 0 63.5 -13.5t41.5 -26.5l13 -14l13 27q8 17 23 17h24q7 0 11.5 -5.5t3.5 -13.5l-60 -433l145 140q14 12 24 12h79q11 0 12.5 -10t-5.5 -17
l-166 -157l144 -190q6 -7 1.5 -16.5t-15.5 -9.5h-77q-9 0 -15 8l-135 186l-25 -175q-1 -7 -6.5 -13t-12.5 -6h-63q-7 0 -11 5.5t-3 13.5l78 546q-3 6 -11 16.5t-30 24t-47 13.5q-33 0 -59.5 -23.5t-33.5 -71.5l-18 -124h84q17 0 15 -19l-7 -44q-1 -8 -6.5 -13.5t-12.5 -5.5
h-84l-84 -599q-1 -7 -7 -13t-13 -6h-64q-7 0 -11 6t-3 13l84 598h-164l-84 -598q-1 -7 -7 -13t-13 -6h-64q-7 0 -11 6t-3 13zM208 400h164l18 124q5 29 13 56q-8 13 -29.5 23t-47.5 10q-38 0 -66.5 -28t-36.5 -84z" />
    <glyph glyph-name="f_h" unicode="fh" horiz-adv-x="776" 
d="M14 -281l85 598h-50q-7 0 -11 5.5t-3 13.5l6 44q3 19 20 19h49l18 125q13 89 66 137.5t128 48.5q34 0 63.5 -13.5t42.5 -26.5l12 -14l13 27q8 17 23 17h24q7 0 11.5 -5.5t3.5 -13.5l-44 -314q55 43 109 43q77 0 108.5 -52t19.5 -138l-28 -201q-1 -7 -7 -13t-13 -6h-60
q-16 0 -14 19l28 201q7 48 -8.5 74.5t-49.5 26.5q-32 0 -60.5 -22t-39.5 -41l-34 -239q-3 -19 -21 -19h-61q-7 0 -11 5.5t-3 13.5l78 546q-3 6 -11 16.5t-29.5 24t-46.5 13.5q-32 0 -58.5 -23.5t-33.5 -71.5l-18 -125h84q17 0 15 -19l-7 -44q-1 -8 -6.5 -13.5t-12.5 -5.5
h-84l-85 -598q-1 -7 -7 -13t-13 -6h-64q-15 0 -13 19z" />
    <glyph glyph-name="f_f_b" unicode="ffb" horiz-adv-x="1023" 
d="M15 -281l84 598h-49q-7 0 -11 5.5t-3 13.5l6 45q3 19 20 19h48l14 101q14 99 70.5 149t139.5 50q70 0 116 -43q51 53 137 53q34 0 63.5 -13.5t41.5 -26.5l13 -14l13 27q8 17 23 17h24q7 0 11.5 -5.5t3.5 -13.5l-41 -293q44 22 85 22q67 0 110 -52t43 -128
q0 -99 -58.5 -169.5t-144.5 -70.5q-32 0 -59 14t-38 28l-11 14l-12 -29q-7 -17 -19 -17h-30q-7 0 -11 6t-3 13l78 546q-3 6 -11 16.5t-30 24t-47 13.5q-33 0 -59.5 -23.5t-33.5 -71.5l-18 -125h84q17 0 15 -19l-7 -44q-1 -8 -6.5 -13.5t-12.5 -5.5h-84l-84 -598
q-1 -7 -7 -13t-13 -6h-64q-7 0 -11 6t-3 13l84 598h-164l-84 -598q-1 -7 -7 -13t-13 -6h-64q-7 0 -11 6t-3 13zM208 400h164l18 124q5 29 13 56q-8 13 -29.5 23t-47.5 10q-38 0 -66.5 -28t-36.5 -84zM703 141q2 -9 7.5 -22t23 -28t40.5 -15q45 0 77 43t32 101q0 43 -22 73
t-58 30q-20 0 -39.5 -6t-29.5 -11l-9 -6z" />
    <glyph glyph-name=".notdef" horiz-adv-x="599" 
d="M50 30v640q0 30 30 30h439q30 0 30 -30v-640q0 -30 -30 -30h-439q-30 0 -30 30zM262 314q0 -12 14 -12h36q15 0 15 13v26q0 16 16.5 32t36 28.5t36 36.5t16.5 53q0 48 -35.5 79.5t-89.5 31.5q-24 0 -46.5 -6.5t-37 -15t-25.5 -17.5t-16 -15l-5 -7q-8 -12 0 -18l22 -22
q8 -6 17 0q1 1 7.5 7t9.5 9t11.5 8.5t15.5 8.5t18 5.5t22 2.5q29 0 45 -15t16 -37q0 -21 -15.5 -39t-34 -30t-34 -32.5t-15.5 -45.5v-29zM245 156q0 -20 14.5 -34t33.5 -14q20 0 34.5 14t14.5 34t-14.5 34t-34.5 14q-19 0 -33.5 -14t-14.5 -34z" />
    <glyph glyph-name=".null" horiz-adv-x="0" 
 />
    <glyph glyph-name="nonmarkingreturn" horiz-adv-x="333" 
 />
    <glyph glyph-name="space" unicode=" " horiz-adv-x="225" 
 />
    <glyph glyph-name="exclam" unicode="!" horiz-adv-x="294" 
d="M135 272q-6 0 -10.5 5t-4.5 11l10 279l16 114q1 7 6.5 13t12.5 6h84q7 0 11.5 -5.5t3.5 -13.5l-16 -112l-70 -281q-4 -16 -19 -16h-24zM48 51q0 32 24 55t54 23q25 0 42 -17.5t17 -43.5q0 -32 -24 -55t-55 -23q-24 0 -41 18t-17 43z" />
    <glyph glyph-name="quotedbl" unicode="&#x22;" horiz-adv-x="312" 
d="M238 501q-7 0 -11 6t-3 13l22 161q4 19 20 19h60q9 0 13 -7t0 -18l-55 -159q-6 -15 -19 -15h-27zM89 501q-7 0 -11 5.5t-3 13.5l23 161q1 7 6.5 13t12.5 6h61q9 0 12.5 -7t-0.5 -18l-55 -159q-6 -15 -18 -15h-28z" />
    <glyph glyph-name="numbersign" unicode="#" horiz-adv-x="499" 
d="M64 22l45 169h-63q-7 0 -11.5 5.5t-3.5 13.5l1 9q1 8 7 13.5t13 5.5h70l45 169h-65q-7 0 -11 5.5t-3 13.5l1 9q1 7 7 13t13 6h70l61 230q4 16 18 16h12q8 0 11.5 -6.5t1.5 -15.5l-58 -224h140l59 230q1 6 7.5 11t12.5 5h9q8 0 12 -6.5t2 -15.5l-58 -224h59q16 0 14 -19
l-1 -9q-1 -8 -6.5 -13.5t-12.5 -5.5h-65l-45 -169h60q15 0 13 -19l-1 -9q-1 -8 -6.5 -13.5t-12.5 -5.5h-67l-46 -175q-4 -16 -20 -16h-10q-8 0 -12 6.5t-2 15.5l46 169h-142l-46 -175q-4 -16 -19 -16h-9q-9 0 -12.5 6.5t-1.5 15.5zM167 238h141l43 169h-140z" />
    <glyph glyph-name="dollar" unicode="$" horiz-adv-x="489" 
d="M24 69q-13 14 0 32l31 40q7 9 16.5 10t15.5 -6q4 -4 17.5 -15t40 -26t51.5 -21l33 223q-75 36 -117 84t-34 123q7 81 63 136.5t144 59.5l5 32q1 8 6.5 13.5t12.5 5.5h10q7 0 11.5 -5.5t3.5 -13.5l-4 -33q81 -7 142 -57q6 -4 7 -14t-6 -20l-34 -39q-15 -17 -29 -5
q-30 26 -93 44l-32 -219q155 -84 155 -202q0 -89 -57.5 -146.5t-155.5 -58.5l-15 -104q-3 -18 -21 -18q-10 0 -17 4t-6 14l15 104q-94 8 -159 78zM243 418l28 200q-43 -6 -67.5 -35.5t-24.5 -64.5q0 -60 64 -100zM240 81q40 1 66.5 31t26.5 72q0 58 -64 102z" />
    <glyph glyph-name="percent" unicode="%" horiz-adv-x="610" 
d="M176 440q-44 0 -74.5 34t-30.5 83q0 63 41 108t100 45q44 0 74.5 -34t30.5 -83q0 -64 -41 -108.5t-100 -44.5zM70 27l402 663q7 10 16 10h41q10 0 13.5 -8.5t-2.5 -18.5l-404 -663q-5 -10 -16 -10h-39q-10 0 -13.5 8.5t2.5 18.5zM185 511q23 0 41 21.5t18 51.5
q0 22 -11.5 37.5t-29.5 15.5q-23 0 -41 -21.5t-18 -50.5q0 -23 11.5 -38.5t29.5 -15.5zM300 107q0 63 41 108t100 45q44 0 74.5 -34t30.5 -83q0 -64 -41 -108.5t-100 -44.5q-44 0 -74.5 34t-30.5 83zM373 115q0 -23 11.5 -38.5t29.5 -15.5q23 0 41 21.5t18 51.5
q0 22 -11.5 37.5t-29.5 15.5q-23 0 -41 -21.5t-18 -50.5z" />
    <glyph glyph-name="ampersand" unicode="&#x26;" horiz-adv-x="622" 
d="M58 152q0 33 10 63t23 50.5t34 41.5t34.5 31t33 23t21.5 15v2l-17 25q-53 76 -43 145q8 64 58.5 113t132.5 49q63 0 104 -41.5t41 -99.5q0 -26 -10 -52t-21.5 -44t-34 -39.5t-33.5 -30.5t-34 -26t-24 -17l100 -139q42 62 59 149q5 29 30 24l45 -9q16 -3 10 -31
q-13 -53 -39 -108t-50 -89l74 -96q18 -24 -5 -39l-33 -22q-22 -16 -36 4l-57 80q-80 -94 -209 -94q-74 0 -119 47t-45 115zM289 421l14 10q14 10 20 15t20.5 16.5t22.5 21t17 22t13.5 26t4.5 26.5q0 30 -19 52.5t-51 22.5q-34 0 -58 -24.5t-29 -61.5q-8 -53 29 -104z
M155 167q0 -41 23.5 -66.5t60.5 -25.5q86 0 140 73l-120 172q-1 -1 -16.5 -12t-23 -17.5t-22 -21.5t-22 -28t-14 -33t-6.5 -41z" />
    <glyph glyph-name="quotesingle" unicode="'" horiz-adv-x="163" 
d="M89 501q-7 0 -11 5.5t-3 13.5l23 161q1 7 6.5 13t12.5 6h61q9 0 12.5 -7t-0.5 -18l-55 -159q-6 -15 -18 -15h-28z" />
    <glyph glyph-name="parenleft" unicode="(" horiz-adv-x="324" 
d="M52 207q0 111 17.5 198.5t45 142.5t66 92t76.5 52.5t80 17.5q8 1 12 -2.5t3 -10.5l-4 -47q-1 -16 -13 -18q-186 -43 -186 -426q0 -179 97 -209q11 -4 8 -18l-9 -44q-3 -15 -19 -13q-67 3 -120.5 75.5t-53.5 209.5z" />
    <glyph glyph-name="parenright" unicode=")" horiz-adv-x="325" 
d="M0 -1q187 46 187 421q0 186 -98 213q-11 2 -8 18l10 46q3 14 18 13q70 -5 122 -73.5t52 -213.5q0 -111 -17 -199t-44 -143.5t-65 -92t-77 -51.5t-82 -15q-15 0 -14 16l3 44q2 14 13 17z" />
    <glyph glyph-name="asterisk" unicode="*" horiz-adv-x="322" 
d="M165 392q-18 0 -14 19l13 85l-71 -49q-6 -4 -12.5 -2.5t-9.5 7.5l-12 20q-10 17 4 25l85 49l-66 49q-5 4 -5.5 12.5t4.5 13.5l17 19q12 14 23 5l58 -49l10 85q2 19 19 19h24q7 0 11 -6t3 -13l-14 -85l72 51q5 4 12 2t10 -8l10 -19q9 -15 -6 -25l-82 -51l66 -50
q6 -4 6.5 -12.5t-4.5 -13.5l-17 -19q-14 -16 -24 -6l-57 50l-10 -84q-1 -7 -7 -13t-13 -6h-23z" />
    <glyph glyph-name="plus" unicode="+" horiz-adv-x="553" 
d="M217 153l21 153h-133q-7 0 -11 6t-3 13l5 42q2 19 20 19h134l21 155q1 7 7 12.5t13 5.5h50q7 0 11.5 -5.5t3.5 -12.5l-22 -155h134q7 0 11 -5.5t3 -13.5l-6 -42q-1 -8 -6.5 -13.5t-12.5 -5.5h-134l-22 -153q-1 -7 -6.5 -12.5t-12.5 -5.5h-51q-16 0 -14 18z" />
    <glyph glyph-name="comma" unicode="," horiz-adv-x="240" 
d="M15 51q0 31 24.5 54.5t57.5 23.5q27 0 47.5 -21t20.5 -66q0 -76 -40 -134t-85 -90q-13 -12 -22 0l-11 15q-9 11 5 23q79 66 89 138l-4 -1q-4 -1 -10.5 -2t-13.5 -1q-25 0 -41.5 17.5t-16.5 43.5z" />
    <glyph glyph-name="hyphen" unicode="-" horiz-adv-x="367" 
d="M74 206q-17 0 -15 18l6 43q3 19 20 19h197q18 0 15 -19l-6 -43q-2 -18 -20 -18h-197z" />
    <glyph glyph-name="period" unicode="." horiz-adv-x="226" 
d="M16 51q0 32 23.5 55t53.5 23q25 0 42 -17.5t17 -43.5q0 -32 -23.5 -55t-55.5 -23q-25 0 -41 17.5t-16 43.5z" />
    <glyph glyph-name="slash" unicode="/" horiz-adv-x="322" 
d="M13 0q-9 0 -13 7t0 18l270 662q6 13 18 13h52q9 0 13 -7t0 -18l-269 -662q-6 -13 -18 -13h-53z" />
    <glyph glyph-name="zero" unicode="0" horiz-adv-x="591" 
d="M255 -10q-87 0 -135 74t-48 191q0 199 74.5 317.5t207.5 118.5q86 0 134 -73t48 -191q0 -199 -75 -318t-206 -119zM268 82q75 0 120 95t45 246q0 82 -24 129t-68 47q-77 0 -122 -94.5t-45 -246.5q0 -82 24.5 -129t69.5 -47z" />
    <glyph glyph-name="one" unicode="1" horiz-adv-x="330" 
d="M100 19l72 507l-81 -37q-16 -7 -18 7l-3 40q-2 14 6 20l146 124h53q7 0 11 -5.5t3 -13.5l-91 -642q-1 -8 -6.5 -13.5t-12.5 -5.5h-64q-7 0 -11.5 5.5t-3.5 13.5z" />
    <glyph glyph-name="two" unicode="2" horiz-adv-x="483" 
d="M17 0q-16 0 -14 19l3 26l275 302q80 87 80 158q0 38 -22 65.5t-67 27.5q-31 0 -63.5 -22.5t-53.5 -46.5q-12 -15 -27 0l-32 36q-13 14 -1 28q5 6 11 12.5t26 23.5t40 29t50.5 22t61.5 10q81 0 128 -49t47 -120q0 -64 -24.5 -113t-78.5 -109l-190 -213h214q7 0 11 -5.5
t3 -13.5l-6 -48q-1 -7 -7 -13t-13 -6h-351z" />
    <glyph glyph-name="three" unicode="3" horiz-adv-x="493" 
d="M15 79q-8 13 5 24l41 33q13 12 25 -3q13 -18 43.5 -37t69.5 -19q48 0 83.5 33t35.5 87q0 43 -31 73t-88 30h-50q-17 0 -14 21l6 43q3 21 20 21h51q64 0 100.5 36t36.5 89q0 41 -23 64.5t-59 23.5q-48 0 -107 -56q-14 -14 -25 -1l-32 38q-11 13 1 29q10 12 29.5 28t62 35
t85.5 19q73 0 122 -44.5t49 -115.5q0 -63 -36.5 -111t-80.5 -69v-3q32 -16 59.5 -56t27.5 -91q0 -89 -62.5 -149.5t-163.5 -60.5q-68 0 -115.5 29.5t-65.5 59.5z" />
    <glyph glyph-name="four" unicode="4" horiz-adv-x="545" 
d="M17 149q-7 0 -11.5 5.5t-2.5 13.5l8 60l394 457q6 6 14 6h40q7 0 11 -5.5t3 -13.5l-62 -442h73q7 0 11.5 -5t2.5 -13l-6 -42q-1 -8 -6.5 -13.5t-12.5 -5.5h-73l-17 -132q-4 -19 -20 -19h-63q-7 0 -11 6t-3 13l18 130h-287zM119 232h200l40 277h-2z" />
    <glyph glyph-name="five" unicode="5" horiz-adv-x="496" 
d="M29 79q-8 13 5 24l41 33q13 12 25 -3q12 -17 43.5 -35.5t70.5 -18.5q60 0 98 48t38 112q0 46 -26.5 76.5t-75.5 30.5h-134q-15 0 -22 10.5t-5 24.5l40 280q1 8 6.5 13.5t12.5 5.5h281q7 0 11.5 -5.5t3.5 -13.5l-7 -49q-1 -8 -7 -13.5t-13 -5.5h-208l-22 -159h85
q82 0 131 -52t49 -139q0 -106 -67.5 -179.5t-172.5 -73.5q-39 0 -72.5 10t-55 25.5t-33.5 28t-20 25.5z" />
    <glyph glyph-name="six" unicode="6" horiz-adv-x="508" 
d="M46 215q0 89 28.5 167.5t69.5 130.5t94 93.5t95.5 62.5t79.5 33q17 6 22 -12l12 -44q5 -19 -19 -28q-33 -14 -74 -36.5t-96 -71t-77 -100.5q48 26 110 26q74 0 123.5 -49.5t49.5 -137.5q0 -110 -65.5 -184.5t-164.5 -74.5q-85 0 -136.5 65t-51.5 160zM239 76
q57 0 94.5 46t37.5 110q0 53 -26.5 87t-72.5 34q-47 0 -81.5 -24.5t-46.5 -46.5q-17 -73 9 -139.5t86 -66.5z" />
    <glyph glyph-name="seven" unicode="7" horiz-adv-x="446" 
d="M24 15l2 16l327 561h-263q-7 0 -11 5.5t-3 13.5l7 50q1 7 7 13t13 6h370q7 0 11.5 -5.5t3.5 -13.5l-2 -16l-360 -627q-10 -18 -26 -18h-60q-7 0 -12 4.5t-4 10.5z" />
    <glyph glyph-name="eight" unicode="8" horiz-adv-x="534" 
d="M40 157q0 48 28 92.5t55.5 66t51.5 34.5v3q-28 18 -50.5 53.5t-22.5 81.5q0 89 62.5 145.5t156.5 56.5q74 0 123.5 -44.5t49.5 -114.5q0 -62 -36 -109t-80 -70l-1 -4q32 -17 59.5 -57t27.5 -90q0 -90 -64 -150.5t-174 -60.5q-80 0 -133 48t-53 119zM282 396
q51 11 81 44.5t30 77.5q0 39 -23 63t-60 24q-42 0 -75.5 -32.5t-33.5 -78.5q0 -82 81 -98zM145 165q0 -41 26.5 -67t64.5 -26q50 0 87 33.5t37 87.5q0 37 -24.5 68t-66.5 39q-55 -9 -89.5 -48.5t-34.5 -86.5z" />
    <glyph glyph-name="nine" unicode="9" horiz-adv-x="507" 
d="M79 40q-5 19 19 28q33 14 74 36.5t96 71t77 100.5q-48 -26 -110 -26q-74 0 -123.5 49.5t-49.5 137.5q0 110 65.5 184.5t164.5 74.5q85 0 136.5 -65t51.5 -160q0 -89 -28.5 -167.5t-69.5 -130.5t-94 -93.5t-95.5 -62.5t-79.5 -33q-17 -6 -22 12zM254 333q47 0 81.5 24.5
t46.5 46.5q17 73 -9 139.5t-86 66.5q-57 0 -94.5 -46t-37.5 -110q0 -53 26.5 -87t72.5 -34z" />
    <glyph glyph-name="colon" unicode=":" horiz-adv-x="242" 
d="M122 281q-23 0 -38 16.5t-15 39.5q0 30 21.5 51.5t49.5 21.5q23 0 37.5 -16t14.5 -40q0 -30 -21 -51.5t-49 -21.5zM28 46q0 30 21.5 51.5t49.5 21.5q23 0 37.5 -16t14.5 -40q0 -30 -21 -51.5t-49 -21.5q-23 0 -38 16.5t-15 39.5z" />
    <glyph glyph-name="semicolon" unicode=";" horiz-adv-x="246" 
d="M120 281q-23 0 -38 16.5t-15 39.5q0 30 21.5 51.5t49.5 21.5q23 0 37.5 -16t14.5 -40q0 -30 -21 -51.5t-49 -21.5zM28 44q0 28 21 49t49 21q24 0 41.5 -18.5t17.5 -58.5q0 -105 -107 -205q-13 -12 -22 -1l-11 15q-9 11 5 23l6 5q5 5 9 8.5t11.5 11t13 14.5t12 17t11.5 20
t9 22.5t6 25.5q-3 -3 -22 -3q-21 0 -35.5 16t-14.5 38z" />
    <glyph glyph-name="less" unicode="&#x3c;" horiz-adv-x="400" 
d="M21 210q-8 5 -7 17l1 6q1 10 11 16l342 213q8 5 15 0.5t6 -14.5l-8 -59q-2 -12 -11 -18l-228 -144v-1l188 -138q9 -7 7 -19l-8 -51q-1 -12 -9.5 -16t-15.5 2z" />
    <glyph glyph-name="equal" unicode="=" horiz-adv-x="470" 
d="M101 343q-7 0 -12 5.5t-3 13.5l7 44q4 19 19 19h286q7 0 12 -5.5t3 -13.5l-7 -44q-4 -19 -19 -19h-286zM71 133q-7 0 -12 5.5t-3 13.5l7 44q4 19 19 19h286q7 0 12 -5.5t3 -13.5l-7 -44q-4 -19 -19 -19h-286z" />
    <glyph glyph-name="greater" unicode="&#x3e;" horiz-adv-x="400" 
d="M-1 17l6 62q1 11 11 17l225 139v2l-185 142q-7 6 -6 15l8 54q1 12 9 16t16 -2l282 -213q9 -7 7 -16l-2 -9q-1 -8 -10 -14l-341 -205q-9 -5 -15 -1.5t-5 13.5z" />
    <glyph glyph-name="question" unicode="?" horiz-adv-x="430" 
d="M166 272q-16 0 -14 19l5 42q6 44 32 73.5t73 61.5q33 23 48.5 42.5t15.5 48.5q0 27 -18.5 44.5t-44.5 17.5q-60 0 -119 -68q-10 -13 -24 0l-34 32q-14 13 -1 28q81 97 190 97q63 0 105.5 -42t42.5 -101q0 -32 -9 -58t-28 -47t-34 -33t-40 -29q-55 -37 -60 -71l-5 -37
q-3 -20 -21 -20h-60zM98 51q0 32 23.5 55t53.5 23q26 0 42.5 -17.5t16.5 -43.5q0 -32 -23.5 -55t-54.5 -23q-25 0 -41.5 17.5t-16.5 43.5z" />
    <glyph glyph-name="at" unicode="@" horiz-adv-x="906" 
d="M28 158q0 156 59.5 281.5t171.5 198t257 72.5q154 0 250 -101t96 -253q0 -63 -13.5 -124t-41 -117t-76.5 -90.5t-113 -34.5q-80 0 -95 78h-5q-20 -33 -56.5 -55.5t-76.5 -22.5q-61 0 -98 49.5t-37 124.5q0 107 58.5 176.5t138.5 69.5q62 0 99 -55l14 29q7 16 22 16h23
q7 0 11.5 -5.5t3.5 -13.5l-28 -198q-9 -65 2.5 -89.5t39.5 -24.5q57 0 98 80t41 196q0 126 -67 205.5t-194 79.5q-175 0 -286 -129t-111 -335q0 -106 47.5 -189.5t128.5 -124.5q14 -8 6 -25l-25 -45q-8 -15 -21 -9q-101 46 -162 150t-61 235zM344 168q2 -92 61 -92
q36 0 63 35t37 84l10 83q-3 5 -8.5 12.5t-24.5 20t-40 12.5q-44 0 -71 -45t-27 -110z" />
    <glyph glyph-name="A" unicode="A" horiz-adv-x="603" 
d="M-17 0q-10 0 -13.5 8t1.5 18l372 673q5 11 17 11h9q10 0 14 -11l181 -673q2 -10 -3.5 -18t-15.5 -8h-60q-18 0 -21 15l-36 139h-275l-77 -139q-9 -15 -25 -15h-68zM195 238h210l-65 275h-4z" />
    <glyph glyph-name="B" unicode="B" horiz-adv-x="577" 
d="M58 19l93 662q4 19 20 19h204q71 0 117 -46t46 -115q0 -63 -36 -111t-83 -74q37 -18 65 -53t28 -87q0 -92 -63.5 -153t-161.5 -61h-214q-7 0 -11.5 5.5t-3.5 13.5zM214 396h90q50 0 87.5 38.5t37.5 86.5q0 38 -20.5 61.5t-54.5 23.5h-111zM170 92h121q45 0 78 35t33 85
q0 40 -26 67t-63 27h-112z" />
    <glyph glyph-name="C" unicode="C" horiz-adv-x="640" 
d="M57 310q0 168 111 284t268 116q121 0 205 -93q12 -13 -3 -28l-41 -37q-15 -15 -31 1q-24 25 -60.5 41.5t-75.5 16.5q-102 0 -181 -91.5t-79 -209.5q0 -92 48.5 -153t129.5 -61q74 0 156 65q16 14 28 -1l40 -46q4 -5 2.5 -13.5t-6.5 -13.5q-104 -97 -226 -97
q-127 0 -206 91t-79 229z" />
    <glyph glyph-name="D" unicode="D" horiz-adv-x="687" 
d="M58 19l93 662q1 7 6.5 13t12.5 6h209q116 0 193.5 -90t77.5 -215q0 -164 -107 -279.5t-262 -115.5h-210q-7 0 -11 5.5t-2 13.5zM170 95h112q106 0 181.5 85.5t75.5 210.5q0 93 -51 153.5t-134 60.5h-112z" />
    <glyph glyph-name="E" unicode="E" horiz-adv-x="546" 
d="M58 19l93 662q1 7 6.5 13t12.5 6h363q16 0 14 -19l-8 -56q-1 -8 -6.5 -13.5t-12.5 -5.5h-277l-29 -204h233q7 0 11 -5.5t3 -13.5l-8 -56q-3 -19 -19 -19h-233l-30 -215h277q7 0 11 -5.5t3 -13.5l-8 -55q-1 -8 -7 -13.5t-13 -5.5h-362q-7 0 -11.5 5.5t-2.5 13.5z" />
    <glyph glyph-name="F" unicode="F" horiz-adv-x="525" 
d="M58 19l93 662q1 7 6.5 13t12.5 6h363q16 0 14 -19l-8 -56q-1 -8 -6.5 -13.5t-12.5 -5.5h-277l-32 -231h232q7 0 11 -5.5t3 -13.5l-7 -55q-1 -7 -7 -13t-13 -6h-233l-37 -263q-1 -8 -6.5 -13.5t-12.5 -5.5h-69q-7 0 -11.5 5.5t-2.5 13.5z" />
    <glyph glyph-name="G" unicode="G" horiz-adv-x="666" 
d="M57 301q0 175 110 292t269 117q121 0 205 -93q12 -13 -3 -28l-40 -38q-15 -15 -31 1q-24 25 -61 42t-76 17q-102 0 -180.5 -89t-78.5 -207q0 -93 49.5 -157.5t129.5 -64.5q70 0 131 33l16 112h-82q-7 0 -11.5 5t-2.5 13l8 58q2 19 20 19h167q14 0 14 -17l-33 -244
q-2 -10 -10 -16q-11 -7 -31.5 -18t-81 -29.5t-118.5 -18.5q-121 0 -200 90t-79 221z" />
    <glyph glyph-name="H" unicode="H" horiz-adv-x="711" 
d="M58 19l93 662q4 19 20 19h70q7 0 11.5 -5.5t3.5 -13.5l-40 -279h314l39 279q4 19 20 19h70q7 0 11 -6t3 -13l-93 -662q-1 -7 -6.5 -13t-12.5 -6h-70q-7 0 -11.5 5.5t-3.5 13.5l41 289h-314l-41 -289q-1 -8 -6.5 -13.5t-12.5 -5.5h-70q-7 0 -11.5 5.5t-3.5 13.5z" />
    <glyph glyph-name="I" unicode="I" horiz-adv-x="292" 
d="M58 19l93 662q1 7 6.5 13t12.5 6h70q7 0 11 -6t3 -13l-93 -662q-1 -8 -6.5 -13.5t-12.5 -5.5h-70q-7 0 -11 6t-3 13z" />
    <glyph glyph-name="J" unicode="J" horiz-adv-x="393" 
d="M-38 63q-6 13 6 25l32 31q15 15 28 -2q28 -35 73 -35q34 0 63.5 32.5t37.5 93.5l66 473q1 8 7 13.5t13 5.5h70q7 0 11.5 -5.5t2.5 -13.5l-66 -472q-30 -219 -209 -219q-51 0 -87 24.5t-48 48.5z" />
    <glyph glyph-name="K" unicode="K" horiz-adv-x="595" 
d="M59 24l92 652q4 24 25 24h63q9 0 14.5 -7t4.5 -17l-39 -277l273 288q11 13 27 13h80q12 0 15 -12t-7 -23l-295 -304l220 -328q7 -10 1.5 -21.5t-19.5 -11.5h-72q-16 0 -25 13l-207 322l-44 -311q-2 -10 -9 -17t-16 -7h-63q-9 0 -14.5 7t-4.5 17z" />
    <glyph glyph-name="L" unicode="L" horiz-adv-x="458" 
d="M58 19l93 662q1 8 7 13.5t13 5.5h70q7 0 11.5 -5.5t3.5 -13.5l-83 -588h237q7 0 11.5 -5.5t3.5 -13.5l-8 -55q-1 -8 -7 -13.5t-13 -5.5h-324q-7 0 -11.5 5.5t-3.5 13.5z" />
    <glyph glyph-name="M" unicode="M" horiz-adv-x="799" 
d="M14 23l204 672q4 15 18 15h14q12 0 14 -11l120 -501h3l265 501q6 11 17 11h14q5 0 9.5 -4.5t4.5 -10.5l14 -672q0 -23 -19 -23h-68q-16 0 -16 20l6 427h-1h-2l-228 -446q-5 -11 -17 -11h-16q-12 0 -14 11l-97 446h-4l-120 -431q-4 -16 -19 -16h-68q-21 0 -14 23z" />
    <glyph glyph-name="N" unicode="N" horiz-adv-x="717" 
d="M58 19l95 673q1 7 7 12.5t13 5.5h25l313 -499h1h1l63 470q1 8 6.5 13.5t12.5 5.5h69q7 0 11.5 -5.5t3.5 -13.5l-95 -673q-1 -7 -7 -12.5t-13 -5.5h-28l-313 507h-1l-62 -478q-1 -8 -7 -13.5t-13 -5.5h-67q-7 0 -11.5 5.5t-3.5 13.5z" />
    <glyph glyph-name="O" unicode="O" horiz-adv-x="747" 
d="M56 300q0 173 109.5 291.5t267.5 118.5q119 0 198.5 -92t79.5 -221q0 -172 -110 -289.5t-267 -117.5q-120 0 -199 91.5t-79 218.5zM161 313q0 -93 52.5 -158t133.5 -65q102 0 180.5 87.5t78.5 206.5q0 94 -52.5 160t-133.5 66q-101 0 -180 -89t-79 -208z" />
    <glyph glyph-name="P" unicode="P" horiz-adv-x="551" 
d="M58 19l93 662q1 8 7 13.5t13 5.5h208q74 0 123.5 -57.5t49.5 -135.5q0 -103 -69.5 -178t-165.5 -75h-122l-33 -235q-1 -8 -7.5 -13.5t-14.5 -5.5h-67q-7 0 -11.5 5.5t-3.5 13.5zM208 352h115q49 0 86 43t37 102q0 44 -24.5 73.5t-63.5 29.5h-115z" />
    <glyph glyph-name="Q" unicode="Q" horiz-adv-x="747" 
d="M56 300q0 172 111.5 291t266.5 119q119 0 198 -92.5t79 -220.5q0 -125 -63.5 -228t-165.5 -148l84 -191q4 -10 -1.5 -19t-16.5 -9h-74q-15 0 -21 15l-69 177q-21 -4 -51 -4q-119 0 -198 92t-79 218zM161 313q0 -93 52.5 -158t133.5 -65q102 0 180.5 87.5t78.5 206.5
q0 94 -52.5 160t-133.5 66q-101 0 -180 -89t-79 -208z" />
    <glyph glyph-name="R" unicode="R" horiz-adv-x="618" 
d="M58 19l93 662q1 7 6.5 13t12.5 6h250q72 0 120.5 -55.5t48.5 -130.5q0 -81 -46 -145.5t-120 -85.5l89 -255q4 -10 -0.5 -19t-15.5 -9h-75q-14 0 -19 14l-74 259h-132l-36 -254q-1 -8 -6.5 -13.5t-12.5 -5.5h-69q-7 0 -11.5 5.5t-2.5 13.5zM210 361h153q46 0 83 41.5
t37 97.5q0 42 -25 72.5t-61 30.5h-153z" />
    <glyph glyph-name="S" unicode="S" horiz-adv-x="503" 
d="M32 69q-14 16 -1 32l31 38q16 19 34 3q65 -61 126 -61q47 0 80 31t33 75q0 37 -26 64.5t-83 61.5q-64 39 -101 85t-37 111q0 78 59.5 139.5t166.5 61.5q92 0 162 -58q16 -14 1 -34l-27 -36q-7 -9 -17 -11t-18 5q-15 13 -47 27t-65 14q-48 0 -80 -32.5t-32 -69.5
q0 -34 23 -60t73 -54q75 -43 118 -89.5t43 -116.5q0 -91 -63.5 -148t-167.5 -57q-48 0 -92 18t-62 32.5t-31 28.5z" />
    <glyph glyph-name="T" unicode="T" horiz-adv-x="447" 
d="M133 19l83 587h-143q-16 0 -14 19l8 56q1 7 6.5 13t12.5 6h390q16 0 14 -19l-8 -56q-1 -8 -6.5 -13.5t-12.5 -5.5h-143l-82 -587q-1 -7 -7 -13t-13 -6h-70q-7 0 -11.5 5.5t-3.5 13.5z" />
    <glyph glyph-name="U" unicode="U" horiz-adv-x="668" 
d="M84 261l59 420q4 19 20 19h72q7 0 11.5 -5.5t2.5 -13.5l-58 -413q-11 -76 21 -126.5t95 -50.5q64 0 110 49.5t57 125.5l59 415q1 7 6.5 13t12.5 6h72q7 0 11 -6t3 -13l-59 -420q-16 -117 -94 -194t-192 -77q-100 0 -162.5 79t-46.5 192z" />
    <glyph glyph-name="V" unicode="V" horiz-adv-x="604" 
d="M241 1l-182 675q-2 10 2 17t14 7h76q12 0 14 -11l117 -476h6l257 476q7 11 17 11h79q10 0 13 -8t-2 -18l-372 -673q-6 -11 -17 -11h-9q-9 0 -13 11z" />
    <glyph glyph-name="W" unicode="W" horiz-adv-x="822" 
d="M166 4l-75 672q-1 10 4.5 17t14.5 7h68q13 0 15 -14l39 -439h4l211 452q5 11 17 11h16q12 0 14 -11l80 -452h4l163 439q6 14 18 14h72q10 0 13.5 -7t-0.5 -17l-265 -672q-5 -14 -18 -14h-14q-12 0 -15 13l-89 468h-4l-227 -470q-5 -11 -17 -11h-14q-13 0 -15 14z" />
    <glyph glyph-name="X" unicode="X" horiz-adv-x="571" 
d="M12 0q-12 0 -15.5 8t3.5 18l236 335l-137 315q-4 10 1 17t16 7h79q11 0 15 -12l94 -237h1l166 240q7 9 16 9h86q11 0 14 -7.5t-4 -17.5l-225 -318l142 -331q4 -10 -1.5 -18t-16.5 -8h-73q-11 0 -14 9l-107 258h-2l-176 -258q-5 -9 -17 -9h-81z" />
    <glyph glyph-name="Y" unicode="Y" horiz-adv-x="524" 
d="M171 19l45 318l-162 337q-4 10 1.5 18t15.5 8h71q12 0 17 -11l117 -254h2l192 254q9 11 20 11h79q11 0 13.5 -8t-4.5 -18l-258 -336l-45 -319q-1 -7 -7 -13t-13 -6h-69q-7 0 -11.5 5.5t-3.5 13.5z" />
    <glyph glyph-name="Z" unicode="Z" horiz-adv-x="497" 
d="M9 0q-7 0 -11 5.5t-3 13.5l2 18l365 564v3h-242q-7 0 -11 5.5t-3 13.5l8 58q1 7 7 13t13 6h372q7 0 11 -6t3 -13l-2 -13l-362 -570v-3h247q16 0 14 -19l-8 -57q-1 -8 -7 -13.5t-13 -5.5h-380z" />
    <glyph glyph-name="bracketleft" unicode="[" horiz-adv-x="319" 
d="M92 -219h119q7 0 11.5 -5.5t3.5 -12.5l-6 -44q-1 -7 -7 -13t-13 -6h-193q-7 0 -11.5 5.5t-3.5 13.5l136 962q1 7 6.5 13t12.5 6h194q7 0 11 -5.5t3 -13.5l-6 -44q-1 -8 -7 -13.5t-13 -5.5h-119z" />
    <glyph glyph-name="backslash" unicode="\" horiz-adv-x="320" 
d="M160 13l-82 662q-1 10 4.5 17.5t14.5 7.5h54q13 0 15 -13l83 -662q1 -10 -5 -17.5t-15 -7.5h-55q-12 0 -14 13z" />
    <glyph glyph-name="bracketright" unicode="]" horiz-adv-x="320" 
d="M-31 -219h118l118 837h-118q-7 0 -11 5.5t-3 13.5l6 44q1 7 6.5 13t12.5 6h194q7 0 11 -5.5t3 -13.5l-135 -962q-4 -19 -20 -19h-193q-7 0 -11.5 6t-3.5 13l7 44q4 18 19 18z" />
    <glyph glyph-name="asciicircum" unicode="^" horiz-adv-x="472" 
d="M63 391q-11 0 -14.5 8t4.5 17l227 288q8 10 17 10h5q10 0 14 -10l141 -288q5 -10 -0.5 -17.5t-16.5 -7.5h-50q-10 0 -14 10l-89 187h-4l-143 -187q-8 -10 -17 -10h-60z" />
    <glyph glyph-name="underscore" unicode="_" horiz-adv-x="371" 
d="M-2 -10h295q7 0 11 -5.5t3 -13.5l-4 -28q-2 -18 -20 -18h-294q-17 0 -15 18l4 28q3 19 20 19z" />
    <glyph glyph-name="grave" unicode="`" horiz-adv-x="272" 
d="M229 546l-140 70q-17 8 -6 26l26 41q9 13 24 3l131 -91q11 -6 3 -19l-15 -26q-7 -12 -23 -4z" />
    <glyph glyph-name="a" unicode="a" 
d="M407 381l-47 -362q-1 -7 -7 -13t-13 -6h-33q-12 0 -13 14l-3 30q-54 -54 -123 -54q-62 0 -103 53t-41 130q0 95 59.5 166t141.5 71q27 0 52 -11t36 -20.5t18 -17.5l13 25q7 14 19 14h30q7 0 11 -5.5t3 -13.5zM284 138l17 140q-3 5 -9 12.5t-27 20t-44 12.5
q-47 0 -74.5 -42.5t-27.5 -106.5q0 -43 20 -70.5t55 -27.5q22 0 44 14.5t32 27t14 20.5z" />
    <glyph glyph-name="b" unicode="b" horiz-adv-x="460" 
d="M28 19l93 662q1 7 6.5 13t12.5 6h63q7 0 11 -6t3 -13l-41 -293q44 22 85 22q65 0 109 -52.5t44 -127.5q0 -98 -59 -169t-144 -71q-32 0 -59 14t-38 28l-11 14l-12 -29q-7 -17 -19 -17h-30q-7 0 -11 6t-3 13zM140 144q1 -17 19.5 -42.5t51.5 -25.5q45 0 77 43.5t32 101.5
q0 43 -22 72.5t-58 29.5q-20 0 -39.5 -6t-28.5 -12l-10 -6z" />
    <glyph glyph-name="c" unicode="c" horiz-adv-x="403" 
d="M24 171q0 99 66.5 169t155.5 70q40 0 72 -19.5t50 -51.5q9 -16 -7 -28l-36 -25q-14 -9 -23 4q-26 33 -63 33q-46 0 -82.5 -44t-36.5 -102q0 -45 20.5 -73t55.5 -28q19 0 37 10t25 17.5t20 24.5q11 12 23 2l36 -28q15 -12 2 -28q-62 -84 -152 -84q-68 0 -115.5 52
t-47.5 129z" />
    <glyph glyph-name="d" unicode="d" horiz-adv-x="460" 
d="M168 -10q-62 0 -103 52t-41 126q0 102 62.5 172t150.5 70q41 0 79 -23l41 294q3 19 24 19h57q7 0 11.5 -5.5t3.5 -13.5l-93 -662q-4 -19 -20 -19h-30q-10 0 -13 14l-6 30q-54 -54 -123 -54zM194 76q22 0 44 14.5t32 27t14 20.5l21 162q-25 23 -71 23q-47 0 -81 -42.5
t-34 -101.5q0 -44 20 -73.5t55 -29.5z" />
    <glyph glyph-name="e" unicode="e" horiz-adv-x="412" 
d="M24 169q0 98 62.5 169.5t160.5 71.5q58 0 96 -30t38 -84q0 -40 -26.5 -68t-66.5 -38.5t-86.5 -15t-85.5 2.5q-4 -43 17 -73t61 -30t81 28q17 11 24 1l27 -37q11 -14 -5 -26q-62 -50 -141 -50q-71 0 -113.5 51.5t-42.5 127.5zM131 244q160 -14 160 47q0 19 -16 30.5
t-38 11.5q-40 0 -68.5 -25t-37.5 -64z" />
    <glyph glyph-name="f" unicode="f" horiz-adv-x="320" 
d="M16 -281l83 598h-47q-7 0 -11.5 5.5t-3.5 13.5l7 45q1 8 6.5 13.5t12.5 5.5h47l18 124q13 91 62.5 138.5t122.5 47.5q64 0 99 -40q9 -11 0 -23l-27 -42q-9 -14 -22 -5q-27 20 -57 20q-66 0 -80 -96l-18 -124h95q7 0 11 -5.5t3 -13.5l-6 -45q-4 -19 -20 -19h-94l-83 -598
q-1 -7 -7 -13t-13 -6h-64q-7 0 -11 5.5t-3 13.5z" />
    <glyph glyph-name="g" unicode="g" horiz-adv-x="460" 
d="M172 -10q-64 0 -106.5 54.5t-42.5 129.5q0 94 60 165t144 71q27 0 52 -11t36 -20.5t18 -17.5l13 25q7 14 19 14h30q7 0 11 -5.5t3 -13.5l-57 -419q-30 -222 -195 -222q-34 0 -62.5 10.5t-45.5 26t-25 25t-12 16.5q-12 20 3 33l32 29q13 11 25 -2q1 -1 5.5 -6t7.5 -8.5
t9 -9.5t12.5 -10t14 -8t16 -6t17.5 -2q43 0 65.5 29t34.5 105l7 49q-10 -6 -35.5 -13.5t-53.5 -7.5zM195 76q21 0 41 7t30 14l9 7l24 167q-3 13 -22.5 32.5t-50.5 19.5q-47 0 -79 -42.5t-32 -100.5q0 -44 22.5 -74t57.5 -30z" />
    <glyph glyph-name="h" unicode="h" horiz-adv-x="477" 
d="M28 19l93 662q1 7 6.5 13t12.5 6h63q7 0 11 -6t3 -13l-44 -314q55 43 109 43q75 0 107.5 -52.5t20.5 -137.5l-28 -201q-1 -7 -7 -13t-13 -6h-60q-16 0 -14 19l28 201q7 49 -8.5 75.5t-49.5 26.5q-32 0 -60 -22t-40 -42l-34 -239q-3 -19 -21 -19h-61q-7 0 -11 5.5t-3 13.5
z" />
    <glyph glyph-name="i" unicode="i" horiz-adv-x="224" 
d="M150 563q-21 0 -34 15t-13 36q0 27 19 46.5t45 19.5q22 0 36 -15t14 -37q0 -27 -20 -46t-47 -19zM28 19l50 362q1 7 7 13t13 6h62q7 0 11 -5.5t3 -13.5l-51 -362q-1 -7 -7 -13t-13 -6h-61q-7 0 -11 5.5t-3 13.5z" />
    <glyph glyph-name="j" unicode="j" horiz-adv-x="225" 
d="M152 563q-21 0 -34.5 14.5t-13.5 36.5q0 27 19 46.5t45 19.5q22 0 36 -15t14 -37q0 -27 -19.5 -46t-46.5 -19zM8 -124l71 505q1 8 7 13.5t13 5.5h62q7 0 11.5 -5.5t3.5 -13.5l-71 -505q-12 -91 -60.5 -138.5t-121.5 -47.5q-65 0 -103 40q-10 10 0 23l25 37q11 16 25 5
q22 -18 56 -18q67 0 82 99z" />
    <glyph glyph-name="k" unicode="k" horiz-adv-x="440" 
d="M28 19l93 662q1 7 6.5 13t12.5 6h63q7 0 11 -5.5t3 -13.5l-60 -433l145 140q14 12 26 12h79q11 0 12.5 -10t-5.5 -17l-169 -158l145 -189q6 -7 1.5 -16.5t-15.5 -9.5h-77q-9 0 -15 8l-135 186l-25 -175q-1 -8 -6.5 -13.5t-12.5 -5.5h-63q-7 0 -11 5.5t-3 13.5z" />
    <glyph glyph-name="l" unicode="l" horiz-adv-x="223" 
d="M28 19l93 662q1 7 7 13t13 6h61q7 0 11 -5.5t3 -13.5l-93 -662q-1 -8 -6.5 -13.5t-12.5 -5.5h-62q-7 0 -11 5.5t-3 13.5z" />
    <glyph glyph-name="m" unicode="m" horiz-adv-x="712" 
d="M28 19l50 362q2 19 20 19h29q12 0 14 -12l6 -34q56 56 127 56q74 0 108 -63q74 63 138 63q79 0 107.5 -52.5t17.5 -137.5l-28 -201q-2 -19 -20 -19h-59q-17 0 -15 19l28 204q14 100 -56 100q-53 0 -95 -50q0 -21 -4 -48l-28 -206q-4 -19 -20 -19h-56q-7 0 -11.5 5.5
t-2.5 13.5l28 204q14 100 -57 100q-32 0 -56.5 -20t-35.5 -38l-35 -246q-4 -19 -20 -19h-60q-7 0 -11 6t-3 13z" />
    <glyph glyph-name="n" unicode="n" horiz-adv-x="478" 
d="M28 19l50 362q2 19 20 19h30q11 0 13 -12l7 -34q62 56 134 56q79 0 109 -52.5t19 -137.5l-28 -201q-1 -7 -7 -13t-13 -6h-61q-16 0 -14 19l28 204q7 48 -7.5 74t-48.5 26t-62.5 -20.5t-39.5 -37.5l-35 -246q-3 -19 -25 -19h-55q-7 0 -11 6t-3 13z" />
    <glyph glyph-name="o" unicode="o" horiz-adv-x="441" 
d="M24 173q0 97 62.5 167t152.5 70q66 0 111 -53.5t45 -127.5q0 -98 -62.5 -168.5t-152.5 -70.5q-65 0 -110.5 54t-45.5 129zM192 76q45 0 79 42.5t34 100.5q0 44 -21.5 74t-56.5 30q-45 0 -79 -42t-34 -100q0 -44 22 -74.5t56 -30.5z" />
    <glyph glyph-name="p" unicode="p" 
d="M125 14l-42 -295q-3 -19 -22 -19h-60q-7 0 -11.5 5.5t-3.5 13.5l93 662q2 19 20 19h31q11 0 14 -13l6 -26q13 14 46.5 31.5t72.5 17.5q65 0 105.5 -52t40.5 -128q0 -100 -61 -170t-148 -70q-50 0 -81 24zM135 106q24 -30 71 -30t81 42.5t34 102.5q0 43 -20 72.5t-55 29.5
q-22 0 -44 -12t-31.5 -22t-13.5 -16z" />
    <glyph glyph-name="q" unicode="q" horiz-adv-x="459" 
d="M24 169q0 98 59.5 169.5t144.5 71.5q27 0 52 -11t36 -20.5t18 -17.5l13 25q7 14 19 14h30q7 0 11 -5.5t3 -13.5l-93 -662q-1 -7 -7 -13t-13 -6h-61q-19 0 -16 19l42 295q-36 -24 -89 -24q-61 0 -105 52t-44 127zM196 76q21 0 41 7t29 14l10 7l24 169q-2 7 -9 17
t-24.5 21.5t-39.5 11.5q-47 0 -79 -42.5t-32 -100.5q0 -44 22.5 -74t57.5 -30z" />
    <glyph glyph-name="r" unicode="r" horiz-adv-x="316" 
d="M28 19l50 362q2 19 19 19h30q11 0 14 -14l7 -34l5 5q5 5 8 8.5t10.5 9.5t13.5 10t15 9t18 8.5t20 5.5t22 2q38 0 57 -13q12 -8 2 -23l-28 -49q-9 -13 -23 -9q-20 5 -33 5q-36 0 -77 -48l-36 -254q-2 -19 -30 -19h-50q-7 0 -11 5.5t-3 13.5z" />
    <glyph glyph-name="s" unicode="s" horiz-adv-x="339" 
d="M14 31q-11 9 -2 21l23 38q10 13 22 5q38 -24 78 -24q20 0 34.5 10.5t14.5 29.5q0 16 -12 28.5t-43 30.5q-42 25 -65 52t-23 65q0 49 36.5 86t108.5 37q64 0 105 -31q16 -12 4 -29l-19 -34q-10 -16 -24 -8q-38 19 -73 19q-22 0 -33.5 -9.5t-11.5 -24.5t11 -25.5t36 -25.5
q36 -21 53.5 -33.5t33 -36t15.5 -52.5q0 -56 -40.5 -93t-112.5 -37q-70 0 -116 41z" />
    <glyph glyph-name="t" unicode="t" horiz-adv-x="327" 
d="M65 109l29 208h-44q-7 0 -12 5.5t-3 13.5l7 45q3 19 19 19h45l15 111q1 7 7 13t13 6l61 1q7 0 11 -5.5t3 -13.5l-16 -112h86q18 0 15 -19l-7 -45q-4 -19 -19 -19h-87l-27 -197q-6 -40 23 -40q19 0 52 18q15 8 19 -9l11 -45q4 -14 -12 -24q-11 -7 -46.5 -18.5t-63.5 -11.5
q-96 0 -79 119z" />
    <glyph glyph-name="u" unicode="u" horiz-adv-x="464" 
d="M167 -10q-78 0 -105.5 52t-16.5 137l28 202q4 19 20 19h61q7 0 11.5 -5.5t3.5 -13.5l-29 -204q-7 -48 8.5 -74.5t48.5 -26.5q30 0 58 24.5t33 38.5l33 242q2 19 23 19h55q7 0 11.5 -5.5t3.5 -13.5l-51 -362q-1 -8 -7 -13.5t-13 -5.5h-29q-10 0 -14 16l-6 29
q-55 -55 -127 -55z" />
    <glyph glyph-name="v" unicode="v" horiz-adv-x="383" 
d="M133 0l-109 376q-3 10 2.5 17t15.5 7h54q11 0 15 -11l57 -229h1l127 230q6 10 19 10h58q10 0 13 -7t-3 -17l-215 -376q-8 -10 -17 -10h-4q-12 0 -14 10z" />
    <glyph glyph-name="w" unicode="w" horiz-adv-x="566" 
d="M99 0l-58 377q-1 10 4 16.5t14 6.5h49q12 0 14 -12l30 -211h1l131 223q6 10 16 10h6q12 0 14 -10l61 -224h1l87 212q5 12 22 12h51q20 0 10 -24l-160 -376q-5 -10 -18 -10h-4q-12 0 -14 9l-72 257h-1l-150 -257q-5 -9 -16 -9h-4q-12 0 -14 10z" />
    <glyph glyph-name="x" unicode="x" horiz-adv-x="408" 
d="M5 0q-11 0 -14 8.5t5 18.5l142 178l-91 169q-5 10 0 18t17 8h55q17 0 23 -11l58 -120h1l87 120q8 11 25 11h67q11 0 13.5 -8.5t-5.5 -18.5l-138 -168l92 -179q5 -10 -0.5 -18t-16.5 -8h-54q-14 0 -20 12l-61 129h-1l-99 -133q-6 -8 -15 -8h-70z" />
    <glyph glyph-name="y" unicode="y" horiz-adv-x="425" 
d="M125 21l-102 355q-3 10 2 17t15 7h58q10 0 14 -11l73 -268h1l144 268q6 11 22 11h58q11 0 14.5 -8t-2.5 -18l-367 -662q-6 -12 -17 -12h-63q-11 0 -14 7t3 18z" />
    <glyph glyph-name="z" unicode="z" horiz-adv-x="338" 
d="M11 0q-7 0 -11 5.5t-3 13.5l1 10l184 283v3h-119q-15 0 -13 19l6 47q1 8 6.5 13.5t12.5 5.5h233q11 0 15 -8.5t-3 -18.5l-185 -286v-3h113q16 0 14 -19l-6 -46q-1 -8 -7 -13.5t-13 -5.5h-225z" />
    <glyph glyph-name="braceleft" unicode="{" horiz-adv-x="361" 
d="M50 -54l20 142q4 30 -13.5 49t-38.5 24q-13 3 -11 18l6 40q2 12 14 16q10 3 23.5 10.5t30.5 25t20 37.5l20 144q9 61 30 107.5t47 74t59 45t62 24t60 7.5q17 0 16 -17l-4 -41q-1 -16 -14 -18q-61 -12 -104.5 -59t-54.5 -123l-17 -119q-13 -91 -92 -133l-1 -4
q69 -36 56 -130l-17 -120q-11 -75 19.5 -121.5t88.5 -58.5q13 -2 10 -18l-9 -41q-3 -17 -20 -17q-37 1 -72 16.5t-65 44.5t-44 79.5t-5 115.5z" />
    <glyph glyph-name="bar" unicode="|" horiz-adv-x="183" 
d="M-9 -282l144 1023q1 8 7 13.5t13 5.5h10q16 0 13 -19l-143 -1023q-1 -7 -7 -12.5t-13 -5.5h-9q-7 0 -11.5 5.5t-3.5 12.5z" />
    <glyph glyph-name="braceright" unicode="}" horiz-adv-x="361" 
d="M121 -54l17 120q14 95 91 131l1 5q-34 23 -47 51q-14 34 -8 80l17 119q11 76 -20 123t-89 59q-13 3 -9 18l9 41q4 17 20 17q37 -1 72 -16t65.5 -44t44.5 -80.5t4 -117.5l-21 -144q-4 -28 16.5 -47.5t37.5 -25.5q11 -5 10 -16l-6 -40q-2 -14 -16 -18q-22 -5 -45 -24
t-27 -49l-20 -142q-33 -237 -258 -256q-7 -1 -12 3.5t-4 13.5l3 41q1 16 15 18q61 13 104.5 59t54.5 121z" />
    <glyph glyph-name="asciitilde" unicode="~" horiz-adv-x="508" 
d="M72 211l-32 34q-10 12 1 24q3 4 8 10t21 21.5t32 27.5t39.5 22t44.5 10q46 0 89 -41q36 -34 61 -34q34 0 79 58q13 18 26 3l29 -34q11 -11 -1 -24q-3 -4 -8 -10t-20.5 -21.5t-31.5 -27.5t-38.5 -21.5t-43.5 -9.5q-52 0 -95 41q-33 33 -56 33q-38 0 -79 -58
q-5 -7 -12.5 -8t-12.5 5z" />
    <glyph glyph-name="uni00A0" unicode="&#xa0;" horiz-adv-x="225" 
 />
    <glyph glyph-name="exclamdown" unicode="&#xa1;" horiz-adv-x="227" 
d="M113 271q-25 0 -42 17.5t-17 43.5q0 32 24 55t55 23q24 0 41 -18t17 -43q0 -32 -24 -55t-54 -23zM61 112q4 16 19 16h24q6 0 10.5 -5t4.5 -11l-10 -279l-16 -114q-1 -7 -6.5 -13t-12.5 -6h-84q-7 0 -11.5 5.5t-3.5 13.5l16 112z" />
    <glyph glyph-name="cent" unicode="&#xa2;" horiz-adv-x="381" 
d="M106 6q-42 21 -68 65.5t-26 99.5q0 99 66.5 169t155.5 70q14 0 26 -3l16 42q7 18 23 13l10 -3q15 -4 8 -23l-17 -43q34 -17 56 -54q9 -16 -7 -28l-36 -25q-14 -9 -23 4q-10 13 -21 20l-90 -234h5q19 0 37 10t25 17.5t20 24.5q11 12 23 2l36 -28q15 -12 2 -28
q-62 -84 -152 -84q-15 0 -28 3l-37 -97q-7 -18 -23 -13l-9 3q-15 6 -9 22zM139 92l89 231h-1q-46 0 -82.5 -44t-36.5 -102q0 -59 31 -85z" />
    <glyph glyph-name="sterling" unicode="&#xa3;" horiz-adv-x="460" 
d="M39 19l3 18q74 119 70 255h-40q-18 0 -14 19l2 12q3 17 19 17h29q-9 75 -9 117q0 119 61.5 186t155.5 67q77 0 148 -71q12 -12 -2 -26l-38 -38q-14 -13 -25 -2q-43 47 -90 47q-48 0 -79.5 -40t-31.5 -110q0 -28 6.5 -76t6.5 -54h117q8 0 12 -5.5t3 -12.5l-2 -13
q-3 -17 -20 -17h-108q0 -42 -11.5 -101t-31.5 -104h190q16 0 14 -19l-7 -49q-4 -19 -19 -19h-294q-7 0 -11.5 5.5t-3.5 13.5z" />
    <glyph glyph-name="currency" unicode="&#xa4;" horiz-adv-x="437" 
d="M85 167l-29 32q-5 4 -3.5 13t7.5 14l48 44q-18 59 20 126l-34 45q-4 5 -3 14t7 13l33 27q16 12 24 0l35 -44q59 35 106 1l47 45q12 12 24 -1l28 -32q11 -13 -3 -26l-47 -44q18 -60 -18 -126l34 -44q10 -14 -4 -26l-33 -28q-14 -14 -23 -1l-36 45q-61 -36 -109 -2l-47 -45
q-12 -12 -24 0zM216 269q21 0 37 18t20 45q2 27 -9.5 45t-32.5 18t-37 -18t-19 -45t8.5 -45t32.5 -18z" />
    <glyph glyph-name="yen" unicode="&#xa5;" horiz-adv-x="572" 
d="M108 121q-7 0 -11 5.5t-3 13.5l1 10q4 19 19 19h104l10 72h-104q-15 0 -13 19l1 10q4 19 19 19h104l7 48l-162 337q-4 10 1.5 18t15.5 8h71q12 0 17 -11l117 -254h2l192 254q9 11 20 11h79q11 0 13.5 -8t-4.5 -18l-258 -336l-7 -49h103q7 0 11.5 -5.5t3.5 -13.5l-2 -11
q-1 -7 -6.5 -12.5t-12.5 -5.5h-104l-10 -72h103q7 0 11.5 -5.5t3.5 -13.5l-2 -11q-2 -18 -19 -18h-104l-14 -102q-1 -7 -7 -13t-13 -6h-69q-7 0 -11.5 5.5t-3.5 13.5l14 102h-103z" />
    <glyph glyph-name="brokenbar" unicode="&#xa6;" horiz-adv-x="333" 
d="M180 392q-7 0 -11.5 5.5t-3.5 12.5l47 331q1 8 7 13.5t13 5.5h10q16 0 13 -19l-46 -331q-4 -18 -20 -18h-9zM115 49q1 8 6.5 13.5t12.5 5.5h11q16 0 13 -19l-46 -331q-4 -18 -20 -18h-9q-7 0 -11.5 5.5t-3.5 12.5z" />
    <glyph glyph-name="section" unicode="&#xa7;" horiz-adv-x="479" 
d="M13 -103q14 20 32 5l5 -4q4 -4 8.5 -8t13 -10t16.5 -11t19 -11t21.5 -10t22.5 -6.5t24 -2.5q33 0 61.5 20.5t37.5 57.5q10 44 -15 77.5t-86 66.5q-135 69 -135 178q0 40 18.5 75.5t35.5 51.5t33 26q-16 13 -32 44.5t-16 75.5q0 34 12.5 68t36.5 63.5t66.5 48t96.5 18.5
q86 0 166 -58q13 -13 2 -32l-28 -37q-13 -17 -31 -5q-66 44 -118 44q-47 0 -75 -29.5t-28 -63.5q0 -61 92 -107q76 -38 118 -80t42 -105q0 -39 -19.5 -76.5t-37 -55.5t-33.5 -28q15 -12 32 -45.5t17 -79.5q0 -87 -63 -144.5t-161 -57.5q-44 0 -86.5 18t-60.5 32.5t-30 27.5
q-15 15 0 34zM136 253q0 -15 5 -28t11 -21.5t21.5 -21t24.5 -18.5t33 -20.5t35 -21.5q6 3 15.5 10.5t25 33t15.5 56.5q0 33 -27 58t-88 58q-10 7 -20 11q-51 -31 -51 -96z" />
    <glyph glyph-name="dieresis" unicode="&#xa8;" horiz-adv-x="373" 
d="M303 567q-21 0 -34 14t-13 35q0 26 19 45t43 19q21 0 34.5 -14.5t13.5 -35.5q0 -26 -19 -44.5t-44 -18.5zM124 567q-20 0 -33.5 14.5t-13.5 34.5q0 27 19 45.5t44 18.5q20 0 33.5 -14.5t13.5 -35.5q0 -26 -19 -44.5t-44 -18.5z" />
    <glyph glyph-name="copyright" unicode="&#xa9;" horiz-adv-x="739" 
d="M53 303q0 166 112 286.5t266 120.5q115 0 196 -92t81 -221q0 -167 -111.5 -286.5t-266.5 -119.5q-116 0 -196.5 91.5t-80.5 220.5zM120 311q0 -105 62.5 -178t157.5 -73q118 0 209.5 98t91.5 231q0 106 -62 178.5t-158 72.5q-119 0 -210 -97t-91 -232zM218 323
q0 89 56.5 151t140.5 62q60 0 98 -38q12 -14 -3 -29l-27 -28q-11 -12 -23 -2q-20 17 -56 17q-43 0 -74 -36t-31 -86q0 -39 20.5 -66t54.5 -27q26 0 58 23q14 10 23 -2l23 -31q11 -14 -5 -28q-46 -42 -111 -42q-59 0 -101.5 47.5t-42.5 114.5z" />
    <glyph glyph-name="ordfeminine" unicode="&#xaa;" horiz-adv-x="289" 
d="M131 401q-37 0 -57.5 27.5t-13.5 71.5q5 42 37 68.5t81 26.5q12 0 23.5 -2.5t16.5 -4.5l5 -2q7 34 3 50t-28 16q-16 0 -76 -15q-5 -1 -8 2t-4 11l-2 25q-1 12 10 17q4 2 15.5 6t34 8t44.5 4q56 0 69.5 -32.5t4.5 -98.5l-22 -156q-2 -14 -15 -14h-22q-8 0 -11 10l-3 21
q-1 -1 -5.5 -5t-6 -5.5t-6 -5t-7 -5t-7.5 -5t-8.5 -4.5t-8.5 -3.5t-10 -3.5t-11 -1.5t-12 -0.5zM152 456q33 0 57 37l6 44q-14 12 -41 12q-21 0 -35 -13.5t-17 -34.5q-3 -19 5.5 -32t24.5 -13z" />
    <glyph glyph-name="guillemotleft" unicode="&#xab;" horiz-adv-x="421" 
d="M266 39l-72 155q-6 12 3 24l116 148q10 12 20 12h44q11 0 13.5 -9.5t-4.5 -21.5l-85 -147l36 -139q3 -13 -1.5 -21.5t-16.5 -8.5h-41q-8 0 -12 8zM96 39l-72 155q-6 12 3 24l116 148q10 12 20 12h44q11 0 13.5 -9.5t-4.5 -21.5l-85 -147l36 -139q3 -13 -1.5 -21.5
t-16.5 -8.5h-41q-8 0 -12 8z" />
    <glyph glyph-name="logicalnot" unicode="&#xac;" horiz-adv-x="469" 
d="M48 307q-7 0 -11 5.5t-3 13.5l6 42q1 8 6.5 13.5t12.5 5.5h350q7 0 11.5 -6t3.5 -13l-31 -215q-1 -7 -6.5 -12.5t-12.5 -5.5h-43q-7 0 -11.5 5.5t-3.5 12.5l22 154h-290z" />
    <glyph glyph-name="uni00AD" unicode="&#xad;" horiz-adv-x="314" 
d="M86 206q-17 0 -15 18l6 43q3 19 20 19h197q18 0 15 -19l-6 -43q-2 -18 -20 -18h-197z" />
    <glyph glyph-name="registered" unicode="&#xae;" horiz-adv-x="739" 
d="M53 303q0 166 112 286.5t266 120.5q115 0 196 -92t81 -221q0 -167 -111.5 -286.5t-266.5 -119.5q-116 0 -196.5 91.5t-80.5 220.5zM120 311q0 -105 62.5 -178t157.5 -73q118 0 209.5 98t91.5 231q0 106 -62 178.5t-158 72.5q-119 0 -210 -97t-91 -232zM240 187l46 328
q1 8 7 13.5t13 5.5h135q39 0 67.5 -29t28.5 -72q0 -91 -85 -124q2 -6 14 -49.5t17 -64.5q3 -10 -3.5 -18.5t-15.5 -8.5h-40q-12 0 -14 14l-27 118h-56l-16 -113q-1 -8 -6.5 -13.5t-12.5 -5.5h-38q-7 0 -11.5 5.5t-2.5 13.5zM334 366h77q20 0 34.5 17t14.5 40q0 18 -9.5 29.5
t-25.5 11.5h-77z" />
    <glyph glyph-name="macron" unicode="&#xaf;" horiz-adv-x="373" 
d="M53 576q-17 0 -15 18l4 28q3 19 20 19h231q7 0 11 -5.5t3 -13.5l-4 -28q-2 -18 -20 -18h-230z" />
    <glyph glyph-name="degree" unicode="&#xb0;" horiz-adv-x="297" 
d="M171 440q-44 0 -74.5 34t-30.5 83q0 63 41 108t100 45q44 0 74.5 -34t30.5 -83q0 -64 -41 -108.5t-100 -44.5zM180 511q23 0 41 21.5t18 51.5q0 22 -11.5 37.5t-29.5 15.5q-23 0 -41 -21.5t-18 -50.5q0 -23 11.5 -38.5t29.5 -15.5z" />
    <glyph glyph-name="plusminus" unicode="&#xb1;" horiz-adv-x="532" 
d="M238 245q-7 0 -11.5 5.5t-3.5 12.5l16 110h-132q-7 0 -11.5 5.5t-3.5 13.5l6 42q1 7 7 13t13 6h132l21 148q1 7 6.5 12.5t12.5 5.5h51q16 0 14 -18l-21 -148h134q7 0 11 -5.5t3 -13.5l-6 -42q-1 -8 -6.5 -13.5t-12.5 -5.5h-134l-15 -110q-1 -7 -7 -12.5t-13 -5.5h-50z
M62 52q-7 0 -11 5.5t-3 13.5l5 42q1 7 7 13t13 6h351q15 0 13 -19l-6 -42q-1 -8 -6 -13.5t-12 -5.5h-351z" />
    <glyph glyph-name="twosuperior" unicode="&#xb2;" horiz-adv-x="269" 
d="M81 504q-9 0 -8 9l2 15l121 130q33 33 33 58q0 15 -9.5 25.5t-26.5 10.5q-24 0 -47 -25q-7 -7 -13 1l-18 30q-4 9 5 18q34 34 86 34q39 0 64.5 -23t25.5 -55q0 -48 -50 -101l-65 -73h82q9 0 7 -10l-5 -35q-2 -9 -9 -9h-175z" />
    <glyph glyph-name="threesuperior" unicode="&#xb3;" horiz-adv-x="260" 
d="M157 494q-49 0 -82 37q-6 7 1 14l19 24q7 7 14 0q20 -20 49 -20q20 0 34 12t14 31q0 15 -11.5 25.5t-32.5 10.5h-26q-12 0 -11 11l3 28q2 12 15 12h27q22 0 36 12t14 30q0 15 -10 24t-25 9q-18 0 -43 -20q-7 -6 -13 1l-19 28q-7 9 3 15q44 32 81 32q40 0 66.5 -21.5
t26.5 -54.5q0 -53 -57 -77v-2q16 -8 30 -25t14 -41q0 -43 -32 -69t-85 -26z" />
    <glyph glyph-name="acute" unicode="&#xb4;" horiz-adv-x="272" 
d="M100 543q-18 -8 -22 6l-11 31q-4 12 8 19l156 91q4 4 13 3t12 -10l17 -44q7 -17 -9 -24z" />
    <glyph glyph-name="mu" unicode="&#xb5;" horiz-adv-x="479" 
d="M119 -2l-38 -279q-1 -7 -7 -13t-13 -6h-59q-7 0 -11 6t-3 13l90 662q4 19 20 19h61q7 0 11.5 -5.5t3.5 -13.5l-29 -204q-7 -48 8.5 -74.5t48.5 -26.5q30 0 58 24.5t33 38.5l33 242q2 19 23 19h55q7 0 11.5 -5.5t3.5 -13.5l-51 -362q-1 -8 -7 -13.5t-13 -5.5h-29
q-10 0 -14 16l-6 29q-55 -55 -127 -55q-29 0 -53 8z" />
    <glyph glyph-name="paragraph" unicode="&#xb6;" horiz-adv-x="636" 
d="M171 -281l79 562h-39q-69 0 -115 52.5t-46 129.5q0 95 63 166t144 71h407q7 0 11 -5.5t3 -13.5l-5 -33q-1 -8 -6.5 -13.5t-12.5 -5.5h-78l-128 -910q-4 -19 -20 -19h-41q-7 0 -11 6t-3 13l128 909h-128l-128 -909q-1 -7 -7 -13t-13 -6h-40q-7 0 -11 5.5t-3 13.5z" />
    <glyph glyph-name="periodcentered" unicode="&#xb7;" horiz-adv-x="235" 
d="M111 185q-27 0 -44.5 19t-17.5 46q0 34 25 58.5t58 24.5q27 0 45 -19t18 -47q0 -33 -25.5 -57.5t-58.5 -24.5z" />
    <glyph glyph-name="cedilla" unicode="&#xb8;" horiz-adv-x="223" 
d="M75 0h56l-7 -55q76 -17 76 -92q0 -47 -30 -80t-77 -33q-19 0 -38 10t-28 25q-9 14 2 25l16 15q9 9 20 -1q14 -14 31 -14t29 14.5t12 34.5q0 41 -61 49q-16 4 -13 19z" />
    <glyph glyph-name="onesuperior" unicode="&#xb9;" horiz-adv-x="188" 
d="M119 504q-10 0 -8 9l28 201l-43 -7q-7 -1 -7 6v27q0 7 7 11l73 49h41q9 0 7 -9l-40 -278q0 -9 -9 -9h-49z" />
    <glyph glyph-name="ordmasculine" unicode="&#xba;" horiz-adv-x="293" 
d="M162 394q-45 0 -70 32.5t-25 89.5q0 88 37 140.5t102 52.5q44 0 69.5 -33t25.5 -89q0 -89 -37 -141t-102 -52zM170 455q28 0 45 34.5t17 91.5q0 67 -35 67q-27 0 -43.5 -36t-16.5 -93q0 -64 33 -64z" />
    <glyph glyph-name="guillemotright" unicode="&#xbb;" horiz-adv-x="422" 
d="M185 62l85 147l-36 139q-3 13 1.5 21.5t16.5 8.5h41q8 0 12 -8l72 -155q6 -12 -3 -24l-116 -148q-10 -12 -20 -12h-44q-11 0 -13.5 9.5t4.5 21.5zM24 31q-11 0 -13.5 9.5t4.5 21.5l85 147l-36 139q-3 13 1.5 21.5t16.5 8.5h41q8 0 12 -8l72 -155q6 -12 -3 -24l-116 -148
q-10 -12 -20 -12h-44z" />
    <glyph glyph-name="onequarter" unicode="&#xbc;" horiz-adv-x="623" 
d="M51 27l402 663q7 10 16 10h41q10 0 13.5 -8.5t-2.5 -18.5l-404 -663q-5 -10 -16 -10h-39q-10 0 -13.5 8.5t2.5 18.5zM110 404q-10 0 -8 9l28 201l-43 -7q-7 -1 -7 6v27q0 7 7 11l73 49h41q9 0 7 -9l-40 -278q0 -9 -9 -9h-49zM306 66l6 40l175 187q3 3 7 3h32q8 0 8 -9
l-25 -178h35q9 0 7 -8l-5 -34q-2 -9 -9 -9h-36l-6 -49q-2 -9 -11 -9h-44q-8 0 -8 9l7 49h-126q-9 0 -7 8zM381 109h67l14 93z" />
    <glyph glyph-name="onehalf" unicode="&#xbd;" horiz-adv-x="602" 
d="M51 27l402 663q7 10 16 10h41q10 0 13.5 -8.5t-2.5 -18.5l-404 -663q-5 -10 -16 -10h-39q-10 0 -13.5 8.5t2.5 18.5zM110 404q-10 0 -8 9l28 201l-43 -7q-7 -1 -7 6v27q0 7 7 11l73 49h41q9 0 7 -9l-40 -278q0 -9 -9 -9h-49zM313 9l2 15l121 130q33 33 33 58
q0 15 -9.5 25.5t-26.5 10.5q-24 0 -47 -25q-7 -7 -13 1l-18 30q-4 9 5 18q34 34 86 34q39 0 64.5 -23t25.5 -55q0 -48 -50 -101l-65 -73h82q9 0 7 -10l-5 -35q-2 -9 -9 -9h-175q-9 0 -8 9z" />
    <glyph glyph-name="threequarters" unicode="&#xbe;" horiz-adv-x="673" 
d="M141 394q-49 0 -82 37q-6 7 1 14l19 24q7 7 14 0q20 -20 49 -20q20 0 34 12t14 31q0 15 -11.5 25.5t-32.5 10.5h-26q-12 0 -11 11l3 28q2 12 15 12h27q22 0 36 12t14 30q0 15 -10 24t-25 9q-18 0 -43 -20q-7 -6 -13 1l-19 28q-6 9 3 15q44 32 81 32q40 0 66.5 -21.5
t26.5 -54.5q0 -53 -57 -77v-2q16 -8 30 -25t14 -41q0 -43 -32 -69t-85 -26zM101 27l402 663q7 10 16 10h41q10 0 13.5 -8.5t-2.5 -18.5l-404 -663q-5 -10 -16 -10h-39q-10 0 -13.5 8.5t2.5 18.5zM356 66l6 40l175 187q3 3 7 3h32q8 0 8 -9l-25 -178h35q9 0 7 -8l-5 -34
q-2 -9 -9 -9h-36l-6 -49q-2 -9 -11 -9h-44q-8 0 -8 9l7 49h-126q-9 0 -7 8zM431 109h67l14 93z" />
    <glyph glyph-name="questiondown" unicode="&#xbf;" horiz-adv-x="252" 
d="M134 271q-26 0 -42.5 17.5t-16.5 43.5q0 32 23.5 55t54.5 23q25 0 41.5 -17.5t16.5 -43.5q0 -32 -23.5 -55t-53.5 -23zM-3 0q55 37 60 71l5 37q3 20 21 20h60q16 0 14 -19l-5 -42q-6 -44 -32 -73.5t-73 -61.5q-33 -23 -48.5 -42.5t-15.5 -48.5q0 -27 18.5 -44.5
t44.5 -17.5q60 0 119 68q11 13 24 0l34 -32q14 -13 1 -28q-81 -97 -190 -97q-63 0 -105.5 42t-42.5 101q0 32 9 58t28 47t34 33t40 29z" />
    <glyph glyph-name="Agrave" unicode="&#xc0;" horiz-adv-x="603" 
d="M-17 0q-10 0 -13.5 8t1.5 18l372 673q5 11 17 11h9q10 0 14 -11l181 -673q2 -10 -3.5 -18t-15.5 -8h-60q-18 0 -21 15l-36 139h-275l-77 -139q-9 -15 -25 -15h-68zM195 238h210l-65 275h-4zM440 777l-140 70q-17 8 -6 26l26 41q9 13 24 3l131 -91q11 -6 3 -19l-15 -26
q-7 -12 -23 -4z" />
    <glyph glyph-name="Aacute" unicode="&#xc1;" horiz-adv-x="603" 
d="M-17 0q-10 0 -13.5 8t1.5 18l372 673q5 11 17 11h9q10 0 14 -11l181 -673q2 -10 -3.5 -18t-15.5 -8h-60q-18 0 -21 15l-36 139h-275l-77 -139q-9 -15 -25 -15h-68zM195 238h210l-65 275h-4zM315 773q-18 -8 -22 6l-11 31q-4 12 8 19l156 91q4 4 13 3t12 -10l17 -44
q7 -17 -9 -24z" />
    <glyph glyph-name="Acircumflex" unicode="&#xc2;" horiz-adv-x="603" 
d="M-17 0q-10 0 -13.5 8t1.5 18l372 673q5 11 17 11h9q10 0 14 -11l181 -673q2 -10 -3.5 -18t-15.5 -8h-60q-18 0 -21 15l-36 139h-275l-77 -139q-9 -15 -25 -15h-68zM195 238h210l-65 275h-4zM284 772q-6 -4 -9.5 -4.5t-6 1.5t-6.5 8l-14 20q-9 15 5 24l126 98q12 8 22 0
l98 -98q10 -10 2 -21l-18 -22q-11 -12 -23 -2l-77 60z" />
    <glyph glyph-name="Atilde" unicode="&#xc3;" horiz-adv-x="603" 
d="M-17 0q-10 0 -13.5 8t1.5 18l372 673q5 11 17 11h9q10 0 14 -11l181 -673q2 -10 -3.5 -18t-15.5 -8h-60q-18 0 -21 15l-36 139h-275l-77 -139q-9 -15 -25 -15h-68zM195 238h210l-65 275h-4zM275 791l-26 15q-10 8 -4 23q6 14 16.5 30.5t34 35t47.5 18.5q22 0 38 -16
t27 -32t22 -16q20 0 42 40q10 19 25 9l19 -14q15 -12 2 -32q-41 -75 -93 -75q-19 0 -36 16.5t-29.5 32.5t-21.5 16q-19 0 -41 -41q-10 -18 -22 -10z" />
    <glyph glyph-name="Adieresis" unicode="&#xc4;" horiz-adv-x="603" 
d="M-17 0q-10 0 -13.5 8t1.5 18l372 673q5 11 17 11h9q10 0 14 -11l181 -673q2 -10 -3.5 -18t-15.5 -8h-60q-18 0 -21 15l-36 139h-275l-77 -139q-9 -15 -25 -15h-68zM195 238h210l-65 275h-4zM481 782q-20 0 -33 14.5t-13 35.5q0 26 19 44.5t43 18.5q20 0 34 -14.5
t14 -34.5q0 -26 -19.5 -45t-44.5 -19zM268 782q-20 0 -33 14.5t-13 35.5q0 26 19 44.5t43 18.5q20 0 34 -14.5t14 -34.5q0 -26 -19.5 -45t-44.5 -19z" />
    <glyph glyph-name="Aring" unicode="&#xc5;" horiz-adv-x="603" 
d="M-17 0q-10 0 -13.5 8t1.5 18l372 673q5 11 17 11h9q10 0 14 -11l181 -673q2 -10 -3.5 -18t-15.5 -8h-60q-18 0 -21 15l-36 139h-275l-77 -139q-9 -15 -25 -15h-68zM195 238h210l-65 275h-4zM372 756q-36 0 -61 28t-25 68q0 53 34 89.5t83 36.5q35 0 61 -28t26 -68
q0 -53 -34.5 -89.5t-83.5 -36.5zM380 811q20 0 36.5 19.5t16.5 43.5q0 19 -10.5 32.5t-27.5 13.5q-21 0 -38 -18t-17 -42q0 -19 11.5 -34t28.5 -15z" />
    <glyph glyph-name="AE" unicode="&#xc6;" horiz-adv-x="822" 
d="M-31 0q-10 0 -12.5 8t4.5 18l452 643q22 31 44 31h352q7 0 11 -5.5t3 -13.5l-8 -56q-1 -8 -7 -13.5t-13 -5.5h-279l-29 -204h236q7 0 11 -5.5t3 -13.5l-8 -56q-1 -8 -7 -13.5t-13 -5.5h-235l-30 -215h279q7 0 11.5 -5.5t3.5 -13.5l-8 -55q-1 -8 -7 -13.5t-13 -5.5h-363
q-7 0 -11.5 5.5t-3.5 13.5l19 133h-189l-94 -139q-9 -13 -22 -13h-77zM224 238h139l40 275z" />
    <glyph glyph-name="Ccedilla" unicode="&#xc7;" horiz-adv-x="640" 
d="M289 -5q-106 19 -169 105.5t-63 209.5q0 168 111 284t268 116q121 0 205 -93q12 -13 -3 -28l-41 -37q-15 -15 -31 1q-24 25 -60.5 41.5t-75.5 16.5q-102 0 -181 -91.5t-79 -209.5q0 -92 48.5 -153t129.5 -61q74 0 156 65q16 14 28 -1l40 -46q4 -5 2.5 -13.5t-6.5 -13.5
q-101 -95 -224 -97l-5 -45q76 -17 76 -92q0 -47 -30 -80t-77 -33q-19 0 -38 10t-28 25q-9 14 2 25l16 15q10 9 20 -1q14 -14 31 -14t29 14.5t12 34.5q0 41 -61 49q-16 4 -13 19z" />
    <glyph glyph-name="Egrave" unicode="&#xc8;" horiz-adv-x="546" 
d="M58 19l93 662q1 7 6.5 13t12.5 6h363q16 0 14 -19l-8 -56q-1 -8 -6.5 -13.5t-12.5 -5.5h-277l-29 -204h233q7 0 11 -5.5t3 -13.5l-8 -56q-3 -19 -19 -19h-233l-30 -215h277q7 0 11 -5.5t3 -13.5l-8 -55q-1 -8 -7 -13.5t-13 -5.5h-362q-7 0 -11.5 5.5t-2.5 13.5zM433 777
l-140 70q-17 8 -6 26l26 41q9 13 24 3l131 -91q11 -6 3 -19l-15 -26q-7 -12 -23 -4z" />
    <glyph glyph-name="Eacute" unicode="&#xc9;" horiz-adv-x="546" 
d="M58 19l93 662q1 7 6.5 13t12.5 6h363q16 0 14 -19l-8 -56q-1 -8 -6.5 -13.5t-12.5 -5.5h-277l-29 -204h233q7 0 11 -5.5t3 -13.5l-8 -56q-3 -19 -19 -19h-233l-30 -215h277q7 0 11 -5.5t3 -13.5l-8 -55q-1 -8 -7 -13.5t-13 -5.5h-362q-7 0 -11.5 5.5t-2.5 13.5zM308 773
q-18 -8 -22 6l-11 31q-4 12 8 19l156 91q4 4 13 3t12 -10l17 -44q7 -17 -9 -24z" />
    <glyph glyph-name="Ecircumflex" unicode="&#xca;" horiz-adv-x="546" 
d="M58 19l93 662q1 7 6.5 13t12.5 6h363q16 0 14 -19l-8 -56q-1 -8 -6.5 -13.5t-12.5 -5.5h-277l-29 -204h233q7 0 11 -5.5t3 -13.5l-8 -56q-3 -19 -19 -19h-233l-30 -215h277q7 0 11 -5.5t3 -13.5l-8 -55q-1 -8 -7 -13.5t-13 -5.5h-362q-7 0 -11.5 5.5t-2.5 13.5zM279 772
q-6 -4 -9.5 -4.5t-6 1.5t-6.5 8l-14 20q-9 15 5 24l126 98q12 8 22 0l98 -98q10 -10 2 -21l-18 -22q-11 -12 -23 -2l-77 60z" />
    <glyph glyph-name="Edieresis" unicode="&#xcb;" horiz-adv-x="546" 
d="M58 19l93 662q1 7 6.5 13t12.5 6h363q16 0 14 -19l-8 -56q-1 -8 -6.5 -13.5t-12.5 -5.5h-277l-29 -204h233q7 0 11 -5.5t3 -13.5l-8 -56q-3 -19 -19 -19h-233l-30 -215h277q7 0 11 -5.5t3 -13.5l-8 -55q-1 -8 -7 -13.5t-13 -5.5h-362q-7 0 -11.5 5.5t-2.5 13.5zM471 782
q-20 0 -33 14.5t-13 35.5q0 26 19 44.5t43 18.5q20 0 34 -14.5t14 -34.5q0 -26 -19.5 -45t-44.5 -19zM258 782q-20 0 -33 14.5t-13 35.5q0 26 19 44.5t43 18.5q20 0 34 -14.5t14 -34.5q0 -26 -19.5 -45t-44.5 -19z" />
    <glyph glyph-name="Igrave" unicode="&#xcc;" horiz-adv-x="292" 
d="M58 19l93 662q1 7 6.5 13t12.5 6h70q7 0 11 -6t3 -13l-93 -662q-1 -8 -6.5 -13.5t-12.5 -5.5h-70q-7 0 -11 6t-3 13zM279 777l-140 70q-17 8 -6 26l26 41q9 13 24 3l131 -91q11 -6 3 -19l-15 -26q-7 -12 -23 -4z" />
    <glyph glyph-name="Iacute" unicode="&#xcd;" horiz-adv-x="292" 
d="M58 19l93 662q1 7 6.5 13t12.5 6h70q7 0 11 -6t3 -13l-93 -662q-1 -8 -6.5 -13.5t-12.5 -5.5h-70q-7 0 -11 6t-3 13zM154 773q-18 -8 -22 6l-11 31q-4 12 8 19l156 91q4 4 13 3t12 -10l17 -44q7 -17 -9 -24z" />
    <glyph glyph-name="Icircumflex" unicode="&#xce;" horiz-adv-x="292" 
d="M58 19l93 662q1 7 6.5 13t12.5 6h70q7 0 11 -6t3 -13l-93 -662q-1 -8 -6.5 -13.5t-12.5 -5.5h-70q-7 0 -11 6t-3 13zM125 772q-6 -4 -9.5 -4.5t-6 1.5t-6.5 8l-14 20q-9 15 5 24l126 98q12 8 22 0l98 -98q10 -10 2 -21l-18 -22q-11 -12 -23 -2l-77 60z" />
    <glyph glyph-name="Idieresis" unicode="&#xcf;" horiz-adv-x="292" 
d="M58 19l93 662q1 7 6.5 13t12.5 6h70q7 0 11 -6t3 -13l-93 -662q-1 -8 -6.5 -13.5t-12.5 -5.5h-70q-7 0 -11 6t-3 13zM320 782q-20 0 -33 14.5t-13 35.5q0 26 19 44.5t43 18.5q20 0 34 -14.5t14 -34.5q0 -26 -19.5 -45t-44.5 -19zM107 782q-20 0 -33 14.5t-13 35.5
q0 26 19 44.5t43 18.5q20 0 34 -14.5t14 -34.5q0 -26 -19.5 -45t-44.5 -19z" />
    <glyph glyph-name="Eth" unicode="&#xd0;" horiz-adv-x="690" 
d="M62 19l42 303h-26q-7 0 -11 5.5t-2 13.5l2 10q4 19 18 19h26l44 311q1 7 6.5 13t12.5 6h209q115 0 193 -90.5t78 -213.5q0 -163 -107.5 -279.5t-261.5 -116.5h-210q-7 0 -11 5.5t-2 13.5zM174 95h112q106 0 181.5 85.5t75.5 210.5q0 93 -51 153.5t-134 60.5h-112
l-33 -235h160q7 0 12 -5.5t3 -13.5l-2 -11q-4 -18 -20 -18h-160z" />
    <glyph glyph-name="Ntilde" unicode="&#xd1;" horiz-adv-x="717" 
d="M58 19l95 673q1 7 7 12.5t13 5.5h25l313 -499h1h1l63 470q1 8 6.5 13.5t12.5 5.5h69q7 0 11.5 -5.5t3.5 -13.5l-95 -673q-1 -7 -7 -12.5t-13 -5.5h-28l-313 507h-1l-62 -478q-1 -8 -7 -13.5t-13 -5.5h-67q-7 0 -11.5 5.5t-3.5 13.5zM322 791l-26 15q-10 8 -4 23
q6 14 16.5 30.5t34 35t47.5 18.5q22 0 38 -16t27 -32t22 -16q10 0 19 8t12.5 13.5t10.5 18.5q10 19 25 9l19 -14q15 -12 2 -32q-41 -75 -93 -75q-19 0 -36 16.5t-29.5 32.5t-21.5 16q-19 0 -41 -41q-10 -18 -22 -10z" />
    <glyph glyph-name="Ograve" unicode="&#xd2;" horiz-adv-x="747" 
d="M56 300q0 173 109.5 291.5t267.5 118.5q119 0 198.5 -92t79.5 -221q0 -172 -110 -289.5t-267 -117.5q-120 0 -199 91.5t-79 218.5zM161 313q0 -93 52.5 -158t133.5 -65q102 0 180.5 87.5t78.5 206.5q0 94 -52.5 160t-133.5 66q-101 0 -180 -89t-79 -208zM506 777l-140 70
q-17 8 -6 26l26 41q9 13 24 3l131 -91q11 -6 3 -19l-15 -26q-7 -12 -23 -4z" />
    <glyph glyph-name="Oacute" unicode="&#xd3;" horiz-adv-x="747" 
d="M56 300q0 173 109.5 291.5t267.5 118.5q119 0 198.5 -92t79.5 -221q0 -172 -110 -289.5t-267 -117.5q-120 0 -199 91.5t-79 218.5zM161 313q0 -93 52.5 -158t133.5 -65q102 0 180.5 87.5t78.5 206.5q0 94 -52.5 160t-133.5 66q-101 0 -180 -89t-79 -208zM381 773
q-18 -8 -22 6l-11 31q-4 12 8 19l156 91q4 4 13 3t12 -10l17 -44q7 -17 -9 -24z" />
    <glyph glyph-name="Ocircumflex" unicode="&#xd4;" horiz-adv-x="747" 
d="M56 300q0 173 109.5 291.5t267.5 118.5q119 0 198.5 -92t79.5 -221q0 -172 -110 -289.5t-267 -117.5q-120 0 -199 91.5t-79 218.5zM161 313q0 -93 52.5 -158t133.5 -65q102 0 180.5 87.5t78.5 206.5q0 94 -52.5 160t-133.5 66q-101 0 -180 -89t-79 -208zM351 772
q-6 -4 -9.5 -4.5t-6 1.5t-6.5 8l-14 20q-9 15 5 24l126 98q12 8 22 0l98 -98q10 -10 2 -21l-18 -22q-11 -12 -23 -2l-77 60z" />
    <glyph glyph-name="Otilde" unicode="&#xd5;" horiz-adv-x="747" 
d="M56 300q0 173 109.5 291.5t267.5 118.5q119 0 198.5 -92t79.5 -221q0 -172 -110 -289.5t-267 -117.5q-120 0 -199 91.5t-79 218.5zM161 313q0 -93 52.5 -158t133.5 -65q102 0 180.5 87.5t78.5 206.5q0 94 -52.5 160t-133.5 66q-101 0 -180 -89t-79 -208zM342 791l-26 15
q-10 8 -4 23q6 14 16.5 30.5t34 35t47.5 18.5q22 0 38 -16t27 -32t22 -16q10 0 19 8t12 13.5t11 18.5q10 19 25 9l19 -14q15 -12 2 -32q-41 -75 -93 -75q-19 0 -36 16.5t-29.5 32.5t-21.5 16q-19 0 -41 -41q-10 -18 -22 -10z" />
    <glyph glyph-name="Odieresis" unicode="&#xd6;" horiz-adv-x="747" 
d="M56 300q0 173 109.5 291.5t267.5 118.5q119 0 198.5 -92t79.5 -221q0 -172 -110 -289.5t-267 -117.5q-120 0 -199 91.5t-79 218.5zM161 313q0 -93 52.5 -158t133.5 -65q102 0 180.5 87.5t78.5 206.5q0 94 -52.5 160t-133.5 66q-101 0 -180 -89t-79 -208zM549 782
q-20 0 -33 14.5t-13 35.5q0 26 19 44.5t43 18.5q20 0 34 -14.5t14 -34.5q0 -26 -19.5 -45t-44.5 -19zM336 782q-20 0 -33 14.5t-13 35.5q0 26 19 44.5t43 18.5q20 0 34 -14.5t14 -34.5q0 -26 -19.5 -45t-44.5 -19z" />
    <glyph glyph-name="multiply" unicode="&#xd7;" horiz-adv-x="443" 
d="M89 180l-30 34q-4 5 -2.5 13t6.5 13l114 110l-80 107q-10 13 4 27l30 26q14 12 25 0l80 -107l113 112q11 11 23 -1l30 -34q4 -5 3 -13t-6 -13l-115 -113l81 -105q5 -5 3.5 -14t-7.5 -13l-31 -25q-15 -13 -24 -1l-81 106l-113 -109q-12 -12 -23 0z" />
    <glyph glyph-name="Oslash" unicode="&#xd8;" horiz-adv-x="747" 
d="M36 22q-10 14 3 26l70 67q-53 81 -53 185q0 173 109.5 291.5t267.5 118.5q119 0 199 -93l72 68q14 12 24 0l6 -7q9 -13 -4 -26l-72 -69q53 -83 53 -186q0 -172 -110 -289.5t-267 -117.5q-119 0 -199 91l-69 -67q-13 -12 -24 1zM189 192l366 350q-53 68 -135 68
q-101 0 -180 -89t-79 -208q0 -67 28 -121zM213 155q54 -65 134 -65q102 0 180.5 87.5t78.5 206.5q0 66 -28 122z" />
    <glyph glyph-name="Ugrave" unicode="&#xd9;" horiz-adv-x="669" 
d="M85 261l59 420q4 19 20 19h72q7 0 11.5 -5.5t2.5 -13.5l-58 -413q-11 -76 21 -126.5t95 -50.5q64 0 110 49.5t57 125.5l59 415q1 7 6.5 13t12.5 6h72q7 0 11 -6t3 -13l-59 -420q-16 -117 -94 -194t-192 -77q-100 0 -162.5 79t-46.5 192zM469 777l-140 70q-17 8 -6 26
l26 41q9 13 24 3l131 -91q11 -6 3 -19l-15 -26q-7 -12 -23 -4z" />
    <glyph glyph-name="Uacute" unicode="&#xda;" horiz-adv-x="669" 
d="M85 261l59 420q4 19 20 19h72q7 0 11.5 -5.5t2.5 -13.5l-58 -413q-11 -76 21 -126.5t95 -50.5q64 0 110 49.5t57 125.5l59 415q1 7 6.5 13t12.5 6h72q7 0 11 -6t3 -13l-59 -420q-16 -117 -94 -194t-192 -77q-100 0 -162.5 79t-46.5 192zM344 773q-18 -8 -22 6l-11 31
q-4 12 8 19l156 91q4 4 13 3t12 -10l17 -44q7 -17 -9 -24z" />
    <glyph glyph-name="Ucircumflex" unicode="&#xdb;" horiz-adv-x="669" 
d="M85 261l59 420q4 19 20 19h72q7 0 11.5 -5.5t2.5 -13.5l-58 -413q-11 -76 21 -126.5t95 -50.5q64 0 110 49.5t57 125.5l59 415q1 7 6.5 13t12.5 6h72q7 0 11 -6t3 -13l-59 -420q-16 -117 -94 -194t-192 -77q-100 0 -162.5 79t-46.5 192zM313 772q-6 -4 -9.5 -4.5t-6 1.5
t-6.5 8l-14 20q-9 15 5 24l126 98q12 8 22 0l98 -98q10 -10 2 -21l-18 -22q-11 -12 -23 -2l-77 60z" />
    <glyph glyph-name="Udieresis" unicode="&#xdc;" horiz-adv-x="669" 
d="M85 261l59 420q4 19 20 19h72q7 0 11.5 -5.5t2.5 -13.5l-58 -413q-11 -76 21 -126.5t95 -50.5q64 0 110 49.5t57 125.5l59 415q1 7 6.5 13t12.5 6h72q7 0 11 -6t3 -13l-59 -420q-16 -117 -94 -194t-192 -77q-100 0 -162.5 79t-46.5 192zM512 782q-20 0 -33 14.5t-13 35.5
q0 26 19 44.5t43 18.5q20 0 34 -14.5t14 -34.5q0 -26 -19.5 -45t-44.5 -19zM299 782q-20 0 -33 14.5t-13 35.5q0 26 19 44.5t43 18.5q20 0 34 -14.5t14 -34.5q0 -26 -19.5 -45t-44.5 -19z" />
    <glyph glyph-name="Yacute" unicode="&#xdd;" horiz-adv-x="525" 
d="M171 19l45 318l-162 337q-4 10 1.5 18t15.5 8h71q12 0 17 -11l117 -254h2l192 254q9 11 20 11h79q11 0 13.5 -8t-4.5 -18l-258 -336l-45 -319q-1 -7 -7 -13t-13 -6h-69q-7 0 -11.5 5.5t-3.5 13.5zM264 773q-18 -8 -22 6l-11 31q-4 12 8 19l156 91q4 4 13 3t12 -10l17 -44
q7 -17 -9 -24z" />
    <glyph glyph-name="Thorn" unicode="&#xde;" horiz-adv-x="551" 
d="M58 19l93 662q4 19 20 19h69q7 0 11.5 -5.5t3.5 -13.5l-16 -108h122q71 1 122 -56t51 -137q0 -105 -68 -179t-167 -74h-122l-15 -108q-4 -19 -20 -19h-69q-7 0 -11.5 5.5t-3.5 13.5zM191 225h116q48 0 86 43t38 103q0 44 -25.5 73.5t-63.5 29.5h-116z" />
    <glyph glyph-name="germandbls" unicode="&#xdf;" horiz-adv-x="484" 
d="M196 7q0 4 1 7l7 46q2 17 17 16q22 -2 37 -2q32 0 53.5 25t21.5 67q0 29 -20 60t-40 59t-20 52q0 36 55 113.5t55 114.5q0 28 -15.5 44t-40.5 16q-98 0 -128 -215l-97 -691q-1 -7 -7 -13t-13 -6h-62q-16 0 -14 19l97 692q42 299 243 299q56 0 96 -33.5t40 -95.5
q0 -42 -16.5 -81t-36.5 -62.5t-36.5 -48.5t-16.5 -41q0 -11 19 -37.5t37.5 -64t18.5 -76.5q0 -79 -47.5 -129.5t-136.5 -50.5q-44 0 -49 10q-2 3 -2 7z" />
    <glyph glyph-name="agrave" unicode="&#xe0;" 
d="M324 546l-140 70q-17 8 -6 26l26 41q9 13 24 3l131 -91q11 -6 3 -19l-15 -26q-7 -12 -23 -4zM407 381l-47 -362q-1 -7 -7 -13t-13 -6h-33q-12 0 -13 14l-3 30q-54 -54 -123 -54q-62 0 -103 53t-41 130q0 95 59.5 166t141.5 71q27 0 52 -11t36 -20.5t18 -17.5l13 25
q7 14 19 14h30q7 0 11 -5.5t3 -13.5zM284 138l17 140q-3 5 -9 12.5t-27 20t-44 12.5q-47 0 -74.5 -42.5t-27.5 -106.5q0 -43 20 -70.5t55 -27.5q22 0 44 14.5t32 27t14 20.5z" />
    <glyph glyph-name="aacute" unicode="&#xe1;" 
d="M193 543q-18 -8 -22 6l-11 31q-4 12 8 19l156 91q4 4 13 3t12 -10l17 -44q7 -17 -9 -24zM407 381l-47 -362q-1 -7 -7 -13t-13 -6h-33q-12 0 -13 14l-3 30q-54 -54 -123 -54q-62 0 -103 53t-41 130q0 95 59.5 166t141.5 71q27 0 52 -11t36 -20.5t18 -17.5l13 25
q7 14 19 14h30q7 0 11 -5.5t3 -13.5zM284 138l17 140q-3 5 -9 12.5t-27 20t-44 12.5q-47 0 -74.5 -42.5t-27.5 -106.5q0 -43 20 -70.5t55 -27.5q22 0 44 14.5t32 27t14 20.5z" />
    <glyph glyph-name="acircumflex" unicode="&#xe2;" 
d="M163 539q-6 -4 -9.5 -4.5t-6 1.5t-6.5 8l-14 20q-9 15 5 24l126 98q12 8 22 0l98 -98q10 -10 2 -21l-18 -22q-11 -12 -23 -2l-77 60zM407 381l-47 -362q-1 -7 -7 -13t-13 -6h-33q-12 0 -13 14l-3 30q-54 -54 -123 -54q-62 0 -103 53t-41 130q0 95 59.5 166t141.5 71
q27 0 52 -11t36 -20.5t18 -17.5l13 25q7 14 19 14h30q7 0 11 -5.5t3 -13.5zM284 138l17 140q-3 5 -9 12.5t-27 20t-44 12.5q-47 0 -74.5 -42.5t-27.5 -106.5q0 -43 20 -70.5t55 -27.5q22 0 44 14.5t32 27t14 20.5z" />
    <glyph glyph-name="atilde" unicode="&#xe3;" 
d="M155 568l-26 15q-10 8 -4 23q6 14 16.5 30.5t34 35t47.5 18.5q22 0 38 -16t27 -32t22 -16q20 0 42 40q10 19 25 9l19 -14q15 -12 2 -32q-41 -75 -93 -75q-19 0 -36 16t-29.5 32.5t-21.5 16.5q-19 0 -41 -41q-10 -18 -22 -10zM407 381l-47 -362q-1 -7 -7 -13t-13 -6h-33
q-12 0 -13 14l-3 30q-54 -54 -123 -54q-62 0 -103 53t-41 130q0 95 59.5 166t141.5 71q27 0 52 -11t36 -20.5t18 -17.5l13 25q7 14 19 14h30q7 0 11 -5.5t3 -13.5zM284 138l17 140q-3 5 -9 12.5t-27 20t-44 12.5q-47 0 -74.5 -42.5t-27.5 -106.5q0 -43 20 -70.5t55 -27.5
q22 0 44 14.5t32 27t14 20.5z" />
    <glyph glyph-name="adieresis" unicode="&#xe4;" 
d="M346 567q-21 0 -34 14t-13 35q0 26 18.5 45t43.5 19q21 0 34.5 -14.5t13.5 -35.5q0 -26 -19 -44.5t-44 -18.5zM167 567q-20 0 -33.5 14.5t-13.5 34.5q0 27 19 45.5t44 18.5q20 0 33.5 -14.5t13.5 -35.5q0 -26 -19 -44.5t-44 -18.5zM407 381l-47 -362q-1 -7 -7 -13t-13 -6
h-33q-12 0 -13 14l-3 30q-54 -54 -123 -54q-62 0 -103 53t-41 130q0 95 59.5 166t141.5 71q27 0 52 -11t36 -20.5t18 -17.5l13 25q7 14 19 14h30q7 0 11 -5.5t3 -13.5zM284 138l17 140q-3 5 -9 12.5t-27 20t-44 12.5q-47 0 -74.5 -42.5t-27.5 -106.5q0 -43 20 -70.5
t55 -27.5q22 0 44 14.5t32 27t14 20.5z" />
    <glyph glyph-name="aring" unicode="&#xe5;" 
d="M245 488q-36 0 -61 28t-25 68q0 53 34 89.5t83 36.5q35 0 61 -28t26 -68q0 -53 -34.5 -89.5t-83.5 -36.5zM253 543q20 0 36.5 19.5t16.5 43.5q0 19 -10.5 32.5t-27.5 13.5q-21 0 -38 -18t-17 -42q0 -19 11.5 -34t28.5 -15zM407 381l-47 -362q-1 -7 -7 -13t-13 -6h-33
q-12 0 -13 14l-3 30q-54 -54 -123 -54q-62 0 -103 53t-41 130q0 95 59.5 166t141.5 71q27 0 52 -11t36 -20.5t18 -17.5l13 25q7 14 19 14h30q7 0 11 -5.5t3 -13.5zM284 138l17 140q-3 5 -9 12.5t-27 20t-44 12.5q-47 0 -74.5 -42.5t-27.5 -106.5q0 -43 20 -70.5t55 -27.5
q22 0 44 14.5t32 27t14 20.5z" />
    <glyph glyph-name="ae" unicode="&#xe6;" horiz-adv-x="610" 
d="M8 103q0 66 43.5 108t114.5 42l72 -6q6 50 -1 67.5t-37 17.5q-36 0 -106 -20q-7 -2 -12.5 3t-5.5 12l-1 42q0 14 17 20q67 21 126 21q68 0 94 -55q57 55 134 55q58 0 96 -30t38 -84q0 -40 -26.5 -68t-66.5 -38.5t-86.5 -15t-85.5 2.5q-4 -43 17 -73t61 -30t81 28
q17 11 24 1l27 -37q11 -14 -5 -26q-62 -50 -141 -50t-123 64q-53 -64 -137 -64q-49 0 -80 31t-31 82zM330 244q160 -14 160 47q0 19 -16 30.5t-38 11.5q-40 0 -68.5 -25t-37.5 -64zM96 116q0 -25 13.5 -39t34.5 -14q26 0 46 15.5t29 30.5l10 75q-23 7 -60 7q-29 0 -51 -20.5
t-22 -54.5z" />
    <glyph glyph-name="ccedilla" unicode="&#xe7;" horiz-adv-x="403" 
d="M135 -1q-49 17 -80 64t-31 108q0 99 66.5 169t155.5 70q40 0 72 -19.5t50 -51.5q9 -16 -7 -28l-36 -25q-14 -9 -23 4q-26 33 -63 33q-46 0 -82.5 -44t-36.5 -102q0 -45 20.5 -73t55.5 -28q19 0 37 10t25 17.5t20 24.5q11 12 23 2l36 -28q15 -12 2 -28q-61 -83 -150 -84
l-5 -45q76 -17 76 -92q0 -47 -30 -80t-77 -33q-19 0 -38 10t-28 25q-9 14 2 25l16 15q9 9 20 -1q14 -14 31 -14t29 14.5t12 34.5q0 41 -61 49q-16 4 -13 19z" />
    <glyph glyph-name="egrave" unicode="&#xe8;" horiz-adv-x="412" 
d="M24 169q0 98 62.5 169.5t160.5 71.5q58 0 96 -30t38 -84q0 -40 -26.5 -68t-66.5 -38.5t-86.5 -15t-85.5 2.5q-4 -43 17 -73t61 -30t81 28q17 11 24 1l27 -37q11 -14 -5 -26q-62 -50 -141 -50q-71 0 -113.5 51.5t-42.5 127.5zM131 244q160 -14 160 47q0 19 -16 30.5
t-38 11.5q-40 0 -68.5 -25t-37.5 -64zM329 546l-140 70q-17 8 -6 26l26 41q9 13 24 3l131 -91q11 -6 3 -19l-15 -26q-7 -12 -23 -4z" />
    <glyph glyph-name="eacute" unicode="&#xe9;" horiz-adv-x="412" 
d="M24 169q0 98 62.5 169.5t160.5 71.5q58 0 96 -30t38 -84q0 -40 -26.5 -68t-66.5 -38.5t-86.5 -15t-85.5 2.5q-4 -43 17 -73t61 -30t81 28q17 11 24 1l27 -37q11 -14 -5 -26q-62 -50 -141 -50q-71 0 -113.5 51.5t-42.5 127.5zM131 244q160 -14 160 47q0 19 -16 30.5
t-38 11.5q-40 0 -68.5 -25t-37.5 -64zM205 543q-18 -8 -22 6l-11 31q-4 12 8 19l156 91q4 4 13 3t12 -10l17 -44q7 -17 -9 -24z" />
    <glyph glyph-name="ecircumflex" unicode="&#xea;" horiz-adv-x="412" 
d="M24 169q0 98 62.5 169.5t160.5 71.5q58 0 96 -30t38 -84q0 -40 -26.5 -68t-66.5 -38.5t-86.5 -15t-85.5 2.5q-4 -43 17 -73t61 -30t81 28q17 11 24 1l27 -37q11 -14 -5 -26q-62 -50 -141 -50q-71 0 -113.5 51.5t-42.5 127.5zM131 244q160 -14 160 47q0 19 -16 30.5
t-38 11.5q-40 0 -68.5 -25t-37.5 -64zM174 539q-6 -4 -9.5 -4.5t-6 1.5t-6.5 8l-14 20q-9 15 5 24l126 98q12 8 22 0l98 -98q10 -10 2 -21l-18 -22q-11 -12 -23 -2l-77 60z" />
    <glyph glyph-name="edieresis" unicode="&#xeb;" horiz-adv-x="412" 
d="M24 169q0 98 62.5 169.5t160.5 71.5q58 0 96 -30t38 -84q0 -40 -26.5 -68t-66.5 -38.5t-86.5 -15t-85.5 2.5q-4 -43 17 -73t61 -30t81 28q17 11 24 1l27 -37q11 -14 -5 -26q-62 -50 -141 -50q-71 0 -113.5 51.5t-42.5 127.5zM131 244q160 -14 160 47q0 19 -16 30.5
t-38 11.5q-40 0 -68.5 -25t-37.5 -64zM358 567q-21 0 -34 14t-13 35q0 26 18.5 45t43.5 19q21 0 34.5 -14.5t13.5 -35.5q0 -26 -19 -44.5t-44 -18.5zM179 567q-20 0 -33.5 14.5t-13.5 34.5q0 27 19 45.5t44 18.5q20 0 33.5 -14.5t13.5 -35.5q0 -26 -19 -44.5t-44 -18.5z" />
    <glyph glyph-name="igrave" unicode="&#xec;" horiz-adv-x="224" 
d="M28 19l50 362q4 19 20 19h61q7 0 11.5 -5.5t3.5 -13.5l-51 -362q-1 -7 -7 -13t-13 -6h-61q-7 0 -11 6t-3 13zM212 546l-140 70q-17 8 -6 26l26 41q9 13 24 3l131 -91q11 -6 3 -19l-15 -26q-7 -12 -23 -4z" />
    <glyph glyph-name="iacute" unicode="&#xed;" horiz-adv-x="224" 
d="M87 543q-18 -8 -22 6l-11 31q-4 12 8 19l156 91q4 4 13 3t12 -10l17 -44q7 -17 -9 -24zM28 19l50 362q4 19 20 19h61q7 0 11.5 -5.5t3.5 -13.5l-51 -362q-1 -7 -7 -13t-13 -6h-61q-7 0 -11 6t-3 13z" />
    <glyph glyph-name="icircumflex" unicode="&#xee;" horiz-adv-x="224" 
d="M28 19l50 362q4 19 20 19h61q7 0 11.5 -5.5t3.5 -13.5l-51 -362q-1 -7 -7 -13t-13 -6h-61q-7 0 -11 6t-3 13zM56 539q-6 -4 -9.5 -4.5t-6 1.5t-6.5 8l-14 20q-9 15 5 24l126 98q12 8 22 0l98 -98q10 -10 2 -21l-18 -22q-11 -12 -23 -2l-77 60z" />
    <glyph glyph-name="idieresis" unicode="&#xef;" horiz-adv-x="224" 
d="M241 567q-21 0 -34 14t-13 35q0 26 19 45t43 19q21 0 34.5 -14.5t13.5 -35.5q0 -26 -19 -44.5t-44 -18.5zM62 567q-20 0 -33.5 14.5t-13.5 34.5q0 27 19 45.5t44 18.5q20 0 33.5 -14.5t13.5 -35.5q0 -26 -19 -44.5t-44 -18.5zM28 19l50 362q4 19 20 19h61q7 0 11.5 -5.5
t3.5 -13.5l-51 -362q-1 -7 -7 -13t-13 -6h-61q-7 0 -11 6t-3 13z" />
    <glyph glyph-name="eth" unicode="&#xf0;" horiz-adv-x="497" 
d="M26 189q0 110 68 178.5t152 68.5q33 0 63 -13t44 -24q-8 82 -80 152l-84 -51q-15 -8 -22 6l-4 9q-6 17 10 26l63 40q-32 27 -62 41q-19 8 -10 27l24 43q8 16 24 10q57 -24 115 -72l67 40q13 6 22 -8l5 -9q9 -15 -10 -25l-51 -31q96 -105 96 -266q0 -144 -69 -242.5
t-188 -98.5q-72 0 -122.5 58.5t-50.5 140.5zM211 80q41 0 74 33t49.5 76.5t20.5 88.5q-5 22 -32.5 49t-71.5 27q-53 0 -93.5 -46t-40.5 -110q0 -49 26.5 -83.5t67.5 -34.5z" />
    <glyph glyph-name="ntilde" unicode="&#xf1;" horiz-adv-x="477" 
d="M28 19l50 362q2 19 20 19h30q11 0 13 -12l7 -34q62 56 134 56q79 0 109 -52.5t19 -137.5l-28 -201q-1 -7 -7 -13t-13 -6h-61q-16 0 -14 19l28 204q7 48 -7.5 74t-48.5 26t-62.5 -20.5t-39.5 -37.5l-35 -246q-3 -19 -25 -19h-55q-7 0 -11 6t-3 13zM184 568l-26 15
q-10 8 -4 23q6 14 16.5 30.5t34 35t47.5 18.5q22 0 38 -16t27 -32t22 -16q10 0 19 8t12 13.5t11 18.5q10 19 25 9l19 -14q15 -12 2 -32q-41 -75 -93 -75q-19 0 -36 16t-29.5 32.5t-21.5 16.5q-19 0 -41 -41q-10 -18 -22 -10z" />
    <glyph glyph-name="ograve" unicode="&#xf2;" horiz-adv-x="441" 
d="M24 173q0 97 62.5 167t152.5 70q66 0 111 -53.5t45 -127.5q0 -98 -62.5 -168.5t-152.5 -70.5q-65 0 -110.5 54t-45.5 129zM192 76q45 0 79 42.5t34 100.5q0 44 -21.5 74t-56.5 30q-45 0 -79 -42t-34 -100q0 -44 22 -74.5t56 -30.5zM323 546l-140 70q-17 8 -6 26l26 41
q9 13 24 3l131 -91q11 -6 3 -19l-15 -26q-7 -12 -23 -4z" />
    <glyph glyph-name="oacute" unicode="&#xf3;" horiz-adv-x="441" 
d="M24 173q0 97 62.5 167t152.5 70q66 0 111 -53.5t45 -127.5q0 -98 -62.5 -168.5t-152.5 -70.5q-65 0 -110.5 54t-45.5 129zM192 76q45 0 79 42.5t34 100.5q0 44 -21.5 74t-56.5 30q-45 0 -79 -42t-34 -100q0 -44 22 -74.5t56 -30.5zM198 543q-18 -8 -22 6l-11 31
q-4 12 8 19l156 91q4 4 13 3t12 -10l17 -44q7 -17 -9 -24z" />
    <glyph glyph-name="ocircumflex" unicode="&#xf4;" horiz-adv-x="441" 
d="M24 173q0 97 62.5 167t152.5 70q66 0 111 -53.5t45 -127.5q0 -98 -62.5 -168.5t-152.5 -70.5q-65 0 -110.5 54t-45.5 129zM192 76q45 0 79 42.5t34 100.5q0 44 -21.5 74t-56.5 30q-45 0 -79 -42t-34 -100q0 -44 22 -74.5t56 -30.5zM168 539q-6 -4 -9.5 -4.5t-6 1.5
t-6.5 8l-14 20q-9 15 5 24l126 98q12 8 22 0l98 -98q10 -10 2 -21l-18 -22q-11 -12 -23 -2l-77 60z" />
    <glyph glyph-name="otilde" unicode="&#xf5;" horiz-adv-x="441" 
d="M24 173q0 97 62.5 167t152.5 70q66 0 111 -53.5t45 -127.5q0 -98 -62.5 -168.5t-152.5 -70.5q-65 0 -110.5 54t-45.5 129zM192 76q45 0 79 42.5t34 100.5q0 44 -21.5 74t-56.5 30q-45 0 -79 -42t-34 -100q0 -44 22 -74.5t56 -30.5zM159 568l-26 15q-10 8 -4 23
q6 14 16.5 30.5t34 35t47.5 18.5q22 0 38 -16t27 -32t22 -16q10 0 19 8t12 13.5t11 18.5q10 19 25 9l19 -14q15 -12 2 -32q-41 -75 -93 -75q-19 0 -36 16t-29.5 32.5t-21.5 16.5q-19 0 -41 -41q-10 -18 -22 -10z" />
    <glyph glyph-name="odieresis" unicode="&#xf6;" horiz-adv-x="441" 
d="M24 173q0 97 62.5 167t152.5 70q66 0 111 -53.5t45 -127.5q0 -98 -62.5 -168.5t-152.5 -70.5q-65 0 -110.5 54t-45.5 129zM192 76q45 0 79 42.5t34 100.5q0 44 -21.5 74t-56.5 30q-45 0 -79 -42t-34 -100q0 -44 22 -74.5t56 -30.5zM351 567q-21 0 -34 14t-13 35
q0 26 19 45t43 19q21 0 34.5 -14.5t13.5 -35.5q0 -26 -19 -44.5t-44 -18.5zM172 567q-20 0 -33.5 14.5t-13.5 34.5q0 27 19 45.5t44 18.5q20 0 33.5 -14.5t13.5 -35.5q0 -26 -19 -44.5t-44 -18.5z" />
    <glyph glyph-name="divide" unicode="&#xf7;" horiz-adv-x="478" 
d="M263 471q-21 0 -35.5 16.5t-14.5 38.5q0 29 21 50t47 21q22 0 36.5 -16t14.5 -39q0 -28 -21 -49.5t-48 -21.5zM68 306q-7 0 -11 5.5t-3 13.5l6 42q1 7 6.5 13t12.5 6h351q7 0 11 -5.5t3 -13.5l-6 -42q-1 -7 -6.5 -13t-12.5 -6h-351zM161 157q0 29 20.5 50t47.5 21
q22 0 36.5 -16t14.5 -39q0 -28 -21 -49.5t-47 -21.5q-22 0 -36.5 16t-14.5 39z" />
    <glyph glyph-name="oslash" unicode="&#xf8;" horiz-adv-x="441" 
d="M28 19l-5 7q-12 12 2 26l23 22q-24 46 -24 99q0 97 62.5 167t152.5 70q63 0 108 -50l25 25q5 6 12 6t11 -6l7 -7q12 -12 -3 -26l-28 -27q24 -45 24 -96q0 -98 -62.5 -168.5t-152.5 -70.5q-63 0 -107 49l-21 -21q-12 -12 -24 1zM119 142l161 155q-21 26 -53 26
q-45 0 -79 -42t-34 -100q0 -24 5 -39zM139 102q21 -26 53 -26q45 0 79 42.5t34 100.5q0 18 -5 38z" />
    <glyph glyph-name="ugrave" unicode="&#xf9;" horiz-adv-x="465" 
d="M168 -10q-78 0 -105.5 52t-16.5 137l28 202q4 19 20 19h61q7 0 11.5 -5.5t3.5 -13.5l-29 -204q-7 -48 8.5 -74.5t48.5 -26.5q30 0 58 24.5t33 38.5l33 242q2 19 23 19h55q7 0 11.5 -5.5t3.5 -13.5l-51 -362q-1 -8 -7 -13.5t-13 -5.5h-29q-10 0 -14 16l-6 29
q-55 -55 -127 -55zM333 546l-140 70q-17 8 -6 26l26 41q9 13 24 3l131 -91q11 -6 3 -19l-15 -26q-7 -12 -23 -4z" />
    <glyph glyph-name="uacute" unicode="&#xfa;" horiz-adv-x="465" 
d="M168 -10q-78 0 -105.5 52t-16.5 137l28 202q4 19 20 19h61q7 0 11.5 -5.5t3.5 -13.5l-29 -204q-7 -48 8.5 -74.5t48.5 -26.5q30 0 58 24.5t33 38.5l33 242q2 19 23 19h55q7 0 11.5 -5.5t3.5 -13.5l-51 -362q-1 -8 -7 -13.5t-13 -5.5h-29q-10 0 -14 16l-6 29
q-55 -55 -127 -55zM209 543q-18 -8 -22 6l-11 31q-4 12 8 19l156 91q4 4 13 3t12 -10l17 -44q7 -17 -9 -24z" />
    <glyph glyph-name="ucircumflex" unicode="&#xfb;" horiz-adv-x="465" 
d="M168 -10q-78 0 -105.5 52t-16.5 137l28 202q4 19 20 19h61q7 0 11.5 -5.5t3.5 -13.5l-29 -204q-7 -48 8.5 -74.5t48.5 -26.5q30 0 58 24.5t33 38.5l33 242q2 19 23 19h55q7 0 11.5 -5.5t3.5 -13.5l-51 -362q-1 -8 -7 -13.5t-13 -5.5h-29q-10 0 -14 16l-6 29
q-55 -55 -127 -55zM178 539q-6 -4 -9.5 -4.5t-6 1.5t-6.5 8l-14 20q-9 15 5 24l126 98q12 8 22 0l98 -98q10 -10 2 -21l-18 -22q-11 -12 -23 -2l-77 60z" />
    <glyph glyph-name="udieresis" unicode="&#xfc;" horiz-adv-x="465" 
d="M168 -10q-78 0 -105.5 52t-16.5 137l28 202q4 19 20 19h61q7 0 11.5 -5.5t3.5 -13.5l-29 -204q-7 -48 8.5 -74.5t48.5 -26.5q30 0 58 24.5t33 38.5l33 242q2 19 23 19h55q7 0 11.5 -5.5t3.5 -13.5l-51 -362q-1 -8 -7 -13.5t-13 -5.5h-29q-10 0 -14 16l-6 29
q-55 -55 -127 -55zM362 567q-21 0 -34 14t-13 35q0 26 18.5 45t43.5 19q21 0 34.5 -14.5t13.5 -35.5q0 -26 -19 -44.5t-44 -18.5zM183 567q-20 0 -33.5 14.5t-13.5 34.5q0 27 19 45.5t44 18.5q20 0 33.5 -14.5t13.5 -35.5q0 -26 -19 -44.5t-44 -18.5z" />
    <glyph glyph-name="yacute" unicode="&#xfd;" horiz-adv-x="425" 
d="M125 21l-102 355q-3 10 2 17t15 7h58q10 0 14 -11l73 -268h1l144 268q6 11 22 11h58q11 0 14.5 -8t-2.5 -18l-367 -662q-6 -12 -17 -12h-63q-11 0 -14 7t3 18zM184 543q-18 -8 -22 6l-11 31q-4 12 8 19l156 91q4 4 13 3t12 -10l17 -44q7 -17 -9 -24z" />
    <glyph glyph-name="thorn" unicode="&#xfe;" 
d="M125 17l-42 -299q-1 -7 -7 -13t-13 -6h-62q-7 0 -11.5 5.5t-3.5 13.5l136 963q1 7 6.5 13t12.5 6h63q7 0 11 -6t3 -13l-42 -305q45 33 93 33q63 0 104.5 -52t41.5 -127q0 -103 -59.5 -171.5t-152.5 -68.5q-39 0 -78 27zM138 110q29 -34 68 -34q48 0 81.5 42.5t33.5 102.5
q0 43 -20.5 72.5t-56.5 29.5q-23 0 -43.5 -10.5t-28 -19t-11.5 -14.5z" />
    <glyph glyph-name="ydieresis" unicode="&#xff;" horiz-adv-x="425" 
d="M125 21l-102 355q-3 10 2 17t15 7h58q10 0 14 -11l73 -268h1l144 268q6 11 22 11h58q11 0 14.5 -8t-2.5 -18l-367 -662q-6 -12 -17 -12h-63q-11 0 -14 7t3 18zM337 567q-21 0 -34 14t-13 35q0 26 19 45t43 19q21 0 34.5 -14.5t13.5 -35.5q0 -26 -19 -44.5t-44 -18.5z
M158 567q-20 0 -33.5 14.5t-13.5 34.5q0 27 19 45.5t44 18.5q20 0 33.5 -14.5t13.5 -35.5q0 -26 -19 -44.5t-44 -18.5z" />
    <glyph glyph-name="Amacron" unicode="&#x100;" horiz-adv-x="603" 
d="M-17 0q-10 0 -13.5 8t1.5 18l372 673q5 11 17 11h9q10 0 14 -11l181 -673q2 -10 -3.5 -18t-15.5 -8h-60q-18 0 -21 15l-36 139h-275l-77 -139q-9 -15 -25 -15h-68zM195 238h210l-65 275h-4zM266 814q-17 0 -15 18l4 28q3 19 20 19h230q17 0 15 -19l-4 -28q-2 -18 -20 -18
h-230z" />
    <glyph glyph-name="amacron" unicode="&#x101;" 
d="M142 576q-17 0 -15 18l4 28q3 19 20 19h231q7 0 11 -5.5t3 -13.5l-4 -28q-2 -18 -20 -18h-230zM407 381l-47 -362q-1 -7 -7 -13t-13 -6h-33q-12 0 -13 14l-3 30q-54 -54 -123 -54q-62 0 -103 53t-41 130q0 95 59.5 166t141.5 71q27 0 52 -11t36 -20.5t18 -17.5l13 25
q7 14 19 14h30q7 0 11 -5.5t3 -13.5zM284 138l17 140q-3 5 -9 12.5t-27 20t-44 12.5q-47 0 -74.5 -42.5t-27.5 -106.5q0 -43 20 -70.5t55 -27.5q22 0 44 14.5t32 27t14 20.5z" />
    <glyph glyph-name="Abreve" unicode="&#x102;" horiz-adv-x="603" 
d="M-17 0q-10 0 -13.5 8t1.5 18l372 673q5 11 17 11h9q10 0 14 -11l181 -673q2 -10 -3.5 -18t-15.5 -8h-60q-18 0 -21 15l-36 139h-275l-77 -139q-9 -15 -25 -15h-68zM195 238h210l-65 275h-4zM380 768q-47 0 -78 33.5t-31 82.5q0 21 18 21h27q12 0 14 -15q2 -26 17.5 -42.5
t39.5 -16.5q22 0 41 17t29 42q7 15 18 15h33q19 0 12 -21q-15 -51 -53 -83.5t-87 -32.5z" />
    <glyph glyph-name="abreve" unicode="&#x103;" 
d="M258 529q-47 0 -78 33.5t-31 82.5q0 21 18 21h27q12 0 14 -15q2 -26 17.5 -42.5t39.5 -16.5q22 0 41 17t29 42q7 15 18 15h33q19 0 12 -21q-15 -51 -53 -83.5t-87 -32.5zM407 381l-47 -362q-1 -7 -7 -13t-13 -6h-33q-12 0 -13 14l-3 30q-54 -54 -123 -54q-62 0 -103 53
t-41 130q0 95 59.5 166t141.5 71q27 0 52 -11t36 -20.5t18 -17.5l13 25q7 14 19 14h30q7 0 11 -5.5t3 -13.5zM284 138l17 140q-3 5 -9 12.5t-27 20t-44 12.5q-47 0 -74.5 -42.5t-27.5 -106.5q0 -43 20 -70.5t55 -27.5q22 0 44 14.5t32 27t14 20.5z" />
    <glyph glyph-name="Aogonek" unicode="&#x104;" horiz-adv-x="603" 
d="M-17 0q-10 0 -13.5 8t1.5 18l372 673q5 11 17 11h9q10 0 14 -11l181 -673q2 -10 -3.5 -18t-15.5 -8h-35q-57 -51 -57 -107q0 -23 12.5 -37t37.5 -14q16 0 45 13q8 3 12 -1.5t3 -13.5l-4 -29q-1 -10 -15 -18q-20 -12 -62 -12q-41 0 -68 24t-27 65q0 35 18 68t32.5 47.5
t28.5 23.5l-38 145h-275l-77 -139q-9 -15 -25 -15h-68zM195 238h210l-65 275h-4z" />
    <glyph glyph-name="aogonek" unicode="&#x105;" 
d="M407 381l-47 -362q-1 -7 -7 -13t-13 -6h-2q-57 -51 -57 -107q0 -23 12.5 -37t37.5 -14q16 0 45 13q8 3 12 -1.5t3 -13.5l-4 -29q-1 -10 -15 -18q-20 -12 -62 -12q-41 0 -68 24t-27 65q0 36 18.5 69.5t33 47t27.5 23.5l-3 34q-54 -54 -123 -54q-62 0 -103 53t-41 130
q0 95 59.5 166t141.5 71q27 0 52 -11t36 -20.5t18 -17.5l13 25q7 14 19 14h30q7 0 11 -5.5t3 -13.5zM284 138l17 140q-3 5 -9 12.5t-27 20t-44 12.5q-47 0 -74.5 -42.5t-27.5 -106.5q0 -43 20 -70.5t55 -27.5q22 0 44 14.5t32 27t14 20.5z" />
    <glyph glyph-name="Cacute" unicode="&#x106;" horiz-adv-x="640" 
d="M57 310q0 168 111 284t268 116q121 0 205 -93q12 -13 -3 -28l-41 -37q-15 -15 -31 1q-24 25 -60.5 41.5t-75.5 16.5q-102 0 -181 -91.5t-79 -209.5q0 -92 48.5 -153t129.5 -61q74 0 156 65q16 14 28 -1l40 -46q4 -5 2.5 -13.5t-6.5 -13.5q-104 -97 -226 -97
q-127 0 -206 91t-79 229zM385 773q-18 -8 -22 6l-11 31q-4 12 8 19l156 91q4 4 13 3t12 -10l17 -44q7 -17 -9 -24z" />
    <glyph glyph-name="cacute" unicode="&#x107;" horiz-adv-x="403" 
d="M24 171q0 99 66.5 169t155.5 70q40 0 72 -19.5t50 -51.5q9 -16 -7 -28l-36 -25q-14 -9 -23 4q-26 33 -63 33q-46 0 -82.5 -44t-36.5 -102q0 -45 20.5 -73t55.5 -28q19 0 37 10t25 17.5t20 24.5q11 12 23 2l36 -28q15 -12 2 -28q-62 -84 -152 -84q-68 0 -115.5 52
t-47.5 129zM205 543q-18 -8 -22 6l-11 31q-4 12 8 19l156 91q4 4 13 3t12 -10l17 -44q7 -17 -9 -24z" />
    <glyph glyph-name="Ccircumflex" unicode="&#x108;" horiz-adv-x="640" 
d="M57 310q0 168 111 284t268 116q121 0 205 -93q12 -13 -3 -28l-41 -37q-15 -15 -31 1q-24 25 -60.5 41.5t-75.5 16.5q-102 0 -181 -91.5t-79 -209.5q0 -92 48.5 -153t129.5 -61q74 0 156 65q16 14 28 -1l40 -46q4 -5 2.5 -13.5t-6.5 -13.5q-104 -97 -226 -97
q-127 0 -206 91t-79 229zM354 772q-6 -4 -9.5 -4.5t-6 1.5t-6.5 8l-14 20q-9 15 5 24l126 98q12 8 22 0l98 -98q10 -10 2 -21l-18 -22q-11 -12 -23 -2l-77 60z" />
    <glyph glyph-name="ccircumflex" unicode="&#x109;" horiz-adv-x="403" 
d="M24 171q0 99 66.5 169t155.5 70q40 0 72 -19.5t50 -51.5q9 -16 -7 -28l-36 -25q-14 -9 -23 4q-26 33 -63 33q-46 0 -82.5 -44t-36.5 -102q0 -45 20.5 -73t55.5 -28q19 0 37 10t25 17.5t20 24.5q11 12 23 2l36 -28q15 -12 2 -28q-62 -84 -152 -84q-68 0 -115.5 52
t-47.5 129zM175 539q-6 -4 -9.5 -4.5t-6 1.5t-6.5 8l-14 20q-9 15 5 24l126 98q12 8 22 0l98 -98q10 -10 2 -21l-18 -22q-11 -12 -23 -2l-77 60z" />
    <glyph glyph-name="Cdotaccent" unicode="&#x10a;" horiz-adv-x="640" 
d="M57 310q0 168 111 284t268 116q121 0 205 -93q12 -13 -3 -28l-41 -37q-15 -15 -31 1q-24 25 -60.5 41.5t-75.5 16.5q-102 0 -181 -91.5t-79 -209.5q0 -92 48.5 -153t129.5 -61q74 0 156 65q16 14 28 -1l40 -46q4 -5 2.5 -13.5t-6.5 -13.5q-104 -97 -226 -97
q-127 0 -206 91t-79 229zM446 788q-22 0 -37 16.5t-15 40.5q0 29 21 50.5t49 21.5q23 0 38 -16t15 -40q0 -30 -21.5 -51.5t-49.5 -21.5z" />
    <glyph glyph-name="cdotaccent" unicode="&#x10b;" horiz-adv-x="403" 
d="M24 171q0 99 66.5 169t155.5 70q40 0 72 -19.5t50 -51.5q9 -16 -7 -28l-36 -25q-14 -9 -23 4q-26 33 -63 33q-46 0 -82.5 -44t-36.5 -102q0 -45 20.5 -73t55.5 -28q19 0 37 10t25 17.5t20 24.5q11 12 23 2l36 -28q15 -12 2 -28q-62 -84 -152 -84q-68 0 -115.5 52
t-47.5 129zM266 551q-22 0 -37 16.5t-15 39.5q0 30 21.5 51.5t48.5 21.5q23 0 38 -16.5t15 -40.5q0 -29 -21.5 -50.5t-49.5 -21.5z" />
    <glyph glyph-name="Ccaron" unicode="&#x10c;" horiz-adv-x="640" 
d="M57 310q0 168 111 284t268 116q121 0 205 -93q12 -13 -3 -28l-41 -37q-15 -15 -31 1q-24 25 -60.5 41.5t-75.5 16.5q-102 0 -181 -91.5t-79 -209.5q0 -92 48.5 -153t129.5 -61q74 0 156 65q16 14 28 -1l40 -46q4 -5 2.5 -13.5t-6.5 -13.5q-104 -97 -226 -97
q-127 0 -206 91t-79 229zM437 769l-98 98q-10 10 -2 21l18 22q11 12 23 2l77 -60l99 64q6 4 9.5 4.5t6 -1.5t6.5 -8l14 -20q9 -15 -5 -24l-126 -98q-12 -8 -22 0z" />
    <glyph glyph-name="ccaron" unicode="&#x10d;" horiz-adv-x="403" 
d="M24 171q0 99 66.5 169t155.5 70q40 0 72 -19.5t50 -51.5q9 -16 -7 -28l-36 -25q-14 -9 -23 4q-26 33 -63 33q-46 0 -82.5 -44t-36.5 -102q0 -45 20.5 -73t55.5 -28q19 0 37 10t25 17.5t20 24.5q11 12 23 2l36 -28q15 -12 2 -28q-62 -84 -152 -84q-68 0 -115.5 52
t-47.5 129zM257 536l-98 98q-10 10 -2 21l18 22q11 12 23 2l77 -60l99 64q6 4 9.5 4.5t6 -1.5t6.5 -8l14 -20q9 -15 -5 -24l-126 -98q-12 -8 -22 0z" />
    <glyph glyph-name="Dcaron" unicode="&#x10e;" horiz-adv-x="687" 
d="M58 19l93 662q1 7 6.5 13t12.5 6h209q116 0 193.5 -90t77.5 -215q0 -164 -107 -279.5t-262 -115.5h-210q-7 0 -11 5.5t-2 13.5zM170 95h112q106 0 181.5 85.5t75.5 210.5q0 93 -51 153.5t-134 60.5h-112zM364 769l-98 98q-10 10 -2 21l18 22q11 12 23 2l77 -60l99 64
q6 4 9.5 4.5t6 -1.5t6.5 -8l14 -20q9 -15 -5 -24l-126 -98q-12 -8 -22 0z" />
    <glyph glyph-name="dcaron" unicode="&#x10f;" horiz-adv-x="490" 
d="M168 -10q-62 0 -103 52t-41 126q0 102 62.5 172t150.5 70q41 0 79 -23l41 294q3 19 24 19h57q7 0 11.5 -5.5t3.5 -13.5l-93 -662q-4 -19 -20 -19h-30q-10 0 -13 14l-6 30q-54 -54 -123 -54zM194 76q22 0 44 14.5t32 27t14 20.5l21 162q-25 23 -71 23q-47 0 -81 -42.5
t-34 -101.5q0 -44 20 -73.5t55 -29.5zM534 427l-11 15q-9 11 5 23l6 5q5 5 9 8.5t11.5 11t13 14.5t12 17t11.5 20t9 22.5t6 25.5q-3 -3 -22 -3q-21 0 -35.5 16t-14.5 38q0 28 21 49t49 21q24 0 41.5 -18.5t17.5 -58.5q0 -105 -107 -205q-13 -12 -22 -1z" />
    <glyph glyph-name="Dcroat" unicode="&#x110;" horiz-adv-x="690" 
d="M62 19l42 303h-26q-7 0 -11 5.5t-2 13.5l2 10q4 19 18 19h26l44 311q1 7 6.5 13t12.5 6h209q115 0 193 -90.5t78 -213.5q0 -163 -107.5 -279.5t-261.5 -116.5h-210q-7 0 -11 5.5t-2 13.5zM174 95h112q106 0 181.5 85.5t75.5 210.5q0 93 -51 153.5t-134 60.5h-112
l-33 -235h160q7 0 12 -5.5t3 -13.5l-2 -11q-4 -18 -20 -18h-160z" />
    <glyph glyph-name="dcroat" unicode="&#x111;" 
d="M168 -10q-62 0 -103 52t-41 126q0 102 62.5 172t150.5 70q41 0 79 -23l20 147h-114q-8 0 -12 5.5t-3 12.5l2 11q4 19 19 19h115l14 99q3 19 24 19h57q7 0 11.5 -5.5t3.5 -13.5l-14 -99h30q7 0 11 -6t3 -13l-2 -10q-4 -19 -19 -19h-30l-72 -515q-4 -19 -20 -19h-30
q-10 0 -13 14l-6 30q-54 -54 -123 -54zM194 76q22 0 44 14.5t32 27t14 20.5l21 162q-25 23 -71 23q-47 0 -81 -42.5t-34 -101.5q0 -44 20 -73.5t55 -29.5z" />
    <glyph glyph-name="Emacron" unicode="&#x112;" horiz-adv-x="546" 
d="M58 19l93 662q1 7 6.5 13t12.5 6h363q16 0 14 -19l-8 -56q-1 -8 -6.5 -13.5t-12.5 -5.5h-277l-29 -204h233q7 0 11 -5.5t3 -13.5l-8 -56q-3 -19 -19 -19h-233l-30 -215h277q7 0 11 -5.5t3 -13.5l-8 -55q-1 -8 -7 -13.5t-13 -5.5h-362q-7 0 -11.5 5.5t-2.5 13.5zM259 814
q-17 0 -15 18l4 28q3 19 20 19h230q17 0 15 -19l-4 -28q-2 -18 -20 -18h-230z" />
    <glyph glyph-name="emacron" unicode="&#x113;" horiz-adv-x="412" 
d="M24 169q0 98 62.5 169.5t160.5 71.5q58 0 96 -30t38 -84q0 -40 -26.5 -68t-66.5 -38.5t-86.5 -15t-85.5 2.5q-4 -43 17 -73t61 -30t81 28q17 11 24 1l27 -37q11 -14 -5 -26q-62 -50 -141 -50q-71 0 -113.5 51.5t-42.5 127.5zM131 244q160 -14 160 47q0 19 -16 30.5
t-38 11.5q-40 0 -68.5 -25t-37.5 -64zM154 576q-17 0 -15 18l4 28q3 19 20 19h231q7 0 11 -5.5t3 -13.5l-4 -28q-2 -18 -20 -18h-230z" />
    <glyph glyph-name="Ebreve" unicode="&#x114;" horiz-adv-x="546" 
d="M58 19l93 662q1 7 6.5 13t12.5 6h363q16 0 14 -19l-8 -56q-1 -8 -6.5 -13.5t-12.5 -5.5h-277l-29 -204h233q7 0 11 -5.5t3 -13.5l-8 -56q-3 -19 -19 -19h-233l-30 -215h277q7 0 11 -5.5t3 -13.5l-8 -55q-1 -8 -7 -13.5t-13 -5.5h-362q-7 0 -11.5 5.5t-2.5 13.5zM373 768
q-47 0 -78 33.5t-31 82.5q0 21 18 21h27q12 0 14 -15q2 -26 17.5 -42.5t39.5 -16.5q22 0 41 17t29 42q7 15 18 15h33q19 0 12 -21q-15 -51 -53 -83.5t-87 -32.5z" />
    <glyph glyph-name="ebreve" unicode="&#x115;" horiz-adv-x="412" 
d="M24 169q0 98 62.5 169.5t160.5 71.5q58 0 96 -30t38 -84q0 -40 -26.5 -68t-66.5 -38.5t-86.5 -15t-85.5 2.5q-4 -43 17 -73t61 -30t81 28q17 11 24 1l27 -37q11 -14 -5 -26q-62 -50 -141 -50q-71 0 -113.5 51.5t-42.5 127.5zM131 244q160 -14 160 47q0 19 -16 30.5
t-38 11.5q-40 0 -68.5 -25t-37.5 -64zM269 529q-47 0 -78 33.5t-31 82.5q0 21 18 21h27q12 0 14 -15q2 -26 17.5 -42.5t39.5 -16.5q22 0 41 17t29 42q7 15 18 15h33q19 0 12 -21q-15 -51 -53 -83.5t-87 -32.5z" />
    <glyph glyph-name="Edotaccent" unicode="&#x116;" horiz-adv-x="546" 
d="M58 19l93 662q1 7 6.5 13t12.5 6h363q16 0 14 -19l-8 -56q-1 -8 -6.5 -13.5t-12.5 -5.5h-277l-29 -204h233q7 0 11 -5.5t3 -13.5l-8 -56q-3 -19 -19 -19h-233l-30 -215h277q7 0 11 -5.5t3 -13.5l-8 -55q-1 -8 -7 -13.5t-13 -5.5h-362q-7 0 -11.5 5.5t-2.5 13.5zM371 788
q-22 0 -37 16.5t-15 40.5q0 29 21.5 50.5t48.5 21.5q23 0 38 -16t15 -40q0 -30 -21.5 -51.5t-49.5 -21.5z" />
    <glyph glyph-name="edotaccent" unicode="&#x117;" horiz-adv-x="412" 
d="M24 169q0 98 62.5 169.5t160.5 71.5q58 0 96 -30t38 -84q0 -40 -26.5 -68t-66.5 -38.5t-86.5 -15t-85.5 2.5q-4 -43 17 -73t61 -30t81 28q17 11 24 1l27 -37q11 -14 -5 -26q-62 -50 -141 -50q-71 0 -113.5 51.5t-42.5 127.5zM131 244q160 -14 160 47q0 19 -16 30.5
t-38 11.5q-40 0 -68.5 -25t-37.5 -64zM266 551q-22 0 -37 16.5t-15 39.5q0 30 21.5 51.5t48.5 21.5q23 0 38 -16.5t15 -40.5q0 -29 -21.5 -50.5t-49.5 -21.5z" />
    <glyph glyph-name="Eogonek" unicode="&#x118;" horiz-adv-x="545" 
d="M58 19l93 662q1 7 6.5 13t12.5 6h363q16 0 14 -19l-8 -56q-1 -8 -6.5 -13.5t-12.5 -5.5h-277l-29 -204h233q7 0 11 -5.5t3 -13.5l-8 -56q-3 -19 -19 -19h-233l-30 -215h277q7 0 11 -5.5t3 -13.5l-7 -47q-1 -8 -3.5 -12.5t-9.5 -9.5l-7 -5q-57 -51 -57 -107
q0 -23 12.5 -37t37.5 -14q16 0 45 13q8 3 12.5 -1.5t2.5 -13.5l-4 -29q-1 -10 -15 -18q-20 -12 -62 -12q-41 0 -68 24t-27 65q0 74 67 130h-307q-7 0 -11.5 5.5t-2.5 13.5z" />
    <glyph glyph-name="eogonek" unicode="&#x119;" horiz-adv-x="413" 
d="M153 -7q-59 10 -93.5 59t-34.5 117q0 98 62.5 169.5t160.5 71.5q58 0 96 -30t38 -84q0 -40 -26.5 -68t-66.5 -38.5t-86.5 -15t-85.5 2.5q-4 -43 17 -73.5t61 -30.5q39 0 81 29q17 11 24 1l27 -37q11 -14 -5 -26q-50 -40 -113 -48q-48 -48 -48 -99q0 -23 12.5 -37
t37.5 -14q16 0 45 13q8 3 12 -1.5t3 -13.5l-4 -29q-1 -10 -15 -18q-20 -12 -62 -12q-41 0 -68 24t-27 65q0 67 58 123zM132 244q160 -14 160 47q0 19 -16 30.5t-38 11.5q-40 0 -68.5 -25t-37.5 -64z" />
    <glyph glyph-name="Ecaron" unicode="&#x11a;" horiz-adv-x="546" 
d="M58 19l93 662q1 7 6.5 13t12.5 6h363q16 0 14 -19l-8 -56q-1 -8 -6.5 -13.5t-12.5 -5.5h-277l-29 -204h233q7 0 11 -5.5t3 -13.5l-8 -56q-3 -19 -19 -19h-233l-30 -215h277q7 0 11 -5.5t3 -13.5l-8 -55q-1 -8 -7 -13.5t-13 -5.5h-362q-7 0 -11.5 5.5t-2.5 13.5zM360 769
l-98 98q-10 10 -2 21l18 22q11 12 23 2l77 -60l99 64q6 4 9.5 4.5t6 -1.5t6.5 -8l14 -20q9 -15 -5 -24l-126 -98q-12 -8 -22 0z" />
    <glyph glyph-name="ecaron" unicode="&#x11b;" horiz-adv-x="412" 
d="M24 169q0 98 62.5 169.5t160.5 71.5q58 0 96 -30t38 -84q0 -40 -26.5 -68t-66.5 -38.5t-86.5 -15t-85.5 2.5q-4 -43 17 -73t61 -30t81 28q17 11 24 1l27 -37q11 -14 -5 -26q-62 -50 -141 -50q-71 0 -113.5 51.5t-42.5 127.5zM131 244q160 -14 160 47q0 19 -16 30.5
t-38 11.5q-40 0 -68.5 -25t-37.5 -64zM256 536l-98 98q-10 10 -2 21l18 22q11 12 23 2l77 -60l99 64q6 4 9.5 4.5t6 -1.5t6.5 -8l14 -20q9 -15 -5 -24l-126 -98q-12 -8 -22 0z" />
    <glyph glyph-name="Gcircumflex" unicode="&#x11c;" horiz-adv-x="666" 
d="M57 301q0 175 110 292t269 117q121 0 205 -93q12 -13 -3 -28l-40 -38q-15 -15 -31 1q-24 25 -61 42t-76 17q-102 0 -180.5 -89t-78.5 -207q0 -93 49.5 -157.5t129.5 -64.5q70 0 131 33l16 112h-82q-7 0 -11.5 5t-2.5 13l8 58q2 19 20 19h167q14 0 14 -17l-33 -244
q-2 -10 -10 -16q-11 -7 -31.5 -18t-81 -29.5t-118.5 -18.5q-121 0 -200 90t-79 221zM368 772q-6 -4 -9.5 -4.5t-6 1.5t-6.5 8l-14 20q-9 15 5 24l126 98q12 8 22 0l98 -98q10 -10 2 -21l-18 -22q-11 -12 -23 -2l-77 60z" />
    <glyph glyph-name="gcircumflex" unicode="&#x11d;" horiz-adv-x="460" 
d="M172 -10q-64 0 -106.5 54.5t-42.5 129.5q0 94 60 165t144 71q27 0 52 -11t36 -20.5t18 -17.5l13 25q7 14 19 14h30q7 0 11 -5.5t3 -13.5l-57 -419q-30 -222 -195 -222q-34 0 -62.5 10.5t-45.5 26t-25 25t-12 16.5q-12 20 3 33l32 29q13 11 25 -2q1 -1 5.5 -6t7.5 -8.5
t9 -9.5t12.5 -10t14 -8t16 -6t17.5 -2q43 0 65.5 29t34.5 105l7 49q-10 -6 -35.5 -13.5t-53.5 -7.5zM195 76q21 0 41 7t30 14l9 7l24 167q-3 13 -22.5 32.5t-50.5 19.5q-47 0 -79 -42.5t-32 -100.5q0 -44 22.5 -74t57.5 -30zM168 539q-6 -4 -9.5 -4.5t-6 1.5t-6.5 8l-14 20
q-9 15 5 24l126 98q12 8 22 0l98 -98q10 -10 2 -21l-18 -22q-11 -12 -23 -2l-77 60z" />
    <glyph glyph-name="Gbreve" unicode="&#x11e;" horiz-adv-x="666" 
d="M57 301q0 175 110 292t269 117q121 0 205 -93q12 -13 -3 -28l-40 -38q-15 -15 -31 1q-24 25 -61 42t-76 17q-102 0 -180.5 -89t-78.5 -207q0 -93 49.5 -157.5t129.5 -64.5q70 0 131 33l16 112h-82q-7 0 -11.5 5t-2.5 13l8 58q2 19 20 19h167q14 0 14 -17l-33 -244
q-2 -10 -10 -16q-11 -7 -31.5 -18t-81 -29.5t-118.5 -18.5q-121 0 -200 90t-79 221zM454 768q-47 0 -78 33.5t-31 82.5q0 21 18 21h27q12 0 14 -15q2 -26 17.5 -42.5t39.5 -16.5q22 0 41 17t29 42q7 15 18 15h33q19 0 12 -21q-15 -51 -53 -83.5t-87 -32.5z" />
    <glyph glyph-name="gbreve" unicode="&#x11f;" horiz-adv-x="460" 
d="M172 -10q-64 0 -106.5 54.5t-42.5 129.5q0 94 60 165t144 71q27 0 52 -11t36 -20.5t18 -17.5l13 25q7 14 19 14h30q7 0 11 -5.5t3 -13.5l-57 -419q-30 -222 -195 -222q-34 0 -62.5 10.5t-45.5 26t-25 25t-12 16.5q-12 20 3 33l32 29q13 11 25 -2q1 -1 5.5 -6t7.5 -8.5
t9 -9.5t12.5 -10t14 -8t16 -6t17.5 -2q43 0 65.5 29t34.5 105l7 49q-10 -6 -35.5 -13.5t-53.5 -7.5zM195 76q21 0 41 7t30 14l9 7l24 167q-3 13 -22.5 32.5t-50.5 19.5q-47 0 -79 -42.5t-32 -100.5q0 -44 22.5 -74t57.5 -30zM264 529q-47 0 -78 33.5t-31 82.5q0 21 18 21h27
q12 0 14 -15q2 -26 17.5 -42.5t39.5 -16.5q22 0 41 17t29 42q7 15 18 15h33q19 0 12 -21q-15 -51 -53 -83.5t-87 -32.5z" />
    <glyph glyph-name="Gdotaccent" unicode="&#x120;" horiz-adv-x="666" 
d="M57 301q0 175 110 292t269 117q121 0 205 -93q12 -13 -3 -28l-40 -38q-15 -15 -31 1q-24 25 -61 42t-76 17q-102 0 -180.5 -89t-78.5 -207q0 -93 49.5 -157.5t129.5 -64.5q70 0 131 33l16 112h-82q-7 0 -11.5 5t-2.5 13l8 58q2 19 20 19h167q14 0 14 -17l-33 -244
q-2 -10 -10 -16q-11 -7 -31.5 -18t-81 -29.5t-118.5 -18.5q-121 0 -200 90t-79 221zM451 788q-22 0 -37 16.5t-15 40.5q0 29 21.5 50.5t48.5 21.5q23 0 38 -16t15 -40q0 -30 -21.5 -51.5t-49.5 -21.5z" />
    <glyph glyph-name="gdotaccent" unicode="&#x121;" horiz-adv-x="460" 
d="M172 -10q-64 0 -106.5 54.5t-42.5 129.5q0 94 60 165t144 71q27 0 52 -11t36 -20.5t18 -17.5l13 25q7 14 19 14h30q7 0 11 -5.5t3 -13.5l-57 -419q-30 -222 -195 -222q-34 0 -62.5 10.5t-45.5 26t-25 25t-12 16.5q-12 20 3 33l32 29q13 11 25 -2q1 -1 5.5 -6t7.5 -8.5
t9 -9.5t12.5 -10t14 -8t16 -6t17.5 -2q43 0 65.5 29t34.5 105l7 49q-10 -6 -35.5 -13.5t-53.5 -7.5zM195 76q21 0 41 7t30 14l9 7l24 167q-3 13 -22.5 32.5t-50.5 19.5q-47 0 -79 -42.5t-32 -100.5q0 -44 22.5 -74t57.5 -30zM258 551q-22 0 -37 16.5t-15 39.5
q0 30 21.5 51.5t48.5 21.5q23 0 38 -16.5t15 -40.5q0 -29 -21.5 -50.5t-49.5 -21.5z" />
    <glyph glyph-name="Gcommaaccent" unicode="&#x122;" horiz-adv-x="666" 
d="M57 301q0 175 110 292t269 117q121 0 205 -93q12 -13 -3 -28l-40 -38q-15 -15 -31 1q-24 25 -61 42t-76 17q-102 0 -180.5 -89t-78.5 -207q0 -93 49.5 -157.5t129.5 -64.5q70 0 131 33l16 112h-82q-7 0 -11.5 5t-2.5 13l8 58q2 19 20 19h167q14 0 14 -17l-33 -244
q-2 -10 -10 -16q-11 -7 -31.5 -18t-81 -29.5t-118.5 -18.5q-121 0 -200 90t-79 221zM251 -162q0 28 20.5 49t49.5 21q24 0 41.5 -18.5t17.5 -58.5q0 -105 -107 -205q-13 -12 -22 -1l-11 15q-9 11 5 23l5 5q6 5 10 8.5t11.5 11t13 14.5t12 17t11.5 20t9 22.5t6 25.5
q-3 -3 -22 -3q-21 0 -35.5 16t-14.5 38z" />
    <glyph glyph-name="gcommaaccent" unicode="&#x123;" horiz-adv-x="460" 
d="M263 529q-24 0 -41.5 18.5t-17.5 58.5q0 105 107 205q13 12 22 1l11 -15q9 -11 -5 -23l-5 -5q-6 -5 -10 -8.5t-11.5 -11t-13 -14.5t-12 -17t-11.5 -20t-9 -22.5t-6 -25.5q3 3 22 3q21 0 35.5 -16t14.5 -38q0 -29 -20.5 -49.5t-49.5 -20.5zM172 -10q-64 0 -106.5 54.5
t-42.5 129.5q0 94 60 165t144 71q27 0 52 -11t36 -20.5t18 -17.5l13 25q7 14 19 14h30q7 0 11 -5.5t3 -13.5l-57 -419q-30 -222 -195 -222q-34 0 -62.5 10.5t-45.5 26t-25 25t-12 16.5q-12 20 3 33l32 29q13 11 25 -2q1 -1 5.5 -6t7.5 -8.5t9 -9.5t12.5 -10t14 -8t16 -6
t17.5 -2q43 0 65.5 29t34.5 105l7 49q-10 -6 -35.5 -13.5t-53.5 -7.5zM195 76q21 0 41 7t30 14l9 7l24 167q-3 13 -22.5 32.5t-50.5 19.5q-47 0 -79 -42.5t-32 -100.5q0 -44 22.5 -74t57.5 -30z" />
    <glyph glyph-name="Hcircumflex" unicode="&#x124;" horiz-adv-x="711" 
d="M58 19l93 662q4 19 20 19h70q7 0 11.5 -5.5t3.5 -13.5l-40 -279h314l39 279q4 19 20 19h70q7 0 11 -6t3 -13l-93 -662q-1 -7 -6.5 -13t-12.5 -6h-70q-7 0 -11.5 5.5t-3.5 13.5l41 289h-314l-41 -289q-1 -8 -6.5 -13.5t-12.5 -5.5h-70q-7 0 -11.5 5.5t-3.5 13.5zM334 772
q-6 -4 -9.5 -4.5t-6 1.5t-6.5 8l-14 20q-9 15 5 24l126 98q12 8 22 0l98 -98q10 -10 2 -21l-18 -22q-11 -12 -23 -2l-77 60z" />
    <glyph glyph-name="hcircumflex" unicode="&#x125;" horiz-adv-x="477" 
d="M28 19l93 662q1 7 6.5 13t12.5 6h63q7 0 11 -6t3 -13l-44 -314q55 43 109 43q75 0 107.5 -52.5t20.5 -137.5l-28 -201q-1 -7 -7 -13t-13 -6h-60q-16 0 -14 19l28 201q7 49 -8.5 75.5t-49.5 26.5q-32 0 -60 -22t-40 -42l-34 -239q-3 -19 -21 -19h-61q-7 0 -11 5.5t-3 13.5
zM86 756q-6 -4 -9.5 -4.5t-6 1.5t-6.5 8l-14 20q-9 15 5 24l126 98q12 8 22 0l98 -98q10 -10 2 -21l-18 -22q-11 -12 -23 -2l-77 60z" />
    <glyph glyph-name="Hbar" unicode="&#x126;" horiz-adv-x="711" 
d="M58 19l73 515h-23q-15 0 -13 19l1 10q1 7 6.5 13t12.5 6h23l13 99q4 19 20 19h70q7 0 11.5 -5.5t3.5 -13.5l-14 -99h313l14 99q4 19 20 19h70q7 0 11 -6t3 -13l-13 -99h21q16 0 14 -19l-1 -11q-2 -18 -20 -18h-21l-73 -515q-1 -7 -6.5 -13t-12.5 -6h-70q-7 0 -11.5 5.5
t-3.5 13.5l41 289h-314l-41 -289q-1 -8 -6.5 -13.5t-12.5 -5.5h-70q-7 0 -11.5 5.5t-3.5 13.5zM216 402h314l19 132h-314z" />
    <glyph glyph-name="hbar" unicode="&#x127;" horiz-adv-x="477" 
d="M28 19l72 515h-29q-15 0 -13 19l1 10q4 19 19 19h29l14 99q1 7 6.5 13t12.5 6h63q7 0 11 -6t3 -13l-14 -99h116q7 0 11 -5.5t3 -13.5l-2 -11q-2 -18 -19 -18h-116l-23 -167q55 43 109 43q75 0 107.5 -52.5t20.5 -137.5l-28 -201q-1 -7 -7 -13t-13 -6h-60q-16 0 -14 19
l28 201q7 49 -8.5 75.5t-49.5 26.5q-32 0 -60 -22t-40 -42l-34 -239q-3 -19 -21 -19h-61q-7 0 -11 5.5t-3 13.5z" />
    <glyph glyph-name="Itilde" unicode="&#x128;" horiz-adv-x="292" 
d="M58 19l93 662q1 7 6.5 13t12.5 6h70q7 0 11 -6t3 -13l-93 -662q-1 -8 -6.5 -13.5t-12.5 -5.5h-70q-7 0 -11 6t-3 13zM114 791l-26 15q-10 8 -4 23q6 14 16.5 30.5t34 35t47.5 18.5q22 0 38 -16t27 -32t22 -16q20 0 42 40q10 19 25 9l19 -14q15 -12 2 -32q-41 -75 -93 -75
q-19 0 -36 16.5t-29.5 32.5t-21.5 16q-19 0 -41 -41q-10 -18 -22 -10z" />
    <glyph glyph-name="itilde" unicode="&#x129;" horiz-adv-x="224" 
d="M48 568l-26 15q-10 8 -4 23q6 14 16.5 30.5t34 35t47.5 18.5q22 0 38 -16t27 -32t22 -16q10 0 19 8t12 13.5t11 18.5q10 19 25 9l19 -14q15 -12 2 -32q-41 -75 -93 -75q-19 0 -36 16t-29.5 32.5t-21.5 16.5q-19 0 -41 -41q-10 -18 -22 -10zM28 19l50 362q4 19 20 19h61
q7 0 11.5 -5.5t3.5 -13.5l-51 -362q-1 -7 -7 -13t-13 -6h-61q-7 0 -11 6t-3 13z" />
    <glyph glyph-name="Imacron" unicode="&#x12a;" horiz-adv-x="292" 
d="M58 19l93 662q1 7 6.5 13t12.5 6h70q7 0 11 -6t3 -13l-93 -662q-1 -8 -6.5 -13.5t-12.5 -5.5h-70q-7 0 -11 6t-3 13zM104 814q-17 0 -15 18l4 28q3 19 20 19h230q17 0 15 -19l-4 -28q-2 -18 -20 -18h-230z" />
    <glyph glyph-name="imacron" unicode="&#x12b;" horiz-adv-x="224" 
d="M35 576q-17 0 -15 18l4 28q3 19 20 19h231q7 0 11 -5.5t3 -13.5l-4 -28q-2 -18 -20 -18h-230zM28 19l50 362q4 19 20 19h61q7 0 11.5 -5.5t3.5 -13.5l-51 -362q-1 -7 -7 -13t-13 -6h-61q-7 0 -11 6t-3 13z" />
    <glyph glyph-name="Ibreve" unicode="&#x12c;" horiz-adv-x="292" 
d="M58 19l93 662q1 7 6.5 13t12.5 6h70q7 0 11 -6t3 -13l-93 -662q-1 -8 -6.5 -13.5t-12.5 -5.5h-70q-7 0 -11 6t-3 13zM217 768q-47 0 -78 33.5t-31 82.5q0 21 18 21h27q12 0 14 -15q2 -26 17.5 -42.5t39.5 -16.5q22 0 41 17t29 42q7 15 18 15h33q19 0 12 -21
q-15 -51 -53 -83.5t-87 -32.5z" />
    <glyph glyph-name="ibreve" unicode="&#x12d;" horiz-adv-x="224" 
d="M153 529q-47 0 -78 33.5t-31 82.5q0 21 18 21h27q12 0 14 -15q2 -26 17.5 -42.5t39.5 -16.5q22 0 41 17t29 42q7 15 18 15h33q19 0 12 -21q-15 -51 -53 -83.5t-87 -32.5zM28 19l50 362q4 19 20 19h61q7 0 11.5 -5.5t3.5 -13.5l-51 -362q-1 -7 -7 -13t-13 -6h-61
q-7 0 -11 6t-3 13z" />
    <glyph glyph-name="Iogonek" unicode="&#x12e;" horiz-adv-x="292" 
d="M58 19l93 662q1 7 6.5 13t12.5 6h70q7 0 11 -6t3 -13l-93 -662q-1 -8 -6.5 -13.5t-12.5 -5.5h-15q-57 -51 -57 -107q0 -23 12.5 -37t37.5 -14q16 0 45 13q7 3 12 -1.5t3 -13.5l-4 -29q-1 -10 -15 -18q-20 -12 -62 -12q-41 0 -68 24t-27 65q0 74 67 130q-7 0 -11 5.5
t-2 13.5z" />
    <glyph glyph-name="iogonek" unicode="&#x12f;" horiz-adv-x="224" 
d="M150 563q-21 0 -34 15t-13 36q0 27 19 46.5t45 19.5q22 0 36 -15t14 -37q0 -27 -20 -46t-47 -19zM28 19l50 362q1 7 7 13t13 6h62q7 0 11 -5.5t3 -13.5l-51 -362q-1 -7 -7 -13t-13 -6h-15q-57 -51 -57 -107q0 -23 12.5 -37t37.5 -14q16 0 45 13q8 3 12 -1.5t3 -13.5
l-4 -29q-1 -10 -15 -18q-20 -12 -62 -12q-41 0 -68 24t-27 65q0 44 22 78.5t48 53.5q-9 5 -7 17z" />
    <glyph glyph-name="Idotaccent" unicode="&#x130;" horiz-adv-x="292" 
d="M58 19l93 662q1 7 6.5 13t12.5 6h70q7 0 11 -6t3 -13l-93 -662q-1 -8 -6.5 -13.5t-12.5 -5.5h-70q-7 0 -11 6t-3 13zM216 788q-22 0 -37 16.5t-15 40.5q0 29 21 50.5t49 21.5q23 0 38 -16t15 -40q0 -30 -21.5 -51.5t-49.5 -21.5z" />
    <glyph glyph-name="dotlessi" unicode="&#x131;" horiz-adv-x="224" 
d="M28 19l50 362q4 19 20 19h61q7 0 11.5 -5.5t3.5 -13.5l-51 -362q-1 -7 -7 -13t-13 -6h-61q-7 0 -11 6t-3 13z" />
    <glyph glyph-name="IJ" unicode="&#x132;" horiz-adv-x="683" 
d="M58 19l93 662q1 7 6.5 13t12.5 6h70q7 0 11 -6t3 -13l-93 -662q-1 -8 -6.5 -13.5t-12.5 -5.5h-70q-7 0 -11 6t-3 13zM252 63q-6 13 6 25l32 31q15 15 28 -2q28 -35 73 -35q34 0 63.5 32.5t37.5 93.5l66 473q1 8 7 13.5t13 5.5h70q7 0 11.5 -5.5t2.5 -13.5l-66 -472
q-30 -219 -209 -219q-51 0 -87 24.5t-48 48.5z" />
    <glyph glyph-name="ij" unicode="&#x133;" horiz-adv-x="451" 
d="M150 563q-21 0 -34 15t-13 36q0 27 19 46.5t45 19.5q22 0 36 -15t14 -37q0 -27 -20 -46t-47 -19zM28 19l50 362q1 7 7 13t13 6h62q7 0 11 -5.5t3 -13.5l-51 -362q-1 -7 -7 -13t-13 -6h-61q-7 0 -11 5.5t-3 13.5zM378 563q-21 0 -34.5 14.5t-13.5 36.5q0 27 19 46.5
t45 19.5q22 0 36 -15t14 -37q0 -27 -19.5 -46t-46.5 -19zM234 -124l71 505q1 8 7 13.5t13 5.5h62q7 0 11.5 -5.5t3.5 -13.5l-71 -505q-12 -91 -60.5 -138.5t-121.5 -47.5q-65 0 -103 40q-10 10 0 23l25 37q11 16 25 5q23 -18 56 -18q67 0 82 99z" />
    <glyph glyph-name="Jcircumflex" unicode="&#x134;" horiz-adv-x="393" 
d="M-38 63q-6 13 6 25l32 31q15 15 28 -2q28 -35 73 -35q34 0 63.5 32.5t37.5 93.5l66 473q1 8 7 13.5t13 5.5h70q7 0 11.5 -5.5t2.5 -13.5l-66 -472q-30 -219 -209 -219q-51 0 -87 24.5t-48 48.5zM242 772q-6 -4 -9.5 -4.5t-6 1.5t-6.5 8l-14 20q-9 15 5 24l126 98
q12 8 22 0l98 -98q10 -10 2 -21l-18 -22q-11 -12 -23 -2l-77 60z" />
    <glyph glyph-name="jcircumflex" unicode="&#x135;" horiz-adv-x="225" 
d="M8 -124l71 505q1 8 7 13.5t13 5.5h62q7 0 11.5 -5.5t3.5 -13.5l-71 -505q-12 -91 -60.5 -138.5t-121.5 -47.5q-65 0 -103 40q-10 10 0 23l25 37q11 16 25 5q22 -18 56 -18q67 0 82 99zM61 539q-6 -4 -9.5 -4.5t-6 1.5t-6.5 8l-14 20q-9 15 5 24l126 98q12 8 22 0l98 -98
q10 -10 2 -21l-18 -22q-11 -12 -23 -2l-77 60z" />
    <glyph glyph-name="Kcommaaccent" unicode="&#x136;" horiz-adv-x="594" 
d="M59 24l92 652q4 24 25 24h63q9 0 14.5 -7t4.5 -17l-39 -277l273 288q11 13 27 13h80q12 0 15 -12t-7 -23l-295 -304l220 -328q7 -10 1.5 -21.5t-19.5 -11.5h-72q-16 0 -25 13l-207 322l-44 -311q-2 -10 -9 -17t-16 -7h-63q-9 0 -14.5 7t-4.5 17zM188 -162q0 28 21 49
t49 21q24 0 41.5 -18.5t17.5 -58.5q0 -105 -107 -205q-13 -12 -22 -1l-11 15q-9 11 5 23l6 5q5 5 9 8.5t11.5 11t13 14.5t12 17t11.5 20t9 22.5t6 25.5q-3 -3 -22 -3q-21 0 -35.5 16t-14.5 38z" />
    <glyph glyph-name="kcommaaccent" unicode="&#x137;" horiz-adv-x="440" 
d="M28 19l93 662q1 7 6.5 13t12.5 6h63q7 0 11 -5.5t3 -13.5l-60 -433l145 140q14 12 26 12h79q11 0 12.5 -10t-5.5 -17l-169 -158l145 -189q6 -7 1.5 -16.5t-15.5 -9.5h-77q-9 0 -15 8l-135 186l-25 -175q-1 -8 -6.5 -13.5t-12.5 -5.5h-63q-7 0 -11 5.5t-3 13.5zM120 -162
q0 28 21 49t49 21q24 0 41.5 -18.5t17.5 -58.5q0 -105 -107 -205q-13 -12 -22 -1l-11 15q-9 11 5 23l6 5q5 5 9 8.5t11.5 11t13 14.5t12 17t11.5 20t9 22.5t6 25.5q-3 -3 -22 -3q-21 0 -35.5 16t-14.5 38z" />
    <glyph glyph-name="kgreenlandic" unicode="&#x138;" horiz-adv-x="432" 
d="M27 19l51 362q1 7 7 13t13 6h62q7 0 11 -5.5t3 -13.5l-23 -163l155 170q12 12 25 12h75q11 0 12 -10.5t-6 -16.5l-177 -182l142 -165q6 -7 1.5 -16.5t-15.5 -9.5h-76q-8 0 -14 8l-130 156l-20 -145q-1 -7 -7 -13t-13 -6h-62q-7 0 -11 5.5t-3 13.5z" />
    <glyph glyph-name="Lacute" unicode="&#x139;" horiz-adv-x="458" 
d="M58 19l93 662q1 8 7 13.5t13 5.5h70q7 0 11.5 -5.5t3.5 -13.5l-83 -588h237q7 0 11.5 -5.5t3.5 -13.5l-8 -55q-1 -8 -7 -13.5t-13 -5.5h-324q-7 0 -11.5 5.5t-3.5 13.5zM155 773q-18 -8 -22 6l-11 31q-4 12 8 19l156 91q4 4 13 3t12 -10l17 -44q7 -17 -9 -24z" />
    <glyph glyph-name="lacute" unicode="&#x13a;" horiz-adv-x="223" 
d="M28 19l93 662q1 7 7 13t13 6h61q7 0 11 -5.5t3 -13.5l-93 -662q-1 -8 -6.5 -13.5t-12.5 -5.5h-62q-7 0 -11 5.5t-3 13.5zM116 760q-18 -8 -22 6l-11 31q-4 12 8 19l156 91q4 4 13 3t12 -10l17 -44q7 -17 -9 -24z" />
    <glyph glyph-name="Lcommaaccent" unicode="&#x13b;" horiz-adv-x="458" 
d="M58 19l93 662q1 8 7 13.5t13 5.5h70q7 0 11.5 -5.5t3.5 -13.5l-83 -588h237q7 0 11.5 -5.5t3.5 -13.5l-8 -55q-1 -8 -7 -13.5t-13 -5.5h-324q-7 0 -11.5 5.5t-3.5 13.5zM156 -162q0 28 21 49t49 21q24 0 41.5 -18.5t17.5 -58.5q0 -105 -107 -205q-13 -12 -22 -1l-11 15
q-9 11 5 23l6 5q5 5 9 8.5t11.5 11t13 14.5t12 17t11.5 20t9 22.5t6 25.5q-3 -3 -22 -3q-21 0 -35.5 16t-14.5 38z" />
    <glyph glyph-name="lcommaaccent" unicode="&#x13c;" horiz-adv-x="223" 
d="M27 19l93 662q1 7 7 13t13 6h61q7 0 11 -5.5t3 -13.5l-93 -662q-1 -8 -6.5 -13.5t-12.5 -5.5h-62q-7 0 -11 5.5t-3 13.5zM-19 -162q0 28 20.5 49t49.5 21q24 0 41.5 -18.5t17.5 -58.5q0 -105 -107 -205q-13 -12 -22 -1l-11 15q-9 11 5 23l5 5q6 5 10 8.5t11.5 11t13 14.5
t12 17t11.5 20t9 22.5t6 25.5q-3 -3 -22 -3q-21 0 -35.5 16t-14.5 38z" />
    <glyph glyph-name="Lcaron" unicode="&#x13d;" horiz-adv-x="458" 
d="M58 19l93 662q1 8 7 13.5t13 5.5h70q7 0 11.5 -5.5t3.5 -13.5l-83 -588h237q7 0 11.5 -5.5t3.5 -13.5l-8 -55q-1 -8 -7 -13.5t-13 -5.5h-324q-7 0 -11.5 5.5t-3.5 13.5zM346 641q0 29 21 49.5t49 20.5q24 0 41.5 -18.5t17.5 -58.5q0 -105 -107 -205q-13 -12 -22 -1
l-11 15q-9 11 5 23l6 5q5 5 9 8.5t11.5 11t13 14.5t12 17t11.5 20t9 22.5t6 25.5q-3 -3 -22 -3q-21 0 -35.5 16t-14.5 38z" />
    <glyph glyph-name="lcaron" unicode="&#x13e;" horiz-adv-x="253" 
d="M28 19l93 662q1 7 7 13t13 6h61q7 0 11 -5.5t3 -13.5l-93 -662q-1 -8 -6.5 -13.5t-12.5 -5.5h-62q-7 0 -11 5.5t-3 13.5zM298 427l-11 15q-9 11 5 23l6 5q5 5 9 8.5t11.5 11t13 14.5t12 17t11.5 20t9 22.5t6 25.5q-3 -3 -22 -3q-21 0 -35.5 16t-14.5 38q0 28 21 49t49 21
q24 0 41.5 -18.5t17.5 -58.5q0 -105 -107 -205q-13 -12 -22 -1z" />
    <glyph glyph-name="Ldot" unicode="&#x13f;" horiz-adv-x="523" 
d="M58 19l93 662q1 8 7 13.5t13 5.5h70q7 0 11.5 -5.5t3.5 -13.5l-83 -588h237q7 0 11.5 -5.5t3.5 -13.5l-8 -55q-1 -8 -7 -13.5t-13 -5.5h-324q-7 0 -11.5 5.5t-3.5 13.5zM434 287q-22 0 -37 16.5t-15 40.5q0 30 21 51t49 21q23 0 38 -16t15 -40q0 -30 -21.5 -51.5
t-49.5 -21.5z" />
    <glyph glyph-name="ldot" unicode="&#x140;" horiz-adv-x="361" 
d="M28 19l93 662q1 7 7 13t13 6h61q7 0 11 -5.5t3 -13.5l-93 -662q-1 -8 -6.5 -13.5t-12.5 -5.5h-62q-7 0 -11 5.5t-3 13.5zM294 295q-22 0 -37 16.5t-15 39.5q0 30 21.5 51.5t48.5 21.5q23 0 38 -16.5t15 -40.5q0 -29 -21.5 -50.5t-49.5 -21.5z" />
    <glyph glyph-name="Lslash" unicode="&#x141;" horiz-adv-x="465" 
d="M65 19l41 289l-22 -12q-14 -9 -21 7l-4 9q-3 6 -0.5 14t9.5 12l46 25l44 318q4 19 20 19h70q7 0 11.5 -5.5t3.5 -13.5l-37 -257l93 57q16 9 22 -7l4 -9q7 -15 -10 -26l-116 -71l-39 -275h237q7 0 11.5 -5.5t3.5 -13.5l-8 -55q-4 -19 -20 -19h-324q-7 0 -11.5 5.5
t-3.5 13.5z" />
    <glyph glyph-name="lslash" unicode="&#x142;" horiz-adv-x="240" 
d="M40 19l42 297l-39 -24q-15 -9 -22 7l-4 9q-7 17 9 26l63 37l44 310q1 7 7 13t13 6h61q7 0 11 -6t3 -13l-35 -254l69 45q7 4 14 1.5t9 -8.5l4 -10q5 -15 -10 -25l-94 -58l-50 -353q-1 -8 -6.5 -13.5t-12.5 -5.5h-62q-7 0 -11 6t-3 13z" />
    <glyph glyph-name="Nacute" unicode="&#x143;" horiz-adv-x="717" 
d="M58 19l95 673q1 7 7 12.5t13 5.5h25l313 -499h1h1l63 470q1 8 6.5 13.5t12.5 5.5h69q7 0 11.5 -5.5t3.5 -13.5l-95 -673q-1 -7 -7 -12.5t-13 -5.5h-28l-313 507h-1l-62 -478q-1 -8 -7 -13.5t-13 -5.5h-67q-7 0 -11.5 5.5t-3.5 13.5zM363 773q-18 -8 -22 6l-11 31
q-4 12 8 19l156 91q4 4 13 3t12 -10l17 -44q7 -17 -9 -24z" />
    <glyph glyph-name="nacute" unicode="&#x144;" horiz-adv-x="477" 
d="M28 19l50 362q2 19 20 19h30q11 0 13 -12l7 -34q62 56 134 56q79 0 109 -52.5t19 -137.5l-28 -201q-1 -7 -7 -13t-13 -6h-61q-16 0 -14 19l28 204q7 48 -7.5 74t-48.5 26t-62.5 -20.5t-39.5 -37.5l-35 -246q-3 -19 -25 -19h-55q-7 0 -11 6t-3 13zM224 543q-18 -8 -22 6
l-11 31q-4 12 8 19l156 91q4 4 13 3t12 -10l17 -44q7 -17 -9 -24z" />
    <glyph glyph-name="Ncommaaccent" unicode="&#x145;" horiz-adv-x="717" 
d="M58 19l95 673q1 7 7 12.5t13 5.5h25l313 -499h1h1l63 470q1 8 6.5 13.5t12.5 5.5h69q7 0 11.5 -5.5t3.5 -13.5l-95 -673q-1 -7 -7 -12.5t-13 -5.5h-28l-313 507h-1l-62 -478q-1 -8 -7 -13.5t-13 -5.5h-67q-7 0 -11.5 5.5t-3.5 13.5zM237 -162q0 28 20.5 49t49.5 21
q24 0 41.5 -18.5t17.5 -58.5q0 -105 -107 -205q-13 -12 -22 -1l-11 15q-9 11 5 23l5 5q6 5 10 8.5t11.5 11t13 14.5t12 17t11.5 20t9 22.5t6 25.5q-3 -3 -22 -3q-21 0 -35.5 16t-14.5 38z" />
    <glyph glyph-name="ncommaaccent" unicode="&#x146;" horiz-adv-x="478" 
d="M28 19l50 362q2 19 20 19h30q11 0 13 -12l7 -34q62 56 134 56q79 0 109 -52.5t19 -137.5l-28 -201q-1 -7 -7 -13t-13 -6h-61q-16 0 -14 19l28 204q7 48 -7.5 74t-48.5 26t-62.5 -20.5t-39.5 -37.5l-35 -246q-3 -19 -25 -19h-55q-7 0 -11 6t-3 13zM122 -162q0 28 21 49
t49 21q24 0 41.5 -18.5t17.5 -58.5q0 -105 -107 -205q-13 -12 -22 -1l-11 15q-9 11 5 23l6 5q5 5 9 8.5t11.5 11t13 14.5t12 17t11.5 20t9 22.5t6 25.5q-3 -3 -22 -3q-21 0 -35.5 16t-14.5 38z" />
    <glyph glyph-name="Ncaron" unicode="&#x147;" horiz-adv-x="717" 
d="M58 19l95 673q1 7 7 12.5t13 5.5h25l313 -499h1h1l63 470q1 8 6.5 13.5t12.5 5.5h69q7 0 11.5 -5.5t3.5 -13.5l-95 -673q-1 -7 -7 -12.5t-13 -5.5h-28l-313 507h-1l-62 -478q-1 -8 -7 -13.5t-13 -5.5h-67q-7 0 -11.5 5.5t-3.5 13.5zM414 769l-98 98q-10 10 -2 21l18 22
q11 12 23 2l77 -60l99 64q6 4 9.5 4.5t6 -1.5t6.5 -8l14 -20q9 -15 -5 -24l-126 -98q-12 -8 -22 0z" />
    <glyph glyph-name="ncaron" unicode="&#x148;" horiz-adv-x="477" 
d="M28 19l50 362q2 19 20 19h30q11 0 13 -12l7 -34q62 56 134 56q79 0 109 -52.5t19 -137.5l-28 -201q-1 -7 -7 -13t-13 -6h-61q-16 0 -14 19l28 204q7 48 -7.5 74t-48.5 26t-62.5 -20.5t-39.5 -37.5l-35 -246q-3 -19 -25 -19h-55q-7 0 -11 6t-3 13zM275 536l-98 98
q-10 10 -2 21l18 22q11 12 23 2l77 -60l99 64q6 4 9.5 4.5t6 -1.5t6.5 -8l14 -20q9 -15 -5 -24l-126 -98q-12 -8 -22 0z" />
    <glyph glyph-name="napostrophe" unicode="&#x149;" horiz-adv-x="477" 
d="M27 19l50 362q2 19 20 19h30q11 0 13 -12l7 -34q62 56 134 56q79 0 109 -52.5t19 -137.5l-28 -201q-1 -7 -7 -13t-13 -6h-61q-16 0 -14 19l28 204q7 48 -7.5 74t-48.5 26t-62.5 -20.5t-39.5 -37.5l-35 -246q-3 -19 -25 -19h-55q-7 0 -11 6t-3 13zM-99 640q0 28 20.5 49
t49.5 21q24 0 41.5 -18.5t17.5 -58.5q0 -105 -107 -205q-13 -12 -22 -1l-11 15q-9 11 5 23l5 5q6 5 10 8.5t11.5 11t13 14.5t12 17t11.5 20t9 22.5t6 25.5q-3 -3 -22 -3q-21 0 -35.5 16t-14.5 38z" />
    <glyph glyph-name="Eng" unicode="&#x14a;" horiz-adv-x="717" 
d="M58 19l95 673q1 7 7 12.5t13 5.5h25l313 -499h2l63 470q1 8 6.5 13.5t12.5 5.5h69q7 0 11.5 -5.5t3.5 -13.5l-114 -805q-12 -91 -60.5 -138.5t-121.5 -47.5q-65 0 -103 40q-10 10 0 23l25 37q11 16 25 5q22 -18 56 -18q65 0 80 99l25 182l-268 439h-1l-62 -478
q-1 -8 -7 -13.5t-13 -5.5h-67q-7 0 -11.5 5.5t-3.5 13.5z" />
    <glyph glyph-name="eng" unicode="&#x14b;" horiz-adv-x="478" 
d="M28 19l50 362q2 19 20 19h30q11 0 13 -12l7 -34q62 56 134 56q79 0 109 -52.5t19 -137.5l-49 -344q-12 -91 -60.5 -138.5t-121.5 -47.5q-65 0 -103 40q-10 10 0 23l25 37q11 16 25 5q22 -18 56 -18q32 0 55 25t30 74l48 347q7 48 -7.5 74t-48.5 26t-62.5 -20.5
t-39.5 -37.5l-35 -246q-3 -19 -25 -19h-55q-7 0 -11 6t-3 13z" />
    <glyph glyph-name="Omacron" unicode="&#x14c;" horiz-adv-x="747" 
d="M56 300q0 173 109.5 291.5t267.5 118.5q119 0 198.5 -92t79.5 -221q0 -172 -110 -289.5t-267 -117.5q-120 0 -199 91.5t-79 218.5zM161 313q0 -93 52.5 -158t133.5 -65q102 0 180.5 87.5t78.5 206.5q0 94 -52.5 160t-133.5 66q-101 0 -180 -89t-79 -208zM333 814
q-17 0 -15 18l4 28q3 19 20 19h230q17 0 15 -19l-4 -28q-2 -18 -20 -18h-230z" />
    <glyph glyph-name="omacron" unicode="&#x14d;" horiz-adv-x="441" 
d="M24 173q0 97 62.5 167t152.5 70q66 0 111 -53.5t45 -127.5q0 -98 -62.5 -168.5t-152.5 -70.5q-65 0 -110.5 54t-45.5 129zM192 76q45 0 79 42.5t34 100.5q0 44 -21.5 74t-56.5 30q-45 0 -79 -42t-34 -100q0 -44 22 -74.5t56 -30.5zM148 576q-17 0 -15 18l4 28q3 19 20 19
h231q7 0 11 -5.5t3 -13.5l-4 -28q-2 -18 -20 -18h-230z" />
    <glyph glyph-name="Obreve" unicode="&#x14e;" horiz-adv-x="747" 
d="M56 300q0 173 109.5 291.5t267.5 118.5q119 0 198.5 -92t79.5 -221q0 -172 -110 -289.5t-267 -117.5q-120 0 -199 91.5t-79 218.5zM161 313q0 -93 52.5 -158t133.5 -65q102 0 180.5 87.5t78.5 206.5q0 94 -52.5 160t-133.5 66q-101 0 -180 -89t-79 -208zM444 768
q-47 0 -78 33.5t-31 82.5q0 21 18 21h27q12 0 14 -15q2 -26 17.5 -42.5t39.5 -16.5q22 0 41 17t29 42q7 15 18 15h33q19 0 12 -21q-15 -51 -53 -83.5t-87 -32.5z" />
    <glyph glyph-name="obreve" unicode="&#x14f;" horiz-adv-x="441" 
d="M24 173q0 97 62.5 167t152.5 70q66 0 111 -53.5t45 -127.5q0 -98 -62.5 -168.5t-152.5 -70.5q-65 0 -110.5 54t-45.5 129zM192 76q45 0 79 42.5t34 100.5q0 44 -21.5 74t-56.5 30q-45 0 -79 -42t-34 -100q0 -44 22 -74.5t56 -30.5zM259 529q-47 0 -78 33.5t-31 82.5
q0 21 18 21h27q12 0 14 -15q2 -26 17.5 -42.5t39.5 -16.5q22 0 41 17t29 42q7 15 18 15h33q19 0 12 -21q-15 -51 -53 -83.5t-87 -32.5z" />
    <glyph glyph-name="Ohungarumlaut" unicode="&#x150;" horiz-adv-x="747" 
d="M56 300q0 173 109.5 291.5t267.5 118.5q119 0 198.5 -92t79.5 -221q0 -172 -110 -289.5t-267 -117.5q-120 0 -199 91.5t-79 218.5zM161 313q0 -93 52.5 -158t133.5 -65q102 0 180.5 87.5t78.5 206.5q0 94 -52.5 160t-133.5 66q-101 0 -180 -89t-79 -208zM499 768
q-9 0 -13 5.5t-1 13.5l57 141q8 19 20 19h58q12 0 15.5 -7.5t-2.5 -17.5l-90 -139q-9 -15 -19 -15h-25zM350 768q-9 0 -13 5.5t-1 13.5l57 141q8 19 20 19h58q12 0 15.5 -7.5t-2.5 -17.5l-90 -139q-9 -15 -19 -15h-25z" />
    <glyph glyph-name="ohungarumlaut" unicode="&#x151;" horiz-adv-x="441" 
d="M24 173q0 97 62.5 167t152.5 70q66 0 111 -53.5t45 -127.5q0 -98 -62.5 -168.5t-152.5 -70.5q-65 0 -110.5 54t-45.5 129zM192 76q45 0 79 42.5t34 100.5q0 44 -21.5 74t-56.5 30q-45 0 -79 -42t-34 -100q0 -44 22 -74.5t56 -30.5zM319 521q-9 0 -13 5.5t-1 13.5l57 141
q8 19 20 19h58q12 0 15.5 -7.5t-2.5 -17.5l-90 -139q-9 -15 -19 -15h-25zM170 521q-9 0 -13 5.5t-1 13.5l57 141q8 19 20 19h58q12 0 15.5 -7.5t-2.5 -17.5l-90 -139q-9 -15 -19 -15h-25z" />
    <glyph glyph-name="OE" unicode="&#x152;" horiz-adv-x="893" 
d="M56 300q0 170 109.5 290t268.5 120q21 0 42 -2.5t32 -5.5l10 -2h362q16 0 14 -19l-7 -56q-1 -8 -7 -13.5t-13 -5.5h-277l-29 -204h233q7 0 11 -5.5t3 -13.5l-7 -56q-1 -8 -7 -13.5t-13 -5.5h-233l-30 -215h277q16 0 14 -19l-8 -55q-1 -7 -6.5 -13t-12.5 -6h-363
q-48 -10 -86 -10q-115 0 -196 90.5t-81 219.5zM159 313q0 -93 53.5 -158.5t134.5 -65.5q40 0 69 10l70 500q-33 11 -66 11q-101 0 -181 -89t-80 -208z" />
    <glyph glyph-name="oe" unicode="&#x153;" horiz-adv-x="683" 
d="M24 174q0 96 64 166t151 70q76 0 120 -75q70 75 160 75q58 0 96 -30t38 -84q0 -40 -26.5 -68t-66.5 -38.5t-86.5 -15t-85.5 2.5q-4 -43 17 -73t61 -30t81 28q17 11 24 1l27 -37q11 -14 -5 -26q-62 -50 -141 -50q-85 0 -128 72q-64 -72 -144 -72q-65 0 -110.5 54
t-45.5 130zM403 244q160 -14 160 47q0 19 -16 30.5t-38 11.5q-40 0 -68.5 -25t-37.5 -64zM192 76q45 0 79 43.5t34 101.5q0 43 -22 72.5t-56 29.5q-46 0 -80.5 -41.5t-34.5 -99.5q0 -44 22.5 -75t57.5 -31z" />
    <glyph glyph-name="Racute" unicode="&#x154;" horiz-adv-x="618" 
d="M58 19l93 662q1 7 6.5 13t12.5 6h250q72 0 120.5 -55.5t48.5 -130.5q0 -81 -46 -145.5t-120 -85.5l89 -255q4 -10 -0.5 -19t-15.5 -9h-75q-14 0 -19 14l-74 259h-132l-36 -254q-1 -8 -6.5 -13.5t-12.5 -5.5h-69q-7 0 -11.5 5.5t-2.5 13.5zM210 361h153q46 0 83 41.5
t37 97.5q0 42 -25 72.5t-61 30.5h-153zM299 773q-18 -8 -22 6l-11 31q-4 12 8 19l156 91q4 4 13 3t12 -10l17 -44q7 -17 -9 -24z" />
    <glyph glyph-name="racute" unicode="&#x155;" horiz-adv-x="316" 
d="M28 19l50 362q2 19 19 19h30q11 0 14 -14l7 -34l5 5q5 5 8 8.5t10.5 9.5t13.5 10t15 9t18 8.5t20 5.5t22 2q38 0 57 -13q12 -8 2 -23l-28 -49q-9 -13 -23 -9q-20 5 -33 5q-36 0 -77 -48l-36 -254q-2 -19 -30 -19h-50q-7 0 -11 5.5t-3 13.5zM136 543q-18 -8 -22 6l-11 31
q-4 12 8 19l156 91q4 4 13 3t12 -10l17 -44q7 -17 -9 -24z" />
    <glyph glyph-name="Rcommaaccent" unicode="&#x156;" horiz-adv-x="617" 
d="M58 19l93 662q1 7 6.5 13t12.5 6h250q72 0 120.5 -55.5t48.5 -130.5q0 -81 -46 -145.5t-120 -85.5l89 -255q4 -10 -0.5 -19t-15.5 -9h-75q-14 0 -19 14l-74 259h-132l-36 -254q-1 -8 -6.5 -13.5t-12.5 -5.5h-69q-7 0 -11.5 5.5t-2.5 13.5zM210 361h153q46 0 83 41.5
t37 97.5q0 42 -25 72.5t-61 30.5h-153zM195 -162q0 28 20.5 49t49.5 21q24 0 41.5 -18.5t17.5 -58.5q0 -105 -107 -205q-13 -12 -22 -1l-11 15q-9 11 5 23l5 5q6 5 10 8.5t11.5 11t13 14.5t12 17t11.5 20t9 22.5t6 25.5q-3 -3 -22 -3q-21 0 -35.5 16t-14.5 38z" />
    <glyph glyph-name="rcommaaccent" unicode="&#x157;" horiz-adv-x="316" 
d="M27 19l50 362q2 19 19 19h30q10 0 14 -14l7 -34l5 5q5 5 8 8.5t10.5 9.5t13.5 10t15 9t18 8.5t20 5.5t22 2q38 0 57 -13q12 -8 2 -23l-28 -49q-9 -13 -23 -9q-20 5 -33 5q-36 0 -77 -48l-36 -254q-2 -19 -30 -19h-50q-7 0 -11 5.5t-3 13.5zM-11 -162q0 28 20.5 49
t49.5 21q24 0 41.5 -18.5t17.5 -58.5q0 -105 -107 -205q-13 -12 -22 -1l-11 15q-9 11 5 23l5 5q6 5 10 8.5t11.5 11t13 14.5t12 17t11.5 20t9 22.5t6 25.5q-3 -3 -22 -3q-21 0 -35.5 16t-14.5 38z" />
    <glyph glyph-name="Rcaron" unicode="&#x158;" horiz-adv-x="618" 
d="M58 19l93 662q1 7 6.5 13t12.5 6h250q72 0 120.5 -55.5t48.5 -130.5q0 -81 -46 -145.5t-120 -85.5l89 -255q4 -10 -0.5 -19t-15.5 -9h-75q-14 0 -19 14l-74 259h-132l-36 -254q-1 -8 -6.5 -13.5t-12.5 -5.5h-69q-7 0 -11.5 5.5t-2.5 13.5zM210 361h153q46 0 83 41.5
t37 97.5q0 42 -25 72.5t-61 30.5h-153zM336 769l-98 98q-10 10 -2 21l18 22q11 12 23 2l77 -60l99 64q6 4 9.5 4.5t6 -1.5t6.5 -8l14 -20q9 -15 -5 -24l-126 -98q-12 -8 -22 0z" />
    <glyph glyph-name="rcaron" unicode="&#x159;" horiz-adv-x="316" 
d="M28 19l50 362q2 19 19 19h30q11 0 14 -14l7 -34l5 5q5 5 8 8.5t10.5 9.5t13.5 10t15 9t18 8.5t20 5.5t22 2q38 0 57 -13q12 -8 2 -23l-28 -49q-9 -13 -23 -9q-20 5 -33 5q-36 0 -77 -48l-36 -254q-2 -19 -30 -19h-50q-7 0 -11 5.5t-3 13.5zM177 536l-98 98q-10 10 -2 21
l18 22q11 12 23 2l77 -60l99 64q6 4 9.5 4.5t6 -1.5t6.5 -8l14 -20q9 -15 -5 -24l-126 -98q-12 -8 -22 0z" />
    <glyph glyph-name="Sacute" unicode="&#x15a;" horiz-adv-x="503" 
d="M31 69q-14 16 -1 32l31 38q16 19 34 3q65 -61 126 -61q47 0 80 31t33 75q0 37 -26 64.5t-83 61.5q-64 39 -101 85t-37 111q0 78 59.5 139.5t166.5 61.5q92 0 162 -58q16 -14 1 -34l-27 -36q-7 -9 -17 -11t-18 5q-15 13 -47 27t-65 14q-48 0 -80 -32.5t-32 -69.5
q0 -34 23 -60t73 -54q75 -43 118 -89.5t43 -116.5q0 -91 -63.5 -148t-167.5 -57q-48 0 -92 18t-62 32.5t-31 28.5zM264 773q-18 -8 -22 6l-11 31q-4 12 8 19l156 91q4 4 13 3t12 -10l17 -44q7 -17 -9 -24z" />
    <glyph glyph-name="sacute" unicode="&#x15b;" horiz-adv-x="339" 
d="M14 31q-11 9 -2 21l23 38q10 13 22 5q38 -24 78 -24q20 0 34.5 10.5t14.5 29.5q0 16 -12 28.5t-43 30.5q-42 25 -65 52t-23 65q0 49 36.5 86t108.5 37q64 0 105 -31q16 -12 4 -29l-19 -34q-10 -16 -24 -8q-38 19 -73 19q-22 0 -33.5 -9.5t-11.5 -24.5t11 -25.5t36 -25.5
q36 -21 53.5 -33.5t33 -36t15.5 -52.5q0 -56 -40.5 -93t-112.5 -37q-70 0 -116 41zM150 543q-18 -8 -22 6l-11 31q-4 12 8 19l156 91q4 4 13 3t12 -10l17 -44q7 -17 -9 -24z" />
    <glyph glyph-name="Scircumflex" unicode="&#x15c;" horiz-adv-x="503" 
d="M31 69q-14 16 -1 32l31 38q16 19 34 3q65 -61 126 -61q47 0 80 31t33 75q0 37 -26 64.5t-83 61.5q-64 39 -101 85t-37 111q0 78 59.5 139.5t166.5 61.5q92 0 162 -58q16 -14 1 -34l-27 -36q-7 -9 -17 -11t-18 5q-15 13 -47 27t-65 14q-48 0 -80 -32.5t-32 -69.5
q0 -34 23 -60t73 -54q75 -43 118 -89.5t43 -116.5q0 -91 -63.5 -148t-167.5 -57q-48 0 -92 18t-62 32.5t-31 28.5zM233 772q-6 -4 -9.5 -4.5t-6 1.5t-6.5 8l-14 20q-9 15 5 24l126 98q12 8 22 0l98 -98q10 -10 2 -21l-18 -22q-11 -12 -23 -2l-77 60z" />
    <glyph glyph-name="scircumflex" unicode="&#x15d;" horiz-adv-x="339" 
d="M14 31q-11 9 -2 21l23 38q10 13 22 5q38 -24 78 -24q20 0 34.5 10.5t14.5 29.5q0 16 -12 28.5t-43 30.5q-42 25 -65 52t-23 65q0 49 36.5 86t108.5 37q64 0 105 -31q16 -12 4 -29l-19 -34q-10 -16 -24 -8q-38 19 -73 19q-22 0 -33.5 -9.5t-11.5 -24.5t11 -25.5t36 -25.5
q36 -21 53.5 -33.5t33 -36t15.5 -52.5q0 -56 -40.5 -93t-112.5 -37q-70 0 -116 41zM119 539q-6 -4 -9.5 -4.5t-6 1.5t-6.5 8l-14 20q-9 15 5 24l126 98q12 8 22 0l98 -98q10 -10 2 -21l-18 -22q-11 -12 -23 -2l-77 60z" />
    <glyph glyph-name="Scedilla" unicode="&#x15e;" horiz-adv-x="504" 
d="M32 69q-14 16 -1 32l31 38q16 19 34 3q65 -61 126 -61q47 0 80 31t33 75q0 37 -26 64.5t-83 61.5q-64 39 -101 85t-37 111q0 78 59.5 139.5t166.5 61.5q92 0 162 -58q16 -14 1 -34l-27 -36q-7 -9 -17 -11t-18 5q-15 13 -47 27t-65 14q-48 0 -80 -32.5t-32 -69.5
q0 -34 23 -60t73 -54q75 -43 118 -89.5t43 -116.5q0 -90 -62 -147t-164 -58l-5 -45q76 -17 76 -92q0 -47 -30 -80t-77 -33q-19 0 -38 10t-28 25q-9 14 2 25l16 15q10 9 20 -1q14 -14 31 -14t29 14.5t12 34.5q0 41 -61 49q-16 4 -13 19l11 78q-35 7 -66.5 23.5t-46 28.5
t-22.5 22z" />
    <glyph glyph-name="scedilla" unicode="&#x15f;" horiz-adv-x="340" 
d="M14 31q-11 9 -2 21l23 38q10 13 22 5q38 -24 78 -24q20 0 34.5 10.5t14.5 29.5q0 16 -12 28.5t-43 30.5q-42 25 -65 52t-23 65q0 49 36.5 86t108.5 37q64 0 105 -31q16 -12 4 -29l-19 -34q-10 -16 -24 -8q-38 19 -73 19q-22 0 -33.5 -9.5t-11.5 -24.5t11 -25.5t36 -25.5
q36 -21 53.5 -33.5t33 -36t15.5 -52.5q0 -56 -39 -92.5t-109 -37.5l-5 -45q76 -17 76 -92q0 -47 -30 -80t-77 -33q-19 0 -38 10t-28 25q-9 14 2 25l16 15q9 9 20 -1q14 -14 31 -14t29 14.5t12 34.5q0 41 -61 49q-16 4 -13 19l11 80q-40 10 -66 34z" />
    <glyph glyph-name="Scaron" unicode="&#x160;" horiz-adv-x="503" 
d="M31 69q-14 16 -1 32l31 38q16 19 34 3q65 -61 126 -61q47 0 80 31t33 75q0 37 -26 64.5t-83 61.5q-64 39 -101 85t-37 111q0 78 59.5 139.5t166.5 61.5q92 0 162 -58q16 -14 1 -34l-27 -36q-7 -9 -17 -11t-18 5q-15 13 -47 27t-65 14q-48 0 -80 -32.5t-32 -69.5
q0 -34 23 -60t73 -54q75 -43 118 -89.5t43 -116.5q0 -91 -63.5 -148t-167.5 -57q-48 0 -92 18t-62 32.5t-31 28.5zM314 769l-98 98q-10 10 -2 21l18 22q11 12 23 2l77 -60l99 64q6 4 9.5 4.5t6 -1.5t6.5 -8l14 -20q9 -15 -5 -24l-126 -98q-12 -8 -22 0z" />
    <glyph glyph-name="scaron" unicode="&#x161;" horiz-adv-x="339" 
d="M14 31q-11 9 -2 21l23 38q10 13 22 5q38 -24 78 -24q20 0 34.5 10.5t14.5 29.5q0 16 -12 28.5t-43 30.5q-42 25 -65 52t-23 65q0 49 36.5 86t108.5 37q64 0 105 -31q16 -12 4 -29l-19 -34q-10 -16 -24 -8q-38 19 -73 19q-22 0 -33.5 -9.5t-11.5 -24.5t11 -25.5t36 -25.5
q36 -21 53.5 -33.5t33 -36t15.5 -52.5q0 -56 -40.5 -93t-112.5 -37q-70 0 -116 41zM200 536l-98 98q-10 10 -2 21l18 22q11 12 23 2l77 -60l99 64q6 4 9.5 4.5t6 -1.5t6.5 -8l14 -20q9 -15 -5 -24l-126 -98q-12 -8 -22 0z" />
    <glyph glyph-name="Tcommaaccent" unicode="&#x162;" horiz-adv-x="447" 
d="M133 19l83 587h-143q-16 0 -14 19l8 56q1 7 6.5 13t12.5 6h390q16 0 14 -19l-8 -56q-1 -8 -6.5 -13.5t-12.5 -5.5h-143l-82 -587q-1 -7 -7 -13t-13 -6h-70q-7 0 -11.5 5.5t-3.5 13.5zM97 -162q0 28 20.5 49t49.5 21q24 0 41.5 -18.5t17.5 -58.5q0 -105 -107 -205
q-13 -12 -22 -1l-11 15q-9 11 5 23l5 5q6 5 10 8.5t11.5 11t13 14.5t12 17t11.5 20t9 22.5t6 25.5q-3 -3 -22 -3q-21 0 -35.5 16t-14.5 38z" />
    <glyph glyph-name="tcommaaccent" unicode="&#x163;" horiz-adv-x="328" 
d="M65 109l29 208h-44q-7 0 -12 5.5t-3 13.5l7 45q3 19 19 19h45l15 111q1 7 7 13t13 6l61 1q7 0 11 -5.5t3 -13.5l-16 -112h86q18 0 15 -19l-7 -45q-4 -19 -19 -19h-87l-27 -197q-6 -40 23 -40q19 0 52 18q15 8 19 -9l11 -45q4 -14 -12 -24q-11 -7 -46.5 -18.5t-63.5 -11.5
q-96 0 -79 119zM65 -162q0 28 20.5 49t49.5 21q24 0 41.5 -18.5t17.5 -58.5q0 -105 -107 -205q-13 -12 -22 -1l-11 15q-9 11 5 23l5 5q6 5 10 8.5t11.5 11t13 14.5t12 17t11.5 20t9 22.5t6 25.5q-3 -3 -22 -3q-21 0 -35.5 16t-14.5 38z" />
    <glyph glyph-name="Tcaron" unicode="&#x164;" horiz-adv-x="447" 
d="M133 19l83 587h-143q-16 0 -14 19l8 56q1 7 6.5 13t12.5 6h390q16 0 14 -19l-8 -56q-1 -8 -6.5 -13.5t-12.5 -5.5h-143l-82 -587q-1 -7 -7 -13t-13 -6h-70q-7 0 -11.5 5.5t-3.5 13.5zM282 769l-98 98q-10 10 -2 21l18 22q11 12 23 2l77 -60l99 64q6 4 9.5 4.5t6 -1.5
t6.5 -8l14 -20q9 -15 -5 -24l-126 -98q-12 -8 -22 0z" />
    <glyph glyph-name="tcaron" unicode="&#x165;" horiz-adv-x="327" 
d="M65 109l29 208h-44q-7 0 -12 5.5t-3 13.5l7 45q3 19 19 19h45l15 111q1 7 7 13t13 6l61 1q7 0 11 -5.5t3 -13.5l-16 -112h86q18 0 15 -19l-7 -45q-4 -19 -19 -19h-87l-27 -197q-6 -40 23 -40q19 0 52 18q15 8 19 -9l11 -45q4 -14 -12 -24q-11 -7 -46.5 -18.5t-63.5 -11.5
q-96 0 -79 119zM378 427l-11 15q-9 11 5 23l6 5q5 5 9 8.5t11.5 11t13 14.5t12 17t11.5 20t9 22.5t6 25.5q-3 -3 -22 -3q-21 0 -35.5 16t-14.5 38q0 28 21 49t49 21q24 0 41.5 -18.5t17.5 -58.5q0 -105 -107 -205q-13 -12 -22 -1z" />
    <glyph glyph-name="Tbar" unicode="&#x166;" horiz-adv-x="448" 
d="M134 19l38 274h-89q-7 0 -11 6t-3 13l2 10q4 19 19 19h89l38 265h-143q-16 0 -14 19l8 56q1 7 6.5 13t12.5 6h390q16 0 14 -19l-8 -56q-1 -8 -6.5 -13.5t-12.5 -5.5h-143l-37 -265h87q7 0 12 -5.5t3 -13.5l-2 -11q-4 -18 -20 -18h-87l-38 -274q-1 -7 -7 -13t-13 -6h-70
q-7 0 -11.5 5.5t-3.5 13.5z" />
    <glyph glyph-name="tbar" unicode="&#x167;" horiz-adv-x="327" 
d="M65 109l8 62h-30q-7 0 -11 6t-3 13l2 10q4 19 19 19h30l14 98h-44q-7 0 -12 5.5t-3 13.5l7 45q3 19 19 19h45l15 111q1 7 7 13t13 6l61 1q7 0 11 -5.5t3 -13.5l-16 -112h86q18 0 15 -19l-7 -45q-4 -19 -19 -19h-87l-14 -98h77q7 0 12 -5.5t3 -13.5l-2 -11q-4 -18 -19 -18
h-77l-7 -51q-6 -40 23 -40q19 0 52 18q15 8 19 -9l11 -45q4 -14 -12 -24q-11 -7 -46.5 -18.5t-63.5 -11.5q-96 0 -79 119z" />
    <glyph glyph-name="Utilde" unicode="&#x168;" horiz-adv-x="669" 
d="M85 261l59 420q4 19 20 19h72q7 0 11.5 -5.5t2.5 -13.5l-58 -413q-11 -76 21 -126.5t95 -50.5q64 0 110 49.5t57 125.5l59 415q1 7 6.5 13t12.5 6h72q7 0 11 -6t3 -13l-59 -420q-16 -117 -94 -194t-192 -77q-100 0 -162.5 79t-46.5 192zM304 791l-26 15q-10 8 -4 23
q6 14 16.5 30.5t34 35t47.5 18.5q22 0 38 -16t27 -32t22 -16q10 0 19 8t12 13.5t11 18.5q10 19 25 9l19 -14q15 -12 2 -32q-41 -75 -93 -75q-19 0 -36 16.5t-29.5 32.5t-21.5 16q-19 0 -41 -41q-10 -18 -22 -10z" />
    <glyph glyph-name="utilde" unicode="&#x169;" horiz-adv-x="465" 
d="M168 -10q-78 0 -105.5 52t-16.5 137l28 202q4 19 20 19h61q7 0 11.5 -5.5t3.5 -13.5l-29 -204q-7 -48 8.5 -74.5t48.5 -26.5q30 0 58 24.5t33 38.5l33 242q2 19 23 19h55q7 0 11.5 -5.5t3.5 -13.5l-51 -362q-1 -8 -7 -13.5t-13 -5.5h-29q-10 0 -14 16l-6 29
q-55 -55 -127 -55zM169 568l-26 15q-10 8 -4 23q6 14 16.5 30.5t34 35t47.5 18.5q22 0 38 -16t27 -32t22 -16q20 0 42 40q10 19 25 9l19 -14q15 -12 2 -32q-41 -75 -93 -75q-19 0 -36 16t-29.5 32.5t-21.5 16.5q-19 0 -41 -41q-10 -18 -22 -10z" />
    <glyph glyph-name="Umacron" unicode="&#x16a;" horiz-adv-x="669" 
d="M85 261l59 420q4 19 20 19h72q7 0 11.5 -5.5t2.5 -13.5l-58 -413q-11 -76 21 -126.5t95 -50.5q64 0 110 49.5t57 125.5l59 415q1 7 6.5 13t12.5 6h72q7 0 11 -6t3 -13l-59 -420q-16 -117 -94 -194t-192 -77q-100 0 -162.5 79t-46.5 192zM295 814q-17 0 -15 18l4 28
q3 19 20 19h230q17 0 15 -19l-4 -28q-2 -18 -20 -18h-230z" />
    <glyph glyph-name="umacron" unicode="&#x16b;" horiz-adv-x="465" 
d="M168 -10q-78 0 -105.5 52t-16.5 137l28 202q4 19 20 19h61q7 0 11.5 -5.5t3.5 -13.5l-29 -204q-7 -48 8.5 -74.5t48.5 -26.5q30 0 58 24.5t33 38.5l33 242q2 19 23 19h55q7 0 11.5 -5.5t3.5 -13.5l-51 -362q-1 -8 -7 -13.5t-13 -5.5h-29q-10 0 -14 16l-6 29
q-55 -55 -127 -55zM157 576q-17 0 -15 18l4 28q3 19 20 19h231q7 0 11 -5.5t3 -13.5l-4 -28q-2 -18 -20 -18h-230z" />
    <glyph glyph-name="Ubreve" unicode="&#x16c;" horiz-adv-x="669" 
d="M85 261l59 420q4 19 20 19h72q7 0 11.5 -5.5t2.5 -13.5l-58 -413q-11 -76 21 -126.5t95 -50.5q64 0 110 49.5t57 125.5l59 415q1 7 6.5 13t12.5 6h72q7 0 11 -6t3 -13l-59 -420q-16 -117 -94 -194t-192 -77q-100 0 -162.5 79t-46.5 192zM408 768q-47 0 -78 33.5t-31 82.5
q0 21 18 21h27q12 0 14 -15q2 -26 17.5 -42.5t39.5 -16.5q22 0 41 17t29 42q7 15 18 15h33q19 0 12 -21q-15 -51 -53 -83.5t-87 -32.5z" />
    <glyph glyph-name="ubreve" unicode="&#x16d;" horiz-adv-x="465" 
d="M168 -10q-78 0 -105.5 52t-16.5 137l28 202q4 19 20 19h61q7 0 11.5 -5.5t3.5 -13.5l-29 -204q-7 -48 8.5 -74.5t48.5 -26.5q30 0 58 24.5t33 38.5l33 242q2 19 23 19h55q7 0 11.5 -5.5t3.5 -13.5l-51 -362q-1 -8 -7 -13.5t-13 -5.5h-29q-10 0 -14 16l-6 29
q-55 -55 -127 -55zM273 529q-47 0 -78 33.5t-31 82.5q0 21 18 21h27q12 0 14 -15q2 -26 17.5 -42.5t39.5 -16.5q22 0 41 17t29 42q7 15 18 15h33q19 0 12 -21q-15 -51 -53 -83.5t-87 -32.5z" />
    <glyph glyph-name="Uring" unicode="&#x16e;" horiz-adv-x="669" 
d="M85 261l59 420q4 19 20 19h72q7 0 11.5 -5.5t2.5 -13.5l-58 -413q-11 -76 21 -126.5t95 -50.5q64 0 110 49.5t57 125.5l59 415q1 7 6.5 13t12.5 6h72q7 0 11 -6t3 -13l-59 -420q-16 -117 -94 -194t-192 -77q-100 0 -162.5 79t-46.5 192zM402 756q-36 0 -61 28t-25 68
q0 53 34 89.5t83 36.5q35 0 61 -28t26 -68q0 -53 -34.5 -89.5t-83.5 -36.5zM410 811q20 0 36.5 19.5t16.5 43.5q0 19 -10.5 32.5t-27.5 13.5q-21 0 -38 -18t-17 -42q0 -19 11.5 -34t28.5 -15z" />
    <glyph glyph-name="uring" unicode="&#x16f;" horiz-adv-x="465" 
d="M168 -10q-78 0 -105.5 52t-16.5 137l28 202q4 19 20 19h61q7 0 11.5 -5.5t3.5 -13.5l-29 -204q-7 -48 8.5 -74.5t48.5 -26.5q30 0 58 24.5t33 38.5l33 242q2 19 23 19h55q7 0 11.5 -5.5t3.5 -13.5l-51 -362q-1 -8 -7 -13.5t-13 -5.5h-29q-10 0 -14 16l-6 29
q-55 -55 -127 -55zM260 488q-36 0 -61 28t-25 68q0 53 34 89.5t83 36.5q35 0 61 -28t26 -68q0 -53 -34.5 -89.5t-83.5 -36.5zM268 543q20 0 36.5 19.5t16.5 43.5q0 19 -10.5 32.5t-27.5 13.5q-21 0 -38 -18t-17 -42q0 -19 11.5 -34t28.5 -15z" />
    <glyph glyph-name="Uhungarumlaut" unicode="&#x170;" horiz-adv-x="669" 
d="M85 261l59 420q4 19 20 19h72q7 0 11.5 -5.5t2.5 -13.5l-58 -413q-11 -76 21 -126.5t95 -50.5q64 0 110 49.5t57 125.5l59 415q1 7 6.5 13t12.5 6h72q7 0 11 -6t3 -13l-59 -420q-16 -117 -94 -194t-192 -77q-100 0 -162.5 79t-46.5 192zM469 768q-9 0 -13 5.5t-1 13.5
l57 141q8 19 20 19h58q12 0 15.5 -7.5t-2.5 -17.5l-90 -139q-9 -15 -19 -15h-25zM320 768q-9 0 -13 5.5t-1 13.5l57 141q8 19 20 19h58q12 0 15.5 -7.5t-2.5 -17.5l-90 -139q-9 -15 -19 -15h-25z" />
    <glyph glyph-name="uhungarumlaut" unicode="&#x171;" horiz-adv-x="465" 
d="M168 -10q-78 0 -105.5 52t-16.5 137l28 202q4 19 20 19h61q7 0 11.5 -5.5t3.5 -13.5l-29 -204q-7 -48 8.5 -74.5t48.5 -26.5q30 0 58 24.5t33 38.5l33 242q2 19 23 19h55q7 0 11.5 -5.5t3.5 -13.5l-51 -362q-1 -8 -7 -13.5t-13 -5.5h-29q-10 0 -14 16l-6 29
q-55 -55 -127 -55zM333 521q-9 0 -13 5.5t-1 13.5l57 141q8 19 20 19h58q12 0 15.5 -7.5t-2.5 -17.5l-90 -139q-9 -15 -19 -15h-25zM184 521q-9 0 -13 5.5t-1 13.5l57 141q8 19 20 19h58q12 0 15.5 -7.5t-2.5 -17.5l-90 -139q-9 -15 -19 -15h-25z" />
    <glyph glyph-name="Uogonek" unicode="&#x172;" horiz-adv-x="671" 
d="M201 -130q0 69 59 123q-87 14 -137.5 90t-36.5 178l59 420q4 19 20 19h72q7 0 11.5 -5.5t2.5 -13.5l-58 -413q-11 -76 21 -126.5t95 -50.5q64 0 110 49.5t57 125.5l59 415q1 7 6.5 13t12.5 6h72q7 0 11 -6t3 -13l-59 -420q-15 -112 -87.5 -187.5t-179.5 -82.5
q-47 -47 -47 -98q0 -23 12.5 -37t37.5 -14q16 0 45 13q8 3 12 -1.5t3 -13.5l-4 -29q-1 -10 -15 -18q-20 -12 -62 -12q-41 0 -68 24t-27 65z" />
    <glyph glyph-name="uogonek" unicode="&#x173;" horiz-adv-x="464" 
d="M167 -10q-78 0 -105.5 52t-16.5 137l28 202q4 19 20 19h61q7 0 11.5 -5.5t3.5 -13.5l-29 -204q-7 -48 8.5 -74.5t48.5 -26.5q30 0 58 24.5t33 38.5l33 242q2 19 23 19h55q7 0 11.5 -5.5t3.5 -13.5l-51 -362q-1 -8 -7 -13.5t-13 -5.5h-2q-57 -51 -57 -107q0 -23 12.5 -37
t37.5 -14q16 0 45 13q8 3 12.5 -1.5t2.5 -13.5l-4 -29q-1 -10 -15 -18q-20 -12 -62 -12q-41 0 -68 24t-27 65q0 40 21 75.5t41 50.5l21 16l-7 33q-55 -55 -127 -55z" />
    <glyph glyph-name="Wcircumflex" unicode="&#x174;" horiz-adv-x="822" 
d="M166 4l-75 672q-1 10 4.5 17t14.5 7h68q13 0 15 -14l39 -439h4l211 452q5 11 17 11h16q12 0 14 -11l80 -452h4l163 439q6 14 18 14h72q10 0 13.5 -7t-0.5 -17l-265 -672q-5 -14 -18 -14h-14q-12 0 -15 13l-89 468h-4l-227 -470q-5 -11 -17 -11h-14q-13 0 -15 14zM393 772
q-6 -4 -9.5 -4.5t-6 1.5t-6.5 8l-14 20q-9 15 5 24l126 98q12 8 22 0l98 -98q10 -10 2 -21l-18 -22q-11 -12 -23 -2l-77 60z" />
    <glyph glyph-name="wcircumflex" unicode="&#x175;" horiz-adv-x="566" 
d="M99 0l-58 377q-1 10 4 16.5t14 6.5h49q12 0 14 -12l30 -211h1l131 223q6 10 16 10h6q12 0 14 -10l61 -224h1l87 212q5 12 22 12h51q20 0 10 -24l-160 -376q-5 -10 -18 -10h-4q-12 0 -14 9l-72 257h-1l-150 -257q-5 -9 -16 -9h-4q-12 0 -14 10zM232 539q-6 -4 -9.5 -4.5
t-6 1.5t-6.5 8l-14 20q-9 15 5 24l126 98q12 8 22 0l98 -98q10 -10 2 -21l-18 -22q-11 -12 -23 -2l-77 60z" />
    <glyph glyph-name="Ycircumflex" unicode="&#x176;" horiz-adv-x="525" 
d="M171 19l45 318l-162 337q-4 10 1.5 18t15.5 8h71q12 0 17 -11l117 -254h2l192 254q9 11 20 11h79q11 0 13.5 -8t-4.5 -18l-258 -336l-45 -319q-1 -7 -7 -13t-13 -6h-69q-7 0 -11.5 5.5t-3.5 13.5zM234 772q-6 -4 -9.5 -4.5t-6 1.5t-6.5 8l-14 20q-9 15 5 24l126 98
q12 8 22 0l98 -98q10 -10 2 -21l-18 -22q-11 -12 -23 -2l-77 60z" />
    <glyph glyph-name="ycircumflex" unicode="&#x177;" horiz-adv-x="425" 
d="M125 21l-102 355q-3 10 2 17t15 7h58q10 0 14 -11l73 -268h1l144 268q6 11 22 11h58q11 0 14.5 -8t-2.5 -18l-367 -662q-6 -12 -17 -12h-63q-11 0 -14 7t3 18zM154 539q-6 -4 -9.5 -4.5t-6 1.5t-6.5 8l-14 20q-9 15 5 24l126 98q12 8 22 0l98 -98q10 -10 2 -21l-18 -22
q-11 -12 -23 -2l-77 60z" />
    <glyph glyph-name="Ydieresis" unicode="&#x178;" horiz-adv-x="525" 
d="M171 19l45 318l-162 337q-4 10 1.5 18t15.5 8h71q12 0 17 -11l117 -254h2l192 254q9 11 20 11h79q11 0 13.5 -8t-4.5 -18l-258 -336l-45 -319q-1 -7 -7 -13t-13 -6h-69q-7 0 -11.5 5.5t-3.5 13.5zM431 782q-20 0 -33 14.5t-13 35.5q0 26 19 44.5t43 18.5q20 0 34 -14.5
t14 -34.5q0 -26 -19.5 -45t-44.5 -19zM218 782q-20 0 -33 14.5t-13 35.5q0 26 19 44.5t43 18.5q20 0 34 -14.5t14 -34.5q0 -26 -19.5 -45t-44.5 -19z" />
    <glyph glyph-name="Zacute" unicode="&#x179;" horiz-adv-x="497" 
d="M9 0q-7 0 -11 5.5t-3 13.5l2 18l365 564v3h-242q-7 0 -11 5.5t-3 13.5l8 58q1 7 7 13t13 6h372q7 0 11 -6t3 -13l-2 -13l-362 -570v-3h247q16 0 14 -19l-8 -57q-1 -8 -7 -13.5t-13 -5.5h-380zM263 773q-18 -8 -22 6l-11 31q-4 12 8 19l156 91q4 4 13 3t12 -10l17 -44
q7 -17 -9 -24z" />
    <glyph glyph-name="zacute" unicode="&#x17a;" horiz-adv-x="338" 
d="M11 0q-7 0 -11 5.5t-3 13.5l1 10l184 283v3h-119q-15 0 -13 19l6 47q1 8 6.5 13.5t12.5 5.5h233q11 0 15 -8.5t-3 -18.5l-185 -286v-3h113q16 0 14 -19l-6 -46q-1 -8 -7 -13.5t-13 -5.5h-225zM140 543q-18 -8 -22 6l-11 31q-4 12 8 19l156 91q4 4 13 3t12 -10l17 -44
q7 -17 -9 -24z" />
    <glyph glyph-name="Zdotaccent" unicode="&#x17b;" horiz-adv-x="497" 
d="M9 0q-7 0 -11 5.5t-3 13.5l2 18l365 564v3h-242q-7 0 -11 5.5t-3 13.5l8 58q1 7 7 13t13 6h372q7 0 11 -6t3 -13l-2 -13l-362 -570v-3h247q16 0 14 -19l-8 -57q-1 -8 -7 -13.5t-13 -5.5h-380zM332 788q-22 0 -37 16.5t-15 40.5q0 29 21 50.5t49 21.5q23 0 38 -16t15 -40
q0 -30 -21.5 -51.5t-49.5 -21.5z" />
    <glyph glyph-name="zdotaccent" unicode="&#x17c;" horiz-adv-x="338" 
d="M11 0q-7 0 -11 5.5t-3 13.5l1 10l184 283v3h-119q-15 0 -13 19l6 47q1 8 6.5 13.5t12.5 5.5h233q11 0 15 -8.5t-3 -18.5l-185 -286v-3h113q16 0 14 -19l-6 -46q-1 -8 -7 -13.5t-13 -5.5h-225zM208 551q-22 0 -37 16.5t-15 39.5q0 30 21.5 51.5t48.5 21.5q23 0 38 -16.5
t15 -40.5q0 -29 -21.5 -50.5t-49.5 -21.5z" />
    <glyph glyph-name="Zcaron" unicode="&#x17d;" horiz-adv-x="497" 
d="M9 0q-7 0 -11 5.5t-3 13.5l2 18l365 564v3h-242q-7 0 -11 5.5t-3 13.5l8 58q1 7 7 13t13 6h372q7 0 11 -6t3 -13l-2 -13l-362 -570v-3h247q16 0 14 -19l-8 -57q-1 -8 -7 -13.5t-13 -5.5h-380zM314 769l-98 98q-10 10 -2 21l18 22q11 12 23 2l77 -60l99 64q6 4 9.5 4.5
t6 -1.5t6.5 -8l14 -20q9 -15 -5 -24l-126 -98q-12 -8 -22 0z" />
    <glyph glyph-name="zcaron" unicode="&#x17e;" horiz-adv-x="338" 
d="M11 0q-7 0 -11 5.5t-3 13.5l1 10l184 283v3h-119q-15 0 -13 19l6 47q1 8 6.5 13.5t12.5 5.5h233q11 0 15 -8.5t-3 -18.5l-185 -286v-3h113q16 0 14 -19l-6 -46q-1 -8 -7 -13.5t-13 -5.5h-225zM194 536l-98 98q-10 10 -2 21l18 22q11 12 23 2l77 -60l99 64q6 4 9.5 4.5
t6 -1.5t6.5 -8l14 -20q9 -15 -5 -24l-126 -98q-12 -8 -22 0z" />
    <glyph glyph-name="florin" unicode="&#x192;" horiz-adv-x="326" 
d="M42 -124l62 442h-64q-7 0 -11.5 5.5t-3.5 13.5l6 44q3 19 20 19h64l18 124q13 91 62 138.5t127 47.5q58 0 95 -40q10 -10 0 -24l-30 -40q-11 -15 -23 -3q-21 19 -54 19q-28 0 -50 -24.5t-29 -73.5l-18 -124h94q17 0 15 -19l-6 -44q-4 -19 -20 -19h-94l-62 -443
q-13 -92 -62 -138.5t-128 -46.5q-59 0 -94 40q-8 10 -1 23l31 40q11 15 23 3q19 -19 53 -19q28 0 50.5 24.5t29.5 74.5z" />
    <glyph glyph-name="Aringacute" unicode="&#x1fa;" horiz-adv-x="603" 
d="M301 893l-11 31q-4 12 8 19l156 91q4 4 13 3t12 -10l17 -44q7 -17 -9 -24l-164 -72q-18 -8 -22 6zM-17 0q-10 0 -13.5 8t1.5 18l353 639q-24 11 -38.5 35t-14.5 54q0 53 34 89.5t83 36.5q35 0 61 -28t26 -68q0 -42 -23 -75t-60 -45l172 -638q2 -10 -3.5 -18t-15.5 -8h-60
q-18 0 -21 15l-36 139h-275l-77 -139q-9 -15 -25 -15h-68zM365 713q20 0 36.5 19.5t16.5 43.5q0 19 -10.5 32.5t-27.5 13.5q-21 0 -38 -18t-17 -42q0 -19 11.5 -34t28.5 -15zM195 238h210l-65 275h-4z" />
    <glyph glyph-name="aringacute" unicode="&#x1fb;" 
d="M242 430q-36 0 -61 28t-25 68q0 53 34 89.5t83 36.5q35 0 61 -28t26 -68q0 -53 -34.5 -89.5t-83.5 -36.5zM250 485q20 0 36.5 19.5t16.5 43.5q0 19 -10.5 32.5t-27.5 13.5q-21 0 -38 -18t-17 -42q0 -19 11.5 -34t28.5 -15zM214 663q-18 -8 -22 6l-11 31q-4 12 8 19
l156 91q4 4 13 3t12 -10l17 -44q7 -17 -9 -24zM407 381l-47 -362q-1 -7 -7 -13t-13 -6h-33q-12 0 -13 14l-3 30q-54 -54 -123 -54q-62 0 -103 53t-41 130q0 95 59.5 166t141.5 71q27 0 52 -11t36 -20.5t18 -17.5l13 25q7 14 19 14h30q7 0 11 -5.5t3 -13.5zM284 138l17 140
q-3 5 -9 12.5t-27 20t-44 12.5q-47 0 -74.5 -42.5t-27.5 -106.5q0 -43 20 -70.5t55 -27.5q22 0 44 14.5t32 27t14 20.5z" />
    <glyph glyph-name="AEacute" unicode="&#x1fc;" horiz-adv-x="821" 
d="M-31 0q-10 0 -12.5 8t4.5 18l452 643q22 31 44 31h352q7 0 11 -5.5t3 -13.5l-8 -56q-1 -8 -7 -13.5t-13 -5.5h-279l-29 -204h236q7 0 11 -5.5t3 -13.5l-8 -56q-1 -8 -7 -13.5t-13 -5.5h-235l-30 -215h279q7 0 11.5 -5.5t3.5 -13.5l-8 -55q-1 -8 -7 -13.5t-13 -5.5h-363
q-7 0 -11.5 5.5t-3.5 13.5l19 133h-189l-94 -139q-9 -13 -22 -13h-77zM224 238h139l40 275zM589 774q-18 -8 -22 6l-11 31q-4 12 8 19l156 91q4 4 13 3t12 -10l17 -44q7 -17 -9 -24z" />
    <glyph glyph-name="aeacute" unicode="&#x1fd;" horiz-adv-x="610" 
d="M8 103q0 66 43.5 108t114.5 42l72 -6q6 50 -1 67.5t-37 17.5q-36 0 -106 -20q-7 -2 -12.5 3t-5.5 12l-1 42q0 14 17 20q67 21 126 21q68 0 94 -55q57 55 134 55q58 0 96 -30t38 -84q0 -40 -26.5 -68t-66.5 -38.5t-86.5 -15t-85.5 2.5q-4 -43 17 -73t61 -30t81 28
q17 11 24 1l27 -37q11 -14 -5 -26q-62 -50 -141 -50t-123 64q-53 -64 -137 -64q-49 0 -80 31t-31 82zM330 244q160 -14 160 47q0 19 -16 30.5t-38 11.5q-40 0 -68.5 -25t-37.5 -64zM96 116q0 -25 13.5 -39t34.5 -14q26 0 46 15.5t29 30.5l10 75q-23 7 -60 7q-29 0 -51 -20.5
t-22 -54.5zM322 543q-18 -8 -22 6l-11 31q-4 12 8 19l156 91q4 4 13 3t12 -10l17 -44q7 -17 -9 -24z" />
    <glyph glyph-name="Oslashacute" unicode="&#x1fe;" horiz-adv-x="747" 
d="M37 22q-10 14 3 26l70 67q-53 81 -53 185q0 173 109.5 291.5t267.5 118.5q119 0 199 -93l72 68q14 12 24 0l6 -7q9 -13 -4 -26l-72 -69q53 -83 53 -186q0 -172 -110 -289.5t-267 -117.5q-119 0 -199 91l-69 -67q-13 -12 -24 1zM190 192l366 350q-53 68 -135 68
q-101 0 -180 -89t-79 -208q0 -67 28 -121zM214 155q54 -65 134 -65q102 0 180.5 87.5t78.5 206.5q0 66 -28 122zM385 773q-18 -8 -22 6l-11 31q-4 12 8 19l156 91q4 4 13 3t12 -10l17 -44q7 -17 -9 -24z" />
    <glyph glyph-name="oslashacute" unicode="&#x1ff;" horiz-adv-x="441" 
d="M196 543q-18 -8 -22 6l-11 31q-4 12 8 19l156 91q4 4 13 3t12 -10l17 -44q7 -17 -9 -24zM28 19l-5 7q-12 12 2 26l23 22q-24 46 -24 99q0 97 62.5 167t152.5 70q63 0 108 -50l25 25q5 6 12 6t11 -6l7 -7q12 -12 -3 -26l-28 -27q24 -45 24 -96q0 -98 -62.5 -168.5
t-152.5 -70.5q-63 0 -107 49l-21 -21q-12 -12 -24 1zM119 142l161 155q-21 26 -53 26q-45 0 -79 -42t-34 -100q0 -24 5 -39zM139 102q21 -26 53 -26q45 0 79 42.5t34 100.5q0 18 -5 38z" />
    <glyph glyph-name="Scommaaccent" unicode="&#x218;" horiz-adv-x="504" 
d="M32 69q-14 16 -1 32l31 38q16 19 34 3q65 -61 126 -61q47 0 80 31t33 75q0 37 -26 64.5t-83 61.5q-64 39 -101 85t-37 111q0 78 59.5 139.5t166.5 61.5q92 0 162 -58q16 -14 1 -34l-27 -36q-7 -9 -17 -11t-18 5q-15 13 -47 27t-65 14q-48 0 -80 -32.5t-32 -69.5
q0 -34 23 -60t73 -54q75 -43 118 -89.5t43 -116.5q0 -91 -63.5 -148t-167.5 -57q-48 0 -92 18t-62 32.5t-31 28.5zM133 -162q0 28 20.5 49t49.5 21q24 0 41.5 -18.5t17.5 -58.5q0 -105 -107 -205q-13 -12 -22 -1l-11 15q-9 11 5 23l5 5q6 5 10 8.5t11.5 11t13 14.5t12 17
t11.5 20t9 22.5t6 25.5q-3 -3 -22 -3q-21 0 -35.5 16t-14.5 38z" />
    <glyph glyph-name="scommaaccent" unicode="&#x219;" horiz-adv-x="340" 
d="M14 31q-11 9 -2 21l23 38q10 13 22 5q38 -24 78 -24q20 0 34.5 10.5t14.5 29.5q0 16 -12 28.5t-43 30.5q-42 25 -65 52t-23 65q0 49 36.5 86t108.5 37q64 0 105 -31q16 -12 4 -29l-19 -34q-10 -16 -24 -8q-38 19 -73 19q-22 0 -33.5 -9.5t-11.5 -24.5t11 -25.5t36 -25.5
q36 -21 53.5 -33.5t33 -36t15.5 -52.5q0 -56 -40.5 -93t-112.5 -37q-70 0 -116 41zM51 -162q0 28 20.5 49t49.5 21q24 0 41.5 -18.5t17.5 -58.5q0 -105 -107 -205q-13 -12 -22 -1l-11 15q-9 11 5 23l5 5q6 5 10 8.5t11.5 11t13 14.5t12 17t11.5 20t9 22.5t6 25.5
q-3 -3 -22 -3q-21 0 -35.5 16t-14.5 38z" />
    <glyph glyph-name="uni021A" unicode="&#x21a;" horiz-adv-x="447" 
d="M133 19l83 587h-143q-16 0 -14 19l8 56q1 7 6.5 13t12.5 6h390q16 0 14 -19l-8 -56q-1 -8 -6.5 -13.5t-12.5 -5.5h-143l-82 -587q-1 -7 -7 -13t-13 -6h-70q-7 0 -11.5 5.5t-3.5 13.5zM97 -162q0 28 20.5 49t49.5 21q24 0 41.5 -18.5t17.5 -58.5q0 -105 -107 -205
q-13 -12 -22 -1l-11 15q-9 11 5 23l5 5q6 5 10 8.5t11.5 11t13 14.5t12 17t11.5 20t9 22.5t6 25.5q-3 -3 -22 -3q-21 0 -35.5 16t-14.5 38z" />
    <glyph glyph-name="uni021B" unicode="&#x21b;" horiz-adv-x="328" 
d="M65 109l29 208h-44q-7 0 -12 5.5t-3 13.5l7 45q3 19 19 19h45l15 111q1 7 7 13t13 6l61 1q7 0 11 -5.5t3 -13.5l-16 -112h86q18 0 15 -19l-7 -45q-4 -19 -19 -19h-87l-27 -197q-6 -40 23 -40q19 0 52 18q15 8 19 -9l11 -45q4 -14 -12 -24q-11 -7 -46.5 -18.5t-63.5 -11.5
q-96 0 -79 119zM65 -162q0 28 20.5 49t49.5 21q24 0 41.5 -18.5t17.5 -58.5q0 -105 -107 -205q-13 -12 -22 -1l-11 15q-9 11 5 23l5 5q6 5 10 8.5t11.5 11t13 14.5t12 17t11.5 20t9 22.5t6 25.5q-3 -3 -22 -3q-21 0 -35.5 16t-14.5 38z" />
    <glyph glyph-name="dotlessj" unicode="&#x237;" horiz-adv-x="225" 
d="M8 -124l71 505q1 8 7 13.5t13 5.5h62q7 0 11.5 -5.5t3.5 -13.5l-71 -505q-12 -91 -60.5 -138.5t-121.5 -47.5q-65 0 -103 40q-10 10 0 23l25 37q11 16 25 5q22 -18 56 -18q67 0 82 99z" />
    <glyph glyph-name="circumflex" unicode="&#x2c6;" horiz-adv-x="336" 
d="M95 539q-6 -4 -9.5 -4.5t-6 1.5t-6.5 8l-14 20q-9 15 5 24l126 98q12 8 22 0l98 -98q10 -10 2 -21l-18 -22q-11 -12 -23 -2l-77 60z" />
    <glyph glyph-name="caron" unicode="&#x2c7;" horiz-adv-x="336" 
d="M170 536l-98 98q-10 10 -2 21l18 22q11 12 23 2l77 -60l99 64q6 4 9.5 4.5t6 -1.5t6.5 -8l14 -20q9 -15 -5 -24l-126 -98q-12 -8 -22 0z" />
    <glyph glyph-name="uni02C9" unicode="&#x2c9;" horiz-adv-x="373" 
d="M92 576q-17 0 -15 18l4 28q3 19 20 19h231q7 0 11 -5.5t3 -13.5l-4 -28q-2 -18 -20 -18h-230z" />
    <glyph glyph-name="breve" unicode="&#x2d8;" horiz-adv-x="311" 
d="M170 529q-47 0 -78 33.5t-31 82.5q0 21 18 21h27q12 0 14 -15q2 -26 17.5 -42.5t39.5 -16.5q22 0 41 17t29 42q7 15 18 15h33q19 0 12 -21q-15 -51 -53 -83.5t-87 -32.5z" />
    <glyph glyph-name="dotaccent" unicode="&#x2d9;" horiz-adv-x="197" 
d="M115 551q-22 0 -37 16.5t-15 39.5q0 30 21.5 51.5t48.5 21.5q23 0 38 -16.5t15 -40.5q0 -29 -21.5 -50.5t-49.5 -21.5z" />
    <glyph glyph-name="ring" unicode="&#x2da;" horiz-adv-x="261" 
d="M139 488q-36 0 -61 28t-25 68q0 53 34 89.5t83 36.5q35 0 61 -28t26 -68q0 -53 -34.5 -89.5t-83.5 -36.5zM147 543q20 0 36.5 19.5t16.5 43.5q0 19 -10.5 32.5t-27.5 13.5q-21 0 -38 -18t-17 -42q0 -19 11.5 -34t28.5 -15z" />
    <glyph glyph-name="ogonek" unicode="&#x2db;" horiz-adv-x="249" 
d="M124 12h55q-8 -6 -20 -16t-32 -41.5t-20 -61.5q0 -23 12.5 -37t37.5 -14q16 0 45 13q8 3 12 -1.5t3 -13.5l-4 -29q-1 -10 -15 -18q-20 -12 -62 -12q-41 0 -68 24t-27 65q0 25 8.5 49t20.5 40t24.5 28.5t21.5 18.5z" />
    <glyph glyph-name="tilde" unicode="&#x2dc;" horiz-adv-x="342" 
d="M88 568l-26 15q-10 8 -4 23q6 14 16.5 30.5t34 35t47.5 18.5q22 0 38 -16t27 -32t22 -16q10 0 19 8t12 13.5t11 18.5q10 19 25 9l19 -14q15 -12 2 -32q-41 -75 -93 -75q-19 0 -36 16t-29.5 32.5t-21.5 16.5q-19 0 -41 -41q-10 -18 -22 -10z" />
    <glyph glyph-name="hungarumlaut" unicode="&#x2dd;" horiz-adv-x="353" 
d="M218 521q-9 0 -13 5.5t-1 13.5l57 141q8 19 20 19h58q12 0 15.5 -7.5t-2.5 -17.5l-90 -139q-9 -15 -19 -15h-25zM69 521q-9 0 -13 5.5t-1 13.5l57 141q8 19 20 19h58q12 0 15.5 -7.5t-2.5 -17.5l-90 -139q-9 -15 -19 -15h-25z" />
    <glyph glyph-name="uni0394" unicode="&#x394;" horiz-adv-x="694" 
d="M-10 0q-35 0 -13 41l364 662q5 9 15 9h5q9 0 12 -9l177 -664q3 -16 -2 -27.5t-21 -11.5h-537zM117 95l312 1l-96 409h-2z" />
    <glyph glyph-name="uni03A9" unicode="&#x3a9;" horiz-adv-x="781" 
d="M1 0q-12 0 -12 14v2l9 64q2 16 16 16h97q-41 32 -66 90t-25 123q0 164 113.5 282.5t264.5 118.5q120 0 201 -90t81 -216q0 -87 -45.5 -177.5t-107.5 -130.5h86q12 0 12 -14v-2l-9 -64q-1 -6 -5.5 -11t-10.5 -5h-238q-15 0 -13 16l4 41q2 22 24 30q87 37 142.5 122.5
t55.5 181.5q0 93 -52.5 156t-136.5 63q-106 0 -184.5 -92.5t-78.5 -212.5q0 -73 33 -132t92 -86q16 -9 14 -23l-6 -48q-1 -6 -6 -11t-11 -5h-238z" />
    <glyph glyph-name="uni03BC" unicode="&#x3bc;" horiz-adv-x="479" 
d="M119 -2l-38 -279q-1 -7 -7 -13t-13 -6h-59q-7 0 -11 6t-3 13l90 662q4 19 20 19h61q7 0 11.5 -5.5t3.5 -13.5l-29 -204q-7 -48 8.5 -74.5t48.5 -26.5q30 0 58 24.5t33 38.5l33 242q2 19 23 19h55q7 0 11.5 -5.5t3.5 -13.5l-51 -362q-1 -8 -7 -13.5t-13 -5.5h-29
q-10 0 -14 16l-6 29q-55 -55 -127 -55q-29 0 -53 8z" />
    <glyph glyph-name="pi" unicode="&#x3c0;" horiz-adv-x="655" 
d="M117 16l42 301h-77q-14 0 -12 16l7 51q2 16 17 16h511q13 0 11 -16l-7 -51q-2 -16 -16 -16h-80l-42 -301q-4 -16 -18 -16h-68q-13 0 -11 16l42 301h-159l-42 -301q-4 -16 -19 -16h-67q-6 0 -9.5 5t-2.5 11z" />
    <glyph glyph-name="Wgrave" unicode="&#x1e80;" horiz-adv-x="822" 
d="M166 4l-75 672q-1 10 4.5 17t14.5 7h68q13 0 15 -14l39 -439h4l211 452q5 11 17 11h16q12 0 14 -11l80 -452h4l163 439q6 14 18 14h72q10 0 13.5 -7t-0.5 -17l-265 -672q-5 -14 -18 -14h-14q-12 0 -15 13l-89 468h-4l-227 -470q-5 -11 -17 -11h-14q-13 0 -15 14zM547 777
l-140 70q-17 8 -6 26l26 41q9 13 24 3l131 -91q11 -6 3 -19l-15 -26q-7 -12 -23 -4z" />
    <glyph glyph-name="wgrave" unicode="&#x1e81;" horiz-adv-x="566" 
d="M99 0l-58 377q-1 10 4 16.5t14 6.5h49q12 0 14 -12l30 -211h1l131 223q6 10 16 10h6q12 0 14 -10l61 -224h1l87 212q5 12 22 12h51q20 0 10 -24l-160 -376q-5 -10 -18 -10h-4q-12 0 -14 9l-72 257h-1l-150 -257q-5 -9 -16 -9h-4q-12 0 -14 10zM388 546l-140 70
q-17 8 -6 26l26 41q9 13 24 3l131 -91q11 -6 3 -19l-15 -26q-7 -12 -23 -4z" />
    <glyph glyph-name="Wacute" unicode="&#x1e82;" horiz-adv-x="822" 
d="M166 4l-75 672q-1 10 4.5 17t14.5 7h68q13 0 15 -14l39 -439h4l211 452q5 11 17 11h16q12 0 14 -11l80 -452h4l163 439q6 14 18 14h72q10 0 13.5 -7t-0.5 -17l-265 -672q-5 -14 -18 -14h-14q-12 0 -15 13l-89 468h-4l-227 -470q-5 -11 -17 -11h-14q-13 0 -15 14zM423 773
q-18 -8 -22 6l-11 31q-4 12 8 19l156 91q4 4 13 3t12 -10l17 -44q7 -17 -9 -24z" />
    <glyph glyph-name="wacute" unicode="&#x1e83;" horiz-adv-x="566" 
d="M99 0l-58 377q-1 10 4 16.5t14 6.5h49q12 0 14 -12l30 -211h1l131 223q6 10 16 10h6q12 0 14 -10l61 -224h1l87 212q5 12 22 12h51q20 0 10 -24l-160 -376q-5 -10 -18 -10h-4q-12 0 -14 9l-72 257h-1l-150 -257q-5 -9 -16 -9h-4q-12 0 -14 10zM263 543q-18 -8 -22 6
l-11 31q-4 12 8 19l156 91q4 4 13 3t12 -10l17 -44q7 -17 -9 -24z" />
    <glyph glyph-name="Wdieresis" unicode="&#x1e84;" horiz-adv-x="822" 
d="M166 4l-75 672q-1 10 4.5 17t14.5 7h68q13 0 15 -14l39 -439h4l211 452q5 11 17 11h16q12 0 14 -11l80 -452h4l163 439q6 14 18 14h72q10 0 13.5 -7t-0.5 -17l-265 -672q-5 -14 -18 -14h-14q-12 0 -15 13l-89 468h-4l-227 -470q-5 -11 -17 -11h-14q-13 0 -15 14zM590 782
q-20 0 -33 14.5t-13 35.5q0 26 19 44.5t43 18.5q20 0 34 -14.5t14 -34.5q0 -26 -19.5 -45t-44.5 -19zM377 782q-20 0 -33 14.5t-13 35.5q0 26 19 44.5t43 18.5q20 0 34 -14.5t14 -34.5q0 -26 -19.5 -45t-44.5 -19z" />
    <glyph glyph-name="wdieresis" unicode="&#x1e85;" horiz-adv-x="566" 
d="M99 0l-58 377q-1 10 4 16.5t14 6.5h49q12 0 14 -12l30 -211h1l131 223q6 10 16 10h6q12 0 14 -10l61 -224h1l87 212q5 12 22 12h51q20 0 10 -24l-160 -376q-5 -10 -18 -10h-4q-12 0 -14 9l-72 257h-1l-150 -257q-5 -9 -16 -9h-4q-12 0 -14 10zM415 567q-21 0 -34 14
t-13 35q0 26 19 45t43 19q21 0 34.5 -14.5t13.5 -35.5q0 -26 -19 -44.5t-44 -18.5zM236 567q-20 0 -33.5 14.5t-13.5 34.5q0 27 19 45.5t44 18.5q20 0 33.5 -14.5t13.5 -35.5q0 -26 -19 -44.5t-44 -18.5z" />
    <glyph glyph-name="Ygrave" unicode="&#x1ef2;" horiz-adv-x="525" 
d="M171 19l45 318l-162 337q-4 10 1.5 18t15.5 8h71q12 0 17 -11l117 -254h2l192 254q9 11 20 11h79q11 0 13.5 -8t-4.5 -18l-258 -336l-45 -319q-1 -7 -7 -13t-13 -6h-69q-7 0 -11.5 5.5t-3.5 13.5zM389 777l-140 70q-17 8 -6 26l26 41q9 13 24 3l131 -91q11 -6 3 -19
l-15 -26q-7 -12 -23 -4z" />
    <glyph glyph-name="ygrave" unicode="&#x1ef3;" horiz-adv-x="425" 
d="M125 21l-102 355q-3 10 2 17t15 7h58q10 0 14 -11l73 -268h1l144 268q6 11 22 11h58q11 0 14.5 -8t-2.5 -18l-367 -662q-6 -12 -17 -12h-63q-11 0 -14 7t3 18zM309 546l-140 70q-17 8 -6 26l26 41q9 13 24 3l131 -91q11 -6 3 -19l-15 -26q-7 -12 -23 -4z" />
    <glyph glyph-name="endash" unicode="&#x2013;" horiz-adv-x="515" 
d="M81 216q-8 0 -12 5.5t-3 12.5l4 24q3 19 19 19h349q18 0 15 -19l-4 -24q-4 -18 -19 -18h-349z" />
    <glyph glyph-name="emdash" unicode="&#x2014;" horiz-adv-x="713" 
d="M81 216q-8 0 -12 5.5t-3 12.5l4 24q3 19 19 19h547q18 0 15 -19l-4 -24q-4 -18 -19 -18h-547z" />
    <glyph glyph-name="quoteleft" unicode="&#x2018;" horiz-adv-x="194" 
d="M122 420q-24 0 -41.5 18.5t-17.5 58.5q0 105 107 205q13 12 22 1l11 -15q9 -11 -5 -23l-6 -5q-5 -5 -9 -8.5t-11.5 -11t-13 -14.5t-12 -17t-11.5 -20t-9 -22.5t-6 -25.5q3 3 22 3q21 0 35.5 -16t14.5 -38q0 -28 -21 -49t-49 -21z" />
    <glyph glyph-name="quoteright" unicode="&#x2019;" horiz-adv-x="192" 
d="M81 427l-11 15q-9 11 5 23l5 5q6 5 10 8.5t11.5 11t13 14.5t12 17t11.5 20t9 22.5t6 25.5q-3 -3 -22 -3q-21 0 -35.5 16t-14.5 38q0 28 20.5 49t49.5 21q24 0 41.5 -18.5t17.5 -58.5q0 -105 -107 -205q-13 -12 -22 -1z" />
    <glyph glyph-name="quotesinglbase" unicode="&#x201a;" horiz-adv-x="222" 
d="M15 44q0 28 20.5 49t49.5 21q24 0 41.5 -18.5t17.5 -58.5q0 -105 -107 -205q-13 -12 -22 -1l-11 15q-9 11 5 23l5 5q6 5 10 8.5t11.5 11t13 14.5t12 17t11.5 20t9 22.5t6 25.5q-3 -3 -22 -3q-21 0 -35.5 16t-14.5 38z" />
    <glyph glyph-name="quotedblleft" unicode="&#x201c;" horiz-adv-x="365" 
d="M293 420q-24 0 -41.5 18.5t-17.5 58.5q0 105 107 205q13 12 22 1l11 -15q9 -11 -5 -23l-5 -5q-6 -5 -10 -8.5t-11.5 -11t-13 -14.5t-12 -17t-11.5 -20t-9 -22.5t-6 -25.5q3 3 22 3q21 0 35.5 -16t14.5 -38q0 -28 -20.5 -49t-49.5 -21zM122 420q-24 0 -41.5 18.5
t-17.5 58.5q0 105 107 205q13 12 22 1l11 -15q9 -11 -5 -23l-6 -5q-5 -5 -9 -8.5t-11.5 -11t-13 -14.5t-12 -17t-11.5 -20t-9 -22.5t-6 -25.5q3 3 22 3q21 0 35.5 -16t14.5 -38q0 -28 -21 -49t-49 -21z" />
    <glyph glyph-name="quotedblright" unicode="&#x201d;" horiz-adv-x="362" 
d="M252 427l-11 15q-9 11 5 23l6 5q5 5 9 8.5t11.5 11t13 14.5t12 17t11.5 20t9 22.5t6 25.5q-3 -3 -22 -3q-21 0 -35.5 16t-14.5 38q0 28 21 49t49 21q24 0 41.5 -18.5t17.5 -58.5q0 -105 -107 -205q-13 -12 -22 -1zM81 427l-11 15q-9 11 5 23l5 5q6 5 10 8.5t11.5 11
t13 14.5t12 17t11.5 20t9 22.5t6 25.5q-3 -3 -22 -3q-21 0 -35.5 16t-14.5 38q0 28 20.5 49t49.5 21q24 0 41.5 -18.5t17.5 -58.5q0 -105 -107 -205q-13 -12 -22 -1z" />
    <glyph glyph-name="quotedblbase" unicode="&#x201e;" horiz-adv-x="391" 
d="M184 44q0 28 21 49t49 21q24 0 41.5 -18.5t17.5 -58.5q0 -105 -107 -205q-13 -12 -22 -1l-11 15q-9 11 5 23l6 5q5 5 9 8.5t11.5 11t13 14.5t12 17t11.5 20t9 22.5t6 25.5q-3 -3 -22 -3q-21 0 -35.5 16t-14.5 38zM15 44q0 28 20.5 49t49.5 21q24 0 41.5 -18.5t17.5 -58.5
q0 -105 -107 -205q-13 -12 -22 -1l-11 15q-9 11 5 23l5 5q6 5 10 8.5t11.5 11t13 14.5t12 17t11.5 20t9 22.5t6 25.5q-3 -3 -22 -3q-21 0 -35.5 16t-14.5 38z" />
    <glyph glyph-name="dagger" unicode="&#x2020;" horiz-adv-x="556" 
d="M67 310q-7 0 -11.5 6t-3.5 13l8 52q4 19 19 19h159l40 281q1 7 6.5 13t12.5 6h75q7 0 11 -6t3 -13l-39 -281h165q7 0 11 -6t3 -13l-8 -52q-4 -19 -18 -19h-170l-109 -594q-1 -6 -7 -11t-13 -5h-14q-6 0 -11 5t-4 11l59 594h-164z" />
    <glyph glyph-name="daggerdbl" unicode="&#x2021;" horiz-adv-x="556" 
d="M36 19l7 52q1 7 7 13t13 6h143l32 308v1h-159q-7 0 -11 5.5t-3 13.5l7 52q1 7 7 13t13 6h159l27 192q1 7 6.5 13t12.5 6h75q7 0 11 -6t3 -13l-27 -192h166q15 0 13 -19l-7 -52q-1 -8 -6.5 -13.5t-12.5 -5.5h-165l-56 -309h151q15 0 13 -19l-7 -52q-1 -7 -6.5 -13
t-12.5 -6h-156l-52 -284q-1 -6 -7 -11t-13 -5h-14q-6 0 -11 5t-4 11l27 284h-149q-7 0 -11 5.5t-3 13.5z" />
    <glyph glyph-name="bullet" unicode="&#x2022;" horiz-adv-x="341" 
d="M152 107q-40 0 -67 30t-27 73q0 54 39.5 94.5t88.5 40.5q42 0 70 -31t28 -75q0 -53 -40 -92.5t-92 -39.5z" />
    <glyph glyph-name="ellipsis" unicode="&#x2026;" horiz-adv-x="590" 
d="M390 46q0 30 21.5 51.5t49.5 21.5q23 0 37.5 -16t14.5 -40q0 -30 -21 -51.5t-49 -21.5q-23 0 -38 16.5t-15 39.5zM202 46q0 30 21.5 51.5t48.5 21.5q23 0 38 -16.5t15 -40.5q0 -29 -21.5 -50.5t-49.5 -21.5q-22 0 -37 16.5t-15 39.5zM13 46q0 30 21.5 51.5t48.5 21.5
q23 0 38 -16.5t15 -40.5q0 -29 -21.5 -50.5t-49.5 -21.5q-22 0 -37 16.5t-15 39.5z" />
    <glyph glyph-name="perthousand" unicode="&#x2030;" horiz-adv-x="887" 
d="M185 440q-44 0 -74.5 34t-30.5 83q0 63 41 108t100 45q44 0 74.5 -34t30.5 -83q0 -64 -41 -108.5t-100 -44.5zM79 27l402 663q7 10 16 10h41q10 0 13.5 -8.5t-2.5 -18.5l-404 -663q-5 -10 -16 -10h-39q-10 0 -13.5 8.5t2.5 18.5zM194 511q23 0 41 21.5t18 51.5
q0 22 -11.5 37.5t-29.5 15.5q-23 0 -41 -21.5t-18 -50.5q0 -23 11.5 -38.5t29.5 -15.5zM584 107q0 63 41 108t100 45q44 0 74.5 -34t30.5 -83q0 -64 -41 -108.5t-100 -44.5q-44 0 -74.5 34t-30.5 83zM309 107q0 63 41 108t100 45q44 0 74.5 -34t30.5 -83q0 -64 -41 -108.5
t-100 -44.5q-44 0 -74.5 34t-30.5 83zM657 115q0 -23 11.5 -38.5t29.5 -15.5q23 0 41 21.5t18 51.5q0 22 -11.5 37.5t-29.5 15.5q-23 0 -41 -21.5t-18 -50.5zM382 115q0 -23 11.5 -38.5t29.5 -15.5q23 0 41 21.5t18 51.5q0 22 -11.5 37.5t-29.5 15.5q-23 0 -41 -21.5
t-18 -50.5z" />
    <glyph glyph-name="guilsinglleft" unicode="&#x2039;" horiz-adv-x="251" 
d="M96 39l-72 155q-6 12 3 24l116 148q10 12 20 12h44q11 0 13.5 -9.5t-4.5 -21.5l-85 -147l36 -139q3 -13 -1.5 -21.5t-16.5 -8.5h-41q-8 0 -12 8z" />
    <glyph glyph-name="guilsinglright" unicode="&#x203a;" horiz-adv-x="252" 
d="M24 31q-11 0 -13.5 9.5t4.5 21.5l85 147l-36 139q-3 13 1.5 21.5t16.5 8.5h41q8 0 12 -8l72 -155q6 -12 -3 -24l-116 -148q-10 -12 -20 -12h-44z" />
    <glyph glyph-name="fraction" unicode="&#x2044;" horiz-adv-x="107" 
d="M-68 10q-5 -10 -16 -10h-39q-10 0 -13.5 8.5t2.5 18.5l402 663q7 10 16 10h41q10 0 13.5 -8.5t-2.5 -18.5z" />
    <glyph glyph-name="zerosuperior" unicode="&#x2070;" horiz-adv-x="318" 
d="M228 494q-45 0 -70 32.5t-25 89.5q0 88 37 140.5t102 52.5q44 0 69.5 -33t25.5 -89q0 -89 -37 -141t-102 -52zM236 555q28 0 45 34.5t17 91.5q0 67 -35 67q-27 0 -43.5 -36t-16.5 -93q0 -64 33 -64z" />
    <glyph glyph-name="foursuperior" unicode="&#x2074;" horiz-adv-x="331" 
d="M258 504q-8 0 -8 9l7 49h-126q-9 0 -7 8l6 40l175 187q3 3 7 3h32q8 0 8 -9l-25 -178h35q9 0 7 -8l-5 -34q-2 -9 -9 -9h-36l-6 -49q-2 -9 -11 -9h-44zM199 613h67l14 93z" />
    <glyph glyph-name="fivesuperior" unicode="&#x2075;" horiz-adv-x="292" 
d="M205 494q-29 0 -50.5 12t-31.5 26q-4 9 1 15l23 23q7 7 13 1q21 -21 54 -21q21 0 37.5 16.5t16.5 38.5q0 17 -11 27.5t-31 10.5h-68q-14 0 -12 16l19 132q2 9 9 9h143q9 0 7 -9l-5 -36q-2 -8 -9 -8h-97l-7 -50h36q42 0 66 -23.5t24 -62.5q0 -52 -34.5 -84.5t-92.5 -32.5z
" />
    <glyph glyph-name="sixsuperior" unicode="&#x2076;" horiz-adv-x="298" 
d="M220 494q-41 0 -65.5 29.5t-24.5 71.5t15 78.5t35.5 60t47 42t44.5 27t33 13.5q12 5 14 -7l8 -30q2 -11 -10 -15q-26 -8 -60.5 -30.5t-47.5 -53.5q2 2 8.5 5t19 6.5t25.5 3.5q31 0 53.5 -22t22.5 -60q0 -49 -34.5 -84t-83.5 -35zM228 552q19 0 33.5 16t14.5 38
q0 17 -10 29t-25 12t-30 -10.5t-20 -21.5q-2 -23 7.5 -43t29.5 -20z" />
    <glyph glyph-name="sevensuperior" unicode="&#x2077;" horiz-adv-x="289" 
d="M133 504q-4 0 -6.5 1.5t-1.5 5.5l1 7l140 227h-106q-9 0 -7 9l5 37q2 9 9 9h180q9 0 7 -9l-2 -13l-158 -265q-6 -9 -15 -9h-46z" />
    <glyph glyph-name="eightsuperior" unicode="&#x2078;" horiz-adv-x="302" 
d="M218 494q-43 0 -68 21.5t-25 54.5q0 32 23 55t41 31v1q-14 7 -25 23.5t-11 37.5q0 41 31.5 66.5t78.5 25.5q39 0 64 -20.5t25 -52.5q0 -29 -18 -49.5t-39 -30.5v-1q16 -7 29.5 -25t13.5 -42q0 -41 -32.5 -68t-87.5 -27zM246 684q17 3 27 14.5t10 26.5q0 13 -8 22t-20 9
q-14 0 -25 -12t-11 -28q0 -26 27 -32zM227 548q17 0 29.5 11.5t12.5 29.5q0 31 -31 37q-18 -3 -30.5 -17t-12.5 -30q0 -14 9.5 -22.5t22.5 -8.5z" />
    <glyph glyph-name="ninesuperior" unicode="&#x2079;" horiz-adv-x="299" 
d="M173 488q-12 -5 -14 7l-8 30q-2 11 10 15q26 8 60.5 30.5t47.5 53.5q-2 -2 -8.5 -5t-19 -6.5t-25.5 -3.5q-31 0 -53.5 22t-22.5 60q0 49 34.5 84t83.5 35q41 0 65.5 -29.5t24.5 -71.5t-15 -78.5t-35.5 -60t-47 -42t-44.5 -27t-33 -13.5zM237 657q15 0 30 10.5t20 21.5
q2 23 -7.5 43t-29.5 20q-19 0 -33.5 -16t-14.5 -38q0 -17 10 -29t25 -12z" />
    <glyph glyph-name="zeroinferior" unicode="&#x2080;" horiz-adv-x="318" 
d="M33 -38q0 88 37 140.5t102 52.5q44 0 69.5 -33t25.5 -89q0 -89 -37 -141t-102 -52q-45 0 -70 32.5t-25 89.5zM103 -35q0 -64 33 -64q28 0 45 34.5t17 91.5q0 67 -35 67q-27 0 -43.5 -36t-16.5 -93z" />
    <glyph glyph-name="oneinferior" unicode="&#x2081;" horiz-adv-x="210" 
d="M47 59v27q0 7 7 11l73 49h41q9 0 7 -9l-40 -278q0 -9 -9 -9h-49q-10 0 -8 9l28 201l-43 -7q-7 -1 -7 6z" />
    <glyph glyph-name="twoinferior" unicode="&#x2082;" horiz-adv-x="283" 
d="M76 74l-18 30q-4 9 5 18q34 34 86 34q39 0 64.5 -23t25.5 -55q0 -48 -50 -101l-65 -73h82q9 0 7 -10l-5 -35q-2 -9 -9 -9h-175q-9 0 -8 9l2 15l121 130q33 33 33 58q0 15 -9.5 25.5t-26.5 10.5q-24 0 -47 -25q-7 -7 -13 1z" />
    <glyph glyph-name="threeinferior" unicode="&#x2083;" horiz-adv-x="286" 
d="M73 -15l3 28q2 12 15 12h27q22 0 36 12t14 30q0 15 -10 24t-25 9q-18 0 -43 -20q-7 -6 -13 1l-19 28q-7 9 3 15q44 32 81 32q40 0 66.5 -21.5t26.5 -54.5q0 -53 -57 -77v-2q16 -8 30 -25t14 -41q0 -43 -32 -69t-85 -26q-49 0 -82 37q-6 7 1 14l19 24q7 7 14 0
q20 -20 49 -20q20 0 34 12t14 31q0 15 -11.5 25.5t-32.5 10.5h-26q-12 0 -11 11z" />
    <glyph glyph-name="fourinferior" unicode="&#x2084;" horiz-adv-x="331" 
d="M30 -44l175 187q3 3 7 3h32q8 0 8 -9l-25 -178h35q9 0 7 -8l-5 -34q-2 -9 -9 -9h-36l-6 -49q-2 -9 -11 -9h-44q-8 0 -8 9l7 49h-126q-9 0 -7 8zM99 -41h67l14 93z" />
    <glyph glyph-name="fiveinferior" unicode="&#x2085;" horiz-adv-x="292" 
d="M46 5l19 132q2 9 9 9h143q9 0 7 -9l-5 -36q-2 -8 -9 -8h-97l-7 -50h36q42 0 66 -23.5t24 -62.5q0 -52 -34.5 -84.5t-92.5 -32.5q-29 0 -50.5 12t-31.5 26q-4 9 1 15l23 23q7 7 13 1q21 -21 54 -21q21 0 37.5 16.5t16.5 38.5q0 17 -11 27.5t-31 10.5h-68q-14 0 -12 16z
" />
    <glyph glyph-name="sixinferior" unicode="&#x2086;" horiz-adv-x="298" 
d="M30 -59q0 42 15 78.5t35.5 60t47 42t44.5 27t33 13.5q12 5 14 -7l8 -30q2 -11 -10 -15q-26 -8 -60.5 -30.5t-47.5 -53.5q2 2 8.5 5t19 6.5t25.5 3.5q31 0 53.5 -22t22.5 -60q0 -49 -34.5 -84t-83.5 -35q-41 0 -65.5 29.5t-24.5 71.5zM91 -39q-2 -23 7.5 -43t29.5 -20
q19 0 33.5 16t14.5 38q0 17 -10 29t-25 12t-30 -10.5t-20 -21.5z" />
    <glyph glyph-name="seveninferior" unicode="&#x2087;" horiz-adv-x="289" 
d="M60 91q-9 0 -7 9l5 37q2 9 9 9h180q9 0 7 -9l-2 -13l-158 -265q-6 -9 -15 -9h-46q-4 0 -6.5 1.5t-1.5 5.5l1 7l140 227h-106z" />
    <glyph glyph-name="eightinferior" unicode="&#x2088;" horiz-adv-x="302" 
d="M53 64q0 41 31.5 66.5t78.5 25.5q39 0 64 -20.5t25 -52.5q0 -29 -18 -49.5t-39 -30.5v-1q16 -7 29.5 -25t13.5 -42q0 -41 -32.5 -68t-87.5 -27q-43 0 -68 21.5t-25 54.5q0 32 23 55t41 31v1q-14 7 -25 23.5t-11 37.5zM119 62q0 -26 27 -32q17 3 27 14.5t10 26.5
q0 13 -8 22t-20 9q-14 0 -25 -12t-11 -28zM95 -75q0 -14 9.5 -22.5t22.5 -8.5q17 0 29.5 11.5t12.5 29.5q0 31 -31 37q-18 -3 -30.5 -17t-12.5 -30z" />
    <glyph glyph-name="nineinferior" unicode="&#x2089;" horiz-adv-x="299" 
d="M40 37q0 49 34.5 84t83.5 35q41 0 65.5 -29.5t24.5 -71.5t-15 -78.5t-35.5 -60t-47 -42t-44.5 -27t-33 -13.5q-12 -5 -14 7l-8 30q-2 11 10 15q26 8 60.5 30.5t47.5 53.5q-2 -2 -8.5 -5t-19 -6.5t-25.5 -3.5q-31 0 -53.5 22t-22.5 60zM102 44q0 -17 10 -29t25 -12
t30 10.5t20 21.5q2 23 -7.5 43t-29.5 20q-19 0 -33.5 -16t-14.5 -38z" />
    <glyph glyph-name="Euro" unicode="&#x20ac;" horiz-adv-x="672" 
d="M46 251q-7 0 -11 5.5t-2 13.5l2 10q4 19 18 19h36q-3 43 7 72h-33q-7 0 -11 5.5t-2 13.5l2 10q4 19 18 19h38q36 127 135 209t225 82q121 0 205 -93q13 -15 -3 -28l-47 -40q-15 -14 -26 0q-53 62 -141 62q-74 0 -138.5 -54.5t-95.5 -137.5h222q7 0 12 -5.5t3 -13.5
l-2 -11q-4 -18 -20 -18h-229q-11 -38 -6 -72h189q7 0 12 -5.5t3 -13.5l-2 -11q-4 -18 -20 -18h-176q14 -70 61.5 -114.5t114.5 -44.5q41 0 76 17.5t78 51.5q13 11 21 1l45 -48q10 -12 -5 -27q-103 -97 -232 -97q-111 0 -186.5 73t-88.5 188h-46z" />
    <glyph glyph-name="afii61289" unicode="&#x2113;" horiz-adv-x="505" 
d="M150 -10q-61 0 -87 47t-16 114q2 12 14 64q-24 -8 -44 -12q-14 -2 -14 10l1 29q2 18 15 20q32 6 63 17q3 10 12.5 40.5t14.5 48.5q56 176 108.5 259t123.5 83q49 0 69.5 -38.5t12.5 -95.5q-18 -123 -100.5 -211.5t-197.5 -133.5q-15 -44 -20 -78q-16 -104 53 -104
q72 0 142 44q17 11 22 -3l7 -19q4 -8 3.5 -13t-8.5 -11q-10 -8 -29 -18.5t-61.5 -24.5t-83.5 -14zM144 297q89 40 147.5 110.5t72.5 168.5q11 76 -31 76q-43 0 -83 -73.5t-86 -220.5z" />
    <glyph glyph-name="trademark" unicode="&#x2122;" horiz-adv-x="649" 
d="M319 391q-9 0 -13 7t-1 16l85 276q6 15 20 15h3q12 0 14 -11l49 -199l107 199q7 11 17 11h3q15 0 15 -15l9 -277q0 -9 -6 -15.5t-14 -6.5h-29q-15 0 -15 17l-2 145l-82 -156q-5 -9 -16 -9h-5q-12 0 -14 10l-35 155l-45 -146q-4 -16 -20 -16h-25zM149 391q-7 0 -11.5 5.5
t-2.5 13.5l32 228h-59q-7 0 -11.5 5.5t-3.5 13.5l4 24q4 19 19 19h181q7 0 12 -5.5t3 -13.5l-4 -24q-3 -19 -19 -19h-60l-32 -228q-1 -8 -6.5 -13.5t-12.5 -5.5h-29z" />
    <glyph glyph-name="Omega" unicode="&#x2126;" horiz-adv-x="781" 
d="M1 0q-12 0 -12 14v2l9 64q2 16 16 16h97q-41 32 -66 90t-25 123q0 164 113.5 282.5t264.5 118.5q120 0 201 -90t81 -216q0 -87 -45.5 -177.5t-107.5 -130.5h86q12 0 12 -14v-2l-9 -64q-1 -6 -5.5 -11t-10.5 -5h-238q-15 0 -13 16l4 41q2 22 24 30q87 37 142.5 122.5
t55.5 181.5q0 93 -52.5 156t-136.5 63q-106 0 -184.5 -92.5t-78.5 -212.5q0 -73 33 -132t92 -86q16 -9 14 -23l-6 -48q-1 -6 -6 -11t-11 -5h-238z" />
    <glyph glyph-name="estimated" unicode="&#x212e;" horiz-adv-x="823" 
d="M110 162q27 -54 80.5 -85t119.5 -31q100 0 198 84q16 14 24 1l11 -18q6 -12 -7 -25q-109 -98 -234 -98q-137 0 -217.5 104t-59.5 255q22 152 131.5 256.5t246.5 104.5q136 0 216 -105t60 -257q-4 -27 -24 -27h-523zM140 375h432l23 160q-30 56 -81.5 87t-118.5 31
q-140 0 -232 -116z" />
    <glyph glyph-name="onethird" unicode="&#x2153;" horiz-adv-x="601" 
d="M65 27l402 663q7 10 16 10h41q10 0 13.5 -8.5t-2.5 -18.5l-404 -663q-5 -10 -16 -10h-39q-10 0 -13.5 8.5t2.5 18.5zM124 404q-10 0 -8 9l28 201l-43 -7q-7 -1 -7 6v27q0 7 7 11l73 49h41q9 0 7 -9l-40 -278q0 -9 -9 -9h-49zM341 27q-6 7 1 14l19 24q7 7 14 0
q20 -20 49 -20q20 0 34 12t14 31q0 15 -11.5 25.5t-32.5 10.5h-26q-12 0 -11 11l3 28q2 12 15 12h27q22 0 35 12t13 30q0 15 -9.5 24t-23.5 9q-18 0 -43 -20q-7 -6 -13 1l-19 28q-7 9 3 15q27 32 85 32q37 0 63 -20t26 -52q0 -29 -17.5 -50.5t-39.5 -30.5v-2q16 -8 30 -25
t14 -41q0 -43 -32 -69t-85 -26q-49 0 -82 37z" />
    <glyph glyph-name="twothirds" unicode="&#x2154;" horiz-adv-x="601" 
d="M14 404q-9 0 -8 9l2 15l121 130q33 33 33 58q0 15 -9.5 25.5t-26.5 10.5q-24 0 -47 -25q-7 -7 -13 1l-18 30q-4 9 5 18q34 34 86 34q39 0 64.5 -23t25.5 -55q0 -48 -50 -101l-65 -73h82q9 0 7 -10l-5 -35q-2 -9 -9 -9h-175zM65 27l402 663q7 10 16 10h41q10 0 13.5 -8.5
t-2.5 -18.5l-404 -663q-5 -10 -16 -10h-39q-10 0 -13.5 8.5t2.5 18.5zM341 27q-6 7 1 14l19 24q7 7 14 0q20 -20 49 -20q20 0 34 12t14 31q0 15 -11.5 25.5t-32.5 10.5h-26q-12 0 -11 11l3 28q2 12 15 12h27q22 0 36 12t14 30q0 15 -10 24t-25 9q-18 0 -43 -20q-7 -6 -13 1
l-19 28q-7 9 3 15q44 32 81 32q40 0 66.5 -21.5t26.5 -54.5q0 -53 -57 -77v-2q16 -8 30 -25t14 -41q0 -43 -32 -69t-85 -26q-49 0 -82 37z" />
    <glyph glyph-name="oneeighth" unicode="&#x215b;" horiz-adv-x="601" 
d="M65 27l402 663q7 10 16 10h41q10 0 13.5 -8.5t-2.5 -18.5l-404 -663q-5 -10 -16 -10h-39q-10 0 -13.5 8.5t2.5 18.5zM124 404q-10 0 -8 9l28 201l-43 -7q-7 -1 -7 6v27q0 7 7 11l73 49h41q9 0 7 -9l-40 -278q0 -9 -9 -9h-49zM354 66q0 32 23 55t41 31v1q-14 7 -25 23.5
t-11 37.5q0 41 31.5 66.5t78.5 25.5q39 0 64 -20.5t25 -52.5q0 -29 -18 -49.5t-39 -30.5v-1q16 -7 29.5 -25t13.5 -42q0 -41 -32.5 -68t-87.5 -27q-43 0 -68 21.5t-25 54.5zM448 212q0 -26 27 -32q17 3 27 14.5t10 26.5q0 13 -8 22t-20 9q-14 0 -25 -12t-11 -28zM424 75
q0 -14 9.5 -22.5t22.5 -8.5q17 0 29.5 11.5t12.5 29.5q0 31 -31 37q-18 -3 -30.5 -17t-12.5 -30z" />
    <glyph glyph-name="threeeighths" unicode="&#x215c;" horiz-adv-x="601" 
d="M105 394q-49 0 -82 37q-6 7 1 14l19 24q7 7 14 0q20 -20 49 -20q20 0 34 12t14 31q0 15 -11.5 25.5t-32.5 10.5h-26q-12 0 -11 11l3 28q2 12 15 12h27q22 0 36 12t14 30q0 15 -10 24t-25 9q-18 0 -43 -20q-7 -6 -13 1l-19 28q-6 9 3 15q44 32 81 32q40 0 66.5 -21.5
t26.5 -54.5q0 -53 -57 -77v-2q16 -8 30 -25t14 -41q0 -43 -32 -69t-85 -26zM65 27l402 663q7 10 16 10h41q10 0 13.5 -8.5t-2.5 -18.5l-404 -663q-5 -10 -16 -10h-39q-10 0 -13.5 8.5t2.5 18.5zM354 66q0 32 23 55t41 31v1q-14 7 -25 23.5t-11 37.5q0 41 31.5 66.5
t78.5 25.5q39 0 64 -20.5t25 -52.5q0 -29 -18 -49.5t-39 -30.5v-1q16 -7 29.5 -25t13.5 -42q0 -41 -32.5 -68t-87.5 -27q-43 0 -68 21.5t-25 54.5zM448 212q0 -26 27 -32q17 3 27 14.5t10 26.5q0 13 -8 22t-20 9q-14 0 -25 -12t-11 -28zM424 75q0 -14 9.5 -22.5t22.5 -8.5
q17 0 29.5 11.5t12.5 29.5q0 31 -31 37q-18 -3 -30.5 -17t-12.5 -30z" />
    <glyph glyph-name="fiveeighths" unicode="&#x215d;" horiz-adv-x="601" 
d="M65 27l402 663q7 10 16 10h41q10 0 13.5 -8.5t-2.5 -18.5l-404 -663q-5 -10 -16 -10h-39q-10 0 -13.5 8.5t2.5 18.5zM99 394q-29 0 -50.5 12t-31.5 26q-4 9 1 15l23 23q7 7 13 1q21 -21 54 -21q21 0 37.5 16.5t16.5 38.5q0 17 -11 27.5t-31 10.5h-68q-14 0 -12 16l19 132
q2 9 9 9h143q9 0 7 -9l-5 -36q-2 -8 -9 -8h-97l-7 -50h36q42 0 66 -23.5t24 -62.5q0 -52 -34.5 -84.5t-92.5 -32.5zM354 66q0 32 23 55t41 31v1q-14 7 -25 23.5t-11 37.5q0 41 31.5 66.5t78.5 25.5q39 0 64 -20.5t25 -52.5q0 -29 -18 -49.5t-39 -30.5v-1q16 -7 29.5 -25
t13.5 -42q0 -41 -32.5 -68t-87.5 -27q-43 0 -68 21.5t-25 54.5zM448 212q0 -26 27 -32q17 3 27 14.5t10 26.5q0 13 -8 22t-20 9q-14 0 -25 -12t-11 -28zM424 75q0 -14 9.5 -22.5t22.5 -8.5q17 0 29.5 11.5t12.5 29.5q0 31 -31 37q-18 -3 -30.5 -17t-12.5 -30z" />
    <glyph glyph-name="seveneighths" unicode="&#x215e;" horiz-adv-x="601" 
d="M65 27l402 663q7 10 16 10h41q10 0 13.5 -8.5t-2.5 -18.5l-404 -663q-5 -10 -16 -10h-39q-10 0 -13.5 8.5t2.5 18.5zM62 404q-4 0 -6.5 1.5t-1.5 5.5l1 7l140 227h-106q-9 0 -7 9l5 37q2 9 9 9h180q9 0 7 -9l-2 -13l-158 -265q-6 -9 -15 -9h-46zM354 66q0 32 23 55t41 31
v1q-14 7 -25 23.5t-11 37.5q0 41 31.5 66.5t78.5 25.5q39 0 64 -20.5t25 -52.5q0 -29 -18 -49.5t-39 -30.5v-1q16 -7 29.5 -25t13.5 -42q0 -41 -32.5 -68t-87.5 -27q-43 0 -68 21.5t-25 54.5zM448 212q0 -26 27 -32q17 3 27 14.5t10 26.5q0 13 -8 22t-20 9q-14 0 -25 -12
t-11 -28zM424 75q0 -14 9.5 -22.5t22.5 -8.5q17 0 29.5 11.5t12.5 29.5q0 31 -31 37q-18 -3 -30.5 -17t-12.5 -30z" />
    <glyph glyph-name="partialdiff" unicode="&#x2202;" horiz-adv-x="570" 
d="M57 184q0 114 67 183t154 69q57 0 109 -37q-9 80 -70.5 142.5t-106.5 78.5q-16 5 -16 18q0 5 3 11l22 41q8 13 17 13q4 0 6 -1q27 -12 53 -28t62 -47.5t62.5 -69t45.5 -95t19 -122.5q0 -46 -7.5 -92t-26.5 -93.5t-47.5 -83t-73.5 -58.5t-101 -23q-73 0 -122 56t-49 138z
M151 191q0 -48 24 -79.5t67 -31.5q46 0 78.5 33t46.5 75.5t17 89.5q-5 23 -31 49.5t-73 26.5q-54 0 -91.5 -48.5t-37.5 -114.5z" />
    <glyph glyph-name="Delta" unicode="&#x2206;" horiz-adv-x="694" 
d="M-10 0q-35 0 -13 41l364 662q5 9 15 9h5q9 0 12 -9l177 -664q3 -16 -2 -27.5t-21 -11.5h-537zM117 95l312 1l-96 409h-2z" />
    <glyph glyph-name="product" unicode="&#x220f;" horiz-adv-x="671" 
d="M31 16l93 668q4 16 17 16h487q6 0 9.5 -5t1.5 -11l-93 -668q-4 -16 -17 -16h-75q-7 0 -10.5 5t-1.5 11l82 587h-308l-82 -587q-4 -16 -17 -16h-75q-5 0 -8.5 5t-2.5 11z" />
    <glyph glyph-name="summation" unicode="&#x2211;" horiz-adv-x="538" 
d="M24 16l4 30l308 317l-222 295l3 26q4 16 17 16h368q6 0 9.5 -5t1.5 -11l-9 -65q-2 -16 -16 -16h-222l150 -194q12 -15 10 -31l-5 -36q-1 -12 -20 -34l-208 -211h224q14 0 12 -17l-9 -64q-4 -16 -17 -16h-368q-6 0 -9.5 5t-1.5 11z" />
    <glyph glyph-name="minus" unicode="&#x2212;" horiz-adv-x="475" 
d="M66 307q-7 0 -11 5.5t-3 13.5l6 42q1 8 6.5 13.5t12.5 5.5h351q7 0 11 -5.5t3 -13.5l-6 -42q-1 -8 -6.5 -13.5t-12.5 -5.5h-351z" />
    <glyph glyph-name="uni2215" unicode="&#x2215;" horiz-adv-x="556" 
d="M15 0q-10 0 -13.5 8.5t2.5 18.5l402 663q7 10 16 10h41q10 0 13.5 -8.5t-2.5 -18.5l-404 -663q-5 -10 -16 -10h-39z" />
    <glyph glyph-name="uni2219" unicode="&#x2219;" horiz-adv-x="340" 
d="M204 185q-27 0 -44.5 19t-17.5 46q0 34 25 58.5t58 24.5q27 0 45 -19t18 -47q0 -33 -25.5 -57.5t-58.5 -24.5z" />
    <glyph glyph-name="radical" unicode="&#x221a;" horiz-adv-x="677" 
d="M186 0l-101 380q-2 8 1.5 14t11.5 6h69q12 0 12 -9l45 -204h3l267 503q6 10 14 10h163q15 0 13 -16l-7 -54q-1 -6 -6 -11t-12 -5h-102l-339 -614q-6 -10 -14 -10h-7q-9 0 -11 10z" />
    <glyph glyph-name="infinity" unicode="&#x221e;" horiz-adv-x="600" 
d="M180 157q-49 0 -81 41t-25 98q8 59 49 99.5t96 40.5q29 0 53 -18t35 -44q18 28 48 45t64 17q48 0 80.5 -41.5t24.5 -98.5q-8 -59 -48 -99t-96 -40q-29 0 -53.5 17.5t-35.5 43.5q-45 -61 -111 -61zM335 296q-4 -28 11 -48t41 -20t46 20t24 48t-10.5 48t-40.5 20
q-25 0 -45.5 -19.5t-25.5 -48.5zM193 228q25 0 45.5 20t24.5 48t-11 48t-40 20q-26 0 -47 -20t-25 -48t11.5 -48t41.5 -20z" />
    <glyph glyph-name="integral" unicode="&#x222b;" horiz-adv-x="354" 
d="M95 -124l91 648q13 91 62 138.5t127 47.5q58 0 95 -40q10 -10 0 -24l-30 -40q-11 -15 -23 -3q-21 19 -54 19q-28 0 -50 -24.5t-29 -73.5l-91 -649q-13 -92 -62 -138.5t-128 -46.5q-59 0 -94 40q-8 10 -1 23l31 40q11 15 23 3q19 -19 53 -19q28 0 50.5 24.5t29.5 74.5z
" />
    <glyph glyph-name="approxequal" unicode="&#x2248;" horiz-adv-x="410" 
d="M106 323l-28 22q-11 9 0 22q6 13 33 39q44 43 86 43q30 0 66 -33q3 -2 11.5 -11.5t15.5 -13.5t16 -4q31 0 59 42q11 15 24 5l26 -22q9 -8 -2 -21l-1 -2q-2 -2 -5 -7t-7.5 -11t-10.5 -12.5t-13 -13.5t-16 -13t-18 -10.5t-20 -7.5t-22 -3q-28 0 -59 31t-51 31
q-32 0 -62 -44q-11 -16 -22 -6zM90 132l-28 22q-11 9 0 22q6 13 33 39q44 43 86 43q30 0 66 -33q3 -2 11.5 -11.5t15.5 -13.5t16 -4q31 0 59 42q11 15 24 5l26 -22q9 -8 -2 -21l-1 -2q-2 -2 -5 -7t-7.5 -11t-10.5 -12.5t-13 -13.5t-16 -13t-18 -10.5t-20 -7.5t-22 -3
q-28 0 -59 31t-51 31q-32 0 -62 -44q-11 -16 -22 -6z" />
    <glyph glyph-name="notequal" unicode="&#x2260;" horiz-adv-x="410" 
d="M117 54q-14 8 -5 24l31 55h-62q-7 0 -12 5.5t-3 13.5l7 44q4 19 19 19h99l69 129h-150q-7 0 -11 5.5t-3 13.5l6 43q1 8 7 13.5t13 5.5h186l42 76q9 18 24 9l8 -5q14 -9 5 -24l-31 -56h52q16 0 14 -19l-6 -43q-1 -8 -7 -13.5t-13 -5.5h-88l-68 -129h138q7 0 12 -5.5
t3 -13.5l-7 -44q-1 -8 -6.5 -13.5t-12.5 -5.5h-175l-42 -75q-4 -7 -11.5 -9.5t-12.5 0.5z" />
    <glyph glyph-name="lessequal" unicode="&#x2264;" horiz-adv-x="453" 
d="M51 383q-8 5 -7 17l1 10q1 8 12 14l381 190q8 5 13 1t4 -14l-8 -63q-2 -10 -10 -15l-266 -123l232 -121q7 -5 5 -15l-8 -53q-1 -10 -8 -14t-13 1zM13 52q-7 0 -11 5.5t-3 13.5l5 42q1 7 7 13t13 6h349q15 0 13 -19l-6 -42q-1 -8 -6 -13.5t-12 -5.5h-349z" />
    <glyph glyph-name="greaterequal" unicode="&#x2265;" horiz-adv-x="453" 
d="M35 198q-8 -5 -13 -1t-4 14l8 63q2 12 9 15l266 121l-232 123q-6 3 -4 15l8 53q4 23 21 13l327 -190q7 -4 6 -14l-1 -10q-1 -13 -11 -17zM12 52q-15 0 -13 19l5 42q1 7 6.5 13t12.5 6h349q7 0 11 -5.5t3 -13.5l-6 -42q-1 -8 -6.5 -13.5t-12.5 -5.5h-349z" />
    <glyph glyph-name="lozenge" unicode="&#x25ca;" horiz-adv-x="694" 
d="M282 9l-166 300q-12 23 -8 48q3 23 24 48l247 298q7 9 15 9h6q6 0 11 -9l164 -297q14 -27 11 -50q-4 -23 -26 -51l-246 -296q-7 -9 -15 -9h-6q-6 0 -11 9zM311 142h2l176 214l-113 215h-2l-176 -215z" />
    <glyph glyph-name="uniF8FF" unicode="&#xf8ff;" horiz-adv-x="599" 
d="M50 30v640q0 30 30 30h439q30 0 30 -30v-640q0 -30 -30 -30h-439q-30 0 -30 30zM262 314q0 -12 14 -12h36q15 0 15 13v26q0 16 16.5 32t36 28.5t36 36.5t16.5 53q0 48 -35.5 79.5t-89.5 31.5q-24 0 -46.5 -6.5t-37 -15t-25.5 -17.5t-16 -15l-5 -7q-8 -12 0 -18l22 -22
q8 -6 17 0q1 1 7.5 7t9.5 9t11.5 8.5t15.5 8.5t18 5.5t22 2.5q29 0 45 -15t16 -37q0 -21 -15.5 -39t-34 -30t-34 -32.5t-15.5 -45.5v-29zM245 156q0 -20 14.5 -34t33.5 -14q20 0 34.5 14t14.5 34t-14.5 34t-34.5 14q-19 0 -33.5 -14t-14.5 -34z" />
    <glyph glyph-name="CR" horiz-adv-x="0" 
 />
    <glyph glyph-name="grave.cap" horiz-adv-x="272" 
d="M231 777l-140 70q-17 8 -6 26l26 41q9 13 24 3l131 -91q11 -6 3 -19l-15 -26q-7 -12 -23 -4z" />
    <glyph glyph-name="acute.cap" horiz-adv-x="272" 
d="M107 773q-18 -8 -22 6l-11 31q-4 12 8 19l156 91q4 4 13 3t12 -10l17 -44q7 -17 -9 -24z" />
    <glyph glyph-name="circumflex.cap" horiz-adv-x="336" 
d="M105 772q-6 -4 -9.5 -4.5t-6 1.5t-6.5 8l-14 20q-9 15 5 24l126 98q12 8 22 0l98 -98q10 -10 2 -21l-18 -22q-11 -12 -23 -2l-77 60z" />
    <glyph glyph-name="caron.cap" horiz-adv-x="336" 
d="M184 769l-98 98q-10 10 -2 21l18 22q11 12 23 2l77 -60l99 64q6 4 9.5 4.5t6 -1.5t6.5 -8l14 -20q9 -15 -5 -24l-126 -98q-12 -8 -22 0z" />
    <glyph glyph-name="caron.alt" horiz-adv-x="336" 
d="M125 641q0 29 20.5 49.5t49.5 20.5q24 0 41.5 -18.5t17.5 -58.5q0 -105 -107 -205q-13 -12 -22 -1l-11 15q-9 11 5 23l5 5q6 5 10 8.5t11.5 11t13 14.5t12 17t11.5 20t9 22.5t6 25.5q-3 -3 -22 -3q-21 0 -35.5 16t-14.5 38z" />
    <glyph glyph-name="tilde.cap" horiz-adv-x="342" 
d="M97 791l-26 15q-10 8 -4 23q6 14 16.5 30.5t34 35t47.5 18.5q22 0 38 -16t27 -32t22 -16q20 0 42 40q10 19 25 9l19 -14q15 -12 2 -32q-41 -75 -93 -75q-19 0 -36 16.5t-29.5 32.5t-21.5 16q-19 0 -41 -41q-10 -18 -22 -10z" />
    <glyph glyph-name="dieresis.cap" horiz-adv-x="427" 
d="M349 782q-20 0 -33 14.5t-13 35.5q0 26 19 44.5t43 18.5q20 0 34 -14.5t14 -34.5q0 -26 -19.5 -45t-44.5 -19zM136 782q-20 0 -33 14.5t-13 35.5q0 26 19 44.5t43 18.5q20 0 34 -14.5t14 -34.5q0 -26 -19.5 -45t-44.5 -19z" />
    <glyph glyph-name="macron.cap" horiz-adv-x="373" 
d="M106 814q-17 0 -15 18l4 28q3 19 20 19h230q17 0 15 -19l-4 -28q-2 -18 -20 -18h-230z" />
    <glyph glyph-name="breve.cap" horiz-adv-x="311" 
d="M184 768q-47 0 -78 33.5t-31 82.5q0 21 18 21h27q12 0 14 -15q2 -26 17.5 -42.5t39.5 -16.5q22 0 41 17t29 42q7 15 18 15h33q19 0 12 -21q-15 -51 -53 -83.5t-87 -32.5z" />
    <glyph glyph-name="ring.cap" horiz-adv-x="261" 
d="M154 756q-36 0 -61 28t-25 68q0 53 34 89.5t83 36.5q35 0 61 -28t26 -68q0 -53 -34.5 -89.5t-83.5 -36.5zM162 811q20 0 36.5 19.5t16.5 43.5q0 19 -10.5 32.5t-27.5 13.5q-21 0 -38 -18t-17 -42q0 -19 11.5 -34t28.5 -15z" />
    <glyph glyph-name="hungarumlaut.cap" horiz-adv-x="353" 
d="M229 768q-9 0 -13 5.5t-1 13.5l57 141q8 19 20 19h58q12 0 15.5 -7.5t-2.5 -17.5l-90 -139q-9 -15 -19 -15h-25zM80 768q-9 0 -13 5.5t-1 13.5l57 141q8 19 20 19h58q12 0 15.5 -7.5t-2.5 -17.5l-90 -139q-9 -15 -19 -15h-25z" />
    <glyph glyph-name="dotaccent.cap" horiz-adv-x="197" 
d="M128 788q-22 0 -37 16.5t-15 40.5q0 29 21 50.5t49 21.5q23 0 38 -16t15 -40q0 -30 -21.5 -51.5t-49.5 -21.5z" />
    <glyph glyph-name="cedilla.cap" horiz-adv-x="223" 
d="M75 0h56l-7 -55q76 -17 76 -92q0 -47 -30 -80t-77 -33q-19 0 -38 10t-28 25q-9 14 2 25l16 15q9 9 20 -1q14 -14 31 -14t29 14.5t12 34.5q0 41 -61 49q-16 4 -13 19z" />
    <glyph glyph-name="ogonek.cap" horiz-adv-x="249" 
d="M124 12h55q-8 -6 -20 -16t-32 -41.5t-20 -61.5q0 -23 12.5 -37t37.5 -14q16 0 45 13q8 3 12 -1.5t3 -13.5l-4 -29q-1 -10 -15 -18q-20 -12 -62 -12q-41 0 -68 24t-27 65q0 25 8.5 49t20.5 40t24.5 28.5t21.5 18.5z" />
    <glyph glyph-name="commaaccent" horiz-adv-x="262" 
d="M110 -162q0 28 21 49t49 21q24 0 41.5 -18.5t17.5 -58.5q0 -105 -107 -205q-13 -12 -22 -1l-11 15q-9 11 5 23l6 5q5 5 9 8.5t11.5 11t13 14.5t12 17t11.5 20t9 22.5t6 25.5q-3 -3 -22 -3q-21 0 -35.5 16t-14.5 38z" />
    <glyph glyph-name="commaaccent.alt" horiz-adv-x="262" 
d="M110 -162q0 28 21 49t49 21q24 0 41.5 -18.5t17.5 -58.5q0 -105 -107 -205q-13 -12 -22 -1l-11 15q-9 11 5 23l6 5q5 5 9 8.5t11.5 11t13 14.5t12 17t11.5 20t9 22.5t6 25.5q-3 -3 -22 -3q-21 0 -35.5 16t-14.5 38z" />
    <glyph glyph-name="commaaccent.cap" horiz-adv-x="262" 
d="M110 -162q0 28 21 49t49 21q24 0 41.5 -18.5t17.5 -58.5q0 -105 -107 -205q-13 -12 -22 -1l-11 15q-9 11 5 23l6 5q5 5 9 8.5t11.5 11t13 14.5t12 17t11.5 20t9 22.5t6 25.5q-3 -3 -22 -3q-21 0 -35.5 16t-14.5 38z" />
    <glyph glyph-name="brokenbar.case" horiz-adv-x="333" 
d="M200 512q-7 0 -11.5 5.5t-3.5 12.5l47 331q1 8 7 13.5t13 5.5h10q16 0 13 -19l-46 -331q-4 -18 -20 -18h-9zM135 169q1 8 6.5 13.5t12.5 5.5h11q16 0 13 -19l-46 -331q-4 -18 -20 -18h-9q-7 0 -11.5 5.5t-3.5 12.5z" />
    <glyph glyph-name="zero.tf" horiz-adv-x="604" 
d="M264 -10q-87 0 -135 74t-48 191q0 199 74.5 317.5t207.5 118.5q86 0 134 -73t48 -191q0 -199 -75 -318t-206 -119zM277 82q75 0 120 95t45 246q0 82 -24 129t-68 47q-77 0 -122 -94.5t-45 -246.5q0 -82 24.5 -129t69.5 -47z" />
    <glyph glyph-name="one.tf" horiz-adv-x="604" 
d="M96 0q-17 0 -15 18l6 43q3 19 20 19h128l64 446l-91 -47q-16 -7 -18 7l-3 40q-2 14 6 20l156 134h53q7 0 11 -5.5t3 -13.5l-83 -581h111q18 0 15 -19l-6 -43q-2 -18 -20 -18h-337z" />
    <glyph glyph-name="two.tf" horiz-adv-x="604" 
d="M71 19l3 26l275 302q80 87 80 158q0 38 -22 65.5t-67 27.5q-31 0 -63.5 -22.5t-53.5 -46.5q-12 -15 -27 0l-32 36q-13 14 -1 28q5 6 11 12.5t26 23.5t40 29t50.5 22t61.5 10q81 0 128 -49t47 -120q0 -64 -24.5 -113t-78.5 -109l-190 -213h214q7 0 11 -5.5t3 -13.5l-6 -48
q-1 -7 -7 -13t-13 -6h-351q-16 0 -14 19z" />
    <glyph glyph-name="three.tf" horiz-adv-x="604" 
d="M77 79q-8 13 5 24l41 33q13 12 25 -3q13 -18 43.5 -37t69.5 -19q48 0 83.5 33t35.5 87q0 43 -31 73t-88 30h-50q-17 0 -14 21l6 43q3 21 20 21h51q64 0 100.5 36t36.5 89q0 41 -23 64.5t-59 23.5q-48 0 -107 -56q-14 -14 -25 -1l-32 38q-11 13 1 29q10 12 29.5 28t62 35
t85.5 19q73 0 122 -44.5t49 -115.5q0 -63 -36.5 -111t-80.5 -69v-3q32 -16 59.5 -56t27.5 -91q0 -89 -62.5 -149.5t-163.5 -60.5q-68 0 -115.5 29.5t-65.5 59.5z" />
    <glyph glyph-name="four.tf" horiz-adv-x="604" 
d="M64 149q-7 0 -11.5 5.5t-2.5 13.5l8 60l394 457q6 6 14 6h40q7 0 11 -5.5t3 -13.5l-62 -442h73q7 0 11.5 -5t2.5 -13l-6 -42q-1 -8 -6.5 -13.5t-12.5 -5.5h-73l-17 -132q-4 -19 -20 -19h-63q-7 0 -11 6t-3 13l18 130h-287zM166 232h200l40 277h-2z" />
    <glyph glyph-name="five.tf" horiz-adv-x="604" 
d="M88 79q-8 13 5 24l41 33q13 12 25 -3q12 -17 43.5 -35.5t70.5 -18.5q60 0 98 48t38 112q0 46 -26.5 76.5t-75.5 30.5h-134q-15 0 -22 10.5t-5 24.5l40 280q1 8 6.5 13.5t12.5 5.5h281q7 0 11.5 -5.5t3.5 -13.5l-7 -49q-1 -8 -7 -13.5t-13 -5.5h-208l-22 -159h85
q82 0 131 -52t49 -139q0 -106 -67.5 -179.5t-172.5 -73.5q-39 0 -72.5 10t-55 25.5t-33.5 28t-20 25.5z" />
    <glyph glyph-name="six.tf" horiz-adv-x="604" 
d="M99 215q0 89 28.5 167.5t69.5 130.5t94 93.5t95.5 62.5t79.5 33q17 6 22 -12l12 -44q5 -19 -19 -28q-33 -14 -74 -36.5t-96 -71t-77 -100.5q48 26 110 26q74 0 123.5 -49.5t49.5 -137.5q0 -110 -65.5 -184.5t-164.5 -74.5q-85 0 -136.5 65t-51.5 160zM292 76
q57 0 94.5 46t37.5 110q0 53 -26.5 87t-72.5 34q-47 0 -81.5 -24.5t-46.5 -46.5q-17 -73 9 -139.5t86 -66.5z" />
    <glyph glyph-name="seven.tf" horiz-adv-x="604" 
d="M88 15l2 16l327 561h-263q-7 0 -11 5.5t-3 13.5l7 50q1 7 7 13t13 6h370q7 0 11.5 -5.5t3.5 -13.5l-2 -16l-360 -627q-10 -18 -26 -18h-60q-7 0 -12 4.5t-4 10.5z" />
    <glyph glyph-name="eight.tf" horiz-adv-x="604" 
d="M83 157q0 48 28 92.5t55.5 66t51.5 34.5v3q-28 18 -50.5 53.5t-22.5 81.5q0 89 62.5 145.5t156.5 56.5q74 0 123.5 -44.5t49.5 -114.5q0 -62 -36 -109t-80 -70l-1 -4q32 -17 59.5 -57t27.5 -90q0 -90 -64 -150.5t-174 -60.5q-80 0 -133 48t-53 119zM325 396
q51 11 81 44.5t30 77.5q0 39 -23 63t-60 24q-42 0 -75.5 -32.5t-33.5 -78.5q0 -82 81 -98zM188 165q0 -41 26.5 -67t64.5 -26q50 0 87 33.5t37 87.5q0 37 -24.5 68t-66.5 39q-55 -9 -89.5 -48.5t-34.5 -86.5z" />
    <glyph glyph-name="nine.tf" horiz-adv-x="604" 
d="M125 40q-5 19 19 28q33 14 74 36.5t96 71t77 100.5q-48 -26 -110 -26q-74 0 -123.5 49.5t-49.5 137.5q0 110 65.5 184.5t164.5 74.5q85 0 136.5 -65t51.5 -160q0 -89 -28.5 -167.5t-69.5 -130.5t-94 -93.5t-95.5 -62.5t-79.5 -33q-17 -6 -22 12zM300 333q47 0 81.5 24.5
t46.5 46.5q17 73 -9 139.5t-86 66.5q-57 0 -94.5 -46t-37.5 -110q0 -53 26.5 -87t72.5 -34z" />
    <glyph glyph-name="zero.denom" horiz-adv-x="318" 
d="M63 112q0 88 37 140.5t102 52.5q44 0 69.5 -33t25.5 -89q0 -89 -37 -141t-102 -52q-45 0 -70 32.5t-25 89.5zM166 51q28 0 45 34.5t17 91.5q0 67 -35 67q-27 0 -43.5 -36t-16.5 -93q0 -64 33 -64z" />
    <glyph glyph-name="one.denom" horiz-adv-x="210" 
d="M99 9l28 201l-43 -7q-7 -1 -7 6v27q0 7 7 11l73 49h41q9 0 7 -9l-40 -278q0 -9 -9 -9h-49q-10 0 -8 9z" />
    <glyph glyph-name="two.denom" horiz-adv-x="283" 
d="M46 9l2 15l121 130q33 33 33 58q0 15 -9.5 25.5t-26.5 10.5q-24 0 -47 -25q-7 -7 -13 1l-18 30q-4 9 5 18q34 34 86 34q39 0 64.5 -23t25.5 -55q0 -48 -50 -101l-65 -73h82q9 0 7 -10l-5 -35q-2 -9 -9 -9h-175q-9 0 -8 9z" />
    <glyph glyph-name="three.denom" horiz-adv-x="286" 
d="M53 27q-6 7 1 14l19 24q7 7 14 0q20 -20 49 -20q20 0 34 12t14 31q0 15 -11.5 25.5t-32.5 10.5h-26q-12 0 -11 11l3 28q2 12 15 12h27q22 0 36 12t14 30q0 15 -10 24t-25 9q-18 0 -43 -20q-7 -6 -13 1l-19 28q-7 9 3 15q44 32 81 32q40 0 66.5 -21.5t26.5 -54.5
q0 -53 -57 -77v-2q16 -8 30 -25t14 -41q0 -43 -32 -69t-85 -26q-49 0 -82 37z" />
    <glyph glyph-name="four.denom" horiz-adv-x="331" 
d="M61 58q-9 0 -7 8l6 40l175 187q3 3 7 3h32q8 0 8 -9l-25 -178h35q9 0 7 -8l-5 -34q-2 -9 -9 -9h-36l-6 -49q-2 -9 -11 -9h-44q-8 0 -8 9l7 49h-126zM129 109h67l14 93z" />
    <glyph glyph-name="five.denom" horiz-adv-x="292" 
d="M53 28q-4 9 1 15l23 23q7 7 13 1q21 -21 54 -21q21 0 37.5 16.5t16.5 38.5q0 17 -11 27.5t-31 10.5h-68q-14 0 -12 16l19 132q2 9 9 9h143q9 0 7 -9l-5 -36q-2 -8 -9 -8h-97l-7 -50h36q42 0 66 -23.5t24 -62.5q0 -52 -34.5 -84.5t-92.5 -32.5q-29 0 -50.5 12t-31.5 26z
" />
    <glyph glyph-name="six.denom" horiz-adv-x="298" 
d="M60 91q0 42 15 78.5t35.5 60t47 42t44.5 27t33 13.5q12 5 14 -7l8 -30q2 -11 -10 -15q-26 -8 -60.5 -30.5t-47.5 -53.5q2 2 8.5 5t19 6.5t25.5 3.5q31 0 53.5 -22t22.5 -60q0 -49 -34.5 -84t-83.5 -35q-41 0 -65.5 29.5t-24.5 71.5zM121 111q-2 -23 7.5 -43t29.5 -20
q19 0 33.5 16t14.5 38q0 17 -10 29t-25 12t-30 -10.5t-20 -21.5z" />
    <glyph glyph-name="seven.denom" horiz-adv-x="289" 
d="M55 7l1 7l140 227h-106q-9 0 -7 9l5 37q2 9 9 9h180q9 0 7 -9l-2 -13l-158 -265q-6 -9 -15 -9h-46q-4 0 -6.5 1.5t-1.5 5.5z" />
    <glyph glyph-name="eight.denom" horiz-adv-x="302" 
d="M55 66q0 32 23 55t41 31v1q-14 7 -25 23.5t-11 37.5q0 41 31.5 66.5t78.5 25.5q39 0 64 -20.5t25 -52.5q0 -29 -18 -49.5t-39 -30.5v-1q16 -7 29.5 -25t13.5 -42q0 -41 -32.5 -68t-87.5 -27q-43 0 -68 21.5t-25 54.5zM176 180q17 3 27 14.5t10 26.5q0 13 -8 22t-20 9
q-14 0 -25 -12t-11 -28q0 -26 27 -32zM125 75q0 -14 9.5 -22.5t22.5 -8.5q17 0 29.5 11.5t12.5 29.5q0 31 -31 37q-18 -3 -30.5 -17t-12.5 -30z" />
    <glyph glyph-name="nine.denom" horiz-adv-x="299" 
d="M81 21q-2 11 10 15q26 8 60.5 30.5t47.5 53.5q-2 -2 -8.5 -5t-19 -6.5t-25.5 -3.5q-31 0 -53.5 22t-22.5 60q0 49 34.5 84t83.5 35q41 0 65.5 -29.5t24.5 -71.5t-15 -78.5t-35.5 -60t-47 -42t-44.5 -27t-33 -13.5q-12 -5 -14 7zM167 153q15 0 30 10.5t20 21.5
q2 23 -7.5 43t-29.5 20q-19 0 -33.5 -16t-14.5 -38q0 -17 10 -29t25 -12z" />
    <glyph glyph-name="zero.num" horiz-adv-x="318" 
d="M208 394q-45 0 -70 32.5t-25 89.5q0 88 37 140.5t102 52.5q44 0 69.5 -33t25.5 -89q0 -89 -37 -141t-102 -52zM216 455q28 0 45 34.5t17 91.5q0 67 -35 67q-27 0 -43.5 -36t-16.5 -93q0 -64 33 -64z" />
    <glyph glyph-name="one.num" horiz-adv-x="210" 
d="M157 404q-10 0 -8 9l28 201l-43 -7q-7 -1 -7 6v27q0 7 7 11l73 49h41q9 0 7 -9l-40 -278q0 -9 -9 -9h-49z" />
    <glyph glyph-name="two.num" horiz-adv-x="283" 
d="M104 404q-9 0 -8 9l2 15l121 130q33 33 33 58q0 15 -9.5 25.5t-26.5 10.5q-24 0 -47 -25q-7 -7 -13 1l-18 30q-4 9 5 18q34 34 86 34q39 0 64.5 -23t25.5 -55q0 -48 -50 -101l-65 -73h82q9 0 7 -10l-5 -35q-2 -9 -9 -9h-175z" />
    <glyph glyph-name="three.num" horiz-adv-x="286" 
d="M185 394q-49 0 -82 37q-6 7 1 14l19 24q7 7 14 0q20 -20 49 -20q20 0 34 12t14 31q0 15 -11.5 25.5t-32.5 10.5h-26q-12 0 -11 11l3 28q2 12 15 12h27q22 0 36 12t14 30q0 15 -10 24t-25 9q-18 0 -43 -20q-7 -6 -13 1l-19 28q-6 9 3 15q44 32 81 32q40 0 66.5 -21.5
t26.5 -54.5q0 -53 -57 -77v-2q16 -8 30 -25t14 -41q0 -43 -32 -69t-85 -26z" />
    <glyph glyph-name="four.num" horiz-adv-x="331" 
d="M238 404q-8 0 -8 9l7 49h-126q-9 0 -7 8l6 40l175 187q3 3 7 3h32q8 0 8 -9l-25 -178h35q9 0 7 -8l-5 -34q-2 -9 -9 -9h-36l-6 -49q-2 -9 -11 -9h-44zM179 513h67l14 93z" />
    <glyph glyph-name="five.num" horiz-adv-x="292" 
d="M185 394q-29 0 -50.5 12t-31.5 26q-4 9 1 15l23 23q7 7 13 1q21 -21 54 -21q21 0 37.5 16.5t16.5 38.5q0 17 -11 27.5t-31 10.5h-68q-14 0 -12 16l19 132q2 9 9 9h143q9 0 7 -9l-5 -36q-2 -8 -9 -8h-97l-7 -50h36q42 0 66 -23.5t24 -62.5q0 -52 -34.5 -84.5t-92.5 -32.5z
" />
    <glyph glyph-name="six.num" horiz-adv-x="298" 
d="M200 394q-41 0 -65.5 29.5t-24.5 71.5t15 78.5t35.5 60t47 42t44.5 27t33 13.5q12 5 14 -7l8 -30q2 -11 -10 -15q-26 -8 -60.5 -30.5t-47.5 -53.5q2 2 8.5 5t19 6.5t25.5 3.5q31 0 53.5 -22t22.5 -60q0 -49 -34.5 -84t-83.5 -35zM208 452q19 0 33.5 16t14.5 38
q0 17 -10 29t-25 12t-30 -10.5t-20 -21.5q-2 -23 7.5 -43t29.5 -20z" />
    <glyph glyph-name="seven.num" horiz-adv-x="289" 
d="M113 404q-4 0 -6.5 1.5t-1.5 5.5l1 7l140 227h-106q-9 0 -7 9l5 37q2 9 9 9h180q9 0 7 -9l-2 -13l-158 -265q-6 -9 -15 -9h-46z" />
    <glyph glyph-name="eight.num" horiz-adv-x="302" 
d="M198 394q-43 0 -68 21.5t-25 54.5q0 32 23 55t41 31v1q-14 7 -25 23.5t-11 37.5q0 41 31.5 66.5t78.5 25.5q39 0 64 -20.5t25 -52.5q0 -29 -18 -49.5t-39 -30.5v-1q16 -7 29.5 -25t13.5 -42q0 -41 -32.5 -68t-87.5 -27zM226 584q17 3 27 14.5t10 26.5q0 13 -8 22t-20 9
q-14 0 -25 -12t-11 -28q0 -26 27 -32zM207 448q17 0 29.5 11.5t12.5 29.5q0 31 -31 37q-18 -3 -30.5 -17t-12.5 -30q0 -14 9.5 -22.5t22.5 -8.5z" />
    <glyph glyph-name="nine.num" horiz-adv-x="299" 
d="M153 388q-12 -5 -14 7l-8 30q-2 11 10 15q26 8 60.5 30.5t47.5 53.5q-2 -2 -8.5 -5t-19 -6.5t-25.5 -3.5q-31 0 -53.5 22t-22.5 60q0 49 34.5 84t83.5 35q41 0 65.5 -29.5t24.5 -71.5t-15 -78.5t-35.5 -60t-47 -42t-44.5 -27t-33 -13.5zM217 557q15 0 30 10.5t20 21.5
q2 23 -7.5 43t-29.5 20q-19 0 -33.5 -16t-14.5 -38q0 -17 10 -29t25 -12z" />
    <glyph glyph-name="parenleft.case" horiz-adv-x="324" 
d="M72 237q0 111 17.5 198.5t45 142.5t66 92t76.5 52.5t80 17.5q8 1 12 -2.5t3 -10.5l-4 -47q-1 -16 -13 -18q-186 -43 -186 -426q0 -179 97 -209q11 -4 8 -18l-9 -44q-3 -15 -19 -13q-67 3 -120.5 75.5t-53.5 209.5z" />
    <glyph glyph-name="parenright.case" horiz-adv-x="325" 
d="M20 29q187 46 187 421q0 186 -98 213q-11 2 -8 18l10 46q3 14 18 13q70 -5 122 -73.5t52 -213.5q0 -111 -17 -199t-44 -143.5t-65 -92t-77 -51.5t-82 -15q-15 0 -14 16l3 44q2 14 13 17z" />
    <glyph glyph-name="hyphen.case" horiz-adv-x="367" 
d="M94 296q-17 0 -15 18l6 43q3 19 20 19h197q18 0 15 -19l-6 -43q-2 -18 -20 -18h-197z" />
    <glyph glyph-name="bracketleft.case" horiz-adv-x="319" 
d="M112 -99h119q7 0 11.5 -5.5t3.5 -12.5l-6 -44q-1 -7 -7 -13t-13 -6h-193q-7 0 -11.5 5.5t-3.5 13.5l136 962q1 7 6.5 13t12.5 6h194q7 0 11 -5.5t3 -13.5l-6 -44q-1 -8 -7 -13.5t-13 -5.5h-119z" />
    <glyph glyph-name="bracketright.case" horiz-adv-x="320" 
d="M-11 -99h118l118 837h-118q-7 0 -11 5.5t-3 13.5l6 44q1 7 6.5 13t12.5 6h194q7 0 11 -5.5t3 -13.5l-135 -962q-4 -19 -20 -19h-193q-7 0 -11.5 6t-3.5 13l7 44q4 18 19 18z" />
    <glyph glyph-name="braceleft.case" horiz-adv-x="361" 
d="M70 66l20 142q4 30 -13.5 49t-38.5 24q-13 3 -11 18l6 40q2 12 14 16q10 3 23.5 10.5t30.5 25t20 37.5l20 144q9 61 30 107.5t47 74t59 45t62 24t60 7.5q17 0 16 -17l-4 -41q-1 -16 -14 -18q-61 -12 -104.5 -59t-54.5 -123l-17 -119q-13 -91 -92 -133l-1 -4
q69 -36 56 -130l-17 -120q-11 -75 19.5 -121.5t88.5 -58.5q13 -2 10 -18l-9 -41q-3 -17 -20 -17q-37 1 -72 16.5t-65 44.5t-44 79.5t-5 115.5z" />
    <glyph glyph-name="bar.case" horiz-adv-x="183" 
d="M11 -162l144 1023q1 8 7 13.5t13 5.5h10q16 0 13 -19l-143 -1023q-1 -7 -7 -12.5t-13 -5.5h-9q-7 0 -11.5 5.5t-3.5 12.5z" />
    <glyph glyph-name="braceright.case" horiz-adv-x="361" 
d="M141 66l17 120q14 95 91 131l1 5q-34 23 -47 51q-14 34 -8 80l17 119q11 76 -20 123t-89 59q-13 3 -9 18l9 41q4 17 20 17q37 -1 72 -16t65.5 -44t44.5 -80.5t4 -117.5l-21 -144q-4 -28 16.5 -47.5t37.5 -25.5q11 -5 10 -16l-6 -40q-2 -14 -16 -18q-22 -5 -45 -24
t-27 -49l-20 -142q-33 -237 -258 -256q-7 -1 -12 3.5t-4 13.5l3 41q1 16 15 18q61 13 104.5 59t54.5 121z" />
    <glyph glyph-name="guilsinglleft.case" horiz-adv-x="251" 
d="M116 159l-72 155q-6 12 3 24l116 148q10 12 20 12h44q11 0 13.5 -9.5t-4.5 -21.5l-85 -147l36 -139q3 -13 -1.5 -21.5t-16.5 -8.5h-41q-8 0 -12 8z" />
    <glyph glyph-name="guilsinglright.case" horiz-adv-x="252" 
d="M44 151q-11 0 -13.5 9.5t4.5 21.5l85 147l-36 139q-3 13 1.5 21.5t16.5 8.5h41q8 0 12 -8l72 -155q6 -12 -3 -24l-116 -148q-10 -12 -20 -12h-44z" />
    <glyph glyph-name="guillemotleft.case" horiz-adv-x="421" 
d="M286 159l-72 155q-6 12 3 24l116 148q10 12 20 12h44q11 0 13.5 -9.5t-4.5 -21.5l-85 -147l36 -139q3 -13 -1.5 -21.5t-16.5 -8.5h-41q-8 0 -12 8zM116 159l-72 155q-6 12 3 24l116 148q10 12 20 12h44q11 0 13.5 -9.5t-4.5 -21.5l-85 -147l36 -139q3 -13 -1.5 -21.5
t-16.5 -8.5h-41q-8 0 -12 8z" />
    <glyph glyph-name="guillemotright.case" horiz-adv-x="422" 
d="M205 182l85 147l-36 139q-3 13 1.5 21.5t16.5 8.5h41q8 0 12 -8l72 -155q6 -12 -3 -24l-116 -148q-10 -12 -20 -12h-44q-11 0 -13.5 9.5t4.5 21.5zM44 151q-11 0 -13.5 9.5t4.5 21.5l85 147l-36 139q-3 13 1.5 21.5t16.5 8.5h41q8 0 12 -8l72 -155q6 -12 -3 -24
l-116 -148q-10 -12 -20 -12h-44z" />
    <glyph glyph-name="endash.case" horiz-adv-x="515" 
d="M101 306q-8 0 -12 5.5t-3 12.5l4 24q3 19 19 19h349q18 0 15 -19l-4 -24q-4 -18 -19 -18h-349z" />
    <glyph glyph-name="emdash.case" horiz-adv-x="713" 
d="M101 306q-8 0 -12 5.5t-3 12.5l4 24q3 19 19 19h547q18 0 15 -19l-4 -24q-4 -18 -19 -18h-547z" />
    <glyph glyph-name="bullet.case" horiz-adv-x="341" 
d="M172 197q-40 0 -67 30t-27 73q0 54 39.5 94.5t88.5 40.5q42 0 70 -31t28 -75q0 -53 -40 -92.5t-92 -39.5z" />
    <glyph glyph-name="periodcentered.case" horiz-adv-x="235" 
d="M131 275q-27 0 -44.5 19t-17.5 46q0 34 25 58.5t58 24.5q27 0 45 -19t18 -47q0 -33 -25.5 -57.5t-58.5 -24.5z" />
    </font>
</defs>
</svg>
