<?xml version="1.0" standalone="no"?>
<!DOCTYPE svg PUBLIC "-//W3C//DTD SVG 1.1//EN" "http://www.w3.org/Graphics/SVG/1.1/DTD/svg11.dtd" >
<svg xmlns="http://www.w3.org/2000/svg" xmlns:xlink="http://www.w3.org/1999/xlink" version="1.1">
<metadata>
Created by FontForge 20161013 at Sun Feb 21 15:30:34 2010
 By ,,,
Copyright (c) 2009 by Hannes von Doehren. All rights reserved.
</metadata>
<defs>
<font id="BrandonGrotesque-BoldItalic" horiz-adv-x="239" >
  <font-face 
    font-family="Brandon Grotesque Bold"
    font-weight="450"
    font-style="italic"
    font-stretch="normal"
    units-per-em="1000"
    panose-1="2 11 8 3 2 2 3 13 2 2"
    ascent="700"
    descent="-300"
    x-height="400"
    cap-height="700"
    bbox="-183 -382.263 1021.4 1051.48"
    underline-thickness="50"
    underline-position="-200"
    slope="-8"
    unicode-range="U+0020-FB02"
  />
<missing-glyph horiz-adv-x="599" 
d="M50 30v640q0 30 30 30h439q30 0 30 -30v-640q0 -30 -30 -30h-439q-30 0 -30 30zM262 314q0 -12 14 -12h36q15 0 15 13v26q0 16 16.5 32t36 28.5t36 36.5t16.5 53q0 48 -35.5 79.5t-89.5 31.5q-24 0 -46.5 -6.5t-37 -15t-25.5 -17.5t-16 -15l-5 -7q-8 -12 0 -18l22 -22
q8 -6 17 0q1 1 7.5 7t9.5 9t11.5 8.5t15.5 8.5t18 5.5t22 2.5q29 0 45 -15t16 -37q0 -21 -15.5 -39t-34 -30t-34 -32.5t-15.5 -45.5v-29zM245 156q0 -20 14.5 -34t33.5 -14q20 0 34.5 14t14.5 34t-14.5 34t-34.5 14q-19 0 -33.5 -14t-14.5 -34z" />
    <glyph glyph-name="fi" unicode="fi" horiz-adv-x="524" 
d="M2 -281l81 576h-34q-7 0 -11.5 5.5t-3.5 13.5l10 67q2 19 19 19h34l16 109q14 93 68.5 147t140.5 54q71 0 134 -46q13 -9 2 -26l-37 -61q-11 -19 -26 -9q-39 25 -78 25q-29 0 -50.5 -21.5t-27.5 -65.5l-15 -106h243q7 0 11 -5.5t3 -13.5l-51 -362q-1 -7 -6.5 -13
t-12.5 -6h-88q-7 0 -11.5 5.5t-3.5 13.5l39 276h-138l-80 -576q-3 -19 -24 -19h-89q-7 0 -11 6t-3 13z" />
    <glyph glyph-name="fl" unicode="fl" horiz-adv-x="542" 
d="M4 -281l81 577h-36q-7 0 -11.5 5.5t-3.5 13.5l10 66q2 19 19 19h36l16 109q14 96 70 148.5t139 52.5q36 0 68 -14t46 -28l15 -14l15 28q10 18 25 18h33q7 0 11 -5.5t3 -13.5l-93 -662q-1 -7 -6.5 -13t-12.5 -6h-90q-7 0 -11 5.5t-3 13.5l74 533q-4 6 -11.5 15t-25 19
t-36.5 10q-31 0 -55 -22t-30 -66l-15 -108h67q7 0 11 -5.5t3 -13.5l-9 -66q-1 -7 -7 -13t-13 -6h-67l-80 -577q-4 -19 -20 -19h-93q-7 0 -11 5.5t-2 13.5z" />
    <glyph glyph-name="f_f" unicode="ff" horiz-adv-x="603" 
d="M2 -281l81 576h-34q-7 0 -11.5 5.5t-3.5 13.5l10 67q1 8 6.5 13.5t12.5 5.5h35l12 89q14 102 74.5 156.5t147.5 54.5q74 0 122 -46q56 56 135 56q33 0 65 -12.5t43 -26.5q9 -9 1 -23l-35 -61q-11 -18 -27 -8q-23 13 -50 13q-58 0 -71 -84l-16 -108h86q17 0 15 -19
l-10 -67q-1 -8 -6.5 -13.5t-12.5 -5.5h-86l-81 -576q-4 -19 -20 -19h-92q-7 0 -11.5 5.5t-3.5 13.5l81 576h-148l-81 -576q-1 -7 -7 -13t-13 -6h-92q-7 0 -11.5 5.5t-3.5 13.5zM225 400h148l15 106q2 17 9 49q-21 32 -69 32q-35 0 -59.5 -26.5t-31.5 -73.5z" />
    <glyph glyph-name="f_f_i" unicode="ffi" horiz-adv-x="800" 
d="M3 -281l80 576h-34q-16 0 -14 19l9 67q3 19 20 19h34l13 89q13 90 72 150.5t148 60.5q34 0 65 -11.5t44 -22.5l14 -12q56 56 145 56q70 0 133 -46q13 -9 2 -26l-38 -60q-11 -19 -26 -9q-37 24 -77 24q-26 0 -49 -22t-29 -65l-15 -106h242q17 0 15 -19l-51 -362
q-4 -19 -20 -19h-88q-7 0 -11.5 5.5t-2.5 13.5l39 276h-138l-80 -576q-4 -19 -20 -19h-93q-7 0 -11 6t-3 13l81 576h-149l-81 -576q-1 -7 -6.5 -13t-12.5 -6h-93q-7 0 -11 6t-3 13zM225 400h148l16 105q3 26 8 48q-20 33 -68 33q-35 0 -60 -26.5t-32 -73.5z" />
    <glyph glyph-name="f_f_l" unicode="ffl" horiz-adv-x="818" 
d="M2 -281l81 576h-34q-7 0 -11.5 5.5t-3.5 13.5l10 67q1 8 6.5 13.5t12.5 5.5h35l12 89q14 102 73.5 156.5t143.5 54.5q73 0 127 -46q56 56 146 56q36 0 68 -14t46 -28l15 -14l15 28q10 18 25 18h33q7 0 11 -5.5t3 -13.5l-93 -662q-1 -7 -6.5 -13t-12.5 -6h-90
q-7 0 -11 5.5t-3 13.5l74 533q-3 6 -11.5 15t-26.5 19t-37 10q-30 0 -54 -22t-30 -66l-16 -108h67q7 0 11.5 -5.5t3.5 -13.5l-10 -66q-1 -7 -6.5 -13t-12.5 -6h-67l-81 -577q-4 -19 -20 -19h-92q-7 0 -11.5 5.5t-3.5 13.5l81 576h-148l-81 -576q-1 -7 -7 -13t-13 -6h-92
q-7 0 -11.5 5.5t-3.5 13.5zM225 400h148l15 104q2 14 9 48q-22 33 -69 33q-35 0 -59.5 -26.5t-31.5 -73.5z" />
    <glyph glyph-name="f_f_h" unicode="ffh" horiz-adv-x="1065" 
d="M2 -281l81 576h-34q-7 0 -11.5 5.5t-3.5 13.5l10 67q1 8 6.5 13.5t12.5 5.5h35l12 89q14 102 74 156.5t143 54.5q72 0 126 -46q56 56 147 56q36 0 68 -14t46 -28l15 -14l15 28q10 18 25 18h33q7 0 11 -5.5t3 -13.5l-43 -304q43 33 93 33q81 0 116 -58.5t24 -140.5
l-27 -192q-1 -7 -7 -13t-13 -6h-86q-16 0 -14 19l27 191q6 42 -8.5 65.5t-47.5 23.5q-22 0 -40.5 -13.5t-26.5 -27.5l-8 -13l-32 -226q-3 -19 -22 -19h-88q-7 0 -11 5.5t-3 13.5l75 533q-3 6 -11.5 15t-26.5 19t-37 10q-30 0 -54 -22t-30 -66l-16 -108h67q7 0 11.5 -5.5
t3.5 -13.5l-10 -66q-1 -7 -6.5 -13t-12.5 -6h-67l-81 -577q-4 -19 -20 -19h-92q-7 0 -11.5 5.5t-3.5 13.5l81 576h-148l-81 -576q-1 -7 -7 -13t-13 -6h-92q-7 0 -11.5 5.5t-3.5 13.5zM225 400h148l15 104q2 14 9 48q-22 33 -69 33q-35 0 -59.5 -26.5t-31.5 -73.5z" />
    <glyph glyph-name="f_k" unicode="fk" horiz-adv-x="763" 
d="M4 -281l81 577h-36q-7 0 -11.5 5.5t-3.5 13.5l10 66q2 19 19 19h36l16 109q14 96 69.5 148.5t139.5 52.5q36 0 68 -14t46 -28l15 -14l15 28q10 18 25 18h33q7 0 11 -5.5t3 -13.5l-62 -433l122 140q10 12 24 12h108q11 0 13 -9.5t-6 -17.5l-153 -161l131 -187
q6 -8 1.5 -16.5t-16.5 -8.5h-104q-7 0 -13 8l-116 180l-23 -169q-4 -19 -20 -19h-90q-7 0 -11 6t-3 13l76 533q-4 6 -11.5 15t-25 19t-36.5 10q-31 0 -55 -22t-30 -66l-15 -108h67q7 0 11 -5.5t3 -13.5l-9 -66q-1 -7 -7 -13t-13 -6h-67l-80 -577q-4 -19 -20 -19h-93
q-7 0 -11 5.5t-2 13.5z" />
    <glyph glyph-name="f_j" unicode="fj" horiz-adv-x="535" 
d="M2 -281l81 576h-34q-7 0 -11.5 5.5t-3.5 13.5l10 67q2 19 19 19h34l16 109q14 93 68.5 147t140.5 54q71 0 134 -46q13 -9 2 -26l-38 -60q-11 -19 -26 -9q-37 24 -77 24q-29 0 -50.5 -21.5t-27.5 -65.5l-15 -106h253q7 0 11 -5.5t3 -13.5l-69 -489q-13 -97 -67.5 -149.5
t-136.5 -52.5q-10 0 -14 1q-12 2 -9 17l19 91q3 11 15 11q57 0 70 91l56 394h-146l-80 -576q-3 -19 -24 -19h-89q-7 0 -11 6t-3 13z" />
    <glyph glyph-name="f_f_j" unicode="ffj" horiz-adv-x="811" 
d="M3 -281l80 576h-34q-16 0 -14 19l9 67q3 19 20 19h34l13 89q13 90 72 150.5t148 60.5q34 0 65 -11.5t44 -22.5l14 -12q56 56 145 56q70 0 133 -46q13 -9 2 -26l-38 -60q-11 -19 -26 -9q-37 24 -77 24q-26 0 -49 -22t-29 -65l-15 -106h253q7 0 11 -5.5t3 -13.5l-69 -489
q-13 -96 -69.5 -149t-134.5 -53q-10 0 -14 1q-12 2 -9 17l19 91q3 11 15 11q56 0 70 91l56 394h-146l-80 -576q-4 -19 -20 -19h-93q-7 0 -11 6t-3 13l81 576h-149l-81 -576q-1 -7 -6.5 -13t-12.5 -6h-93q-7 0 -11 6t-3 13zM225 400h148l16 105q2 14 9 48q-20 33 -69 33
q-35 0 -60 -26.5t-32 -73.5z" />
    <glyph glyph-name="f_b" unicode="fb" horiz-adv-x="770" 
d="M4 -281l81 577h-36q-7 0 -11.5 5.5t-3.5 13.5l10 66q2 19 19 19h36l16 109q14 96 70 148.5t139 52.5q36 0 68 -14t46 -28l15 -14l15 28q10 18 25 18h33q7 0 11 -5.5t3 -13.5l-41 -289q36 18 73 18q67 0 112.5 -53t45.5 -129q0 -96 -61.5 -167t-145.5 -71q-35 0 -62.5 15
t-38.5 30l-10 15l-15 -33q-8 -17 -21 -17h-39q-7 0 -11 6t-3 13l75 533q-4 6 -11.5 15t-25 19t-36.5 10q-31 0 -55 -22t-30 -66l-15 -108h67q7 0 11 -5.5t3 -13.5l-9 -66q-1 -7 -7 -13t-13 -6h-67l-80 -577q-4 -19 -20 -19h-93q-7 0 -11 5.5t-2 13.5zM463 164
q3 -23 18 -44.5t43 -21.5q37 0 64.5 36.5t27.5 84.5q0 36 -18.5 59.5t-49.5 23.5q-18 0 -35 -6t-25 -12l-7 -5z" />
    <glyph glyph-name="f_f_k" unicode="ffk" horiz-adv-x="1039" 
d="M2 -281l81 576h-34q-7 0 -11.5 5.5t-3.5 13.5l10 67q1 8 6.5 13.5t12.5 5.5h35l12 89q14 101 75 156t142 55q73 0 127 -46q56 56 146 56q36 0 68 -14t46 -28l15 -14l15 28q10 18 25 18h33q7 0 11 -5.5t3 -13.5l-62 -433l122 140q10 12 24 12h108q11 0 13 -9.5t-6 -17.5
l-153 -161l131 -187q6 -8 1.5 -16.5t-16.5 -8.5h-104q-7 0 -13 8l-116 180l-23 -169q-4 -19 -20 -19h-90q-7 0 -11 5.5t-3 13.5l76 533q-3 6 -11.5 15t-26.5 19t-37 10q-30 0 -54 -22t-30 -66l-16 -108h67q7 0 11.5 -5.5t3.5 -13.5l-10 -66q-1 -7 -6.5 -13t-12.5 -6h-67
l-81 -577q-4 -19 -20 -19h-92q-7 0 -11.5 5.5t-3.5 13.5l81 576h-148l-81 -576q-1 -7 -7 -13t-13 -6h-92q-7 0 -11.5 5.5t-3.5 13.5zM225 400h148l15 104q2 14 9 48q-22 33 -69 33q-35 0 -59.5 -26.5t-31.5 -73.5z" />
    <glyph glyph-name="f_h" unicode="fh" horiz-adv-x="789" 
d="M4 -281l81 577h-36q-7 0 -11.5 5.5t-3.5 13.5l10 66q2 19 19 19h36l16 109q14 95 71 148t138 53q36 0 68 -14t46 -28l15 -14l15 28q10 18 25 18h33q7 0 11 -5.5t3 -13.5l-43 -304q43 33 93 33q78 0 114.5 -59t25.5 -140l-27 -192q-1 -7 -7 -13t-13 -6h-86q-16 0 -14 19
l27 191q6 42 -8.5 65.5t-47.5 23.5q-22 0 -40.5 -13.5t-26.5 -27.5l-8 -13l-32 -226q-3 -19 -22 -19h-88q-7 0 -11 5.5t-3 13.5l75 533q-4 6 -11.5 15t-25 19t-36.5 10q-31 0 -55 -22t-30 -66l-15 -108h67q7 0 11 -5.5t3 -13.5l-9 -66q-1 -7 -7 -13t-13 -6h-67l-80 -577
q-4 -19 -20 -19h-93q-7 0 -11 5.5t-2 13.5z" />
    <glyph glyph-name="f_f_b" unicode="ffb" horiz-adv-x="1046" 
d="M2 -281l81 576h-34q-7 0 -11.5 5.5t-3.5 13.5l10 67q1 8 6.5 13.5t12.5 5.5h35l12 89q14 102 74 156.5t143 54.5q73 0 127 -46q56 56 146 56q36 0 68 -14t46 -28l15 -14l15 28q10 18 25 18h33q7 0 11 -5.5t3 -13.5l-41 -289q36 18 73 18q66 0 112 -53t46 -129
q0 -97 -60 -167.5t-147 -70.5q-35 0 -62.5 15t-38.5 30l-10 15l-15 -33q-8 -17 -21 -17h-39q-7 0 -11 6t-3 13l75 533q-3 6 -11.5 15t-26.5 19t-37 10q-30 0 -54 -22t-30 -66l-16 -108h67q7 0 11.5 -5.5t3.5 -13.5l-10 -66q-1 -7 -6.5 -13t-12.5 -6h-67l-81 -577
q-4 -19 -20 -19h-92q-7 0 -11.5 5.5t-3.5 13.5l81 576h-148l-81 -576q-1 -7 -7 -13t-13 -6h-92q-7 0 -11.5 5.5t-3.5 13.5zM225 400h148l15 104q2 14 9 48q-22 33 -69 33q-35 0 -59.5 -26.5t-31.5 -73.5zM739 164q3 -23 18 -44.5t43 -21.5q37 0 64.5 36.5t27.5 84.5
q0 36 -18.5 59.5t-49.5 23.5q-18 0 -35 -6t-25 -12l-7 -5z" />
    <glyph glyph-name=".notdef" horiz-adv-x="599" 
d="M50 30v640q0 30 30 30h439q30 0 30 -30v-640q0 -30 -30 -30h-439q-30 0 -30 30zM262 314q0 -12 14 -12h36q15 0 15 13v26q0 16 16.5 32t36 28.5t36 36.5t16.5 53q0 48 -35.5 79.5t-89.5 31.5q-24 0 -46.5 -6.5t-37 -15t-25.5 -17.5t-16 -15l-5 -7q-8 -12 0 -18l22 -22
q8 -6 17 0q1 1 7.5 7t9.5 9t11.5 8.5t15.5 8.5t18 5.5t22 2.5q29 0 45 -15t16 -37q0 -21 -15.5 -39t-34 -30t-34 -32.5t-15.5 -45.5v-29zM245 156q0 -20 14.5 -34t33.5 -14q20 0 34.5 14t14.5 34t-14.5 34t-34.5 14q-19 0 -33.5 -14t-14.5 -34z" />
    <glyph glyph-name=".null" horiz-adv-x="0" 
 />
    <glyph glyph-name="nonmarkingreturn" horiz-adv-x="333" 
 />
    <glyph glyph-name="space" unicode=" " horiz-adv-x="224" 
 />
    <glyph glyph-name="exclam" unicode="!" horiz-adv-x="311" 
d="M138 272q-7 0 -11.5 5t-3.5 11l-1 279l16 114q1 7 6.5 13t12.5 6h115q7 0 11 -5.5t3 -13.5l-16 -112l-79 -281q-2 -6 -8 -11t-12 -5h-33zM45 62q0 37 28 65t64 28q30 0 50.5 -21.5t20.5 -51.5q0 -37 -28.5 -64.5t-65.5 -27.5q-29 0 -49 21t-20 51z" />
    <glyph glyph-name="quotedbl" unicode="&#x22;" horiz-adv-x="332" 
d="M243 501q-7 0 -11 6t-3 13l23 161q1 7 6.5 13t12.5 6h84q9 0 13 -7t0 -18l-63 -159q-6 -15 -18 -15h-44zM84 501q-7 0 -11 6t-3 13l23 161q1 7 6.5 13t12.5 6h84q9 0 13 -7t0 -18l-63 -159q-6 -15 -18 -15h-44z" />
    <glyph glyph-name="numbersign" unicode="#" horiz-adv-x="500" 
d="M62 22l44 166h-64q-7 0 -11.5 5.5t-2.5 13.5l2 14q2 19 19 19h71l44 164h-65q-7 0 -11.5 5.5t-3.5 13.5l2 14q1 7 7 13t13 6h71l61 228q4 16 19 16h16q8 0 11.5 -6.5t1.5 -15.5l-58 -222h142l59 228q1 6 7.5 11t12.5 5h15q8 0 12 -6.5t2 -15.5l-59 -222h56q7 0 11.5 -5.5
t2.5 -13.5l-2 -14q-1 -8 -6.5 -13.5t-12.5 -5.5h-63l-43 -164h57q7 0 11 -5.5t3 -13.5l-2 -14q-1 -7 -7 -13t-13 -6h-64l-45 -172q-4 -16 -20 -16h-15q-18 0 -14 22l45 166h-143l-44 -172q-5 -16 -20 -16h-15q-8 0 -12 6.5t-2 15.5zM170 240h142l43 164h-141z" />
    <glyph glyph-name="dollar" unicode="$" horiz-adv-x="491" 
d="M19 65q-8 10 -9 15.5t7 17.5l39 56q17 24 36 6q13 -11 43 -28t59 -24l28 186q-34 22 -55 38t-47 42t-38.5 57t-12.5 67q0 87 54.5 146t157.5 65l4 32q1 8 7 13.5t13 5.5h14q7 0 11 -5.5t3 -13.5l-4 -33q85 -8 153 -65q6 -5 6.5 -15t-5.5 -18l-43 -56q-14 -18 -31 -4
q-40 36 -97 45l-25 -180q33 -19 53.5 -33.5t49 -40.5t43 -59.5t14.5 -73.5q0 -93 -58.5 -153.5t-162.5 -64.5l-14 -103q-3 -18 -20 -18h-16q-6 0 -9.5 5.5t-2.5 12.5l14 104q-39 3 -76.5 19.5t-54.5 30t-28 24.5zM239 440l23 159q-30 -5 -49 -27.5t-19 -53.5q0 -45 45 -78z
M244 107q68 15 68 80q0 46 -44 84z" />
    <glyph glyph-name="percent" unicode="%" horiz-adv-x="604" 
d="M175 440q-47 0 -78.5 34t-31.5 83q0 64 38.5 108.5t98.5 44.5q46 0 77.5 -34t31.5 -83q0 -64 -40 -108.5t-96 -44.5zM61 27l403 663q7 10 17 10h52q10 0 13.5 -8.5t-2.5 -18.5l-404 -663q-8 -10 -16 -10h-51q-10 0 -14 8.5t2 18.5zM181 526q16 0 29 17t13 39q0 17 -8 29
t-21 12q-17 0 -30 -16.5t-13 -39.5q0 -17 8.5 -29t21.5 -12zM301 107q0 64 38.5 108.5t98.5 44.5q46 0 77.5 -34t31.5 -83q0 -64 -40 -108.5t-96 -44.5q-47 0 -78.5 34t-31.5 83zM387 117q0 -17 8.5 -29t21.5 -12q16 0 29 17t13 39q0 17 -8 29t-21 12q-17 0 -30 -16.5
t-13 -39.5z" />
    <glyph glyph-name="ampersand" unicode="&#x26;" horiz-adv-x="626" 
d="M49 157q0 43 16 81t39.5 63.5t46 44t41.5 30t20 13.5v2l-15 23q-58 82 -49 142q9 64 59 109t136 45q66 0 110.5 -44t44.5 -104q0 -23 -5.5 -44.5t-14.5 -38.5t-21.5 -33.5t-24 -28.5t-25 -23t-22.5 -17t-18 -12.5t-10 -6.5l80 -118q34 48 52 117q9 34 37 25l46 -14
q26 -8 18 -41q-10 -44 -31 -86t-37 -63l-16 -20l63 -84q21 -25 -8 -46l-43 -29q-24 -16 -38 5l-45 65q-3 -3 -9 -8.5t-26.5 -19t-43 -24t-58 -19t-72.5 -8.5q-78 0 -127.5 49t-49.5 118zM303 440l10 6q10 6 18 11t19.5 15.5t19 21t13.5 25.5t6 31q0 27 -16.5 45.5
t-44.5 18.5q-31 0 -51.5 -22t-20.5 -55q0 -27 31 -73zM168 178q0 -35 22.5 -58.5t56.5 -23.5q33 0 63.5 15.5t44.5 30.5l14 16l-103 149q-1 0 -11 -6.5t-19.5 -13t-22.5 -18.5t-22.5 -24.5t-16 -30.5t-6.5 -36z" />
    <glyph glyph-name="quotesingle" unicode="'" horiz-adv-x="172" 
d="M84 501q-7 0 -11.5 5.5t-3.5 13.5l23 161q1 7 7 13t13 6h83q9 0 13 -7t0 -18l-63 -159q-6 -15 -18 -15h-43z" />
    <glyph glyph-name="parenleft" unicode="(" horiz-adv-x="327" 
d="M46 207q0 117 18.5 207t47.5 143t69.5 88t77.5 48t79 17q7 1 11.5 -3.5t3.5 -11.5l-6 -66q-1 -14 -14 -18q-34 -8 -60.5 -29.5t-43 -47t-28.5 -64t-17.5 -67t-8.5 -70.5t-3.5 -61.5t-0.5 -51.5v-10q0 -157 80 -190q11 -4 8 -18l-12 -65q-3 -16 -20 -16q-73 3 -127 75.5
t-54 210.5z" />
    <glyph glyph-name="parenright" unicode=")" horiz-adv-x="328" 
d="M-8 3q1 14 14 18q162 52 162 398q0 170 -80 192q-11 4 -8 18l12 66q4 17 20 15q75 -6 128 -74.5t53 -212.5q0 -118 -19 -209t-47.5 -144t-69 -87.5t-77.5 -47t-79 -14.5q-17 0 -15 16z" />
    <glyph glyph-name="asterisk" unicode="*" horiz-adv-x="333" 
d="M162 370q-7 0 -11 6t-3 13l14 87l-73 -50q-6 -4 -13 -2.5t-10 7.5l-14 27q-9 16 8 27l84 50l-70 50q-6 4 -6 12.5t5 14.5l23 27q12 14 23 4l59 -50l11 88q1 8 6.5 13.5t12.5 5.5h34q7 0 11 -6t3 -13l-14 -88l73 51q6 4 13 2.5t10 -7.5l14 -27q9 -17 -8 -27l-83 -50
l69 -51q13 -10 1 -26l-23 -27q-13 -15 -24 -6l-59 50l-10 -86q-1 -7 -7 -13t-13 -6h-33z" />
    <glyph glyph-name="plus" unicode="+" horiz-adv-x="532" 
d="M197 150l21 149h-128q-7 0 -11 5.5t-3 13.5l8 56q1 7 7 13t13 6h127l22 151q1 7 6.5 12.5t12.5 5.5h65q7 0 11 -5.5t3 -12.5l-21 -151h132q7 0 11 -5.5t3 -13.5l-8 -56q-1 -8 -6.5 -13.5t-12.5 -5.5h-132l-21 -149q-1 -7 -7 -12.5t-13 -5.5h-64q-7 0 -11.5 5.5t-3.5 12.5
z" />
    <glyph glyph-name="comma" unicode="," horiz-adv-x="257" 
d="M8 62q0 37 29 64.5t70 27.5q33 0 58.5 -26t25.5 -79q0 -144 -139 -242q-13 -10 -23 2l-18 19q-11 13 7 27l8 6q8 6 14.5 11.5t17.5 15.5t19.5 21.5t17 25t15 30t8.5 33.5q-19 -8 -42 -8q-29 0 -48.5 21t-19.5 51z" />
    <glyph glyph-name="hyphen" unicode="-" horiz-adv-x="348" 
d="M59 192q-16 0 -14 18l9 67q2 19 20 19h204q16 0 14 -19l-9 -67q-2 -18 -20 -18h-204z" />
    <glyph glyph-name="period" unicode="." horiz-adv-x="232" 
d="M7 62q0 37 28.5 65t64.5 28q30 0 50 -21.5t20 -51.5q0 -37 -28.5 -64.5t-65.5 -27.5q-29 0 -49 21t-20 51z" />
    <glyph glyph-name="slash" unicode="/" horiz-adv-x="337" 
d="M8 0q-9 0 -13 7t0 18l270 662q6 13 18 13h78q9 0 12.5 -7t-0.5 -18l-268 -662q-6 -13 -18 -13h-79z" />
    <glyph glyph-name="zero" unicode="0" horiz-adv-x="584" 
d="M252 -10q-86 0 -136.5 72.5t-50.5 193.5q0 198 77.5 316.5t208.5 118.5q87 0 137 -72t50 -193q0 -200 -75 -318t-211 -118zM269 108q62 0 99 89.5t37 225.5q0 69 -18.5 109.5t-52.5 40.5q-62 0 -99 -89t-37 -225q0 -70 18 -110.5t53 -40.5z" />
    <glyph glyph-name="one" unicode="1" horiz-adv-x="347" 
d="M97 19l68 479l-86 -19q-7 -2 -12 2t-4 11l5 55q1 14 13 23l142 110h74q7 0 11 -5.5t3 -13.5l-90 -642q-1 -8 -6.5 -13.5t-12.5 -5.5h-90q-7 0 -11.5 5.5t-3.5 13.5z" />
    <glyph glyph-name="two" unicode="2" horiz-adv-x="480" 
d="M8 0q-16 0 -14 19l3 23l283 333q57 68 57 120q0 34 -18.5 56.5t-52.5 22.5q-45 0 -105 -63q-13 -13 -25 0l-50 55q-10 13 3 26q92 98 192 98q85 0 132.5 -52t47.5 -135q0 -87 -74 -174l-189 -222h183q7 0 11 -5.5t3 -13.5l-9 -69q-1 -7 -7 -13t-13 -6h-358z" />
    <glyph glyph-name="three" unicode="3" horiz-adv-x="486" 
d="M9 79q-10 13 4 25l53 48q15 15 29 -5q35 -47 96 -47q43 0 71.5 29t28.5 74q0 37 -27 63t-74 26h-51q-17 0 -14 20l9 63q3 20 20 20h50q54 0 87.5 32t33.5 77q0 30 -18.5 48t-47.5 18q-9 0 -17.5 -1.5t-16.5 -5.5l-14 -7t-13.5 -9t-10.5 -8.5t-10 -9.5l-8 -8
q-14 -14 -25 -1l-48 56q-11 12 3 26q84 88 181 88q75 0 123.5 -44t48.5 -115q0 -63 -37.5 -113.5t-80.5 -71.5v-3q33 -17 60.5 -54.5t27.5 -87.5q0 -91 -63.5 -151t-167.5 -60q-121 0 -182 89z" />
    <glyph glyph-name="four" unicode="4" horiz-adv-x="549" 
d="M16 145q-7 0 -11.5 5.5t-2.5 13.5l11 83l380 438q5 6 15 6h58q7 0 11 -5.5t3 -13.5l-59 -426h71q17 0 15 -18l-9 -62q-1 -8 -7 -13.5t-13 -5.5h-71l-17 -128q-4 -19 -20 -19h-87q-7 0 -11.5 5.5t-3.5 13.5l18 126h-270zM148 249h156l35 221z" />
    <glyph glyph-name="five" unicode="5" horiz-adv-x="493" 
d="M25 79q-10 13 4 25l51 48q14 14 29 -5q40 -47 98 -47q50 0 85.5 41t35.5 96q0 41 -22.5 67.5t-63.5 26.5h-139q-13 0 -19 11t-4 24l42 295q1 8 7 13.5t13 5.5h287q7 0 11.5 -5.5t3.5 -13.5l-10 -68q-1 -8 -7 -13.5t-13 -5.5h-191l-19 -133h70q82 0 129.5 -55t47.5 -142
q0 -113 -67.5 -183.5t-176.5 -70.5q-70 0 -115.5 29t-66.5 60z" />
    <glyph glyph-name="six" unicode="6" horiz-adv-x="506" 
d="M42 224q0 92 31 172t73.5 130t98 90t93.5 58t71 28q22 6 25 -14l16 -61q5 -19 -21 -29q-33 -12 -70.5 -31t-87.5 -61t-68 -88q36 18 90 18q73 0 122 -51.5t49 -137.5q0 -109 -68 -183t-165 -74q-84 0 -136.5 68.5t-52.5 165.5zM238 104q46 0 78.5 40t32.5 94q0 42 -24 70
t-64 28q-33 0 -60 -20.5t-42 -41.5q-6 -36 -2 -73.5t26 -67t55 -29.5z" />
    <glyph glyph-name="seven" unicode="7" horiz-adv-x="456" 
d="M11 19l2 11l312 542h-228q-7 0 -11.5 5.5t-3.5 13.5l10 70q1 7 7 13t13 6h374q7 0 11.5 -6t3.5 -13l-3 -15l-352 -619q-16 -27 -35 -27h-82q-22 0 -18 19z" />
    <glyph glyph-name="eight" unicode="8" horiz-adv-x="531" 
d="M33 158q0 36 16.5 70.5t43.5 60t42.5 38t32.5 22.5v3q-27 19 -49.5 55t-22.5 81q0 89 63.5 145.5t159.5 56.5q76 0 128 -44.5t52 -115.5q0 -61 -35.5 -105.5t-80.5 -71.5l-1 -4q33 -20 60.5 -59t27.5 -89q0 -91 -66 -151t-180 -60q-89 0 -140 47t-51 121zM283 407
q42 12 65 41t23 66q0 30 -18.5 49t-45.5 19q-32 0 -58.5 -27t-26.5 -67q0 -62 61 -81zM167 171q0 -34 21 -54t51 -20q37 0 67.5 27.5t30.5 72.5q0 31 -19 57.5t-52 35.5q-44 -13 -71.5 -46.5t-27.5 -72.5z" />
    <glyph glyph-name="nine" unicode="9" horiz-adv-x="505" 
d="M90 -2l-16 61q-5 19 21 29q33 12 70.5 31t87.5 61t68 88q-36 -18 -90 -18q-73 0 -122 51.5t-49 137.5q0 109 68 183t165 74q84 0 136.5 -68.5t52.5 -165.5q0 -92 -31 -172t-73.5 -130t-98 -90t-93.5 -58t-71 -28q-22 -6 -25 14zM263 350q33 0 60 20.5t42 41.5
q6 36 2 73.5t-26 67t-55 29.5q-46 0 -78.5 -40t-32.5 -94q0 -42 24 -70t64 -28z" />
    <glyph glyph-name="colon" unicode=":" horiz-adv-x="257" 
d="M127 266q-25 0 -42 18.5t-17 44.5q0 33 24 57t55 24q26 0 43 -18t17 -45q0 -33 -24 -57t-56 -24zM29 53q0 33 24 57t56 24q25 0 42 -18.5t17 -44.5q0 -33 -24 -57t-56 -24q-25 0 -42 18.5t-17 44.5z" />
    <glyph glyph-name="semicolon" unicode=";" horiz-adv-x="241" 
d="M114 266q-29 0 -45.5 21t-12.5 51t26.5 51t51.5 21q26 0 43 -18t17 -45q0 -33 -24 -57t-56 -24zM20 49q0 30 23 52.5t55 22.5q26 0 45.5 -21t19.5 -65q0 -109 -107 -201q-11 -9 -20 1l-14 16q-10 10 5 22q1 1 8 7.5l14 13t16.5 17.5t17.5 22.5t14.5 27t9.5 31.5l-2 -1
q-2 0 -5 -1t-7 -1.5t-9 -1t-10 -0.5q-23 0 -38.5 17t-15.5 42z" />
    <glyph glyph-name="less" unicode="&#x3c;" horiz-adv-x="400" 
d="M18 210q-7 6 -6 18l1 7q1 9 10 14l344 212q9 6 16.5 1t6.5 -17l-10 -78q-1 -9 -10 -16l-201 -126v-5l165 -121q7 -5 6 -16l-10 -68q-1 -11 -10.5 -13.5t-16.5 3.5z" />
    <glyph glyph-name="equal" unicode="=" horiz-adv-x="460" 
d="M87 337q-16 0 -14 19l8 57q1 8 6.5 13.5t12.5 5.5h300q7 0 11.5 -5.5t3.5 -13.5l-8 -57q-1 -8 -7 -13.5t-13 -5.5h-300zM58 127q-16 0 -14 19l8 57q1 8 6.5 13.5t12.5 5.5h300q7 0 11.5 -5.5t3.5 -13.5l-8 -57q-1 -8 -7 -13.5t-13 -5.5h-300z" />
    <glyph glyph-name="greater" unicode="&#x3e;" horiz-adv-x="399" 
d="M19 4q-10 -6 -17 -1t-6 17l11 79q1 11 10 16l204 123v2l-169 127q-6 5 -5 16l9 66q1 12 10 15t17 -3l284 -212q9 -7 7 -16l-1 -7q-2 -11 -11 -16z" />
    <glyph glyph-name="question" unicode="?" horiz-adv-x="423" 
d="M148 272q-7 0 -11.5 5.5t-3.5 13.5l6 42q5 33 30 63.5t52.5 50t49.5 45.5t22 52q0 23 -14 37t-39 14q-7 0 -15 -2t-14 -4t-13.5 -6.5t-12 -8t-11.5 -9t-10 -8t-9 -8.5l-6 -6q-15 -13 -29 1l-46 51q-9 11 4 26l6 7q5 6 9.5 10t12.5 12t16.5 14t20 13.5t24 12.5t27 10
t32 7.5t35.5 2.5q69 0 117.5 -43.5t48.5 -107.5q0 -38 -15.5 -70t-39 -52.5t-47 -38t-42 -36t-22.5 -36.5l-8 -38q-3 -16 -19 -16h-86zM81 62q0 37 28.5 65t64.5 28q30 0 50 -21.5t20 -51.5q0 -37 -28.5 -64.5t-64.5 -27.5q-30 0 -50 21t-20 51z" />
    <glyph glyph-name="at" unicode="@" horiz-adv-x="909" 
d="M23 160q0 237 136.5 393.5t355.5 156.5q162 0 259.5 -100.5t97.5 -255.5q0 -63 -14.5 -124.5t-43 -116.5t-78.5 -89t-114 -34q-79 0 -96 78h-6q-23 -32 -60.5 -55t-77.5 -23q-61 0 -99.5 51.5t-38.5 126.5q0 102 57 172t139 70q36 0 63.5 -19t42.5 -40l17 34l2.5 5l2 4
t3 3.5l4.5 1.5t7 1h34q7 0 11 -5.5t3 -13.5l-26 -183q-13 -100 39 -100q50 0 82 73t32 169q0 118 -62.5 192.5t-183.5 74.5q-167 0 -272 -121.5t-105 -314.5q0 -99 45.5 -179.5t120.5 -120.5q16 -8 7 -24l-33 -63q-9 -18 -22 -11q-98 45 -163.5 152t-65.5 235zM356 172
q0 -34 15 -54t39 -20q34 0 62.5 35t36.5 85l6 41q-6 15 -26 29t-45 14q-41 0 -64.5 -37t-23.5 -93z" />
    <glyph glyph-name="A" unicode="A" horiz-adv-x="602" 
d="M-21 0q-10 0 -13.5 8t1.5 18l376 673q6 11 17 11h9q10 0 14 -11l184 -673q3 -10 -3 -18t-16 -8h-87q-22 0 -26 20l-25 111h-249l-58 -111q-10 -20 -32 -20h-92zM220 239h158l-47 218h-2z" />
    <glyph glyph-name="B" unicode="B" horiz-adv-x="575" 
d="M53 19l93 662q1 8 7 13.5t13 5.5h208q72 0 120 -48t48 -115q0 -63 -39 -114t-83 -71q37 -14 65 -50t28 -89q0 -92 -62.5 -152.5t-162.5 -60.5h-221q-7 0 -11.5 5.5t-2.5 13.5zM237 406h72q39 0 66 30.5t27 73.5q0 31 -16.5 51t-42.5 20h-81zM196 118h86q39 0 66.5 30
t27.5 72q0 32 -21.5 54t-49.5 22h-83z" />
    <glyph glyph-name="C" unicode="C" horiz-adv-x="626" 
d="M51 301q0 175 108 292t265 117q127 0 208 -95q11 -15 -4 -28l-54 -52q-17 -16 -33 0q-52 50 -124 50q-90 0 -157 -80t-67 -187q0 -83 41.5 -140t111.5 -57t137 59q19 16 32 -1l52 -65q9 -13 -5 -27q-101 -97 -226 -97q-127 0 -206 89.5t-79 221.5z" />
    <glyph glyph-name="D" unicode="D" horiz-adv-x="683" 
d="M53 19l93 662q1 7 6.5 13t12.5 6h216q116 0 193.5 -90t77.5 -214q0 -164 -106.5 -280t-262.5 -116h-217q-7 0 -11 5.5t-2 13.5zM197 122h93q92 0 157.5 76.5t65.5 188.5q0 83 -43.5 137.5t-114.5 54.5h-94z" />
    <glyph glyph-name="E" unicode="E" horiz-adv-x="545" 
d="M53 19l93 662q1 7 6.5 13t12.5 6h370q7 0 11.5 -5.5t3.5 -13.5l-12 -82q-1 -8 -7 -13.5t-13 -5.5h-256l-23 -164h212q7 0 11.5 -5.5t3.5 -13.5l-12 -83q-1 -8 -7 -13.5t-13 -5.5h-212l-25 -175h257q16 0 14 -19l-11 -82q-1 -8 -7 -13.5t-13 -5.5h-370q-7 0 -11.5 5.5
t-2.5 13.5z" />
    <glyph glyph-name="F" unicode="F" horiz-adv-x="524" 
d="M53 19l93 662q1 7 6.5 13t12.5 6h370q7 0 11.5 -5.5t3.5 -13.5l-12 -82q-1 -8 -7 -13.5t-13 -5.5h-256l-27 -188h213q7 0 11 -6t3 -13l-11 -82q-1 -7 -7 -13t-13 -6h-213l-35 -253q-4 -19 -20 -19h-96q-7 0 -11.5 5.5t-2.5 13.5z" />
    <glyph glyph-name="G" unicode="G" horiz-adv-x="653" 
d="M51 301q0 175 107.5 292t265.5 117q127 0 208 -95q11 -15 -4 -28l-53 -52q-19 -14 -33 0q-52 50 -125 50q-90 0 -157 -80t-67 -187q0 -81 45 -139.5t110 -58.5q64 0 102 24l12 88h-64q-17 0 -15 18l11 78q3 19 20 19h177q7 0 11 -5.5t3 -13.5l-33 -240q-2 -19 -16 -31
q-12 -10 -32.5 -22t-75.5 -28.5t-116 -16.5q-121 0 -201 90.5t-80 220.5z" />
    <glyph glyph-name="H" unicode="H" horiz-adv-x="714" 
d="M53 19l93 662q1 7 7 13t13 6h96q7 0 11.5 -5.5t3.5 -13.5l-37 -265h273l37 265q1 8 7 13.5t13 5.5h96q7 0 11.5 -5.5t3.5 -13.5l-93 -662q-4 -19 -20 -19h-97q-16 0 -14 19l39 276h-273l-39 -276q-4 -19 -20 -19h-97q-7 0 -11 6t-3 13z" />
    <glyph glyph-name="I" unicode="I" horiz-adv-x="310" 
d="M53 19l93 662q1 7 6.5 13t12.5 6h98q7 0 11 -6t3 -13l-93 -662q-1 -8 -6.5 -13.5t-12.5 -5.5h-98q-7 0 -11 6t-3 13z" />
    <glyph glyph-name="J" unicode="J" horiz-adv-x="402" 
d="M-35 63q-7 12 6 25l46 45q12 12 25 -1q26 -24 59 -24q28 0 51 26t29 75l67 472q1 7 6.5 13t12.5 6h99q7 0 11.5 -5.5t3.5 -13.5l-67 -472q-15 -108 -65.5 -163.5t-144.5 -55.5q-52 0 -88 24t-51 49z" />
    <glyph glyph-name="K" unicode="K" horiz-adv-x="613" 
d="M53 24l92 652q4 24 25 24h94q9 0 14.5 -7t3.5 -17l-38 -270l235 276q15 18 41 18h99q13 0 16.5 -11t-6.5 -22l-273 -306l202 -330q5 -10 -1.5 -20.5t-18.5 -10.5h-91q-25 0 -36 20l-178 309l-43 -305q-1 -10 -8.5 -17t-15.5 -7h-94q-9 0 -14.5 7t-4.5 17z" />
    <glyph glyph-name="L" unicode="L" horiz-adv-x="465" 
d="M53 19l93 662q1 8 7 13.5t13 5.5h97q7 0 11 -5.5t3 -13.5l-79 -561h221q16 0 14 -19l-11 -82q-1 -8 -7 -13.5t-13 -5.5h-334q-7 0 -11.5 5.5t-3.5 13.5z" />
    <glyph glyph-name="M" unicode="M" horiz-adv-x="807" 
d="M12 23l198 672q4 15 19 15h14q11 0 14 -10l136 -453h2l272 453q7 10 17 10h15q5 0 9.5 -4.5t4.5 -10.5l9 -672q0 -10 -6 -16.5t-14 -6.5h-96q-15 0 -15 15l8 359h-3l-209 -373q-5 -11 -17 -11h-16q-10 0 -14 11l-102 373h-2l-96 -359q-4 -15 -19 -15h-95q-9 0 -13 6.5
t-1 16.5z" />
    <glyph glyph-name="N" unicode="N" horiz-adv-x="715" 
d="M53 17l94 675q1 7 6.5 12.5t12.5 5.5h26l305 -432h1l54 403q1 8 6.5 13.5t12.5 5.5h97q7 0 11.5 -5.5t3.5 -13.5l-95 -673q-1 -7 -6.5 -12.5t-12.5 -5.5h-27l-304 445h-1l-54 -416q-1 -8 -7 -13.5t-13 -5.5h-96q-6 0 -10.5 5t-3.5 12z" />
    <glyph glyph-name="O" unicode="O" horiz-adv-x="735" 
d="M50 300q0 171 107.5 290.5t266.5 119.5q120 0 200.5 -92t80.5 -221q0 -170 -108 -288.5t-266 -118.5q-120 0 -200.5 91.5t-80.5 218.5zM345 120q88 0 156.5 77.5t68.5 183.5q0 83 -45.5 141t-115.5 58q-87 0 -155.5 -79t-68.5 -184q0 -82 45.5 -139.5t114.5 -57.5z" />
    <glyph glyph-name="P" unicode="P" horiz-adv-x="549" 
d="M53 19l93 662q1 8 7 13.5t13 5.5h214q73 0 123 -59.5t50 -140.5q0 -108 -68 -177t-167 -69h-102l-33 -235q-1 -7 -7 -13t-13 -6h-96q-7 0 -11.5 5.5t-2.5 13.5zM233 376h93q37 0 66.5 35t29.5 83q0 35 -19.5 59t-48.5 24h-93z" />
    <glyph glyph-name="Q" unicode="Q" horiz-adv-x="738" 
d="M51 300q0 170 108.5 290t266.5 120q120 0 200 -91t80 -222q0 -129 -58 -222.5t-158 -149.5l84 -196q4 -10 -1.5 -18.5t-16.5 -8.5h-98q-19 0 -25 18l-68 173q-18 -3 -35 -3q-119 0 -199 93t-80 217zM346 120q88 0 156.5 77.5t68.5 183.5q0 83 -45.5 141t-115.5 58
q-87 0 -155.5 -79t-68.5 -184q0 -82 45.5 -139.5t114.5 -57.5z" />
    <glyph glyph-name="R" unicode="R" horiz-adv-x="624" 
d="M53 19l93 662q1 7 6.5 13t12.5 6h264q73 0 121 -54.5t48 -132.5q0 -89 -42.5 -148.5t-116.5 -82.5l82 -256q3 -10 -1.5 -18t-15.5 -8h-95q-18 0 -22 16l-73 258h-95l-36 -255q-1 -8 -6.5 -13.5t-12.5 -5.5h-97q-7 0 -11.5 5.5t-2.5 13.5zM235 381h125q46 0 75.5 34
t29.5 82q0 34 -19 58.5t-46 24.5h-137z" />
    <glyph glyph-name="S" unicode="S" horiz-adv-x="507" 
d="M27 68q-13 13 0 30l39 57q13 20 31 4q61 -52 124 -52q35 0 62 24.5t27 60.5q0 31 -20.5 55.5t-65.5 54.5q-31 20 -51.5 36.5t-44.5 41.5t-36 55.5t-12 66.5q0 84 58 146t168 62q61 0 109 -22t69 -43q18 -18 3 -40l-39 -55q-13 -19 -35 -2q-54 44 -113 44q-37 0 -61 -23.5
t-24 -54.5q0 -28 18.5 -47t68.5 -53q30 -20 42.5 -28.5t39 -31.5t38.5 -41.5t23 -47t11 -60.5q0 -91 -65.5 -153t-173.5 -62q-67 0 -118 27t-72 51z" />
    <glyph glyph-name="T" unicode="T" horiz-adv-x="457" 
d="M125 19l79 561h-132q-7 0 -11.5 5.5t-3.5 13.5l12 82q1 7 6.5 13t12.5 6h397q7 0 11.5 -5.5t3.5 -13.5l-12 -82q-1 -8 -7 -13.5t-13 -5.5h-132l-79 -561q-1 -7 -7 -13t-13 -6h-97q-7 0 -11.5 5.5t-3.5 13.5z" />
    <glyph glyph-name="U" unicode="U" horiz-adv-x="669" 
d="M79 265l59 416q1 7 7 13t13 6h99q7 0 11.5 -5.5t3.5 -13.5l-58 -409q-9 -64 18.5 -107t79.5 -43q53 0 93 42.5t49 106.5l58 410q1 8 7 13.5t13 5.5h99q7 0 11.5 -5.5t3.5 -13.5l-59 -416q-16 -117 -97 -196t-196 -79q-104 0 -167.5 80.5t-47.5 194.5z" />
    <glyph glyph-name="V" unicode="V" horiz-adv-x="603" 
d="M240 1l-185 673q-3 10 3 18t16 8h99q12 0 14 -11l103 -418h4l222 418q7 11 16 11h112q10 0 13.5 -8t-1.5 -18l-376 -673q-6 -11 -17 -11h-9q-10 0 -14 11z" />
    <glyph glyph-name="W" unicode="W" horiz-adv-x="820" 
d="M161 4l-75 672q-1 10 4.5 17t14.5 7h87q12 0 14 -14l34 -379h4l202 392q6 11 17 11h16q12 0 14 -11l81 -392h4l142 379q6 14 18 14h95q10 0 13.5 -7t-0.5 -17l-264 -672q-5 -14 -18 -14h-15q-12 0 -14 11l-102 433h-4l-222 -433q-5 -11 -17 -11h-14q-13 0 -15 14z" />
    <glyph glyph-name="X" unicode="X" horiz-adv-x="595" 
d="M6 0q-11 0 -14 8t5 18l234 333l-138 315q-4 10 1.5 18t17.5 8h101q10 0 13 -9l91 -227h2l147 227q6 9 16 9h122q11 0 14.5 -8t-4.5 -18l-227 -315l142 -333q4 -10 -1 -18t-16 -8h-96q-11 0 -14 9l-100 244h-3l-161 -244q-7 -9 -17 -9h-115z" />
    <glyph glyph-name="Y" unicode="Y" horiz-adv-x="533" 
d="M162 19l45 318l-156 339q-4 10 1 17t16 7h94q13 0 19 -14l105 -230l168 235q7 9 16 9h110q11 0 13.5 -8t-4.5 -18l-252 -336l-44 -319q-1 -7 -7 -13t-13 -6h-97q-16 0 -14 19z" />
    <glyph glyph-name="Z" unicode="Z" horiz-adv-x="501" 
d="M7 0q-7 0 -11 6t-3 13l2 18l332 538v4h-212q-7 0 -11.5 5.5t-3.5 13.5l12 83q1 7 7 13t13 6h379q7 0 11.5 -5.5t3.5 -13.5l-2 -13l-326 -543v-4h214q16 0 14 -19l-11 -83q-1 -8 -7 -13.5t-13 -5.5h-388z" />
    <glyph glyph-name="bracketleft" unicode="[" horiz-adv-x="332" 
d="M113 -200h115q7 0 11.5 -5.5t3.5 -12.5l-9 -63q-1 -7 -7 -13t-13 -6h-213q-7 0 -11.5 5.5t-3.5 13.5l136 962q1 7 6.5 13t12.5 6h214q7 0 11 -5.5t3 -13.5l-8 -62q-1 -8 -7 -13.5t-13 -5.5h-115z" />
    <glyph glyph-name="backslash" unicode="\" horiz-adv-x="329" 
d="M158 13l-82 662q-1 10 4.5 17.5t15.5 7.5h69q13 0 15 -13l83 -662q1 -10 -5 -17.5t-15 -7.5h-70q-13 0 -15 13z" />
    <glyph glyph-name="bracketright" unicode="]" horiz-adv-x="333" 
d="M-30 -200h115l113 800h-116q-7 0 -11 5.5t-3 13.5l9 62q1 7 6.5 13t12.5 6h214q7 0 11 -6t3 -13l-135 -962q-1 -7 -7 -13t-13 -6h-213q-7 0 -11.5 5.5t-3.5 13.5l9 63q1 7 7 12.5t13 5.5z" />
    <glyph glyph-name="asciicircum" unicode="^" horiz-adv-x="472" 
d="M58 385q-10 0 -13 7.5t5 16.5l229 295q8 10 17 10h5q10 0 14 -10l143 -294q5 -10 0 -17.5t-15 -7.5h-65q-12 0 -16 9l-80 168h-1l-129 -168q-7 -9 -21 -9h-73z" />
    <glyph glyph-name="underscore" unicode="_" horiz-adv-x="388" 
d="M-4 -10h315q18 0 15 -19l-6 -39q-4 -18 -19 -18h-316q-16 0 -14 18l5 39q2 19 20 19z" />
    <glyph glyph-name="grave" unicode="`" horiz-adv-x="272" 
d="M227 531l-150 77q-15 8 -2 27l29 43q6 9 15 10.5t12 -2.5l137 -97q11 -6 3 -19l-20 -33q-9 -14 -24 -6z" />
    <glyph glyph-name="a" unicode="a" horiz-adv-x="474" 
d="M278 163l12 83q-3 18 -20 37t-45 19q-37 0 -65.5 -35t-28.5 -91q0 -33 18 -55.5t48 -22.5q28 0 51 22.5t30 42.5zM426 381l-50 -362q-1 -7 -7 -13t-13 -6h-39q-12 0 -16 17l-6 30q-61 -57 -129 -57q-63 0 -105 53.5t-42 130.5q0 98 59.5 167t146.5 69q38 0 68 -18t44 -37
l18 32q7 13 18 13h39q7 0 11 -5.5t3 -13.5z" />
    <glyph glyph-name="b" unicode="b" horiz-adv-x="469" 
d="M22 19l93 662q1 7 7 13t13 6h89q7 0 11.5 -5.5t3.5 -13.5l-41 -289q36 18 73 18q72 0 115 -52t43 -130q0 -97 -60.5 -167.5t-146.5 -70.5q-35 0 -62.5 15t-37.5 30l-11 15l-15 -33q-8 -17 -21 -17h-39q-7 0 -11 6t-3 13zM162 164q3 -23 18 -44.5t43 -21.5q37 0 64.5 36.5
t27.5 84.5q0 36 -18.5 59.5t-49.5 23.5q-18 0 -35 -6t-24 -12l-8 -5z" />
    <glyph glyph-name="c" unicode="c" horiz-adv-x="396" 
d="M19 176q0 101 62.5 167.5t150.5 66.5q44 0 80 -20t56 -51q9 -13 -8 -28l-40 -37q-13 -11 -25 1q-30 27 -60 27q-38 0 -67.5 -34t-29.5 -84q0 -37 18 -61.5t46 -24.5q36 0 71 38q12 14 25 1l39 -38q13 -13 3 -28q-62 -81 -150 -81q-74 0 -122.5 53t-48.5 133z" />
    <glyph glyph-name="d" unicode="d" horiz-adv-x="471" 
d="M166 -10q-63 0 -105 53.5t-42 130.5q0 98 61 167t149 69q45 0 75 -19l41 290q2 19 42 19h67q7 0 11.5 -5.5t3.5 -13.5l-93 -662q-1 -7 -7 -13t-13 -6h-39q-12 0 -16 17l-6 30q-61 -57 -129 -57zM131 176q0 -33 18 -55.5t48 -22.5q28 0 51 22.5t30 42.5l11 115
q-20 24 -61 24q-39 0 -68 -37t-29 -89z" />
    <glyph glyph-name="e" unicode="e" horiz-adv-x="402" 
d="M17 168q0 97 66.5 169.5t168.5 72.5q58 0 93 -29.5t35 -76.5q0 -48 -43 -80t-96.5 -44t-111.5 -13q-2 -33 14 -53t52 -20q37 0 71 24q16 11 23 0l33 -47q10 -13 -3 -26q-60 -55 -143 -55q-70 0 -114.5 52t-44.5 126zM144 245q44 1 83.5 13t39.5 34q0 25 -34 25
q-29 0 -54.5 -22.5t-34.5 -49.5z" />
    <glyph glyph-name="f" unicode="f" horiz-adv-x="329" 
d="M0 -281l84 576h-34q-7 0 -11.5 5.5t-3.5 13.5l10 67q2 19 19 19h34l16 108q31 202 199 202q33 0 65 -12.5t43 -26.5q9 -9 1 -23l-35 -62q-11 -18 -27 -8q-25 14 -50 14q-58 0 -70 -84l-15 -108h86q17 0 14 -19l-9 -67q-1 -8 -7 -13.5t-13 -5.5h-86l-83 -576
q-4 -19 -20 -19h-93q-7 0 -11 6t-3 13z" />
    <glyph glyph-name="g" unicode="g" horiz-adv-x="469" 
d="M170 -10q-66 0 -109 52t-43 129q0 97 60.5 168t145.5 71q38 0 68 -17.5t44 -37.5l18 32q7 13 18 13h39q7 0 11 -5.5t3 -13.5l-59 -425q-31 -216 -216 -216q-43 0 -81 19t-59 42q-19 19 -4 38l34 43q13 16 33 0q41 -35 81 -35q36 0 57 27t31 85l8 53q-40 -22 -80 -22z
M132 179q0 -36 18.5 -58.5t49.5 -22.5q18 0 34.5 6t23.5 12l7 5l21 140q-5 14 -21 27.5t-41 13.5q-38 0 -65 -37t-27 -86z" />
    <glyph glyph-name="h" unicode="h" horiz-adv-x="488" 
d="M22 19l93 662q1 7 7 13t13 6h89q7 0 11.5 -5.5t3.5 -13.5l-43 -304q43 33 93 33q81 0 116 -58.5t24 -140.5l-27 -192q-1 -7 -7 -13t-13 -6h-86q-16 0 -14 19l27 194q6 42 -8.5 65.5t-47.5 23.5q-22 0 -40.5 -13.5t-26.5 -26.5l-8 -14l-32 -229q-3 -19 -22 -19h-88
q-7 0 -11 5.5t-3 13.5z" />
    <glyph glyph-name="i" unicode="i" 
d="M156 542q-25 0 -41.5 17.5t-16.5 42.5q0 32 23.5 55t53.5 23q26 0 43 -17.5t17 -43.5q0 -31 -24 -54t-55 -23zM22 19l51 362q1 8 7 13.5t13 5.5h88q7 0 11.5 -5.5t3.5 -13.5l-51 -362q-1 -7 -7 -13t-13 -6h-88q-7 0 -11.5 5.5t-3.5 13.5z" />
    <glyph glyph-name="j" unicode="j" 
d="M155 542q-25 0 -41.5 17.5t-16.5 42.5q0 32 23.5 55t54.5 23q25 0 42 -17.5t17 -43.5q0 -31 -24 -54t-55 -23zM3 -108l68 489q1 8 7 13.5t13 5.5h90q7 0 11 -5.5t3 -13.5l-71 -498q-13 -92 -63 -142.5t-128 -50.5q-33 0 -65.5 13.5t-45.5 25.5q-10 10 0 26l31 55
q10 16 25 8q29 -16 53 -16q60 0 72 90z" />
    <glyph glyph-name="k" unicode="k" horiz-adv-x="463" 
d="M22 19l93 662q1 7 7 13t13 6h89q7 0 11.5 -5.5t3.5 -13.5l-61 -433l122 140q10 12 24 12h108q11 0 13 -9.5t-6 -17.5l-153 -161l131 -187q6 -8 1.5 -16.5t-16.5 -8.5h-104q-7 0 -13 8l-116 180l-23 -169q-4 -19 -20 -19h-90q-7 0 -11 6t-3 13z" />
    <glyph glyph-name="l" unicode="l" horiz-adv-x="240" 
d="M22 19l93 662q1 7 7 13t13 6h88q7 0 11.5 -5.5t3.5 -13.5l-93 -662q-1 -7 -7 -13t-13 -6h-89q-7 0 -11 5.5t-3 13.5z" />
    <glyph glyph-name="m" unicode="m" horiz-adv-x="720" 
d="M22 19l51 362q1 8 6.5 13.5t12.5 5.5h38q10 0 14 -11l9 -38q65 59 129 59q67 0 107 -62q65 62 136 62q80 0 113.5 -57.5t21.5 -142.5l-27 -191q-4 -19 -20 -19h-86q-7 0 -11 5.5t-3 13.5l29 198q12 85 -47 85q-21 0 -40.5 -13t-28.5 -27l-8 -13q-3 -4 -35 -230
q-1 -8 -7 -13.5t-13 -5.5h-78q-7 0 -11.5 5.5t-2.5 13.5l28 198q11 85 -49 85q-22 0 -41 -13.5t-27 -26.5l-8 -14l-33 -229q-1 -7 -7 -13t-13 -6h-85q-7 0 -11 6t-3 13z" />
    <glyph glyph-name="n" unicode="n" horiz-adv-x="486" 
d="M22 19l51 362q1 8 6.5 13.5t12.5 5.5h39q12 0 14 -12l9 -37q66 59 135 59q79 0 114.5 -58t23.5 -141l-27 -192q-1 -7 -6.5 -13t-12.5 -6h-87q-16 0 -14 19l29 198q5 39 -8 62t-43 23q-23 0 -44.5 -14t-31.5 -28l-10 -14l-32 -227q-3 -19 -21 -19h-83q-7 0 -11 6t-3 13z
" />
    <glyph glyph-name="o" unicode="o" horiz-adv-x="435" 
d="M18 173q0 96 64 166.5t154 70.5q68 0 113.5 -53.5t45.5 -128.5q0 -97 -64.5 -167.5t-153.5 -70.5q-68 0 -113.5 54.5t-45.5 128.5zM192 98q36 0 64 35.5t28 83.5q0 36 -17.5 60.5t-45.5 24.5q-37 0 -65 -34.5t-28 -82.5q0 -37 17.5 -62t46.5 -25z" />
    <glyph glyph-name="p" unicode="p" horiz-adv-x="470" 
d="M145 12l-41 -293q-3 -19 -24 -19h-86q-14 0 -14 16v3l93 662q1 8 6.5 13.5t12.5 5.5h40q11 0 14 -12l8 -33q19 20 54 37.5t74 17.5q65 0 106 -52.5t41 -127.5q0 -101 -62 -170.5t-149 -69.5q-43 0 -73 22zM157 123q19 -25 60 -25q40 0 68 37t28 85q0 34 -17.5 58
t-46.5 24q-28 0 -49 -16.5t-30 -32.5z" />
    <glyph glyph-name="q" unicode="q" horiz-adv-x="470" 
d="M171 -10q-64 0 -108 52.5t-44 128.5q0 98 59.5 168.5t146.5 70.5q38 0 68 -18t44 -37l18 32q7 13 18 13h39q7 0 11 -5.5t3 -13.5l-93 -662q-1 -7 -7 -13t-13 -6h-87q-19 0 -16 19l41 293q-40 -22 -80 -22zM201 98q18 0 35 6t25 12l8 7l21 123q-3 18 -20 37t-45 19
q-40 0 -66 -39t-26 -84q0 -36 18.5 -58.5t49.5 -22.5z" />
    <glyph glyph-name="r" unicode="r" horiz-adv-x="324" 
d="M22 19l51 362q1 8 6.5 13.5t12.5 5.5h39q11 0 15 -13l9 -39q16 22 45 42t63 20q40 0 63 -16q11 -8 2 -24l-37 -65q-8 -14 -21 -8q-14 6 -34 6q-16 0 -31.5 -10.5t-22.5 -20.5l-7 -11l-34 -242q-3 -19 -23 -19h-82q-7 0 -11 6t-3 13z" />
    <glyph glyph-name="s" unicode="s" horiz-adv-x="344" 
d="M11 29q-10 9 -1 24l33 51q3 5 10.5 7t12.5 -2q28 -19 72 -19q14 0 23 6.5t9 16.5q0 15 -10.5 25.5t-43.5 30.5q-41 23 -61 49.5t-20 66.5q0 54 36 89.5t115 35.5q72 0 115 -33q6 -5 8 -13t-3 -16l-34 -50q-11 -15 -26 -4q-27 15 -67 15q-32 0 -32 -23q0 -11 9 -19t31 -20
q54 -29 79.5 -56t25.5 -71q0 -55 -41.5 -92.5t-116.5 -37.5q-76 0 -123 39z" />
    <glyph glyph-name="t" unicode="t" horiz-adv-x="330" 
d="M59 119l25 176h-36q-7 0 -11 5.5t-3 13.5l9 67q3 19 19 19h37l15 111q4 19 20 19l87 1q7 0 11 -5.5t2 -13.5l-15 -112h72q17 0 14 -19l-9 -67q-4 -19 -20 -19h-72l-23 -158q-5 -32 22 -32q10 0 40 12q16 6 19 -11l10 -66q3 -14 -15 -24q-10 -6 -46 -16t-65 -10
q-51 0 -73 33.5t-14 95.5z" />
    <glyph glyph-name="u" unicode="u" horiz-adv-x="472" 
d="M167 -10q-77 0 -108.5 57t-19.5 140l28 194q1 8 6.5 13.5t12.5 5.5h87q7 0 11 -5.5t3 -13.5l-28 -197q-5 -40 6.5 -63t37.5 -23q22 0 41 14t27 28l8 15l31 226q4 19 22 19h82q7 0 11 -5.5t3 -13.5l-50 -362q-1 -7 -7 -13t-13 -6h-39q-11 0 -15 15l-7 33q-53 -58 -130 -58
z" />
    <glyph glyph-name="v" unicode="v" horiz-adv-x="387" 
d="M136 0l-116 377q-3 10 2 16.5t15 6.5h79q11 0 15 -11l46 -176h3l94 176q7 11 24 11h83q10 0 13 -7.5t-3 -17.5l-220 -375q-5 -10 -17 -10h-4q-10 0 -14 10z" />
    <glyph glyph-name="w" unicode="w" horiz-adv-x="568" 
d="M96 1l-64 378q-3 21 17 21h77q12 0 14 -12l27 -169h1l115 182q6 9 16 9h8q9 0 13 -9l59 -182h1l77 169q5 12 23 12h73q10 0 13 -6.5t-2 -16.5l-170 -376q-6 -11 -18 -11h-4q-9 0 -13 9l-81 226h-1l-147 -226q-5 -9 -16 -9h-4q-12 0 -14 11z" />
    <glyph glyph-name="x" unicode="x" horiz-adv-x="425" 
d="M-4 0q-11 0 -13 8t6 18l145 181l-94 165q-5 10 -0.5 19t15.5 9h85q12 0 19 -14l51 -102h1l71 102q10 14 27 14h94q12 0 14.5 -9t-5.5 -19l-142 -174l95 -171q4 -10 -1 -18.5t-16 -8.5h-77q-12 0 -21 16l-55 107h-1l-83 -115q-6 -8 -16 -8h-99z" />
    <glyph glyph-name="y" unicode="y" horiz-adv-x="425" 
d="M114 28l-91 346q-3 10 1 18t14 8h86q10 0 14 -11l52 -237h1l117 237q5 11 20 11h89q10 0 13.5 -8t-2.5 -18l-368 -662q-8 -12 -17 -12h-93q-10 0 -13 7t4 17z" />
    <glyph glyph-name="z" unicode="z" horiz-adv-x="342" 
d="M10 0q-7 0 -11.5 6t-3.5 13l2 10l155 262v2h-93q-15 0 -13 19l9 69q1 8 6.5 13.5t12.5 5.5h241q10 0 14 -8.5t-2 -18.5l-160 -264v-3h89q16 0 14 -19l-9 -68q-1 -8 -7 -13.5t-13 -5.5h-231z" />
    <glyph glyph-name="braceleft" unicode="{" horiz-adv-x="360" 
d="M51 -36l17 123q4 30 -14 47t-39 21q-13 2 -11 18l7 49q2 13 15 17q7 2 19.5 8.5t31.5 24t22 36.5l18 127q38 265 262 275q17 0 16 -17l-5 -63q-1 -14 -15 -18q-53 -11 -87.5 -56.5t-45.5 -120.5l-15 -105q-3 -20 -11 -39t-17.5 -32t-21 -24.5t-20.5 -18t-16 -11.5l-7 -5
v-4q68 -34 59 -105l-20 -164q-6 -54 19 -90t68 -48q13 -4 10 -19l-13 -63q-3 -17 -21 -17q-38 2 -72 16t-65 43.5t-44.5 84.5t-3.5 130z" />
    <glyph glyph-name="bar" unicode="|" horiz-adv-x="175" 
d="M-15 -282l144 1023q1 8 6.5 13.5t12.5 5.5h14q16 0 14 -19l-144 -1023q-1 -7 -7 -12.5t-13 -5.5h-12q-7 0 -11.5 5.5t-3.5 12.5z" />
    <glyph glyph-name="braceright" unicode="}" horiz-adv-x="361" 
d="M96 -36l15 107q12 89 93 125v4l-6 5q-6 5 -12.5 11.5t-14.5 18t-14 24.5t-9 32t0 39l14 105q22 151 -83 177q-13 2 -10 18l13 63q3 17 20 17q62 -3 108.5 -42.5t67 -100t11.5 -125.5l-19 -134q-2 -15 4 -28t17 -21.5t18.5 -13t14.5 -6.5q11 -4 9 -17l-6 -49
q-2 -13 -14 -16q-15 -4 -22 -7t-20.5 -10.5t-21.5 -20.5t-10 -32l-17 -123q-9 -67 -31 -117.5t-48.5 -79.5t-60.5 -47t-63 -24t-60 -6q-8 0 -12 3.5t-3 10.5l4 66q1 16 15 19q113 28 133 175z" />
    <glyph glyph-name="asciitilde" unicode="~" horiz-adv-x="495" 
d="M72 194l-43 48q-10 11 1 24q3 4 8 10.5t21.5 22.5t33 28.5t39.5 23t44 10.5q42 0 92 -41q3 -2 10 -8t11.5 -9t11.5 -7t14 -6t14 -2q25 0 69 52q15 16 27 2l40 -47q10 -12 -2 -24q-8 -11 -21 -26.5t-50.5 -42t-70.5 -26.5q-51 0 -102 43q-32 28 -52 28q-31 0 -69 -51
q-13 -17 -26 -2z" />
    <glyph glyph-name="uni00A0" unicode="&#xa0;" horiz-adv-x="224" 
 />
    <glyph glyph-name="exclamdown" unicode="&#xa1;" horiz-adv-x="260" 
d="M126 245q-30 0 -50.5 21.5t-20.5 51.5q0 37 28.5 64.5t65.5 27.5q29 0 49 -21t20 -51q0 -37 -28 -65t-64 -28zM72 112q1 6 7.5 11t12.5 5h33q7 0 11.5 -5t3.5 -11l1 -279l-16 -114q-1 -7 -6.5 -13t-12.5 -6h-115q-7 0 -11 5.5t-3 13.5l16 112z" />
    <glyph glyph-name="cent" unicode="&#xa2;" horiz-adv-x="380" 
d="M106 6q-45 22 -71.5 67t-26.5 103q0 101 62.5 167.5t150.5 66.5q18 0 38 -5l17 44q7 17 22 13l13 -3q16 -4 9 -23l-18 -47q34 -19 55 -50q9 -13 -8 -28l-40 -37q-13 -11 -25 1l-20 16l-75 -193h2q36 0 71 38q12 14 25 1l39 -38q13 -13 3 -28q-62 -81 -150 -81
q-17 0 -30 3l-37 -97q-7 -16 -22 -13l-12 3q-17 4 -10 22zM149 118l70 184q-36 -2 -64 -36t-28 -82q0 -42 22 -66z" />
    <glyph glyph-name="sterling" unicode="&#xa3;" horiz-adv-x="453" 
d="M32 19l3 18q72 116 68 254h-38q-7 0 -11 6t-3 13l2 13q4 19 19 19h28q-8 62 -8 123q0 113 62.5 179t162.5 66q80 0 145 -71q11 -11 -2 -26l-57 -56q-13 -13 -24 -3q-39 43 -73 43t-60 -31t-26 -86q0 -23 7 -71.5t8 -66.5h92q8 0 12.5 -6t3.5 -13l-3 -14q-4 -18 -20 -18
h-84q-4 -98 -35 -180h163q16 0 13 -19l-10 -73q-1 -7 -6.5 -13t-12.5 -6h-301q-7 0 -11.5 5.5t-3.5 13.5z" />
    <glyph glyph-name="currency" unicode="&#xa4;" horiz-adv-x="429" 
d="M82 161l-35 40q-11 11 4 27l52 48q-11 59 16 112l-39 48q-4 5 -3 14t7 13l46 39q15 13 24 0l38 -47q51 27 95 0l51 47q12 12 24 0l35 -40q11 -12 -3 -26l-51 -47q13 -59 -16 -114l38 -47q10 -14 -4 -27l-47 -39q-15 -12 -23 -1l-39 48q-51 -27 -94 0l-52 -48
q-12 -12 -24 0zM215 281q18 0 32 14.5t16 36.5q4 22 -6 37t-29 15q-17 0 -31 -15t-17 -37t7 -36.5t28 -14.5z" />
    <glyph glyph-name="yen" unicode="&#xa5;" horiz-adv-x="583" 
d="M107 120q-15 0 -13 19l2 13q1 8 6.5 13.5t12.5 5.5h94l10 69h-95q-7 0 -11 5.5t-2 13.5l2 13q1 8 6 13.5t12 5.5h95l7 46l-156 339q-4 10 1 17t16 7h94q13 0 19 -14l105 -230l168 235q7 9 16 9h110q11 0 13.5 -8t-4.5 -18l-252 -336l-7 -47h94q7 0 11.5 -5.5t2.5 -13.5
l-1 -14q-4 -18 -20 -18h-94l-9 -69h93q7 0 11.5 -5.5t3.5 -13.5l-2 -14q-4 -18 -20 -18h-93l-14 -101q-1 -7 -7 -13t-13 -6h-97q-16 0 -14 19l14 101h-95z" />
    <glyph glyph-name="brokenbar" unicode="&#xa6;" horiz-adv-x="316" 
d="M170 392q-7 0 -11.5 5.5t-3.5 12.5l47 331q1 8 6.5 13.5t12.5 5.5h14q16 0 14 -19l-47 -331q-1 -7 -6.5 -12.5t-12.5 -5.5h-13zM104 49q1 8 7 13.5t13 5.5h14q16 0 14 -19l-47 -331q-1 -7 -7 -12.5t-13 -5.5h-12q-7 0 -11.5 5.5t-3.5 12.5z" />
    <glyph glyph-name="section" unicode="&#xa7;" horiz-adv-x="475" 
d="M19 -93q16 23 34 8q7 -6 22 -16t44.5 -22t53.5 -12q31 0 53.5 19.5t22.5 50.5q0 65 -80 112q-60 35 -98 78t-38 104q0 104 84 161q-45 39 -45 116q0 82 55.5 143t160.5 61q15 0 29.5 -1.5t27.5 -5t24 -7t22 -8.5t18.5 -9t16 -10t12.5 -9t11 -8t8 -6q6 -5 6.5 -14
t-5.5 -17l-41 -54q-14 -19 -31 -5q-16 14 -48.5 28t-64.5 14t-53 -21.5t-21 -50.5q0 -52 82 -94q41 -22 69 -41.5t54 -59t26 -86.5q0 -52 -25 -96t-59 -69q44 -40 44 -118q0 -90 -61 -150.5t-167 -60.5q-60 0 -109 26t-68 48q-12 15 1 34zM254 138q5 3 12 10t18.5 30
t11.5 50q0 33 -26.5 57t-77.5 50q-38 -33 -38 -87q0 -8 1.5 -15.5t5 -14.5t6.5 -12.5t10 -12.5t11.5 -10.5t14.5 -11t15 -10.5t18 -11.5t18 -11.5z" />
    <glyph glyph-name="dieresis" unicode="&#xa8;" horiz-adv-x="373" 
d="M295 551q-24 0 -38 19t-10 45q3 26 22 44.5t43 18.5q23 0 38 -18.5t12 -44.5q-4 -26 -24 -45t-43 -19zM114 551q-23 0 -37.5 19t-10.5 45q3 26 22.5 44.5t42.5 18.5q24 0 38.5 -18.5t11.5 -44.5q-4 -26 -23.5 -45t-43.5 -19z" />
    <glyph glyph-name="copyright" unicode="&#xa9;" horiz-adv-x="730" 
d="M47 303q0 166 111.5 286.5t266.5 120.5q119 0 198 -91t79 -222q0 -167 -112 -286.5t-266 -119.5q-119 0 -198 90.5t-79 221.5zM123 312q0 -101 60 -172t152 -71q115 0 203 94.5t88 224.5q0 102 -60 172.5t-152 70.5q-115 0 -203 -94.5t-88 -224.5zM212 328q0 89 57 148.5
t138 59.5q66 0 100 -38q14 -16 -3 -29l-41 -36q-12 -10 -22 -2q-19 14 -45 14q-36 0 -63 -32.5t-27 -76.5q0 -34 17.5 -56.5t46.5 -22.5q21 0 47 19q13 10 22 -2l33 -43q9 -14 -5 -28q-50 -42 -108 -42q-63 0 -105 48t-42 119z" />
    <glyph glyph-name="ordfeminine" unicode="&#xaa;" horiz-adv-x="294" 
d="M130 398q-36 0 -57.5 23.5t-21.5 62.5q0 48 33 79t88 31q10 0 21 -2t17 -4l6 -2q5 29 -0.5 41t-27.5 12q-25 0 -69 -11q-16 -3 -14 15l-1 33q0 12 14 20q26 14 90 14q60 0 79.5 -31.5t10.5 -97.5l-22 -161q-2 -14 -15 -14h-27q-11 0 -17 31q-41 -39 -87 -39zM161 466
q13 0 24.5 8.5t15.5 18.5l4 39q-10 8 -31 8q-16 0 -28 -12t-12 -32q0 -13 7.5 -21.5t19.5 -8.5z" />
    <glyph glyph-name="guillemotleft" unicode="&#xab;" horiz-adv-x="450" 
d="M278 39l-72 155q-6 13 3 24l114 148q10 12 21 12h64q12 0 14.5 -9.5t-4.5 -21.5l-80 -149l32 -137q3 -12 -2 -21t-16 -9h-62q-8 0 -12 8zM90 39l-72 155q-6 13 3 24l114 148q10 12 21 12h64q12 0 14.5 -9.5t-4.5 -21.5l-80 -149l32 -137q3 -12 -2 -21t-16 -9h-62
q-8 0 -12 8z" />
    <glyph glyph-name="logicalnot" unicode="&#xac;" horiz-adv-x="463" 
d="M41 300q-7 0 -11 5.5t-3 13.5l8 56q1 7 6.5 13t12.5 6h358q16 0 14 -19l-32 -226q-1 -7 -6.5 -12.5t-12.5 -5.5h-58q-7 0 -11 5.5t-3 12.5l21 151h-283z" />
    <glyph glyph-name="uni00AD" unicode="&#xad;" horiz-adv-x="312" 
d="M81 192q-16 0 -14 18l9 67q2 19 20 19h204q16 0 14 -19l-9 -67q-2 -18 -20 -18h-204z" />
    <glyph glyph-name="registered" unicode="&#xae;" horiz-adv-x="730" 
d="M47 303q0 166 111.5 286.5t266.5 120.5q119 0 198 -91t79 -222q0 -167 -112 -286.5t-266 -119.5q-119 0 -198 90.5t-79 221.5zM123 312q0 -101 60 -172t152 -71q115 0 203 94.5t88 224.5q0 102 -60 172.5t-152 70.5q-115 0 -203 -94.5t-88 -224.5zM244 168
q-7 0 -11.5 5.5t-2.5 13.5l46 328q1 7 6.5 13t12.5 6h143q40 0 67.5 -29t27.5 -77q0 -94 -80 -124l25 -109q2 -11 -3.5 -19t-15.5 -8h-54q-12 0 -14 14l-20 112h-43l-15 -107q-1 -8 -6.5 -13.5t-12.5 -5.5h-50zM336 368h66q15 0 27 14t12 34q0 15 -7.5 24.5t-19.5 9.5h-66z
" />
    <glyph glyph-name="macron" unicode="&#xaf;" horiz-adv-x="373" 
d="M52 570q-16 0 -14 18l4 34q2 19 20 19h231q7 0 11 -5.5t3 -13.5l-5 -34q-2 -18 -19 -18h-231z" />
    <glyph glyph-name="degree" unicode="&#xb0;" horiz-adv-x="286" 
d="M171 440q-47 0 -78.5 34t-31.5 83q0 64 38.5 108.5t98.5 44.5q46 0 77.5 -34t31.5 -83q0 -64 -40 -108.5t-96 -44.5zM177 526q16 0 29 17t13 39q0 17 -8 29t-21 12q-17 0 -30 -16.5t-13 -39.5q0 -17 8.5 -29t21.5 -12z" />
    <glyph glyph-name="plusminus" unicode="&#xb1;" horiz-adv-x="521" 
d="M233 242q-7 0 -11 5.5t-3 12.5l13 103h-131q-7 0 -11 5.5t-3 13.5l8 56q1 8 6.5 13.5t12.5 5.5h131l21 148q1 7 7 12.5t13 5.5h61q7 0 11.5 -5.5t3.5 -12.5l-21 -148h131q7 0 11 -5.5t3 -13.5l-8 -56q-1 -8 -6.5 -13.5t-12.5 -5.5h-131l-13 -103q-4 -18 -20 -18h-62z
M48 47q-19 0 -17 19l7 56q1 7 7 13t13 6h358q7 0 11 -5.5t3 -13.5l-8 -56q-1 -8 -6.5 -13.5t-12.5 -5.5h-355z" />
    <glyph glyph-name="twosuperior" unicode="&#xb2;" horiz-adv-x="258" 
d="M74 504q-10 0 -8 9l3 17l112 126q29 34 29 57q0 28 -24 28q-17 0 -44 -19q-10 -6 -16 5l-18 33q-6 12 7 21q41 29 88 29q37 0 62.5 -22t25.5 -57q0 -51 -42 -99l-57 -64h66q10 0 8 -9l-7 -46q0 -9 -9 -9h-176z" />
    <glyph glyph-name="threesuperior" unicode="&#xb3;" horiz-adv-x="246" 
d="M152 494q-52 0 -81 33q-8 8 0 18l22 26q9 9 17 2q13 -13 37 -13q38 0 38 36q0 28 -31 28h-28q-13 0 -10 14l4 31q1 14 17 14h26q15 0 25 10.5t10 25.5q0 25 -26 25q-15 0 -33 -16q-9 -5 -14 3l-21 31q-8 10 4 18q32 30 80 30q41 0 67 -19.5t26 -52.5q0 -29 -17 -50
t-40 -31q44 -21 44 -67q0 -44 -33.5 -70t-82.5 -26z" />
    <glyph glyph-name="acute" unicode="&#xb4;" horiz-adv-x="272" 
d="M90 528q-17 -7 -23 6l-16 39q-5 13 8 19l164 97q17 11 24 -5l24 -52q9 -19 -9 -27z" />
    <glyph glyph-name="mu" unicode="&#xb5;" horiz-adv-x="490" 
d="M139 -6l-38 -275q-1 -7 -7 -13t-13 -6h-86q-7 0 -11.5 5.5t-3.5 13.5l94 662q1 8 6.5 13.5t12.5 5.5h87q7 0 11 -5.5t3 -13.5l-29 -206q-3 -36 9 -56.5t36 -20.5q22 0 41 14t27 28l8 15l31 226q4 19 22 19h82q7 0 11 -5.5t3 -13.5l-50 -362q-1 -7 -7 -13t-13 -6h-39
q-11 0 -15 15l-7 33q-53 -58 -130 -58q-13 0 -35 4z" />
    <glyph glyph-name="paragraph" unicode="&#xb6;" horiz-adv-x="639" 
d="M168 -281l79 562h-39q-69 0 -114.5 52.5t-45.5 129.5q0 95 62.5 166t143.5 71h413q7 0 11.5 -6t3.5 -13l-7 -46q-3 -19 -19 -19h-62l-126 -897q-1 -8 -7 -13.5t-13 -5.5h-57q-7 0 -11 5.5t-3 13.5l126 896h-118l-126 -896q-1 -7 -6.5 -13t-12.5 -6h-57q-7 0 -11.5 5.5
t-3.5 13.5z" />
    <glyph glyph-name="periodcentered" unicode="&#xb7;" horiz-adv-x="258" 
d="M119 167q-33 0 -55 23t-22 56q0 41 31 71.5t71 30.5q34 0 57 -23.5t23 -57.5q0 -40 -32 -70t-73 -30z" />
    <glyph glyph-name="cedilla" unicode="&#xb8;" horiz-adv-x="222" 
d="M73 0h63l-8 -54q33 -5 52.5 -28.5t19.5 -61.5q0 -48 -29.5 -82t-76.5 -34q-48 0 -69 35q-10 15 7 28l18 17q10 10 19 -1q10 -12 26 -12q14 0 24.5 12.5t10.5 31.5q0 37 -57 42q-16 2 -13 18z" />
    <glyph glyph-name="onesuperior" unicode="&#xb9;" horiz-adv-x="192" 
d="M116 504q-8 0 -8 9l27 193l-47 -4q-8 0 -6 9l3 30q1 9 9 14l74 45h52q9 0 7 -9l-39 -278q-2 -9 -10 -9h-62z" />
    <glyph glyph-name="ordmasculine" unicode="&#xba;" horiz-adv-x="287" 
d="M159 394q-45 0 -71.5 33.5t-26.5 89.5q0 88 38 140.5t104 52.5q46 0 72 -33t26 -90q0 -88 -38 -140.5t-104 -52.5zM169 468q21 0 34.5 33.5t13.5 82.5q0 52 -24 52q-21 0 -34.5 -34t-13.5 -82q0 -52 24 -52z" />
    <glyph glyph-name="guillemotright" unicode="&#xbb;" horiz-adv-x="450" 
d="M200 62l80 149l-32 137q-3 12 2 21t16 9h62q8 0 12 -8l72 -155q6 -13 -3 -24l-114 -148q-10 -12 -21 -12h-64q-12 0 -14.5 9.5t4.5 21.5zM22 31q-12 0 -14.5 9.5t4.5 21.5l80 149l-32 137q-3 12 2 21t16 9h62q8 0 12 -8l72 -155q6 -13 -3 -24l-114 -148q-10 -12 -21 -12
h-64z" />
    <glyph glyph-name="onequarter" unicode="&#xbc;" horiz-adv-x="603" 
d="M41 27l403 663q7 10 17 10h52q10 0 13.5 -8.5t-2.5 -18.5l-404 -663q-8 -10 -16 -10h-51q-10 0 -14 8.5t2 18.5zM107 404q-8 0 -8 9l27 193l-47 -4q-7 0 -6 9l3 30q1 9 9 14l74 45h52q9 0 7 -9l-39 -278q-2 -9 -10 -9h-62zM287 65l7 51l167 175q5 5 13 5h39q9 0 7 -9
l-24 -170h35q9 0 7 -8l-6 -43q0 -9 -9 -9h-36l-6 -48q-2 -9 -10 -9h-56q-10 0 -8 9l7 48h-120q-7 0 -7 8zM364 116h59l12 72z" />
    <glyph glyph-name="onehalf" unicode="&#xbd;" horiz-adv-x="597" 
d="M41 27l403 663q7 10 17 10h52q10 0 13.5 -8.5t-2.5 -18.5l-404 -663q-8 -10 -16 -10h-51q-10 0 -14 8.5t2 18.5zM107 404q-8 0 -8 9l27 193l-47 -4q-7 0 -6 9l3 30q1 9 9 14l74 45h52q9 0 7 -9l-39 -278q-2 -9 -10 -9h-62zM311 9l3 17l112 126q29 34 29 57q0 28 -24 28
q-17 0 -44 -19q-10 -6 -16 5l-18 33q-6 12 7 21q41 29 88 29q37 0 62.5 -22t25.5 -57q0 -51 -42 -99l-57 -64h66q10 0 8 -9l-7 -46q0 -9 -9 -9h-176q-9 0 -8 9z" />
    <glyph glyph-name="threequarters" unicode="&#xbe;" horiz-adv-x="653" 
d="M137 394q-52 0 -81 33q-8 8 0 18l22 26q10 9 17 2q13 -13 37 -13q38 0 38 36q0 28 -31 28h-28q-13 0 -10 14l4 31q1 14 17 14h26q14 0 24.5 10.5t10.5 25.5q0 25 -26 25q-15 0 -33 -16q-9 -5 -14 3l-21 31q-8 10 4 18q32 30 80 30q41 0 67 -19.5t26 -52.5q0 -29 -17 -50
t-40 -31q44 -21 44 -67q0 -44 -33.5 -70t-82.5 -26zM92 27l403 663q7 10 17 10h52q10 0 13.5 -8.5t-2.5 -18.5l-404 -663q-7 -10 -16 -10h-51q-10 0 -14 8.5t2 18.5zM338 65l7 51l167 175q5 5 13 5h39q9 0 7 -9l-24 -170h35q9 0 7 -8l-6 -43q0 -9 -9 -9h-36l-6 -48
q-2 -9 -10 -9h-56q-10 0 -8 9l7 48h-120q-7 0 -7 8zM415 116h59l12 72z" />
    <glyph glyph-name="questiondown" unicode="&#xbf;" horiz-adv-x="402" 
d="M212 245q-30 0 -50 21.5t-20 51.5q0 37 28.5 64.5t64.5 27.5q30 0 50 -21t20 -51q0 -37 -28.5 -65t-64.5 -28zM125 74l8 38q3 16 19 16h86q7 0 11.5 -5.5t3.5 -13.5l-6 -42q-5 -33 -30 -63.5t-52.5 -50t-49.5 -45.5t-22 -52q0 -23 14 -37t39 -14q7 0 15 2t14 4t13.5 6.5
t12 8t11.5 9t10 8t9 8.5l6 6q15 13 29 -1l46 -51q9 -11 -4 -26l-6 -7q-5 -6 -9.5 -10t-12.5 -12t-16.5 -14t-20 -13.5t-24 -12.5t-27 -10t-32 -7.5t-35.5 -2.5q-69 0 -117.5 43.5t-48.5 107.5q0 38 15.5 70t39 52.5t47 38t42 36t22.5 36.5z" />
    <glyph glyph-name="Agrave" unicode="&#xc0;" horiz-adv-x="602" 
d="M-21 0q-10 0 -13.5 8t1.5 18l376 673q6 11 17 11h9q10 0 14 -11l184 -673q3 -10 -3 -18t-16 -8h-87q-22 0 -26 20l-25 111h-249l-58 -111q-10 -20 -32 -20h-92zM220 239h158l-47 218h-2zM441 769l-150 77q-15 8 -2 27l29 43q6 9 15 10.5t12 -2.5l137 -97q11 -6 3 -19
l-20 -33q-9 -14 -24 -6z" />
    <glyph glyph-name="Aacute" unicode="&#xc1;" horiz-adv-x="602" 
d="M-21 0q-10 0 -13.5 8t1.5 18l376 673q6 11 17 11h9q10 0 14 -11l184 -673q3 -10 -3 -18t-16 -8h-87q-22 0 -26 20l-25 111h-249l-58 -111q-10 -20 -32 -20h-92zM220 239h158l-47 218h-2zM313 768q-17 -7 -23 6l-16 39q-5 13 8 19l164 97q17 11 24 -5l24 -52q9 -19 -9 -27
z" />
    <glyph glyph-name="Acircumflex" unicode="&#xc2;" horiz-adv-x="602" 
d="M-21 0q-10 0 -13.5 8t1.5 18l376 673q6 11 17 11h9q10 0 14 -11l184 -673q3 -10 -3 -18t-16 -8h-87q-22 0 -26 20l-25 111h-249l-58 -111q-10 -20 -32 -20h-92zM220 239h158l-47 218h-2zM282 765q-12 -8 -20 3l-22 33q-9 13 5 23l134 101q11 8 21 0l106 -101q11 -8 3 -19
l-29 -37q-9 -12 -20 -3l-78 62z" />
    <glyph glyph-name="Atilde" unicode="&#xc3;" horiz-adv-x="602" 
d="M-21 0q-10 0 -13.5 8t1.5 18l376 673q6 11 17 11h9q10 0 14 -11l184 -673q3 -10 -3 -18t-16 -8h-87q-22 0 -26 20l-25 111h-249l-58 -111q-10 -20 -32 -20h-92zM220 239h158l-47 218h-2zM271 789l-27 21q-10 10 -2 23q42 84 102 84q24 0 52 -27.5t42 -27.5q16 0 32 31
q12 23 30 10l23 -18q14 -10 2 -33q-7 -14 -17 -29t-32.5 -31t-46.5 -16q-20 0 -38.5 14t-33 28t-24.5 14q-3 0 -6 -0.5t-5.5 -2.5t-5 -3.5t-5 -5t-3.5 -5t-3.5 -6t-3.5 -5.5t-3 -6l-3 -5q-3 -6 -10.5 -7.5t-13.5 3.5z" />
    <glyph glyph-name="Adieresis" unicode="&#xc4;" horiz-adv-x="602" 
d="M-21 0q-10 0 -13.5 8t1.5 18l376 673q6 11 17 11h9q10 0 14 -11l184 -673q3 -10 -3 -18t-16 -8h-87q-22 0 -26 20l-25 111h-249l-58 -111q-10 -20 -32 -20h-92zM220 239h158l-47 218h-2zM486 775q-24 0 -38 19t-10 45q3 26 22 44.5t43 18.5q23 0 37.5 -18.5t11.5 -44.5
q-4 -26 -23.5 -45t-42.5 -19zM263 775q-23 0 -37 19t-10 45q3 26 22 44.5t42 18.5q24 0 38.5 -18.5t11.5 -44.5q-4 -26 -23.5 -45t-43.5 -19z" />
    <glyph glyph-name="Aring" unicode="&#xc5;" horiz-adv-x="602" 
d="M-21 0q-10 0 -13.5 8t1.5 18l376 673q6 11 17 11h9q10 0 14 -11l184 -673q3 -10 -3 -18t-16 -8h-87q-22 0 -26 20l-25 111h-249l-58 -111q-10 -20 -32 -20h-92zM220 239h158l-47 218h-2zM373 754q-38 0 -63.5 28.5t-25.5 69.5q0 53 35 90.5t85 37.5q38 0 63 -28.5
t25 -69.5q0 -53 -35 -90.5t-84 -37.5zM381 817q18 0 33 17t15 39q0 18 -9.5 30t-24.5 12q-18 0 -33 -16.5t-15 -37.5q0 -18 10 -31t24 -13z" />
    <glyph glyph-name="AE" unicode="&#xc6;" horiz-adv-x="821" 
d="M-35 0q-10 0 -12 8t5 18l451 643q1 1 4.5 6t4.5 6t4 5t4 4.5t4 3t5 3t5 1.5t6 1.5t7 0.5h359q7 0 11 -5.5t3 -13.5l-12 -82q-1 -8 -6.5 -13.5t-12.5 -5.5h-258l-23 -164h213q7 0 11.5 -5.5t3.5 -13.5l-12 -83q-1 -8 -7 -13.5t-13 -5.5h-213l-25 -175h258q16 0 14 -19
l-11 -82q-1 -8 -7 -13.5t-13 -5.5h-370q-7 0 -11.5 5.5t-3.5 13.5l16 109h-175l-74 -113q-11 -15 -27 -15h-103zM249 239h110l31 222z" />
    <glyph glyph-name="Ccedilla" unicode="&#xc7;" horiz-adv-x="628" 
d="M278 -4q-103 20 -164.5 104.5t-61.5 200.5q0 175 108 292t265 117q127 0 208 -95q11 -15 -4 -28l-54 -52q-17 -16 -33 0q-52 50 -124 50q-90 0 -157 -80t-67 -187q0 -83 41.5 -140t111.5 -57t137 59q19 16 32 -1l52 -65q9 -13 -5 -27q-100 -95 -223 -97l-6 -44
q33 -5 52.5 -28.5t19.5 -61.5q0 -48 -29.5 -82t-76.5 -34q-48 0 -69 35q-10 15 7 28l18 17q10 10 19 -1q10 -12 26 -12q14 0 24.5 12.5t10.5 31.5q0 37 -57 42q-16 2 -13 18z" />
    <glyph glyph-name="Egrave" unicode="&#xc8;" horiz-adv-x="545" 
d="M53 19l93 662q1 7 6.5 13t12.5 6h370q7 0 11.5 -5.5t3.5 -13.5l-12 -82q-1 -8 -7 -13.5t-13 -5.5h-256l-23 -164h212q7 0 11.5 -5.5t3.5 -13.5l-12 -83q-1 -8 -7 -13.5t-13 -5.5h-212l-25 -175h257q16 0 14 -19l-11 -82q-1 -8 -7 -13.5t-13 -5.5h-370q-7 0 -11.5 5.5
t-2.5 13.5zM427 769l-150 77q-15 8 -2 27l29 43q6 9 15 10.5t12 -2.5l137 -97q11 -6 3 -19l-20 -33q-9 -14 -24 -6z" />
    <glyph glyph-name="Eacute" unicode="&#xc9;" horiz-adv-x="545" 
d="M53 19l93 662q1 7 6.5 13t12.5 6h370q7 0 11.5 -5.5t3.5 -13.5l-12 -82q-1 -8 -7 -13.5t-13 -5.5h-256l-23 -164h212q7 0 11.5 -5.5t3.5 -13.5l-12 -83q-1 -8 -7 -13.5t-13 -5.5h-212l-25 -175h257q16 0 14 -19l-11 -82q-1 -8 -7 -13.5t-13 -5.5h-370q-7 0 -11.5 5.5
t-2.5 13.5zM300 768q-17 -7 -23 6l-16 39q-5 13 8 19l164 97q17 11 24 -5l24 -52q9 -19 -9 -27z" />
    <glyph glyph-name="Ecircumflex" unicode="&#xca;" horiz-adv-x="545" 
d="M53 19l93 662q1 7 6.5 13t12.5 6h370q7 0 11.5 -5.5t3.5 -13.5l-12 -82q-1 -8 -7 -13.5t-13 -5.5h-256l-23 -164h212q7 0 11.5 -5.5t3.5 -13.5l-12 -83q-1 -8 -7 -13.5t-13 -5.5h-212l-25 -175h257q16 0 14 -19l-11 -82q-1 -8 -7 -13.5t-13 -5.5h-370q-7 0 -11.5 5.5
t-2.5 13.5zM270 765q-12 -8 -20 3l-22 33q-9 13 5 23l134 101q11 8 21 0l106 -101q11 -8 3 -19l-29 -37q-9 -12 -20 -3l-78 62z" />
    <glyph glyph-name="Edieresis" unicode="&#xcb;" horiz-adv-x="545" 
d="M53 19l93 662q1 7 6.5 13t12.5 6h370q7 0 11.5 -5.5t3.5 -13.5l-12 -82q-1 -8 -7 -13.5t-13 -5.5h-256l-23 -164h212q7 0 11.5 -5.5t3.5 -13.5l-12 -83q-1 -8 -7 -13.5t-13 -5.5h-212l-25 -175h257q16 0 14 -19l-11 -82q-1 -8 -7 -13.5t-13 -5.5h-370q-7 0 -11.5 5.5
t-2.5 13.5zM473 775q-24 0 -38 19t-10 45q3 26 22 44.5t43 18.5q23 0 37.5 -18.5t11.5 -44.5q-4 -26 -23.5 -45t-42.5 -19zM250 775q-23 0 -37 19t-10 45q3 26 22 44.5t42 18.5q24 0 38.5 -18.5t11.5 -44.5q-4 -26 -23.5 -45t-43.5 -19z" />
    <glyph glyph-name="Igrave" unicode="&#xcc;" horiz-adv-x="310" 
d="M53 19l93 662q1 7 6.5 13t12.5 6h98q7 0 11 -6t3 -13l-93 -662q-1 -8 -6.5 -13.5t-12.5 -5.5h-98q-7 0 -11 6t-3 13zM290 769l-150 77q-15 8 -2 27l29 43q6 9 15 10.5t12 -2.5l137 -97q11 -6 3 -19l-20 -33q-9 -14 -24 -6z" />
    <glyph glyph-name="Iacute" unicode="&#xcd;" horiz-adv-x="310" 
d="M53 19l93 662q1 7 6.5 13t12.5 6h98q7 0 11 -6t3 -13l-93 -662q-1 -8 -6.5 -13.5t-12.5 -5.5h-98q-7 0 -11 6t-3 13zM162 768q-17 -7 -23 6l-16 39q-5 13 8 19l164 97q17 11 24 -5l24 -52q9 -19 -9 -27z" />
    <glyph glyph-name="Icircumflex" unicode="&#xce;" horiz-adv-x="310" 
d="M53 19l93 662q1 7 6.5 13t12.5 6h98q7 0 11 -6t3 -13l-93 -662q-1 -8 -6.5 -13.5t-12.5 -5.5h-98q-7 0 -11 6t-3 13zM132 765q-12 -8 -20 3l-22 33q-9 13 5 23l134 101q11 8 21 0l106 -101q11 -8 3 -19l-29 -37q-9 -12 -20 -3l-78 62z" />
    <glyph glyph-name="Idieresis" unicode="&#xcf;" horiz-adv-x="310" 
d="M53 19l93 662q1 7 6.5 13t12.5 6h98q7 0 11 -6t3 -13l-93 -662q-1 -8 -6.5 -13.5t-12.5 -5.5h-98q-7 0 -11 6t-3 13zM335 775q-24 0 -38 19t-10 45q3 26 22 44.5t43 18.5q23 0 37.5 -18.5t11.5 -44.5q-4 -26 -23.5 -45t-42.5 -19zM112 775q-23 0 -37 19t-10 45
q3 26 22 44.5t42 18.5q24 0 38.5 -18.5t11.5 -44.5q-4 -26 -23.5 -45t-43.5 -19z" />
    <glyph glyph-name="Eth" unicode="&#xd0;" horiz-adv-x="688" 
d="M58 19l42 302h-26q-7 0 -11 5.5t-3 13.5l1 13q1 7 7 13t13 6h26l44 309q1 7 6.5 13t12.5 6h216q116 0 193.5 -91t77.5 -213q0 -163 -107.5 -279.5t-261.5 -116.5h-217q-7 0 -11 5.5t-2 13.5zM202 122h93q92 0 157.5 76.5t65.5 188.5q0 83 -43.5 137.5t-114.5 54.5h-94
l-29 -207h137q16 0 14 -19l-2 -14q-2 -18 -19 -18h-137z" />
    <glyph glyph-name="Ntilde" unicode="&#xd1;" horiz-adv-x="715" 
d="M53 17l94 675q1 7 6.5 12.5t12.5 5.5h26l305 -432h1l54 403q1 8 6.5 13.5t12.5 5.5h97q7 0 11.5 -5.5t3.5 -13.5l-95 -673q-1 -7 -6.5 -12.5t-12.5 -5.5h-27l-304 445h-1l-54 -416q-1 -8 -7 -13.5t-13 -5.5h-96q-6 0 -10.5 5t-3.5 12zM317 789l-27 21q-10 10 -2 23
q42 84 102 84q24 0 52 -27.5t42 -27.5q16 0 32 31q12 23 30 10l23 -18q14 -10 2 -33q-7 -14 -17 -29t-32.5 -31t-46.5 -16q-20 0 -38.5 14t-33 28t-24.5 14q-3 0 -6 -0.5t-5.5 -2.5t-5 -3.5t-5 -5t-3.5 -5t-3.5 -6t-3.5 -5.5t-3 -6l-3 -5q-3 -6 -10.5 -7.5t-13.5 3.5z" />
    <glyph glyph-name="Ograve" unicode="&#xd2;" horiz-adv-x="735" 
d="M50 300q0 171 107.5 290.5t266.5 119.5q120 0 200.5 -92t80.5 -221q0 -170 -108 -288.5t-266 -118.5q-120 0 -200.5 91.5t-80.5 218.5zM345 120q88 0 156.5 77.5t68.5 183.5q0 83 -45.5 141t-115.5 58q-87 0 -155.5 -79t-68.5 -184q0 -82 45.5 -139.5t114.5 -57.5z
M494 769l-150 77q-15 8 -2 27l29 43q6 9 15 10.5t12 -2.5l137 -97q11 -6 3 -19l-20 -33q-9 -14 -24 -6z" />
    <glyph glyph-name="Oacute" unicode="&#xd3;" horiz-adv-x="735" 
d="M50 300q0 171 107.5 290.5t266.5 119.5q120 0 200.5 -92t80.5 -221q0 -170 -108 -288.5t-266 -118.5q-120 0 -200.5 91.5t-80.5 218.5zM345 120q88 0 156.5 77.5t68.5 183.5q0 83 -45.5 141t-115.5 58q-87 0 -155.5 -79t-68.5 -184q0 -82 45.5 -139.5t114.5 -57.5z
M366 768q-17 -7 -23 6l-16 39q-5 13 8 19l164 97q17 11 24 -5l24 -52q9 -19 -9 -27z" />
    <glyph glyph-name="Ocircumflex" unicode="&#xd4;" horiz-adv-x="735" 
d="M50 300q0 171 107.5 290.5t266.5 119.5q120 0 200.5 -92t80.5 -221q0 -170 -108 -288.5t-266 -118.5q-120 0 -200.5 91.5t-80.5 218.5zM345 120q88 0 156.5 77.5t68.5 183.5q0 83 -45.5 141t-115.5 58q-87 0 -155.5 -79t-68.5 -184q0 -82 45.5 -139.5t114.5 -57.5z
M335 765q-12 -8 -20 3l-22 33q-9 13 5 23l134 101q11 8 21 0l106 -101q11 -8 3 -19l-29 -37q-9 -12 -20 -3l-78 62z" />
    <glyph glyph-name="Otilde" unicode="&#xd5;" horiz-adv-x="735" 
d="M50 300q0 171 107.5 290.5t266.5 119.5q120 0 200.5 -92t80.5 -221q0 -170 -108 -288.5t-266 -118.5q-120 0 -200.5 91.5t-80.5 218.5zM345 120q88 0 156.5 77.5t68.5 183.5q0 83 -45.5 141t-115.5 58q-87 0 -155.5 -79t-68.5 -184q0 -82 45.5 -139.5t114.5 -57.5z
M324 789l-27 21q-10 10 -2 23q42 84 102 84q24 0 52 -27.5t42 -27.5q17 0 32 31q12 23 30 10l23 -18q14 -10 2 -33q-7 -14 -17 -29t-32.5 -31t-46.5 -16q-20 0 -38.5 14t-33 28t-24.5 14q-3 0 -6 -0.5t-5.5 -2.5t-5 -3.5t-5 -5t-3.5 -5t-3.5 -6t-3.5 -5.5t-4 -6l-2 -5
q-3 -6 -10.5 -7.5t-13.5 3.5z" />
    <glyph glyph-name="Odieresis" unicode="&#xd6;" horiz-adv-x="735" 
d="M50 300q0 171 107.5 290.5t266.5 119.5q120 0 200.5 -92t80.5 -221q0 -170 -108 -288.5t-266 -118.5q-120 0 -200.5 91.5t-80.5 218.5zM345 120q88 0 156.5 77.5t68.5 183.5q0 83 -45.5 141t-115.5 58q-87 0 -155.5 -79t-68.5 -184q0 -82 45.5 -139.5t114.5 -57.5z
M540 775q-24 0 -38 19t-10 45q3 26 22 44.5t43 18.5q23 0 37.5 -18.5t11.5 -44.5q-4 -26 -23.5 -45t-42.5 -19zM317 775q-23 0 -37 19t-10 45q3 26 22 44.5t42 18.5q24 0 38.5 -18.5t11.5 -44.5q-4 -26 -23.5 -45t-43.5 -19z" />
    <glyph glyph-name="multiply" unicode="&#xd7;" horiz-adv-x="437" 
d="M87 174l-37 42q-11 12 3 26l111 108l-78 105q-4 5 -3 14t7 13l42 36q16 12 24 0l78 -105l111 109q13 12 24 -1l37 -42q12 -12 -3 -26l-111 -109l78 -105q4 -6 3 -14t-7 -13l-43 -35q-15 -12 -23 -1l-79 106l-111 -108q-12 -12 -23 0z" />
    <glyph glyph-name="Oslash" unicode="&#xd8;" horiz-adv-x="735" 
d="M26 23q-12 11 3 26l73 70q-52 80 -52 181q0 171 107.5 290.5t266.5 119.5q119 0 201 -92l74 71q11 11 23 0l9 -10q10 -12 -4 -26l-75 -72q53 -84 53 -184q0 -170 -108 -288.5t-266 -118.5q-120 0 -201 91l-72 -69q-11 -11 -23 1zM205 218l319 304q-46 58 -115 58
q-87 0 -155.5 -79t-68.5 -184q0 -54 20 -99zM230 177q46 -57 115 -57q88 0 156.5 77.5t68.5 183.5q0 53 -21 101z" />
    <glyph glyph-name="Ugrave" unicode="&#xd9;" horiz-adv-x="669" 
d="M79 265l59 416q1 7 7 13t13 6h99q7 0 11.5 -5.5t3.5 -13.5l-58 -409q-9 -64 18.5 -107t79.5 -43q53 0 93 42.5t49 106.5l58 410q1 8 7 13.5t13 5.5h99q7 0 11.5 -5.5t3.5 -13.5l-59 -416q-16 -117 -97 -196t-196 -79q-104 0 -167.5 80.5t-47.5 194.5zM467 769l-150 77
q-15 8 -2 27l29 43q6 9 15 10.5t12 -2.5l137 -97q11 -6 3 -19l-20 -33q-9 -14 -24 -6z" />
    <glyph glyph-name="Uacute" unicode="&#xda;" horiz-adv-x="669" 
d="M79 265l59 416q1 7 7 13t13 6h99q7 0 11.5 -5.5t3.5 -13.5l-58 -409q-9 -64 18.5 -107t79.5 -43q53 0 93 42.5t49 106.5l58 410q1 8 7 13.5t13 5.5h99q7 0 11.5 -5.5t3.5 -13.5l-59 -416q-16 -117 -97 -196t-196 -79q-104 0 -167.5 80.5t-47.5 194.5zM340 768
q-17 -7 -23 6l-16 39q-5 13 8 19l164 97q17 11 24 -5l24 -52q9 -19 -9 -27z" />
    <glyph glyph-name="Ucircumflex" unicode="&#xdb;" horiz-adv-x="669" 
d="M79 265l59 416q1 7 7 13t13 6h99q7 0 11.5 -5.5t3.5 -13.5l-58 -409q-9 -64 18.5 -107t79.5 -43q53 0 93 42.5t49 106.5l58 410q1 8 7 13.5t13 5.5h99q7 0 11.5 -5.5t3.5 -13.5l-59 -416q-16 -117 -97 -196t-196 -79q-104 0 -167.5 80.5t-47.5 194.5zM310 765
q-12 -8 -20 3l-22 33q-9 13 5 23l134 101q11 8 21 0l106 -101q11 -8 3 -19l-29 -37q-9 -12 -20 -3l-78 62z" />
    <glyph glyph-name="Udieresis" unicode="&#xdc;" horiz-adv-x="669" 
d="M79 265l59 416q1 7 7 13t13 6h99q7 0 11.5 -5.5t3.5 -13.5l-58 -409q-9 -64 18.5 -107t79.5 -43q53 0 93 42.5t49 106.5l58 410q1 8 7 13.5t13 5.5h99q7 0 11.5 -5.5t3.5 -13.5l-59 -416q-16 -117 -97 -196t-196 -79q-104 0 -167.5 80.5t-47.5 194.5zM513 775
q-24 0 -38 19t-10 45q3 26 22 44.5t43 18.5q23 0 37.5 -18.5t11.5 -44.5q-4 -26 -23.5 -45t-42.5 -19zM290 775q-23 0 -37 19t-10 45q3 26 22 44.5t42 18.5q24 0 38.5 -18.5t11.5 -44.5q-4 -26 -23.5 -45t-43.5 -19z" />
    <glyph glyph-name="Yacute" unicode="&#xdd;" horiz-adv-x="532" 
d="M161 19l45 318l-156 339q-4 10 1 17t16 7h94q13 0 19 -14l105 -230l168 235q7 9 16 9h110q11 0 13.5 -8t-4.5 -18l-252 -336l-44 -319q-1 -7 -7 -13t-13 -6h-97q-16 0 -14 19zM265 768q-17 -7 -23 6l-16 39q-5 13 8 19l164 97q17 11 24 -5l24 -52q9 -19 -9 -27z" />
    <glyph glyph-name="Thorn" unicode="&#xde;" horiz-adv-x="546" 
d="M53 19l93 662q1 8 7 13.5t13 5.5h96q7 0 11 -5.5t3 -13.5l-15 -108h101q74 1 123.5 -56.5t49.5 -136.5q0 -104 -69 -178.5t-166 -74.5h-102l-15 -108q-1 -7 -7 -13t-13 -6h-96q-7 0 -11.5 5.5t-2.5 13.5zM215 249h94q37 0 66.5 35t29.5 83q0 36 -19 59.5t-49 23.5h-93z
" />
    <glyph glyph-name="germandbls" unicode="&#xdf;" horiz-adv-x="485" 
d="M222 10l1 69q0 19 24 19q26 0 42.5 14.5t16.5 44.5q0 27 -31 81t-31 82q0 41 47.5 123t47.5 115q0 44 -37 44q-74 0 -101 -192l-96 -691q-1 -7 -7 -13t-13 -6h-90q-14 0 -14 19l96 693q42 298 250 298q53 0 97 -36.5t44 -92.5q0 -53 -24 -101t-47.5 -83.5t-23.5 -56.5
q0 -14 32 -75.5t32 -107.5q0 -81 -54 -124t-124 -43q-37 0 -37 20z" />
    <glyph glyph-name="agrave" unicode="&#xe0;" horiz-adv-x="474" 
d="M321 531l-150 77q-15 8 -2 27l29 43q6 9 15 10.5t12 -2.5l137 -97q11 -6 3 -19l-20 -33q-9 -14 -24 -6zM278 163l12 83q-3 18 -20 37t-45 19q-37 0 -65.5 -35t-28.5 -91q0 -33 18 -55.5t48 -22.5q28 0 51 22.5t30 42.5zM426 381l-50 -362q-1 -7 -7 -13t-13 -6h-39
q-12 0 -16 17l-6 30q-61 -57 -129 -57q-63 0 -105 53.5t-42 130.5q0 98 59.5 167t146.5 69q38 0 68 -18t44 -37l18 32q7 13 18 13h39q7 0 11 -5.5t3 -13.5z" />
    <glyph glyph-name="aacute" unicode="&#xe1;" horiz-adv-x="474" 
d="M192 528q-17 -7 -23 6l-16 39q-5 13 8 19l164 97q17 11 24 -5l24 -52q9 -19 -9 -27zM278 163l12 83q-3 18 -20 37t-45 19q-37 0 -65.5 -35t-28.5 -91q0 -33 18 -55.5t48 -22.5q28 0 51 22.5t30 42.5zM426 381l-50 -362q-1 -7 -7 -13t-13 -6h-39q-12 0 -16 17l-6 30
q-61 -57 -129 -57q-63 0 -105 53.5t-42 130.5q0 98 59.5 167t146.5 69q38 0 68 -18t44 -37l18 32q7 13 18 13h39q7 0 11 -5.5t3 -13.5z" />
    <glyph glyph-name="acircumflex" unicode="&#xe2;" horiz-adv-x="474" 
d="M141 529l-22 33q-9 13 5 23l134 101q11 8 21 0l106 -101q11 -8 3 -19l-29 -37q-9 -12 -20 -3l-78 62l-100 -62q-12 -8 -20 3zM278 163l12 83q-3 18 -20 37t-45 19q-37 0 -65.5 -35t-28.5 -91q0 -33 18 -55.5t48 -22.5q28 0 51 22.5t30 42.5zM426 381l-50 -362
q-1 -7 -7 -13t-13 -6h-39q-12 0 -16 17l-6 30q-61 -57 -129 -57q-63 0 -105 53.5t-42 130.5q0 98 59.5 167t146.5 69q38 0 68 -18t44 -37l18 32q7 13 18 13h39q7 0 11 -5.5t3 -13.5z" />
    <glyph glyph-name="atilde" unicode="&#xe3;" horiz-adv-x="474" 
d="M152 562l-27 21q-10 10 -2 23q42 84 102 84q24 0 52 -27.5t42 -27.5q17 0 32 31q12 23 30 10l23 -18q14 -10 2 -33q-7 -14 -17 -29t-32.5 -31t-46.5 -16q-20 0 -38.5 14t-33 28t-24.5 14q-3 0 -6 -0.5t-5.5 -2.5t-5 -3.5t-5 -5t-3.5 -5t-3.5 -6t-3.5 -5.5t-4 -6l-2 -5
q-3 -6 -10.5 -7.5t-13.5 3.5zM278 163l12 83q-3 18 -20 37t-45 19q-37 0 -65.5 -35t-28.5 -91q0 -33 18 -55.5t48 -22.5q28 0 51 22.5t30 42.5zM426 381l-50 -362q-1 -7 -7 -13t-13 -6h-39q-12 0 -16 17l-6 30q-61 -57 -129 -57q-63 0 -105 53.5t-42 130.5q0 98 59.5 167
t146.5 69q38 0 68 -18t44 -37l18 32q7 13 18 13h39q7 0 11 -5.5t3 -13.5z" />
    <glyph glyph-name="adieresis" unicode="&#xe4;" horiz-adv-x="474" 
d="M346 551q-24 0 -38 19t-10 45q3 26 22 44.5t43 18.5q23 0 38 -18.5t12 -44.5q-4 -26 -24 -45t-43 -19zM165 551q-23 0 -37.5 19t-10.5 45q3 26 22.5 44.5t42.5 18.5q24 0 38.5 -18.5t11.5 -44.5q-4 -26 -23.5 -45t-43.5 -19zM278 163l12 83q-3 18 -20 37t-45 19
q-37 0 -65.5 -35t-28.5 -91q0 -33 18 -55.5t48 -22.5q28 0 51 22.5t30 42.5zM426 381l-50 -362q-1 -7 -7 -13t-13 -6h-39q-12 0 -16 17l-6 30q-61 -57 -129 -57q-63 0 -105 53.5t-42 130.5q0 98 59.5 167t146.5 69q38 0 68 -18t44 -37l18 32q7 13 18 13h39q7 0 11 -5.5
t3 -13.5z" />
    <glyph glyph-name="aring" unicode="&#xe5;" horiz-adv-x="474" 
d="M247 484q-38 0 -63.5 28.5t-25.5 69.5q0 53 35 90.5t85 37.5q38 0 63 -28.5t25 -69.5q0 -53 -35 -90.5t-84 -37.5zM255 547q18 0 33 17t15 39q0 18 -9.5 30t-24.5 12q-18 0 -33 -16.5t-15 -37.5q0 -18 10 -31t24 -13zM278 163l12 83q-3 18 -20 37t-45 19q-37 0 -65.5 -35
t-28.5 -91q0 -33 18 -55.5t48 -22.5q28 0 51 22.5t30 42.5zM426 381l-50 -362q-1 -7 -7 -13t-13 -6h-39q-12 0 -16 17l-6 30q-61 -57 -129 -57q-63 0 -105 53.5t-42 130.5q0 98 59.5 167t146.5 69q38 0 68 -18t44 -37l18 32q7 13 18 13h39q7 0 11 -5.5t3 -13.5z" />
    <glyph glyph-name="ae" unicode="&#xe6;" horiz-adv-x="599" 
d="M2 105q0 65 44.5 106.5t117.5 41.5q15 0 31 -2t24 -4l8 -2q4 40 -4 56.5t-35 16.5q-35 0 -96 -16q-7 -1 -12.5 4t-5.5 12l-2 54q0 16 18 20q71 18 123 18q70 0 102 -49q20 23 57.5 36t76.5 13q58 0 93 -29.5t35 -76.5q0 -48 -43 -80t-96.5 -44t-111.5 -13q-2 -33 14 -53
t52 -20q37 0 71 24q16 11 23 0l33 -47q10 -13 -3 -26q-60 -55 -143 -55q-75 0 -121 65h-1q-44 -65 -136 -65q-50 0 -81.5 31.5t-31.5 83.5zM343 245q44 1 83.5 13t39.5 34q0 25 -34 25q-29 0 -54.5 -22.5t-34.5 -49.5zM106 121q0 -20 13.5 -32.5t31.5 -12.5q60 0 67 100
q-28 7 -50 7q-23 0 -42.5 -17.5t-19.5 -44.5z" />
    <glyph glyph-name="ccedilla" unicode="&#xe7;" horiz-adv-x="396" 
d="M136 -1q-53 17 -85 64.5t-32 112.5q0 101 62.5 167.5t150.5 66.5q44 0 80 -20t56 -51q9 -13 -8 -28l-40 -37q-13 -11 -25 1q-30 27 -60 27q-38 0 -67.5 -34t-29.5 -84q0 -37 18 -61.5t46 -24.5q36 0 71 38q12 14 25 1l39 -38q13 -13 3 -28q-59 -77 -143 -81l-6 -44
q33 -5 52.5 -28.5t19.5 -61.5q0 -48 -29.5 -82t-76.5 -34q-48 0 -69 35q-10 15 7 28l18 17q10 10 19 -1q10 -12 26 -12q14 0 24.5 12.5t10.5 31.5q0 37 -57 42q-16 2 -13 18z" />
    <glyph glyph-name="egrave" unicode="&#xe8;" horiz-adv-x="402" 
d="M17 168q0 97 66.5 169.5t168.5 72.5q58 0 93 -29.5t35 -76.5q0 -48 -43 -80t-96.5 -44t-111.5 -13q-2 -33 14 -53t52 -20q37 0 71 24q16 11 23 0l33 -47q10 -13 -3 -26q-60 -55 -143 -55q-70 0 -114.5 52t-44.5 126zM144 245q44 1 83.5 13t39.5 34q0 25 -34 25
q-29 0 -54.5 -22.5t-34.5 -49.5zM331 531l-150 77q-15 8 -2 27l29 43q6 9 15 10.5t12 -2.5l137 -97q11 -6 3 -19l-20 -33q-9 -14 -24 -6z" />
    <glyph glyph-name="eacute" unicode="&#xe9;" horiz-adv-x="402" 
d="M17 168q0 97 66.5 169.5t168.5 72.5q58 0 93 -29.5t35 -76.5q0 -48 -43 -80t-96.5 -44t-111.5 -13q-2 -33 14 -53t52 -20q37 0 71 24q16 11 23 0l33 -47q10 -13 -3 -26q-60 -55 -143 -55q-70 0 -114.5 52t-44.5 126zM144 245q44 1 83.5 13t39.5 34q0 25 -34 25
q-29 0 -54.5 -22.5t-34.5 -49.5zM202 528q-17 -7 -23 6l-16 39q-5 13 8 19l164 97q17 11 24 -5l24 -52q9 -19 -9 -27z" />
    <glyph glyph-name="ecircumflex" unicode="&#xea;" horiz-adv-x="402" 
d="M17 168q0 97 66.5 169.5t168.5 72.5q58 0 93 -29.5t35 -76.5q0 -48 -43 -80t-96.5 -44t-111.5 -13q-2 -33 14 -53t52 -20q37 0 71 24q16 11 23 0l33 -47q10 -13 -3 -26q-60 -55 -143 -55q-70 0 -114.5 52t-44.5 126zM144 245q44 1 83.5 13t39.5 34q0 25 -34 25
q-29 0 -54.5 -22.5t-34.5 -49.5zM151 529l-22 33q-9 13 5 23l134 101q11 8 21 0l106 -101q11 -8 3 -19l-29 -37q-9 -12 -20 -3l-78 62l-100 -62q-12 -8 -20 3z" />
    <glyph glyph-name="edieresis" unicode="&#xeb;" horiz-adv-x="402" 
d="M17 168q0 97 66.5 169.5t168.5 72.5q58 0 93 -29.5t35 -76.5q0 -48 -43 -80t-96.5 -44t-111.5 -13q-2 -33 14 -53t52 -20q37 0 71 24q16 11 23 0l33 -47q10 -13 -3 -26q-60 -55 -143 -55q-70 0 -114.5 52t-44.5 126zM144 245q44 1 83.5 13t39.5 34q0 25 -34 25
q-29 0 -54.5 -22.5t-34.5 -49.5zM356 551q-24 0 -38 19t-10 45q3 26 22 44.5t43 18.5q23 0 38 -18.5t12 -44.5q-4 -26 -24 -45t-43 -19zM175 551q-23 0 -37.5 19t-10.5 45q3 26 22.5 44.5t42.5 18.5q24 0 38.5 -18.5t11.5 -44.5q-4 -26 -23.5 -45t-43.5 -19z" />
    <glyph glyph-name="igrave" unicode="&#xec;" 
d="M221 531l-150 77q-15 8 -2 27l29 43q6 9 15 10.5t12 -2.5l137 -97q11 -6 3 -19l-20 -33q-9 -14 -24 -6zM22 19l51 362q1 8 7 13.5t13 5.5h88q7 0 11.5 -5.5t3.5 -13.5l-51 -362q-1 -7 -7 -13t-13 -6h-88q-7 0 -11.5 5.5t-3.5 13.5z" />
    <glyph glyph-name="iacute" unicode="&#xed;" 
d="M93 528q-17 -7 -23 6l-16 39q-5 13 8 19l164 97q17 11 24 -5l24 -52q9 -19 -9 -27zM22 19l51 362q1 8 7 13.5t13 5.5h88q7 0 11.5 -5.5t3.5 -13.5l-51 -362q-1 -7 -7 -13t-13 -6h-88q-7 0 -11.5 5.5t-3.5 13.5z" />
    <glyph glyph-name="icircumflex" unicode="&#xee;" 
d="M22 19l51 362q1 8 7 13.5t13 5.5h88q7 0 11.5 -5.5t3.5 -13.5l-51 -362q-1 -7 -7 -13t-13 -6h-88q-7 0 -11.5 5.5t-3.5 13.5zM42 529l-22 33q-9 13 5 23l134 101q11 8 21 0l106 -101q11 -8 3 -19l-29 -37q-9 -12 -20 -3l-78 62l-100 -62q-12 -8 -20 3z" />
    <glyph glyph-name="idieresis" unicode="&#xef;" 
d="M247 551q-24 0 -38 19t-10 45q3 26 22 44.5t43 18.5q23 0 38 -18.5t12 -44.5q-4 -26 -24 -45t-43 -19zM66 551q-23 0 -37.5 19t-10.5 45q3 26 22.5 44.5t42.5 18.5q24 0 38.5 -18.5t11.5 -44.5q-4 -26 -23.5 -45t-43.5 -19zM22 19l51 362q1 8 7 13.5t13 5.5h88
q7 0 11.5 -5.5t3.5 -13.5l-51 -362q-1 -7 -7 -13t-13 -6h-88q-7 0 -11.5 5.5t-3.5 13.5z" />
    <glyph glyph-name="eth" unicode="&#xf0;" horiz-adv-x="492" 
d="M21 191q0 115 63 180t151 65q43 0 89 -28q-5 75 -66 134l-79 -49q-16 -9 -22 6l-5 13q-6 15 9 25l54 36q-9 9 -52 30q-20 9 -10 29l29 56q11 23 33 14q48 -21 108 -71l69 40q13 7 22 -8l6 -11q4 -6 1 -14t-10 -12l-51 -30q96 -105 96 -269q0 -145 -67.5 -241t-191.5 -96
q-71 0 -123.5 60t-52.5 141zM214 104q46 0 78 48t37 102q-2 28 -24 56t-58 28q-43 0 -77 -40t-34 -94q0 -41 22 -70.5t56 -29.5z" />
    <glyph glyph-name="ntilde" unicode="&#xf1;" horiz-adv-x="486" 
d="M22 19l51 362q1 8 6.5 13.5t12.5 5.5h39q12 0 14 -12l9 -37q66 59 135 59q79 0 114.5 -58t23.5 -141l-27 -192q-1 -7 -6.5 -13t-12.5 -6h-87q-16 0 -14 19l29 198q5 39 -8 62t-43 23q-23 0 -44.5 -14t-31.5 -28l-10 -14l-32 -227q-3 -19 -21 -19h-83q-7 0 -11 6t-3 13z
M186 562l-27 21q-10 10 -2 23q42 84 102 84q24 0 52 -27.5t42 -27.5q17 0 32 31q12 23 30 10l23 -18q14 -10 2 -33q-7 -14 -17 -29t-32.5 -31t-46.5 -16q-20 0 -38.5 14t-33 28t-24.5 14q-3 0 -6 -0.5t-5.5 -2.5t-5 -3.5t-5 -5t-3.5 -5t-3.5 -6t-3.5 -5.5t-4 -6l-2 -5
q-3 -6 -10.5 -7.5t-13.5 3.5z" />
    <glyph glyph-name="ograve" unicode="&#xf2;" horiz-adv-x="435" 
d="M18 173q0 96 64 166.5t154 70.5q68 0 113.5 -53.5t45.5 -128.5q0 -97 -64.5 -167.5t-153.5 -70.5q-68 0 -113.5 54.5t-45.5 128.5zM192 98q36 0 64 35.5t28 83.5q0 36 -17.5 60.5t-45.5 24.5q-37 0 -65 -34.5t-28 -82.5q0 -37 17.5 -62t46.5 -25zM318 531l-150 77
q-15 8 -2 27l29 43q6 9 15 10.5t12 -2.5l137 -97q11 -6 3 -19l-20 -33q-9 -14 -24 -6z" />
    <glyph glyph-name="oacute" unicode="&#xf3;" horiz-adv-x="435" 
d="M18 173q0 96 64 166.5t154 70.5q68 0 113.5 -53.5t45.5 -128.5q0 -97 -64.5 -167.5t-153.5 -70.5q-68 0 -113.5 54.5t-45.5 128.5zM192 98q36 0 64 35.5t28 83.5q0 36 -17.5 60.5t-45.5 24.5q-37 0 -65 -34.5t-28 -82.5q0 -37 17.5 -62t46.5 -25zM190 528q-17 -7 -23 6
l-16 39q-5 13 8 19l164 97q17 11 24 -5l24 -52q9 -19 -9 -27z" />
    <glyph glyph-name="ocircumflex" unicode="&#xf4;" horiz-adv-x="435" 
d="M18 173q0 96 64 166.5t154 70.5q68 0 113.5 -53.5t45.5 -128.5q0 -97 -64.5 -167.5t-153.5 -70.5q-68 0 -113.5 54.5t-45.5 128.5zM192 98q36 0 64 35.5t28 83.5q0 36 -17.5 60.5t-45.5 24.5q-37 0 -65 -34.5t-28 -82.5q0 -37 17.5 -62t46.5 -25zM139 529l-22 33
q-9 13 5 23l134 101q11 8 21 0l106 -101q11 -8 3 -19l-29 -37q-9 -12 -20 -3l-78 62l-100 -62q-12 -8 -20 3z" />
    <glyph glyph-name="otilde" unicode="&#xf5;" horiz-adv-x="435" 
d="M18 173q0 96 64 166.5t154 70.5q68 0 113.5 -53.5t45.5 -128.5q0 -97 -64.5 -167.5t-153.5 -70.5q-68 0 -113.5 54.5t-45.5 128.5zM192 98q36 0 64 35.5t28 83.5q0 36 -17.5 60.5t-45.5 24.5q-37 0 -65 -34.5t-28 -82.5q0 -37 17.5 -62t46.5 -25zM150 562l-27 21
q-10 10 -2 23q42 84 102 84q24 0 52 -27.5t42 -27.5q17 0 32 31q12 23 30 10l23 -18q14 -10 2 -33q-7 -14 -17 -29t-32.5 -31t-46.5 -16q-20 0 -38.5 14t-33 28t-24.5 14q-3 0 -6 -0.5t-5.5 -2.5t-5 -3.5t-5 -5t-3.5 -5t-3.5 -6t-3.5 -5.5t-4 -6l-2 -5q-3 -6 -10.5 -7.5
t-13.5 3.5z" />
    <glyph glyph-name="odieresis" unicode="&#xf6;" horiz-adv-x="435" 
d="M18 173q0 96 64 166.5t154 70.5q68 0 113.5 -53.5t45.5 -128.5q0 -97 -64.5 -167.5t-153.5 -70.5q-68 0 -113.5 54.5t-45.5 128.5zM192 98q36 0 64 35.5t28 83.5q0 36 -17.5 60.5t-45.5 24.5q-37 0 -65 -34.5t-28 -82.5q0 -37 17.5 -62t46.5 -25zM345 551q-24 0 -38 19
t-10 45q3 26 22 44.5t43 18.5q23 0 38 -18.5t12 -44.5q-4 -26 -24 -45t-43 -19zM164 551q-23 0 -37.5 19t-10.5 45q3 26 22.5 44.5t42.5 18.5q24 0 38.5 -18.5t11.5 -44.5q-4 -26 -23.5 -45t-43.5 -19z" />
    <glyph glyph-name="divide" unicode="&#xf7;" horiz-adv-x="465" 
d="M257 471q-24 0 -39.5 18t-15.5 43q0 31 22.5 54t52.5 23q24 0 40 -17.5t16 -42.5q0 -31 -23 -54.5t-53 -23.5zM57 299q-7 0 -11 5.5t-3 13.5l8 56q1 8 6.5 13.5t12.5 5.5h358q7 0 11 -5.5t3 -13.5l-8 -56q-1 -8 -6.5 -13.5t-12.5 -5.5h-358zM148 151q0 32 22 54.5
t52 22.5q25 0 41 -17t16 -42q0 -32 -23 -55t-53 -23q-24 0 -39.5 17.5t-15.5 42.5z" />
    <glyph glyph-name="oslash" unicode="&#xf8;" horiz-adv-x="435" 
d="M22 14l-9 10q-11 12 3 26l26 25q-24 46 -24 98q0 96 64 166.5t154 70.5q62 0 107 -47l28 27q12 11 23 0l9 -10q10 -12 -4 -26l-29 -28q25 -44 25 -98q0 -97 -64.5 -167.5t-153.5 -70.5q-63 0 -107 47l-25 -24q-11 -11 -23 1zM130 159l130 125q-16 18 -39 18
q-37 0 -65 -34.5t-28 -82.5q0 -10 2 -26zM151 116q18 -18 41 -18q36 0 64 35.5t28 83.5q0 8 -2 24z" />
    <glyph glyph-name="ugrave" unicode="&#xf9;" horiz-adv-x="472" 
d="M167 -10q-77 0 -108.5 57t-19.5 140l28 194q1 8 6.5 13.5t12.5 5.5h87q7 0 11 -5.5t3 -13.5l-28 -197q-5 -40 6.5 -63t37.5 -23q22 0 41 14t27 28l8 15l31 226q4 19 22 19h82q7 0 11 -5.5t3 -13.5l-50 -362q-1 -7 -7 -13t-13 -6h-39q-11 0 -15 15l-7 33q-53 -58 -130 -58
zM338 531l-150 77q-15 8 -2 27l29 43q6 9 15 10.5t12 -2.5l137 -97q11 -6 3 -19l-20 -33q-9 -14 -24 -6z" />
    <glyph glyph-name="uacute" unicode="&#xfa;" horiz-adv-x="472" 
d="M167 -10q-77 0 -108.5 57t-19.5 140l28 194q1 8 6.5 13.5t12.5 5.5h87q7 0 11 -5.5t3 -13.5l-28 -197q-5 -40 6.5 -63t37.5 -23q22 0 41 14t27 28l8 15l31 226q4 19 22 19h82q7 0 11 -5.5t3 -13.5l-50 -362q-1 -7 -7 -13t-13 -6h-39q-11 0 -15 15l-7 33q-53 -58 -130 -58
zM210 528q-17 -7 -23 6l-16 39q-5 13 8 19l164 97q17 11 24 -5l24 -52q9 -19 -9 -27z" />
    <glyph glyph-name="ucircumflex" unicode="&#xfb;" horiz-adv-x="472" 
d="M167 -10q-77 0 -108.5 57t-19.5 140l28 194q1 8 6.5 13.5t12.5 5.5h87q7 0 11 -5.5t3 -13.5l-28 -197q-5 -40 6.5 -63t37.5 -23q22 0 41 14t27 28l8 15l31 226q4 19 22 19h82q7 0 11 -5.5t3 -13.5l-50 -362q-1 -7 -7 -13t-13 -6h-39q-11 0 -15 15l-7 33q-53 -58 -130 -58
zM160 529l-22 33q-9 13 5 23l134 101q11 8 21 0l106 -101q11 -8 3 -19l-29 -37q-9 -12 -20 -3l-78 62l-100 -62q-12 -8 -20 3z" />
    <glyph glyph-name="udieresis" unicode="&#xfc;" horiz-adv-x="472" 
d="M167 -10q-77 0 -108.5 57t-19.5 140l28 194q1 8 6.5 13.5t12.5 5.5h87q7 0 11 -5.5t3 -13.5l-28 -197q-5 -40 6.5 -63t37.5 -23q22 0 41 14t27 28l8 15l31 226q4 19 22 19h82q7 0 11 -5.5t3 -13.5l-50 -362q-1 -7 -7 -13t-13 -6h-39q-11 0 -15 15l-7 33q-53 -58 -130 -58
zM364 551q-24 0 -38 19t-10 45q3 26 22 44.5t43 18.5q23 0 38 -18.5t12 -44.5q-4 -26 -24 -45t-43 -19zM183 551q-23 0 -37.5 19t-10.5 45q3 26 22.5 44.5t42.5 18.5q24 0 38.5 -18.5t11.5 -44.5q-4 -26 -23.5 -45t-43.5 -19z" />
    <glyph glyph-name="yacute" unicode="&#xfd;" horiz-adv-x="425" 
d="M114 28l-91 346q-3 10 1 18t14 8h86q10 0 14 -11l52 -237h1l117 237q5 11 20 11h89q10 0 13.5 -8t-2.5 -18l-368 -662q-8 -12 -17 -12h-93q-10 0 -13 7t4 17zM182 528q-17 -7 -23 6l-16 39q-5 13 8 19l164 97q17 11 24 -5l24 -52q9 -19 -9 -27z" />
    <glyph glyph-name="thorn" unicode="&#xfe;" horiz-adv-x="470" 
d="M145 12l-42 -294q-1 -8 -6.5 -13.5t-12.5 -5.5h-90q-7 0 -11 6t-3 13l135 963q1 7 7 13t13 6h89q7 0 11.5 -5.5t3.5 -13.5l-42 -297q30 26 85 26q65 0 106 -54t41 -134q0 -100 -62 -166t-155 -66q-38 0 -67 22zM162 126q19 -28 56 -28q38 0 66 35t28 83q0 36 -18 61
t-47 25q-20 0 -37 -11t-24 -23l-6 -11z" />
    <glyph glyph-name="ydieresis" unicode="&#xff;" horiz-adv-x="425" 
d="M114 28l-91 346q-3 10 1 18t14 8h86q10 0 14 -11l52 -237h1l117 237q5 11 20 11h89q10 0 13.5 -8t-2.5 -18l-368 -662q-8 -12 -17 -12h-93q-10 0 -13 7t4 17zM337 551q-24 0 -38 19t-10 45q3 26 22 44.5t43 18.5q23 0 38 -18.5t12 -44.5q-4 -26 -24 -45t-43 -19zM156 551
q-23 0 -37.5 19t-10.5 45q3 26 22.5 44.5t42.5 18.5q24 0 38.5 -18.5t11.5 -44.5q-4 -26 -23.5 -45t-43.5 -19z" />
    <glyph glyph-name="Amacron" unicode="&#x100;" horiz-adv-x="602" 
d="M-21 0q-10 0 -13.5 8t1.5 18l376 673q6 11 17 11h9q10 0 14 -11l184 -673q3 -10 -3 -18t-16 -8h-87q-22 0 -26 20l-25 111h-249l-58 -111q-10 -20 -32 -20h-92zM220 239h158l-47 218h-2zM265 808q-17 0 -15 18l5 34q3 19 20 19h231q17 0 14 -19l-5 -34q-2 -18 -20 -18
h-230z" />
    <glyph glyph-name="amacron" unicode="&#x101;" horiz-adv-x="474" 
d="M143 570q-16 0 -14 18l4 34q2 19 20 19h231q7 0 11 -5.5t3 -13.5l-5 -34q-2 -18 -19 -18h-231zM278 163l12 83q-3 18 -20 37t-45 19q-37 0 -65.5 -35t-28.5 -91q0 -33 18 -55.5t48 -22.5q28 0 51 22.5t30 42.5zM426 381l-50 -362q-1 -7 -7 -13t-13 -6h-39q-12 0 -16 17
l-6 30q-61 -57 -129 -57q-63 0 -105 53.5t-42 130.5q0 98 59.5 167t146.5 69q38 0 68 -18t44 -37l18 32q7 13 18 13h39q7 0 11 -5.5t3 -13.5z" />
    <glyph glyph-name="Abreve" unicode="&#x102;" horiz-adv-x="602" 
d="M-21 0q-10 0 -13.5 8t1.5 18l376 673q6 11 17 11h9q10 0 14 -11l184 -673q3 -10 -3 -18t-16 -8h-87q-22 0 -26 20l-25 111h-249l-58 -111q-10 -20 -32 -20h-92zM220 239h158l-47 218h-2zM377 766q-46 0 -78 34t-32 84q0 9 5.5 15t14.5 6h37q9 0 11 -14q9 -53 50 -53
q20 0 37.5 15.5t26.5 37.5q6 14 17 14h41q8 0 12 -6t2 -15q-15 -52 -53.5 -85t-90.5 -33z" />
    <glyph glyph-name="abreve" unicode="&#x103;" horiz-adv-x="474" 
d="M258 528q-47 0 -79 34t-32 84q0 9 6 15.5t14 6.5h36q11 0 13 -14q7 -53 50 -53q20 0 37 15.5t26 37.5q5 14 18 14h41q18 0 14 -22q-15 -52 -54 -85t-90 -33zM278 163l12 83q-3 18 -20 37t-45 19q-37 0 -65.5 -35t-28.5 -91q0 -33 18 -55.5t48 -22.5q28 0 51 22.5t30 42.5
zM426 381l-50 -362q-1 -7 -7 -13t-13 -6h-39q-12 0 -16 17l-6 30q-61 -57 -129 -57q-63 0 -105 53.5t-42 130.5q0 98 59.5 167t146.5 69q38 0 68 -18t44 -37l18 32q7 13 18 13h39q7 0 11 -5.5t3 -13.5z" />
    <glyph glyph-name="Aogonek" unicode="&#x104;" horiz-adv-x="602" 
d="M-21 0q-10 0 -13.5 8t1.5 18l376 673q6 11 17 11h9q10 0 14 -11l184 -673q3 -10 -3 -18t-16 -8h-56q-55 -50 -55 -106q0 -24 13.5 -39t39.5 -15q7 0 40 9q8 2 13 -3t4 -14l-4 -30q-1 -13 -16 -19q-17 -10 -60 -10q-44 0 -74.5 24.5t-30.5 68.5q0 35 16.5 67.5t31 48
t29.5 26.5l-29 123h-249l-58 -111q-10 -20 -32 -20h-92zM220 239h158l-47 218h-2z" />
    <glyph glyph-name="aogonek" unicode="&#x105;" horiz-adv-x="474" 
d="M426 381l-50 -362q-1 -7 -7 -13t-13 -6h-5q-55 -50 -55 -106q0 -24 13.5 -39t39.5 -15q7 0 40 9q8 2 13.5 -3t3.5 -14l-4 -30q-1 -13 -16 -19q-17 -10 -60 -10q-44 0 -74.5 24.5t-30.5 68.5q0 37 18.5 72t34 49.5t28.5 23.5l-7 36q-61 -57 -129 -57q-63 0 -105 53.5
t-42 130.5q0 98 59.5 167t146.5 69q38 0 68 -18t44 -37l18 32q7 13 18 13h39q7 0 11 -5.5t3 -13.5zM278 163l12 83q-3 18 -20 37t-45 19q-37 0 -65.5 -35t-28.5 -91q0 -33 18 -55.5t48 -22.5q28 0 51 22.5t30 42.5z" />
    <glyph glyph-name="Cacute" unicode="&#x106;" horiz-adv-x="626" 
d="M51 301q0 175 108 292t265 117q127 0 208 -95q11 -15 -4 -28l-54 -52q-17 -16 -33 0q-52 50 -124 50q-90 0 -157 -80t-67 -187q0 -83 41.5 -140t111.5 -57t137 59q19 16 32 -1l52 -65q9 -13 -5 -27q-101 -97 -226 -97q-127 0 -206 89.5t-79 221.5zM371 768q-17 -7 -23 6
l-16 39q-5 13 8 19l164 97q17 11 24 -5l24 -52q9 -19 -9 -27z" />
    <glyph glyph-name="cacute" unicode="&#x107;" horiz-adv-x="396" 
d="M19 176q0 101 62.5 167.5t150.5 66.5q44 0 80 -20t56 -51q9 -13 -8 -28l-40 -37q-13 -11 -25 1q-30 27 -60 27q-38 0 -67.5 -34t-29.5 -84q0 -37 18 -61.5t46 -24.5q36 0 71 38q12 14 25 1l39 -38q13 -13 3 -28q-62 -81 -150 -81q-74 0 -122.5 53t-48.5 133zM188 528
q-17 -7 -23 6l-16 39q-5 13 8 19l164 97q17 11 24 -5l24 -52q9 -19 -9 -27z" />
    <glyph glyph-name="Ccircumflex" unicode="&#x108;" horiz-adv-x="626" 
d="M51 301q0 175 108 292t265 117q127 0 208 -95q11 -15 -4 -28l-54 -52q-17 -16 -33 0q-52 50 -124 50q-90 0 -157 -80t-67 -187q0 -83 41.5 -140t111.5 -57t137 59q19 16 32 -1l52 -65q9 -13 -5 -27q-101 -97 -226 -97q-127 0 -206 89.5t-79 221.5zM343 765q-12 -8 -20 3
l-22 33q-9 13 5 23l134 101q11 8 21 0l106 -101q11 -8 3 -19l-29 -37q-9 -12 -20 -3l-78 62z" />
    <glyph glyph-name="ccircumflex" unicode="&#x109;" horiz-adv-x="396" 
d="M19 176q0 101 62.5 167.5t150.5 66.5q44 0 80 -20t56 -51q9 -13 -8 -28l-40 -37q-13 -11 -25 1q-30 27 -60 27q-38 0 -67.5 -34t-29.5 -84q0 -37 18 -61.5t46 -24.5q36 0 71 38q12 14 25 1l39 -38q13 -13 3 -28q-62 -81 -150 -81q-74 0 -122.5 53t-48.5 133zM138 529
l-22 33q-9 13 5 23l134 101q11 8 21 0l106 -101q11 -8 3 -19l-29 -37q-9 -12 -20 -3l-78 62l-100 -62q-12 -8 -20 3z" />
    <glyph glyph-name="Cdotaccent" unicode="&#x10a;" horiz-adv-x="626" 
d="M51 301q0 175 108 292t265 117q127 0 208 -95q11 -15 -4 -28l-54 -52q-17 -16 -33 0q-52 50 -124 50q-90 0 -157 -80t-67 -187q0 -83 41.5 -140t111.5 -57t137 59q19 16 32 -1l52 -65q9 -13 -5 -27q-101 -97 -226 -97q-127 0 -206 89.5t-79 221.5zM434 781
q-26 0 -42.5 18t-16.5 45q0 33 24 57t55 24q26 0 43 -18t17 -45q0 -33 -24.5 -57t-55.5 -24z" />
    <glyph glyph-name="cdotaccent" unicode="&#x10b;" horiz-adv-x="396" 
d="M19 176q0 101 62.5 167.5t150.5 66.5q44 0 80 -20t56 -51q9 -13 -8 -28l-40 -37q-13 -11 -25 1q-30 27 -60 27q-38 0 -67.5 -34t-29.5 -84q0 -37 18 -61.5t46 -24.5q36 0 71 38q12 14 25 1l39 -38q13 -13 3 -28q-62 -81 -150 -81q-74 0 -122.5 53t-48.5 133zM251 536
q-25 0 -42 18.5t-17 44.5q0 33 24 57t56 24q25 0 42 -18.5t17 -44.5q0 -33 -24 -57t-56 -24z" />
    <glyph glyph-name="Ccaron" unicode="&#x10c;" horiz-adv-x="626" 
d="M51 301q0 175 108 292t265 117q127 0 208 -95q11 -15 -4 -28l-54 -52q-17 -16 -33 0q-52 50 -124 50q-90 0 -157 -80t-67 -187q0 -83 41.5 -140t111.5 -57t137 59q19 16 32 -1l52 -65q9 -13 -5 -27q-101 -97 -226 -97q-127 0 -206 89.5t-79 221.5zM426 764l-106 101
q-11 8 -3 19l29 37q9 12 20 3l78 -62l100 62q12 8 20 -3l22 -33q9 -13 -5 -23l-134 -101q-11 -8 -21 0z" />
    <glyph glyph-name="ccaron" unicode="&#x10d;" horiz-adv-x="396" 
d="M19 176q0 101 62.5 167.5t150.5 66.5q44 0 80 -20t56 -51q9 -13 -8 -28l-40 -37q-13 -11 -25 1q-30 27 -60 27q-38 0 -67.5 -34t-29.5 -84q0 -37 18 -61.5t46 -24.5q36 0 71 38q12 14 25 1l39 -38q13 -13 3 -28q-62 -81 -150 -81q-74 0 -122.5 53t-48.5 133zM244 525
l-106 101q-11 8 -3 19l29 37q9 12 20 3l78 -62l100 62q12 8 20 -3l22 -33q9 -13 -5 -23l-134 -101q-11 -8 -21 0z" />
    <glyph glyph-name="Dcaron" unicode="&#x10e;" horiz-adv-x="683" 
d="M53 19l93 662q1 7 6.5 13t12.5 6h216q116 0 193.5 -90t77.5 -214q0 -164 -106.5 -280t-262.5 -116h-217q-7 0 -11 5.5t-2 13.5zM197 122h93q92 0 157.5 76.5t65.5 188.5q0 83 -43.5 137.5t-114.5 54.5h-94zM351 764l-106 101q-11 8 -3 19l29 37q9 12 20 3l78 -62l100 62
q12 8 20 -3l22 -33q9 -13 -5 -23l-134 -101q-11 -8 -21 0z" />
    <glyph glyph-name="dcaron" unicode="&#x10f;" horiz-adv-x="501" 
d="M166 -10q-63 0 -105 53.5t-42 130.5q0 98 61 167t149 69q45 0 75 -19l41 290q2 19 42 19h67q7 0 11.5 -5.5t3.5 -13.5l-93 -662q-1 -7 -7 -13t-13 -6h-39q-12 0 -16 17l-6 30q-61 -57 -129 -57zM131 176q0 -33 18 -55.5t48 -22.5q28 0 51 22.5t30 42.5l11 115
q-20 24 -61 24q-39 0 -68 -37t-29 -89zM561 424l-14 16q-10 10 5 22q1 1 8 7.5l14 13t16.5 17.5t17.5 22.5t14.5 27t9.5 31.5l-2 -1q-2 0 -5 -1t-7 -1.5t-9 -1t-10 -0.5q-23 0 -38.5 17t-15.5 42q0 30 23 52.5t55 22.5q26 0 45.5 -21t19.5 -65q0 -109 -107 -201
q-11 -9 -20 1z" />
    <glyph glyph-name="Dcroat" unicode="&#x110;" horiz-adv-x="688" 
d="M58 19l42 302h-26q-7 0 -11 5.5t-3 13.5l1 13q1 7 7 13t13 6h26l44 309q1 7 6.5 13t12.5 6h216q116 0 193.5 -91t77.5 -213q0 -163 -107.5 -279.5t-261.5 -116.5h-217q-7 0 -11 5.5t-2 13.5zM202 122h93q92 0 157.5 76.5t65.5 188.5q0 83 -43.5 137.5t-114.5 54.5h-94
l-29 -207h137q16 0 14 -19l-2 -14q-2 -18 -19 -18h-137z" />
    <glyph glyph-name="dcroat" unicode="&#x111;" horiz-adv-x="470" 
d="M166 -10q-63 0 -105 53.5t-42 130.5q0 98 61 167t149 69q45 0 75 -19l20 142h-94q-17 0 -15 18l2 14q1 8 7 13.5t13 5.5h94l14 97q2 19 42 19h67q7 0 11.5 -5.5t3.5 -13.5l-14 -97h29q7 0 11 -6t3 -13l-2 -13q-4 -19 -19 -19h-29l-72 -514q-1 -7 -7 -13t-13 -6h-39
q-12 0 -16 17l-6 30q-61 -57 -129 -57zM131 176q0 -33 18 -55.5t48 -22.5q28 0 51 22.5t30 42.5l11 115q-20 24 -61 24q-39 0 -68 -37t-29 -89z" />
    <glyph glyph-name="Emacron" unicode="&#x112;" horiz-adv-x="545" 
d="M53 19l93 662q1 7 6.5 13t12.5 6h370q7 0 11.5 -5.5t3.5 -13.5l-12 -82q-1 -8 -7 -13.5t-13 -5.5h-256l-23 -164h212q7 0 11.5 -5.5t3.5 -13.5l-12 -83q-1 -8 -7 -13.5t-13 -5.5h-212l-25 -175h257q16 0 14 -19l-11 -82q-1 -8 -7 -13.5t-13 -5.5h-370q-7 0 -11.5 5.5
t-2.5 13.5zM252 808q-17 0 -15 18l5 34q3 19 20 19h231q17 0 14 -19l-5 -34q-2 -18 -20 -18h-230z" />
    <glyph glyph-name="emacron" unicode="&#x113;" horiz-adv-x="402" 
d="M17 168q0 97 66.5 169.5t168.5 72.5q58 0 93 -29.5t35 -76.5q0 -48 -43 -80t-96.5 -44t-111.5 -13q-2 -33 14 -53t52 -20q37 0 71 24q16 11 23 0l33 -47q10 -13 -3 -26q-60 -55 -143 -55q-70 0 -114.5 52t-44.5 126zM144 245q44 1 83.5 13t39.5 34q0 25 -34 25
q-29 0 -54.5 -22.5t-34.5 -49.5zM153 570q-16 0 -14 18l4 34q2 19 20 19h231q7 0 11 -5.5t3 -13.5l-5 -34q-2 -18 -19 -18h-231z" />
    <glyph glyph-name="Ebreve" unicode="&#x114;" horiz-adv-x="545" 
d="M53 19l93 662q1 7 6.5 13t12.5 6h370q7 0 11.5 -5.5t3.5 -13.5l-12 -82q-1 -8 -7 -13.5t-13 -5.5h-256l-23 -164h212q7 0 11.5 -5.5t3.5 -13.5l-12 -83q-1 -8 -7 -13.5t-13 -5.5h-212l-25 -175h257q16 0 14 -19l-11 -82q-1 -8 -7 -13.5t-13 -5.5h-370q-7 0 -11.5 5.5
t-2.5 13.5zM367 766q-46 0 -78 34t-32 84q0 9 5.5 15t14.5 6h37q9 0 11 -14q9 -53 50 -53q20 0 37.5 15.5t26.5 37.5q6 14 17 14h41q8 0 12 -6t2 -15q-15 -52 -53.5 -85t-90.5 -33z" />
    <glyph glyph-name="ebreve" unicode="&#x115;" horiz-adv-x="402" 
d="M17 168q0 97 66.5 169.5t168.5 72.5q58 0 93 -29.5t35 -76.5q0 -48 -43 -80t-96.5 -44t-111.5 -13q-2 -33 14 -53t52 -20q37 0 71 24q16 11 23 0l33 -47q10 -13 -3 -26q-60 -55 -143 -55q-70 0 -114.5 52t-44.5 126zM144 245q44 1 83.5 13t39.5 34q0 25 -34 25
q-29 0 -54.5 -22.5t-34.5 -49.5zM267 528q-47 0 -79 34t-32 84q0 9 6 15.5t14 6.5h36q11 0 13 -14q7 -53 50 -53q20 0 37 15.5t26 37.5q5 14 18 14h41q18 0 14 -22q-15 -52 -54 -85t-90 -33z" />
    <glyph glyph-name="Edotaccent" unicode="&#x116;" horiz-adv-x="545" 
d="M53 19l93 662q1 7 6.5 13t12.5 6h370q7 0 11.5 -5.5t3.5 -13.5l-12 -82q-1 -8 -7 -13.5t-13 -5.5h-256l-23 -164h212q7 0 11.5 -5.5t3.5 -13.5l-12 -83q-1 -8 -7 -13.5t-13 -5.5h-212l-25 -175h257q16 0 14 -19l-11 -82q-1 -8 -7 -13.5t-13 -5.5h-370q-7 0 -11.5 5.5
t-2.5 13.5zM363 781q-26 0 -42.5 18t-16.5 45q0 33 24 57t55 24q26 0 43 -18t17 -45q0 -33 -24.5 -57t-55.5 -24z" />
    <glyph glyph-name="edotaccent" unicode="&#x117;" horiz-adv-x="402" 
d="M17 168q0 97 66.5 169.5t168.5 72.5q58 0 93 -29.5t35 -76.5q0 -48 -43 -80t-96.5 -44t-111.5 -13q-2 -33 14 -53t52 -20q37 0 71 24q16 11 23 0l33 -47q10 -13 -3 -26q-60 -55 -143 -55q-70 0 -114.5 52t-44.5 126zM144 245q44 1 83.5 13t39.5 34q0 25 -34 25
q-29 0 -54.5 -22.5t-34.5 -49.5zM264 536q-25 0 -42 18.5t-17 44.5q0 33 24 57t56 24q25 0 42 -18.5t17 -44.5q0 -33 -24 -57t-56 -24z" />
    <glyph glyph-name="Eogonek" unicode="&#x118;" horiz-adv-x="545" 
d="M53 19l93 662q1 7 6.5 13t12.5 6h370q7 0 11.5 -5.5t3.5 -13.5l-12 -82q-1 -8 -7 -13.5t-13 -5.5h-256l-23 -164h212q7 0 11.5 -5.5t3.5 -13.5l-12 -83q-1 -8 -7 -13.5t-13 -5.5h-212l-25 -175h257q16 0 14 -19l-10 -73q-1 -12 -19 -28q-55 -50 -55 -106q0 -24 13.5 -39
t39.5 -15q7 0 40 9q8 2 13.5 -3t3.5 -14l-4 -30q-1 -13 -16 -19q-17 -10 -60 -10q-44 0 -74.5 24.5t-30.5 68.5q0 75 67 134h-309q-7 0 -11.5 5.5t-2.5 13.5z" />
    <glyph glyph-name="eogonek" unicode="&#x119;" horiz-adv-x="404" 
d="M150 -7q-60 10 -96 59t-36 116q0 97 66.5 169.5t168.5 72.5q58 0 93 -29.5t35 -76.5q0 -48 -43 -80t-96.5 -44t-111.5 -13q-2 -33 14 -53t52 -20q37 0 71 24q16 11 23 0l33 -47q10 -13 -3 -26q-47 -42 -106 -52q-48 -48 -48 -99q0 -24 13.5 -39t39.5 -15q7 0 40 9
q8 2 13.5 -3t3.5 -14l-4 -30q-1 -13 -16 -19q-17 -10 -60 -10q-44 0 -74.5 24.5t-30.5 68.5q0 68 59 127zM145 245q44 1 83.5 13t39.5 34q0 25 -34 25q-29 0 -54.5 -22.5t-34.5 -49.5z" />
    <glyph glyph-name="Ecaron" unicode="&#x11a;" horiz-adv-x="545" 
d="M53 19l93 662q1 7 6.5 13t12.5 6h370q7 0 11.5 -5.5t3.5 -13.5l-12 -82q-1 -8 -7 -13.5t-13 -5.5h-256l-23 -164h212q7 0 11.5 -5.5t3.5 -13.5l-12 -83q-1 -8 -7 -13.5t-13 -5.5h-212l-25 -175h257q16 0 14 -19l-11 -82q-1 -8 -7 -13.5t-13 -5.5h-370q-7 0 -11.5 5.5
t-2.5 13.5zM354 764l-106 101q-11 8 -3 19l29 37q9 12 20 3l78 -62l100 62q12 8 20 -3l22 -33q9 -13 -5 -23l-134 -101q-11 -8 -21 0z" />
    <glyph glyph-name="ecaron" unicode="&#x11b;" horiz-adv-x="402" 
d="M17 168q0 97 66.5 169.5t168.5 72.5q58 0 93 -29.5t35 -76.5q0 -48 -43 -80t-96.5 -44t-111.5 -13q-2 -33 14 -53t52 -20q37 0 71 24q16 11 23 0l33 -47q10 -13 -3 -26q-60 -55 -143 -55q-70 0 -114.5 52t-44.5 126zM144 245q44 1 83.5 13t39.5 34q0 25 -34 25
q-29 0 -54.5 -22.5t-34.5 -49.5zM256 525l-106 101q-11 8 -3 19l29 37q9 12 20 3l78 -62l100 62q12 8 20 -3l22 -33q9 -13 -5 -23l-134 -101q-11 -8 -21 0z" />
    <glyph glyph-name="Gcircumflex" unicode="&#x11c;" horiz-adv-x="653" 
d="M51 301q0 175 107.5 292t265.5 117q127 0 208 -95q11 -15 -4 -28l-53 -52q-19 -14 -33 0q-52 50 -125 50q-90 0 -157 -80t-67 -187q0 -81 45 -139.5t110 -58.5q64 0 102 24l12 88h-64q-17 0 -15 18l11 78q3 19 20 19h177q7 0 11 -5.5t3 -13.5l-33 -240q-2 -19 -16 -31
q-12 -10 -32.5 -22t-75.5 -28.5t-116 -16.5q-121 0 -201 90.5t-80 220.5zM342 765q-12 -8 -20 3l-22 33q-9 13 5 23l134 101q11 8 21 0l106 -101q11 -8 3 -19l-29 -37q-9 -12 -20 -3l-78 62z" />
    <glyph glyph-name="gcircumflex" unicode="&#x11d;" horiz-adv-x="469" 
d="M170 -10q-66 0 -109 52t-43 129q0 97 60.5 168t145.5 71q38 0 68 -17.5t44 -37.5l18 32q7 13 18 13h39q7 0 11 -5.5t3 -13.5l-59 -425q-31 -216 -216 -216q-43 0 -81 19t-59 42q-19 19 -4 38l34 43q13 16 33 0q41 -35 81 -35q36 0 57 27t31 85l8 53q-40 -22 -80 -22z
M132 179q0 -36 18.5 -58.5t49.5 -22.5q18 0 34.5 6t23.5 12l7 5l21 140q-5 14 -21 27.5t-41 13.5q-38 0 -65 -37t-27 -86zM149 529l-22 33q-9 13 5 23l134 101q11 8 21 0l106 -101q11 -8 3 -19l-29 -37q-9 -12 -20 -3l-78 62l-100 -62q-12 -8 -20 3z" />
    <glyph glyph-name="Gbreve" unicode="&#x11e;" horiz-adv-x="653" 
d="M51 301q0 175 107.5 292t265.5 117q127 0 208 -95q11 -15 -4 -28l-53 -52q-19 -14 -33 0q-52 50 -125 50q-90 0 -157 -80t-67 -187q0 -81 45 -139.5t110 -58.5q64 0 102 24l12 88h-64q-17 0 -15 18l11 78q3 19 20 19h177q7 0 11 -5.5t3 -13.5l-33 -240q-2 -19 -16 -31
q-12 -10 -32.5 -22t-75.5 -28.5t-116 -16.5q-121 0 -201 90.5t-80 220.5zM443 766q-46 0 -78 34t-32 84q0 9 5.5 15t14.5 6h37q9 0 11 -14q9 -53 50 -53q20 0 37.5 15.5t26.5 37.5q6 14 17 14h41q8 0 12 -6t2 -15q-15 -52 -53.5 -85t-90.5 -33z" />
    <glyph glyph-name="gbreve" unicode="&#x11f;" horiz-adv-x="469" 
d="M170 -10q-66 0 -109 52t-43 129q0 97 60.5 168t145.5 71q38 0 68 -17.5t44 -37.5l18 32q7 13 18 13h39q7 0 11 -5.5t3 -13.5l-59 -425q-31 -216 -216 -216q-43 0 -81 19t-59 42q-19 19 -4 38l34 43q13 16 33 0q41 -35 81 -35q36 0 57 27t31 85l8 53q-40 -22 -80 -22z
M132 179q0 -36 18.5 -58.5t49.5 -22.5q18 0 34.5 6t23.5 12l7 5l21 140q-5 14 -21 27.5t-41 13.5q-38 0 -65 -37t-27 -86zM265 528q-47 0 -79 34t-32 84q0 9 6 15.5t14 6.5h36q11 0 13 -14q7 -53 50 -53q20 0 37 15.5t26 37.5q5 14 18 14h41q18 0 14 -22q-15 -52 -54 -85
t-90 -33z" />
    <glyph glyph-name="Gdotaccent" unicode="&#x120;" horiz-adv-x="653" 
d="M51 301q0 175 107.5 292t265.5 117q127 0 208 -95q11 -15 -4 -28l-53 -52q-19 -14 -33 0q-52 50 -125 50q-90 0 -157 -80t-67 -187q0 -81 45 -139.5t110 -58.5q64 0 102 24l12 88h-64q-17 0 -15 18l11 78q3 19 20 19h177q7 0 11 -5.5t3 -13.5l-33 -240q-2 -19 -16 -31
q-12 -10 -32.5 -22t-75.5 -28.5t-116 -16.5q-121 0 -201 90.5t-80 220.5zM435 781q-26 0 -42.5 18t-16.5 45q0 33 24 57t55 24q26 0 43 -18t17 -45q0 -33 -24.5 -57t-55.5 -24z" />
    <glyph glyph-name="gdotaccent" unicode="&#x121;" horiz-adv-x="469" 
d="M170 -10q-66 0 -109 52t-43 129q0 97 60.5 168t145.5 71q38 0 68 -17.5t44 -37.5l18 32q7 13 18 13h39q7 0 11 -5.5t3 -13.5l-59 -425q-31 -216 -216 -216q-43 0 -81 19t-59 42q-19 19 -4 38l34 43q13 16 33 0q41 -35 81 -35q36 0 57 27t31 85l8 53q-40 -22 -80 -22z
M132 179q0 -36 18.5 -58.5t49.5 -22.5q18 0 34.5 6t23.5 12l7 5l21 140q-5 14 -21 27.5t-41 13.5q-38 0 -65 -37t-27 -86zM259 536q-25 0 -42 18.5t-17 44.5q0 33 24 57t56 24q25 0 42 -18.5t17 -44.5q0 -33 -24 -57t-56 -24z" />
    <glyph glyph-name="Gcommaaccent" unicode="&#x122;" horiz-adv-x="653" 
d="M51 301q0 175 107.5 292t265.5 117q127 0 208 -95q11 -15 -4 -28l-53 -52q-19 -14 -33 0q-52 50 -125 50q-90 0 -157 -80t-67 -187q0 -81 45 -139.5t110 -58.5q64 0 102 24l12 88h-64q-17 0 -15 18l11 78q3 19 20 19h177q7 0 11 -5.5t3 -13.5l-33 -240q-2 -19 -16 -31
q-12 -10 -32.5 -22t-75.5 -28.5t-116 -16.5q-121 0 -201 90.5t-80 220.5zM230 -166q0 30 23 52.5t55 22.5q26 0 45.5 -21t19.5 -65q0 -109 -107 -201q-11 -9 -20 1l-14 16q-10 10 5 22q1 1 8 7.5l14 13t16.5 17.5t17.5 22.5t14.5 27t9.5 31.5h-2q-2 -1 -5 -1.5t-7 -1.5
t-9 -1.5t-10 -0.5q-23 0 -38.5 17t-15.5 42z" />
    <glyph glyph-name="gcommaaccent" unicode="&#x123;" horiz-adv-x="469" 
d="M261 529q-26 0 -45.5 21t-19.5 65q0 109 107 201q11 9 20 -1l14 -16q10 -10 -5 -22q-1 -1 -8 -7.5l-14 -13t-16.5 -17.5t-17.5 -22.5t-14.5 -27t-9.5 -31.5h2q2 1 5 1.5t7 1.5t9 1.5t10 0.5q23 0 38.5 -17t15.5 -42q0 -30 -23 -52.5t-55 -22.5zM170 -10q-66 0 -109 52
t-43 129q0 97 60.5 168t145.5 71q38 0 68 -17.5t44 -37.5l18 32q7 13 18 13h39q7 0 11 -5.5t3 -13.5l-59 -425q-31 -216 -216 -216q-43 0 -81 19t-59 42q-19 19 -4 38l34 43q13 16 33 0q41 -35 81 -35q36 0 57 27t31 85l8 53q-40 -22 -80 -22zM132 179q0 -36 18.5 -58.5
t49.5 -22.5q18 0 34.5 6t23.5 12l7 5l21 140q-5 14 -21 27.5t-41 13.5q-38 0 -65 -37t-27 -86z" />
    <glyph glyph-name="Hcircumflex" unicode="&#x124;" horiz-adv-x="714" 
d="M53 19l93 662q1 7 7 13t13 6h96q7 0 11.5 -5.5t3.5 -13.5l-37 -265h273l37 265q1 8 7 13.5t13 5.5h96q7 0 11.5 -5.5t3.5 -13.5l-93 -662q-4 -19 -20 -19h-97q-16 0 -14 19l39 276h-273l-39 -276q-4 -19 -20 -19h-97q-7 0 -11 6t-3 13zM332 765q-12 -8 -20 3l-22 33
q-9 13 5 23l134 101q11 8 21 0l106 -101q11 -8 3 -19l-29 -37q-9 -12 -20 -3l-78 62z" />
    <glyph glyph-name="hcircumflex" unicode="&#x125;" horiz-adv-x="488" 
d="M22 19l93 662q1 7 7 13t13 6h89q7 0 11.5 -5.5t3.5 -13.5l-43 -304q43 33 93 33q81 0 116 -58.5t24 -140.5l-27 -192q-1 -7 -7 -13t-13 -6h-86q-16 0 -14 19l27 194q6 42 -8.5 65.5t-47.5 23.5q-22 0 -40.5 -13.5t-26.5 -26.5l-8 -14l-32 -229q-3 -19 -22 -19h-88
q-7 0 -11 5.5t-3 13.5zM72 746l-22 33q-9 13 5 23l134 101q11 8 21 0l106 -101q11 -8 3 -19l-29 -37q-9 -12 -20 -3l-78 62l-100 -62q-12 -8 -20 3z" />
    <glyph glyph-name="Hbar" unicode="&#x126;" horiz-adv-x="714" 
d="M54 19l72 514h-24q-7 0 -11 5.5t-3 13.5l2 15q2 17 19 17h24l14 97q1 7 7 13t13 6h96q7 0 11.5 -5.5t3.5 -13.5l-14 -97h273l14 97q1 8 7 13.5t13 5.5h96q7 0 11.5 -5.5t3.5 -13.5l-14 -97h24q7 0 11.5 -5.5t3.5 -13.5l-2 -14q-2 -18 -20 -18h-24l-72 -514
q-4 -19 -20 -19h-97q-16 0 -14 19l39 276h-273l-39 -276q-4 -19 -20 -19h-97q-7 0 -11 6t-3 13zM241 416h273l16 117h-273z" />
    <glyph glyph-name="hbar" unicode="&#x127;" horiz-adv-x="488" 
d="M22 19l72 514h-28q-7 0 -11 5.5t-2 13.5l2 15q3 17 18 17h28l14 97q1 7 7 13t13 6h89q7 0 11.5 -5.5t3.5 -13.5l-14 -97h95q16 0 14 -19l-2 -14q-2 -18 -19 -18h-95l-22 -156q43 33 93 33q81 0 116 -58.5t24 -140.5l-27 -192q-1 -7 -7 -13t-13 -6h-86q-16 0 -14 19
l27 194q6 42 -8.5 65.5t-47.5 23.5q-22 0 -40.5 -13.5t-26.5 -26.5l-8 -14l-32 -229q-3 -19 -22 -19h-88q-7 0 -11 5.5t-3 13.5z" />
    <glyph glyph-name="Itilde" unicode="&#x128;" horiz-adv-x="310" 
d="M53 19l93 662q1 7 6.5 13t12.5 6h98q7 0 11 -6t3 -13l-93 -662q-1 -8 -6.5 -13.5t-12.5 -5.5h-98q-7 0 -11 6t-3 13zM120 789l-27 21q-10 10 -2 23q42 84 102 84q24 0 52 -27.5t42 -27.5q17 0 32 31q12 23 30 10l23 -18q14 -10 2 -33q-7 -14 -17 -29t-32.5 -31t-46.5 -16
q-20 0 -38.5 14t-33 28t-24.5 14q-3 0 -6 -0.5t-5.5 -2.5t-5 -3.5t-5 -5t-3.5 -5t-3.5 -6t-3.5 -5.5t-4 -6l-2 -5q-3 -6 -10.5 -7.5t-13.5 3.5z" />
    <glyph glyph-name="itilde" unicode="&#x129;" 
d="M53 562l-27 21q-10 10 -2 23q42 84 102 84q24 0 52 -27.5t42 -27.5q16 0 32 31q12 23 30 10l23 -18q14 -10 2 -33q-7 -14 -17 -29t-32.5 -31t-46.5 -16q-20 0 -38.5 14t-33 28t-24.5 14q-3 0 -6 -0.5t-5.5 -2.5t-5 -3.5t-5 -5t-3.5 -5t-3.5 -6t-3.5 -5.5t-3 -6l-3 -5
q-3 -6 -10.5 -7.5t-13.5 3.5zM22 19l51 362q1 8 7 13.5t13 5.5h88q7 0 11.5 -5.5t3.5 -13.5l-51 -362q-1 -7 -7 -13t-13 -6h-88q-7 0 -11.5 5.5t-3.5 13.5z" />
    <glyph glyph-name="Imacron" unicode="&#x12a;" horiz-adv-x="310" 
d="M53 19l93 662q1 7 6.5 13t12.5 6h98q7 0 11 -6t3 -13l-93 -662q-1 -8 -6.5 -13.5t-12.5 -5.5h-98q-7 0 -11 6t-3 13zM114 808q-17 0 -15 18l5 34q3 19 20 19h231q17 0 14 -19l-5 -34q-2 -18 -20 -18h-230z" />
    <glyph glyph-name="imacron" unicode="&#x12b;" 
d="M43 570q-16 0 -14 18l4 34q2 19 20 19h231q7 0 11 -5.5t3 -13.5l-5 -34q-2 -18 -19 -18h-231zM22 19l51 362q1 8 7 13.5t13 5.5h88q7 0 11.5 -5.5t3.5 -13.5l-51 -362q-1 -7 -7 -13t-13 -6h-88q-7 0 -11.5 5.5t-3.5 13.5z" />
    <glyph glyph-name="Ibreve" unicode="&#x12c;" horiz-adv-x="310" 
d="M53 19l93 662q1 7 6.5 13t12.5 6h98q7 0 11 -6t3 -13l-93 -662q-1 -8 -6.5 -13.5t-12.5 -5.5h-98q-7 0 -11 6t-3 13zM229 766q-46 0 -78 34t-32 84q0 9 5.5 15t14.5 6h37q9 0 11 -14q9 -53 50 -53q20 0 37.5 15.5t26.5 37.5q6 14 17 14h41q8 0 12 -6t2 -15
q-15 -52 -53.5 -85t-90.5 -33z" />
    <glyph glyph-name="ibreve" unicode="&#x12d;" 
d="M162 528q-47 0 -79 34t-32 84q0 9 6 15.5t14 6.5h36q11 0 13 -14q7 -53 50 -53q20 0 37 15.5t26 37.5q5 14 18 14h41q18 0 14 -22q-15 -52 -54 -85t-90 -33zM22 19l51 362q1 8 7 13.5t13 5.5h88q7 0 11.5 -5.5t3.5 -13.5l-51 -362q-1 -7 -7 -13t-13 -6h-88
q-7 0 -11.5 5.5t-3.5 13.5z" />
    <glyph glyph-name="Iogonek" unicode="&#x12e;" horiz-adv-x="310" 
d="M53 19l93 662q1 7 6.5 13t12.5 6h98q7 0 11 -6t3 -13l-93 -662q-1 -8 -6.5 -13.5t-12.5 -5.5h-22q-55 -50 -55 -106q0 -24 13.5 -39t39.5 -15q7 0 40 9q8 2 13.5 -3t3.5 -14l-4 -30q-1 -13 -16 -19q-17 -10 -60 -10q-44 0 -74.5 24.5t-30.5 68.5q0 75 67 134h-13
q-7 0 -11 6t-3 13z" />
    <glyph glyph-name="iogonek" unicode="&#x12f;" 
d="M156 542q-25 0 -41.5 17.5t-16.5 42.5q0 32 23.5 55t53.5 23q26 0 43 -17.5t17 -43.5q0 -31 -24 -54t-55 -23zM22 19l51 362q1 8 7 13.5t13 5.5h88q7 0 11.5 -5.5t3.5 -13.5l-51 -362q-1 -7 -7 -13t-13 -6h-15q-55 -50 -55 -106q0 -24 13.5 -39t39.5 -15q7 0 40 9
q8 2 13 -3t4 -14l-4 -30q-1 -13 -16 -19q-17 -10 -60 -10t-74 24.5t-31 68.5q0 75 67 134h-10q-7 0 -11.5 5.5t-3.5 13.5z" />
    <glyph glyph-name="Idotaccent" unicode="&#x130;" horiz-adv-x="310" 
d="M53 19l93 662q1 7 6.5 13t12.5 6h98q7 0 11 -6t3 -13l-93 -662q-1 -8 -6.5 -13.5t-12.5 -5.5h-98q-7 0 -11 6t-3 13zM224 781q-26 0 -42.5 18t-16.5 45q0 33 24 57t55 24q26 0 43 -18t17 -45q0 -33 -24.5 -57t-55.5 -24z" />
    <glyph glyph-name="dotlessi" unicode="&#x131;" 
d="M22 19l51 362q1 8 7 13.5t13 5.5h88q7 0 11.5 -5.5t3.5 -13.5l-51 -362q-1 -7 -7 -13t-13 -6h-88q-7 0 -11.5 5.5t-3.5 13.5z" />
    <glyph glyph-name="IJ" unicode="&#x132;" horiz-adv-x="712" 
d="M53 19l93 662q1 7 6.5 13t12.5 6h98q7 0 11 -6t3 -13l-93 -662q-1 -8 -6.5 -13.5t-12.5 -5.5h-98q-7 0 -11 6t-3 13zM275 63q-7 12 6 25l46 45q12 12 25 -1q26 -24 59 -24q28 0 51 26t29 75l67 472q1 7 6.5 13t12.5 6h99q7 0 11.5 -5.5t3.5 -13.5l-67 -472
q-15 -108 -65.5 -163.5t-144.5 -55.5q-52 0 -88 24t-51 49z" />
    <glyph glyph-name="ij" unicode="&#x133;" horiz-adv-x="477" 
d="M156 542q-25 0 -41.5 17.5t-16.5 42.5q0 32 23.5 55t53.5 23q26 0 43 -17.5t17 -43.5q0 -31 -24 -54t-55 -23zM22 19l51 362q1 8 7 13.5t13 5.5h88q7 0 11.5 -5.5t3.5 -13.5l-51 -362q-1 -7 -7 -13t-13 -6h-88q-7 0 -11.5 5.5t-3.5 13.5zM394 542q-25 0 -41.5 17.5
t-16.5 42.5q0 32 23.5 55t54.5 23q25 0 42 -17.5t17 -43.5q0 -31 -24 -54t-55 -23zM242 -108l68 489q1 8 7 13.5t13 5.5h90q7 0 11 -5.5t3 -13.5l-71 -498q-13 -92 -63 -142.5t-128 -50.5q-33 0 -65.5 13.5t-45.5 25.5q-10 10 0 26l31 55q10 16 25 8q29 -16 53 -16
q60 0 72 90z" />
    <glyph glyph-name="Jcircumflex" unicode="&#x134;" horiz-adv-x="403" 
d="M-35 63q-7 12 6 25l46 45q12 12 25 -1q26 -24 59 -24q28 0 51 26t29 75l67 472q1 7 6.5 13t12.5 6h99q7 0 11.5 -5.5t3.5 -13.5l-67 -472q-15 -108 -65.5 -163.5t-144.5 -55.5q-52 0 -88 24t-51 49zM233 765q-12 -8 -20 3l-22 33q-9 13 5 23l134 101q11 8 21 0l106 -101
q11 -8 3 -19l-29 -37q-9 -12 -20 -3l-78 62z" />
    <glyph glyph-name="jcircumflex" unicode="&#x135;" 
d="M3 -108l68 489q1 8 7 13.5t13 5.5h90q7 0 11 -5.5t3 -13.5l-71 -498q-13 -92 -63 -142.5t-128 -50.5q-33 0 -65.5 13.5t-45.5 25.5q-10 10 0 26l31 55q10 16 25 8q29 -16 53 -16q60 0 72 90zM43 529l-22 33q-9 13 5 23l134 101q11 8 21 0l106 -101q11 -8 3 -19l-29 -37
q-9 -12 -20 -3l-78 62l-100 -62q-12 -8 -20 3z" />
    <glyph glyph-name="Kcommaaccent" unicode="&#x136;" horiz-adv-x="613" 
d="M53 24l92 652q4 24 25 24h94q9 0 14.5 -7t3.5 -17l-38 -270l235 276q15 18 41 18h99q13 0 16.5 -11t-6.5 -22l-273 -306l202 -330q5 -10 -1.5 -20.5t-18.5 -10.5h-91q-25 0 -36 20l-178 309l-43 -305q-1 -10 -8.5 -17t-15.5 -7h-94q-9 0 -14.5 7t-4.5 17zM197 -166
q0 30 23 52.5t55 22.5q26 0 45.5 -21t19.5 -65q0 -109 -107 -201q-11 -9 -20 1l-14 16q-10 10 5 22q1 1 8 7.5l14 13t16.5 17.5t17.5 22.5t14.5 27t9.5 31.5h-2q-2 -1 -5 -1.5t-7 -1.5t-9 -1.5t-10 -0.5q-23 0 -38.5 17t-15.5 42z" />
    <glyph glyph-name="kcommaaccent" unicode="&#x137;" horiz-adv-x="463" 
d="M22 19l93 662q1 7 7 13t13 6h89q7 0 11.5 -5.5t3.5 -13.5l-61 -433l122 140q10 12 24 12h108q11 0 13 -9.5t-6 -17.5l-153 -161l131 -187q6 -8 1.5 -16.5t-16.5 -8.5h-104q-7 0 -13 8l-116 180l-23 -169q-4 -19 -20 -19h-90q-7 0 -11 6t-3 13zM129 -166q0 30 23 52.5
t55 22.5q26 0 45.5 -21t19.5 -65q0 -109 -107 -201q-11 -9 -20 1l-14 16q-10 10 5 22q1 1 8 7.5l14 13t16.5 17.5t17.5 22.5t14.5 27t9.5 31.5h-2q-2 -1 -5 -1.5t-7 -1.5t-9 -1.5t-10 -0.5q-23 0 -38.5 17t-15.5 42z" />
    <glyph glyph-name="kgreenlandic" unicode="&#x138;" horiz-adv-x="455" 
d="M22 19l51 362q1 7 7.5 13t13.5 6h89q7 0 11 -5.5t3 -13.5l-22 -159l135 166q10 12 25 12h102q12 0 14 -10.5t-6 -18.5l-168 -183l120 -160q6 -8 0.5 -18t-16.5 -10h-99q-10 0 -14 8l-102 154l-20 -143q-1 -7 -7 -13t-13 -6h-89q-7 0 -11.5 5.5t-3.5 13.5z" />
    <glyph glyph-name="Lacute" unicode="&#x139;" horiz-adv-x="465" 
d="M53 19l93 662q1 8 7 13.5t13 5.5h97q7 0 11 -5.5t3 -13.5l-79 -561h221q16 0 14 -19l-11 -82q-1 -8 -7 -13.5t-13 -5.5h-334q-7 0 -11.5 5.5t-3.5 13.5zM160 768q-17 -7 -23 6l-16 39q-5 13 8 19l164 97q17 11 24 -5l24 -52q9 -19 -9 -27z" />
    <glyph glyph-name="lacute" unicode="&#x13a;" horiz-adv-x="240" 
d="M22 19l93 662q1 7 7 13t13 6h88q7 0 11.5 -5.5t3.5 -13.5l-93 -662q-1 -7 -7 -13t-13 -6h-89q-7 0 -11 5.5t-3 13.5zM124 745q-17 -7 -23 6l-16 39q-5 13 8 19l164 97q17 11 24 -5l24 -52q9 -19 -9 -27z" />
    <glyph glyph-name="Lcommaaccent" unicode="&#x13b;" horiz-adv-x="465" 
d="M53 19l93 662q1 8 7 13.5t13 5.5h97q7 0 11 -5.5t3 -13.5l-79 -561h221q16 0 14 -19l-11 -82q-1 -8 -7 -13.5t-13 -5.5h-334q-7 0 -11.5 5.5t-3.5 13.5zM151 -166q0 30 23 52.5t55 22.5q26 0 45.5 -21t19.5 -65q0 -109 -107 -201q-11 -9 -20 1l-14 16q-10 10 5 22
q1 1 8 7.5l14 13t16.5 17.5t17.5 22.5t14.5 27t9.5 31.5h-2q-2 -1 -5 -1.5t-7 -1.5t-9 -1.5t-10 -0.5q-23 0 -38.5 17t-15.5 42z" />
    <glyph glyph-name="lcommaaccent" unicode="&#x13c;" horiz-adv-x="240" 
d="M21 19l93 662q1 7 7 13t13 6h88q7 0 11.5 -5.5t3.5 -13.5l-93 -662q-1 -7 -7 -13t-13 -6h-89q-7 0 -11 5.5t-3 13.5zM-12 -166q0 30 23 52.5t55 22.5q26 0 45.5 -21t19.5 -65q0 -109 -107 -201q-11 -9 -20 1l-14 16q-10 10 5 22q1 1 8 7.5l14 13t16.5 17.5t17.5 22.5
t14.5 27t9.5 31.5h-2q-2 -1 -5 -1.5t-7 -1.5t-9 -1.5t-10 -0.5q-23 0 -38.5 17t-15.5 42z" />
    <glyph glyph-name="Lcaron" unicode="&#x13d;" horiz-adv-x="465" 
d="M53 19l93 662q1 8 7 13.5t13 5.5h97q7 0 11 -5.5t3 -13.5l-79 -561h221q16 0 14 -19l-11 -82q-1 -8 -7 -13.5t-13 -5.5h-334q-7 0 -11.5 5.5t-3.5 13.5zM337 634q0 30 23 52.5t55 22.5q26 0 45.5 -21t19.5 -65q0 -109 -107 -201q-11 -9 -20 1l-14 16q-10 10 5 22
q1 1 8 7.5l14 13t16.5 17.5t17.5 22.5t14.5 27t9.5 31.5h-2q-2 -1 -5 -1.5t-7 -1.5t-9 -1.5t-10 -0.5q-23 0 -38.5 17t-15.5 42z" />
    <glyph glyph-name="lcaron" unicode="&#x13e;" horiz-adv-x="270" 
d="M22 19l93 662q1 7 7 13t13 6h88q7 0 11.5 -5.5t3.5 -13.5l-93 -662q-1 -7 -7 -13t-13 -6h-89q-7 0 -11 5.5t-3 13.5zM331 424l-14 16q-10 10 5 22q1 1 8 7.5l14 13t16.5 17.5t17.5 22.5t14.5 27t9.5 31.5l-2 -1q-2 0 -5 -1t-7 -1.5t-9 -1t-10 -0.5q-23 0 -38.5 17
t-15.5 42q0 30 23 52.5t55 22.5q26 0 45.5 -21t19.5 -65q0 -109 -107 -201q-11 -9 -20 1z" />
    <glyph glyph-name="Ldot" unicode="&#x13f;" horiz-adv-x="528" 
d="M53 19l93 662q1 8 7 13.5t13 5.5h97q7 0 11 -5.5t3 -13.5l-79 -561h221q16 0 14 -19l-11 -82q-1 -8 -7 -13.5t-13 -5.5h-334q-7 0 -11.5 5.5t-3.5 13.5zM435 284q-26 0 -42.5 18t-16.5 45q0 33 24 57t55 24q26 0 43 -18t17 -45q0 -33 -24.5 -57t-55.5 -24z" />
    <glyph glyph-name="ldot" unicode="&#x140;" horiz-adv-x="369" 
d="M22 19l93 662q1 7 7 13t13 6h88q7 0 11.5 -5.5t3.5 -13.5l-93 -662q-1 -7 -7 -13t-13 -6h-89q-7 0 -11 5.5t-3 13.5zM306 288q-25 0 -42 18.5t-17 44.5q0 33 24 57t56 24q25 0 42 -18.5t17 -44.5q0 -33 -24 -57t-56 -24z" />
    <glyph glyph-name="Lslash" unicode="&#x141;" horiz-adv-x="474" 
d="M62 19l41 287l-23 -12q-15 -8 -22 7l-5 12q-6 17 9 25l49 27l44 316q4 19 20 19h97q7 0 11 -5.5t3 -13.5l-34 -240l80 51q14 9 22 -7l6 -13q7 -14 -10 -25l-106 -66l-37 -261h221q7 0 11.5 -5.5t2.5 -13.5l-11 -82q-1 -8 -7 -13.5t-13 -5.5h-334q-7 0 -11.5 5.5
t-3.5 13.5z" />
    <glyph glyph-name="lslash" unicode="&#x142;" horiz-adv-x="252" 
d="M34 19l41 292l-29 -19q-15 -10 -23 7l-5 12q-6 16 9 25l56 34l44 311q1 7 7 13t13 6h88q7 0 11.5 -5.5t3.5 -13.5l-34 -239l55 37q7 4 14 2t9 -9l5 -13q6 -15 -9 -25l-82 -52l-51 -363q-4 -19 -20 -19h-89q-7 0 -11 6t-3 13z" />
    <glyph glyph-name="Nacute" unicode="&#x143;" horiz-adv-x="715" 
d="M53 17l94 675q1 7 6.5 12.5t12.5 5.5h26l305 -432h1l54 403q1 8 6.5 13.5t12.5 5.5h97q7 0 11.5 -5.5t3.5 -13.5l-95 -673q-1 -7 -6.5 -12.5t-12.5 -5.5h-27l-304 445h-1l-54 -416q-1 -8 -7 -13.5t-13 -5.5h-96q-6 0 -10.5 5t-3.5 12zM360 768q-17 -7 -23 6l-16 39
q-5 13 8 19l164 97q17 11 24 -5l24 -52q9 -19 -9 -27z" />
    <glyph glyph-name="nacute" unicode="&#x144;" horiz-adv-x="486" 
d="M22 19l51 362q1 8 6.5 13.5t12.5 5.5h39q12 0 14 -12l9 -37q66 59 135 59q79 0 114.5 -58t23.5 -141l-27 -192q-1 -7 -6.5 -13t-12.5 -6h-87q-16 0 -14 19l29 198q5 39 -8 62t-43 23q-23 0 -44.5 -14t-31.5 -28l-10 -14l-32 -227q-3 -19 -21 -19h-83q-7 0 -11 6t-3 13z
M226 528q-17 -7 -23 6l-16 39q-5 13 8 19l164 97q17 11 24 -5l24 -52q9 -19 -9 -27z" />
    <glyph glyph-name="Ncommaaccent" unicode="&#x145;" horiz-adv-x="715" 
d="M53 17l94 675q1 7 6.5 12.5t12.5 5.5h26l305 -432h1l54 403q1 8 6.5 13.5t12.5 5.5h97q7 0 11.5 -5.5t3.5 -13.5l-95 -673q-1 -7 -6.5 -12.5t-12.5 -5.5h-27l-304 445h-1l-54 -416q-1 -8 -7 -13.5t-13 -5.5h-96q-6 0 -10.5 5t-3.5 12zM243 -166q0 30 23 52.5t55 22.5
q26 0 45.5 -21t19.5 -65q0 -109 -107 -201q-11 -9 -20 1l-14 16q-10 10 5 22q1 1 8 7.5l14 13t16.5 17.5t17.5 22.5t14.5 27t9.5 31.5h-2q-2 -1 -5 -1.5t-7 -1.5t-9 -1.5t-10 -0.5q-23 0 -38.5 17t-15.5 42z" />
    <glyph glyph-name="ncommaaccent" unicode="&#x146;" horiz-adv-x="487" 
d="M22 19l51 362q1 8 6.5 13.5t12.5 5.5h39q12 0 14 -12l9 -37q66 59 135 59q79 0 114.5 -58t23.5 -141l-27 -192q-1 -7 -6.5 -13t-12.5 -6h-87q-16 0 -14 19l29 198q5 39 -8 62t-43 23q-23 0 -44.5 -14t-31.5 -28l-10 -14l-32 -227q-3 -19 -21 -19h-83q-7 0 -11 6t-3 13z
M121 -166q0 30 23 52.5t55 22.5q26 0 45.5 -21t19.5 -65q0 -109 -107 -201q-11 -9 -20 1l-14 16q-10 10 5 22q1 1 8 7.5l14 13t16.5 17.5t17.5 22.5t14.5 27t9.5 31.5h-2q-2 -1 -5 -1.5t-7 -1.5t-9 -1.5t-10 -0.5q-23 0 -38.5 17t-15.5 42z" />
    <glyph glyph-name="Ncaron" unicode="&#x147;" horiz-adv-x="715" 
d="M53 17l94 675q1 7 6.5 12.5t12.5 5.5h26l305 -432h1l54 403q1 8 6.5 13.5t12.5 5.5h97q7 0 11.5 -5.5t3.5 -13.5l-95 -673q-1 -7 -6.5 -12.5t-12.5 -5.5h-27l-304 445h-1l-54 -416q-1 -8 -7 -13.5t-13 -5.5h-96q-6 0 -10.5 5t-3.5 12zM410 764l-106 101q-11 8 -3 19
l29 37q9 12 20 3l78 -62l100 62q12 8 20 -3l22 -33q9 -13 -5 -23l-134 -101q-11 -8 -21 0z" />
    <glyph glyph-name="ncaron" unicode="&#x148;" horiz-adv-x="486" 
d="M22 19l51 362q1 8 6.5 13.5t12.5 5.5h39q12 0 14 -12l9 -37q66 59 135 59q79 0 114.5 -58t23.5 -141l-27 -192q-1 -7 -6.5 -13t-12.5 -6h-87q-16 0 -14 19l29 198q5 39 -8 62t-43 23q-23 0 -44.5 -14t-31.5 -28l-10 -14l-32 -227q-3 -19 -21 -19h-83q-7 0 -11 6t-3 13z
M276 525l-106 101q-11 8 -3 19l29 37q9 12 20 3l78 -62l100 62q12 8 20 -3l22 -33q9 -13 -5 -23l-134 -101q-11 -8 -21 0z" />
    <glyph glyph-name="napostrophe" unicode="&#x149;" horiz-adv-x="486" 
d="M21 19l51 362q1 8 6.5 13.5t12.5 5.5h39q12 0 14 -12l9 -37q66 59 135 59q79 0 114.5 -58t23.5 -141l-27 -192q-1 -7 -6.5 -13t-12.5 -6h-87q-16 0 -14 19l29 198q5 39 -8 62t-43 23q-23 0 -44.5 -14t-31.5 -28l-10 -14l-32 -227q-3 -19 -21 -19h-83q-7 0 -11 6t-3 13z
M-128 635q0 30 23 52.5t55 22.5q26 0 45.5 -21t19.5 -65q0 -109 -107 -201q-11 -9 -20 1l-14 16q-10 10 5 22q1 1 8 7.5l14 13t16.5 17.5t17.5 22.5t14.5 27t9.5 31.5l-2 -1q-2 0 -5 -1t-7 -1.5t-9 -1t-10 -0.5q-23 0 -38.5 17t-15.5 42z" />
    <glyph glyph-name="Eng" unicode="&#x14a;" horiz-adv-x="716" 
d="M53 17l94 675q1 7 6.5 12.5t12.5 5.5h26l305 -432h1l54 403q1 8 6.5 13.5t12.5 5.5h97q7 0 11.5 -5.5t3.5 -13.5l-111 -789q-13 -98 -66.5 -150t-137.5 -52q-32 0 -62 12.5t-41 26.5q-10 10 0 23l38 62q8 15 22 5q23 -18 52 -18q55 0 68 91l27 194l-234 349h-1l-54 -416
q-1 -8 -7 -13.5t-13 -5.5h-96q-6 0 -10.5 5t-3.5 12z" />
    <glyph glyph-name="eng" unicode="&#x14b;" horiz-adv-x="486" 
d="M22 19l51 362q1 8 6.5 13.5t12.5 5.5h39q12 0 14 -12l9 -37q66 59 135 59q79 0 114.5 -58t23.5 -141l-45 -319q-13 -97 -68.5 -149.5t-135.5 -52.5q-32 0 -62 12.5t-41 26.5q-10 10 0 23l38 62q8 15 22 5q23 -18 52 -18q30 0 50 24t26 67l46 325q5 39 -8 62t-43 23
q-23 0 -44.5 -14t-31.5 -28l-10 -14l-32 -227q-3 -19 -21 -19h-83q-7 0 -11 6t-3 13z" />
    <glyph glyph-name="Omacron" unicode="&#x14c;" horiz-adv-x="735" 
d="M50 300q0 171 107.5 290.5t266.5 119.5q120 0 200.5 -92t80.5 -221q0 -170 -108 -288.5t-266 -118.5q-120 0 -200.5 91.5t-80.5 218.5zM345 120q88 0 156.5 77.5t68.5 183.5q0 83 -45.5 141t-115.5 58q-87 0 -155.5 -79t-68.5 -184q0 -82 45.5 -139.5t114.5 -57.5z
M318 808q-17 0 -15 18l5 34q3 19 20 19h231q17 0 14 -19l-5 -34q-2 -18 -20 -18h-230z" />
    <glyph glyph-name="omacron" unicode="&#x14d;" horiz-adv-x="435" 
d="M18 173q0 96 64 166.5t154 70.5q68 0 113.5 -53.5t45.5 -128.5q0 -97 -64.5 -167.5t-153.5 -70.5q-68 0 -113.5 54.5t-45.5 128.5zM192 98q36 0 64 35.5t28 83.5q0 36 -17.5 60.5t-45.5 24.5q-37 0 -65 -34.5t-28 -82.5q0 -37 17.5 -62t46.5 -25zM141 570q-16 0 -14 18
l4 34q2 19 20 19h231q7 0 11 -5.5t3 -13.5l-5 -34q-2 -18 -19 -18h-231z" />
    <glyph glyph-name="Obreve" unicode="&#x14e;" horiz-adv-x="735" 
d="M50 300q0 171 107.5 290.5t266.5 119.5q120 0 200.5 -92t80.5 -221q0 -170 -108 -288.5t-266 -118.5q-120 0 -200.5 91.5t-80.5 218.5zM345 120q88 0 156.5 77.5t68.5 183.5q0 83 -45.5 141t-115.5 58q-87 0 -155.5 -79t-68.5 -184q0 -82 45.5 -139.5t114.5 -57.5z
M428 766q-46 0 -78 34t-32 84q0 9 5.5 15t14.5 6h37q9 0 11 -14q9 -53 50 -53q20 0 37.5 15.5t26.5 37.5q6 14 17 14h41q8 0 12 -6t2 -15q-15 -52 -53.5 -85t-90.5 -33z" />
    <glyph glyph-name="obreve" unicode="&#x14f;" horiz-adv-x="435" 
d="M18 173q0 96 64 166.5t154 70.5q68 0 113.5 -53.5t45.5 -128.5q0 -97 -64.5 -167.5t-153.5 -70.5q-68 0 -113.5 54.5t-45.5 128.5zM192 98q36 0 64 35.5t28 83.5q0 36 -17.5 60.5t-45.5 24.5q-37 0 -65 -34.5t-28 -82.5q0 -37 17.5 -62t46.5 -25zM256 528q-47 0 -79 34
t-32 84q0 9 6 15.5t14 6.5h36q11 0 13 -14q7 -53 50 -53q20 0 37 15.5t26 37.5q5 14 18 14h41q18 0 14 -22q-15 -52 -54 -85t-90 -33z" />
    <glyph glyph-name="Ohungarumlaut" unicode="&#x150;" horiz-adv-x="735" 
d="M50 300q0 171 107.5 290.5t266.5 119.5q120 0 200.5 -92t80.5 -221q0 -170 -108 -288.5t-266 -118.5q-120 0 -200.5 91.5t-80.5 218.5zM345 120q88 0 156.5 77.5t68.5 183.5q0 83 -45.5 141t-115.5 58q-87 0 -155.5 -79t-68.5 -184q0 -82 45.5 -139.5t114.5 -57.5z
M485 768q-7 0 -12 6t-2 13l49 141q7 19 23 19h75q12 0 15.5 -7.5t-3.5 -17.5l-89 -139q-9 -15 -22 -15h-34zM336 768q-7 0 -12 6t-2 13l49 141q7 19 23 19h75q12 0 15.5 -7.5t-3.5 -17.5l-89 -139q-9 -15 -22 -15h-34z" />
    <glyph glyph-name="ohungarumlaut" unicode="&#x151;" horiz-adv-x="435" 
d="M18 173q0 96 64 166.5t154 70.5q68 0 113.5 -53.5t45.5 -128.5q0 -97 -64.5 -167.5t-153.5 -70.5q-68 0 -113.5 54.5t-45.5 128.5zM192 98q36 0 64 35.5t28 83.5q0 36 -17.5 60.5t-45.5 24.5q-37 0 -65 -34.5t-28 -82.5q0 -37 17.5 -62t46.5 -25zM306 521q-7 0 -12 6
t-2 13l49 141q7 19 23 19h75q12 0 15.5 -7.5t-3.5 -17.5l-89 -139q-9 -15 -22 -15h-34zM157 521q-7 0 -12 6t-2 13l49 141q7 19 23 19h75q12 0 15.5 -7.5t-3.5 -17.5l-89 -139q-9 -15 -22 -15h-34z" />
    <glyph glyph-name="OE" unicode="&#x152;" horiz-adv-x="896" 
d="M50 300q0 170 110 290t268 120q21 0 43 -2.5t34 -5.5l12 -2h370q7 0 11 -5.5t3 -13.5l-12 -82q-1 -8 -6.5 -13.5t-12.5 -5.5h-257l-23 -164h213q7 0 11 -5.5t3 -13.5l-12 -83q-3 -19 -19 -19h-213l-25 -175h257q16 0 14 -19l-11 -82q-1 -8 -7 -13.5t-13 -5.5h-370
q-50 -10 -91 -10q-114 0 -195.5 91t-81.5 219zM345 118q43 0 75 13l61 437q-34 14 -71 14q-88 0 -157.5 -80t-69.5 -185q0 -82 46.5 -140.5t115.5 -58.5z" />
    <glyph glyph-name="oe" unicode="&#x153;" horiz-adv-x="654" 
d="M19 174q0 98 61 167t154 69q73 0 118 -63q26 29 65.5 46t81.5 17q62 0 97.5 -29.5t35.5 -76.5q0 -48 -43 -80t-96.5 -44t-111.5 -13q-2 -33 14 -53t52 -20q37 0 71 24q16 11 23 0l33 -47q10 -13 -3 -26q-60 -55 -143 -55q-74 0 -119 65q-55 -65 -128 -65q-70 0 -116 54
t-46 130zM398 245q44 1 83.5 13t39.5 34q0 25 -34 25q-29 0 -54.5 -22.5t-34.5 -49.5zM193 98q37 0 65.5 36t28.5 84q0 36 -18.5 60t-46.5 24q-37 0 -65.5 -34t-28.5 -82q0 -37 18.5 -62.5t46.5 -25.5z" />
    <glyph glyph-name="Racute" unicode="&#x154;" horiz-adv-x="624" 
d="M53 19l93 662q1 7 6.5 13t12.5 6h264q73 0 121 -54.5t48 -132.5q0 -89 -42.5 -148.5t-116.5 -82.5l82 -256q3 -10 -1.5 -18t-15.5 -8h-95q-18 0 -22 16l-73 258h-95l-36 -255q-1 -8 -6.5 -13.5t-12.5 -5.5h-97q-7 0 -11.5 5.5t-2.5 13.5zM235 381h125q46 0 75.5 34
t29.5 82q0 34 -19 58.5t-46 24.5h-137zM305 768q-17 -7 -23 6l-16 39q-5 13 8 19l164 97q17 11 24 -5l24 -52q9 -19 -9 -27z" />
    <glyph glyph-name="racute" unicode="&#x155;" horiz-adv-x="324" 
d="M22 19l51 362q1 8 6.5 13.5t12.5 5.5h39q11 0 15 -13l9 -39q16 22 45 42t63 20q40 0 63 -16q11 -8 2 -24l-37 -65q-8 -14 -21 -8q-14 6 -34 6q-16 0 -31.5 -10.5t-22.5 -20.5l-7 -11l-34 -242q-3 -19 -23 -19h-82q-7 0 -11 6t-3 13zM142 528q-17 -7 -23 6l-16 39
q-5 13 8 19l164 97q17 11 24 -5l24 -52q9 -19 -9 -27z" />
    <glyph glyph-name="Rcommaaccent" unicode="&#x156;" horiz-adv-x="623" 
d="M53 19l93 662q1 7 6.5 13t12.5 6h264q73 0 121 -54.5t48 -132.5q0 -89 -42.5 -148.5t-116.5 -82.5l82 -256q3 -10 -1.5 -18t-15.5 -8h-95q-18 0 -22 16l-73 258h-95l-36 -255q-1 -8 -6.5 -13.5t-12.5 -5.5h-97q-7 0 -11.5 5.5t-2.5 13.5zM235 381h125q46 0 75.5 34
t29.5 82q0 34 -19 58.5t-46 24.5h-137zM188 -166q0 30 23 52.5t55 22.5q26 0 45.5 -21t19.5 -65q0 -109 -107 -201q-11 -9 -20 1l-14 16q-10 10 5 22q1 1 8 7.5l14 13t16.5 17.5t17.5 22.5t14.5 27t9.5 31.5h-2q-2 -1 -5 -1.5t-7 -1.5t-9 -1.5t-10 -0.5q-23 0 -38.5 17
t-15.5 42z" />
    <glyph glyph-name="rcommaaccent" unicode="&#x157;" horiz-adv-x="324" 
d="M21 19l51 362q1 8 6.5 13.5t12.5 5.5h39q11 0 15 -13l9 -39q16 22 45 42t63 20q40 0 63 -16q11 -8 2 -24l-37 -65q-8 -14 -21 -8q-14 6 -34 6q-16 0 -31.5 -10.5t-22.5 -20.5l-7 -11l-34 -242q-3 -19 -23 -19h-82q-7 0 -11 6t-3 13zM-11 -166q0 30 23 52.5t55 22.5
q26 0 45.5 -21t19.5 -65q0 -109 -107 -201q-11 -9 -20 1l-14 16q-10 10 5 22q1 1 8 7.5l14 13t16.5 17.5t17.5 22.5t14.5 27t9.5 31.5h-2q-2 -1 -5 -1.5t-7 -1.5t-9 -1.5t-10 -0.5q-23 0 -38.5 17t-15.5 42z" />
    <glyph glyph-name="Rcaron" unicode="&#x158;" horiz-adv-x="624" 
d="M53 19l93 662q1 7 6.5 13t12.5 6h264q73 0 121 -54.5t48 -132.5q0 -89 -42.5 -148.5t-116.5 -82.5l82 -256q3 -10 -1.5 -18t-15.5 -8h-95q-18 0 -22 16l-73 258h-95l-36 -255q-1 -8 -6.5 -13.5t-12.5 -5.5h-97q-7 0 -11.5 5.5t-2.5 13.5zM235 381h125q46 0 75.5 34
t29.5 82q0 34 -19 58.5t-46 24.5h-137zM354 764l-106 101q-11 8 -3 19l29 37q9 12 20 3l78 -62l100 62q12 8 20 -3l22 -33q9 -13 -5 -23l-134 -101q-11 -8 -21 0z" />
    <glyph glyph-name="rcaron" unicode="&#x159;" horiz-adv-x="324" 
d="M22 19l51 362q1 8 6.5 13.5t12.5 5.5h39q11 0 15 -13l9 -39q16 22 45 42t63 20q40 0 63 -16q11 -8 2 -24l-37 -65q-8 -14 -21 -8q-14 6 -34 6q-16 0 -31.5 -10.5t-22.5 -20.5l-7 -11l-34 -242q-3 -19 -23 -19h-82q-7 0 -11 6t-3 13zM196 525l-106 101q-11 8 -3 19l29 37
q9 12 20 3l78 -62l100 62q12 8 20 -3l22 -33q9 -13 -5 -23l-134 -101q-11 -8 -21 0z" />
    <glyph glyph-name="Sacute" unicode="&#x15a;" horiz-adv-x="507" 
d="M27 68q-13 13 0 30l39 57q13 20 31 4q61 -52 124 -52q35 0 62 24.5t27 60.5q0 31 -20.5 55.5t-65.5 54.5q-31 20 -51.5 36.5t-44.5 41.5t-36 55.5t-12 66.5q0 84 58 146t168 62q61 0 109 -22t69 -43q18 -18 3 -40l-39 -55q-13 -19 -35 -2q-54 44 -113 44q-37 0 -61 -23.5
t-24 -54.5q0 -28 18.5 -47t68.5 -53q30 -20 42.5 -28.5t39 -31.5t38.5 -41.5t23 -47t11 -60.5q0 -91 -65.5 -153t-173.5 -62q-67 0 -118 27t-72 51zM264 768q-17 -7 -23 6l-16 39q-5 13 8 19l164 97q17 11 24 -5l24 -52q9 -19 -9 -27z" />
    <glyph glyph-name="sacute" unicode="&#x15b;" horiz-adv-x="344" 
d="M11 29q-10 9 -1 24l33 51q3 5 10.5 7t12.5 -2q28 -19 72 -19q14 0 23 6.5t9 16.5q0 15 -10.5 25.5t-43.5 30.5q-41 23 -61 49.5t-20 66.5q0 54 36 89.5t115 35.5q72 0 115 -33q6 -5 8 -13t-3 -16l-34 -50q-11 -15 -26 -4q-27 15 -67 15q-32 0 -32 -23q0 -11 9 -19t31 -20
q54 -29 79.5 -56t25.5 -71q0 -55 -41.5 -92.5t-116.5 -37.5q-76 0 -123 39zM145 528q-17 -7 -23 6l-16 39q-5 13 8 19l164 97q17 11 24 -5l24 -52q9 -19 -9 -27z" />
    <glyph glyph-name="Scircumflex" unicode="&#x15c;" horiz-adv-x="507" 
d="M27 68q-13 13 0 30l39 57q13 20 31 4q61 -52 124 -52q35 0 62 24.5t27 60.5q0 31 -20.5 55.5t-65.5 54.5q-31 20 -51.5 36.5t-44.5 41.5t-36 55.5t-12 66.5q0 84 58 146t168 62q61 0 109 -22t69 -43q18 -18 3 -40l-39 -55q-13 -19 -35 -2q-54 44 -113 44q-37 0 -61 -23.5
t-24 -54.5q0 -28 18.5 -47t68.5 -53q30 -20 42.5 -28.5t39 -31.5t38.5 -41.5t23 -47t11 -60.5q0 -91 -65.5 -153t-173.5 -62q-67 0 -118 27t-72 51zM233 765q-12 -8 -20 3l-22 33q-9 13 5 23l134 101q11 8 21 0l106 -101q11 -8 3 -19l-29 -37q-9 -12 -20 -3l-78 62z" />
    <glyph glyph-name="scircumflex" unicode="&#x15d;" horiz-adv-x="344" 
d="M11 29q-10 9 -1 24l33 51q3 5 10.5 7t12.5 -2q28 -19 72 -19q14 0 23 6.5t9 16.5q0 15 -10.5 25.5t-43.5 30.5q-41 23 -61 49.5t-20 66.5q0 54 36 89.5t115 35.5q72 0 115 -33q6 -5 8 -13t-3 -16l-34 -50q-11 -15 -26 -4q-27 15 -67 15q-32 0 -32 -23q0 -11 9 -19t31 -20
q54 -29 79.5 -56t25.5 -71q0 -55 -41.5 -92.5t-116.5 -37.5q-76 0 -123 39zM94 529l-22 33q-9 13 5 23l134 101q11 8 21 0l106 -101q11 -8 3 -19l-29 -37q-9 -12 -20 -3l-78 62l-100 -62q-12 -8 -20 3z" />
    <glyph glyph-name="Scedilla" unicode="&#x15e;" horiz-adv-x="508" 
d="M28 68q-13 13 0 30l39 57q13 20 31 4q61 -52 124 -52q35 0 62 24.5t27 60.5q0 31 -20.5 55.5t-65.5 54.5q-31 20 -51.5 36.5t-44.5 41.5t-36 55.5t-12 66.5q0 84 58 146t168 62q61 0 109 -22t69 -43q18 -18 3 -40l-39 -55q-13 -19 -35 -2q-54 44 -113 44q-37 0 -61 -23.5
t-24 -54.5q0 -28 18.5 -47t68.5 -53q30 -20 42.5 -28.5t39 -31.5t38.5 -41.5t23 -47t11 -60.5q0 -91 -65 -152.5t-172 -62.5l-6 -44q33 -5 52.5 -28.5t19.5 -61.5q0 -48 -29.5 -82t-76.5 -34q-48 0 -69 35q-10 15 7 28l18 17q10 10 19 -1q10 -12 26 -12q14 0 24.5 12.5
t10.5 31.5q0 37 -57 42q-16 2 -13 18l12 86q-46 11 -81.5 33t-48.5 38z" />
    <glyph glyph-name="scedilla" unicode="&#x15f;" horiz-adv-x="346" 
d="M12 29q-10 9 -1 24l33 51q3 5 10.5 7t12.5 -2q28 -19 72 -19q14 0 23 6.5t9 16.5q0 15 -10.5 25.5t-43.5 30.5q-41 23 -61 49.5t-20 66.5q0 54 36 89.5t115 35.5q72 0 115 -33q6 -5 8 -13t-3 -16l-34 -50q-11 -15 -26 -4q-27 15 -67 15q-32 0 -32 -23q0 -11 9 -19t31 -20
q54 -29 79.5 -56t25.5 -71q0 -52 -38 -88.5t-107 -40.5l-6 -45q33 -5 52.5 -28.5t19.5 -61.5q0 -48 -29.5 -82t-76.5 -34q-48 0 -69 35q-10 15 7 28l18 17q10 10 19 -1q10 -12 26 -12q14 0 24.5 12.5t10.5 31.5q0 37 -57 42q-16 2 -13 18l12 84q-45 10 -74 34z" />
    <glyph glyph-name="Scaron" unicode="&#x160;" horiz-adv-x="507" 
d="M27 68q-13 13 0 30l39 57q13 20 31 4q61 -52 124 -52q35 0 62 24.5t27 60.5q0 31 -20.5 55.5t-65.5 54.5q-31 20 -51.5 36.5t-44.5 41.5t-36 55.5t-12 66.5q0 84 58 146t168 62q61 0 109 -22t69 -43q18 -18 3 -40l-39 -55q-13 -19 -35 -2q-54 44 -113 44q-37 0 -61 -23.5
t-24 -54.5q0 -28 18.5 -47t68.5 -53q30 -20 42.5 -28.5t39 -31.5t38.5 -41.5t23 -47t11 -60.5q0 -91 -65.5 -153t-173.5 -62q-67 0 -118 27t-72 51zM314 764l-106 101q-11 8 -3 19l29 37q9 12 20 3l78 -62l100 62q12 8 20 -3l22 -33q9 -13 -5 -23l-134 -101q-11 -8 -21 0z
" />
    <glyph glyph-name="scaron" unicode="&#x161;" horiz-adv-x="344" 
d="M11 29q-10 9 -1 24l33 51q3 5 10.5 7t12.5 -2q28 -19 72 -19q14 0 23 6.5t9 16.5q0 15 -10.5 25.5t-43.5 30.5q-41 23 -61 49.5t-20 66.5q0 54 36 89.5t115 35.5q72 0 115 -33q6 -5 8 -13t-3 -16l-34 -50q-11 -15 -26 -4q-27 15 -67 15q-32 0 -32 -23q0 -11 9 -19t31 -20
q54 -29 79.5 -56t25.5 -71q0 -55 -41.5 -92.5t-116.5 -37.5q-76 0 -123 39zM195 525l-106 101q-11 8 -3 19l29 37q9 12 20 3l78 -62l100 62q12 8 20 -3l22 -33q9 -13 -5 -23l-134 -101q-11 -8 -21 0z" />
    <glyph glyph-name="Tcommaaccent" unicode="&#x162;" horiz-adv-x="457" 
d="M125 19l79 561h-132q-7 0 -11.5 5.5t-3.5 13.5l12 82q1 7 6.5 13t12.5 6h397q7 0 11.5 -5.5t3.5 -13.5l-12 -82q-1 -8 -7 -13.5t-13 -5.5h-132l-79 -561q-1 -7 -7 -13t-13 -6h-97q-7 0 -11.5 5.5t-3.5 13.5zM96 -166q0 30 23 52.5t55 22.5q26 0 45.5 -21t19.5 -65
q0 -109 -107 -201q-11 -9 -20 1l-14 16q-10 10 5 22q1 1 8 7.5l14 13t16.5 17.5t17.5 22.5t14.5 27t9.5 31.5h-2q-2 -1 -5 -1.5t-7 -1.5t-9 -1.5t-10 -0.5q-23 0 -38.5 17t-15.5 42z" />
    <glyph glyph-name="tcommaaccent" unicode="&#x163;" horiz-adv-x="331" 
d="M59 119l25 176h-36q-7 0 -11 5.5t-3 13.5l9 67q3 19 19 19h37l15 111q4 19 20 19l87 1q7 0 11 -5.5t2 -13.5l-15 -112h72q17 0 14 -19l-9 -67q-4 -19 -20 -19h-72l-23 -158q-5 -32 22 -32q10 0 40 12q16 6 19 -11l10 -66q3 -14 -15 -24q-10 -6 -46 -16t-65 -10
q-51 0 -73 33.5t-14 95.5zM63 -166q0 30 23 52.5t55 22.5q26 0 45.5 -21t19.5 -65q0 -109 -107 -201q-11 -9 -20 1l-14 16q-10 10 5 22q1 1 8 7.5l14 13t16.5 17.5t17.5 22.5t14.5 27t9.5 31.5h-2q-2 -1 -5 -1.5t-7 -1.5t-9 -1.5t-10 -0.5q-23 0 -38.5 17t-15.5 42z" />
    <glyph glyph-name="Tcaron" unicode="&#x164;" horiz-adv-x="457" 
d="M125 19l79 561h-132q-7 0 -11.5 5.5t-3.5 13.5l12 82q1 7 6.5 13t12.5 6h397q7 0 11.5 -5.5t3.5 -13.5l-12 -82q-1 -8 -7 -13.5t-13 -5.5h-132l-79 -561q-1 -7 -7 -13t-13 -6h-97q-7 0 -11.5 5.5t-3.5 13.5zM286 764l-106 101q-11 8 -3 19l29 37q9 12 20 3l78 -62l100 62
q12 8 20 -3l22 -33q9 -13 -5 -23l-134 -101q-11 -8 -21 0z" />
    <glyph glyph-name="tcaron" unicode="&#x165;" horiz-adv-x="330" 
d="M59 119l25 176h-36q-7 0 -11 5.5t-3 13.5l9 67q3 19 19 19h37l15 111q4 19 20 19l87 1q7 0 11 -5.5t2 -13.5l-15 -112h72q17 0 14 -19l-9 -67q-4 -19 -20 -19h-72l-23 -158q-5 -32 22 -32q10 0 40 12q16 6 19 -11l10 -66q3 -14 -15 -24q-10 -6 -46 -16t-65 -10
q-51 0 -73 33.5t-14 95.5zM389 424l-14 16q-10 10 5 22q1 1 8 7.5l14 13t16.5 17.5t17.5 22.5t14.5 27t9.5 31.5l-2 -1q-2 0 -5 -1t-7 -1.5t-9 -1t-10 -0.5q-23 0 -38.5 17t-15.5 42q0 30 23 52.5t55 22.5q26 0 45.5 -21t19.5 -65q0 -109 -107 -201q-11 -9 -20 1z" />
    <glyph glyph-name="Tbar" unicode="&#x166;" horiz-adv-x="457" 
d="M126 19l38 272h-78q-7 0 -11 5.5t-2 13.5l2 13q4 19 18 19h78l34 238h-132q-7 0 -11.5 5.5t-3.5 13.5l12 82q1 7 6.5 13t12.5 6h397q7 0 11.5 -5.5t3.5 -13.5l-12 -82q-1 -8 -7 -13.5t-13 -5.5h-132l-34 -238h81q7 0 11.5 -5.5t3.5 -13.5l-2 -14q-2 -18 -20 -18h-81
l-38 -272q-1 -7 -7 -13t-13 -6h-97q-7 0 -11.5 5.5t-3.5 13.5z" />
    <glyph glyph-name="tbar" unicode="&#x167;" horiz-adv-x="330" 
d="M59 119l7 51h-25q-15 0 -13 19l2 15q2 17 18 17h25l11 74h-36q-7 0 -11 5.5t-3 13.5l9 67q3 19 19 19h37l15 111q4 19 20 19l87 1q7 0 11 -5.5t2 -13.5l-15 -112h72q17 0 14 -19l-9 -67q-4 -19 -20 -19h-72l-11 -74h70q16 0 14 -19l-2 -14q-2 -18 -19 -18h-70l-5 -33
q-5 -32 22 -32q10 0 40 12q16 6 19 -11l10 -66q3 -14 -15 -24q-10 -6 -46 -16t-65 -10q-51 0 -73 33.5t-14 95.5z" />
    <glyph glyph-name="Utilde" unicode="&#x168;" horiz-adv-x="669" 
d="M79 265l59 416q1 7 7 13t13 6h99q7 0 11.5 -5.5t3.5 -13.5l-58 -409q-9 -64 18.5 -107t79.5 -43q53 0 93 42.5t49 106.5l58 410q1 8 7 13.5t13 5.5h99q7 0 11.5 -5.5t3.5 -13.5l-59 -416q-16 -117 -97 -196t-196 -79q-104 0 -167.5 80.5t-47.5 194.5zM297 789l-27 21
q-10 10 -2 23q42 84 102 84q24 0 52 -27.5t42 -27.5q16 0 32 31q12 23 30 10l23 -18q14 -10 2 -33q-7 -14 -17 -29t-32.5 -31t-46.5 -16q-20 0 -38.5 14t-33 28t-24.5 14q-3 0 -6 -0.5t-5.5 -2.5t-5 -3.5t-5 -5t-3.5 -5t-3.5 -6t-3.5 -5.5t-3 -6l-3 -5q-3 -6 -10.5 -7.5
t-13.5 3.5z" />
    <glyph glyph-name="utilde" unicode="&#x169;" horiz-adv-x="472" 
d="M167 -10q-77 0 -108.5 57t-19.5 140l28 194q1 8 6.5 13.5t12.5 5.5h87q7 0 11 -5.5t3 -13.5l-28 -197q-5 -40 6.5 -63t37.5 -23q22 0 41 14t27 28l8 15l31 226q4 19 22 19h82q7 0 11 -5.5t3 -13.5l-50 -362q-1 -7 -7 -13t-13 -6h-39q-11 0 -15 15l-7 33q-53 -58 -130 -58
zM169 562l-27 21q-10 10 -2 23q42 84 102 84q24 0 52 -27.5t42 -27.5q16 0 32 31q12 23 30 10l23 -18q14 -10 2 -33q-7 -14 -17 -29t-32.5 -31t-46.5 -16q-20 0 -38.5 14t-33 28t-24.5 14q-3 0 -6 -0.5t-5.5 -2.5t-5 -3.5t-5 -5t-3.5 -5t-3.5 -6t-3.5 -5.5t-3 -6l-3 -5
q-3 -6 -10.5 -7.5t-13.5 3.5z" />
    <glyph glyph-name="Umacron" unicode="&#x16a;" horiz-adv-x="669" 
d="M79 265l59 416q1 7 7 13t13 6h99q7 0 11.5 -5.5t3.5 -13.5l-58 -409q-9 -64 18.5 -107t79.5 -43q53 0 93 42.5t49 106.5l58 410q1 8 7 13.5t13 5.5h99q7 0 11.5 -5.5t3.5 -13.5l-59 -416q-16 -117 -97 -196t-196 -79q-104 0 -167.5 80.5t-47.5 194.5zM291 808
q-17 0 -15 18l5 34q3 19 20 19h231q17 0 14 -19l-5 -34q-2 -18 -20 -18h-230z" />
    <glyph glyph-name="umacron" unicode="&#x16b;" horiz-adv-x="472" 
d="M167 -10q-77 0 -108.5 57t-19.5 140l28 194q1 8 6.5 13.5t12.5 5.5h87q7 0 11 -5.5t3 -13.5l-28 -197q-5 -40 6.5 -63t37.5 -23q22 0 41 14t27 28l8 15l31 226q4 19 22 19h82q7 0 11 -5.5t3 -13.5l-50 -362q-1 -7 -7 -13t-13 -6h-39q-11 0 -15 15l-7 33q-53 -58 -130 -58
zM161 570q-16 0 -14 18l4 34q2 19 20 19h231q7 0 11 -5.5t3 -13.5l-5 -34q-2 -18 -19 -18h-231z" />
    <glyph glyph-name="Ubreve" unicode="&#x16c;" horiz-adv-x="669" 
d="M79 265l59 416q1 7 7 13t13 6h99q7 0 11.5 -5.5t3.5 -13.5l-58 -409q-9 -64 18.5 -107t79.5 -43q53 0 93 42.5t49 106.5l58 410q1 8 7 13.5t13 5.5h99q7 0 11.5 -5.5t3.5 -13.5l-59 -416q-16 -117 -97 -196t-196 -79q-104 0 -167.5 80.5t-47.5 194.5zM392 766
q-46 0 -78 34t-32 84q0 9 5.5 15t14.5 6h37q9 0 11 -14q9 -53 50 -53q20 0 37.5 15.5t26.5 37.5q6 14 17 14h41q8 0 12 -6t2 -15q-15 -52 -53.5 -85t-90.5 -33z" />
    <glyph glyph-name="ubreve" unicode="&#x16d;" horiz-adv-x="472" 
d="M167 -10q-77 0 -108.5 57t-19.5 140l28 194q1 8 6.5 13.5t12.5 5.5h87q7 0 11 -5.5t3 -13.5l-28 -197q-5 -40 6.5 -63t37.5 -23q22 0 41 14t27 28l8 15l31 226q4 19 22 19h82q7 0 11 -5.5t3 -13.5l-50 -362q-1 -7 -7 -13t-13 -6h-39q-11 0 -15 15l-7 33q-53 -58 -130 -58
zM277 528q-47 0 -79 34t-32 84q0 9 6 15.5t14 6.5h36q11 0 13 -14q7 -53 50 -53q20 0 37 15.5t26 37.5q5 14 18 14h41q18 0 14 -22q-15 -52 -54 -85t-90 -33z" />
    <glyph glyph-name="Uring" unicode="&#x16e;" horiz-adv-x="669" 
d="M79 265l59 416q1 7 7 13t13 6h99q7 0 11.5 -5.5t3.5 -13.5l-58 -409q-9 -64 18.5 -107t79.5 -43q53 0 93 42.5t49 106.5l58 410q1 8 7 13.5t13 5.5h99q7 0 11.5 -5.5t3.5 -13.5l-59 -416q-16 -117 -97 -196t-196 -79q-104 0 -167.5 80.5t-47.5 194.5zM400 754
q-38 0 -63.5 28.5t-25.5 69.5q0 53 35 90.5t85 37.5q38 0 63 -28.5t25 -69.5q0 -53 -35 -90.5t-84 -37.5zM408 817q18 0 33 17t15 39q0 18 -9.5 30t-24.5 12q-18 0 -33 -16.5t-15 -37.5q0 -18 10 -31t24 -13z" />
    <glyph glyph-name="uring" unicode="&#x16f;" horiz-adv-x="472" 
d="M167 -10q-77 0 -108.5 57t-19.5 140l28 194q1 8 6.5 13.5t12.5 5.5h87q7 0 11 -5.5t3 -13.5l-28 -197q-5 -40 6.5 -63t37.5 -23q22 0 41 14t27 28l8 15l31 226q4 19 22 19h82q7 0 11 -5.5t3 -13.5l-50 -362q-1 -7 -7 -13t-13 -6h-39q-11 0 -15 15l-7 33q-53 -58 -130 -58
zM266 484q-38 0 -63.5 28.5t-25.5 69.5q0 53 35 90.5t85 37.5q38 0 63 -28.5t25 -69.5q0 -53 -35 -90.5t-84 -37.5zM274 547q18 0 33 17t15 39q0 18 -9.5 30t-24.5 12q-18 0 -33 -16.5t-15 -37.5q0 -18 10 -31t24 -13z" />
    <glyph glyph-name="Uhungarumlaut" unicode="&#x170;" horiz-adv-x="669" 
d="M79 265l59 416q1 7 7 13t13 6h99q7 0 11.5 -5.5t3.5 -13.5l-58 -409q-9 -64 18.5 -107t79.5 -43q53 0 93 42.5t49 106.5l58 410q1 8 7 13.5t13 5.5h99q7 0 11.5 -5.5t3.5 -13.5l-59 -416q-16 -117 -97 -196t-196 -79q-104 0 -167.5 80.5t-47.5 194.5zM456 768q-7 0 -12 6
t-2 13l49 141q7 19 23 19h75q12 0 15.5 -7.5t-3.5 -17.5l-89 -139q-9 -15 -22 -15h-34zM307 768q-7 0 -12 6t-2 13l49 141q7 19 23 19h75q12 0 15.5 -7.5t-3.5 -17.5l-89 -139q-9 -15 -22 -15h-34z" />
    <glyph glyph-name="uhungarumlaut" unicode="&#x171;" horiz-adv-x="472" 
d="M167 -10q-77 0 -108.5 57t-19.5 140l28 194q1 8 6.5 13.5t12.5 5.5h87q7 0 11 -5.5t3 -13.5l-28 -197q-5 -40 6.5 -63t37.5 -23q22 0 41 14t27 28l8 15l31 226q4 19 22 19h82q7 0 11 -5.5t3 -13.5l-50 -362q-1 -7 -7 -13t-13 -6h-39q-11 0 -15 15l-7 33q-53 -58 -130 -58
zM324 521q-7 0 -12 6t-2 13l49 141q7 19 23 19h75q12 0 15.5 -7.5t-3.5 -17.5l-89 -139q-9 -15 -22 -15h-34zM175 521q-7 0 -12 6t-2 13l49 141q7 19 23 19h75q12 0 15.5 -7.5t-3.5 -17.5l-89 -139q-9 -15 -22 -15h-34z" />
    <glyph glyph-name="Uogonek" unicode="&#x172;" horiz-adv-x="674" 
d="M198 -134q0 70 59 127q-89 15 -139.5 92t-36.5 180l59 416q1 7 7 13t13 6h99q7 0 11.5 -5.5t3.5 -13.5l-58 -409q-9 -64 18.5 -107t79.5 -43q53 0 93 42.5t49 106.5l58 410q1 8 7 13.5t13 5.5h99q7 0 11.5 -5.5t3.5 -13.5l-59 -416q-15 -111 -89 -188.5t-181 -85.5
q-46 -46 -46 -97q0 -24 13.5 -39t39.5 -15q7 0 40 9q8 2 13 -3t4 -14l-4 -30q-1 -13 -16 -19q-17 -10 -60 -10t-74 24.5t-31 68.5z" />
    <glyph glyph-name="uogonek" unicode="&#x173;" horiz-adv-x="472" 
d="M167 -10q-77 0 -108.5 57t-19.5 140l28 194q1 8 6.5 13.5t12.5 5.5h87q7 0 11 -5.5t3 -13.5l-28 -197q-5 -40 6.5 -63t37.5 -23q22 0 41 14t27 28l8 15l31 226q4 19 22 19h82q7 0 11 -5.5t3 -13.5l-50 -362q-1 -7 -7 -13t-13 -6h-7q-55 -50 -55 -106q0 -24 13.5 -39
t39.5 -15q7 0 40 9q8 2 13.5 -3t3.5 -14l-4 -30q-1 -13 -16 -19q-17 -10 -60 -10q-44 0 -74.5 24.5t-30.5 68.5q0 82 83 147l-7 35q-53 -58 -130 -58z" />
    <glyph glyph-name="Wcircumflex" unicode="&#x174;" horiz-adv-x="820" 
d="M161 4l-75 672q-1 10 4.5 17t14.5 7h87q12 0 14 -14l34 -379h4l202 392q6 11 17 11h16q12 0 14 -11l81 -392h4l142 379q6 14 18 14h95q10 0 13.5 -7t-0.5 -17l-264 -672q-5 -14 -18 -14h-15q-12 0 -14 11l-102 433h-4l-222 -433q-5 -11 -17 -11h-14q-13 0 -15 14z
M386 765q-12 -8 -20 3l-22 33q-9 13 5 23l134 101q11 8 21 0l106 -101q11 -8 3 -19l-29 -37q-9 -12 -20 -3l-78 62z" />
    <glyph glyph-name="wcircumflex" unicode="&#x175;" horiz-adv-x="568" 
d="M96 1l-64 378q-3 21 17 21h77q12 0 14 -12l27 -169h1l115 182q6 9 16 9h8q9 0 13 -9l59 -182h1l77 169q5 12 23 12h73q10 0 13 -6.5t-2 -16.5l-170 -376q-6 -11 -18 -11h-4q-9 0 -13 9l-81 226h-1l-147 -226q-5 -9 -16 -9h-4q-12 0 -14 11zM209 529l-22 33q-9 13 5 23
l134 101q11 8 21 0l106 -101q11 -8 3 -19l-29 -37q-9 -12 -20 -3l-78 62l-100 -62q-12 -8 -20 3z" />
    <glyph glyph-name="Ycircumflex" unicode="&#x176;" horiz-adv-x="532" 
d="M161 19l45 318l-156 339q-4 10 1 17t16 7h94q13 0 19 -14l105 -230l168 235q7 9 16 9h110q11 0 13.5 -8t-4.5 -18l-252 -336l-44 -319q-1 -7 -7 -13t-13 -6h-97q-16 0 -14 19zM235 765q-12 -8 -20 3l-22 33q-9 13 5 23l134 101q11 8 21 0l106 -101q11 -8 3 -19l-29 -37
q-9 -12 -20 -3l-78 62z" />
    <glyph glyph-name="ycircumflex" unicode="&#x177;" horiz-adv-x="425" 
d="M114 28l-91 346q-3 10 1 18t14 8h86q10 0 14 -11l52 -237h1l117 237q5 11 20 11h89q10 0 13.5 -8t-2.5 -18l-368 -662q-8 -12 -17 -12h-93q-10 0 -13 7t4 17zM132 529l-22 33q-9 13 5 23l134 101q11 8 21 0l106 -101q11 -8 3 -19l-29 -37q-9 -12 -20 -3l-78 62l-100 -62
q-12 -8 -20 3z" />
    <glyph glyph-name="Ydieresis" unicode="&#x178;" horiz-adv-x="532" 
d="M161 19l45 318l-156 339q-4 10 1 17t16 7h94q13 0 19 -14l105 -230l168 235q7 9 16 9h110q11 0 13.5 -8t-4.5 -18l-252 -336l-44 -319q-1 -7 -7 -13t-13 -6h-97q-16 0 -14 19zM440 775q-24 0 -38 19t-10 45q3 26 22 44.5t43 18.5q23 0 37.5 -18.5t11.5 -44.5
q-4 -26 -23.5 -45t-42.5 -19zM217 775q-23 0 -37 19t-10 45q3 26 22 44.5t42 18.5q24 0 38.5 -18.5t11.5 -44.5q-4 -26 -23.5 -45t-43.5 -19z" />
    <glyph glyph-name="Zacute" unicode="&#x179;" horiz-adv-x="501" 
d="M7 0q-7 0 -11 6t-3 13l2 18l332 538v4h-212q-7 0 -11.5 5.5t-3.5 13.5l12 83q1 7 7 13t13 6h379q7 0 11.5 -5.5t3.5 -13.5l-2 -13l-326 -543v-4h214q16 0 14 -19l-11 -83q-1 -8 -7 -13.5t-13 -5.5h-388zM263 768q-17 -7 -23 6l-16 39q-5 13 8 19l164 97q17 11 24 -5
l24 -52q9 -19 -9 -27z" />
    <glyph glyph-name="zacute" unicode="&#x17a;" horiz-adv-x="342" 
d="M10 0q-7 0 -11.5 6t-3.5 13l2 10l155 262v2h-93q-15 0 -13 19l9 69q1 8 6.5 13.5t12.5 5.5h241q10 0 14 -8.5t-2 -18.5l-160 -264v-3h89q16 0 14 -19l-9 -68q-1 -8 -7 -13.5t-13 -5.5h-231zM143 528q-17 -7 -23 6l-16 39q-5 13 8 19l164 97q17 11 24 -5l24 -52
q9 -19 -9 -27z" />
    <glyph glyph-name="Zdotaccent" unicode="&#x17b;" horiz-adv-x="501" 
d="M7 0q-7 0 -11 6t-3 13l2 18l332 538v4h-212q-7 0 -11.5 5.5t-3.5 13.5l12 83q1 7 7 13t13 6h379q7 0 11.5 -5.5t3.5 -13.5l-2 -13l-326 -543v-4h214q16 0 14 -19l-11 -83q-1 -8 -7 -13.5t-13 -5.5h-388zM333 781q-26 0 -42.5 18t-16.5 45q0 33 24 57t55 24q26 0 43 -18
t17 -45q0 -33 -24.5 -57t-55.5 -24z" />
    <glyph glyph-name="zdotaccent" unicode="&#x17c;" horiz-adv-x="342" 
d="M10 0q-7 0 -11.5 6t-3.5 13l2 10l155 262v2h-93q-15 0 -13 19l9 69q1 8 6.5 13.5t12.5 5.5h241q10 0 14 -8.5t-2 -18.5l-160 -264v-3h89q16 0 14 -19l-9 -68q-1 -8 -7 -13.5t-13 -5.5h-231zM211 536q-25 0 -42 18.5t-17 44.5q0 33 24 57t56 24q25 0 42 -18.5t17 -44.5
q0 -33 -24 -57t-56 -24z" />
    <glyph glyph-name="Zcaron" unicode="&#x17d;" horiz-adv-x="501" 
d="M7 0q-7 0 -11 6t-3 13l2 18l332 538v4h-212q-7 0 -11.5 5.5t-3.5 13.5l12 83q1 7 7 13t13 6h379q7 0 11.5 -5.5t3.5 -13.5l-2 -13l-326 -543v-4h214q16 0 14 -19l-11 -83q-1 -8 -7 -13.5t-13 -5.5h-388zM320 764l-106 101q-11 8 -3 19l29 37q9 12 20 3l78 -62l100 62
q12 8 20 -3l22 -33q9 -13 -5 -23l-134 -101q-11 -8 -21 0z" />
    <glyph glyph-name="zcaron" unicode="&#x17e;" horiz-adv-x="342" 
d="M10 0q-7 0 -11.5 6t-3.5 13l2 10l155 262v2h-93q-15 0 -13 19l9 69q1 8 6.5 13.5t12.5 5.5h241q10 0 14 -8.5t-2 -18.5l-160 -264v-3h89q16 0 14 -19l-9 -68q-1 -8 -7 -13.5t-13 -5.5h-231zM197 525l-106 101q-11 8 -3 19l29 37q9 12 20 3l78 -62l100 62q12 8 20 -3
l22 -33q9 -13 -5 -23l-134 -101q-11 -8 -21 0z" />
    <glyph glyph-name="florin" unicode="&#x192;" horiz-adv-x="352" 
d="M49 -108l56 404h-70q-7 0 -11.5 5.5t-3.5 13.5l10 66q2 19 19 19h71l15 109q29 201 207 201q57 0 100 -39q11 -11 1 -24l-43 -58q-10 -13 -22 -5q-19 13 -45 13q-24 0 -44.5 -22.5t-26.5 -66.5l-15 -108h86q7 0 11 -5.5t3 -13.5l-9 -66q-4 -19 -20 -19h-86l-57 -405
q-13 -96 -68 -148.5t-138 -52.5q-65 0 -101 39q-9 10 0 24l41 60q9 14 21 5q20 -15 47 -15q25 0 45.5 22.5t26.5 66.5z" />
    <glyph glyph-name="Aringacute" unicode="&#x1fa;" horiz-adv-x="602" 
d="M304 892l-16 39q-5 13 8 19l164 97q17 11 24 -5l24 -52q9 -19 -9 -27l-172 -77q-17 -7 -23 6zM-21 0q-10 0 -13.5 8t1.5 18l354 635q-50 24 -50 89q0 53 35 90.5t85 37.5q38 0 63 -28.5t25 -69.5q0 -43 -24 -77t-61 -46l173 -631q3 -10 -3 -18t-16 -8h-87q-22 0 -26 20
l-25 111h-249l-58 -111q-10 -20 -32 -20h-92zM368 715q18 0 33 17t15 39q0 18 -9.5 30t-24.5 12q-18 0 -33 -16.5t-15 -37.5q0 -18 10 -31t24 -13zM220 239h158l-47 218h-2z" />
    <glyph glyph-name="aringacute" unicode="&#x1fb;" horiz-adv-x="474" 
d="M244 433q-38 0 -63.5 28.5t-25.5 69.5q0 53 35 90.5t85 37.5q38 0 63 -28.5t25 -69.5q0 -53 -35 -90.5t-84 -37.5zM252 496q18 0 33 17t15 39q0 18 -9.5 30t-24.5 12q-18 0 -33 -16.5t-15 -37.5q0 -18 10 -31t24 -13zM215 672q-17 -7 -23 6l-16 39q-5 13 8 19l164 97
q17 11 24 -5l24 -52q9 -19 -9 -27zM278 163l12 83q-3 18 -20 37t-45 19q-37 0 -65.5 -35t-28.5 -91q0 -33 18 -55.5t48 -22.5q28 0 51 22.5t30 42.5zM426 381l-50 -362q-1 -7 -7 -13t-13 -6h-39q-12 0 -16 17l-6 30q-61 -57 -129 -57q-63 0 -105 53.5t-42 130.5
q0 98 59.5 167t146.5 69q38 0 68 -18t44 -37l18 32q7 13 18 13h39q7 0 11 -5.5t3 -13.5z" />
    <glyph glyph-name="AEacute" unicode="&#x1fc;" horiz-adv-x="821" 
d="M-35 0q-10 0 -12 8t5 18l451 643q1 1 4.5 6t4.5 6t4 5t4 4.5t4 3t5 3t5 1.5t6 1.5t7 0.5h359q7 0 11 -5.5t3 -13.5l-12 -82q-1 -8 -6.5 -13.5t-12.5 -5.5h-258l-23 -164h213q7 0 11.5 -5.5t3.5 -13.5l-12 -83q-1 -8 -7 -13.5t-13 -5.5h-213l-25 -175h258q16 0 14 -19
l-11 -82q-1 -8 -7 -13.5t-13 -5.5h-370q-7 0 -11.5 5.5t-3.5 13.5l16 109h-175l-74 -113q-11 -15 -27 -15h-103zM249 239h110l31 222zM596 769q-17 -7 -23 6l-16 39q-5 13 8 19l164 97q17 11 24 -5l24 -52q9 -19 -9 -27z" />
    <glyph glyph-name="aeacute" unicode="&#x1fd;" horiz-adv-x="599" 
d="M2 105q0 65 44.5 106.5t117.5 41.5q15 0 31 -2t24 -4l8 -2q4 40 -4 56.5t-35 16.5q-35 0 -96 -16q-7 -1 -12.5 4t-5.5 12l-2 54q0 16 18 20q71 18 123 18q70 0 102 -49q20 23 57.5 36t76.5 13q58 0 93 -29.5t35 -76.5q0 -48 -43 -80t-96.5 -44t-111.5 -13q-2 -33 14 -53
t52 -20q37 0 71 24q16 11 23 0l33 -47q10 -13 -3 -26q-60 -55 -143 -55q-75 0 -121 65h-1q-44 -65 -136 -65q-50 0 -81.5 31.5t-31.5 83.5zM343 245q44 1 83.5 13t39.5 34q0 25 -34 25q-29 0 -54.5 -22.5t-34.5 -49.5zM106 121q0 -20 13.5 -32.5t31.5 -12.5q60 0 67 100
q-28 7 -50 7q-23 0 -42.5 -17.5t-19.5 -44.5zM307 528q-17 -7 -23 6l-16 39q-5 13 8 19l164 97q17 11 24 -5l24 -52q9 -19 -9 -27z" />
    <glyph glyph-name="Oslashacute" unicode="&#x1fe;" horiz-adv-x="736" 
d="M27 23q-11 11 3 26l73 70q-52 80 -52 181q0 171 107.5 290.5t266.5 119.5q119 0 201 -92l74 71q12 11 23 0l9 -10q10 -12 -4 -26l-75 -72q53 -84 53 -184q0 -170 -108 -288.5t-266 -118.5q-120 0 -201 91l-72 -69q-11 -11 -23 1zM206 218l319 304q-46 58 -115 58
q-87 0 -155.5 -79t-68.5 -184q0 -54 20 -99zM231 177q46 -57 115 -57q88 0 156.5 77.5t68.5 183.5q0 53 -21 101zM373 768q-17 -7 -23 6l-16 39q-5 13 8 19l164 97q17 11 24 -5l24 -52q9 -19 -9 -27z" />
    <glyph glyph-name="oslashacute" unicode="&#x1ff;" horiz-adv-x="435" 
d="M192 528q-17 -7 -23 6l-16 39q-5 13 8 19l164 97q17 11 24 -5l24 -52q9 -19 -9 -27zM22 14l-9 10q-11 12 3 26l26 25q-24 46 -24 98q0 96 64 166.5t154 70.5q62 0 107 -47l28 27q12 11 23 0l9 -10q10 -12 -4 -26l-29 -28q25 -44 25 -98q0 -97 -64.5 -167.5t-153.5 -70.5
q-63 0 -107 47l-25 -24q-11 -11 -23 1zM130 159l130 125q-16 18 -39 18q-37 0 -65 -34.5t-28 -82.5q0 -10 2 -26zM151 116q18 -18 41 -18q36 0 64 35.5t28 83.5q0 8 -2 24z" />
    <glyph glyph-name="Scommaaccent" unicode="&#x218;" horiz-adv-x="507" 
d="M27 68q-13 13 0 30l39 57q13 20 31 4q61 -52 124 -52q35 0 62 24.5t27 60.5q0 31 -20.5 55.5t-65.5 54.5q-31 20 -51.5 36.5t-44.5 41.5t-36 55.5t-12 66.5q0 84 58 146t168 62q61 0 109 -22t69 -43q18 -18 3 -40l-39 -55q-13 -19 -35 -2q-54 44 -113 44q-37 0 -61 -23.5
t-24 -54.5q0 -28 18.5 -47t68.5 -53q30 -20 42.5 -28.5t39 -31.5t38.5 -41.5t23 -47t11 -60.5q0 -91 -65.5 -153t-173.5 -62q-67 0 -118 27t-72 51zM129 -166q0 30 23 52.5t55 22.5q26 0 45.5 -21t19.5 -65q0 -109 -107 -201q-11 -9 -20 1l-14 16q-10 10 5 22q1 1 8 7.5
l14 13t16.5 17.5t17.5 22.5t14.5 27t9.5 31.5h-2q-2 -1 -5 -1.5t-7 -1.5t-9 -1.5t-10 -0.5q-23 0 -38.5 17t-15.5 42z" />
    <glyph glyph-name="scommaaccent" unicode="&#x219;" horiz-adv-x="344" 
d="M11 29q-10 9 -1 24l33 51q3 5 10.5 7t12.5 -2q28 -19 72 -19q14 0 23 6.5t9 16.5q0 15 -10.5 25.5t-43.5 30.5q-41 23 -61 49.5t-20 66.5q0 54 36 89.5t115 35.5q72 0 115 -33q6 -5 8 -13t-3 -16l-34 -50q-11 -15 -26 -4q-27 15 -67 15q-32 0 -32 -23q0 -11 9 -19t31 -20
q54 -29 79.5 -56t25.5 -71q0 -55 -41.5 -92.5t-116.5 -37.5q-76 0 -123 39zM46 -166q0 30 23 52.5t55 22.5q26 0 45.5 -21t19.5 -65q0 -109 -107 -201q-11 -9 -20 1l-14 16q-10 10 5 22q1 1 8 7.5l14 13t16.5 17.5t17.5 22.5t14.5 27t9.5 31.5h-2q-2 -1 -5 -1.5t-7 -1.5
t-9 -1.5t-10 -0.5q-23 0 -38.5 17t-15.5 42z" />
    <glyph glyph-name="uni021A" unicode="&#x21a;" horiz-adv-x="457" 
d="M125 19l79 561h-132q-7 0 -11.5 5.5t-3.5 13.5l12 82q1 7 6.5 13t12.5 6h397q7 0 11.5 -5.5t3.5 -13.5l-12 -82q-1 -8 -7 -13.5t-13 -5.5h-132l-79 -561q-1 -7 -7 -13t-13 -6h-97q-7 0 -11.5 5.5t-3.5 13.5zM96 -166q0 30 23 52.5t55 22.5q26 0 45.5 -21t19.5 -65
q0 -109 -107 -201q-11 -9 -20 1l-14 16q-10 10 5 22q1 1 8 7.5l14 13t16.5 17.5t17.5 22.5t14.5 27t9.5 31.5h-2q-2 -1 -5 -1.5t-7 -1.5t-9 -1.5t-10 -0.5q-23 0 -38.5 17t-15.5 42z" />
    <glyph glyph-name="uni021B" unicode="&#x21b;" horiz-adv-x="331" 
d="M59 119l25 176h-36q-7 0 -11 5.5t-3 13.5l9 67q3 19 19 19h37l15 111q4 19 20 19l87 1q7 0 11 -5.5t2 -13.5l-15 -112h72q17 0 14 -19l-9 -67q-4 -19 -20 -19h-72l-23 -158q-5 -32 22 -32q10 0 40 12q16 6 19 -11l10 -66q3 -14 -15 -24q-10 -6 -46 -16t-65 -10
q-51 0 -73 33.5t-14 95.5zM63 -166q0 30 23 52.5t55 22.5q26 0 45.5 -21t19.5 -65q0 -109 -107 -201q-11 -9 -20 1l-14 16q-10 10 5 22q1 1 8 7.5l14 13t16.5 17.5t17.5 22.5t14.5 27t9.5 31.5h-2q-2 -1 -5 -1.5t-7 -1.5t-9 -1.5t-10 -0.5q-23 0 -38.5 17t-15.5 42z" />
    <glyph glyph-name="dotlessj" unicode="&#x237;" 
d="M3 -108l68 489q1 8 7 13.5t13 5.5h90q7 0 11 -5.5t3 -13.5l-71 -498q-13 -92 -63 -142.5t-128 -50.5q-33 0 -65.5 13.5t-45.5 25.5q-10 10 0 26l31 55q10 16 25 8q29 -16 53 -16q60 0 72 90z" />
    <glyph glyph-name="circumflex" unicode="&#x2c6;" horiz-adv-x="336" 
d="M75 529l-22 33q-9 13 5 23l134 101q11 8 21 0l106 -101q11 -8 3 -19l-29 -37q-9 -12 -20 -3l-78 62l-100 -62q-12 -8 -20 3z" />
    <glyph glyph-name="caron" unicode="&#x2c7;" horiz-adv-x="336" 
d="M171 525l-106 101q-11 8 -3 19l29 37q9 12 20 3l78 -62l100 62q12 8 20 -3l22 -33q9 -13 -5 -23l-134 -101q-11 -8 -21 0z" />
    <glyph glyph-name="uni02C9" unicode="&#x2c9;" horiz-adv-x="373" 
d="M91 570q-16 0 -14 18l4 34q2 19 20 19h231q7 0 11 -5.5t3 -13.5l-5 -34q-2 -18 -19 -18h-231z" />
    <glyph glyph-name="breve" unicode="&#x2d8;" horiz-adv-x="311" 
d="M170 528q-47 0 -79 34t-32 84q0 9 6 15.5t14 6.5h36q11 0 13 -14q7 -53 50 -53q20 0 37 15.5t26 37.5q5 14 18 14h41q18 0 14 -22q-15 -52 -54 -85t-90 -33z" />
    <glyph glyph-name="dotaccent" unicode="&#x2d9;" horiz-adv-x="197" 
d="M113 536q-25 0 -42 18.5t-17 44.5q0 33 24 57t56 24q25 0 42 -18.5t17 -44.5q0 -33 -24 -57t-56 -24z" />
    <glyph glyph-name="ring" unicode="&#x2da;" horiz-adv-x="261" 
d="M139 484q-38 0 -63.5 28.5t-25.5 69.5q0 53 35 90.5t85 37.5q38 0 63 -28.5t25 -69.5q0 -53 -35 -90.5t-84 -37.5zM147 547q18 0 33 17t15 39q0 18 -9.5 30t-24.5 12q-18 0 -33 -16.5t-15 -37.5q0 -18 10 -31t24 -13z" />
    <glyph glyph-name="ogonek" unicode="&#x2db;" horiz-adv-x="250" 
d="M122 14h61q-8 -6 -20 -16.5t-31.5 -42t-19.5 -61.5q0 -24 13.5 -39t39.5 -15q7 0 40 9q8 2 13.5 -3t3.5 -14l-4 -30q-1 -13 -16 -19q-17 -10 -60 -10q-44 0 -74.5 24.5t-30.5 68.5q0 41 21.5 78t42.5 54z" />
    <glyph glyph-name="tilde" unicode="&#x2dc;" horiz-adv-x="342" 
d="M84 562l-27 21q-10 10 -2 23q42 84 102 84q24 0 52 -27.5t42 -27.5q17 0 32 31q12 23 30 10l23 -18q14 -10 2 -33q-7 -14 -17 -29t-32.5 -31t-46.5 -16q-20 0 -38.5 14t-33 28t-24.5 14q-3 0 -6 -0.5t-5.5 -2.5t-5 -3.5t-5 -5t-3.5 -5t-3.5 -6t-3.5 -5.5t-4 -6l-2 -5
q-3 -6 -10.5 -7.5t-13.5 3.5z" />
    <glyph glyph-name="hungarumlaut" unicode="&#x2dd;" horiz-adv-x="353" 
d="M210 521q-7 0 -12 6t-2 13l49 141q7 19 23 19h75q12 0 15.5 -7.5t-3.5 -17.5l-89 -139q-9 -15 -22 -15h-34zM61 521q-7 0 -12 6t-2 13l49 141q7 19 23 19h75q12 0 15.5 -7.5t-3.5 -17.5l-89 -139q-9 -15 -22 -15h-34z" />
    <glyph glyph-name="uni0394" unicode="&#x394;" horiz-adv-x="703" 
d="M-5 0q-18 0 -23 10.5t6 32.5l365 658q5 10 15 10h8q11 0 14 -10l178 -660q5 -16 -1 -28.5t-22 -12.5h-540zM154 119h254l-80 330h-1z" />
    <glyph glyph-name="uni03A9" unicode="&#x3a9;" horiz-adv-x="781" 
d="M-4 0q-16 0 -14 18l13 88q1 7 6 12.5t12 5.5h82q-32 27 -51.5 79.5t-19.5 109.5q0 163 112.5 280t263.5 117q118 0 198.5 -85t80.5 -213q0 -80 -37 -164.5t-95 -123.5h76q7 0 11 -5.5t3 -12.5l-13 -88q-2 -18 -18 -18h-248q-16 0 -13 18l8 54q3 18 8 25t18 13
q76 39 121 117t45 159q0 83 -45 138t-118 55q-94 0 -161.5 -82.5t-67.5 -189.5q0 -63 25 -115.5t74 -81.5q21 -12 17 -38l-8 -54q-2 -18 -18 -18h-247z" />
    <glyph glyph-name="uni03BC" unicode="&#x3bc;" horiz-adv-x="490" 
d="M139 -6l-38 -275q-1 -7 -7 -13t-13 -6h-86q-7 0 -11.5 5.5t-3.5 13.5l94 662q1 8 6.5 13.5t12.5 5.5h87q7 0 11 -5.5t3 -13.5l-29 -206q-3 -36 9 -56.5t36 -20.5q22 0 41 14t27 28l8 15l31 226q4 19 22 19h82q7 0 11 -5.5t3 -13.5l-50 -362q-1 -7 -7 -13t-13 -6h-39
q-11 0 -15 15l-7 33q-53 -58 -130 -58q-13 0 -35 4z" />
    <glyph glyph-name="pi" unicode="&#x3c0;" horiz-adv-x="681" 
d="M110 18l39 277h-63q-7 0 -11.5 5.5t-3.5 12.5l10 69q1 7 7 12.5t13 5.5h515q16 0 13 -17l-10 -70q-2 -18 -18 -18h-68l-39 -277q-1 -7 -7 -12.5t-13 -5.5h-92q-6 0 -10 5.5t-3 12.5l39 277h-135l-39 -277q-1 -7 -7 -12.5t-12 -5.5h-92q-15 0 -13 18z" />
    <glyph glyph-name="Wgrave" unicode="&#x1e80;" horiz-adv-x="820" 
d="M161 4l-75 672q-1 10 4.5 17t14.5 7h87q12 0 14 -14l34 -379h4l202 392q6 11 17 11h16q12 0 14 -11l81 -392h4l142 379q6 14 18 14h95q10 0 13.5 -7t-0.5 -17l-264 -672q-5 -14 -18 -14h-15q-12 0 -14 11l-102 433h-4l-222 -433q-5 -11 -17 -11h-14q-13 0 -15 14z
M544 769l-150 77q-15 8 -2 27l29 43q6 9 15 10.5t12 -2.5l137 -97q11 -6 3 -19l-20 -33q-9 -14 -24 -6z" />
    <glyph glyph-name="wgrave" unicode="&#x1e81;" horiz-adv-x="568" 
d="M96 1l-64 378q-3 21 17 21h77q12 0 14 -12l27 -169h1l115 182q6 9 16 9h8q9 0 13 -9l59 -182h1l77 169q5 12 23 12h73q10 0 13 -6.5t-2 -16.5l-170 -376q-6 -11 -18 -11h-4q-9 0 -13 9l-81 226h-1l-147 -226q-5 -9 -16 -9h-4q-12 0 -14 11zM387 531l-150 77q-15 8 -2 27
l29 43q6 9 15 10.5t12 -2.5l137 -97q11 -6 3 -19l-20 -33q-9 -14 -24 -6z" />
    <glyph glyph-name="Wacute" unicode="&#x1e82;" horiz-adv-x="820" 
d="M161 4l-75 672q-1 10 4.5 17t14.5 7h87q12 0 14 -14l34 -379h4l202 392q6 11 17 11h16q12 0 14 -11l81 -392h4l142 379q6 14 18 14h95q10 0 13.5 -7t-0.5 -17l-264 -672q-5 -14 -18 -14h-15q-12 0 -14 11l-102 433h-4l-222 -433q-5 -11 -17 -11h-14q-13 0 -15 14z
M416 768q-17 -7 -23 6l-16 39q-5 13 8 19l164 97q17 11 24 -5l24 -52q9 -19 -9 -27z" />
    <glyph glyph-name="wacute" unicode="&#x1e83;" horiz-adv-x="568" 
d="M96 1l-64 378q-3 21 17 21h77q12 0 14 -12l27 -169h1l115 182q6 9 16 9h8q9 0 13 -9l59 -182h1l77 169q5 12 23 12h73q10 0 13 -6.5t-2 -16.5l-170 -376q-6 -11 -18 -11h-4q-9 0 -13 9l-81 226h-1l-147 -226q-5 -9 -16 -9h-4q-12 0 -14 11zM258 528q-17 -7 -23 6l-16 39
q-5 13 8 19l164 97q17 11 24 -5l24 -52q9 -19 -9 -27z" />
    <glyph glyph-name="Wdieresis" unicode="&#x1e84;" horiz-adv-x="820" 
d="M161 4l-75 672q-1 10 4.5 17t14.5 7h87q12 0 14 -14l34 -379h4l202 392q6 11 17 11h16q12 0 14 -11l81 -392h4l142 379q6 14 18 14h95q10 0 13.5 -7t-0.5 -17l-264 -672q-5 -14 -18 -14h-15q-12 0 -14 11l-102 433h-4l-222 -433q-5 -11 -17 -11h-14q-13 0 -15 14z
M590 775q-24 0 -38 19t-10 45q3 26 22 44.5t43 18.5q23 0 37.5 -18.5t11.5 -44.5q-4 -26 -23.5 -45t-42.5 -19zM367 775q-23 0 -37 19t-10 45q3 26 22 44.5t42 18.5q24 0 38.5 -18.5t11.5 -44.5q-4 -26 -23.5 -45t-43.5 -19z" />
    <glyph glyph-name="wdieresis" unicode="&#x1e85;" horiz-adv-x="568" 
d="M96 1l-64 378q-3 21 17 21h77q12 0 14 -12l27 -169h1l115 182q6 9 16 9h8q9 0 13 -9l59 -182h1l77 169q5 12 23 12h73q10 0 13 -6.5t-2 -16.5l-170 -376q-6 -11 -18 -11h-4q-9 0 -13 9l-81 226h-1l-147 -226q-5 -9 -16 -9h-4q-12 0 -14 11zM412 551q-24 0 -38 19t-10 45
q3 26 22 44.5t43 18.5q23 0 38 -18.5t12 -44.5q-4 -26 -24 -45t-43 -19zM231 551q-23 0 -37.5 19t-10.5 45q3 26 22.5 44.5t42.5 18.5q24 0 38.5 -18.5t11.5 -44.5q-4 -26 -23.5 -45t-43.5 -19z" />
    <glyph glyph-name="Ygrave" unicode="&#x1ef2;" horiz-adv-x="532" 
d="M161 19l45 318l-156 339q-4 10 1 17t16 7h94q13 0 19 -14l105 -230l168 235q7 9 16 9h110q11 0 13.5 -8t-4.5 -18l-252 -336l-44 -319q-1 -7 -7 -13t-13 -6h-97q-16 0 -14 19zM395 769l-150 77q-15 8 -2 27l29 43q6 9 15 10.5t12 -2.5l137 -97q11 -6 3 -19l-20 -33
q-9 -14 -24 -6z" />
    <glyph glyph-name="ygrave" unicode="&#x1ef3;" horiz-adv-x="425" 
d="M114 28l-91 346q-3 10 1 18t14 8h86q10 0 14 -11l52 -237h1l117 237q5 11 20 11h89q10 0 13.5 -8t-2.5 -18l-368 -662q-8 -12 -17 -12h-93q-10 0 -13 7t4 17zM310 531l-150 77q-15 8 -2 27l29 43q6 9 15 10.5t12 -2.5l137 -97q11 -6 3 -19l-20 -33q-9 -14 -24 -6z" />
    <glyph glyph-name="endash" unicode="&#x2013;" horiz-adv-x="504" 
d="M68 210q-17 0 -15 18l5 37q2 19 20 19h363q16 0 14 -19l-5 -37q-2 -18 -20 -18h-362z" />
    <glyph glyph-name="emdash" unicode="&#x2014;" horiz-adv-x="702" 
d="M68 210q-17 0 -15 18l5 37q2 19 20 19h561q16 0 14 -19l-5 -37q-2 -18 -20 -18h-560z" />
    <glyph glyph-name="quoteleft" unicode="&#x2018;" horiz-adv-x="193" 
d="M123 416q-26 0 -45.5 21t-19.5 65q0 109 107 201q11 9 20 -1l14 -16q10 -10 -5 -22q-1 -1 -8 -7.5l-14 -13t-16.5 -17.5t-17.5 -22.5t-14.5 -27t-9.5 -31.5l2 1q2 0 5 1t7 1.5t9 1t10 0.5q23 0 38.5 -17t15.5 -42q0 -30 -23 -52.5t-55 -22.5z" />
    <glyph glyph-name="quoteright" unicode="&#x2019;" horiz-adv-x="190" 
d="M85 424l-14 16q-10 10 5 22q1 1 8 7.5l14 13t16.5 17.5t17.5 22.5t14.5 27t9.5 31.5l-2 -1q-2 0 -5 -1t-7 -1.5t-9 -1t-10 -0.5q-23 0 -38.5 17t-15.5 42q0 30 23 52.5t55 22.5q26 0 45.5 -21t19.5 -65q0 -109 -107 -201q-11 -9 -20 1z" />
    <glyph glyph-name="quotesinglbase" unicode="&#x201a;" horiz-adv-x="220" 
d="M7 49q0 30 23 52.5t55 22.5q26 0 45.5 -21t19.5 -65q0 -109 -107 -201q-11 -9 -20 1l-14 16q-10 10 5 22q1 1 8 7.5l14 13t16.5 17.5t17.5 22.5t14.5 27t9.5 31.5l-2 -1q-2 0 -5 -1t-7 -1.5t-9 -1t-10 -0.5q-23 0 -38.5 17t-15.5 42z" />
    <glyph glyph-name="quotedblleft" unicode="&#x201c;" horiz-adv-x="370" 
d="M300 416q-26 0 -45.5 21t-19.5 65q0 109 107 201q11 9 20 -1l14 -16q10 -10 -5 -22q-1 -1 -8 -7.5l-14 -13t-16.5 -17.5t-17.5 -22.5t-14.5 -27t-9.5 -31.5l2 1q2 0 5 1t7 1.5t9 1t10 0.5q23 0 38.5 -17t15.5 -42q0 -30 -23 -52.5t-55 -22.5zM123 416q-26 0 -45.5 21
t-19.5 65q0 109 107 201q11 9 20 -1l14 -16q10 -10 -5 -22q-1 -1 -8 -7.5l-14 -13t-16.5 -17.5t-17.5 -22.5t-14.5 -27t-9.5 -31.5l2 1q2 0 5 1t7 1.5t9 1t10 0.5q23 0 38.5 -17t15.5 -42q0 -30 -23 -52.5t-55 -22.5z" />
    <glyph glyph-name="quotedblright" unicode="&#x201d;" horiz-adv-x="366" 
d="M261 424l-14 16q-10 10 5 22q1 1 8 7.5l14 13t16.5 17.5t17.5 22.5t14.5 27t9.5 31.5l-2 -1q-2 0 -5 -1t-7 -1.5t-9 -1t-10 -0.5q-23 0 -38.5 17t-15.5 42q0 30 23 52.5t55 22.5q26 0 45.5 -21t19.5 -65q0 -109 -107 -201q-11 -9 -20 1zM85 424l-14 16q-10 10 5 22
q1 1 8 7.5l14 13t16.5 17.5t17.5 22.5t14.5 27t9.5 31.5l-2 -1q-2 0 -5 -1t-7 -1.5t-9 -1t-10 -0.5q-23 0 -38.5 17t-15.5 42q0 30 23 52.5t55 22.5q26 0 45.5 -21t19.5 -65q0 -109 -107 -201q-11 -9 -20 1z" />
    <glyph glyph-name="quotedblbase" unicode="&#x201e;" horiz-adv-x="396" 
d="M183 49q0 30 23 52.5t55 22.5q26 0 45.5 -21t19.5 -65q0 -109 -107 -201q-11 -9 -20 1l-14 16q-10 10 5 22q1 1 8 7.5l14 13t16.5 17.5t17.5 22.5t14.5 27t9.5 31.5l-2 -1q-2 0 -5 -1t-7 -1.5t-9 -1t-10 -0.5q-23 0 -38.5 17t-15.5 42zM7 49q0 30 23 52.5t55 22.5
q26 0 45.5 -21t19.5 -65q0 -109 -107 -201q-11 -9 -20 1l-14 16q-10 10 5 22q1 1 8 7.5l14 13t16.5 17.5t17.5 22.5t14.5 27t9.5 31.5l-2 -1q-2 0 -5 -1t-7 -1.5t-9 -1t-10 -0.5q-23 0 -38.5 17t-15.5 42z" />
    <glyph glyph-name="dagger" unicode="&#x2020;" horiz-adv-x="556" 
d="M63 286q-7 0 -11 5.5t-3 13.5l11 76q1 7 6.5 13t12.5 6h147l39 281q4 19 20 19h99q7 0 11 -5.5t3 -13.5l-39 -281h153q7 0 11 -5.5t3 -13.5l-11 -76q-1 -7 -6.5 -13t-12.5 -6h-161l-113 -570q-4 -16 -19 -16h-18q-6 0 -11 5t-4 11l48 570h-155z" />
    <glyph glyph-name="daggerdbl" unicode="&#x2021;" horiz-adv-x="556" 
d="M36 20l10 75q1 7 7 13t13 6h135l24 284l1 1h-147q-7 0 -11 5.5t-3 13.5l10 76q1 7 7 13t13 6h147l23 168q4 19 20 19h99q7 0 11 -5.5t3 -13.5l-24 -168h154q7 0 11 -5.5t3 -13.5l-11 -76q-1 -8 -6.5 -13.5t-12.5 -5.5h-154l-55 -285h142q7 0 11 -5.5t3 -13.5l-11 -75
q-1 -8 -6.5 -13.5t-12.5 -5.5h-150l-57 -285q-4 -16 -19 -16h-18q-6 0 -11 5t-4 11l22 285h-142q-7 0 -11 5.5t-3 13.5z" />
    <glyph glyph-name="bullet" unicode="&#x2022;" horiz-adv-x="358" 
d="M160 95q-45 0 -75 33.5t-30 80.5q0 59 43.5 103.5t98.5 44.5q47 0 77.5 -34t30.5 -83q0 -59 -44 -102t-101 -43z" />
    <glyph glyph-name="ellipsis" unicode="&#x2026;" horiz-adv-x="612" 
d="M405 53q0 33 24 57t56 24q25 0 42 -18.5t17 -44.5q0 -33 -24 -57t-56 -24q-25 0 -42 18.5t-17 44.5zM209 53q0 33 24 57t55 24q26 0 43 -18t17 -45q0 -33 -24.5 -57t-55.5 -24q-26 0 -42.5 18.5t-16.5 44.5zM8 53q0 33 23.5 57t55.5 24q25 0 42 -18.5t17 -44.5
q0 -33 -24 -57t-56 -24q-25 0 -41.5 18.5t-16.5 44.5z" />
    <glyph glyph-name="perthousand" unicode="&#x2030;" horiz-adv-x="887" 
d="M188 440q-47 0 -78.5 34t-31.5 83q0 64 38.5 108.5t98.5 44.5q46 0 77.5 -34t31.5 -83q0 -64 -40 -108.5t-96 -44.5zM74 27l403 663q7 10 17 10h52q10 0 13.5 -8.5t-2.5 -18.5l-404 -663q-7 -10 -16 -10h-51q-10 0 -14 8.5t2 18.5zM194 526q16 0 29 17t13 39q0 17 -8 29
t-21 12q-17 0 -30 -16.5t-13 -39.5q0 -17 8.5 -29t21.5 -12zM585 107q0 64 38.5 108.5t98.5 44.5q46 0 77.5 -34t31.5 -83q0 -64 -40 -108.5t-96 -44.5q-47 0 -78.5 34t-31.5 83zM314 107q0 64 38.5 108.5t98.5 44.5q46 0 77.5 -34t31.5 -83q0 -64 -40 -108.5t-96 -44.5
q-47 0 -78.5 34t-31.5 83zM671 117q0 -17 8.5 -29t21.5 -12q16 0 29 17t13 39q0 17 -8 29t-21 12q-17 0 -30 -16.5t-13 -39.5zM400 117q0 -17 8.5 -29t21.5 -12q16 0 29 17t13 39q0 17 -8 29t-21 12q-17 0 -30 -16.5t-13 -39.5z" />
    <glyph glyph-name="guilsinglleft" unicode="&#x2039;" horiz-adv-x="262" 
d="M90 39l-72 155q-6 13 3 24l114 148q10 12 21 12h64q12 0 14.5 -9.5t-4.5 -21.5l-80 -149l32 -137q3 -12 -2 -21t-16 -9h-62q-8 0 -12 8z" />
    <glyph glyph-name="guilsinglright" unicode="&#x203a;" horiz-adv-x="261" 
d="M21 31q-12 0 -14.5 9.5t4.5 21.5l80 149l-32 137q-3 12 2 21t16 9h62q8 0 12 -8l72 -155q6 -13 -3 -24l-114 -148q-10 -12 -21 -12h-64z" />
    <glyph glyph-name="fraction" unicode="&#x2044;" horiz-adv-x="120" 
d="M-55 10q-7 -10 -16 -10h-51q-10 0 -14 8.5t2 18.5l403 663q7 10 17 10h52q10 0 13.5 -8.5t-2.5 -18.5z" />
    <glyph glyph-name="zerosuperior" unicode="&#x2070;" horiz-adv-x="324" 
d="M231 494q-45 0 -71.5 33.5t-26.5 89.5q0 88 38 140.5t104 52.5q46 0 72 -33t26 -90q0 -88 -38 -140.5t-104 -52.5zM241 568q21 0 34.5 33.5t13.5 82.5q0 52 -24 52q-21 0 -34.5 -34t-13.5 -82q0 -52 24 -52z" />
    <glyph glyph-name="foursuperior" unicode="&#x2074;" horiz-adv-x="336" 
d="M252 504q-10 0 -8 9l7 48h-120q-7 0 -7 8l7 51l167 175q5 5 13 5h39q9 0 7 -9l-24 -170h35q9 0 7 -8l-6 -43q0 -9 -9 -9h-36l-6 -48q-2 -9 -10 -9h-56zM201 620h59l12 72z" />
    <glyph glyph-name="fivesuperior" unicode="&#x2075;" horiz-adv-x="294" 
d="M208 494q-27 0 -52 13t-33 25q-5 8 1 15l27 32q7 9 14 2q20 -20 48 -20q17 0 30 12.5t13 30.5q0 14 -9 23t-24 9h-66q-14 0 -12 16l20 139q2 9 10 9h144q9 0 7 -9l-6 -44q0 -9 -10 -9h-89l-5 -39h28q43 0 66.5 -24t23.5 -63q0 -52 -33 -85t-93 -33z" />
    <glyph glyph-name="sixsuperior" unicode="&#x2076;" horiz-adv-x="303" 
d="M225 494q-42 0 -69 30t-27 74q0 51 21 93t54 67t55.5 37t43.5 19q14 4 17 -8l14 -34q0 -13 -11 -16q-25 -8 -56.5 -28t-43.5 -46q13 13 49 13q29 0 50 -21.5t21 -59.5q0 -51 -33.5 -85.5t-84.5 -34.5zM232 563q14 0 25 13t11 31q0 14 -7 23.5t-18 9.5q-24 0 -39 -30
q-2 -18 6 -32.5t22 -14.5z" />
    <glyph glyph-name="sevensuperior" unicode="&#x2077;" horiz-adv-x="292" 
d="M129 504q-6 0 -8.5 2t-1.5 6l1 6l131 218h-90q-3 0 -6 2.5t-2 5.5l7 47q2 9 10 9h179q9 0 7 -9l-2 -14l-153 -264q-6 -9 -15 -9h-57z" />
    <glyph glyph-name="eightsuperior" unicode="&#x2078;" horiz-adv-x="313" 
d="M224 494q-45 0 -72 21.5t-27 55.5q0 52 66 85v1q-14 6 -25.5 22.5t-11.5 38.5q0 41 33 66.5t82 25.5q40 0 66.5 -20.5t26.5 -53.5q0 -29 -18.5 -49.5t-39.5 -29.5v-1q18 -5 32 -22.5t14 -43.5q0 -42 -34.5 -69t-91.5 -27zM252 687q12 2 20 12t8 23q0 21 -20 21
q-11 0 -19.5 -8.5t-8.5 -21.5q0 -21 20 -26zM235 558q12 0 22.5 9.5t10.5 25.5q0 11 -7 20t-18 10q-13 -2 -23 -13.5t-10 -26.5q0 -11 7 -18t18 -7z" />
    <glyph glyph-name="ninesuperior" unicode="&#x2079;" horiz-adv-x="303" 
d="M181 488q-14 -4 -17 8l-14 34q0 13 11 16q25 8 56.5 28t43.5 46q-13 -13 -49 -13q-29 0 -50 21.5t-21 59.5q0 51 33.5 85.5t84.5 34.5q42 0 69 -30t27 -74q0 -51 -21 -93t-54 -67t-55.5 -37t-43.5 -19zM241 662q24 0 39 30q2 18 -6 32.5t-22 14.5t-25 -13t-11 -31
q0 -14 7 -23.5t18 -9.5z" />
    <glyph glyph-name="zeroinferior" unicode="&#x2080;" horiz-adv-x="324" 
d="M33 -37q0 88 38 140.5t104 52.5q46 0 72 -33t26 -90q0 -88 -38 -140.5t-104 -52.5q-45 0 -71.5 33.5t-26.5 89.5zM117 -34q0 -52 24 -52q21 0 34.5 33.5t13.5 82.5q0 52 -24 52q-21 0 -34.5 -34t-13.5 -82z" />
    <glyph glyph-name="oneinferior" unicode="&#x2081;" horiz-adv-x="226" 
d="M51 48q-7 0 -6 9l3 30q1 9 9 14l74 45h52q9 0 7 -9l-39 -278q-2 -9 -10 -9h-62q-8 0 -8 9l27 193z" />
    <glyph glyph-name="twoinferior" unicode="&#x2082;" horiz-adv-x="285" 
d="M76 73l-18 33q-6 12 7 21q41 29 88 29q37 0 62.5 -22t25.5 -57q0 -51 -42 -99l-57 -64h66q10 0 8 -9l-7 -46q0 -9 -9 -9h-176q-10 0 -8 9l3 17l112 126q29 34 29 57q0 28 -24 28q-17 0 -44 -19q-10 -6 -16 5z" />
    <glyph glyph-name="threeinferior" unicode="&#x2083;" horiz-adv-x="285" 
d="M70 -16l4 31q1 14 17 14h26q15 0 25 10.5t10 25.5q0 25 -26 25q-15 0 -33 -16q-9 -5 -14 3l-21 31q-8 10 4 18q32 30 80 30q41 0 67 -19.5t26 -52.5q0 -29 -17 -50t-40 -31q44 -21 44 -67q0 -44 -33.5 -70t-82.5 -26q-52 0 -81 33q-8 8 0 18l22 26q9 9 17 2
q13 -13 37 -13q38 0 38 36q0 28 -31 28h-28q-13 0 -10 14z" />
    <glyph glyph-name="fourinferior" unicode="&#x2084;" horiz-adv-x="336" 
d="M31 -34l167 175q5 5 13 5h39q9 0 7 -9l-24 -170h35q9 0 7 -8l-6 -43q0 -9 -9 -9h-36l-6 -48q-2 -9 -10 -9h-56q-10 0 -8 9l7 48h-120q-7 0 -7 8zM101 -34h59l12 72z" />
    <glyph glyph-name="fiveinferior" unicode="&#x2085;" horiz-adv-x="294" 
d="M45 -2l20 139q2 9 10 9h144q9 0 7 -9l-6 -44q0 -9 -10 -9h-89l-5 -39h28q43 0 66.5 -24t23.5 -63q0 -52 -33 -85t-93 -33q-27 0 -52 13t-33 25q-5 8 1 15l27 32q7 9 14 2q20 -20 48 -20q17 0 30 12.5t13 30.5q0 14 -9 23t-24 9h-66q-14 0 -12 16z" />
    <glyph glyph-name="sixinferior" unicode="&#x2086;" horiz-adv-x="303" 
d="M29 -56q0 51 21 93t54 67t55.5 37t43.5 19q14 4 17 -8l14 -34q0 -13 -11 -16q-25 -8 -56.5 -28t-43.5 -46q13 13 49 13q29 0 50 -21.5t21 -59.5q0 -51 -33.5 -85.5t-84.5 -34.5q-42 0 -69 30t-27 74zM104 -44q-2 -18 6 -32.5t22 -14.5t25 13t11 31q0 14 -7 23.5t-18 9.5
q-24 0 -39 -30z" />
    <glyph glyph-name="seveninferior" unicode="&#x2087;" horiz-adv-x="292" 
d="M61 82q-3 0 -6 2.5t-2 5.5l7 47q2 9 10 9h179q9 0 7 -9l-2 -14l-153 -264q-6 -9 -15 -9h-57q-6 0 -8.5 2t-1.5 6l1 6l131 218h-90z" />
    <glyph glyph-name="eightinferior" unicode="&#x2088;" horiz-adv-x="313" 
d="M54 64q0 41 33 66.5t82 25.5q40 0 66.5 -20.5t26.5 -53.5q0 -29 -18.5 -49.5t-39.5 -29.5v-1q18 -5 32 -22.5t14 -43.5q0 -42 -34.5 -69t-91.5 -27q-45 0 -72 21.5t-27 55.5q0 52 66 85v1q-14 6 -25.5 22.5t-11.5 38.5zM132 59q0 -21 20 -26q12 2 20 12t8 23q0 21 -20 21
q-11 0 -19.5 -8.5t-8.5 -21.5zM110 -71q0 -11 7 -18t18 -7q12 0 22.5 9.5t10.5 25.5q0 11 -7 20t-18 10q-13 -2 -23 -13.5t-10 -26.5z" />
    <glyph glyph-name="nineinferior" unicode="&#x2089;" horiz-adv-x="303" 
d="M41 34q0 51 33.5 85.5t84.5 34.5q42 0 69 -30t27 -74q0 -51 -21 -93t-54 -67t-55.5 -37t-43.5 -19q-14 -4 -17 8l-14 34q0 13 11 16q25 8 56.5 28t43.5 46q-13 -13 -49 -13q-29 0 -50 21.5t-21 59.5zM116 41q0 -14 7 -23.5t18 -9.5q24 0 39 30q2 18 -6 32.5t-22 14.5
t-25 -13t-11 -31z" />
    <glyph glyph-name="Euro" unicode="&#x20ac;" horiz-adv-x="664" 
d="M45 250q-7 0 -11 5.5t-2 13.5l2 13q4 19 19 19h36q0 31 5 69h-32q-7 0 -11 5.5t-2 13.5l2 13q4 19 18 19h35q35 130 133 209.5t225 79.5t208 -95q11 -15 -4 -28l-54 -52q-17 -16 -33 0q-52 50 -124 50q-66 0 -122.5 -46t-83.5 -118h202q16 0 14 -19l-2 -15
q-2 -18 -19 -18h-209q-4 -23 -4 -51v-17h167q7 0 11.5 -5.5t3.5 -13.5l-2 -14q-4 -18 -20 -18h-152q15 -58 53 -93.5t92 -35.5q70 0 137 59q20 17 32 -1l52 -65q9 -13 -5 -27q-101 -97 -226 -97q-114 0 -190.5 73t-91.5 187h-47z" />
    <glyph glyph-name="afii61289" unicode="&#x2113;" horiz-adv-x="505" 
d="M147 -10q-65 0 -90.5 47.5t-14.5 116.5q6 35 11 61q-28 -9 -41 -11q-12 -2 -12 11l1 33q0 17 16 20q38 7 59 15q19 69 24 85q56 174 111 258t127 84q48 0 71.5 -38t14.5 -101q-17 -118 -99.5 -206t-201.5 -135q-11 -38 -16 -74q-14 -98 49 -98q68 0 139 44q15 9 22 -5
l10 -21q5 -9 4 -14t-10 -13q-10 -8 -30.5 -20t-62.5 -25.5t-81 -13.5zM146 304q80 36 139 108t72 159q10 70 -29 70q-79 0 -166 -284z" />
    <glyph glyph-name="trademark" unicode="&#x2122;" horiz-adv-x="649" 
d="M322 385q-9 0 -13 7t-1 16l86 282q4 15 20 15h3q10 0 14 -11l54 -185l108 185q7 11 17 11h3q6 0 10.5 -4.5t4.5 -10.5l8 -283q0 -9 -6 -15.5t-14 -6.5h-40q-14 0 -14 17v125l-74 -136q-5 -9 -16 -9h-5q-11 0 -14 10l-37 135l-35 -126q-4 -16 -20 -16h-39zM142 385
q-7 0 -11.5 5.5t-2.5 13.5l31 222h-56q-7 0 -11 5.5t-3 13.5l5 36q1 7 7 13t13 6h187q7 0 11.5 -5.5t3.5 -13.5l-5 -36q-3 -19 -20 -19h-56l-31 -222q-1 -7 -7 -13t-13 -6h-42z" />
    <glyph glyph-name="Omega" unicode="&#x2126;" horiz-adv-x="781" 
d="M-4 0q-16 0 -14 18l13 88q1 7 6 12.5t12 5.5h82q-32 27 -51.5 79.5t-19.5 109.5q0 163 112.5 280t263.5 117q118 0 198.5 -85t80.5 -213q0 -80 -37 -164.5t-95 -123.5h76q7 0 11 -5.5t3 -12.5l-13 -88q-2 -18 -18 -18h-248q-16 0 -13 18l8 54q3 18 8 25t18 13
q76 39 121 117t45 159q0 83 -45 138t-118 55q-94 0 -161.5 -82.5t-67.5 -189.5q0 -63 25 -115.5t74 -81.5q21 -12 17 -38l-8 -54q-2 -18 -18 -18h-247z" />
    <glyph glyph-name="estimated" unicode="&#x212e;" horiz-adv-x="823" 
d="M116 168q26 -53 76 -83t113 -30q98 0 193 81q17 15 26 2l16 -22q9 -12 -9 -29q-97 -97 -235 -97q-137 0 -217.5 104t-59.5 255q22 152 131.5 256.5t246.5 104.5q136 0 216.5 -105.5t60.5 -258.5q-4 -29 -26 -29h-511zM146 380h412l21 150q-62 114 -191 114
q-130 0 -221 -112z" />
    <glyph glyph-name="onethird" unicode="&#x2153;" horiz-adv-x="608" 
d="M61 27l403 663q7 10 17 10h52q10 0 13.5 -8.5t-2.5 -18.5l-404 -663q-8 -10 -16 -10h-51q-10 0 -14 8.5t2 18.5zM127 404q-8 0 -8 9l27 193l-47 -4q-7 0 -6 9l3 30q1 9 9 14l74 45h52q9 0 7 -9l-39 -278q-2 -9 -10 -9h-62zM347 23q-8 8 0 18l22 26q9 9 17 2
q13 -13 37 -13q38 0 38 36q0 28 -31 28h-28q-13 0 -10 14l4 31q1 14 17 14h26q15 0 25 10.5t10 25.5q0 25 -26 25q-15 0 -33 -16q-9 -5 -14 3l-21 31q-8 10 4 18q32 30 80 30q41 0 67 -19.5t26 -52.5q0 -29 -17 -50t-40 -31q44 -21 44 -67q0 -44 -33.5 -70t-82.5 -26
q-52 0 -81 33z" />
    <glyph glyph-name="twothirds" unicode="&#x2154;" horiz-adv-x="608" 
d="M25 404q-9 0 -8 9l3 17l112 126q29 34 29 57q0 28 -24 28q-17 0 -44 -19q-10 -6 -16 5l-18 33q-6 12 7 21q41 29 88 29q37 0 62.5 -22t25.5 -57q0 -51 -42 -99l-57 -64h66q10 0 8 -9l-7 -46q0 -9 -9 -9h-176zM61 27l403 663q7 10 17 10h52q10 0 13.5 -8.5t-2.5 -18.5
l-404 -663q-8 -10 -16 -10h-51q-10 0 -14 8.5t2 18.5zM347 23q-8 8 0 18l22 26q9 9 17 2q13 -13 37 -13q38 0 38 36q0 28 -31 28h-28q-13 0 -10 14l4 31q1 14 17 14h26q15 0 25 10.5t10 25.5q0 25 -26 25q-15 0 -33 -16q-9 -5 -14 3l-21 31q-8 10 4 18q32 30 80 30
q41 0 67 -19.5t26 -52.5q0 -29 -17 -50t-40 -31q44 -21 44 -67q0 -44 -33.5 -70t-82.5 -26q-52 0 -81 33z" />
    <glyph glyph-name="oneeighth" unicode="&#x215b;" horiz-adv-x="608" 
d="M61 27l403 663q7 10 17 10h52q10 0 13.5 -8.5t-2.5 -18.5l-404 -663q-8 -10 -16 -10h-51q-10 0 -14 8.5t2 18.5zM127 404q-8 0 -8 9l27 193l-47 -4q-7 0 -6 9l3 30q1 9 9 14l74 45h52q9 0 7 -9l-39 -278q-2 -9 -10 -9h-62zM347 67q0 52 66 85v1q-14 6 -25.5 22.5
t-11.5 38.5q0 41 33 66.5t82 25.5q40 0 66.5 -20.5t26.5 -53.5q0 -29 -18.5 -49.5t-39.5 -29.5v-1q18 -5 32 -22.5t14 -43.5q0 -42 -34.5 -69t-91.5 -27q-45 0 -72 21.5t-27 55.5zM454 209q0 -21 20 -26q12 2 20 12t8 23q0 21 -20 21q-11 0 -19.5 -8.5t-8.5 -21.5zM432 79
q0 -11 7 -18t18 -7q12 0 22.5 9.5t10.5 25.5q0 11 -7 20t-18 10q-13 -2 -23 -13.5t-10 -26.5z" />
    <glyph glyph-name="threeeighths" unicode="&#x215c;" horiz-adv-x="608" 
d="M107 394q-52 0 -81 33q-8 8 0 18l22 26q10 9 17 2q13 -13 37 -13q38 0 38 36q0 28 -31 28h-28q-13 0 -10 14l4 31q1 14 17 14h26q14 0 24.5 10.5t10.5 25.5q0 25 -26 25q-15 0 -33 -16q-9 -5 -14 3l-21 31q-8 10 4 18q32 30 80 30q41 0 67 -19.5t26 -52.5q0 -29 -17 -50
t-40 -31q44 -21 44 -67q0 -44 -33.5 -70t-82.5 -26zM62 27l403 663q7 10 17 10h52q10 0 13.5 -8.5t-2.5 -18.5l-404 -663q-7 -10 -16 -10h-51q-10 0 -14 8.5t2 18.5zM348 67q0 52 66 85v1q-14 6 -25.5 22.5t-11.5 38.5q0 41 33 66.5t82 25.5q40 0 66.5 -20.5t26.5 -53.5
q0 -29 -18.5 -49.5t-39.5 -29.5v-1q18 -5 32 -22.5t14 -43.5q0 -42 -34.5 -69t-91.5 -27q-45 0 -72 21.5t-27 55.5zM455 209q0 -21 20 -26q12 2 20 12t8 23q0 21 -20 21q-11 0 -19.5 -8.5t-8.5 -21.5zM433 79q0 -11 7 -18t18 -7q12 0 22.5 9.5t10.5 25.5q0 11 -7 20t-18 10
q-13 -2 -23 -13.5t-10 -26.5z" />
    <glyph glyph-name="fiveeighths" unicode="&#x215d;" horiz-adv-x="608" 
d="M61 27l403 663q7 10 17 10h52q10 0 13.5 -8.5t-2.5 -18.5l-404 -663q-8 -10 -16 -10h-51q-10 0 -14 8.5t2 18.5zM102 394q-27 0 -52 13t-33 25q-5 8 1 15l27 32q7 9 14 2q20 -20 48 -20q17 0 30 12.5t13 30.5q0 14 -9 23t-24 9h-66q-14 0 -12 16l20 139q2 9 10 9h144
q9 0 7 -9l-6 -44q0 -9 -10 -9h-89l-5 -39h28q43 0 66.5 -24t23.5 -63q0 -52 -33 -85t-93 -33zM347 67q0 52 66 85v1q-14 6 -25.5 22.5t-11.5 38.5q0 41 33 66.5t82 25.5q40 0 66.5 -20.5t26.5 -53.5q0 -29 -18.5 -49.5t-39.5 -29.5v-1q18 -5 32 -22.5t14 -43.5
q0 -42 -34.5 -69t-91.5 -27q-45 0 -72 21.5t-27 55.5zM454 209q0 -21 20 -26q12 2 20 12t8 23q0 21 -20 21q-11 0 -19.5 -8.5t-8.5 -21.5zM432 79q0 -11 7 -18t18 -7q12 0 22.5 9.5t10.5 25.5q0 11 -7 20t-18 10q-13 -2 -23 -13.5t-10 -26.5z" />
    <glyph glyph-name="seveneighths" unicode="&#x215e;" horiz-adv-x="608" 
d="M61 27l403 663q7 10 17 10h52q10 0 13.5 -8.5t-2.5 -18.5l-404 -663q-8 -10 -16 -10h-51q-10 0 -14 8.5t2 18.5zM52 404q-6 0 -8.5 2t-1.5 6l1 6l131 218h-90q-3 0 -6 2.5t-2 5.5l7 47q2 9 10 9h179q9 0 7 -9l-2 -14l-153 -264q-6 -9 -15 -9h-57zM347 67q0 52 66 85v1
q-14 6 -25.5 22.5t-11.5 38.5q0 41 33 66.5t82 25.5q40 0 66.5 -20.5t26.5 -53.5q0 -29 -18.5 -49.5t-39.5 -29.5v-1q18 -5 32 -22.5t14 -43.5q0 -42 -34.5 -69t-91.5 -27q-45 0 -72 21.5t-27 55.5zM454 209q0 -21 20 -26q12 2 20 12t8 23q0 21 -20 21q-11 0 -19.5 -8.5
t-8.5 -21.5zM432 79q0 -11 7 -18t18 -7q12 0 22.5 9.5t10.5 25.5q0 11 -7 20t-18 10q-13 -2 -23 -13.5t-10 -26.5z" />
    <glyph glyph-name="partialdiff" unicode="&#x2202;" horiz-adv-x="570" 
d="M57 219q14 101 78 159t137 58q54 0 93 -28q-9 72 -64 124.5t-101 69.5q-22 8 -12 29l28 57q9 20 27 14q28 -11 57.5 -28t69.5 -54t67.5 -82.5t42 -117t2.5 -154.5q-17 -118 -84 -197t-169 -79q-83 0 -134 67.5t-38 161.5zM245 104q50 0 80.5 44t39.5 103
q-5 34 -25.5 60.5t-60.5 26.5q-42 0 -73.5 -34t-38.5 -83q-7 -48 15 -82.5t63 -34.5z" />
    <glyph glyph-name="Delta" unicode="&#x2206;" horiz-adv-x="703" 
d="M-5 0q-18 0 -23 10.5t6 32.5l365 658q5 10 15 10h8q11 0 14 -10l178 -660q5 -16 -1 -28.5t-22 -12.5h-540zM154 119h254l-80 330h-1z" />
    <glyph glyph-name="product" unicode="&#x220f;" horiz-adv-x="686" 
d="M31 18l93 664q4 18 20 18h496q6 0 10 -5.5t3 -12.5l-93 -664q-4 -18 -19 -18h-100q-7 0 -10.5 5t-1.5 13l78 558h-266l-78 -558q-4 -18 -19 -18h-99q-7 0 -11 5.5t-3 12.5z" />
    <glyph glyph-name="summation" unicode="&#x2211;" horiz-adv-x="546" 
d="M25 18l5 40l282 308l-199 282l5 34q4 18 19 18h369q7 0 11 -5.5t3 -12.5l-12 -88q-4 -18 -20 -18h-181l115 -157q15 -21 12 -39l-7 -45q-3 -19 -23 -42l-160 -169h181q7 0 11 -5.5t3 -12.5l-12 -88q-4 -18 -20 -18h-369q-7 0 -10.5 5.5t-2.5 12.5z" />
    <glyph glyph-name="minus" unicode="&#x2212;" horiz-adv-x="482" 
d="M65 300q-7 0 -11 5.5t-3 13.5l8 56q1 7 6.5 13t12.5 6h359q15 0 13 -19l-8 -56q-1 -7 -6.5 -13t-12.5 -6h-358z" />
    <glyph glyph-name="uni2215" unicode="&#x2215;" horiz-adv-x="569" 
d="M16 0q-10 0 -14 8.5t2 18.5l403 663q7 10 17 10h52q10 0 13.5 -8.5t-2.5 -18.5l-404 -663q-7 -10 -16 -10h-51z" />
    <glyph glyph-name="uni2219" unicode="&#x2219;" horiz-adv-x="359" 
d="M210 167q-33 0 -55 23t-22 56q0 41 31 71.5t71 30.5q34 0 57 -23.5t23 -57.5q0 -40 -32 -70t-73 -30z" />
    <glyph glyph-name="radical" unicode="&#x221a;" horiz-adv-x="687" 
d="M197 1l-102 376q-3 9 2 16t14 7h79q10 0 12 -10l39 -153h4l248 452q7 11 16 11h175q16 0 14 -18l-10 -72q-4 -18 -19 -18h-107l-329 -591q-5 -11 -15 -11h-8q-11 0 -13 11z" />
    <glyph glyph-name="infinity" unicode="&#x221e;" horiz-adv-x="593" 
d="M181 156q-51 0 -82.5 41t-23.5 99q8 59 48.5 99.5t96.5 40.5q27 0 50 -15.5t36 -39.5q20 24 48.5 39.5t55.5 15.5q51 0 83 -41t25 -99q-8 -59 -49 -99.5t-98 -40.5q-54 0 -88 55q-46 -55 -102 -55zM341 296q-4 -22 7.5 -37t31.5 -15t36 15t20 37q3 22 -9 37t-32 15
t-35.5 -15t-18.5 -37zM195 244q20 0 36 15t20 37q3 22 -9 37t-32 15q-19 0 -34.5 -15t-18.5 -37q-4 -22 7.5 -37t30.5 -15z" />
    <glyph glyph-name="integral" unicode="&#x222b;" horiz-adv-x="354" 
d="M88 -108l86 617q29 201 207 201q57 0 100 -39q11 -11 1 -24l-43 -58q-10 -13 -22 -5q-19 13 -45 13q-24 0 -44.5 -22.5t-26.5 -66.5l-87 -617q-13 -96 -68 -148.5t-138 -52.5q-65 0 -101 39q-9 10 0 24l41 60q9 14 21 5q20 -15 47 -15q25 0 45.5 22.5t26.5 66.5z" />
    <glyph glyph-name="approxequal" unicode="&#x2248;" horiz-adv-x="463" 
d="M102 314l-31 33q-7 7 1 20q52 83 120 83q8 0 15.5 -2t12.5 -4t12 -7t9.5 -6.5t9.5 -8t8 -7.5q29 -26 45 -26q28 0 61 47q11 12 21 2l29 -32q6 -7 -2 -21q-48 -82 -119 -82q-10 0 -18.5 2t-16 7t-12 8.5t-12.5 11t-10 9.5t-6.5 6t-7.5 6t-7 5t-9 4t-10 1q-32 0 -64 -46
q-4 -6 -10 -7t-9 4zM75 115l-31 33q-7 7 1 20q52 83 120 83q8 0 15.5 -2t12.5 -4t12 -7t9.5 -6.5t9.5 -8t8 -7.5q29 -26 45 -26q28 0 61 47q11 12 21 2l29 -32q6 -7 -2 -21q-48 -82 -119 -82q-10 0 -18.5 2t-16 7t-12 8.5t-12.5 11t-10 9.5t-6.5 6t-7.5 6t-7 5t-9 4t-10 1
q-32 0 -64 -46q-4 -6 -10 -7t-9 4z" />
    <glyph glyph-name="notequal" unicode="&#x2260;" horiz-adv-x="424" 
d="M118 51q-14 8 -5 24l28 52h-61q-16 0 -14 19l8 57q1 8 6.5 13.5t12.5 5.5h105l60 116h-148q-7 0 -11.5 5.5t-3.5 13.5l8 56q1 8 7 13.5t13 5.5h191l42 75q4 7 11.5 9.5t12.5 -0.5l12 -6q13 -6 4 -24l-29 -54h56q16 0 14 -19l-8 -56q-1 -8 -6.5 -13.5t-12.5 -5.5h-99
l-61 -116h143q7 0 11.5 -5.5t3.5 -13.5l-8 -57q-1 -8 -7 -13.5t-13 -5.5h-186l-41 -74q-9 -16 -23 -8z" />
    <glyph glyph-name="lessequal" unicode="&#x2264;" horiz-adv-x="456" 
d="M49 381q-7 4 -6 17l1 12q1 11 12 16l382 188q10 5 15.5 0.5t4.5 -15.5l-11 -77q-2 -11 -9 -14l-240 -106l210 -102q6 -4 6 -14l-10 -68q-1 -11 -9 -15.5t-15 0.5zM9 47q-15 0 -13 19l7 56q1 8 6.5 13.5t12.5 5.5h354q7 0 11 -5.5t3 -13.5l-8 -56q-1 -8 -6.5 -13.5
t-12.5 -5.5h-354z" />
    <glyph glyph-name="greaterequal" unicode="&#x2265;" horiz-adv-x="456" 
d="M36 203q-9 -5 -15 -0.5t-5 15.5l12 78q0 9 8 14l240 102l-210 106q-7 3 -5 14l9 67q1 11 8.5 15.5t15.5 -0.5l330 -188q7 -5 6 -16l-2 -12q-3 -13 -11 -17zM9 47q-15 0 -13 19l7 56q1 8 6.5 13.5t12.5 5.5h354q7 0 11.5 -5.5t3.5 -13.5l-8 -56q-1 -7 -7 -13t-13 -6h-354z
" />
    <glyph glyph-name="lozenge" unicode="&#x25ca;" horiz-adv-x="703" 
d="M285 10l-174 302q-14 26 -4 55q6 16 22 35l253 299q7 10 15 10h9q10 0 13 -10l169 -298q17 -30 9 -58q-4 -14 -22 -38l-253 -297q-7 -10 -15 -10h-9q-9 0 -13 10zM324 178h2l146 184l-93 173h-2l-149 -187z" />
    <glyph glyph-name="uniF8FF" unicode="&#xf8ff;" horiz-adv-x="599" 
d="M50 30v640q0 30 30 30h439q30 0 30 -30v-640q0 -30 -30 -30h-439q-30 0 -30 30zM262 314q0 -12 14 -12h36q15 0 15 13v26q0 16 16.5 32t36 28.5t36 36.5t16.5 53q0 48 -35.5 79.5t-89.5 31.5q-24 0 -46.5 -6.5t-37 -15t-25.5 -17.5t-16 -15l-5 -7q-8 -12 0 -18l22 -22
q8 -6 17 0q1 1 7.5 7t9.5 9t11.5 8.5t15.5 8.5t18 5.5t22 2.5q29 0 45 -15t16 -37q0 -21 -15.5 -39t-34 -30t-34 -32.5t-15.5 -45.5v-29zM245 156q0 -20 14.5 -34t33.5 -14q20 0 34.5 14t14.5 34t-14.5 34t-34.5 14q-19 0 -33.5 -14t-14.5 -34z" />
    <glyph glyph-name="CR" horiz-adv-x="0" 
 />
    <glyph glyph-name="grave.cap" horiz-adv-x="272" 
d="M230 769l-150 77q-15 8 -2 27l29 43q6 9 15 10.5t12 -2.5l137 -97q11 -6 3 -19l-20 -33q-9 -14 -24 -6z" />
    <glyph glyph-name="acute.cap" horiz-adv-x="272" 
d="M105 768q-17 -7 -23 6l-16 39q-5 13 8 19l164 97q17 11 24 -5l24 -52q9 -19 -9 -27z" />
    <glyph glyph-name="circumflex.cap" horiz-adv-x="336" 
d="M109 765q-12 -8 -20 3l-22 33q-9 13 5 23l134 101q11 8 21 0l106 -101q11 -8 3 -19l-29 -37q-9 -12 -20 -3l-78 62z" />
    <glyph glyph-name="caron.cap" horiz-adv-x="336" 
d="M184 764l-106 101q-11 8 -3 19l29 37q9 12 20 3l78 -62l100 62q12 8 20 -3l22 -33q9 -13 -5 -23l-134 -101q-11 -8 -21 0z" />
    <glyph glyph-name="caron.alt" horiz-adv-x="336" 
d="M117 635q0 30 23 52.5t55 22.5q26 0 45.5 -21t19.5 -65q0 -109 -107 -201q-11 -9 -20 1l-14 16q-10 10 5 22q1 1 8 7.5l14 13t16.5 17.5t17.5 22.5t14.5 27t9.5 31.5l-2 -1q-2 0 -5 -1t-7 -1.5t-9 -1t-10 -0.5q-23 0 -38.5 17t-15.5 42z" />
    <glyph glyph-name="tilde.cap" horiz-adv-x="342" 
d="M95 789l-27 21q-10 10 -2 23q42 84 102 84q24 0 52 -27.5t42 -27.5q16 0 32 31q12 23 30 10l23 -18q14 -10 2 -33q-7 -14 -17 -29t-32.5 -31t-46.5 -16q-20 0 -38.5 14t-33 28t-24.5 14q-3 0 -6 -0.5t-5.5 -2.5t-5 -3.5t-5 -5t-3.5 -5t-3.5 -6t-3.5 -5.5t-3 -6l-3 -5
q-3 -6 -10.5 -7.5t-13.5 3.5z" />
    <glyph glyph-name="dieresis.cap" horiz-adv-x="427" 
d="M352 775q-24 0 -38 19t-10 45q3 26 22 44.5t43 18.5q23 0 37.5 -18.5t11.5 -44.5q-4 -26 -23.5 -45t-42.5 -19zM129 775q-23 0 -37 19t-10 45q3 26 22 44.5t42 18.5q24 0 38.5 -18.5t11.5 -44.5q-4 -26 -23.5 -45t-43.5 -19z" />
    <glyph glyph-name="macron.cap" horiz-adv-x="373" 
d="M105 808q-17 0 -15 18l5 34q3 19 20 19h231q17 0 14 -19l-5 -34q-2 -18 -20 -18h-230z" />
    <glyph glyph-name="breve.cap" horiz-adv-x="311" 
d="M183 766q-46 0 -78 34t-32 84q0 9 5.5 15t14.5 6h37q9 0 11 -14q9 -53 50 -53q20 0 37.5 15.5t26.5 37.5q6 14 17 14h41q8 0 12 -6t2 -15q-15 -52 -53.5 -85t-90.5 -33z" />
    <glyph glyph-name="ring.cap" horiz-adv-x="261" 
d="M156 754q-38 0 -63.5 28.5t-25.5 69.5q0 53 35 90.5t85 37.5q38 0 63 -28.5t25 -69.5q0 -53 -35 -90.5t-84 -37.5zM164 817q18 0 33 17t15 39q0 18 -9.5 30t-24.5 12q-18 0 -33 -16.5t-15 -37.5q0 -18 10 -31t24 -13z" />
    <glyph glyph-name="hungarumlaut.cap" horiz-adv-x="353" 
d="M223 768q-7 0 -12 6t-2 13l49 141q7 19 23 19h75q12 0 15.5 -7.5t-3.5 -17.5l-89 -139q-9 -15 -22 -15h-34zM74 768q-7 0 -12 6t-2 13l49 141q7 19 23 19h75q12 0 15.5 -7.5t-3.5 -17.5l-89 -139q-9 -15 -22 -15h-34z" />
    <glyph glyph-name="dotaccent.cap" horiz-adv-x="197" 
d="M128 781q-26 0 -42.5 18t-16.5 45q0 33 24 57t55 24q26 0 43 -18t17 -45q0 -33 -24.5 -57t-55.5 -24z" />
    <glyph glyph-name="cedilla.cap" horiz-adv-x="222" 
d="M73 0h63l-8 -54q33 -5 52.5 -28.5t19.5 -61.5q0 -48 -29.5 -82t-76.5 -34q-48 0 -69 35q-10 15 7 28l18 17q10 10 19 -1q10 -12 26 -12q14 0 24.5 12.5t10.5 31.5q0 37 -57 42q-16 2 -13 18z" />
    <glyph glyph-name="ogonek.cap" horiz-adv-x="250" 
d="M122 14h61q-8 -6 -20 -16.5t-31.5 -42t-19.5 -61.5q0 -24 13.5 -39t39.5 -15q7 0 40 9q8 2 13.5 -3t3.5 -14l-4 -30q-1 -13 -16 -19q-17 -10 -60 -10q-44 0 -74.5 24.5t-30.5 68.5q0 41 21.5 78t42.5 54z" />
    <glyph glyph-name="commaaccent" horiz-adv-x="262" 
d="M107 -166q0 30 23 52.5t55 22.5q26 0 45.5 -21t19.5 -65q0 -109 -107 -201q-11 -9 -20 1l-14 16q-10 10 5 22q1 1 8 7.5l14 13t16.5 17.5t17.5 22.5t14.5 27t9.5 31.5h-2q-2 -1 -5 -1.5t-7 -1.5t-9 -1.5t-10 -0.5q-23 0 -38.5 17t-15.5 42z" />
    <glyph glyph-name="commaaccent.alt" horiz-adv-x="262" 
d="M107 -166q0 30 23 52.5t55 22.5q26 0 45.5 -21t19.5 -65q0 -109 -107 -201q-11 -9 -20 1l-14 16q-10 10 5 22q1 1 8 7.5l14 13t16.5 17.5t17.5 22.5t14.5 27t9.5 31.5h-2q-2 -1 -5 -1.5t-7 -1.5t-9 -1.5t-10 -0.5q-23 0 -38.5 17t-15.5 42z" />
    <glyph glyph-name="commaaccent.cap" horiz-adv-x="262" 
d="M107 -166q0 30 23 52.5t55 22.5q26 0 45.5 -21t19.5 -65q0 -109 -107 -201q-11 -9 -20 1l-14 16q-10 10 5 22q1 1 8 7.5l14 13t16.5 17.5t17.5 22.5t14.5 27t9.5 31.5h-2q-2 -1 -5 -1.5t-7 -1.5t-9 -1.5t-10 -0.5q-23 0 -38.5 17t-15.5 42z" />
    <glyph glyph-name="brokenbar.case" horiz-adv-x="316" 
d="M190 512q-7 0 -11.5 5.5t-3.5 12.5l47 331q1 8 6.5 13.5t12.5 5.5h14q16 0 14 -19l-47 -331q-1 -7 -6.5 -12.5t-12.5 -5.5h-13zM124 169q1 8 7 13.5t13 5.5h14q16 0 14 -19l-47 -331q-1 -7 -7 -12.5t-13 -5.5h-12q-7 0 -11.5 5.5t-3.5 12.5z" />
    <glyph glyph-name="zero.tf" horiz-adv-x="580" 
d="M246 -10q-86 0 -136.5 72.5t-50.5 193.5q0 198 77.5 316.5t208.5 118.5q87 0 137 -72t50 -193q0 -200 -75 -318t-211 -118zM263 108q62 0 99 89.5t37 225.5q0 69 -18.5 109.5t-52.5 40.5q-62 0 -99 -89t-37 -225q0 -70 18 -110.5t53 -40.5z" />
    <glyph glyph-name="one.tf" horiz-adv-x="580" 
d="M99 0q-16 0 -14 18l11 71q2 19 20 19h107l55 390l-86 -19q-7 -2 -12 2t-4 11l5 55q1 14 13 23l142 110h74q7 0 11 -5.5t3 -13.5l-77 -553h90q16 0 14 -19l-11 -71q-2 -18 -20 -18h-321z" />
    <glyph glyph-name="two.tf" horiz-adv-x="580" 
d="M64 19l3 23l283 333q57 68 57 120q0 34 -18.5 56.5t-52.5 22.5q-45 0 -105 -63q-13 -13 -25 0l-50 55q-10 13 3 26q92 98 192 98q85 0 132.5 -52t47.5 -135q0 -87 -74 -174l-189 -222h183q7 0 11 -5.5t3 -13.5l-9 -69q-1 -7 -7 -13t-13 -6h-358q-16 0 -14 19z" />
    <glyph glyph-name="three.tf" horiz-adv-x="580" 
d="M74 79q-10 13 4 25l53 48q15 15 29 -5q35 -47 96 -47q43 0 71.5 29t28.5 74q0 37 -27 63t-74 26h-51q-17 0 -14 20l9 63q3 20 20 20h50q54 0 87.5 32t33.5 77q0 30 -18.5 48t-47.5 18q-9 0 -17.5 -1.5t-16.5 -5.5l-14 -7t-13.5 -9t-10.5 -8.5t-10 -9.5l-8 -8
q-14 -14 -25 -1l-48 56q-11 12 3 26q84 88 181 88q75 0 123.5 -44t48.5 -115q0 -63 -37.5 -113.5t-80.5 -71.5v-3q33 -17 60.5 -54.5t27.5 -87.5q0 -91 -63.5 -151t-167.5 -60q-121 0 -182 89z" />
    <glyph glyph-name="four.tf" horiz-adv-x="580" 
d="M46 145q-7 0 -11.5 5.5t-2.5 13.5l11 83l380 438q5 6 15 6h58q7 0 11 -5.5t3 -13.5l-59 -426h71q17 0 15 -18l-9 -62q-1 -8 -7 -13.5t-13 -5.5h-71l-17 -128q-4 -19 -20 -19h-87q-7 0 -11.5 5.5t-3.5 13.5l18 126h-270zM178 249h156l35 221z" />
    <glyph glyph-name="five.tf" horiz-adv-x="580" 
d="M71 79q-10 13 4 25l51 48q14 14 29 -5q40 -47 98 -47q50 0 85.5 41t35.5 96q0 41 -22.5 67.5t-63.5 26.5h-139q-13 0 -19 11t-4 24l42 295q1 8 7 13.5t13 5.5h287q7 0 11.5 -5.5t3.5 -13.5l-10 -68q-1 -8 -7 -13.5t-13 -5.5h-191l-19 -133h70q82 0 129.5 -55t47.5 -142
q0 -113 -67.5 -183.5t-176.5 -70.5q-70 0 -115.5 29t-66.5 60z" />
    <glyph glyph-name="six.tf" horiz-adv-x="580" 
d="M69 224q0 92 31 172t73.5 130t98 90t93.5 58t71 28q22 6 25 -14l16 -61q5 -19 -21 -29q-33 -12 -70.5 -31t-87.5 -61t-68 -88q36 18 90 18q73 0 122 -51.5t49 -137.5q0 -109 -68 -183t-165 -74q-84 0 -136.5 68.5t-52.5 165.5zM265 104q46 0 78.5 40t32.5 94q0 42 -24 70
t-64 28q-33 0 -60 -20.5t-42 -41.5q-6 -36 -2 -73.5t26 -67t55 -29.5z" />
    <glyph glyph-name="seven.tf" horiz-adv-x="580" 
d="M65 19l2 11l312 542h-228q-7 0 -11.5 5.5t-3.5 13.5l10 70q1 7 7 13t13 6h374q7 0 11.5 -6t3.5 -13l-3 -15l-352 -619q-16 -27 -35 -27h-82q-22 0 -18 19z" />
    <glyph glyph-name="eight.tf" horiz-adv-x="580" 
d="M59 158q0 36 16.5 70.5t43.5 60t42.5 38t32.5 22.5v3q-27 19 -49.5 55t-22.5 81q0 89 63.5 145.5t159.5 56.5q76 0 128 -44.5t52 -115.5q0 -61 -35.5 -105.5t-80.5 -71.5l-1 -4q33 -20 60.5 -59t27.5 -89q0 -91 -66 -151t-180 -60q-89 0 -140 47t-51 121zM309 407
q42 12 65 41t23 66q0 30 -18.5 49t-45.5 19q-32 0 -58.5 -27t-26.5 -67q0 -62 61 -81zM193 171q0 -34 21 -54t51 -20q37 0 67.5 27.5t30.5 72.5q0 31 -19 57.5t-52 35.5q-44 -13 -71.5 -46.5t-27.5 -72.5z" />
    <glyph glyph-name="nine.tf" horiz-adv-x="580" 
d="M103 59q-5 19 21 29q33 12 70.5 31t87.5 61t68 88q-36 -18 -90 -18q-73 0 -122 51.5t-49 137.5q0 109 68 183t165 74q84 0 136.5 -68.5t52.5 -165.5q0 -92 -31 -172t-73.5 -130t-98 -90t-93.5 -58t-71 -28q-22 -6 -25 14zM292 350q33 0 60 20.5t42 41.5q6 36 2 73.5
t-26 67t-55 29.5q-46 0 -78.5 -40t-32.5 -94q0 -42 24 -70t64 -28z" />
    <glyph glyph-name="zero.denom" horiz-adv-x="324" 
d="M63 113q0 88 38 140.5t104 52.5q46 0 72 -33t26 -90q0 -88 -38 -140.5t-104 -52.5q-45 0 -71.5 33.5t-26.5 89.5zM171 64q21 0 34.5 33.5t13.5 82.5q0 52 -24 52q-21 0 -34.5 -34t-13.5 -82q0 -52 24 -52z" />
    <glyph glyph-name="one.denom" horiz-adv-x="226" 
d="M101 9l27 193l-47 -4q-7 0 -6 9l3 30q1 9 9 14l74 45h52q9 0 7 -9l-39 -278q-2 -9 -10 -9h-62q-8 0 -8 9z" />
    <glyph glyph-name="two.denom" horiz-adv-x="285" 
d="M46 9l3 17l112 126q29 34 29 57q0 28 -24 28q-17 0 -44 -19q-10 -6 -16 5l-18 33q-6 12 7 21q41 29 88 29q37 0 62.5 -22t25.5 -57q0 -51 -42 -99l-57 -64h66q10 0 8 -9l-7 -46q0 -9 -9 -9h-176q-10 0 -8 9z" />
    <glyph glyph-name="three.denom" horiz-adv-x="285" 
d="M55 23q-8 8 0 18l22 26q9 9 17 2q13 -13 37 -13q38 0 38 36q0 28 -31 28h-28q-13 0 -10 14l4 31q1 14 17 14h26q15 0 25 10.5t10 25.5q0 25 -26 25q-15 0 -33 -16q-9 -5 -14 3l-21 31q-8 10 4 18q32 30 80 30q41 0 67 -19.5t26 -52.5q0 -29 -17 -50t-40 -31
q44 -21 44 -67q0 -44 -33.5 -70t-82.5 -26q-52 0 -81 33z" />
    <glyph glyph-name="four.denom" horiz-adv-x="336" 
d="M61 57q-7 0 -7 8l7 51l167 175q5 5 13 5h39q9 0 7 -9l-24 -170h35q9 0 7 -8l-6 -43q0 -9 -9 -9h-36l-6 -48q-2 -9 -10 -9h-56q-10 0 -8 9l7 48h-120zM131 116h59l12 72z" />
    <glyph glyph-name="five.denom" horiz-adv-x="294" 
d="M53 28q-5 8 1 15l27 32q7 9 14 2q20 -20 48 -20q17 0 30 12.5t13 30.5q0 14 -9 23t-24 9h-66q-14 0 -12 16l20 139q2 9 10 9h144q9 0 7 -9l-6 -44q0 -9 -10 -9h-89l-5 -39h28q43 0 66.5 -24t23.5 -63q0 -52 -33 -85t-93 -33q-27 0 -52 13t-33 25z" />
    <glyph glyph-name="six.denom" horiz-adv-x="303" 
d="M59 94q0 51 21 93t54 67t55.5 37t43.5 19q14 4 17 -8l14 -34q0 -13 -11 -16q-25 -8 -56.5 -28t-43.5 -46q13 13 49 13q29 0 50 -21.5t21 -59.5q0 -51 -33.5 -85.5t-84.5 -34.5q-42 0 -69 30t-27 74zM134 106q-2 -18 6 -32.5t22 -14.5t25 13t11 31q0 14 -7 23.5t-18 9.5
q-24 0 -39 -30z" />
    <glyph glyph-name="seven.denom" horiz-adv-x="292" 
d="M49 8l1 6l131 218h-90q-3 0 -6 2.5t-2 5.5l7 47q2 9 10 9h179q9 0 7 -9l-2 -14l-153 -264q-6 -9 -15 -9h-57q-6 0 -8.5 2t-1.5 6z" />
    <glyph glyph-name="eight.denom" horiz-adv-x="313" 
d="M55 67q0 52 66 85v1q-14 6 -25.5 22.5t-11.5 38.5q0 41 33 66.5t82 25.5q40 0 66.5 -20.5t26.5 -53.5q0 -29 -18.5 -49.5t-39.5 -29.5v-1q18 -5 32 -22.5t14 -43.5q0 -42 -34.5 -69t-91.5 -27q-45 0 -72 21.5t-27 55.5zM182 183q12 2 20 12t8 23q0 21 -20 21
q-11 0 -19.5 -8.5t-8.5 -21.5q0 -21 20 -26zM140 79q0 -11 7 -18t18 -7q12 0 22.5 9.5t10.5 25.5q0 11 -7 20t-18 10q-13 -2 -23 -13.5t-10 -26.5z" />
    <glyph glyph-name="nine.denom" horiz-adv-x="303" 
d="M80 26q0 13 11 16q25 8 56.5 28t43.5 46q-13 -13 -49 -13q-29 0 -50 21.5t-21 59.5q0 51 33.5 85.5t84.5 34.5q42 0 69 -30t27 -74q0 -51 -21 -93t-54 -67t-55.5 -37t-43.5 -19q-14 -4 -17 8zM171 158q24 0 39 30q2 18 -6 32.5t-22 14.5t-25 -13t-11 -31q0 -14 7 -23.5
t18 -9.5z" />
    <glyph glyph-name="zero.num" horiz-adv-x="324" 
d="M211 394q-45 0 -71.5 33.5t-26.5 89.5q0 88 38 140.5t104 52.5q46 0 72 -33t26 -90q0 -88 -38 -140.5t-104 -52.5zM221 468q21 0 34.5 33.5t13.5 82.5q0 52 -24 52q-21 0 -34.5 -34t-13.5 -82q0 -52 24 -52z" />
    <glyph glyph-name="one.num" horiz-adv-x="226" 
d="M159 404q-8 0 -8 9l27 193l-47 -4q-7 0 -6 9l3 30q1 9 9 14l74 45h52q9 0 7 -9l-39 -278q-2 -9 -10 -9h-62z" />
    <glyph glyph-name="two.num" horiz-adv-x="285" 
d="M104 404q-10 0 -8 9l3 17l112 126q29 34 29 57q0 28 -24 28q-17 0 -44 -19q-10 -6 -16 5l-18 33q-6 12 7 21q41 29 88 29q37 0 62.5 -22t25.5 -57q0 -51 -42 -99l-57 -64h66q10 0 8 -9l-7 -46q0 -9 -9 -9h-176z" />
    <glyph glyph-name="three.num" horiz-adv-x="285" 
d="M186 394q-52 0 -81 33q-8 8 0 18l22 26q9 9 17 2q13 -13 37 -13q38 0 38 36q0 28 -31 28h-28q-13 0 -10 14l4 31q1 14 17 14h26q15 0 25 10.5t10 25.5q0 25 -26 25q-15 0 -33 -16q-9 -5 -14 3l-21 31q-8 10 4 18q32 30 80 30q41 0 67 -19.5t26 -52.5q0 -29 -17 -50
t-40 -31q44 -21 44 -67q0 -44 -33.5 -70t-82.5 -26z" />
    <glyph glyph-name="four.num" horiz-adv-x="336" 
d="M232 404q-10 0 -8 9l7 48h-120q-7 0 -7 8l7 51l167 175q5 5 13 5h39q9 0 7 -9l-24 -170h35q9 0 7 -8l-6 -43q0 -9 -9 -9h-36l-6 -48q-2 -9 -10 -9h-56zM181 520h59l12 72z" />
    <glyph glyph-name="five.num" horiz-adv-x="294" 
d="M188 394q-27 0 -52 13t-33 25q-5 8 1 15l27 32q7 9 14 2q20 -20 48 -20q17 0 30 12.5t13 30.5q0 14 -9 23t-24 9h-66q-14 0 -12 16l20 139q2 9 10 9h144q9 0 7 -9l-6 -44q0 -9 -10 -9h-89l-5 -39h28q43 0 66.5 -24t23.5 -63q0 -52 -33 -85t-93 -33z" />
    <glyph glyph-name="six.num" horiz-adv-x="303" 
d="M205 394q-42 0 -69 30t-27 74q0 51 21 93t54 67t55.5 37t43.5 19q14 4 17 -8l14 -34q0 -13 -11 -16q-25 -8 -56.5 -28t-43.5 -46q13 13 49 13q29 0 50 -21.5t21 -59.5q0 -51 -33.5 -85.5t-84.5 -34.5zM212 463q14 0 25 13t11 31q0 14 -7 23.5t-18 9.5q-24 0 -39 -30
q-2 -18 6 -32.5t22 -14.5z" />
    <glyph glyph-name="seven.num" horiz-adv-x="292" 
d="M109 404q-6 0 -8.5 2t-1.5 6l1 6l131 218h-90q-3 0 -6 2.5t-2 5.5l7 47q2 9 10 9h179q9 0 7 -9l-2 -14l-153 -264q-6 -9 -15 -9h-57z" />
    <glyph glyph-name="eight.num" horiz-adv-x="313" 
d="M204 394q-45 0 -72 21.5t-27 55.5q0 52 66 85v1q-14 6 -25.5 22.5t-11.5 38.5q0 41 33 66.5t82 25.5q40 0 66.5 -20.5t26.5 -53.5q0 -29 -18.5 -49.5t-39.5 -29.5v-1q18 -5 32 -22.5t14 -43.5q0 -42 -34.5 -69t-91.5 -27zM232 587q12 2 20 12t8 23q0 21 -20 21
q-11 0 -19.5 -8.5t-8.5 -21.5q0 -21 20 -26zM215 458q12 0 22.5 9.5t10.5 25.5q0 11 -7 20t-18 10q-13 -2 -23 -13.5t-10 -26.5q0 -11 7 -18t18 -7z" />
    <glyph glyph-name="nine.num" horiz-adv-x="303" 
d="M161 388q-14 -4 -17 8l-14 34q0 13 11 16q25 8 56.5 28t43.5 46q-13 -13 -49 -13q-29 0 -50 21.5t-21 59.5q0 51 33.5 85.5t84.5 34.5q42 0 69 -30t27 -74q0 -51 -21 -93t-54 -67t-55.5 -37t-43.5 -19zM221 562q24 0 39 30q2 18 -6 32.5t-22 14.5t-25 -13t-11 -31
q0 -14 7 -23.5t18 -9.5z" />
    <glyph glyph-name="parenleft.case" horiz-adv-x="327" 
d="M66 237q0 117 18.5 207t47.5 143t69.5 88t77.5 48t79 17q7 1 11.5 -3.5t3.5 -11.5l-6 -66q-1 -14 -14 -18q-34 -8 -60.5 -29.5t-43 -47t-28.5 -64t-17.5 -67t-8.5 -70.5t-3.5 -61.5t-0.5 -51.5v-10q0 -157 80 -190q11 -4 8 -18l-12 -65q-3 -16 -20 -16q-73 3 -127 75.5
t-54 210.5z" />
    <glyph glyph-name="parenright.case" horiz-adv-x="328" 
d="M12 33q1 14 14 18q162 52 162 398q0 170 -80 192q-11 4 -8 18l12 66q4 17 20 15q75 -6 128 -74.5t53 -212.5q0 -118 -19 -209t-47.5 -144t-69 -87.5t-77.5 -47t-79 -14.5q-17 0 -15 16z" />
    <glyph glyph-name="hyphen.case" horiz-adv-x="348" 
d="M79 282q-16 0 -14 18l9 67q2 19 20 19h204q16 0 14 -19l-9 -67q-2 -18 -20 -18h-204z" />
    <glyph glyph-name="bracketleft.case" horiz-adv-x="332" 
d="M133 -80h115q7 0 11.5 -5.5t3.5 -12.5l-9 -63q-1 -7 -7 -13t-13 -6h-213q-7 0 -11.5 5.5t-3.5 13.5l136 962q1 7 6.5 13t12.5 6h214q7 0 11 -5.5t3 -13.5l-8 -62q-1 -8 -7 -13.5t-13 -5.5h-115z" />
    <glyph glyph-name="bracketright.case" horiz-adv-x="333" 
d="M-10 -80h115l113 800h-116q-7 0 -11 5.5t-3 13.5l9 62q1 7 6.5 13t12.5 6h214q7 0 11 -6t3 -13l-135 -962q-1 -7 -7 -13t-13 -6h-213q-7 0 -11.5 5.5t-3.5 13.5l9 63q1 7 7 12.5t13 5.5z" />
    <glyph glyph-name="braceleft.case" horiz-adv-x="360" 
d="M71 84l17 123q4 30 -14 47t-39 21q-13 2 -11 18l7 49q2 13 15 17q7 2 19.5 8.5t31.5 24t22 36.5l18 127q38 265 262 275q17 0 16 -17l-5 -63q-1 -14 -15 -18q-53 -11 -87.5 -56.5t-45.5 -120.5l-15 -105q-3 -20 -11 -39t-17.5 -32t-21 -24.5t-20.5 -18t-16 -11.5l-7 -5
v-4q68 -34 59 -105l-20 -164q-6 -54 19 -90t68 -48q13 -4 10 -19l-13 -63q-3 -17 -21 -17q-38 2 -72 16t-65 43.5t-44.5 84.5t-3.5 130z" />
    <glyph glyph-name="bar.case" horiz-adv-x="175" 
d="M5 -162l144 1023q1 8 6.5 13.5t12.5 5.5h14q16 0 14 -19l-144 -1023q-1 -7 -7 -12.5t-13 -5.5h-12q-7 0 -11.5 5.5t-3.5 12.5z" />
    <glyph glyph-name="braceright.case" horiz-adv-x="361" 
d="M116 84l15 107q12 89 93 125v4l-6 5q-6 5 -12.5 11.5t-14.5 18t-14 24.5t-9 32t0 39l14 105q22 151 -83 177q-13 2 -10 18l13 63q3 17 20 17q62 -3 108.5 -42.5t67 -100t11.5 -125.5l-19 -134q-2 -15 4 -28t17 -21.5t18.5 -13t14.5 -6.5q11 -4 9 -17l-6 -49
q-2 -13 -14 -16q-15 -4 -22 -7t-20.5 -10.5t-21.5 -20.5t-10 -32l-17 -123q-9 -67 -31 -117.5t-48.5 -79.5t-60.5 -47t-63 -24t-60 -6q-8 0 -12 3.5t-3 10.5l4 66q1 16 15 19q113 28 133 175z" />
    <glyph glyph-name="guilsinglleft.case" horiz-adv-x="262" 
d="M110 159l-72 155q-6 13 3 24l114 148q10 12 21 12h64q12 0 14.5 -9.5t-4.5 -21.5l-80 -149l32 -137q3 -12 -2 -21t-16 -9h-62q-8 0 -12 8z" />
    <glyph glyph-name="guilsinglright.case" horiz-adv-x="261" 
d="M41 151q-12 0 -14.5 9.5t4.5 21.5l80 149l-32 137q-3 12 2 21t16 9h62q8 0 12 -8l72 -155q6 -13 -3 -24l-114 -148q-10 -12 -21 -12h-64z" />
    <glyph glyph-name="guillemotleft.case" horiz-adv-x="450" 
d="M298 159l-72 155q-6 13 3 24l114 148q10 12 21 12h64q12 0 14.5 -9.5t-4.5 -21.5l-80 -149l32 -137q3 -12 -2 -21t-16 -9h-62q-8 0 -12 8zM110 159l-72 155q-6 13 3 24l114 148q10 12 21 12h64q12 0 14.5 -9.5t-4.5 -21.5l-80 -149l32 -137q3 -12 -2 -21t-16 -9h-62
q-8 0 -12 8z" />
    <glyph glyph-name="guillemotright.case" horiz-adv-x="450" 
d="M220 182l80 149l-32 137q-3 12 2 21t16 9h62q8 0 12 -8l72 -155q6 -13 -3 -24l-114 -148q-10 -12 -21 -12h-64q-12 0 -14.5 9.5t4.5 21.5zM42 151q-12 0 -14.5 9.5t4.5 21.5l80 149l-32 137q-3 12 2 21t16 9h62q8 0 12 -8l72 -155q6 -13 -3 -24l-114 -148
q-10 -12 -21 -12h-64z" />
    <glyph glyph-name="endash.case" horiz-adv-x="504" 
d="M88 300q-17 0 -15 18l5 37q2 19 20 19h363q16 0 14 -19l-5 -37q-2 -18 -20 -18h-362z" />
    <glyph glyph-name="emdash.case" horiz-adv-x="702" 
d="M88 300q-17 0 -15 18l5 37q2 19 20 19h561q16 0 14 -19l-5 -37q-2 -18 -20 -18h-560z" />
    <glyph glyph-name="bullet.case" horiz-adv-x="358" 
d="M180 185q-45 0 -75 33.5t-30 80.5q0 59 43.5 103.5t98.5 44.5q47 0 77.5 -34t30.5 -83q0 -59 -44 -102t-101 -43z" />
    <glyph glyph-name="periodcentered.case" horiz-adv-x="258" 
d="M139 257q-33 0 -55 23t-22 56q0 41 31 71.5t71 30.5q34 0 57 -23.5t23 -57.5q0 -40 -32 -70t-73 -30z" />
    </font>
</defs>
</svg>
