<?xml version="1.0" encoding="UTF-8"?>
<svg width="70px" height="70px" viewBox="0 0 70 70" version="1.1" xmlns="http://www.w3.org/2000/svg" xmlns:xlink="http://www.w3.org/1999/xlink">
    <!-- Generator: Sketch 43.2 (39069) - http://www.bohemiancoding.com/sketch -->
    <title>github</title>
    <desc>Created with Sketch.</desc>
    <defs>
        <rect id="path-1" x="0" y="0" width="70" height="70"></rect>
    </defs>
    <g id="Page-1" stroke="none" stroke-width="1" fill="none" fill-rule="evenodd">
        <g id="github">
            <mask id="mask-2" fill="white">
                <use xlink:href="#path-1"></use>
            </mask>
            <g id="Rectangle"></g>
            <path d="M57.709,0.5 C58.879,3.157 59.637,7.57 58.506,10.801 C63.131,14.75 64.721,24.35 62.488,32.195 C69.08,32.698 76.932,31.953 82,33.976 C77.262,33.367 70.791,32.172 64.68,32.588 C63.522,32.667 61.807,32.544 61.891,34.173 C68.965,34.728 75.995,35.333 81.803,37.146 C76.042,36.205 69.049,34.771 61.891,34.572 C58.934,40.407 52.983,43.275 44.768,43.879 C45.651,45.801 47.342,46.532 47.755,49.623 C48.371,54.241 46.791,61.004 48.35,64.082 C49.098,65.557 50.317,65.596 51.139,66.857 C49.127,69.238 44.139,66.589 43.571,64.082 C42.598,59.787 45.053,53.129 42.379,50.217 C42.567,54.902 41.271,61.481 42.578,65.666 C43.093,67.312 44.58,67.947 44.171,69.432 C34.819,70.381 38.728,57.328 37.199,49.622 C35.788,49.723 36.408,51.735 36.403,52.594 C36.363,60.118 37.943,70.438 29.833,69.432 C29.596,67.85 30.921,67.313 31.426,65.869 C32.905,61.636 31.149,55.327 31.827,50.218 C28.732,52.552 32.152,60.698 30.234,64.875 C29.129,67.279 25.568,68.325 22.867,67.252 C23.219,65.462 25.067,65.751 25.851,64.083 C26.947,61.759 25.859,58.409 26.25,54.972 C20.521,56.116 16.077,54.806 13.902,51.208 C12.929,49.593 12.688,47.688 11.512,46.257 C10.342,44.825 8.472,44.632 7.93,42.694 C15.025,40.986 15.297,49.996 21.669,50.218 C23.623,50.289 24.639,49.655 26.447,49.23 C26.953,46.958 28.036,45.263 29.633,44.077 C21.704,42.992 15.156,40.523 12.111,34.573 C4.903,34.927 -1.693,35.89 -7.802,37.344 C-2.257,35.33 4.582,34.608 11.913,34.371 C11.481,31.775 7.694,32.489 5.343,32.589 C0.973,32.781 -4.527,33.324 -8,33.976 C-2.966,32.181 4.098,32.405 10.918,32.391 C8.832,25.851 9.555,15.462 14.104,11.593 C12.815,8.344 13.215,3.03 14.9,0.5 C19.979,0.728 23.059,2.943 26.25,5.057 C30.207,3.932 34.368,3.372 39.79,3.67 C42.07,3.796 44.441,4.821 46.159,4.659 C47.844,4.501 49.701,2.61 51.337,1.888 C53.468,0.947 55.271,0.588 57.709,0.5 Z" id="Github__x28_alt_x29_" fill="#FFFFFF" fill-rule="nonzero" mask="url(#mask-2)"></path>
        </g>
    </g>
</svg>