<?xml version="1.0" encoding="UTF-8"?>
<svg width="70px" height="67px" viewBox="0 0 70 67" version="1.1" xmlns="http://www.w3.org/2000/svg" xmlns:xlink="http://www.w3.org/1999/xlink">
    <!-- Generator: Sketch 43.2 (39069) - http://www.bohemiancoding.com/sketch -->
    <title>github</title>
    <desc>Created with Sketch.</desc>
    <defs>
        <rect id="path-1" x="0" y="0" width="70" height="70"></rect>
    </defs>
    <g id="Page-1" stroke="none" stroke-width="1" fill="none" fill-rule="evenodd">
        <g id="github" transform="translate(0.000000, -2.000000)">
            <mask id="mask-2" fill="white">
                <use xlink:href="#path-1"></use>
            </mask>
            <g id="Rectangle"></g>
            <path d="M70,43.009456 L70,68.8887768 L54.9967334,68.8887768 L54.9967334,44.7426968 C54.9967334,38.6770047 52.8266727,34.537407 47.3959876,34.537407 C43.2503482,34.537407 40.7832752,37.3271925 39.6979194,40.0258404 C39.3021201,40.9905965 39.2002409,42.3334106 39.2002409,43.6838738 L39.2002409,68.8887768 L24.1919292,68.8887768 C24.1919292,68.8887768 24.3940602,27.9932428 24.1919292,23.7561604 L39.1987761,23.7561604 L39.1987761,30.1535282 C39.1683426,30.2013754 39.1287952,30.2529657 39.1001518,30.2993482 L39.1987761,30.2993482 L39.1987761,30.1535282 C41.1925825,27.082681 44.7533113,22.6958727 52.7233288,22.6958727 C62.597642,22.69571 70,29.1464582 70,43.009456 Z M8.4925962,2 C3.35827228,2 0,5.36769519 0,9.7963291 C0,14.1284549 3.26111267,17.5983543 8.29339459,17.5983543 L8.39364638,17.5983543 C13.6274084,17.5983543 16.8823367,14.1291058 16.8823367,9.7963291 C16.7837123,5.36769519 13.6274084,2 8.4925962,2 Z M0.891362118,68.8887768 L15.8939777,68.8887768 L15.8939777,23.7561604 L0.891362118,23.7561604 L0.891362118,68.8887768 Z" id="LinkedIn" fill="#FFFFFF" fill-rule="nonzero" mask="url(#mask-2)"></path>
        </g>
    </g>
</svg>