<?xml version="1.0" encoding="UTF-8"?>
<svg width="69px" height="50px" viewBox="0 0 69 50" version="1.1" xmlns="http://www.w3.org/2000/svg" xmlns:xlink="http://www.w3.org/1999/xlink">
    <!-- Generator: Sketch 43.2 (39069) - http://www.bohemiancoding.com/sketch -->
    <title>github</title>
    <desc>Created with Sketch.</desc>
    <defs>
        <rect id="path-1" x="0" y="0" width="70" height="70"></rect>
    </defs>
    <g id="Page-1" stroke="none" stroke-width="1" fill="none" fill-rule="evenodd">
        <g id="github" transform="translate(0.000000, -10.000000)">
            <mask id="mask-2" fill="white">
                <use xlink:href="#path-1"></use>
            </mask>
            <g id="Rectangle"></g>
            <path d="M61.0688789,32.3450736 C65.0003441,32.0207199 67.6671069,30.2334388 68.6933858,27.8083545 C67.2752135,28.679536 62.8729229,29.6293241 60.4416542,28.7247795 C60.3225239,28.1535396 60.1893973,27.6109431 60.0587119,27.1210764 C58.2061695,20.3186017 51.8632907,14.8382789 45.2172153,15.5003313 C45.7549295,15.2832276 46.3002927,15.0810965 46.8440285,14.8996343 C47.5755736,14.6376126 51.8676848,13.9392677 51.191799,12.4242613 C50.6221865,11.0916937 45.3781715,13.4313361 44.390789,13.7371366 C45.6942251,13.2469444 47.8498013,12.4037553 48.0807385,10.906 C46.08384,11.1799022 44.1235594,12.1239942 42.6088785,13.4967602 C43.1557065,12.9081064 43.5705471,12.1907202 43.6585929,11.4186512 C38.3325537,14.8211905 35.2213305,21.6809519 32.7034807,28.3351646 C30.7264372,26.4191511 28.9741466,24.9103291 27.4021789,24.0725105 C22.9922393,21.7076423 17.7194182,19.2402439 9.44229826,16.1675916 C9.1882511,18.9061255 10.7966739,22.5474138 15.4313663,24.9689178 C14.427221,24.8344892 12.5909532,25.1344309 11.1223295,25.4861259 C11.7204226,28.6233885 13.6737051,31.2081271 18.9616616,32.4580196 C16.5450401,32.6175111 15.2961241,33.1674312 14.1642228,34.3527133 C15.2648768,36.5346545 17.9506809,39.1026302 22.7821337,38.5754946 C17.4105255,40.8907251 20.5918924,45.1782794 24.9627729,44.5388487 C17.5063831,52.2404974 5.75055857,51.6744653 -1,45.2327995 C16.6252741,69.2496135 54.938547,59.4363301 60.6481794,36.3035546 C64.925969,36.3400098 67.4407266,34.8217485 69,33.1479016 C66.5353683,33.5661599 62.9630845,33.1339054 61.0688789,32.3450736 Z" id="Twitter__x28_alt_x29_" fill="#FFFFFF" fill-rule="nonzero" mask="url(#mask-2)"></path>
        </g>
    </g>
</svg>